%TF.GenerationSoftware,KiCad,Pcbnew,8.0.2*%
%TF.CreationDate,2024-05-20T01:45:51+09:00*%
%TF.ProjectId,Spct,53706374-2e6b-4696-9361-645f70636258,rev?*%
%TF.SameCoordinates,PX2540608PY1ee3f58*%
%TF.FileFunction,Paste,Bot*%
%TF.FilePolarity,Positive*%
%FSLAX46Y46*%
G04 Gerber Fmt 4.6, Leading zero omitted, Abs format (unit mm)*
G04 Created by KiCad (PCBNEW 8.0.2) date 2024-05-20 01:45:51*
%MOMM*%
%LPD*%
G01*
G04 APERTURE LIST*
G04 Aperture macros list*
%AMRoundRect*
0 Rectangle with rounded corners*
0 $1 Rounding radius*
0 $2 $3 $4 $5 $6 $7 $8 $9 X,Y pos of 4 corners*
0 Add a 4 corners polygon primitive as box body*
4,1,4,$2,$3,$4,$5,$6,$7,$8,$9,$2,$3,0*
0 Add four circle primitives for the rounded corners*
1,1,$1+$1,$2,$3*
1,1,$1+$1,$4,$5*
1,1,$1+$1,$6,$7*
1,1,$1+$1,$8,$9*
0 Add four rect primitives between the rounded corners*
20,1,$1+$1,$2,$3,$4,$5,0*
20,1,$1+$1,$4,$5,$6,$7,0*
20,1,$1+$1,$6,$7,$8,$9,0*
20,1,$1+$1,$8,$9,$2,$3,0*%
%AMFreePoly0*
4,1,26,2.136417,2.481691,1.985076,2.414088,1.698684,2.247201,1.434876,2.046509,1.197621,1.815032,0.990488,1.556251,0.816592,1.274060,0.678550,0.972703,0.578438,0.656713,0.517762,0.330845,0.497435,0.000000,0.517762,-0.330845,0.578438,-0.656713,0.678550,-0.972703,0.816592,-1.274060,0.990488,-1.556251,1.197621,-1.815032,1.434876,-2.046509,1.698684,-2.247201,1.985076,-2.414088,
2.136417,-2.481691,2.150000,-3.650000,-0.450000,-3.650000,-0.450000,3.650000,2.150000,3.650000,2.136417,2.481691,2.136417,2.481691,$1*%
G04 Aperture macros list end*
%ADD10C,0.010000*%
%ADD11RoundRect,0.032500X-0.097500X0.387500X-0.097500X-0.387500X0.097500X-0.387500X0.097500X0.387500X0*%
%ADD12RoundRect,0.150000X0.587500X0.150000X-0.587500X0.150000X-0.587500X-0.150000X0.587500X-0.150000X0*%
%ADD13R,1.800000X1.800000*%
%ADD14RoundRect,0.250000X-0.900000X1.000000X-0.900000X-1.000000X0.900000X-1.000000X0.900000X1.000000X0*%
%ADD15RoundRect,0.250000X-0.250000X-0.475000X0.250000X-0.475000X0.250000X0.475000X-0.250000X0.475000X0*%
%ADD16RoundRect,0.225000X0.225000X0.250000X-0.225000X0.250000X-0.225000X-0.250000X0.225000X-0.250000X0*%
%ADD17RoundRect,0.250000X0.250000X0.475000X-0.250000X0.475000X-0.250000X-0.475000X0.250000X-0.475000X0*%
%ADD18RoundRect,0.200000X-0.275000X0.200000X-0.275000X-0.200000X0.275000X-0.200000X0.275000X0.200000X0*%
%ADD19RoundRect,0.200000X0.200000X0.275000X-0.200000X0.275000X-0.200000X-0.275000X0.200000X-0.275000X0*%
%ADD20RoundRect,0.200000X-0.200000X-0.275000X0.200000X-0.275000X0.200000X0.275000X-0.200000X0.275000X0*%
%ADD21FreePoly0,90.000000*%
%ADD22FreePoly0,270.000000*%
%ADD23RoundRect,0.225000X-0.225000X-0.250000X0.225000X-0.250000X0.225000X0.250000X-0.225000X0.250000X0*%
%ADD24RoundRect,0.225000X0.250000X-0.225000X0.250000X0.225000X-0.250000X0.225000X-0.250000X-0.225000X0*%
%ADD25RoundRect,0.250000X0.650000X-0.325000X0.650000X0.325000X-0.650000X0.325000X-0.650000X-0.325000X0*%
%ADD26RoundRect,0.218750X0.256250X-0.218750X0.256250X0.218750X-0.256250X0.218750X-0.256250X-0.218750X0*%
%ADD27RoundRect,0.150000X-0.825000X-0.150000X0.825000X-0.150000X0.825000X0.150000X-0.825000X0.150000X0*%
%ADD28RoundRect,0.250000X-1.000000X2.175000X-1.000000X-2.175000X1.000000X-2.175000X1.000000X2.175000X0*%
%ADD29RoundRect,0.150000X-0.650000X-0.150000X0.650000X-0.150000X0.650000X0.150000X-0.650000X0.150000X0*%
%ADD30RoundRect,0.200000X0.275000X-0.200000X0.275000X0.200000X-0.275000X0.200000X-0.275000X-0.200000X0*%
%ADD31RoundRect,0.150000X-0.587500X-0.150000X0.587500X-0.150000X0.587500X0.150000X-0.587500X0.150000X0*%
%ADD32RoundRect,0.490000X-0.490000X-1.085000X0.490000X-1.085000X0.490000X1.085000X-0.490000X1.085000X0*%
%ADD33RoundRect,0.157500X-0.257500X0.157500X-0.257500X-0.157500X0.257500X-0.157500X0.257500X0.157500X0*%
G04 APERTURE END LIST*
D10*
%TO.C,U6*%
X24790000Y-40540000D02*
X22710000Y-40540000D01*
X22710000Y-39460000D01*
X24790000Y-39460000D01*
X24790000Y-40540000D01*
G36*
X24790000Y-40540000D02*
G01*
X22710000Y-40540000D01*
X22710000Y-39460000D01*
X24790000Y-39460000D01*
X24790000Y-40540000D01*
G37*
%TD*%
D11*
%TO.C,U6*%
X22500000Y-38565000D03*
X23000000Y-38565000D03*
X23500000Y-38565000D03*
X24000000Y-38565000D03*
X24500000Y-38565000D03*
X25000000Y-38565000D03*
X25000000Y-41435000D03*
X24500000Y-41435000D03*
X24000000Y-41435000D03*
X23500000Y-41435000D03*
X23000000Y-41435000D03*
X22500000Y-41435000D03*
%TD*%
D12*
%TO.C,Q1*%
X58623635Y-34244661D03*
X60498635Y-35194661D03*
X60498635Y-33294661D03*
%TD*%
D13*
%TO.C,LS1*%
X50075000Y-27925000D03*
X50075000Y-34075000D03*
X43925000Y-34075000D03*
X43925000Y-27925000D03*
%TD*%
D14*
%TO.C,D1*%
X54700000Y-33650000D03*
X54700000Y-29350000D03*
%TD*%
D15*
%TO.C,C15*%
X36450000Y-43500000D03*
X34550000Y-43500000D03*
%TD*%
%TO.C,C14*%
X36450000Y-46000000D03*
X34550000Y-46000000D03*
%TD*%
%TO.C,C13*%
X36450000Y-48500000D03*
X34550000Y-48500000D03*
%TD*%
D16*
%TO.C,C12*%
X24225000Y-51500000D03*
X25775000Y-51500000D03*
%TD*%
D15*
%TO.C,C11*%
X36450000Y-51000000D03*
X34550000Y-51000000D03*
%TD*%
D17*
%TO.C,C10*%
X24050000Y-49500000D03*
X25950000Y-49500000D03*
%TD*%
D18*
%TO.C,R23*%
X20500000Y-32425000D03*
X20500000Y-30775000D03*
%TD*%
D19*
%TO.C,R22*%
X18325000Y-43500000D03*
X16675000Y-43500000D03*
%TD*%
D20*
%TO.C,R21*%
X20175000Y-43500000D03*
X21825000Y-43500000D03*
%TD*%
D18*
%TO.C,R20*%
X19000000Y-40825000D03*
X19000000Y-39175000D03*
%TD*%
D19*
%TO.C,R19*%
X24175000Y-47500000D03*
X25825000Y-47500000D03*
%TD*%
%TO.C,R15*%
X22500000Y-47500000D03*
X20850000Y-47500000D03*
%TD*%
D21*
%TO.C,L1*%
X31500000Y-41200000D03*
D22*
X31500000Y-34800000D03*
%TD*%
D16*
%TO.C,C9*%
X24225000Y-45500000D03*
X25775000Y-45500000D03*
%TD*%
D23*
%TO.C,C8*%
X24225000Y-43500000D03*
X25775000Y-43500000D03*
%TD*%
%TO.C,C7*%
X24275000Y-35500000D03*
X22725000Y-35500000D03*
%TD*%
D24*
%TO.C,C6*%
X22500000Y-30825000D03*
X22500000Y-32375000D03*
%TD*%
D25*
%TO.C,C5*%
X24500000Y-30025000D03*
X24500000Y-32975000D03*
%TD*%
D26*
%TO.C,D4*%
X8300000Y-95400000D03*
X8300000Y-96975000D03*
%TD*%
D27*
%TO.C,U2*%
X36925000Y-72710000D03*
X36925000Y-71440000D03*
X36925000Y-70170000D03*
X36925000Y-68900000D03*
X36925000Y-67630000D03*
X36925000Y-66360000D03*
X36925000Y-65090000D03*
X41875000Y-65090000D03*
X41875000Y-66360000D03*
X41875000Y-67630000D03*
X41875000Y-68900000D03*
X41875000Y-70170000D03*
X41875000Y-71440000D03*
X41875000Y-72710000D03*
%TD*%
D23*
%TO.C,C4*%
X30725000Y-10000000D03*
X32275000Y-10000000D03*
%TD*%
D28*
%TO.C,C1*%
X53000000Y-21925000D03*
X53000000Y-13075000D03*
%TD*%
D29*
%TO.C,U4*%
X47100000Y-44905000D03*
X47100000Y-43635000D03*
X47100000Y-42365000D03*
X47100000Y-41095000D03*
X39900000Y-41095000D03*
X39900000Y-42365000D03*
X39900000Y-43635000D03*
X39900000Y-44905000D03*
%TD*%
D18*
%TO.C,R18*%
X55500000Y-41000000D03*
X55500000Y-42650000D03*
%TD*%
%TO.C,R17*%
X53500000Y-37675000D03*
X53500000Y-39325000D03*
%TD*%
%TO.C,R16*%
X51500000Y-37675000D03*
X51500000Y-39325000D03*
%TD*%
D19*
%TO.C,R14*%
X19225000Y-14800000D03*
X17575000Y-14800000D03*
%TD*%
%TO.C,R13*%
X32325000Y-11800000D03*
X30675000Y-11800000D03*
%TD*%
D20*
%TO.C,R12*%
X62513201Y-33296026D03*
X64163201Y-33296026D03*
%TD*%
D18*
%TO.C,R11*%
X19600000Y-93125000D03*
X19600000Y-91475000D03*
%TD*%
D30*
%TO.C,R10*%
X56900000Y-92375000D03*
X56900000Y-94025000D03*
%TD*%
%TO.C,R9*%
X59500000Y-85525000D03*
X59500000Y-83875000D03*
%TD*%
D20*
%TO.C,R8*%
X38625000Y-10100000D03*
X36975000Y-10100000D03*
%TD*%
D30*
%TO.C,R7*%
X49100000Y-93925000D03*
X49100000Y-92275000D03*
%TD*%
D18*
%TO.C,R6*%
X52000000Y-93925000D03*
X52000000Y-92275000D03*
%TD*%
%TO.C,R5*%
X8300000Y-91875000D03*
X8300000Y-93525000D03*
%TD*%
%TO.C,R4*%
X69700000Y-96525000D03*
X69700000Y-94875000D03*
%TD*%
%TO.C,R3*%
X66700000Y-99725000D03*
X66700000Y-98075000D03*
%TD*%
%TO.C,R2*%
X66700000Y-96525000D03*
X66700000Y-94875000D03*
%TD*%
D19*
%TO.C,R1*%
X73175000Y-28000000D03*
X74825000Y-28000000D03*
%TD*%
D12*
%TO.C,Q3*%
X27875000Y-10000000D03*
X27875000Y-11900000D03*
X26000000Y-10950000D03*
%TD*%
D31*
%TO.C,Q2*%
X17562500Y-11887500D03*
X17562500Y-9987500D03*
X19437500Y-10937500D03*
%TD*%
D32*
%TO.C,F1*%
X70910000Y-14000000D03*
X66000000Y-14000000D03*
%TD*%
D33*
%TO.C,D3*%
X69800000Y-97950000D03*
X69800000Y-100180000D03*
%TD*%
D14*
%TO.C,D2*%
X61500000Y-18150000D03*
X61500000Y-13850000D03*
%TD*%
D23*
%TO.C,C3*%
X39875000Y-75200000D03*
X38325000Y-75200000D03*
%TD*%
%TO.C,C2*%
X49675000Y-110400000D03*
X48125000Y-110400000D03*
%TD*%
M02*
