%TF.GenerationSoftware,KiCad,Pcbnew,8.0.2*%
%TF.CreationDate,2024-05-20T01:45:51+09:00*%
%TF.ProjectId,Spct,53706374-2e6b-4696-9361-645f70636258,rev?*%
%TF.SameCoordinates,PX2540608PY1ee3f58*%
%TF.FileFunction,AssemblyDrawing,Top*%
%FSLAX46Y46*%
G04 Gerber Fmt 4.6, Leading zero omitted, Abs format (unit mm)*
G04 Created by KiCad (PCBNEW 8.0.2) date 2024-05-20 01:45:51*
%MOMM*%
%LPD*%
G01*
G04 APERTURE LIST*
%ADD10C,0.150000*%
%ADD11C,0.127000*%
%ADD12C,0.200000*%
G04 APERTURE END LIST*
D10*
X-3590476Y-9054819D02*
X-3590476Y-8054819D01*
X-3590476Y-8054819D02*
X-3257143Y-8769104D01*
X-3257143Y-8769104D02*
X-2923810Y-8054819D01*
X-2923810Y-8054819D02*
X-2923810Y-9054819D01*
X-2304762Y-9054819D02*
X-2400000Y-9007200D01*
X-2400000Y-9007200D02*
X-2447619Y-8959580D01*
X-2447619Y-8959580D02*
X-2495238Y-8864342D01*
X-2495238Y-8864342D02*
X-2495238Y-8578628D01*
X-2495238Y-8578628D02*
X-2447619Y-8483390D01*
X-2447619Y-8483390D02*
X-2400000Y-8435771D01*
X-2400000Y-8435771D02*
X-2304762Y-8388152D01*
X-2304762Y-8388152D02*
X-2161905Y-8388152D01*
X-2161905Y-8388152D02*
X-2066667Y-8435771D01*
X-2066667Y-8435771D02*
X-2019048Y-8483390D01*
X-2019048Y-8483390D02*
X-1971429Y-8578628D01*
X-1971429Y-8578628D02*
X-1971429Y-8864342D01*
X-1971429Y-8864342D02*
X-2019048Y-8959580D01*
X-2019048Y-8959580D02*
X-2066667Y-9007200D01*
X-2066667Y-9007200D02*
X-2161905Y-9054819D01*
X-2161905Y-9054819D02*
X-2304762Y-9054819D01*
X-1114286Y-8388152D02*
X-1114286Y-9054819D01*
X-1542857Y-8388152D02*
X-1542857Y-8911961D01*
X-1542857Y-8911961D02*
X-1495238Y-9007200D01*
X-1495238Y-9007200D02*
X-1400000Y-9054819D01*
X-1400000Y-9054819D02*
X-1257143Y-9054819D01*
X-1257143Y-9054819D02*
X-1161905Y-9007200D01*
X-1161905Y-9007200D02*
X-1114286Y-8959580D01*
X-638095Y-8388152D02*
X-638095Y-9054819D01*
X-638095Y-8483390D02*
X-590476Y-8435771D01*
X-590476Y-8435771D02*
X-495238Y-8388152D01*
X-495238Y-8388152D02*
X-352381Y-8388152D01*
X-352381Y-8388152D02*
X-257143Y-8435771D01*
X-257143Y-8435771D02*
X-209524Y-8531009D01*
X-209524Y-8531009D02*
X-209524Y-9054819D01*
X123810Y-8388152D02*
X504762Y-8388152D01*
X266667Y-8054819D02*
X266667Y-8911961D01*
X266667Y-8911961D02*
X314286Y-9007200D01*
X314286Y-9007200D02*
X409524Y-9054819D01*
X409524Y-9054819D02*
X504762Y-9054819D01*
X838096Y-9054819D02*
X838096Y-8388152D01*
X838096Y-8054819D02*
X790477Y-8102438D01*
X790477Y-8102438D02*
X838096Y-8150057D01*
X838096Y-8150057D02*
X885715Y-8102438D01*
X885715Y-8102438D02*
X838096Y-8054819D01*
X838096Y-8054819D02*
X838096Y-8150057D01*
X1314286Y-8388152D02*
X1314286Y-9054819D01*
X1314286Y-8483390D02*
X1361905Y-8435771D01*
X1361905Y-8435771D02*
X1457143Y-8388152D01*
X1457143Y-8388152D02*
X1600000Y-8388152D01*
X1600000Y-8388152D02*
X1695238Y-8435771D01*
X1695238Y-8435771D02*
X1742857Y-8531009D01*
X1742857Y-8531009D02*
X1742857Y-9054819D01*
X2647619Y-8388152D02*
X2647619Y-9197676D01*
X2647619Y-9197676D02*
X2600000Y-9292914D01*
X2600000Y-9292914D02*
X2552381Y-9340533D01*
X2552381Y-9340533D02*
X2457143Y-9388152D01*
X2457143Y-9388152D02*
X2314286Y-9388152D01*
X2314286Y-9388152D02*
X2219048Y-9340533D01*
X2647619Y-9007200D02*
X2552381Y-9054819D01*
X2552381Y-9054819D02*
X2361905Y-9054819D01*
X2361905Y-9054819D02*
X2266667Y-9007200D01*
X2266667Y-9007200D02*
X2219048Y-8959580D01*
X2219048Y-8959580D02*
X2171429Y-8864342D01*
X2171429Y-8864342D02*
X2171429Y-8578628D01*
X2171429Y-8578628D02*
X2219048Y-8483390D01*
X2219048Y-8483390D02*
X2266667Y-8435771D01*
X2266667Y-8435771D02*
X2361905Y-8388152D01*
X2361905Y-8388152D02*
X2552381Y-8388152D01*
X2552381Y-8388152D02*
X2647619Y-8435771D01*
X3123810Y-9054819D02*
X3123810Y-8054819D01*
X3123810Y-8531009D02*
X3695238Y-8531009D01*
X3695238Y-9054819D02*
X3695238Y-8054819D01*
X4314286Y-9054819D02*
X4219048Y-9007200D01*
X4219048Y-9007200D02*
X4171429Y-8959580D01*
X4171429Y-8959580D02*
X4123810Y-8864342D01*
X4123810Y-8864342D02*
X4123810Y-8578628D01*
X4123810Y-8578628D02*
X4171429Y-8483390D01*
X4171429Y-8483390D02*
X4219048Y-8435771D01*
X4219048Y-8435771D02*
X4314286Y-8388152D01*
X4314286Y-8388152D02*
X4457143Y-8388152D01*
X4457143Y-8388152D02*
X4552381Y-8435771D01*
X4552381Y-8435771D02*
X4600000Y-8483390D01*
X4600000Y-8483390D02*
X4647619Y-8578628D01*
X4647619Y-8578628D02*
X4647619Y-8864342D01*
X4647619Y-8864342D02*
X4600000Y-8959580D01*
X4600000Y-8959580D02*
X4552381Y-9007200D01*
X4552381Y-9007200D02*
X4457143Y-9054819D01*
X4457143Y-9054819D02*
X4314286Y-9054819D01*
X5219048Y-9054819D02*
X5123810Y-9007200D01*
X5123810Y-9007200D02*
X5076191Y-8911961D01*
X5076191Y-8911961D02*
X5076191Y-8054819D01*
X5980953Y-9007200D02*
X5885715Y-9054819D01*
X5885715Y-9054819D02*
X5695239Y-9054819D01*
X5695239Y-9054819D02*
X5600001Y-9007200D01*
X5600001Y-9007200D02*
X5552382Y-8911961D01*
X5552382Y-8911961D02*
X5552382Y-8531009D01*
X5552382Y-8531009D02*
X5600001Y-8435771D01*
X5600001Y-8435771D02*
X5695239Y-8388152D01*
X5695239Y-8388152D02*
X5885715Y-8388152D01*
X5885715Y-8388152D02*
X5980953Y-8435771D01*
X5980953Y-8435771D02*
X6028572Y-8531009D01*
X6028572Y-8531009D02*
X6028572Y-8626247D01*
X6028572Y-8626247D02*
X5552382Y-8721485D01*
X6219049Y-9150057D02*
X6980953Y-9150057D01*
X7123811Y-8054819D02*
X7742858Y-8054819D01*
X7742858Y-8054819D02*
X7409525Y-8435771D01*
X7409525Y-8435771D02*
X7552382Y-8435771D01*
X7552382Y-8435771D02*
X7647620Y-8483390D01*
X7647620Y-8483390D02*
X7695239Y-8531009D01*
X7695239Y-8531009D02*
X7742858Y-8626247D01*
X7742858Y-8626247D02*
X7742858Y-8864342D01*
X7742858Y-8864342D02*
X7695239Y-8959580D01*
X7695239Y-8959580D02*
X7647620Y-9007200D01*
X7647620Y-9007200D02*
X7552382Y-9054819D01*
X7552382Y-9054819D02*
X7266668Y-9054819D01*
X7266668Y-9054819D02*
X7171430Y-9007200D01*
X7171430Y-9007200D02*
X7123811Y-8959580D01*
X8171430Y-8959580D02*
X8219049Y-9007200D01*
X8219049Y-9007200D02*
X8171430Y-9054819D01*
X8171430Y-9054819D02*
X8123811Y-9007200D01*
X8123811Y-9007200D02*
X8171430Y-8959580D01*
X8171430Y-8959580D02*
X8171430Y-9054819D01*
X9123810Y-8054819D02*
X8647620Y-8054819D01*
X8647620Y-8054819D02*
X8600001Y-8531009D01*
X8600001Y-8531009D02*
X8647620Y-8483390D01*
X8647620Y-8483390D02*
X8742858Y-8435771D01*
X8742858Y-8435771D02*
X8980953Y-8435771D01*
X8980953Y-8435771D02*
X9076191Y-8483390D01*
X9076191Y-8483390D02*
X9123810Y-8531009D01*
X9123810Y-8531009D02*
X9171429Y-8626247D01*
X9171429Y-8626247D02*
X9171429Y-8864342D01*
X9171429Y-8864342D02*
X9123810Y-8959580D01*
X9123810Y-8959580D02*
X9076191Y-9007200D01*
X9076191Y-9007200D02*
X8980953Y-9054819D01*
X8980953Y-9054819D02*
X8742858Y-9054819D01*
X8742858Y-9054819D02*
X8647620Y-9007200D01*
X8647620Y-9007200D02*
X8600001Y-8959580D01*
X9600001Y-9054819D02*
X9600001Y-8388152D01*
X9600001Y-8483390D02*
X9647620Y-8435771D01*
X9647620Y-8435771D02*
X9742858Y-8388152D01*
X9742858Y-8388152D02*
X9885715Y-8388152D01*
X9885715Y-8388152D02*
X9980953Y-8435771D01*
X9980953Y-8435771D02*
X10028572Y-8531009D01*
X10028572Y-8531009D02*
X10028572Y-9054819D01*
X10028572Y-8531009D02*
X10076191Y-8435771D01*
X10076191Y-8435771D02*
X10171429Y-8388152D01*
X10171429Y-8388152D02*
X10314286Y-8388152D01*
X10314286Y-8388152D02*
X10409525Y-8435771D01*
X10409525Y-8435771D02*
X10457144Y-8531009D01*
X10457144Y-8531009D02*
X10457144Y-9054819D01*
X10933334Y-9054819D02*
X10933334Y-8388152D01*
X10933334Y-8483390D02*
X10980953Y-8435771D01*
X10980953Y-8435771D02*
X11076191Y-8388152D01*
X11076191Y-8388152D02*
X11219048Y-8388152D01*
X11219048Y-8388152D02*
X11314286Y-8435771D01*
X11314286Y-8435771D02*
X11361905Y-8531009D01*
X11361905Y-8531009D02*
X11361905Y-9054819D01*
X11361905Y-8531009D02*
X11409524Y-8435771D01*
X11409524Y-8435771D02*
X11504762Y-8388152D01*
X11504762Y-8388152D02*
X11647619Y-8388152D01*
X11647619Y-8388152D02*
X11742858Y-8435771D01*
X11742858Y-8435771D02*
X11790477Y-8531009D01*
X11790477Y-8531009D02*
X11790477Y-9054819D01*
X2766666Y-4554819D02*
X2433333Y-4078628D01*
X2195238Y-4554819D02*
X2195238Y-3554819D01*
X2195238Y-3554819D02*
X2576190Y-3554819D01*
X2576190Y-3554819D02*
X2671428Y-3602438D01*
X2671428Y-3602438D02*
X2719047Y-3650057D01*
X2719047Y-3650057D02*
X2766666Y-3745295D01*
X2766666Y-3745295D02*
X2766666Y-3888152D01*
X2766666Y-3888152D02*
X2719047Y-3983390D01*
X2719047Y-3983390D02*
X2671428Y-4031009D01*
X2671428Y-4031009D02*
X2576190Y-4078628D01*
X2576190Y-4078628D02*
X2195238Y-4078628D01*
X3195238Y-4031009D02*
X3528571Y-4031009D01*
X3671428Y-4554819D02*
X3195238Y-4554819D01*
X3195238Y-4554819D02*
X3195238Y-3554819D01*
X3195238Y-3554819D02*
X3671428Y-3554819D01*
X4433333Y-4031009D02*
X4100000Y-4031009D01*
X4100000Y-4554819D02*
X4100000Y-3554819D01*
X4100000Y-3554819D02*
X4576190Y-3554819D01*
X5100000Y-3554819D02*
X5100000Y-3792914D01*
X4861905Y-3697676D02*
X5100000Y-3792914D01*
X5100000Y-3792914D02*
X5338095Y-3697676D01*
X4957143Y-3983390D02*
X5100000Y-3792914D01*
X5100000Y-3792914D02*
X5242857Y-3983390D01*
X5861905Y-3554819D02*
X5861905Y-3792914D01*
X5623810Y-3697676D02*
X5861905Y-3792914D01*
X5861905Y-3792914D02*
X6100000Y-3697676D01*
X5719048Y-3983390D02*
X5861905Y-3792914D01*
X5861905Y-3792914D02*
X6004762Y-3983390D01*
X88854819Y-123590475D02*
X87854819Y-123590475D01*
X87854819Y-123590475D02*
X88569104Y-123257142D01*
X88569104Y-123257142D02*
X87854819Y-122923809D01*
X87854819Y-122923809D02*
X88854819Y-122923809D01*
X88854819Y-122304761D02*
X88807200Y-122399999D01*
X88807200Y-122399999D02*
X88759580Y-122447618D01*
X88759580Y-122447618D02*
X88664342Y-122495237D01*
X88664342Y-122495237D02*
X88378628Y-122495237D01*
X88378628Y-122495237D02*
X88283390Y-122447618D01*
X88283390Y-122447618D02*
X88235771Y-122399999D01*
X88235771Y-122399999D02*
X88188152Y-122304761D01*
X88188152Y-122304761D02*
X88188152Y-122161904D01*
X88188152Y-122161904D02*
X88235771Y-122066666D01*
X88235771Y-122066666D02*
X88283390Y-122019047D01*
X88283390Y-122019047D02*
X88378628Y-121971428D01*
X88378628Y-121971428D02*
X88664342Y-121971428D01*
X88664342Y-121971428D02*
X88759580Y-122019047D01*
X88759580Y-122019047D02*
X88807200Y-122066666D01*
X88807200Y-122066666D02*
X88854819Y-122161904D01*
X88854819Y-122161904D02*
X88854819Y-122304761D01*
X88188152Y-121114285D02*
X88854819Y-121114285D01*
X88188152Y-121542856D02*
X88711961Y-121542856D01*
X88711961Y-121542856D02*
X88807200Y-121495237D01*
X88807200Y-121495237D02*
X88854819Y-121399999D01*
X88854819Y-121399999D02*
X88854819Y-121257142D01*
X88854819Y-121257142D02*
X88807200Y-121161904D01*
X88807200Y-121161904D02*
X88759580Y-121114285D01*
X88188152Y-120638094D02*
X88854819Y-120638094D01*
X88283390Y-120638094D02*
X88235771Y-120590475D01*
X88235771Y-120590475D02*
X88188152Y-120495237D01*
X88188152Y-120495237D02*
X88188152Y-120352380D01*
X88188152Y-120352380D02*
X88235771Y-120257142D01*
X88235771Y-120257142D02*
X88331009Y-120209523D01*
X88331009Y-120209523D02*
X88854819Y-120209523D01*
X88188152Y-119876189D02*
X88188152Y-119495237D01*
X87854819Y-119733332D02*
X88711961Y-119733332D01*
X88711961Y-119733332D02*
X88807200Y-119685713D01*
X88807200Y-119685713D02*
X88854819Y-119590475D01*
X88854819Y-119590475D02*
X88854819Y-119495237D01*
X88854819Y-119161903D02*
X88188152Y-119161903D01*
X87854819Y-119161903D02*
X87902438Y-119209522D01*
X87902438Y-119209522D02*
X87950057Y-119161903D01*
X87950057Y-119161903D02*
X87902438Y-119114284D01*
X87902438Y-119114284D02*
X87854819Y-119161903D01*
X87854819Y-119161903D02*
X87950057Y-119161903D01*
X88188152Y-118685713D02*
X88854819Y-118685713D01*
X88283390Y-118685713D02*
X88235771Y-118638094D01*
X88235771Y-118638094D02*
X88188152Y-118542856D01*
X88188152Y-118542856D02*
X88188152Y-118399999D01*
X88188152Y-118399999D02*
X88235771Y-118304761D01*
X88235771Y-118304761D02*
X88331009Y-118257142D01*
X88331009Y-118257142D02*
X88854819Y-118257142D01*
X88188152Y-117352380D02*
X88997676Y-117352380D01*
X88997676Y-117352380D02*
X89092914Y-117399999D01*
X89092914Y-117399999D02*
X89140533Y-117447618D01*
X89140533Y-117447618D02*
X89188152Y-117542856D01*
X89188152Y-117542856D02*
X89188152Y-117685713D01*
X89188152Y-117685713D02*
X89140533Y-117780951D01*
X88807200Y-117352380D02*
X88854819Y-117447618D01*
X88854819Y-117447618D02*
X88854819Y-117638094D01*
X88854819Y-117638094D02*
X88807200Y-117733332D01*
X88807200Y-117733332D02*
X88759580Y-117780951D01*
X88759580Y-117780951D02*
X88664342Y-117828570D01*
X88664342Y-117828570D02*
X88378628Y-117828570D01*
X88378628Y-117828570D02*
X88283390Y-117780951D01*
X88283390Y-117780951D02*
X88235771Y-117733332D01*
X88235771Y-117733332D02*
X88188152Y-117638094D01*
X88188152Y-117638094D02*
X88188152Y-117447618D01*
X88188152Y-117447618D02*
X88235771Y-117352380D01*
X88854819Y-116876189D02*
X87854819Y-116876189D01*
X88331009Y-116876189D02*
X88331009Y-116304761D01*
X88854819Y-116304761D02*
X87854819Y-116304761D01*
X88854819Y-115685713D02*
X88807200Y-115780951D01*
X88807200Y-115780951D02*
X88759580Y-115828570D01*
X88759580Y-115828570D02*
X88664342Y-115876189D01*
X88664342Y-115876189D02*
X88378628Y-115876189D01*
X88378628Y-115876189D02*
X88283390Y-115828570D01*
X88283390Y-115828570D02*
X88235771Y-115780951D01*
X88235771Y-115780951D02*
X88188152Y-115685713D01*
X88188152Y-115685713D02*
X88188152Y-115542856D01*
X88188152Y-115542856D02*
X88235771Y-115447618D01*
X88235771Y-115447618D02*
X88283390Y-115399999D01*
X88283390Y-115399999D02*
X88378628Y-115352380D01*
X88378628Y-115352380D02*
X88664342Y-115352380D01*
X88664342Y-115352380D02*
X88759580Y-115399999D01*
X88759580Y-115399999D02*
X88807200Y-115447618D01*
X88807200Y-115447618D02*
X88854819Y-115542856D01*
X88854819Y-115542856D02*
X88854819Y-115685713D01*
X88854819Y-114780951D02*
X88807200Y-114876189D01*
X88807200Y-114876189D02*
X88711961Y-114923808D01*
X88711961Y-114923808D02*
X87854819Y-114923808D01*
X88807200Y-114019046D02*
X88854819Y-114114284D01*
X88854819Y-114114284D02*
X88854819Y-114304760D01*
X88854819Y-114304760D02*
X88807200Y-114399998D01*
X88807200Y-114399998D02*
X88711961Y-114447617D01*
X88711961Y-114447617D02*
X88331009Y-114447617D01*
X88331009Y-114447617D02*
X88235771Y-114399998D01*
X88235771Y-114399998D02*
X88188152Y-114304760D01*
X88188152Y-114304760D02*
X88188152Y-114114284D01*
X88188152Y-114114284D02*
X88235771Y-114019046D01*
X88235771Y-114019046D02*
X88331009Y-113971427D01*
X88331009Y-113971427D02*
X88426247Y-113971427D01*
X88426247Y-113971427D02*
X88521485Y-114447617D01*
X88950057Y-113780951D02*
X88950057Y-113019046D01*
X87854819Y-112876188D02*
X87854819Y-112257141D01*
X87854819Y-112257141D02*
X88235771Y-112590474D01*
X88235771Y-112590474D02*
X88235771Y-112447617D01*
X88235771Y-112447617D02*
X88283390Y-112352379D01*
X88283390Y-112352379D02*
X88331009Y-112304760D01*
X88331009Y-112304760D02*
X88426247Y-112257141D01*
X88426247Y-112257141D02*
X88664342Y-112257141D01*
X88664342Y-112257141D02*
X88759580Y-112304760D01*
X88759580Y-112304760D02*
X88807200Y-112352379D01*
X88807200Y-112352379D02*
X88854819Y-112447617D01*
X88854819Y-112447617D02*
X88854819Y-112733331D01*
X88854819Y-112733331D02*
X88807200Y-112828569D01*
X88807200Y-112828569D02*
X88759580Y-112876188D01*
X88759580Y-111828569D02*
X88807200Y-111780950D01*
X88807200Y-111780950D02*
X88854819Y-111828569D01*
X88854819Y-111828569D02*
X88807200Y-111876188D01*
X88807200Y-111876188D02*
X88759580Y-111828569D01*
X88759580Y-111828569D02*
X88854819Y-111828569D01*
X87854819Y-110876189D02*
X87854819Y-111352379D01*
X87854819Y-111352379D02*
X88331009Y-111399998D01*
X88331009Y-111399998D02*
X88283390Y-111352379D01*
X88283390Y-111352379D02*
X88235771Y-111257141D01*
X88235771Y-111257141D02*
X88235771Y-111019046D01*
X88235771Y-111019046D02*
X88283390Y-110923808D01*
X88283390Y-110923808D02*
X88331009Y-110876189D01*
X88331009Y-110876189D02*
X88426247Y-110828570D01*
X88426247Y-110828570D02*
X88664342Y-110828570D01*
X88664342Y-110828570D02*
X88759580Y-110876189D01*
X88759580Y-110876189D02*
X88807200Y-110923808D01*
X88807200Y-110923808D02*
X88854819Y-111019046D01*
X88854819Y-111019046D02*
X88854819Y-111257141D01*
X88854819Y-111257141D02*
X88807200Y-111352379D01*
X88807200Y-111352379D02*
X88759580Y-111399998D01*
X88854819Y-110399998D02*
X88188152Y-110399998D01*
X88283390Y-110399998D02*
X88235771Y-110352379D01*
X88235771Y-110352379D02*
X88188152Y-110257141D01*
X88188152Y-110257141D02*
X88188152Y-110114284D01*
X88188152Y-110114284D02*
X88235771Y-110019046D01*
X88235771Y-110019046D02*
X88331009Y-109971427D01*
X88331009Y-109971427D02*
X88854819Y-109971427D01*
X88331009Y-109971427D02*
X88235771Y-109923808D01*
X88235771Y-109923808D02*
X88188152Y-109828570D01*
X88188152Y-109828570D02*
X88188152Y-109685713D01*
X88188152Y-109685713D02*
X88235771Y-109590474D01*
X88235771Y-109590474D02*
X88331009Y-109542855D01*
X88331009Y-109542855D02*
X88854819Y-109542855D01*
X88854819Y-109066665D02*
X88188152Y-109066665D01*
X88283390Y-109066665D02*
X88235771Y-109019046D01*
X88235771Y-109019046D02*
X88188152Y-108923808D01*
X88188152Y-108923808D02*
X88188152Y-108780951D01*
X88188152Y-108780951D02*
X88235771Y-108685713D01*
X88235771Y-108685713D02*
X88331009Y-108638094D01*
X88331009Y-108638094D02*
X88854819Y-108638094D01*
X88331009Y-108638094D02*
X88235771Y-108590475D01*
X88235771Y-108590475D02*
X88188152Y-108495237D01*
X88188152Y-108495237D02*
X88188152Y-108352380D01*
X88188152Y-108352380D02*
X88235771Y-108257141D01*
X88235771Y-108257141D02*
X88331009Y-108209522D01*
X88331009Y-108209522D02*
X88854819Y-108209522D01*
X84354819Y-117233333D02*
X83878628Y-117566666D01*
X84354819Y-117804761D02*
X83354819Y-117804761D01*
X83354819Y-117804761D02*
X83354819Y-117423809D01*
X83354819Y-117423809D02*
X83402438Y-117328571D01*
X83402438Y-117328571D02*
X83450057Y-117280952D01*
X83450057Y-117280952D02*
X83545295Y-117233333D01*
X83545295Y-117233333D02*
X83688152Y-117233333D01*
X83688152Y-117233333D02*
X83783390Y-117280952D01*
X83783390Y-117280952D02*
X83831009Y-117328571D01*
X83831009Y-117328571D02*
X83878628Y-117423809D01*
X83878628Y-117423809D02*
X83878628Y-117804761D01*
X83831009Y-116804761D02*
X83831009Y-116471428D01*
X84354819Y-116328571D02*
X84354819Y-116804761D01*
X84354819Y-116804761D02*
X83354819Y-116804761D01*
X83354819Y-116804761D02*
X83354819Y-116328571D01*
X83831009Y-115566666D02*
X83831009Y-115899999D01*
X84354819Y-115899999D02*
X83354819Y-115899999D01*
X83354819Y-115899999D02*
X83354819Y-115423809D01*
X83354819Y-114899999D02*
X83592914Y-114899999D01*
X83497676Y-115138094D02*
X83592914Y-114899999D01*
X83592914Y-114899999D02*
X83497676Y-114661904D01*
X83783390Y-115042856D02*
X83592914Y-114899999D01*
X83592914Y-114899999D02*
X83783390Y-114757142D01*
X83354819Y-114138094D02*
X83592914Y-114138094D01*
X83497676Y-114376189D02*
X83592914Y-114138094D01*
X83592914Y-114138094D02*
X83497676Y-113899999D01*
X83783390Y-114280951D02*
X83592914Y-114138094D01*
X83592914Y-114138094D02*
X83783390Y-113995237D01*
X9054819Y-123590475D02*
X8054819Y-123590475D01*
X8054819Y-123590475D02*
X8769104Y-123257142D01*
X8769104Y-123257142D02*
X8054819Y-122923809D01*
X8054819Y-122923809D02*
X9054819Y-122923809D01*
X9054819Y-122304761D02*
X9007200Y-122399999D01*
X9007200Y-122399999D02*
X8959580Y-122447618D01*
X8959580Y-122447618D02*
X8864342Y-122495237D01*
X8864342Y-122495237D02*
X8578628Y-122495237D01*
X8578628Y-122495237D02*
X8483390Y-122447618D01*
X8483390Y-122447618D02*
X8435771Y-122399999D01*
X8435771Y-122399999D02*
X8388152Y-122304761D01*
X8388152Y-122304761D02*
X8388152Y-122161904D01*
X8388152Y-122161904D02*
X8435771Y-122066666D01*
X8435771Y-122066666D02*
X8483390Y-122019047D01*
X8483390Y-122019047D02*
X8578628Y-121971428D01*
X8578628Y-121971428D02*
X8864342Y-121971428D01*
X8864342Y-121971428D02*
X8959580Y-122019047D01*
X8959580Y-122019047D02*
X9007200Y-122066666D01*
X9007200Y-122066666D02*
X9054819Y-122161904D01*
X9054819Y-122161904D02*
X9054819Y-122304761D01*
X8388152Y-121114285D02*
X9054819Y-121114285D01*
X8388152Y-121542856D02*
X8911961Y-121542856D01*
X8911961Y-121542856D02*
X9007200Y-121495237D01*
X9007200Y-121495237D02*
X9054819Y-121399999D01*
X9054819Y-121399999D02*
X9054819Y-121257142D01*
X9054819Y-121257142D02*
X9007200Y-121161904D01*
X9007200Y-121161904D02*
X8959580Y-121114285D01*
X8388152Y-120638094D02*
X9054819Y-120638094D01*
X8483390Y-120638094D02*
X8435771Y-120590475D01*
X8435771Y-120590475D02*
X8388152Y-120495237D01*
X8388152Y-120495237D02*
X8388152Y-120352380D01*
X8388152Y-120352380D02*
X8435771Y-120257142D01*
X8435771Y-120257142D02*
X8531009Y-120209523D01*
X8531009Y-120209523D02*
X9054819Y-120209523D01*
X8388152Y-119876189D02*
X8388152Y-119495237D01*
X8054819Y-119733332D02*
X8911961Y-119733332D01*
X8911961Y-119733332D02*
X9007200Y-119685713D01*
X9007200Y-119685713D02*
X9054819Y-119590475D01*
X9054819Y-119590475D02*
X9054819Y-119495237D01*
X9054819Y-119161903D02*
X8388152Y-119161903D01*
X8054819Y-119161903D02*
X8102438Y-119209522D01*
X8102438Y-119209522D02*
X8150057Y-119161903D01*
X8150057Y-119161903D02*
X8102438Y-119114284D01*
X8102438Y-119114284D02*
X8054819Y-119161903D01*
X8054819Y-119161903D02*
X8150057Y-119161903D01*
X8388152Y-118685713D02*
X9054819Y-118685713D01*
X8483390Y-118685713D02*
X8435771Y-118638094D01*
X8435771Y-118638094D02*
X8388152Y-118542856D01*
X8388152Y-118542856D02*
X8388152Y-118399999D01*
X8388152Y-118399999D02*
X8435771Y-118304761D01*
X8435771Y-118304761D02*
X8531009Y-118257142D01*
X8531009Y-118257142D02*
X9054819Y-118257142D01*
X8388152Y-117352380D02*
X9197676Y-117352380D01*
X9197676Y-117352380D02*
X9292914Y-117399999D01*
X9292914Y-117399999D02*
X9340533Y-117447618D01*
X9340533Y-117447618D02*
X9388152Y-117542856D01*
X9388152Y-117542856D02*
X9388152Y-117685713D01*
X9388152Y-117685713D02*
X9340533Y-117780951D01*
X9007200Y-117352380D02*
X9054819Y-117447618D01*
X9054819Y-117447618D02*
X9054819Y-117638094D01*
X9054819Y-117638094D02*
X9007200Y-117733332D01*
X9007200Y-117733332D02*
X8959580Y-117780951D01*
X8959580Y-117780951D02*
X8864342Y-117828570D01*
X8864342Y-117828570D02*
X8578628Y-117828570D01*
X8578628Y-117828570D02*
X8483390Y-117780951D01*
X8483390Y-117780951D02*
X8435771Y-117733332D01*
X8435771Y-117733332D02*
X8388152Y-117638094D01*
X8388152Y-117638094D02*
X8388152Y-117447618D01*
X8388152Y-117447618D02*
X8435771Y-117352380D01*
X9054819Y-116876189D02*
X8054819Y-116876189D01*
X8531009Y-116876189D02*
X8531009Y-116304761D01*
X9054819Y-116304761D02*
X8054819Y-116304761D01*
X9054819Y-115685713D02*
X9007200Y-115780951D01*
X9007200Y-115780951D02*
X8959580Y-115828570D01*
X8959580Y-115828570D02*
X8864342Y-115876189D01*
X8864342Y-115876189D02*
X8578628Y-115876189D01*
X8578628Y-115876189D02*
X8483390Y-115828570D01*
X8483390Y-115828570D02*
X8435771Y-115780951D01*
X8435771Y-115780951D02*
X8388152Y-115685713D01*
X8388152Y-115685713D02*
X8388152Y-115542856D01*
X8388152Y-115542856D02*
X8435771Y-115447618D01*
X8435771Y-115447618D02*
X8483390Y-115399999D01*
X8483390Y-115399999D02*
X8578628Y-115352380D01*
X8578628Y-115352380D02*
X8864342Y-115352380D01*
X8864342Y-115352380D02*
X8959580Y-115399999D01*
X8959580Y-115399999D02*
X9007200Y-115447618D01*
X9007200Y-115447618D02*
X9054819Y-115542856D01*
X9054819Y-115542856D02*
X9054819Y-115685713D01*
X9054819Y-114780951D02*
X9007200Y-114876189D01*
X9007200Y-114876189D02*
X8911961Y-114923808D01*
X8911961Y-114923808D02*
X8054819Y-114923808D01*
X9007200Y-114019046D02*
X9054819Y-114114284D01*
X9054819Y-114114284D02*
X9054819Y-114304760D01*
X9054819Y-114304760D02*
X9007200Y-114399998D01*
X9007200Y-114399998D02*
X8911961Y-114447617D01*
X8911961Y-114447617D02*
X8531009Y-114447617D01*
X8531009Y-114447617D02*
X8435771Y-114399998D01*
X8435771Y-114399998D02*
X8388152Y-114304760D01*
X8388152Y-114304760D02*
X8388152Y-114114284D01*
X8388152Y-114114284D02*
X8435771Y-114019046D01*
X8435771Y-114019046D02*
X8531009Y-113971427D01*
X8531009Y-113971427D02*
X8626247Y-113971427D01*
X8626247Y-113971427D02*
X8721485Y-114447617D01*
X9150057Y-113780951D02*
X9150057Y-113019046D01*
X8054819Y-112876188D02*
X8054819Y-112257141D01*
X8054819Y-112257141D02*
X8435771Y-112590474D01*
X8435771Y-112590474D02*
X8435771Y-112447617D01*
X8435771Y-112447617D02*
X8483390Y-112352379D01*
X8483390Y-112352379D02*
X8531009Y-112304760D01*
X8531009Y-112304760D02*
X8626247Y-112257141D01*
X8626247Y-112257141D02*
X8864342Y-112257141D01*
X8864342Y-112257141D02*
X8959580Y-112304760D01*
X8959580Y-112304760D02*
X9007200Y-112352379D01*
X9007200Y-112352379D02*
X9054819Y-112447617D01*
X9054819Y-112447617D02*
X9054819Y-112733331D01*
X9054819Y-112733331D02*
X9007200Y-112828569D01*
X9007200Y-112828569D02*
X8959580Y-112876188D01*
X8959580Y-111828569D02*
X9007200Y-111780950D01*
X9007200Y-111780950D02*
X9054819Y-111828569D01*
X9054819Y-111828569D02*
X9007200Y-111876188D01*
X9007200Y-111876188D02*
X8959580Y-111828569D01*
X8959580Y-111828569D02*
X9054819Y-111828569D01*
X8054819Y-110876189D02*
X8054819Y-111352379D01*
X8054819Y-111352379D02*
X8531009Y-111399998D01*
X8531009Y-111399998D02*
X8483390Y-111352379D01*
X8483390Y-111352379D02*
X8435771Y-111257141D01*
X8435771Y-111257141D02*
X8435771Y-111019046D01*
X8435771Y-111019046D02*
X8483390Y-110923808D01*
X8483390Y-110923808D02*
X8531009Y-110876189D01*
X8531009Y-110876189D02*
X8626247Y-110828570D01*
X8626247Y-110828570D02*
X8864342Y-110828570D01*
X8864342Y-110828570D02*
X8959580Y-110876189D01*
X8959580Y-110876189D02*
X9007200Y-110923808D01*
X9007200Y-110923808D02*
X9054819Y-111019046D01*
X9054819Y-111019046D02*
X9054819Y-111257141D01*
X9054819Y-111257141D02*
X9007200Y-111352379D01*
X9007200Y-111352379D02*
X8959580Y-111399998D01*
X9054819Y-110399998D02*
X8388152Y-110399998D01*
X8483390Y-110399998D02*
X8435771Y-110352379D01*
X8435771Y-110352379D02*
X8388152Y-110257141D01*
X8388152Y-110257141D02*
X8388152Y-110114284D01*
X8388152Y-110114284D02*
X8435771Y-110019046D01*
X8435771Y-110019046D02*
X8531009Y-109971427D01*
X8531009Y-109971427D02*
X9054819Y-109971427D01*
X8531009Y-109971427D02*
X8435771Y-109923808D01*
X8435771Y-109923808D02*
X8388152Y-109828570D01*
X8388152Y-109828570D02*
X8388152Y-109685713D01*
X8388152Y-109685713D02*
X8435771Y-109590474D01*
X8435771Y-109590474D02*
X8531009Y-109542855D01*
X8531009Y-109542855D02*
X9054819Y-109542855D01*
X9054819Y-109066665D02*
X8388152Y-109066665D01*
X8483390Y-109066665D02*
X8435771Y-109019046D01*
X8435771Y-109019046D02*
X8388152Y-108923808D01*
X8388152Y-108923808D02*
X8388152Y-108780951D01*
X8388152Y-108780951D02*
X8435771Y-108685713D01*
X8435771Y-108685713D02*
X8531009Y-108638094D01*
X8531009Y-108638094D02*
X9054819Y-108638094D01*
X8531009Y-108638094D02*
X8435771Y-108590475D01*
X8435771Y-108590475D02*
X8388152Y-108495237D01*
X8388152Y-108495237D02*
X8388152Y-108352380D01*
X8388152Y-108352380D02*
X8435771Y-108257141D01*
X8435771Y-108257141D02*
X8531009Y-108209522D01*
X8531009Y-108209522D02*
X9054819Y-108209522D01*
X4554819Y-117233333D02*
X4078628Y-117566666D01*
X4554819Y-117804761D02*
X3554819Y-117804761D01*
X3554819Y-117804761D02*
X3554819Y-117423809D01*
X3554819Y-117423809D02*
X3602438Y-117328571D01*
X3602438Y-117328571D02*
X3650057Y-117280952D01*
X3650057Y-117280952D02*
X3745295Y-117233333D01*
X3745295Y-117233333D02*
X3888152Y-117233333D01*
X3888152Y-117233333D02*
X3983390Y-117280952D01*
X3983390Y-117280952D02*
X4031009Y-117328571D01*
X4031009Y-117328571D02*
X4078628Y-117423809D01*
X4078628Y-117423809D02*
X4078628Y-117804761D01*
X4031009Y-116804761D02*
X4031009Y-116471428D01*
X4554819Y-116328571D02*
X4554819Y-116804761D01*
X4554819Y-116804761D02*
X3554819Y-116804761D01*
X3554819Y-116804761D02*
X3554819Y-116328571D01*
X4031009Y-115566666D02*
X4031009Y-115899999D01*
X4554819Y-115899999D02*
X3554819Y-115899999D01*
X3554819Y-115899999D02*
X3554819Y-115423809D01*
X3554819Y-114899999D02*
X3792914Y-114899999D01*
X3697676Y-115138094D02*
X3792914Y-114899999D01*
X3792914Y-114899999D02*
X3697676Y-114661904D01*
X3983390Y-115042856D02*
X3792914Y-114899999D01*
X3792914Y-114899999D02*
X3983390Y-114757142D01*
X3554819Y-114138094D02*
X3792914Y-114138094D01*
X3697676Y-114376189D02*
X3792914Y-114138094D01*
X3792914Y-114138094D02*
X3697676Y-113899999D01*
X3983390Y-114280951D02*
X3792914Y-114138094D01*
X3792914Y-114138094D02*
X3983390Y-113995237D01*
X76209524Y-9054819D02*
X76209524Y-8054819D01*
X76209524Y-8054819D02*
X76542857Y-8769104D01*
X76542857Y-8769104D02*
X76876190Y-8054819D01*
X76876190Y-8054819D02*
X76876190Y-9054819D01*
X77495238Y-9054819D02*
X77400000Y-9007200D01*
X77400000Y-9007200D02*
X77352381Y-8959580D01*
X77352381Y-8959580D02*
X77304762Y-8864342D01*
X77304762Y-8864342D02*
X77304762Y-8578628D01*
X77304762Y-8578628D02*
X77352381Y-8483390D01*
X77352381Y-8483390D02*
X77400000Y-8435771D01*
X77400000Y-8435771D02*
X77495238Y-8388152D01*
X77495238Y-8388152D02*
X77638095Y-8388152D01*
X77638095Y-8388152D02*
X77733333Y-8435771D01*
X77733333Y-8435771D02*
X77780952Y-8483390D01*
X77780952Y-8483390D02*
X77828571Y-8578628D01*
X77828571Y-8578628D02*
X77828571Y-8864342D01*
X77828571Y-8864342D02*
X77780952Y-8959580D01*
X77780952Y-8959580D02*
X77733333Y-9007200D01*
X77733333Y-9007200D02*
X77638095Y-9054819D01*
X77638095Y-9054819D02*
X77495238Y-9054819D01*
X78685714Y-8388152D02*
X78685714Y-9054819D01*
X78257143Y-8388152D02*
X78257143Y-8911961D01*
X78257143Y-8911961D02*
X78304762Y-9007200D01*
X78304762Y-9007200D02*
X78400000Y-9054819D01*
X78400000Y-9054819D02*
X78542857Y-9054819D01*
X78542857Y-9054819D02*
X78638095Y-9007200D01*
X78638095Y-9007200D02*
X78685714Y-8959580D01*
X79161905Y-8388152D02*
X79161905Y-9054819D01*
X79161905Y-8483390D02*
X79209524Y-8435771D01*
X79209524Y-8435771D02*
X79304762Y-8388152D01*
X79304762Y-8388152D02*
X79447619Y-8388152D01*
X79447619Y-8388152D02*
X79542857Y-8435771D01*
X79542857Y-8435771D02*
X79590476Y-8531009D01*
X79590476Y-8531009D02*
X79590476Y-9054819D01*
X79923810Y-8388152D02*
X80304762Y-8388152D01*
X80066667Y-8054819D02*
X80066667Y-8911961D01*
X80066667Y-8911961D02*
X80114286Y-9007200D01*
X80114286Y-9007200D02*
X80209524Y-9054819D01*
X80209524Y-9054819D02*
X80304762Y-9054819D01*
X80638096Y-9054819D02*
X80638096Y-8388152D01*
X80638096Y-8054819D02*
X80590477Y-8102438D01*
X80590477Y-8102438D02*
X80638096Y-8150057D01*
X80638096Y-8150057D02*
X80685715Y-8102438D01*
X80685715Y-8102438D02*
X80638096Y-8054819D01*
X80638096Y-8054819D02*
X80638096Y-8150057D01*
X81114286Y-8388152D02*
X81114286Y-9054819D01*
X81114286Y-8483390D02*
X81161905Y-8435771D01*
X81161905Y-8435771D02*
X81257143Y-8388152D01*
X81257143Y-8388152D02*
X81400000Y-8388152D01*
X81400000Y-8388152D02*
X81495238Y-8435771D01*
X81495238Y-8435771D02*
X81542857Y-8531009D01*
X81542857Y-8531009D02*
X81542857Y-9054819D01*
X82447619Y-8388152D02*
X82447619Y-9197676D01*
X82447619Y-9197676D02*
X82400000Y-9292914D01*
X82400000Y-9292914D02*
X82352381Y-9340533D01*
X82352381Y-9340533D02*
X82257143Y-9388152D01*
X82257143Y-9388152D02*
X82114286Y-9388152D01*
X82114286Y-9388152D02*
X82019048Y-9340533D01*
X82447619Y-9007200D02*
X82352381Y-9054819D01*
X82352381Y-9054819D02*
X82161905Y-9054819D01*
X82161905Y-9054819D02*
X82066667Y-9007200D01*
X82066667Y-9007200D02*
X82019048Y-8959580D01*
X82019048Y-8959580D02*
X81971429Y-8864342D01*
X81971429Y-8864342D02*
X81971429Y-8578628D01*
X81971429Y-8578628D02*
X82019048Y-8483390D01*
X82019048Y-8483390D02*
X82066667Y-8435771D01*
X82066667Y-8435771D02*
X82161905Y-8388152D01*
X82161905Y-8388152D02*
X82352381Y-8388152D01*
X82352381Y-8388152D02*
X82447619Y-8435771D01*
X82923810Y-9054819D02*
X82923810Y-8054819D01*
X82923810Y-8531009D02*
X83495238Y-8531009D01*
X83495238Y-9054819D02*
X83495238Y-8054819D01*
X84114286Y-9054819D02*
X84019048Y-9007200D01*
X84019048Y-9007200D02*
X83971429Y-8959580D01*
X83971429Y-8959580D02*
X83923810Y-8864342D01*
X83923810Y-8864342D02*
X83923810Y-8578628D01*
X83923810Y-8578628D02*
X83971429Y-8483390D01*
X83971429Y-8483390D02*
X84019048Y-8435771D01*
X84019048Y-8435771D02*
X84114286Y-8388152D01*
X84114286Y-8388152D02*
X84257143Y-8388152D01*
X84257143Y-8388152D02*
X84352381Y-8435771D01*
X84352381Y-8435771D02*
X84400000Y-8483390D01*
X84400000Y-8483390D02*
X84447619Y-8578628D01*
X84447619Y-8578628D02*
X84447619Y-8864342D01*
X84447619Y-8864342D02*
X84400000Y-8959580D01*
X84400000Y-8959580D02*
X84352381Y-9007200D01*
X84352381Y-9007200D02*
X84257143Y-9054819D01*
X84257143Y-9054819D02*
X84114286Y-9054819D01*
X85019048Y-9054819D02*
X84923810Y-9007200D01*
X84923810Y-9007200D02*
X84876191Y-8911961D01*
X84876191Y-8911961D02*
X84876191Y-8054819D01*
X85780953Y-9007200D02*
X85685715Y-9054819D01*
X85685715Y-9054819D02*
X85495239Y-9054819D01*
X85495239Y-9054819D02*
X85400001Y-9007200D01*
X85400001Y-9007200D02*
X85352382Y-8911961D01*
X85352382Y-8911961D02*
X85352382Y-8531009D01*
X85352382Y-8531009D02*
X85400001Y-8435771D01*
X85400001Y-8435771D02*
X85495239Y-8388152D01*
X85495239Y-8388152D02*
X85685715Y-8388152D01*
X85685715Y-8388152D02*
X85780953Y-8435771D01*
X85780953Y-8435771D02*
X85828572Y-8531009D01*
X85828572Y-8531009D02*
X85828572Y-8626247D01*
X85828572Y-8626247D02*
X85352382Y-8721485D01*
X86019049Y-9150057D02*
X86780953Y-9150057D01*
X86923811Y-8054819D02*
X87542858Y-8054819D01*
X87542858Y-8054819D02*
X87209525Y-8435771D01*
X87209525Y-8435771D02*
X87352382Y-8435771D01*
X87352382Y-8435771D02*
X87447620Y-8483390D01*
X87447620Y-8483390D02*
X87495239Y-8531009D01*
X87495239Y-8531009D02*
X87542858Y-8626247D01*
X87542858Y-8626247D02*
X87542858Y-8864342D01*
X87542858Y-8864342D02*
X87495239Y-8959580D01*
X87495239Y-8959580D02*
X87447620Y-9007200D01*
X87447620Y-9007200D02*
X87352382Y-9054819D01*
X87352382Y-9054819D02*
X87066668Y-9054819D01*
X87066668Y-9054819D02*
X86971430Y-9007200D01*
X86971430Y-9007200D02*
X86923811Y-8959580D01*
X87971430Y-8959580D02*
X88019049Y-9007200D01*
X88019049Y-9007200D02*
X87971430Y-9054819D01*
X87971430Y-9054819D02*
X87923811Y-9007200D01*
X87923811Y-9007200D02*
X87971430Y-8959580D01*
X87971430Y-8959580D02*
X87971430Y-9054819D01*
X88923810Y-8054819D02*
X88447620Y-8054819D01*
X88447620Y-8054819D02*
X88400001Y-8531009D01*
X88400001Y-8531009D02*
X88447620Y-8483390D01*
X88447620Y-8483390D02*
X88542858Y-8435771D01*
X88542858Y-8435771D02*
X88780953Y-8435771D01*
X88780953Y-8435771D02*
X88876191Y-8483390D01*
X88876191Y-8483390D02*
X88923810Y-8531009D01*
X88923810Y-8531009D02*
X88971429Y-8626247D01*
X88971429Y-8626247D02*
X88971429Y-8864342D01*
X88971429Y-8864342D02*
X88923810Y-8959580D01*
X88923810Y-8959580D02*
X88876191Y-9007200D01*
X88876191Y-9007200D02*
X88780953Y-9054819D01*
X88780953Y-9054819D02*
X88542858Y-9054819D01*
X88542858Y-9054819D02*
X88447620Y-9007200D01*
X88447620Y-9007200D02*
X88400001Y-8959580D01*
X89400001Y-9054819D02*
X89400001Y-8388152D01*
X89400001Y-8483390D02*
X89447620Y-8435771D01*
X89447620Y-8435771D02*
X89542858Y-8388152D01*
X89542858Y-8388152D02*
X89685715Y-8388152D01*
X89685715Y-8388152D02*
X89780953Y-8435771D01*
X89780953Y-8435771D02*
X89828572Y-8531009D01*
X89828572Y-8531009D02*
X89828572Y-9054819D01*
X89828572Y-8531009D02*
X89876191Y-8435771D01*
X89876191Y-8435771D02*
X89971429Y-8388152D01*
X89971429Y-8388152D02*
X90114286Y-8388152D01*
X90114286Y-8388152D02*
X90209525Y-8435771D01*
X90209525Y-8435771D02*
X90257144Y-8531009D01*
X90257144Y-8531009D02*
X90257144Y-9054819D01*
X90733334Y-9054819D02*
X90733334Y-8388152D01*
X90733334Y-8483390D02*
X90780953Y-8435771D01*
X90780953Y-8435771D02*
X90876191Y-8388152D01*
X90876191Y-8388152D02*
X91019048Y-8388152D01*
X91019048Y-8388152D02*
X91114286Y-8435771D01*
X91114286Y-8435771D02*
X91161905Y-8531009D01*
X91161905Y-8531009D02*
X91161905Y-9054819D01*
X91161905Y-8531009D02*
X91209524Y-8435771D01*
X91209524Y-8435771D02*
X91304762Y-8388152D01*
X91304762Y-8388152D02*
X91447619Y-8388152D01*
X91447619Y-8388152D02*
X91542858Y-8435771D01*
X91542858Y-8435771D02*
X91590477Y-8531009D01*
X91590477Y-8531009D02*
X91590477Y-9054819D01*
X82566666Y-4554819D02*
X82233333Y-4078628D01*
X81995238Y-4554819D02*
X81995238Y-3554819D01*
X81995238Y-3554819D02*
X82376190Y-3554819D01*
X82376190Y-3554819D02*
X82471428Y-3602438D01*
X82471428Y-3602438D02*
X82519047Y-3650057D01*
X82519047Y-3650057D02*
X82566666Y-3745295D01*
X82566666Y-3745295D02*
X82566666Y-3888152D01*
X82566666Y-3888152D02*
X82519047Y-3983390D01*
X82519047Y-3983390D02*
X82471428Y-4031009D01*
X82471428Y-4031009D02*
X82376190Y-4078628D01*
X82376190Y-4078628D02*
X81995238Y-4078628D01*
X82995238Y-4031009D02*
X83328571Y-4031009D01*
X83471428Y-4554819D02*
X82995238Y-4554819D01*
X82995238Y-4554819D02*
X82995238Y-3554819D01*
X82995238Y-3554819D02*
X83471428Y-3554819D01*
X84233333Y-4031009D02*
X83900000Y-4031009D01*
X83900000Y-4554819D02*
X83900000Y-3554819D01*
X83900000Y-3554819D02*
X84376190Y-3554819D01*
X84900000Y-3554819D02*
X84900000Y-3792914D01*
X84661905Y-3697676D02*
X84900000Y-3792914D01*
X84900000Y-3792914D02*
X85138095Y-3697676D01*
X84757143Y-3983390D02*
X84900000Y-3792914D01*
X84900000Y-3792914D02*
X85042857Y-3983390D01*
X85661905Y-3554819D02*
X85661905Y-3792914D01*
X85423810Y-3697676D02*
X85661905Y-3792914D01*
X85661905Y-3792914D02*
X85900000Y-3697676D01*
X85519048Y-3983390D02*
X85661905Y-3792914D01*
X85661905Y-3792914D02*
X85804762Y-3983390D01*
X88854819Y-47690475D02*
X87854819Y-47690475D01*
X87854819Y-47690475D02*
X88569104Y-47357142D01*
X88569104Y-47357142D02*
X87854819Y-47023809D01*
X87854819Y-47023809D02*
X88854819Y-47023809D01*
X88854819Y-46404761D02*
X88807200Y-46499999D01*
X88807200Y-46499999D02*
X88759580Y-46547618D01*
X88759580Y-46547618D02*
X88664342Y-46595237D01*
X88664342Y-46595237D02*
X88378628Y-46595237D01*
X88378628Y-46595237D02*
X88283390Y-46547618D01*
X88283390Y-46547618D02*
X88235771Y-46499999D01*
X88235771Y-46499999D02*
X88188152Y-46404761D01*
X88188152Y-46404761D02*
X88188152Y-46261904D01*
X88188152Y-46261904D02*
X88235771Y-46166666D01*
X88235771Y-46166666D02*
X88283390Y-46119047D01*
X88283390Y-46119047D02*
X88378628Y-46071428D01*
X88378628Y-46071428D02*
X88664342Y-46071428D01*
X88664342Y-46071428D02*
X88759580Y-46119047D01*
X88759580Y-46119047D02*
X88807200Y-46166666D01*
X88807200Y-46166666D02*
X88854819Y-46261904D01*
X88854819Y-46261904D02*
X88854819Y-46404761D01*
X88188152Y-45214285D02*
X88854819Y-45214285D01*
X88188152Y-45642856D02*
X88711961Y-45642856D01*
X88711961Y-45642856D02*
X88807200Y-45595237D01*
X88807200Y-45595237D02*
X88854819Y-45499999D01*
X88854819Y-45499999D02*
X88854819Y-45357142D01*
X88854819Y-45357142D02*
X88807200Y-45261904D01*
X88807200Y-45261904D02*
X88759580Y-45214285D01*
X88188152Y-44738094D02*
X88854819Y-44738094D01*
X88283390Y-44738094D02*
X88235771Y-44690475D01*
X88235771Y-44690475D02*
X88188152Y-44595237D01*
X88188152Y-44595237D02*
X88188152Y-44452380D01*
X88188152Y-44452380D02*
X88235771Y-44357142D01*
X88235771Y-44357142D02*
X88331009Y-44309523D01*
X88331009Y-44309523D02*
X88854819Y-44309523D01*
X88188152Y-43976189D02*
X88188152Y-43595237D01*
X87854819Y-43833332D02*
X88711961Y-43833332D01*
X88711961Y-43833332D02*
X88807200Y-43785713D01*
X88807200Y-43785713D02*
X88854819Y-43690475D01*
X88854819Y-43690475D02*
X88854819Y-43595237D01*
X88854819Y-43261903D02*
X88188152Y-43261903D01*
X87854819Y-43261903D02*
X87902438Y-43309522D01*
X87902438Y-43309522D02*
X87950057Y-43261903D01*
X87950057Y-43261903D02*
X87902438Y-43214284D01*
X87902438Y-43214284D02*
X87854819Y-43261903D01*
X87854819Y-43261903D02*
X87950057Y-43261903D01*
X88188152Y-42785713D02*
X88854819Y-42785713D01*
X88283390Y-42785713D02*
X88235771Y-42738094D01*
X88235771Y-42738094D02*
X88188152Y-42642856D01*
X88188152Y-42642856D02*
X88188152Y-42499999D01*
X88188152Y-42499999D02*
X88235771Y-42404761D01*
X88235771Y-42404761D02*
X88331009Y-42357142D01*
X88331009Y-42357142D02*
X88854819Y-42357142D01*
X88188152Y-41452380D02*
X88997676Y-41452380D01*
X88997676Y-41452380D02*
X89092914Y-41499999D01*
X89092914Y-41499999D02*
X89140533Y-41547618D01*
X89140533Y-41547618D02*
X89188152Y-41642856D01*
X89188152Y-41642856D02*
X89188152Y-41785713D01*
X89188152Y-41785713D02*
X89140533Y-41880951D01*
X88807200Y-41452380D02*
X88854819Y-41547618D01*
X88854819Y-41547618D02*
X88854819Y-41738094D01*
X88854819Y-41738094D02*
X88807200Y-41833332D01*
X88807200Y-41833332D02*
X88759580Y-41880951D01*
X88759580Y-41880951D02*
X88664342Y-41928570D01*
X88664342Y-41928570D02*
X88378628Y-41928570D01*
X88378628Y-41928570D02*
X88283390Y-41880951D01*
X88283390Y-41880951D02*
X88235771Y-41833332D01*
X88235771Y-41833332D02*
X88188152Y-41738094D01*
X88188152Y-41738094D02*
X88188152Y-41547618D01*
X88188152Y-41547618D02*
X88235771Y-41452380D01*
X88854819Y-40976189D02*
X87854819Y-40976189D01*
X88331009Y-40976189D02*
X88331009Y-40404761D01*
X88854819Y-40404761D02*
X87854819Y-40404761D01*
X88854819Y-39785713D02*
X88807200Y-39880951D01*
X88807200Y-39880951D02*
X88759580Y-39928570D01*
X88759580Y-39928570D02*
X88664342Y-39976189D01*
X88664342Y-39976189D02*
X88378628Y-39976189D01*
X88378628Y-39976189D02*
X88283390Y-39928570D01*
X88283390Y-39928570D02*
X88235771Y-39880951D01*
X88235771Y-39880951D02*
X88188152Y-39785713D01*
X88188152Y-39785713D02*
X88188152Y-39642856D01*
X88188152Y-39642856D02*
X88235771Y-39547618D01*
X88235771Y-39547618D02*
X88283390Y-39499999D01*
X88283390Y-39499999D02*
X88378628Y-39452380D01*
X88378628Y-39452380D02*
X88664342Y-39452380D01*
X88664342Y-39452380D02*
X88759580Y-39499999D01*
X88759580Y-39499999D02*
X88807200Y-39547618D01*
X88807200Y-39547618D02*
X88854819Y-39642856D01*
X88854819Y-39642856D02*
X88854819Y-39785713D01*
X88854819Y-38880951D02*
X88807200Y-38976189D01*
X88807200Y-38976189D02*
X88711961Y-39023808D01*
X88711961Y-39023808D02*
X87854819Y-39023808D01*
X88807200Y-38119046D02*
X88854819Y-38214284D01*
X88854819Y-38214284D02*
X88854819Y-38404760D01*
X88854819Y-38404760D02*
X88807200Y-38499998D01*
X88807200Y-38499998D02*
X88711961Y-38547617D01*
X88711961Y-38547617D02*
X88331009Y-38547617D01*
X88331009Y-38547617D02*
X88235771Y-38499998D01*
X88235771Y-38499998D02*
X88188152Y-38404760D01*
X88188152Y-38404760D02*
X88188152Y-38214284D01*
X88188152Y-38214284D02*
X88235771Y-38119046D01*
X88235771Y-38119046D02*
X88331009Y-38071427D01*
X88331009Y-38071427D02*
X88426247Y-38071427D01*
X88426247Y-38071427D02*
X88521485Y-38547617D01*
X88950057Y-37880951D02*
X88950057Y-37119046D01*
X87854819Y-36976188D02*
X87854819Y-36357141D01*
X87854819Y-36357141D02*
X88235771Y-36690474D01*
X88235771Y-36690474D02*
X88235771Y-36547617D01*
X88235771Y-36547617D02*
X88283390Y-36452379D01*
X88283390Y-36452379D02*
X88331009Y-36404760D01*
X88331009Y-36404760D02*
X88426247Y-36357141D01*
X88426247Y-36357141D02*
X88664342Y-36357141D01*
X88664342Y-36357141D02*
X88759580Y-36404760D01*
X88759580Y-36404760D02*
X88807200Y-36452379D01*
X88807200Y-36452379D02*
X88854819Y-36547617D01*
X88854819Y-36547617D02*
X88854819Y-36833331D01*
X88854819Y-36833331D02*
X88807200Y-36928569D01*
X88807200Y-36928569D02*
X88759580Y-36976188D01*
X88759580Y-35928569D02*
X88807200Y-35880950D01*
X88807200Y-35880950D02*
X88854819Y-35928569D01*
X88854819Y-35928569D02*
X88807200Y-35976188D01*
X88807200Y-35976188D02*
X88759580Y-35928569D01*
X88759580Y-35928569D02*
X88854819Y-35928569D01*
X87854819Y-34976189D02*
X87854819Y-35452379D01*
X87854819Y-35452379D02*
X88331009Y-35499998D01*
X88331009Y-35499998D02*
X88283390Y-35452379D01*
X88283390Y-35452379D02*
X88235771Y-35357141D01*
X88235771Y-35357141D02*
X88235771Y-35119046D01*
X88235771Y-35119046D02*
X88283390Y-35023808D01*
X88283390Y-35023808D02*
X88331009Y-34976189D01*
X88331009Y-34976189D02*
X88426247Y-34928570D01*
X88426247Y-34928570D02*
X88664342Y-34928570D01*
X88664342Y-34928570D02*
X88759580Y-34976189D01*
X88759580Y-34976189D02*
X88807200Y-35023808D01*
X88807200Y-35023808D02*
X88854819Y-35119046D01*
X88854819Y-35119046D02*
X88854819Y-35357141D01*
X88854819Y-35357141D02*
X88807200Y-35452379D01*
X88807200Y-35452379D02*
X88759580Y-35499998D01*
X88854819Y-34499998D02*
X88188152Y-34499998D01*
X88283390Y-34499998D02*
X88235771Y-34452379D01*
X88235771Y-34452379D02*
X88188152Y-34357141D01*
X88188152Y-34357141D02*
X88188152Y-34214284D01*
X88188152Y-34214284D02*
X88235771Y-34119046D01*
X88235771Y-34119046D02*
X88331009Y-34071427D01*
X88331009Y-34071427D02*
X88854819Y-34071427D01*
X88331009Y-34071427D02*
X88235771Y-34023808D01*
X88235771Y-34023808D02*
X88188152Y-33928570D01*
X88188152Y-33928570D02*
X88188152Y-33785713D01*
X88188152Y-33785713D02*
X88235771Y-33690474D01*
X88235771Y-33690474D02*
X88331009Y-33642855D01*
X88331009Y-33642855D02*
X88854819Y-33642855D01*
X88854819Y-33166665D02*
X88188152Y-33166665D01*
X88283390Y-33166665D02*
X88235771Y-33119046D01*
X88235771Y-33119046D02*
X88188152Y-33023808D01*
X88188152Y-33023808D02*
X88188152Y-32880951D01*
X88188152Y-32880951D02*
X88235771Y-32785713D01*
X88235771Y-32785713D02*
X88331009Y-32738094D01*
X88331009Y-32738094D02*
X88854819Y-32738094D01*
X88331009Y-32738094D02*
X88235771Y-32690475D01*
X88235771Y-32690475D02*
X88188152Y-32595237D01*
X88188152Y-32595237D02*
X88188152Y-32452380D01*
X88188152Y-32452380D02*
X88235771Y-32357141D01*
X88235771Y-32357141D02*
X88331009Y-32309522D01*
X88331009Y-32309522D02*
X88854819Y-32309522D01*
X84354819Y-41333333D02*
X83878628Y-41666666D01*
X84354819Y-41904761D02*
X83354819Y-41904761D01*
X83354819Y-41904761D02*
X83354819Y-41523809D01*
X83354819Y-41523809D02*
X83402438Y-41428571D01*
X83402438Y-41428571D02*
X83450057Y-41380952D01*
X83450057Y-41380952D02*
X83545295Y-41333333D01*
X83545295Y-41333333D02*
X83688152Y-41333333D01*
X83688152Y-41333333D02*
X83783390Y-41380952D01*
X83783390Y-41380952D02*
X83831009Y-41428571D01*
X83831009Y-41428571D02*
X83878628Y-41523809D01*
X83878628Y-41523809D02*
X83878628Y-41904761D01*
X83831009Y-40904761D02*
X83831009Y-40571428D01*
X84354819Y-40428571D02*
X84354819Y-40904761D01*
X84354819Y-40904761D02*
X83354819Y-40904761D01*
X83354819Y-40904761D02*
X83354819Y-40428571D01*
X83831009Y-39666666D02*
X83831009Y-39999999D01*
X84354819Y-39999999D02*
X83354819Y-39999999D01*
X83354819Y-39999999D02*
X83354819Y-39523809D01*
X83354819Y-38999999D02*
X83592914Y-38999999D01*
X83497676Y-39238094D02*
X83592914Y-38999999D01*
X83592914Y-38999999D02*
X83497676Y-38761904D01*
X83783390Y-39142856D02*
X83592914Y-38999999D01*
X83592914Y-38999999D02*
X83783390Y-38857142D01*
X83354819Y-38238094D02*
X83592914Y-38238094D01*
X83497676Y-38476189D02*
X83592914Y-38238094D01*
X83592914Y-38238094D02*
X83497676Y-37999999D01*
X83783390Y-38380951D02*
X83592914Y-38238094D01*
X83592914Y-38238094D02*
X83783390Y-38095237D01*
X63819952Y-84063819D02*
X63819952Y-83063819D01*
X63819952Y-83063819D02*
X64391380Y-84063819D01*
X64391380Y-84063819D02*
X64391380Y-83063819D01*
X64867571Y-83063819D02*
X64867571Y-83873342D01*
X64867571Y-83873342D02*
X64915190Y-83968580D01*
X64915190Y-83968580D02*
X64962809Y-84016200D01*
X64962809Y-84016200D02*
X65058047Y-84063819D01*
X65058047Y-84063819D02*
X65248523Y-84063819D01*
X65248523Y-84063819D02*
X65343761Y-84016200D01*
X65343761Y-84016200D02*
X65391380Y-83968580D01*
X65391380Y-83968580D02*
X65438999Y-83873342D01*
X65438999Y-83873342D02*
X65438999Y-83063819D01*
X66486618Y-83968580D02*
X66438999Y-84016200D01*
X66438999Y-84016200D02*
X66296142Y-84063819D01*
X66296142Y-84063819D02*
X66200904Y-84063819D01*
X66200904Y-84063819D02*
X66058047Y-84016200D01*
X66058047Y-84016200D02*
X65962809Y-83920961D01*
X65962809Y-83920961D02*
X65915190Y-83825723D01*
X65915190Y-83825723D02*
X65867571Y-83635247D01*
X65867571Y-83635247D02*
X65867571Y-83492390D01*
X65867571Y-83492390D02*
X65915190Y-83301914D01*
X65915190Y-83301914D02*
X65962809Y-83206676D01*
X65962809Y-83206676D02*
X66058047Y-83111438D01*
X66058047Y-83111438D02*
X66200904Y-83063819D01*
X66200904Y-83063819D02*
X66296142Y-83063819D01*
X66296142Y-83063819D02*
X66438999Y-83111438D01*
X66438999Y-83111438D02*
X66486618Y-83159057D01*
X67391380Y-84063819D02*
X66915190Y-84063819D01*
X66915190Y-84063819D02*
X66915190Y-83063819D01*
X67724714Y-83540009D02*
X68058047Y-83540009D01*
X68200904Y-84063819D02*
X67724714Y-84063819D01*
X67724714Y-84063819D02*
X67724714Y-83063819D01*
X67724714Y-83063819D02*
X68200904Y-83063819D01*
X68819952Y-83063819D02*
X69010428Y-83063819D01*
X69010428Y-83063819D02*
X69105666Y-83111438D01*
X69105666Y-83111438D02*
X69200904Y-83206676D01*
X69200904Y-83206676D02*
X69248523Y-83397152D01*
X69248523Y-83397152D02*
X69248523Y-83730485D01*
X69248523Y-83730485D02*
X69200904Y-83920961D01*
X69200904Y-83920961D02*
X69105666Y-84016200D01*
X69105666Y-84016200D02*
X69010428Y-84063819D01*
X69010428Y-84063819D02*
X68819952Y-84063819D01*
X68819952Y-84063819D02*
X68724714Y-84016200D01*
X68724714Y-84016200D02*
X68629476Y-83920961D01*
X68629476Y-83920961D02*
X68581857Y-83730485D01*
X68581857Y-83730485D02*
X68581857Y-83397152D01*
X68581857Y-83397152D02*
X68629476Y-83206676D01*
X68629476Y-83206676D02*
X68724714Y-83111438D01*
X68724714Y-83111438D02*
X68819952Y-83063819D01*
X69677095Y-83682866D02*
X70439000Y-83682866D01*
X71248523Y-83540009D02*
X70915190Y-83540009D01*
X70915190Y-84063819D02*
X70915190Y-83063819D01*
X70915190Y-83063819D02*
X71391380Y-83063819D01*
X72200904Y-83397152D02*
X72200904Y-84063819D01*
X71962809Y-83016200D02*
X71724714Y-83730485D01*
X71724714Y-83730485D02*
X72343761Y-83730485D01*
X73248523Y-84063819D02*
X72677095Y-84063819D01*
X72962809Y-84063819D02*
X72962809Y-83063819D01*
X72962809Y-83063819D02*
X72867571Y-83206676D01*
X72867571Y-83206676D02*
X72772333Y-83301914D01*
X72772333Y-83301914D02*
X72677095Y-83349533D01*
X74200904Y-84063819D02*
X73629476Y-84063819D01*
X73915190Y-84063819D02*
X73915190Y-83063819D01*
X73915190Y-83063819D02*
X73819952Y-83206676D01*
X73819952Y-83206676D02*
X73724714Y-83301914D01*
X73724714Y-83301914D02*
X73629476Y-83349533D01*
X75200904Y-84063819D02*
X74867571Y-83587628D01*
X74629476Y-84063819D02*
X74629476Y-83063819D01*
X74629476Y-83063819D02*
X75010428Y-83063819D01*
X75010428Y-83063819D02*
X75105666Y-83111438D01*
X75105666Y-83111438D02*
X75153285Y-83159057D01*
X75153285Y-83159057D02*
X75200904Y-83254295D01*
X75200904Y-83254295D02*
X75200904Y-83397152D01*
X75200904Y-83397152D02*
X75153285Y-83492390D01*
X75153285Y-83492390D02*
X75105666Y-83540009D01*
X75105666Y-83540009D02*
X75010428Y-83587628D01*
X75010428Y-83587628D02*
X74629476Y-83587628D01*
X75629476Y-83540009D02*
X75962809Y-83540009D01*
X76105666Y-84063819D02*
X75629476Y-84063819D01*
X75629476Y-84063819D02*
X75629476Y-83063819D01*
X75629476Y-83063819D02*
X76105666Y-83063819D01*
D11*
%TO.C,U1*%
X6914200Y-79258000D02*
X6914200Y-1758000D01*
X8414200Y-258000D02*
X75414200Y-258000D01*
X8934200Y-30728000D02*
X8934200Y-78988000D01*
X8934200Y-78988000D02*
X13934200Y-78988000D01*
X13934200Y-30728000D02*
X8934200Y-30728000D01*
X13934200Y-78988000D02*
X13934200Y-30728000D01*
X17914200Y-80758000D02*
X8414200Y-80758000D01*
X19914200Y-82758000D02*
X17914200Y-80758000D01*
X52914200Y-82758000D02*
X19914200Y-82758000D01*
X54914200Y-80758000D02*
X52914200Y-82758000D01*
X69894200Y-30728000D02*
X69894200Y-78988000D01*
X69894200Y-78988000D02*
X74894200Y-78988000D01*
X74894200Y-30728000D02*
X69894200Y-30728000D01*
X74894200Y-78988000D02*
X74894200Y-30728000D01*
X75414200Y-80758000D02*
X54914200Y-80758000D01*
X76914200Y-1758000D02*
X76914200Y-79258000D01*
X6914200Y-1758000D02*
G75*
G02*
X8414200Y-258000I1500001J-1D01*
G01*
X8414200Y-80758000D02*
G75*
G02*
X6914200Y-79258000I1J1500001D01*
G01*
X75414200Y-258000D02*
G75*
G02*
X76914200Y-1758000I0J-1500000D01*
G01*
X76914200Y-79258000D02*
G75*
G02*
X75414200Y-80758000I-1500000J0D01*
G01*
D12*
X8514200Y-31998000D02*
G75*
G02*
X8314200Y-31998000I-100000J0D01*
G01*
X8314200Y-31998000D02*
G75*
G02*
X8514200Y-31998000I100000J0D01*
G01*
X69474200Y-31998000D02*
G75*
G02*
X69274200Y-31998000I-100000J0D01*
G01*
X69274200Y-31998000D02*
G75*
G02*
X69474200Y-31998000I100000J0D01*
G01*
%TD*%
M02*
