%TF.GenerationSoftware,KiCad,Pcbnew,8.0.2*%
%TF.CreationDate,2024-05-20T01:45:51+09:00*%
%TF.ProjectId,Spct,53706374-2e6b-4696-9361-645f70636258,rev?*%
%TF.SameCoordinates,PX2540608PY1ee3f58*%
%TF.FileFunction,Legend,Top*%
%TF.FilePolarity,Positive*%
%FSLAX46Y46*%
G04 Gerber Fmt 4.6, Leading zero omitted, Abs format (unit mm)*
G04 Created by KiCad (PCBNEW 8.0.2) date 2024-05-20 01:45:51*
%MOMM*%
%LPD*%
G01*
G04 APERTURE LIST*
%ADD10C,0.200000*%
%ADD11C,0.400000*%
%ADD12C,0.150000*%
%ADD13C,0.127000*%
G04 APERTURE END LIST*
D10*
X77393971Y-22388720D02*
X78893971Y-22388720D01*
X78893971Y-22388720D02*
X78893971Y-22960149D01*
X78893971Y-22960149D02*
X78822542Y-23103006D01*
X78822542Y-23103006D02*
X78751114Y-23174435D01*
X78751114Y-23174435D02*
X78608257Y-23245863D01*
X78608257Y-23245863D02*
X78393971Y-23245863D01*
X78393971Y-23245863D02*
X78251114Y-23174435D01*
X78251114Y-23174435D02*
X78179685Y-23103006D01*
X78179685Y-23103006D02*
X78108257Y-22960149D01*
X78108257Y-22960149D02*
X78108257Y-22388720D01*
X78893971Y-23745863D02*
X77393971Y-24103006D01*
X77393971Y-24103006D02*
X78465400Y-24388720D01*
X78465400Y-24388720D02*
X77393971Y-24674435D01*
X77393971Y-24674435D02*
X78893971Y-25031578D01*
X77393971Y-26460149D02*
X78108257Y-25960149D01*
X77393971Y-25603006D02*
X78893971Y-25603006D01*
X78893971Y-25603006D02*
X78893971Y-26174435D01*
X78893971Y-26174435D02*
X78822542Y-26317292D01*
X78822542Y-26317292D02*
X78751114Y-26388721D01*
X78751114Y-26388721D02*
X78608257Y-26460149D01*
X78608257Y-26460149D02*
X78393971Y-26460149D01*
X78393971Y-26460149D02*
X78251114Y-26388721D01*
X78251114Y-26388721D02*
X78179685Y-26317292D01*
X78179685Y-26317292D02*
X78108257Y-26174435D01*
X78108257Y-26174435D02*
X78108257Y-25603006D01*
X77465400Y-28174435D02*
X77393971Y-28388721D01*
X77393971Y-28388721D02*
X77393971Y-28745863D01*
X77393971Y-28745863D02*
X77465400Y-28888721D01*
X77465400Y-28888721D02*
X77536828Y-28960149D01*
X77536828Y-28960149D02*
X77679685Y-29031578D01*
X77679685Y-29031578D02*
X77822542Y-29031578D01*
X77822542Y-29031578D02*
X77965400Y-28960149D01*
X77965400Y-28960149D02*
X78036828Y-28888721D01*
X78036828Y-28888721D02*
X78108257Y-28745863D01*
X78108257Y-28745863D02*
X78179685Y-28460149D01*
X78179685Y-28460149D02*
X78251114Y-28317292D01*
X78251114Y-28317292D02*
X78322542Y-28245863D01*
X78322542Y-28245863D02*
X78465400Y-28174435D01*
X78465400Y-28174435D02*
X78608257Y-28174435D01*
X78608257Y-28174435D02*
X78751114Y-28245863D01*
X78751114Y-28245863D02*
X78822542Y-28317292D01*
X78822542Y-28317292D02*
X78893971Y-28460149D01*
X78893971Y-28460149D02*
X78893971Y-28817292D01*
X78893971Y-28817292D02*
X78822542Y-29031578D01*
X78893971Y-29531577D02*
X77393971Y-29888720D01*
X77393971Y-29888720D02*
X78465400Y-30174434D01*
X78465400Y-30174434D02*
X77393971Y-30460149D01*
X77393971Y-30460149D02*
X78893971Y-30817292D01*
X79066571Y-12485835D02*
X77566571Y-12985835D01*
X77566571Y-12985835D02*
X79066571Y-13485835D01*
X77566571Y-13985834D02*
X79066571Y-13985834D01*
X77566571Y-14700120D02*
X79066571Y-14700120D01*
X79066571Y-14700120D02*
X77566571Y-15557263D01*
X77566571Y-15557263D02*
X79066571Y-15557263D01*
D11*
X82223288Y-82603909D02*
X82128049Y-82889623D01*
X82128049Y-82889623D02*
X82128049Y-83365814D01*
X82128049Y-83365814D02*
X82223288Y-83556290D01*
X82223288Y-83556290D02*
X82318526Y-83651528D01*
X82318526Y-83651528D02*
X82509002Y-83746766D01*
X82509002Y-83746766D02*
X82699478Y-83746766D01*
X82699478Y-83746766D02*
X82889954Y-83651528D01*
X82889954Y-83651528D02*
X82985192Y-83556290D01*
X82985192Y-83556290D02*
X83080430Y-83365814D01*
X83080430Y-83365814D02*
X83175668Y-82984861D01*
X83175668Y-82984861D02*
X83270907Y-82794385D01*
X83270907Y-82794385D02*
X83366145Y-82699147D01*
X83366145Y-82699147D02*
X83556621Y-82603909D01*
X83556621Y-82603909D02*
X83747097Y-82603909D01*
X83747097Y-82603909D02*
X83937573Y-82699147D01*
X83937573Y-82699147D02*
X84032811Y-82794385D01*
X84032811Y-82794385D02*
X84128049Y-82984861D01*
X84128049Y-82984861D02*
X84128049Y-83461052D01*
X84128049Y-83461052D02*
X84032811Y-83746766D01*
X83461383Y-84603909D02*
X81461383Y-84603909D01*
X83366145Y-84603909D02*
X83461383Y-84794385D01*
X83461383Y-84794385D02*
X83461383Y-85175338D01*
X83461383Y-85175338D02*
X83366145Y-85365814D01*
X83366145Y-85365814D02*
X83270907Y-85461052D01*
X83270907Y-85461052D02*
X83080430Y-85556290D01*
X83080430Y-85556290D02*
X82509002Y-85556290D01*
X82509002Y-85556290D02*
X82318526Y-85461052D01*
X82318526Y-85461052D02*
X82223288Y-85365814D01*
X82223288Y-85365814D02*
X82128049Y-85175338D01*
X82128049Y-85175338D02*
X82128049Y-84794385D01*
X82128049Y-84794385D02*
X82223288Y-84603909D01*
X82128049Y-86413433D02*
X83461383Y-86413433D01*
X84128049Y-86413433D02*
X84032811Y-86318195D01*
X84032811Y-86318195D02*
X83937573Y-86413433D01*
X83937573Y-86413433D02*
X84032811Y-86508671D01*
X84032811Y-86508671D02*
X84128049Y-86413433D01*
X84128049Y-86413433D02*
X83937573Y-86413433D01*
X83461383Y-87365814D02*
X82128049Y-87365814D01*
X83270907Y-87365814D02*
X83366145Y-87461052D01*
X83366145Y-87461052D02*
X83461383Y-87651528D01*
X83461383Y-87651528D02*
X83461383Y-87937243D01*
X83461383Y-87937243D02*
X83366145Y-88127719D01*
X83366145Y-88127719D02*
X83175668Y-88222957D01*
X83175668Y-88222957D02*
X82128049Y-88222957D01*
X81937573Y-88699148D02*
X81937573Y-90222957D01*
X82318526Y-91842005D02*
X82223288Y-91746767D01*
X82223288Y-91746767D02*
X82128049Y-91461053D01*
X82128049Y-91461053D02*
X82128049Y-91270577D01*
X82128049Y-91270577D02*
X82223288Y-90984862D01*
X82223288Y-90984862D02*
X82413764Y-90794386D01*
X82413764Y-90794386D02*
X82604240Y-90699148D01*
X82604240Y-90699148D02*
X82985192Y-90603910D01*
X82985192Y-90603910D02*
X83270907Y-90603910D01*
X83270907Y-90603910D02*
X83651859Y-90699148D01*
X83651859Y-90699148D02*
X83842335Y-90794386D01*
X83842335Y-90794386D02*
X84032811Y-90984862D01*
X84032811Y-90984862D02*
X84128049Y-91270577D01*
X84128049Y-91270577D02*
X84128049Y-91461053D01*
X84128049Y-91461053D02*
X84032811Y-91746767D01*
X84032811Y-91746767D02*
X83937573Y-91842005D01*
X82128049Y-92984862D02*
X82223288Y-92794386D01*
X82223288Y-92794386D02*
X82318526Y-92699148D01*
X82318526Y-92699148D02*
X82509002Y-92603910D01*
X82509002Y-92603910D02*
X83080430Y-92603910D01*
X83080430Y-92603910D02*
X83270907Y-92699148D01*
X83270907Y-92699148D02*
X83366145Y-92794386D01*
X83366145Y-92794386D02*
X83461383Y-92984862D01*
X83461383Y-92984862D02*
X83461383Y-93270577D01*
X83461383Y-93270577D02*
X83366145Y-93461053D01*
X83366145Y-93461053D02*
X83270907Y-93556291D01*
X83270907Y-93556291D02*
X83080430Y-93651529D01*
X83080430Y-93651529D02*
X82509002Y-93651529D01*
X82509002Y-93651529D02*
X82318526Y-93556291D01*
X82318526Y-93556291D02*
X82223288Y-93461053D01*
X82223288Y-93461053D02*
X82128049Y-93270577D01*
X82128049Y-93270577D02*
X82128049Y-92984862D01*
X82128049Y-95365815D02*
X83175668Y-95365815D01*
X83175668Y-95365815D02*
X83366145Y-95270577D01*
X83366145Y-95270577D02*
X83461383Y-95080101D01*
X83461383Y-95080101D02*
X83461383Y-94699148D01*
X83461383Y-94699148D02*
X83366145Y-94508672D01*
X82223288Y-95365815D02*
X82128049Y-95175339D01*
X82128049Y-95175339D02*
X82128049Y-94699148D01*
X82128049Y-94699148D02*
X82223288Y-94508672D01*
X82223288Y-94508672D02*
X82413764Y-94413434D01*
X82413764Y-94413434D02*
X82604240Y-94413434D01*
X82604240Y-94413434D02*
X82794716Y-94508672D01*
X82794716Y-94508672D02*
X82889954Y-94699148D01*
X82889954Y-94699148D02*
X82889954Y-95175339D01*
X82889954Y-95175339D02*
X82985192Y-95365815D01*
X83461383Y-96032482D02*
X83461383Y-96794386D01*
X84128049Y-96318196D02*
X82413764Y-96318196D01*
X82413764Y-96318196D02*
X82223288Y-96413434D01*
X82223288Y-96413434D02*
X82128049Y-96603910D01*
X82128049Y-96603910D02*
X82128049Y-96794386D01*
X82223288Y-98222958D02*
X82128049Y-98032482D01*
X82128049Y-98032482D02*
X82128049Y-97651529D01*
X82128049Y-97651529D02*
X82223288Y-97461053D01*
X82223288Y-97461053D02*
X82413764Y-97365815D01*
X82413764Y-97365815D02*
X83175668Y-97365815D01*
X83175668Y-97365815D02*
X83366145Y-97461053D01*
X83366145Y-97461053D02*
X83461383Y-97651529D01*
X83461383Y-97651529D02*
X83461383Y-98032482D01*
X83461383Y-98032482D02*
X83366145Y-98222958D01*
X83366145Y-98222958D02*
X83175668Y-98318196D01*
X83175668Y-98318196D02*
X82985192Y-98318196D01*
X82985192Y-98318196D02*
X82794716Y-97365815D01*
X82128049Y-99175339D02*
X83461383Y-99175339D01*
X83080430Y-99175339D02*
X83270907Y-99270577D01*
X83270907Y-99270577D02*
X83366145Y-99365815D01*
X83366145Y-99365815D02*
X83461383Y-99556291D01*
X83461383Y-99556291D02*
X83461383Y-99746768D01*
X84128049Y-101651530D02*
X82128049Y-102318196D01*
X82128049Y-102318196D02*
X84128049Y-102984863D01*
X82128049Y-104699149D02*
X82128049Y-103556292D01*
X82128049Y-104127720D02*
X84128049Y-104127720D01*
X84128049Y-104127720D02*
X83842335Y-103937244D01*
X83842335Y-103937244D02*
X83651859Y-103746768D01*
X83651859Y-103746768D02*
X83556621Y-103556292D01*
X82318526Y-105556292D02*
X82223288Y-105651530D01*
X82223288Y-105651530D02*
X82128049Y-105556292D01*
X82128049Y-105556292D02*
X82223288Y-105461054D01*
X82223288Y-105461054D02*
X82318526Y-105556292D01*
X82318526Y-105556292D02*
X82128049Y-105556292D01*
X84128049Y-106318197D02*
X84128049Y-107556292D01*
X84128049Y-107556292D02*
X83366145Y-106889625D01*
X83366145Y-106889625D02*
X83366145Y-107175340D01*
X83366145Y-107175340D02*
X83270907Y-107365816D01*
X83270907Y-107365816D02*
X83175668Y-107461054D01*
X83175668Y-107461054D02*
X82985192Y-107556292D01*
X82985192Y-107556292D02*
X82509002Y-107556292D01*
X82509002Y-107556292D02*
X82318526Y-107461054D01*
X82318526Y-107461054D02*
X82223288Y-107365816D01*
X82223288Y-107365816D02*
X82128049Y-107175340D01*
X82128049Y-107175340D02*
X82128049Y-106603911D01*
X82128049Y-106603911D02*
X82223288Y-106413435D01*
X82223288Y-106413435D02*
X82318526Y-106318197D01*
X80717685Y-82603909D02*
X80812923Y-82699147D01*
X80812923Y-82699147D02*
X80908161Y-82889623D01*
X80908161Y-82889623D02*
X80908161Y-83365814D01*
X80908161Y-83365814D02*
X80812923Y-83556290D01*
X80812923Y-83556290D02*
X80717685Y-83651528D01*
X80717685Y-83651528D02*
X80527209Y-83746766D01*
X80527209Y-83746766D02*
X80336733Y-83746766D01*
X80336733Y-83746766D02*
X80051019Y-83651528D01*
X80051019Y-83651528D02*
X78908161Y-82508671D01*
X78908161Y-82508671D02*
X78908161Y-83746766D01*
X80241495Y-85461052D02*
X78908161Y-85461052D01*
X81003400Y-84984861D02*
X79574828Y-84508671D01*
X79574828Y-84508671D02*
X79574828Y-85746766D01*
X79098638Y-86508671D02*
X79003400Y-86603909D01*
X79003400Y-86603909D02*
X78908161Y-86508671D01*
X78908161Y-86508671D02*
X79003400Y-86413433D01*
X79003400Y-86413433D02*
X79098638Y-86508671D01*
X79098638Y-86508671D02*
X78908161Y-86508671D01*
X80908161Y-87842004D02*
X80908161Y-88032481D01*
X80908161Y-88032481D02*
X80812923Y-88222957D01*
X80812923Y-88222957D02*
X80717685Y-88318195D01*
X80717685Y-88318195D02*
X80527209Y-88413433D01*
X80527209Y-88413433D02*
X80146257Y-88508671D01*
X80146257Y-88508671D02*
X79670066Y-88508671D01*
X79670066Y-88508671D02*
X79289114Y-88413433D01*
X79289114Y-88413433D02*
X79098638Y-88318195D01*
X79098638Y-88318195D02*
X79003400Y-88222957D01*
X79003400Y-88222957D02*
X78908161Y-88032481D01*
X78908161Y-88032481D02*
X78908161Y-87842004D01*
X78908161Y-87842004D02*
X79003400Y-87651528D01*
X79003400Y-87651528D02*
X79098638Y-87556290D01*
X79098638Y-87556290D02*
X79289114Y-87461052D01*
X79289114Y-87461052D02*
X79670066Y-87365814D01*
X79670066Y-87365814D02*
X80146257Y-87365814D01*
X80146257Y-87365814D02*
X80527209Y-87461052D01*
X80527209Y-87461052D02*
X80717685Y-87556290D01*
X80717685Y-87556290D02*
X80812923Y-87651528D01*
X80812923Y-87651528D02*
X80908161Y-87842004D01*
X80908161Y-90318195D02*
X80908161Y-89365814D01*
X80908161Y-89365814D02*
X79955780Y-89270576D01*
X79955780Y-89270576D02*
X80051019Y-89365814D01*
X80051019Y-89365814D02*
X80146257Y-89556290D01*
X80146257Y-89556290D02*
X80146257Y-90032481D01*
X80146257Y-90032481D02*
X80051019Y-90222957D01*
X80051019Y-90222957D02*
X79955780Y-90318195D01*
X79955780Y-90318195D02*
X79765304Y-90413433D01*
X79765304Y-90413433D02*
X79289114Y-90413433D01*
X79289114Y-90413433D02*
X79098638Y-90318195D01*
X79098638Y-90318195D02*
X79003400Y-90222957D01*
X79003400Y-90222957D02*
X78908161Y-90032481D01*
X78908161Y-90032481D02*
X78908161Y-89556290D01*
X78908161Y-89556290D02*
X79003400Y-89365814D01*
X79003400Y-89365814D02*
X79098638Y-89270576D01*
X79098638Y-91270576D02*
X79003400Y-91365814D01*
X79003400Y-91365814D02*
X78908161Y-91270576D01*
X78908161Y-91270576D02*
X79003400Y-91175338D01*
X79003400Y-91175338D02*
X79098638Y-91270576D01*
X79098638Y-91270576D02*
X78908161Y-91270576D01*
X78908161Y-93270576D02*
X78908161Y-92127719D01*
X78908161Y-92699147D02*
X80908161Y-92699147D01*
X80908161Y-92699147D02*
X80622447Y-92508671D01*
X80622447Y-92508671D02*
X80431971Y-92318195D01*
X80431971Y-92318195D02*
X80336733Y-92127719D01*
X78908161Y-94222957D02*
X78908161Y-94603909D01*
X78908161Y-94603909D02*
X79003400Y-94794386D01*
X79003400Y-94794386D02*
X79098638Y-94889624D01*
X79098638Y-94889624D02*
X79384352Y-95080100D01*
X79384352Y-95080100D02*
X79765304Y-95175338D01*
X79765304Y-95175338D02*
X80527209Y-95175338D01*
X80527209Y-95175338D02*
X80717685Y-95080100D01*
X80717685Y-95080100D02*
X80812923Y-94984862D01*
X80812923Y-94984862D02*
X80908161Y-94794386D01*
X80908161Y-94794386D02*
X80908161Y-94413433D01*
X80908161Y-94413433D02*
X80812923Y-94222957D01*
X80812923Y-94222957D02*
X80717685Y-94127719D01*
X80717685Y-94127719D02*
X80527209Y-94032481D01*
X80527209Y-94032481D02*
X80051019Y-94032481D01*
X80051019Y-94032481D02*
X79860542Y-94127719D01*
X79860542Y-94127719D02*
X79765304Y-94222957D01*
X79765304Y-94222957D02*
X79670066Y-94413433D01*
X79670066Y-94413433D02*
X79670066Y-94794386D01*
X79670066Y-94794386D02*
X79765304Y-94984862D01*
X79765304Y-94984862D02*
X79860542Y-95080100D01*
X79860542Y-95080100D02*
X80051019Y-95175338D01*
D10*
X78047485Y-60706120D02*
X78047485Y-61206120D01*
X77261771Y-61420406D02*
X77261771Y-60706120D01*
X77261771Y-60706120D02*
X78761771Y-60706120D01*
X78761771Y-60706120D02*
X78761771Y-61420406D01*
X77261771Y-62063263D02*
X78761771Y-62063263D01*
X78761771Y-62063263D02*
X77261771Y-62920406D01*
X77261771Y-62920406D02*
X78761771Y-62920406D01*
X77404628Y-64491835D02*
X77333200Y-64420407D01*
X77333200Y-64420407D02*
X77261771Y-64206121D01*
X77261771Y-64206121D02*
X77261771Y-64063264D01*
X77261771Y-64063264D02*
X77333200Y-63848978D01*
X77333200Y-63848978D02*
X77476057Y-63706121D01*
X77476057Y-63706121D02*
X77618914Y-63634692D01*
X77618914Y-63634692D02*
X77904628Y-63563264D01*
X77904628Y-63563264D02*
X78118914Y-63563264D01*
X78118914Y-63563264D02*
X78404628Y-63634692D01*
X78404628Y-63634692D02*
X78547485Y-63706121D01*
X78547485Y-63706121D02*
X78690342Y-63848978D01*
X78690342Y-63848978D02*
X78761771Y-64063264D01*
X78761771Y-64063264D02*
X78761771Y-64206121D01*
X78761771Y-64206121D02*
X78690342Y-64420407D01*
X78690342Y-64420407D02*
X78618914Y-64491835D01*
X78761771Y-65420407D02*
X78761771Y-65706121D01*
X78761771Y-65706121D02*
X78690342Y-65848978D01*
X78690342Y-65848978D02*
X78547485Y-65991835D01*
X78547485Y-65991835D02*
X78261771Y-66063264D01*
X78261771Y-66063264D02*
X77761771Y-66063264D01*
X77761771Y-66063264D02*
X77476057Y-65991835D01*
X77476057Y-65991835D02*
X77333200Y-65848978D01*
X77333200Y-65848978D02*
X77261771Y-65706121D01*
X77261771Y-65706121D02*
X77261771Y-65420407D01*
X77261771Y-65420407D02*
X77333200Y-65277550D01*
X77333200Y-65277550D02*
X77476057Y-65134692D01*
X77476057Y-65134692D02*
X77761771Y-65063264D01*
X77761771Y-65063264D02*
X78261771Y-65063264D01*
X78261771Y-65063264D02*
X78547485Y-65134692D01*
X78547485Y-65134692D02*
X78690342Y-65277550D01*
X78690342Y-65277550D02*
X78761771Y-65420407D01*
X77261771Y-66706121D02*
X78761771Y-66706121D01*
X78761771Y-66706121D02*
X78761771Y-67063264D01*
X78761771Y-67063264D02*
X78690342Y-67277550D01*
X78690342Y-67277550D02*
X78547485Y-67420407D01*
X78547485Y-67420407D02*
X78404628Y-67491836D01*
X78404628Y-67491836D02*
X78118914Y-67563264D01*
X78118914Y-67563264D02*
X77904628Y-67563264D01*
X77904628Y-67563264D02*
X77618914Y-67491836D01*
X77618914Y-67491836D02*
X77476057Y-67420407D01*
X77476057Y-67420407D02*
X77333200Y-67277550D01*
X77333200Y-67277550D02*
X77261771Y-67063264D01*
X77261771Y-67063264D02*
X77261771Y-66706121D01*
X78047485Y-68206121D02*
X78047485Y-68706121D01*
X77261771Y-68920407D02*
X77261771Y-68206121D01*
X77261771Y-68206121D02*
X78761771Y-68206121D01*
X78761771Y-68206121D02*
X78761771Y-68920407D01*
X77261771Y-70420407D02*
X77976057Y-69920407D01*
X77261771Y-69563264D02*
X78761771Y-69563264D01*
X78761771Y-69563264D02*
X78761771Y-70134693D01*
X78761771Y-70134693D02*
X78690342Y-70277550D01*
X78690342Y-70277550D02*
X78618914Y-70348979D01*
X78618914Y-70348979D02*
X78476057Y-70420407D01*
X78476057Y-70420407D02*
X78261771Y-70420407D01*
X78261771Y-70420407D02*
X78118914Y-70348979D01*
X78118914Y-70348979D02*
X78047485Y-70277550D01*
X78047485Y-70277550D02*
X77976057Y-70134693D01*
X77976057Y-70134693D02*
X77976057Y-69563264D01*
X14361320Y-111917314D02*
X14861320Y-111917314D01*
X15075606Y-112703028D02*
X14361320Y-112703028D01*
X14361320Y-112703028D02*
X14361320Y-111203028D01*
X14361320Y-111203028D02*
X15075606Y-111203028D01*
X15647035Y-112631600D02*
X15861321Y-112703028D01*
X15861321Y-112703028D02*
X16218463Y-112703028D01*
X16218463Y-112703028D02*
X16361321Y-112631600D01*
X16361321Y-112631600D02*
X16432749Y-112560171D01*
X16432749Y-112560171D02*
X16504178Y-112417314D01*
X16504178Y-112417314D02*
X16504178Y-112274457D01*
X16504178Y-112274457D02*
X16432749Y-112131600D01*
X16432749Y-112131600D02*
X16361321Y-112060171D01*
X16361321Y-112060171D02*
X16218463Y-111988742D01*
X16218463Y-111988742D02*
X15932749Y-111917314D01*
X15932749Y-111917314D02*
X15789892Y-111845885D01*
X15789892Y-111845885D02*
X15718463Y-111774457D01*
X15718463Y-111774457D02*
X15647035Y-111631600D01*
X15647035Y-111631600D02*
X15647035Y-111488742D01*
X15647035Y-111488742D02*
X15718463Y-111345885D01*
X15718463Y-111345885D02*
X15789892Y-111274457D01*
X15789892Y-111274457D02*
X15932749Y-111203028D01*
X15932749Y-111203028D02*
X16289892Y-111203028D01*
X16289892Y-111203028D02*
X16504178Y-111274457D01*
X18004177Y-112560171D02*
X17932749Y-112631600D01*
X17932749Y-112631600D02*
X17718463Y-112703028D01*
X17718463Y-112703028D02*
X17575606Y-112703028D01*
X17575606Y-112703028D02*
X17361320Y-112631600D01*
X17361320Y-112631600D02*
X17218463Y-112488742D01*
X17218463Y-112488742D02*
X17147034Y-112345885D01*
X17147034Y-112345885D02*
X17075606Y-112060171D01*
X17075606Y-112060171D02*
X17075606Y-111845885D01*
X17075606Y-111845885D02*
X17147034Y-111560171D01*
X17147034Y-111560171D02*
X17218463Y-111417314D01*
X17218463Y-111417314D02*
X17361320Y-111274457D01*
X17361320Y-111274457D02*
X17575606Y-111203028D01*
X17575606Y-111203028D02*
X17718463Y-111203028D01*
X17718463Y-111203028D02*
X17932749Y-111274457D01*
X17932749Y-111274457D02*
X18004177Y-111345885D01*
X19718463Y-112631600D02*
X19932749Y-112703028D01*
X19932749Y-112703028D02*
X20289891Y-112703028D01*
X20289891Y-112703028D02*
X20432749Y-112631600D01*
X20432749Y-112631600D02*
X20504177Y-112560171D01*
X20504177Y-112560171D02*
X20575606Y-112417314D01*
X20575606Y-112417314D02*
X20575606Y-112274457D01*
X20575606Y-112274457D02*
X20504177Y-112131600D01*
X20504177Y-112131600D02*
X20432749Y-112060171D01*
X20432749Y-112060171D02*
X20289891Y-111988742D01*
X20289891Y-111988742D02*
X20004177Y-111917314D01*
X20004177Y-111917314D02*
X19861320Y-111845885D01*
X19861320Y-111845885D02*
X19789891Y-111774457D01*
X19789891Y-111774457D02*
X19718463Y-111631600D01*
X19718463Y-111631600D02*
X19718463Y-111488742D01*
X19718463Y-111488742D02*
X19789891Y-111345885D01*
X19789891Y-111345885D02*
X19861320Y-111274457D01*
X19861320Y-111274457D02*
X20004177Y-111203028D01*
X20004177Y-111203028D02*
X20361320Y-111203028D01*
X20361320Y-111203028D02*
X20575606Y-111274457D01*
X21218462Y-112703028D02*
X21218462Y-111203028D01*
X21218462Y-111203028D02*
X21789891Y-111203028D01*
X21789891Y-111203028D02*
X21932748Y-111274457D01*
X21932748Y-111274457D02*
X22004177Y-111345885D01*
X22004177Y-111345885D02*
X22075605Y-111488742D01*
X22075605Y-111488742D02*
X22075605Y-111703028D01*
X22075605Y-111703028D02*
X22004177Y-111845885D01*
X22004177Y-111845885D02*
X21932748Y-111917314D01*
X21932748Y-111917314D02*
X21789891Y-111988742D01*
X21789891Y-111988742D02*
X21218462Y-111988742D01*
X22718462Y-111917314D02*
X23218462Y-111917314D01*
X23432748Y-112703028D02*
X22718462Y-112703028D01*
X22718462Y-112703028D02*
X22718462Y-111203028D01*
X22718462Y-111203028D02*
X23432748Y-111203028D01*
X24075605Y-111917314D02*
X24575605Y-111917314D01*
X24789891Y-112703028D02*
X24075605Y-112703028D01*
X24075605Y-112703028D02*
X24075605Y-111203028D01*
X24075605Y-111203028D02*
X24789891Y-111203028D01*
X25432748Y-112703028D02*
X25432748Y-111203028D01*
X25432748Y-111203028D02*
X25789891Y-111203028D01*
X25789891Y-111203028D02*
X26004177Y-111274457D01*
X26004177Y-111274457D02*
X26147034Y-111417314D01*
X26147034Y-111417314D02*
X26218463Y-111560171D01*
X26218463Y-111560171D02*
X26289891Y-111845885D01*
X26289891Y-111845885D02*
X26289891Y-112060171D01*
X26289891Y-112060171D02*
X26218463Y-112345885D01*
X26218463Y-112345885D02*
X26147034Y-112488742D01*
X26147034Y-112488742D02*
X26004177Y-112631600D01*
X26004177Y-112631600D02*
X25789891Y-112703028D01*
X25789891Y-112703028D02*
X25432748Y-112703028D01*
X54645720Y-112855428D02*
X54645720Y-111355428D01*
X54645720Y-111355428D02*
X55145720Y-112426857D01*
X55145720Y-112426857D02*
X55645720Y-111355428D01*
X55645720Y-111355428D02*
X55645720Y-112855428D01*
X56645721Y-111355428D02*
X56931435Y-111355428D01*
X56931435Y-111355428D02*
X57074292Y-111426857D01*
X57074292Y-111426857D02*
X57217149Y-111569714D01*
X57217149Y-111569714D02*
X57288578Y-111855428D01*
X57288578Y-111855428D02*
X57288578Y-112355428D01*
X57288578Y-112355428D02*
X57217149Y-112641142D01*
X57217149Y-112641142D02*
X57074292Y-112784000D01*
X57074292Y-112784000D02*
X56931435Y-112855428D01*
X56931435Y-112855428D02*
X56645721Y-112855428D01*
X56645721Y-112855428D02*
X56502864Y-112784000D01*
X56502864Y-112784000D02*
X56360006Y-112641142D01*
X56360006Y-112641142D02*
X56288578Y-112355428D01*
X56288578Y-112355428D02*
X56288578Y-111855428D01*
X56288578Y-111855428D02*
X56360006Y-111569714D01*
X56360006Y-111569714D02*
X56502864Y-111426857D01*
X56502864Y-111426857D02*
X56645721Y-111355428D01*
X57717150Y-111355428D02*
X58574293Y-111355428D01*
X58145721Y-112855428D02*
X58145721Y-111355428D01*
X59360007Y-111355428D02*
X59645721Y-111355428D01*
X59645721Y-111355428D02*
X59788578Y-111426857D01*
X59788578Y-111426857D02*
X59931435Y-111569714D01*
X59931435Y-111569714D02*
X60002864Y-111855428D01*
X60002864Y-111855428D02*
X60002864Y-112355428D01*
X60002864Y-112355428D02*
X59931435Y-112641142D01*
X59931435Y-112641142D02*
X59788578Y-112784000D01*
X59788578Y-112784000D02*
X59645721Y-112855428D01*
X59645721Y-112855428D02*
X59360007Y-112855428D01*
X59360007Y-112855428D02*
X59217150Y-112784000D01*
X59217150Y-112784000D02*
X59074292Y-112641142D01*
X59074292Y-112641142D02*
X59002864Y-112355428D01*
X59002864Y-112355428D02*
X59002864Y-111855428D01*
X59002864Y-111855428D02*
X59074292Y-111569714D01*
X59074292Y-111569714D02*
X59217150Y-111426857D01*
X59217150Y-111426857D02*
X59360007Y-111355428D01*
X61502864Y-112855428D02*
X61002864Y-112141142D01*
X60645721Y-112855428D02*
X60645721Y-111355428D01*
X60645721Y-111355428D02*
X61217150Y-111355428D01*
X61217150Y-111355428D02*
X61360007Y-111426857D01*
X61360007Y-111426857D02*
X61431436Y-111498285D01*
X61431436Y-111498285D02*
X61502864Y-111641142D01*
X61502864Y-111641142D02*
X61502864Y-111855428D01*
X61502864Y-111855428D02*
X61431436Y-111998285D01*
X61431436Y-111998285D02*
X61360007Y-112069714D01*
X61360007Y-112069714D02*
X61217150Y-112141142D01*
X61217150Y-112141142D02*
X60645721Y-112141142D01*
X27975720Y-112018914D02*
X28475720Y-112018914D01*
X28690006Y-112804628D02*
X27975720Y-112804628D01*
X27975720Y-112804628D02*
X27975720Y-111304628D01*
X27975720Y-111304628D02*
X28690006Y-111304628D01*
X29261435Y-112733200D02*
X29475721Y-112804628D01*
X29475721Y-112804628D02*
X29832863Y-112804628D01*
X29832863Y-112804628D02*
X29975721Y-112733200D01*
X29975721Y-112733200D02*
X30047149Y-112661771D01*
X30047149Y-112661771D02*
X30118578Y-112518914D01*
X30118578Y-112518914D02*
X30118578Y-112376057D01*
X30118578Y-112376057D02*
X30047149Y-112233200D01*
X30047149Y-112233200D02*
X29975721Y-112161771D01*
X29975721Y-112161771D02*
X29832863Y-112090342D01*
X29832863Y-112090342D02*
X29547149Y-112018914D01*
X29547149Y-112018914D02*
X29404292Y-111947485D01*
X29404292Y-111947485D02*
X29332863Y-111876057D01*
X29332863Y-111876057D02*
X29261435Y-111733200D01*
X29261435Y-111733200D02*
X29261435Y-111590342D01*
X29261435Y-111590342D02*
X29332863Y-111447485D01*
X29332863Y-111447485D02*
X29404292Y-111376057D01*
X29404292Y-111376057D02*
X29547149Y-111304628D01*
X29547149Y-111304628D02*
X29904292Y-111304628D01*
X29904292Y-111304628D02*
X30118578Y-111376057D01*
X31618577Y-112661771D02*
X31547149Y-112733200D01*
X31547149Y-112733200D02*
X31332863Y-112804628D01*
X31332863Y-112804628D02*
X31190006Y-112804628D01*
X31190006Y-112804628D02*
X30975720Y-112733200D01*
X30975720Y-112733200D02*
X30832863Y-112590342D01*
X30832863Y-112590342D02*
X30761434Y-112447485D01*
X30761434Y-112447485D02*
X30690006Y-112161771D01*
X30690006Y-112161771D02*
X30690006Y-111947485D01*
X30690006Y-111947485D02*
X30761434Y-111661771D01*
X30761434Y-111661771D02*
X30832863Y-111518914D01*
X30832863Y-111518914D02*
X30975720Y-111376057D01*
X30975720Y-111376057D02*
X31190006Y-111304628D01*
X31190006Y-111304628D02*
X31332863Y-111304628D01*
X31332863Y-111304628D02*
X31547149Y-111376057D01*
X31547149Y-111376057D02*
X31618577Y-111447485D01*
X33404291Y-112804628D02*
X33404291Y-111304628D01*
X33404291Y-111304628D02*
X33975720Y-111304628D01*
X33975720Y-111304628D02*
X34118577Y-111376057D01*
X34118577Y-111376057D02*
X34190006Y-111447485D01*
X34190006Y-111447485D02*
X34261434Y-111590342D01*
X34261434Y-111590342D02*
X34261434Y-111804628D01*
X34261434Y-111804628D02*
X34190006Y-111947485D01*
X34190006Y-111947485D02*
X34118577Y-112018914D01*
X34118577Y-112018914D02*
X33975720Y-112090342D01*
X33975720Y-112090342D02*
X33404291Y-112090342D01*
X34761434Y-111304628D02*
X35118577Y-112804628D01*
X35118577Y-112804628D02*
X35404291Y-111733200D01*
X35404291Y-111733200D02*
X35690006Y-112804628D01*
X35690006Y-112804628D02*
X36047149Y-111304628D01*
X14564520Y-9047314D02*
X15064520Y-9047314D01*
X15278806Y-9833028D02*
X14564520Y-9833028D01*
X14564520Y-9833028D02*
X14564520Y-8333028D01*
X14564520Y-8333028D02*
X15278806Y-8333028D01*
X15921663Y-9833028D02*
X15921663Y-8333028D01*
X15921663Y-8333028D02*
X16421663Y-9404457D01*
X16421663Y-9404457D02*
X16921663Y-8333028D01*
X16921663Y-8333028D02*
X16921663Y-9833028D01*
X17921664Y-8333028D02*
X18207378Y-8333028D01*
X18207378Y-8333028D02*
X18350235Y-8404457D01*
X18350235Y-8404457D02*
X18493092Y-8547314D01*
X18493092Y-8547314D02*
X18564521Y-8833028D01*
X18564521Y-8833028D02*
X18564521Y-9333028D01*
X18564521Y-9333028D02*
X18493092Y-9618742D01*
X18493092Y-9618742D02*
X18350235Y-9761600D01*
X18350235Y-9761600D02*
X18207378Y-9833028D01*
X18207378Y-9833028D02*
X17921664Y-9833028D01*
X17921664Y-9833028D02*
X17778807Y-9761600D01*
X17778807Y-9761600D02*
X17635949Y-9618742D01*
X17635949Y-9618742D02*
X17564521Y-9333028D01*
X17564521Y-9333028D02*
X17564521Y-8833028D01*
X17564521Y-8833028D02*
X17635949Y-8547314D01*
X17635949Y-8547314D02*
X17778807Y-8404457D01*
X17778807Y-8404457D02*
X17921664Y-8333028D01*
X28994806Y-9731428D02*
X28280520Y-9731428D01*
X28280520Y-9731428D02*
X28280520Y-8231428D01*
X29494806Y-9731428D02*
X29494806Y-8231428D01*
X30209092Y-9731428D02*
X30209092Y-8231428D01*
X30209092Y-8231428D02*
X30566235Y-8231428D01*
X30566235Y-8231428D02*
X30780521Y-8302857D01*
X30780521Y-8302857D02*
X30923378Y-8445714D01*
X30923378Y-8445714D02*
X30994807Y-8588571D01*
X30994807Y-8588571D02*
X31066235Y-8874285D01*
X31066235Y-8874285D02*
X31066235Y-9088571D01*
X31066235Y-9088571D02*
X30994807Y-9374285D01*
X30994807Y-9374285D02*
X30923378Y-9517142D01*
X30923378Y-9517142D02*
X30780521Y-9660000D01*
X30780521Y-9660000D02*
X30566235Y-9731428D01*
X30566235Y-9731428D02*
X30209092Y-9731428D01*
X37210235Y-8637828D02*
X38067378Y-8637828D01*
X37638806Y-10137828D02*
X37638806Y-8637828D01*
X38567377Y-9352114D02*
X39067377Y-9352114D01*
X39281663Y-10137828D02*
X38567377Y-10137828D01*
X38567377Y-10137828D02*
X38567377Y-8637828D01*
X38567377Y-8637828D02*
X39281663Y-8637828D01*
X39924520Y-10137828D02*
X39924520Y-8637828D01*
X39924520Y-8637828D02*
X40424520Y-9709257D01*
X40424520Y-9709257D02*
X40924520Y-8637828D01*
X40924520Y-8637828D02*
X40924520Y-10137828D01*
X41638806Y-10137828D02*
X41638806Y-8637828D01*
X41638806Y-8637828D02*
X42210235Y-8637828D01*
X42210235Y-8637828D02*
X42353092Y-8709257D01*
X42353092Y-8709257D02*
X42424521Y-8780685D01*
X42424521Y-8780685D02*
X42495949Y-8923542D01*
X42495949Y-8923542D02*
X42495949Y-9137828D01*
X42495949Y-9137828D02*
X42424521Y-9280685D01*
X42424521Y-9280685D02*
X42353092Y-9352114D01*
X42353092Y-9352114D02*
X42210235Y-9423542D01*
X42210235Y-9423542D02*
X41638806Y-9423542D01*
D12*
X74677095Y-81563819D02*
X74677095Y-82373342D01*
X74677095Y-82373342D02*
X74724714Y-82468580D01*
X74724714Y-82468580D02*
X74772333Y-82516200D01*
X74772333Y-82516200D02*
X74867571Y-82563819D01*
X74867571Y-82563819D02*
X75058047Y-82563819D01*
X75058047Y-82563819D02*
X75153285Y-82516200D01*
X75153285Y-82516200D02*
X75200904Y-82468580D01*
X75200904Y-82468580D02*
X75248523Y-82373342D01*
X75248523Y-82373342D02*
X75248523Y-81563819D01*
X76248523Y-82563819D02*
X75677095Y-82563819D01*
X75962809Y-82563819D02*
X75962809Y-81563819D01*
X75962809Y-81563819D02*
X75867571Y-81706676D01*
X75867571Y-81706676D02*
X75772333Y-81801914D01*
X75772333Y-81801914D02*
X75677095Y-81849533D01*
D13*
%TO.C,U1*%
X6914200Y-79258000D02*
X6914200Y-1758000D01*
X8414200Y-258000D02*
X75414200Y-258000D01*
X8934200Y-30728000D02*
X8934200Y-78988000D01*
X8934200Y-78988000D02*
X13934200Y-78988000D01*
X13934200Y-30728000D02*
X8934200Y-30728000D01*
X13934200Y-78988000D02*
X13934200Y-30728000D01*
X17914200Y-80758000D02*
X8414200Y-80758000D01*
X19914200Y-82758000D02*
X17914200Y-80758000D01*
X52914200Y-82758000D02*
X19914200Y-82758000D01*
X54914200Y-80758000D02*
X52914200Y-82758000D01*
X69894200Y-30728000D02*
X69894200Y-78988000D01*
X69894200Y-78988000D02*
X74894200Y-78988000D01*
X74894200Y-30728000D02*
X69894200Y-30728000D01*
X74894200Y-78988000D02*
X74894200Y-30728000D01*
X75414200Y-80758000D02*
X54914200Y-80758000D01*
X76914200Y-1758000D02*
X76914200Y-79258000D01*
X6914200Y-1758000D02*
G75*
G02*
X8414200Y-258000I1500001J-1D01*
G01*
X8414200Y-80758000D02*
G75*
G02*
X6914200Y-79258000I1J1500001D01*
G01*
X75414200Y-258000D02*
G75*
G02*
X76914200Y-1758000I0J-1500000D01*
G01*
X76914200Y-79258000D02*
G75*
G02*
X75414200Y-80758000I-1500000J0D01*
G01*
D10*
X8514200Y-31998000D02*
G75*
G02*
X8314200Y-31998000I-100000J0D01*
G01*
X8314200Y-31998000D02*
G75*
G02*
X8514200Y-31998000I100000J0D01*
G01*
X69474200Y-31998000D02*
G75*
G02*
X69274200Y-31998000I-100000J0D01*
G01*
X69274200Y-31998000D02*
G75*
G02*
X69474200Y-31998000I100000J0D01*
G01*
%TD*%
M02*
