%TF.GenerationSoftware,KiCad,Pcbnew,(7.0.0-0)*%
%TF.CreationDate,2023-07-19T10:46:03+09:00*%
%TF.ProjectId,Spct,53706374-2e6b-4696-9361-645f70636258,rev?*%
%TF.SameCoordinates,PX2540608PY1ee3f58*%
%TF.FileFunction,Soldermask,Bot*%
%TF.FilePolarity,Negative*%
%FSLAX46Y46*%
G04 Gerber Fmt 4.6, Leading zero omitted, Abs format (unit mm)*
G04 Created by KiCad (PCBNEW (7.0.0-0)) date 2023-07-19 10:46:03*
%MOMM*%
%LPD*%
G01*
G04 APERTURE LIST*
G04 Aperture macros list*
%AMRoundRect*
0 Rectangle with rounded corners*
0 $1 Rounding radius*
0 $2 $3 $4 $5 $6 $7 $8 $9 X,Y pos of 4 corners*
0 Add a 4 corners polygon primitive as box body*
4,1,4,$2,$3,$4,$5,$6,$7,$8,$9,$2,$3,0*
0 Add four circle primitives for the rounded corners*
1,1,$1+$1,$2,$3*
1,1,$1+$1,$4,$5*
1,1,$1+$1,$6,$7*
1,1,$1+$1,$8,$9*
0 Add four rect primitives between the rounded corners*
20,1,$1+$1,$2,$3,$4,$5,0*
20,1,$1+$1,$4,$5,$6,$7,0*
20,1,$1+$1,$6,$7,$8,$9,0*
20,1,$1+$1,$8,$9,$2,$3,0*%
G04 Aperture macros list end*
%ADD10RoundRect,0.500000X0.500000X-1.500000X0.500000X1.500000X-0.500000X1.500000X-0.500000X-1.500000X0*%
%ADD11C,1.600000*%
%ADD12O,1.600000X1.600000*%
%ADD13C,3.200000*%
%ADD14C,3.000000*%
%ADD15R,1.530000X1.530000*%
%ADD16C,1.530000*%
%ADD17R,1.600000X1.600000*%
%ADD18R,2.800000X2.800000*%
%ADD19O,2.800000X2.800000*%
%ADD20R,1.800000X1.800000*%
%ADD21C,1.800000*%
%ADD22RoundRect,0.250000X-0.725000X0.600000X-0.725000X-0.600000X0.725000X-0.600000X0.725000X0.600000X0*%
%ADD23O,1.950000X1.700000*%
%ADD24RoundRect,0.250000X-0.750000X0.600000X-0.750000X-0.600000X0.750000X-0.600000X0.750000X0.600000X0*%
%ADD25O,2.000000X1.700000*%
%ADD26RoundRect,0.250000X0.600000X0.725000X-0.600000X0.725000X-0.600000X-0.725000X0.600000X-0.725000X0*%
%ADD27O,1.700000X1.950000*%
%ADD28C,2.000000*%
%ADD29RoundRect,0.250000X0.600000X0.750000X-0.600000X0.750000X-0.600000X-0.750000X0.600000X-0.750000X0*%
%ADD30O,1.700000X2.000000*%
%ADD31RoundRect,0.250000X-0.600000X-0.750000X0.600000X-0.750000X0.600000X0.750000X-0.600000X0.750000X0*%
%ADD32R,3.200000X3.200000*%
%ADD33O,3.200000X3.200000*%
%ADD34R,1.500000X1.500000*%
%ADD35C,1.500000*%
%ADD36R,2.000000X2.000000*%
%ADD37RoundRect,0.250000X-0.600000X-0.725000X0.600000X-0.725000X0.600000X0.725000X-0.600000X0.725000X0*%
G04 APERTURE END LIST*
D10*
%TO.C,U5*%
X18915000Y-54988500D03*
X21455000Y-54988500D03*
X29455000Y-54988500D03*
X31995000Y-54988500D03*
X31995000Y-34788500D03*
X29455000Y-34788500D03*
X21455000Y-34788500D03*
X18915000Y-34788500D03*
%TD*%
D11*
%TO.C,R1*%
X59182000Y-29083000D03*
D12*
X49021999Y-29082999D03*
%TD*%
D11*
%TO.C,R7*%
X46389000Y-102439000D03*
D12*
X46388999Y-92278999D03*
%TD*%
D11*
%TO.C,R11*%
X16367000Y-95096000D03*
D12*
X16366999Y-105255999D03*
%TD*%
D11*
%TO.C,R6*%
X50489000Y-92229000D03*
D12*
X50488999Y-102388999D03*
%TD*%
D13*
%TO.C,REF\u002A\u002A*%
X4000000Y-4000000D03*
%TD*%
D11*
%TO.C,R12*%
X54102000Y-33401000D03*
D12*
X64261999Y-33400999D03*
%TD*%
D11*
%TO.C,R4*%
X66689000Y-111689000D03*
D12*
X66688999Y-101528999D03*
%TD*%
D11*
%TO.C,R16*%
X53848000Y-41402000D03*
D12*
X64007999Y-41401999D03*
%TD*%
D14*
%TO.C,U1*%
X17784200Y-28188000D03*
X50804200Y-80258000D03*
X66044200Y-29458000D03*
D15*
X10164199Y-31997999D03*
D16*
X12704200Y-31998000D03*
X10164200Y-34538000D03*
X12704200Y-34538000D03*
X10164200Y-37078000D03*
X12704200Y-37078000D03*
X10164200Y-39618000D03*
X12704200Y-39618000D03*
X10164200Y-42158000D03*
X12704200Y-42158000D03*
X10164200Y-44698000D03*
X12704200Y-44698000D03*
X10164200Y-47238000D03*
X12704200Y-47238000D03*
X10164200Y-49778000D03*
X12704200Y-49778000D03*
X10164200Y-52318000D03*
X12704200Y-52318000D03*
X10164200Y-54858000D03*
X12704200Y-54858000D03*
X10164200Y-57398000D03*
X12704200Y-57398000D03*
X10164200Y-59938000D03*
X12704200Y-59938000D03*
X10164200Y-62478000D03*
X12704200Y-62478000D03*
X10164200Y-65018000D03*
X12704200Y-65018000D03*
X10164200Y-67558000D03*
X12704200Y-67558000D03*
X10164200Y-70098000D03*
X12704200Y-70098000D03*
X10164200Y-72638000D03*
X12704200Y-72638000D03*
X10164200Y-75178000D03*
X12704200Y-75178000D03*
X10164200Y-77718000D03*
X12704200Y-77718000D03*
D15*
X71124199Y-31997999D03*
D16*
X73664200Y-31998000D03*
X71124200Y-34538000D03*
X73664200Y-34538000D03*
X71124200Y-37078000D03*
X73664200Y-37078000D03*
X71124200Y-39618000D03*
X73664200Y-39618000D03*
X71124200Y-42158000D03*
X73664200Y-42158000D03*
X71124200Y-44698000D03*
X73664200Y-44698000D03*
X71124200Y-47238000D03*
X73664200Y-47238000D03*
X71124200Y-49778000D03*
X73664200Y-49778000D03*
X71124200Y-52318000D03*
X73664200Y-52318000D03*
X71124200Y-54858000D03*
X73664200Y-54858000D03*
X71124200Y-57398000D03*
X73664200Y-57398000D03*
X71124200Y-59938000D03*
X73664200Y-59938000D03*
X71124200Y-62478000D03*
X73664200Y-62478000D03*
X71124200Y-65018000D03*
X73664200Y-65018000D03*
X71124200Y-67558000D03*
X73664200Y-67558000D03*
X71124200Y-70098000D03*
X73664200Y-70098000D03*
X71124200Y-72638000D03*
X73664200Y-72638000D03*
X71124200Y-75178000D03*
X73664200Y-75178000D03*
X71124200Y-77718000D03*
X73664200Y-77718000D03*
%TD*%
D11*
%TO.C,R3*%
X70342000Y-101573000D03*
D12*
X70341999Y-111732999D03*
%TD*%
D11*
%TO.C,R2*%
X66689000Y-88809000D03*
D12*
X66688999Y-98968999D03*
%TD*%
D13*
%TO.C,REF\u002A\u002A*%
X84000000Y-116000000D03*
%TD*%
D17*
%TO.C,BZ1*%
X52502999Y-54609999D03*
D11*
X59003000Y-54610000D03*
%TD*%
D18*
%TO.C,D3*%
X75040999Y-101445999D03*
D19*
X75040999Y-111605999D03*
%TD*%
D20*
%TO.C,D4*%
X9138999Y-103183999D03*
D21*
X9139000Y-100644000D03*
%TD*%
D13*
%TO.C,REF\u002A\u002A*%
X4000000Y-116000000D03*
%TD*%
D11*
%TO.C,R17*%
X53975000Y-37465000D03*
D12*
X64134999Y-37464999D03*
%TD*%
D11*
%TO.C,R9*%
X60309000Y-92429000D03*
D12*
X60308999Y-102588999D03*
%TD*%
D11*
%TO.C,R18*%
X53594000Y-45593000D03*
D12*
X63753999Y-45592999D03*
%TD*%
D11*
%TO.C,R5*%
X8389000Y-87279000D03*
D12*
X8388999Y-97438999D03*
%TD*%
D13*
%TO.C,REF\u002A\u002A*%
X84000000Y-4000000D03*
%TD*%
D11*
%TO.C,R10*%
X56489000Y-102639000D03*
D12*
X56488999Y-92478999D03*
%TD*%
D13*
%TO.C,REF\u002A\u002A*%
X84000000Y-40000000D03*
%TD*%
D21*
%TO.C,U3*%
X60690000Y-106780000D03*
X58150000Y-106780000D03*
X55610000Y-106780000D03*
X53070000Y-106780000D03*
X50530000Y-106780000D03*
X47990000Y-106780000D03*
X45450000Y-106780000D03*
X42910000Y-106780000D03*
X40370000Y-106780000D03*
X41640000Y-89000000D03*
X44180000Y-89000000D03*
X46720000Y-89000000D03*
X49260000Y-89000000D03*
X51800000Y-89000000D03*
X54340000Y-89000000D03*
X56880000Y-89000000D03*
X59420000Y-89000000D03*
%TD*%
D22*
%TO.C,J5*%
X81700000Y-22900000D03*
D23*
X81699999Y-25399999D03*
X81699999Y-27899999D03*
X81699999Y-30399999D03*
%TD*%
D24*
%TO.C,J1*%
X81700000Y-13081000D03*
D25*
X81699999Y-15580999D03*
%TD*%
D26*
%TO.C,J3*%
X58491000Y-115624000D03*
D27*
X55990999Y-115623999D03*
X53490999Y-115623999D03*
X50990999Y-115623999D03*
X48490999Y-115623999D03*
X45990999Y-115623999D03*
X43490999Y-115623999D03*
X40990999Y-115623999D03*
%TD*%
D11*
%TO.C,R13*%
X29389000Y-27089000D03*
D12*
X29388999Y-16928999D03*
%TD*%
D28*
%TO.C,F1*%
X60848000Y-14605000D03*
X72248000Y-14605000D03*
%TD*%
D29*
%TO.C,J8*%
X22463000Y-115624000D03*
D30*
X19962999Y-115623999D03*
%TD*%
D31*
%TO.C,J6*%
X38628000Y-5761000D03*
D30*
X41127999Y-5760999D03*
%TD*%
D32*
%TO.C,D2*%
X59079999Y-5999999D03*
D33*
X74319999Y-5999999D03*
%TD*%
D11*
%TO.C,R14*%
X25239000Y-26989000D03*
D12*
X25238999Y-16828999D03*
%TD*%
D11*
%TO.C,R8*%
X33839000Y-27139000D03*
D12*
X33838999Y-16978999D03*
%TD*%
D17*
%TO.C,U4*%
X37275999Y-53298599D03*
D12*
X37275999Y-50758599D03*
X37275999Y-48218599D03*
X37275999Y-45678599D03*
X44895999Y-45678599D03*
X44895999Y-48218599D03*
X44895999Y-50758599D03*
X44895999Y-53298599D03*
%TD*%
D34*
%TO.C,Q3*%
X30987999Y-13588999D03*
D35*
X28448000Y-13589000D03*
X25908000Y-13589000D03*
%TD*%
D29*
%TO.C,J9*%
X32643000Y-115624000D03*
D30*
X30142999Y-115623999D03*
%TD*%
D22*
%TO.C,J7*%
X81700000Y-62865000D03*
D23*
X81699999Y-65364999D03*
X81699999Y-67864999D03*
X81699999Y-70364999D03*
X81699999Y-72864999D03*
X81699999Y-75364999D03*
%TD*%
D36*
%TO.C,C1*%
X51053999Y-13416676D03*
D28*
X51054000Y-8416677D03*
%TD*%
D31*
%TO.C,J4*%
X15347000Y-5761000D03*
D30*
X17846999Y-5760999D03*
%TD*%
D11*
%TO.C,C3*%
X37231000Y-82042000D03*
X42231000Y-82042000D03*
%TD*%
%TO.C,C2*%
X47789000Y-110259000D03*
X52789000Y-110259000D03*
%TD*%
D34*
%TO.C,Q2*%
X16382999Y-13588999D03*
D35*
X18923000Y-13589000D03*
X21463000Y-13589000D03*
%TD*%
D17*
%TO.C,U2*%
X37000799Y-75106799D03*
D12*
X37000799Y-72566799D03*
X37000799Y-70026799D03*
X37000799Y-67486799D03*
X37000799Y-64946799D03*
X37000799Y-62406799D03*
X37000799Y-59866799D03*
X44620799Y-59866799D03*
X44620799Y-62406799D03*
X44620799Y-64946799D03*
X44620799Y-67486799D03*
X44620799Y-70026799D03*
X44620799Y-72566799D03*
X44620799Y-75106799D03*
%TD*%
D37*
%TO.C,J2*%
X25888000Y-5680000D03*
D27*
X28387999Y-5679999D03*
X30887999Y-5679999D03*
%TD*%
M02*
