%TF.GenerationSoftware,KiCad,Pcbnew,(7.0.0-0)*%
%TF.CreationDate,2023-07-19T10:46:02+09:00*%
%TF.ProjectId,Spct,53706374-2e6b-4696-9361-645f70636258,rev?*%
%TF.SameCoordinates,PX2540608PY1ee3f58*%
%TF.FileFunction,Legend,Top*%
%TF.FilePolarity,Positive*%
%FSLAX46Y46*%
G04 Gerber Fmt 4.6, Leading zero omitted, Abs format (unit mm)*
G04 Created by KiCad (PCBNEW (7.0.0-0)) date 2023-07-19 10:46:02*
%MOMM*%
%LPD*%
G01*
G04 APERTURE LIST*
%ADD10C,0.200000*%
%ADD11C,0.400000*%
%ADD12C,0.100000*%
%ADD13C,0.150000*%
%ADD14C,0.120000*%
%ADD15C,0.127000*%
G04 APERTURE END LIST*
D10*
X79199028Y-12354257D02*
X77699028Y-12854257D01*
X77699028Y-12854257D02*
X79199028Y-13354257D01*
X77699028Y-13854256D02*
X79199028Y-13854256D01*
X77699028Y-14568542D02*
X79199028Y-14568542D01*
X79199028Y-14568542D02*
X77699028Y-15425685D01*
X77699028Y-15425685D02*
X79199028Y-15425685D01*
D11*
X82413076Y-82340752D02*
X82317838Y-82626466D01*
X82317838Y-82626466D02*
X82317838Y-83102657D01*
X82317838Y-83102657D02*
X82413076Y-83293133D01*
X82413076Y-83293133D02*
X82508314Y-83388371D01*
X82508314Y-83388371D02*
X82698790Y-83483609D01*
X82698790Y-83483609D02*
X82889266Y-83483609D01*
X82889266Y-83483609D02*
X83079742Y-83388371D01*
X83079742Y-83388371D02*
X83174980Y-83293133D01*
X83174980Y-83293133D02*
X83270219Y-83102657D01*
X83270219Y-83102657D02*
X83365457Y-82721704D01*
X83365457Y-82721704D02*
X83460695Y-82531228D01*
X83460695Y-82531228D02*
X83555933Y-82435990D01*
X83555933Y-82435990D02*
X83746409Y-82340752D01*
X83746409Y-82340752D02*
X83936885Y-82340752D01*
X83936885Y-82340752D02*
X84127361Y-82435990D01*
X84127361Y-82435990D02*
X84222600Y-82531228D01*
X84222600Y-82531228D02*
X84317838Y-82721704D01*
X84317838Y-82721704D02*
X84317838Y-83197895D01*
X84317838Y-83197895D02*
X84222600Y-83483609D01*
X83651171Y-84340752D02*
X81651171Y-84340752D01*
X83555933Y-84340752D02*
X83651171Y-84531228D01*
X83651171Y-84531228D02*
X83651171Y-84912181D01*
X83651171Y-84912181D02*
X83555933Y-85102657D01*
X83555933Y-85102657D02*
X83460695Y-85197895D01*
X83460695Y-85197895D02*
X83270219Y-85293133D01*
X83270219Y-85293133D02*
X82698790Y-85293133D01*
X82698790Y-85293133D02*
X82508314Y-85197895D01*
X82508314Y-85197895D02*
X82413076Y-85102657D01*
X82413076Y-85102657D02*
X82317838Y-84912181D01*
X82317838Y-84912181D02*
X82317838Y-84531228D01*
X82317838Y-84531228D02*
X82413076Y-84340752D01*
X82317838Y-86150276D02*
X83651171Y-86150276D01*
X84317838Y-86150276D02*
X84222600Y-86055038D01*
X84222600Y-86055038D02*
X84127361Y-86150276D01*
X84127361Y-86150276D02*
X84222600Y-86245514D01*
X84222600Y-86245514D02*
X84317838Y-86150276D01*
X84317838Y-86150276D02*
X84127361Y-86150276D01*
X83651171Y-87102657D02*
X82317838Y-87102657D01*
X83460695Y-87102657D02*
X83555933Y-87197895D01*
X83555933Y-87197895D02*
X83651171Y-87388371D01*
X83651171Y-87388371D02*
X83651171Y-87674086D01*
X83651171Y-87674086D02*
X83555933Y-87864562D01*
X83555933Y-87864562D02*
X83365457Y-87959800D01*
X83365457Y-87959800D02*
X82317838Y-87959800D01*
X82127361Y-88435991D02*
X82127361Y-89959800D01*
X82508314Y-91578848D02*
X82413076Y-91483610D01*
X82413076Y-91483610D02*
X82317838Y-91197896D01*
X82317838Y-91197896D02*
X82317838Y-91007420D01*
X82317838Y-91007420D02*
X82413076Y-90721705D01*
X82413076Y-90721705D02*
X82603552Y-90531229D01*
X82603552Y-90531229D02*
X82794028Y-90435991D01*
X82794028Y-90435991D02*
X83174980Y-90340753D01*
X83174980Y-90340753D02*
X83460695Y-90340753D01*
X83460695Y-90340753D02*
X83841647Y-90435991D01*
X83841647Y-90435991D02*
X84032123Y-90531229D01*
X84032123Y-90531229D02*
X84222600Y-90721705D01*
X84222600Y-90721705D02*
X84317838Y-91007420D01*
X84317838Y-91007420D02*
X84317838Y-91197896D01*
X84317838Y-91197896D02*
X84222600Y-91483610D01*
X84222600Y-91483610D02*
X84127361Y-91578848D01*
X82317838Y-92721705D02*
X82413076Y-92531229D01*
X82413076Y-92531229D02*
X82508314Y-92435991D01*
X82508314Y-92435991D02*
X82698790Y-92340753D01*
X82698790Y-92340753D02*
X83270219Y-92340753D01*
X83270219Y-92340753D02*
X83460695Y-92435991D01*
X83460695Y-92435991D02*
X83555933Y-92531229D01*
X83555933Y-92531229D02*
X83651171Y-92721705D01*
X83651171Y-92721705D02*
X83651171Y-93007420D01*
X83651171Y-93007420D02*
X83555933Y-93197896D01*
X83555933Y-93197896D02*
X83460695Y-93293134D01*
X83460695Y-93293134D02*
X83270219Y-93388372D01*
X83270219Y-93388372D02*
X82698790Y-93388372D01*
X82698790Y-93388372D02*
X82508314Y-93293134D01*
X82508314Y-93293134D02*
X82413076Y-93197896D01*
X82413076Y-93197896D02*
X82317838Y-93007420D01*
X82317838Y-93007420D02*
X82317838Y-92721705D01*
X82317838Y-95102658D02*
X83365457Y-95102658D01*
X83365457Y-95102658D02*
X83555933Y-95007420D01*
X83555933Y-95007420D02*
X83651171Y-94816944D01*
X83651171Y-94816944D02*
X83651171Y-94435991D01*
X83651171Y-94435991D02*
X83555933Y-94245515D01*
X82413076Y-95102658D02*
X82317838Y-94912182D01*
X82317838Y-94912182D02*
X82317838Y-94435991D01*
X82317838Y-94435991D02*
X82413076Y-94245515D01*
X82413076Y-94245515D02*
X82603552Y-94150277D01*
X82603552Y-94150277D02*
X82794028Y-94150277D01*
X82794028Y-94150277D02*
X82984504Y-94245515D01*
X82984504Y-94245515D02*
X83079742Y-94435991D01*
X83079742Y-94435991D02*
X83079742Y-94912182D01*
X83079742Y-94912182D02*
X83174980Y-95102658D01*
X83651171Y-95769325D02*
X83651171Y-96531229D01*
X84317838Y-96055039D02*
X82603552Y-96055039D01*
X82603552Y-96055039D02*
X82413076Y-96150277D01*
X82413076Y-96150277D02*
X82317838Y-96340753D01*
X82317838Y-96340753D02*
X82317838Y-96531229D01*
X82413076Y-97959801D02*
X82317838Y-97769325D01*
X82317838Y-97769325D02*
X82317838Y-97388372D01*
X82317838Y-97388372D02*
X82413076Y-97197896D01*
X82413076Y-97197896D02*
X82603552Y-97102658D01*
X82603552Y-97102658D02*
X83365457Y-97102658D01*
X83365457Y-97102658D02*
X83555933Y-97197896D01*
X83555933Y-97197896D02*
X83651171Y-97388372D01*
X83651171Y-97388372D02*
X83651171Y-97769325D01*
X83651171Y-97769325D02*
X83555933Y-97959801D01*
X83555933Y-97959801D02*
X83365457Y-98055039D01*
X83365457Y-98055039D02*
X83174980Y-98055039D01*
X83174980Y-98055039D02*
X82984504Y-97102658D01*
X82317838Y-98912182D02*
X83651171Y-98912182D01*
X83270219Y-98912182D02*
X83460695Y-99007420D01*
X83460695Y-99007420D02*
X83555933Y-99102658D01*
X83555933Y-99102658D02*
X83651171Y-99293134D01*
X83651171Y-99293134D02*
X83651171Y-99483611D01*
X84317838Y-101064563D02*
X82317838Y-101731229D01*
X82317838Y-101731229D02*
X84317838Y-102397896D01*
X82317838Y-104112182D02*
X82317838Y-102969325D01*
X82317838Y-103540753D02*
X84317838Y-103540753D01*
X84317838Y-103540753D02*
X84032123Y-103350277D01*
X84032123Y-103350277D02*
X83841647Y-103159801D01*
X83841647Y-103159801D02*
X83746409Y-102969325D01*
X82508314Y-104969325D02*
X82413076Y-105064563D01*
X82413076Y-105064563D02*
X82317838Y-104969325D01*
X82317838Y-104969325D02*
X82413076Y-104874087D01*
X82413076Y-104874087D02*
X82508314Y-104969325D01*
X82508314Y-104969325D02*
X82317838Y-104969325D01*
X84127361Y-105826468D02*
X84222600Y-105921706D01*
X84222600Y-105921706D02*
X84317838Y-106112182D01*
X84317838Y-106112182D02*
X84317838Y-106588373D01*
X84317838Y-106588373D02*
X84222600Y-106778849D01*
X84222600Y-106778849D02*
X84127361Y-106874087D01*
X84127361Y-106874087D02*
X83936885Y-106969325D01*
X83936885Y-106969325D02*
X83746409Y-106969325D01*
X83746409Y-106969325D02*
X83460695Y-106874087D01*
X83460695Y-106874087D02*
X82317838Y-105731230D01*
X82317838Y-105731230D02*
X82317838Y-106969325D01*
X80887361Y-82340752D02*
X80982600Y-82435990D01*
X80982600Y-82435990D02*
X81077838Y-82626466D01*
X81077838Y-82626466D02*
X81077838Y-83102657D01*
X81077838Y-83102657D02*
X80982600Y-83293133D01*
X80982600Y-83293133D02*
X80887361Y-83388371D01*
X80887361Y-83388371D02*
X80696885Y-83483609D01*
X80696885Y-83483609D02*
X80506409Y-83483609D01*
X80506409Y-83483609D02*
X80220695Y-83388371D01*
X80220695Y-83388371D02*
X79077838Y-82245514D01*
X79077838Y-82245514D02*
X79077838Y-83483609D01*
X81077838Y-84150276D02*
X81077838Y-85388371D01*
X81077838Y-85388371D02*
X80315933Y-84721704D01*
X80315933Y-84721704D02*
X80315933Y-85007419D01*
X80315933Y-85007419D02*
X80220695Y-85197895D01*
X80220695Y-85197895D02*
X80125457Y-85293133D01*
X80125457Y-85293133D02*
X79934980Y-85388371D01*
X79934980Y-85388371D02*
X79458790Y-85388371D01*
X79458790Y-85388371D02*
X79268314Y-85293133D01*
X79268314Y-85293133D02*
X79173076Y-85197895D01*
X79173076Y-85197895D02*
X79077838Y-85007419D01*
X79077838Y-85007419D02*
X79077838Y-84435990D01*
X79077838Y-84435990D02*
X79173076Y-84245514D01*
X79173076Y-84245514D02*
X79268314Y-84150276D01*
X79268314Y-86245514D02*
X79173076Y-86340752D01*
X79173076Y-86340752D02*
X79077838Y-86245514D01*
X79077838Y-86245514D02*
X79173076Y-86150276D01*
X79173076Y-86150276D02*
X79268314Y-86245514D01*
X79268314Y-86245514D02*
X79077838Y-86245514D01*
X81077838Y-87578847D02*
X81077838Y-87769324D01*
X81077838Y-87769324D02*
X80982600Y-87959800D01*
X80982600Y-87959800D02*
X80887361Y-88055038D01*
X80887361Y-88055038D02*
X80696885Y-88150276D01*
X80696885Y-88150276D02*
X80315933Y-88245514D01*
X80315933Y-88245514D02*
X79839742Y-88245514D01*
X79839742Y-88245514D02*
X79458790Y-88150276D01*
X79458790Y-88150276D02*
X79268314Y-88055038D01*
X79268314Y-88055038D02*
X79173076Y-87959800D01*
X79173076Y-87959800D02*
X79077838Y-87769324D01*
X79077838Y-87769324D02*
X79077838Y-87578847D01*
X79077838Y-87578847D02*
X79173076Y-87388371D01*
X79173076Y-87388371D02*
X79268314Y-87293133D01*
X79268314Y-87293133D02*
X79458790Y-87197895D01*
X79458790Y-87197895D02*
X79839742Y-87102657D01*
X79839742Y-87102657D02*
X80315933Y-87102657D01*
X80315933Y-87102657D02*
X80696885Y-87197895D01*
X80696885Y-87197895D02*
X80887361Y-87293133D01*
X80887361Y-87293133D02*
X80982600Y-87388371D01*
X80982600Y-87388371D02*
X81077838Y-87578847D01*
X81077838Y-88912181D02*
X81077838Y-90245514D01*
X81077838Y-90245514D02*
X79077838Y-89388371D01*
X79268314Y-91007419D02*
X79173076Y-91102657D01*
X79173076Y-91102657D02*
X79077838Y-91007419D01*
X79077838Y-91007419D02*
X79173076Y-90912181D01*
X79173076Y-90912181D02*
X79268314Y-91007419D01*
X79268314Y-91007419D02*
X79077838Y-91007419D01*
X79077838Y-93007419D02*
X79077838Y-91864562D01*
X79077838Y-92435990D02*
X81077838Y-92435990D01*
X81077838Y-92435990D02*
X80792123Y-92245514D01*
X80792123Y-92245514D02*
X80601647Y-92055038D01*
X80601647Y-92055038D02*
X80506409Y-91864562D01*
X79077838Y-93959800D02*
X79077838Y-94340752D01*
X79077838Y-94340752D02*
X79173076Y-94531229D01*
X79173076Y-94531229D02*
X79268314Y-94626467D01*
X79268314Y-94626467D02*
X79554028Y-94816943D01*
X79554028Y-94816943D02*
X79934980Y-94912181D01*
X79934980Y-94912181D02*
X80696885Y-94912181D01*
X80696885Y-94912181D02*
X80887361Y-94816943D01*
X80887361Y-94816943D02*
X80982600Y-94721705D01*
X80982600Y-94721705D02*
X81077838Y-94531229D01*
X81077838Y-94531229D02*
X81077838Y-94150276D01*
X81077838Y-94150276D02*
X80982600Y-93959800D01*
X80982600Y-93959800D02*
X80887361Y-93864562D01*
X80887361Y-93864562D02*
X80696885Y-93769324D01*
X80696885Y-93769324D02*
X80220695Y-93769324D01*
X80220695Y-93769324D02*
X80030219Y-93864562D01*
X80030219Y-93864562D02*
X79934980Y-93959800D01*
X79934980Y-93959800D02*
X79839742Y-94150276D01*
X79839742Y-94150276D02*
X79839742Y-94531229D01*
X79839742Y-94531229D02*
X79934980Y-94721705D01*
X79934980Y-94721705D02*
X80030219Y-94816943D01*
X80030219Y-94816943D02*
X80220695Y-94912181D01*
D10*
X78179942Y-60574542D02*
X78179942Y-61074542D01*
X77394228Y-61288828D02*
X77394228Y-60574542D01*
X77394228Y-60574542D02*
X78894228Y-60574542D01*
X78894228Y-60574542D02*
X78894228Y-61288828D01*
X77394228Y-61931685D02*
X78894228Y-61931685D01*
X78894228Y-61931685D02*
X77394228Y-62788828D01*
X77394228Y-62788828D02*
X78894228Y-62788828D01*
X77537085Y-64360257D02*
X77465657Y-64288829D01*
X77465657Y-64288829D02*
X77394228Y-64074543D01*
X77394228Y-64074543D02*
X77394228Y-63931686D01*
X77394228Y-63931686D02*
X77465657Y-63717400D01*
X77465657Y-63717400D02*
X77608514Y-63574543D01*
X77608514Y-63574543D02*
X77751371Y-63503114D01*
X77751371Y-63503114D02*
X78037085Y-63431686D01*
X78037085Y-63431686D02*
X78251371Y-63431686D01*
X78251371Y-63431686D02*
X78537085Y-63503114D01*
X78537085Y-63503114D02*
X78679942Y-63574543D01*
X78679942Y-63574543D02*
X78822800Y-63717400D01*
X78822800Y-63717400D02*
X78894228Y-63931686D01*
X78894228Y-63931686D02*
X78894228Y-64074543D01*
X78894228Y-64074543D02*
X78822800Y-64288829D01*
X78822800Y-64288829D02*
X78751371Y-64360257D01*
X78894228Y-65288829D02*
X78894228Y-65574543D01*
X78894228Y-65574543D02*
X78822800Y-65717400D01*
X78822800Y-65717400D02*
X78679942Y-65860257D01*
X78679942Y-65860257D02*
X78394228Y-65931686D01*
X78394228Y-65931686D02*
X77894228Y-65931686D01*
X77894228Y-65931686D02*
X77608514Y-65860257D01*
X77608514Y-65860257D02*
X77465657Y-65717400D01*
X77465657Y-65717400D02*
X77394228Y-65574543D01*
X77394228Y-65574543D02*
X77394228Y-65288829D01*
X77394228Y-65288829D02*
X77465657Y-65145972D01*
X77465657Y-65145972D02*
X77608514Y-65003114D01*
X77608514Y-65003114D02*
X77894228Y-64931686D01*
X77894228Y-64931686D02*
X78394228Y-64931686D01*
X78394228Y-64931686D02*
X78679942Y-65003114D01*
X78679942Y-65003114D02*
X78822800Y-65145972D01*
X78822800Y-65145972D02*
X78894228Y-65288829D01*
X77394228Y-66574543D02*
X78894228Y-66574543D01*
X78894228Y-66574543D02*
X78894228Y-66931686D01*
X78894228Y-66931686D02*
X78822800Y-67145972D01*
X78822800Y-67145972D02*
X78679942Y-67288829D01*
X78679942Y-67288829D02*
X78537085Y-67360258D01*
X78537085Y-67360258D02*
X78251371Y-67431686D01*
X78251371Y-67431686D02*
X78037085Y-67431686D01*
X78037085Y-67431686D02*
X77751371Y-67360258D01*
X77751371Y-67360258D02*
X77608514Y-67288829D01*
X77608514Y-67288829D02*
X77465657Y-67145972D01*
X77465657Y-67145972D02*
X77394228Y-66931686D01*
X77394228Y-66931686D02*
X77394228Y-66574543D01*
X78179942Y-68074543D02*
X78179942Y-68574543D01*
X77394228Y-68788829D02*
X77394228Y-68074543D01*
X77394228Y-68074543D02*
X78894228Y-68074543D01*
X78894228Y-68074543D02*
X78894228Y-68788829D01*
X77394228Y-70288829D02*
X78108514Y-69788829D01*
X77394228Y-69431686D02*
X78894228Y-69431686D01*
X78894228Y-69431686D02*
X78894228Y-70003115D01*
X78894228Y-70003115D02*
X78822800Y-70145972D01*
X78822800Y-70145972D02*
X78751371Y-70217401D01*
X78751371Y-70217401D02*
X78608514Y-70288829D01*
X78608514Y-70288829D02*
X78394228Y-70288829D01*
X78394228Y-70288829D02*
X78251371Y-70217401D01*
X78251371Y-70217401D02*
X78179942Y-70145972D01*
X78179942Y-70145972D02*
X78108514Y-70003115D01*
X78108514Y-70003115D02*
X78108514Y-69431686D01*
X14229742Y-111784857D02*
X14729742Y-111784857D01*
X14944028Y-112570571D02*
X14229742Y-112570571D01*
X14229742Y-112570571D02*
X14229742Y-111070571D01*
X14229742Y-111070571D02*
X14944028Y-111070571D01*
X15515457Y-112499142D02*
X15729743Y-112570571D01*
X15729743Y-112570571D02*
X16086885Y-112570571D01*
X16086885Y-112570571D02*
X16229743Y-112499142D01*
X16229743Y-112499142D02*
X16301171Y-112427714D01*
X16301171Y-112427714D02*
X16372600Y-112284857D01*
X16372600Y-112284857D02*
X16372600Y-112142000D01*
X16372600Y-112142000D02*
X16301171Y-111999142D01*
X16301171Y-111999142D02*
X16229743Y-111927714D01*
X16229743Y-111927714D02*
X16086885Y-111856285D01*
X16086885Y-111856285D02*
X15801171Y-111784857D01*
X15801171Y-111784857D02*
X15658314Y-111713428D01*
X15658314Y-111713428D02*
X15586885Y-111642000D01*
X15586885Y-111642000D02*
X15515457Y-111499142D01*
X15515457Y-111499142D02*
X15515457Y-111356285D01*
X15515457Y-111356285D02*
X15586885Y-111213428D01*
X15586885Y-111213428D02*
X15658314Y-111142000D01*
X15658314Y-111142000D02*
X15801171Y-111070571D01*
X15801171Y-111070571D02*
X16158314Y-111070571D01*
X16158314Y-111070571D02*
X16372600Y-111142000D01*
X17872599Y-112427714D02*
X17801171Y-112499142D01*
X17801171Y-112499142D02*
X17586885Y-112570571D01*
X17586885Y-112570571D02*
X17444028Y-112570571D01*
X17444028Y-112570571D02*
X17229742Y-112499142D01*
X17229742Y-112499142D02*
X17086885Y-112356285D01*
X17086885Y-112356285D02*
X17015456Y-112213428D01*
X17015456Y-112213428D02*
X16944028Y-111927714D01*
X16944028Y-111927714D02*
X16944028Y-111713428D01*
X16944028Y-111713428D02*
X17015456Y-111427714D01*
X17015456Y-111427714D02*
X17086885Y-111284857D01*
X17086885Y-111284857D02*
X17229742Y-111142000D01*
X17229742Y-111142000D02*
X17444028Y-111070571D01*
X17444028Y-111070571D02*
X17586885Y-111070571D01*
X17586885Y-111070571D02*
X17801171Y-111142000D01*
X17801171Y-111142000D02*
X17872599Y-111213428D01*
X19344028Y-112499142D02*
X19558314Y-112570571D01*
X19558314Y-112570571D02*
X19915456Y-112570571D01*
X19915456Y-112570571D02*
X20058314Y-112499142D01*
X20058314Y-112499142D02*
X20129742Y-112427714D01*
X20129742Y-112427714D02*
X20201171Y-112284857D01*
X20201171Y-112284857D02*
X20201171Y-112142000D01*
X20201171Y-112142000D02*
X20129742Y-111999142D01*
X20129742Y-111999142D02*
X20058314Y-111927714D01*
X20058314Y-111927714D02*
X19915456Y-111856285D01*
X19915456Y-111856285D02*
X19629742Y-111784857D01*
X19629742Y-111784857D02*
X19486885Y-111713428D01*
X19486885Y-111713428D02*
X19415456Y-111642000D01*
X19415456Y-111642000D02*
X19344028Y-111499142D01*
X19344028Y-111499142D02*
X19344028Y-111356285D01*
X19344028Y-111356285D02*
X19415456Y-111213428D01*
X19415456Y-111213428D02*
X19486885Y-111142000D01*
X19486885Y-111142000D02*
X19629742Y-111070571D01*
X19629742Y-111070571D02*
X19986885Y-111070571D01*
X19986885Y-111070571D02*
X20201171Y-111142000D01*
X20844027Y-112570571D02*
X20844027Y-111070571D01*
X20844027Y-111070571D02*
X21415456Y-111070571D01*
X21415456Y-111070571D02*
X21558313Y-111142000D01*
X21558313Y-111142000D02*
X21629742Y-111213428D01*
X21629742Y-111213428D02*
X21701170Y-111356285D01*
X21701170Y-111356285D02*
X21701170Y-111570571D01*
X21701170Y-111570571D02*
X21629742Y-111713428D01*
X21629742Y-111713428D02*
X21558313Y-111784857D01*
X21558313Y-111784857D02*
X21415456Y-111856285D01*
X21415456Y-111856285D02*
X20844027Y-111856285D01*
X22344027Y-111784857D02*
X22844027Y-111784857D01*
X23058313Y-112570571D02*
X22344027Y-112570571D01*
X22344027Y-112570571D02*
X22344027Y-111070571D01*
X22344027Y-111070571D02*
X23058313Y-111070571D01*
X23701170Y-111784857D02*
X24201170Y-111784857D01*
X24415456Y-112570571D02*
X23701170Y-112570571D01*
X23701170Y-112570571D02*
X23701170Y-111070571D01*
X23701170Y-111070571D02*
X24415456Y-111070571D01*
X25058313Y-112570571D02*
X25058313Y-111070571D01*
X25058313Y-111070571D02*
X25415456Y-111070571D01*
X25415456Y-111070571D02*
X25629742Y-111142000D01*
X25629742Y-111142000D02*
X25772599Y-111284857D01*
X25772599Y-111284857D02*
X25844028Y-111427714D01*
X25844028Y-111427714D02*
X25915456Y-111713428D01*
X25915456Y-111713428D02*
X25915456Y-111927714D01*
X25915456Y-111927714D02*
X25844028Y-112213428D01*
X25844028Y-112213428D02*
X25772599Y-112356285D01*
X25772599Y-112356285D02*
X25629742Y-112499142D01*
X25629742Y-112499142D02*
X25415456Y-112570571D01*
X25415456Y-112570571D02*
X25058313Y-112570571D01*
X54514142Y-112722971D02*
X54514142Y-111222971D01*
X54514142Y-111222971D02*
X55014142Y-112294400D01*
X55014142Y-112294400D02*
X55514142Y-111222971D01*
X55514142Y-111222971D02*
X55514142Y-112722971D01*
X56514143Y-111222971D02*
X56799857Y-111222971D01*
X56799857Y-111222971D02*
X56942714Y-111294400D01*
X56942714Y-111294400D02*
X57085571Y-111437257D01*
X57085571Y-111437257D02*
X57157000Y-111722971D01*
X57157000Y-111722971D02*
X57157000Y-112222971D01*
X57157000Y-112222971D02*
X57085571Y-112508685D01*
X57085571Y-112508685D02*
X56942714Y-112651542D01*
X56942714Y-112651542D02*
X56799857Y-112722971D01*
X56799857Y-112722971D02*
X56514143Y-112722971D01*
X56514143Y-112722971D02*
X56371286Y-112651542D01*
X56371286Y-112651542D02*
X56228428Y-112508685D01*
X56228428Y-112508685D02*
X56157000Y-112222971D01*
X56157000Y-112222971D02*
X56157000Y-111722971D01*
X56157000Y-111722971D02*
X56228428Y-111437257D01*
X56228428Y-111437257D02*
X56371286Y-111294400D01*
X56371286Y-111294400D02*
X56514143Y-111222971D01*
X57585572Y-111222971D02*
X58442715Y-111222971D01*
X58014143Y-112722971D02*
X58014143Y-111222971D01*
X59228429Y-111222971D02*
X59514143Y-111222971D01*
X59514143Y-111222971D02*
X59657000Y-111294400D01*
X59657000Y-111294400D02*
X59799857Y-111437257D01*
X59799857Y-111437257D02*
X59871286Y-111722971D01*
X59871286Y-111722971D02*
X59871286Y-112222971D01*
X59871286Y-112222971D02*
X59799857Y-112508685D01*
X59799857Y-112508685D02*
X59657000Y-112651542D01*
X59657000Y-112651542D02*
X59514143Y-112722971D01*
X59514143Y-112722971D02*
X59228429Y-112722971D01*
X59228429Y-112722971D02*
X59085572Y-112651542D01*
X59085572Y-112651542D02*
X58942714Y-112508685D01*
X58942714Y-112508685D02*
X58871286Y-112222971D01*
X58871286Y-112222971D02*
X58871286Y-111722971D01*
X58871286Y-111722971D02*
X58942714Y-111437257D01*
X58942714Y-111437257D02*
X59085572Y-111294400D01*
X59085572Y-111294400D02*
X59228429Y-111222971D01*
X61371286Y-112722971D02*
X60871286Y-112008685D01*
X60514143Y-112722971D02*
X60514143Y-111222971D01*
X60514143Y-111222971D02*
X61085572Y-111222971D01*
X61085572Y-111222971D02*
X61228429Y-111294400D01*
X61228429Y-111294400D02*
X61299858Y-111365828D01*
X61299858Y-111365828D02*
X61371286Y-111508685D01*
X61371286Y-111508685D02*
X61371286Y-111722971D01*
X61371286Y-111722971D02*
X61299858Y-111865828D01*
X61299858Y-111865828D02*
X61228429Y-111937257D01*
X61228429Y-111937257D02*
X61085572Y-112008685D01*
X61085572Y-112008685D02*
X60514143Y-112008685D01*
X27844142Y-111886457D02*
X28344142Y-111886457D01*
X28558428Y-112672171D02*
X27844142Y-112672171D01*
X27844142Y-112672171D02*
X27844142Y-111172171D01*
X27844142Y-111172171D02*
X28558428Y-111172171D01*
X29129857Y-112600742D02*
X29344143Y-112672171D01*
X29344143Y-112672171D02*
X29701285Y-112672171D01*
X29701285Y-112672171D02*
X29844143Y-112600742D01*
X29844143Y-112600742D02*
X29915571Y-112529314D01*
X29915571Y-112529314D02*
X29987000Y-112386457D01*
X29987000Y-112386457D02*
X29987000Y-112243600D01*
X29987000Y-112243600D02*
X29915571Y-112100742D01*
X29915571Y-112100742D02*
X29844143Y-112029314D01*
X29844143Y-112029314D02*
X29701285Y-111957885D01*
X29701285Y-111957885D02*
X29415571Y-111886457D01*
X29415571Y-111886457D02*
X29272714Y-111815028D01*
X29272714Y-111815028D02*
X29201285Y-111743600D01*
X29201285Y-111743600D02*
X29129857Y-111600742D01*
X29129857Y-111600742D02*
X29129857Y-111457885D01*
X29129857Y-111457885D02*
X29201285Y-111315028D01*
X29201285Y-111315028D02*
X29272714Y-111243600D01*
X29272714Y-111243600D02*
X29415571Y-111172171D01*
X29415571Y-111172171D02*
X29772714Y-111172171D01*
X29772714Y-111172171D02*
X29987000Y-111243600D01*
X31486999Y-112529314D02*
X31415571Y-112600742D01*
X31415571Y-112600742D02*
X31201285Y-112672171D01*
X31201285Y-112672171D02*
X31058428Y-112672171D01*
X31058428Y-112672171D02*
X30844142Y-112600742D01*
X30844142Y-112600742D02*
X30701285Y-112457885D01*
X30701285Y-112457885D02*
X30629856Y-112315028D01*
X30629856Y-112315028D02*
X30558428Y-112029314D01*
X30558428Y-112029314D02*
X30558428Y-111815028D01*
X30558428Y-111815028D02*
X30629856Y-111529314D01*
X30629856Y-111529314D02*
X30701285Y-111386457D01*
X30701285Y-111386457D02*
X30844142Y-111243600D01*
X30844142Y-111243600D02*
X31058428Y-111172171D01*
X31058428Y-111172171D02*
X31201285Y-111172171D01*
X31201285Y-111172171D02*
X31415571Y-111243600D01*
X31415571Y-111243600D02*
X31486999Y-111315028D01*
X33029856Y-112672171D02*
X33029856Y-111172171D01*
X33029856Y-111172171D02*
X33601285Y-111172171D01*
X33601285Y-111172171D02*
X33744142Y-111243600D01*
X33744142Y-111243600D02*
X33815571Y-111315028D01*
X33815571Y-111315028D02*
X33886999Y-111457885D01*
X33886999Y-111457885D02*
X33886999Y-111672171D01*
X33886999Y-111672171D02*
X33815571Y-111815028D01*
X33815571Y-111815028D02*
X33744142Y-111886457D01*
X33744142Y-111886457D02*
X33601285Y-111957885D01*
X33601285Y-111957885D02*
X33029856Y-111957885D01*
X34386999Y-111172171D02*
X34744142Y-112672171D01*
X34744142Y-112672171D02*
X35029856Y-111600742D01*
X35029856Y-111600742D02*
X35315571Y-112672171D01*
X35315571Y-112672171D02*
X35672714Y-111172171D01*
X77851428Y-23033342D02*
X79351428Y-23033342D01*
X79351428Y-23033342D02*
X79351428Y-23604771D01*
X79351428Y-23604771D02*
X79280000Y-23747628D01*
X79280000Y-23747628D02*
X79208571Y-23819057D01*
X79208571Y-23819057D02*
X79065714Y-23890485D01*
X79065714Y-23890485D02*
X78851428Y-23890485D01*
X78851428Y-23890485D02*
X78708571Y-23819057D01*
X78708571Y-23819057D02*
X78637142Y-23747628D01*
X78637142Y-23747628D02*
X78565714Y-23604771D01*
X78565714Y-23604771D02*
X78565714Y-23033342D01*
X79351428Y-24390485D02*
X77851428Y-24747628D01*
X77851428Y-24747628D02*
X78922857Y-25033342D01*
X78922857Y-25033342D02*
X77851428Y-25319057D01*
X77851428Y-25319057D02*
X79351428Y-25676200D01*
X77851428Y-27104771D02*
X78565714Y-26604771D01*
X77851428Y-26247628D02*
X79351428Y-26247628D01*
X79351428Y-26247628D02*
X79351428Y-26819057D01*
X79351428Y-26819057D02*
X79280000Y-26961914D01*
X79280000Y-26961914D02*
X79208571Y-27033343D01*
X79208571Y-27033343D02*
X79065714Y-27104771D01*
X79065714Y-27104771D02*
X78851428Y-27104771D01*
X78851428Y-27104771D02*
X78708571Y-27033343D01*
X78708571Y-27033343D02*
X78637142Y-26961914D01*
X78637142Y-26961914D02*
X78565714Y-26819057D01*
X78565714Y-26819057D02*
X78565714Y-26247628D01*
X77922857Y-28576200D02*
X77851428Y-28790486D01*
X77851428Y-28790486D02*
X77851428Y-29147628D01*
X77851428Y-29147628D02*
X77922857Y-29290486D01*
X77922857Y-29290486D02*
X77994285Y-29361914D01*
X77994285Y-29361914D02*
X78137142Y-29433343D01*
X78137142Y-29433343D02*
X78280000Y-29433343D01*
X78280000Y-29433343D02*
X78422857Y-29361914D01*
X78422857Y-29361914D02*
X78494285Y-29290486D01*
X78494285Y-29290486D02*
X78565714Y-29147628D01*
X78565714Y-29147628D02*
X78637142Y-28861914D01*
X78637142Y-28861914D02*
X78708571Y-28719057D01*
X78708571Y-28719057D02*
X78780000Y-28647628D01*
X78780000Y-28647628D02*
X78922857Y-28576200D01*
X78922857Y-28576200D02*
X79065714Y-28576200D01*
X79065714Y-28576200D02*
X79208571Y-28647628D01*
X79208571Y-28647628D02*
X79280000Y-28719057D01*
X79280000Y-28719057D02*
X79351428Y-28861914D01*
X79351428Y-28861914D02*
X79351428Y-29219057D01*
X79351428Y-29219057D02*
X79280000Y-29433343D01*
X79351428Y-29933342D02*
X77851428Y-30290485D01*
X77851428Y-30290485D02*
X78922857Y-30576199D01*
X78922857Y-30576199D02*
X77851428Y-30861914D01*
X77851428Y-30861914D02*
X79351428Y-31219057D01*
X14432942Y-8914857D02*
X14932942Y-8914857D01*
X15147228Y-9700571D02*
X14432942Y-9700571D01*
X14432942Y-9700571D02*
X14432942Y-8200571D01*
X14432942Y-8200571D02*
X15147228Y-8200571D01*
X15790085Y-9700571D02*
X15790085Y-8200571D01*
X15790085Y-8200571D02*
X16290085Y-9272000D01*
X16290085Y-9272000D02*
X16790085Y-8200571D01*
X16790085Y-8200571D02*
X16790085Y-9700571D01*
X17790086Y-8200571D02*
X18075800Y-8200571D01*
X18075800Y-8200571D02*
X18218657Y-8272000D01*
X18218657Y-8272000D02*
X18361514Y-8414857D01*
X18361514Y-8414857D02*
X18432943Y-8700571D01*
X18432943Y-8700571D02*
X18432943Y-9200571D01*
X18432943Y-9200571D02*
X18361514Y-9486285D01*
X18361514Y-9486285D02*
X18218657Y-9629142D01*
X18218657Y-9629142D02*
X18075800Y-9700571D01*
X18075800Y-9700571D02*
X17790086Y-9700571D01*
X17790086Y-9700571D02*
X17647229Y-9629142D01*
X17647229Y-9629142D02*
X17504371Y-9486285D01*
X17504371Y-9486285D02*
X17432943Y-9200571D01*
X17432943Y-9200571D02*
X17432943Y-8700571D01*
X17432943Y-8700571D02*
X17504371Y-8414857D01*
X17504371Y-8414857D02*
X17647229Y-8272000D01*
X17647229Y-8272000D02*
X17790086Y-8200571D01*
X28863228Y-9598971D02*
X28148942Y-9598971D01*
X28148942Y-9598971D02*
X28148942Y-8098971D01*
X29363228Y-9598971D02*
X29363228Y-8098971D01*
X30077514Y-9598971D02*
X30077514Y-8098971D01*
X30077514Y-8098971D02*
X30434657Y-8098971D01*
X30434657Y-8098971D02*
X30648943Y-8170400D01*
X30648943Y-8170400D02*
X30791800Y-8313257D01*
X30791800Y-8313257D02*
X30863229Y-8456114D01*
X30863229Y-8456114D02*
X30934657Y-8741828D01*
X30934657Y-8741828D02*
X30934657Y-8956114D01*
X30934657Y-8956114D02*
X30863229Y-9241828D01*
X30863229Y-9241828D02*
X30791800Y-9384685D01*
X30791800Y-9384685D02*
X30648943Y-9527542D01*
X30648943Y-9527542D02*
X30434657Y-9598971D01*
X30434657Y-9598971D02*
X30077514Y-9598971D01*
X37078657Y-8505371D02*
X37935800Y-8505371D01*
X37507228Y-10005371D02*
X37507228Y-8505371D01*
X38435799Y-9219657D02*
X38935799Y-9219657D01*
X39150085Y-10005371D02*
X38435799Y-10005371D01*
X38435799Y-10005371D02*
X38435799Y-8505371D01*
X38435799Y-8505371D02*
X39150085Y-8505371D01*
X39792942Y-10005371D02*
X39792942Y-8505371D01*
X39792942Y-8505371D02*
X40292942Y-9576800D01*
X40292942Y-9576800D02*
X40792942Y-8505371D01*
X40792942Y-8505371D02*
X40792942Y-10005371D01*
X41507228Y-10005371D02*
X41507228Y-8505371D01*
X41507228Y-8505371D02*
X42078657Y-8505371D01*
X42078657Y-8505371D02*
X42221514Y-8576800D01*
X42221514Y-8576800D02*
X42292943Y-8648228D01*
X42292943Y-8648228D02*
X42364371Y-8791085D01*
X42364371Y-8791085D02*
X42364371Y-9005371D01*
X42364371Y-9005371D02*
X42292943Y-9148228D01*
X42292943Y-9148228D02*
X42221514Y-9219657D01*
X42221514Y-9219657D02*
X42078657Y-9291085D01*
X42078657Y-9291085D02*
X41507228Y-9291085D01*
D12*
%TO.C,U5*%
X15206380Y-54770904D02*
X16015904Y-54770904D01*
X16015904Y-54770904D02*
X16111142Y-54723285D01*
X16111142Y-54723285D02*
X16158761Y-54675666D01*
X16158761Y-54675666D02*
X16206380Y-54580428D01*
X16206380Y-54580428D02*
X16206380Y-54389952D01*
X16206380Y-54389952D02*
X16158761Y-54294714D01*
X16158761Y-54294714D02*
X16111142Y-54247095D01*
X16111142Y-54247095D02*
X16015904Y-54199476D01*
X16015904Y-54199476D02*
X15206380Y-54199476D01*
X15206380Y-53247095D02*
X15206380Y-53723285D01*
X15206380Y-53723285D02*
X15682571Y-53770904D01*
X15682571Y-53770904D02*
X15634952Y-53723285D01*
X15634952Y-53723285D02*
X15587333Y-53628047D01*
X15587333Y-53628047D02*
X15587333Y-53389952D01*
X15587333Y-53389952D02*
X15634952Y-53294714D01*
X15634952Y-53294714D02*
X15682571Y-53247095D01*
X15682571Y-53247095D02*
X15777809Y-53199476D01*
X15777809Y-53199476D02*
X16015904Y-53199476D01*
X16015904Y-53199476D02*
X16111142Y-53247095D01*
X16111142Y-53247095D02*
X16158761Y-53294714D01*
X16158761Y-53294714D02*
X16206380Y-53389952D01*
X16206380Y-53389952D02*
X16206380Y-53628047D01*
X16206380Y-53628047D02*
X16158761Y-53723285D01*
X16158761Y-53723285D02*
X16111142Y-53770904D01*
D10*
X20792380Y-59207785D02*
X20792380Y-59017309D01*
X20792380Y-59017309D02*
X20744761Y-58922071D01*
X20744761Y-58922071D02*
X20697142Y-58874452D01*
X20697142Y-58874452D02*
X20554285Y-58779214D01*
X20554285Y-58779214D02*
X20363809Y-58731595D01*
X20363809Y-58731595D02*
X19982857Y-58731595D01*
X19982857Y-58731595D02*
X19887619Y-58779214D01*
X19887619Y-58779214D02*
X19840000Y-58826833D01*
X19840000Y-58826833D02*
X19792380Y-58922071D01*
X19792380Y-58922071D02*
X19792380Y-59112547D01*
X19792380Y-59112547D02*
X19840000Y-59207785D01*
X19840000Y-59207785D02*
X19887619Y-59255404D01*
X19887619Y-59255404D02*
X19982857Y-59303023D01*
X19982857Y-59303023D02*
X20220952Y-59303023D01*
X20220952Y-59303023D02*
X20316190Y-59255404D01*
X20316190Y-59255404D02*
X20363809Y-59207785D01*
X20363809Y-59207785D02*
X20411428Y-59112547D01*
X20411428Y-59112547D02*
X20411428Y-58922071D01*
X20411428Y-58922071D02*
X20363809Y-58826833D01*
X20363809Y-58826833D02*
X20316190Y-58779214D01*
X20316190Y-58779214D02*
X20220952Y-58731595D01*
X19792380Y-58445880D02*
X20792380Y-58112547D01*
X20792380Y-58112547D02*
X19792380Y-57779214D01*
D13*
%TO.C,R1*%
X51697333Y-27301380D02*
X51364000Y-26825190D01*
X51125905Y-27301380D02*
X51125905Y-26301380D01*
X51125905Y-26301380D02*
X51506857Y-26301380D01*
X51506857Y-26301380D02*
X51602095Y-26349000D01*
X51602095Y-26349000D02*
X51649714Y-26396619D01*
X51649714Y-26396619D02*
X51697333Y-26491857D01*
X51697333Y-26491857D02*
X51697333Y-26634714D01*
X51697333Y-26634714D02*
X51649714Y-26729952D01*
X51649714Y-26729952D02*
X51602095Y-26777571D01*
X51602095Y-26777571D02*
X51506857Y-26825190D01*
X51506857Y-26825190D02*
X51125905Y-26825190D01*
X52649714Y-27301380D02*
X52078286Y-27301380D01*
X52364000Y-27301380D02*
X52364000Y-26301380D01*
X52364000Y-26301380D02*
X52268762Y-26444238D01*
X52268762Y-26444238D02*
X52173524Y-26539476D01*
X52173524Y-26539476D02*
X52078286Y-26587095D01*
%TO.C,R7*%
X44331380Y-99650666D02*
X43855190Y-99983999D01*
X44331380Y-100222094D02*
X43331380Y-100222094D01*
X43331380Y-100222094D02*
X43331380Y-99841142D01*
X43331380Y-99841142D02*
X43379000Y-99745904D01*
X43379000Y-99745904D02*
X43426619Y-99698285D01*
X43426619Y-99698285D02*
X43521857Y-99650666D01*
X43521857Y-99650666D02*
X43664714Y-99650666D01*
X43664714Y-99650666D02*
X43759952Y-99698285D01*
X43759952Y-99698285D02*
X43807571Y-99745904D01*
X43807571Y-99745904D02*
X43855190Y-99841142D01*
X43855190Y-99841142D02*
X43855190Y-100222094D01*
X43331380Y-99317332D02*
X43331380Y-98650666D01*
X43331380Y-98650666D02*
X44331380Y-99079237D01*
%TO.C,R11*%
X19104380Y-100818857D02*
X18628190Y-101152190D01*
X19104380Y-101390285D02*
X18104380Y-101390285D01*
X18104380Y-101390285D02*
X18104380Y-101009333D01*
X18104380Y-101009333D02*
X18152000Y-100914095D01*
X18152000Y-100914095D02*
X18199619Y-100866476D01*
X18199619Y-100866476D02*
X18294857Y-100818857D01*
X18294857Y-100818857D02*
X18437714Y-100818857D01*
X18437714Y-100818857D02*
X18532952Y-100866476D01*
X18532952Y-100866476D02*
X18580571Y-100914095D01*
X18580571Y-100914095D02*
X18628190Y-101009333D01*
X18628190Y-101009333D02*
X18628190Y-101390285D01*
X19104380Y-99866476D02*
X19104380Y-100437904D01*
X19104380Y-100152190D02*
X18104380Y-100152190D01*
X18104380Y-100152190D02*
X18247238Y-100247428D01*
X18247238Y-100247428D02*
X18342476Y-100342666D01*
X18342476Y-100342666D02*
X18390095Y-100437904D01*
X19104380Y-98914095D02*
X19104380Y-99485523D01*
X19104380Y-99199809D02*
X18104380Y-99199809D01*
X18104380Y-99199809D02*
X18247238Y-99295047D01*
X18247238Y-99295047D02*
X18342476Y-99390285D01*
X18342476Y-99390285D02*
X18390095Y-99485523D01*
%TO.C,R6*%
X48831380Y-99500666D02*
X48355190Y-99833999D01*
X48831380Y-100072094D02*
X47831380Y-100072094D01*
X47831380Y-100072094D02*
X47831380Y-99691142D01*
X47831380Y-99691142D02*
X47879000Y-99595904D01*
X47879000Y-99595904D02*
X47926619Y-99548285D01*
X47926619Y-99548285D02*
X48021857Y-99500666D01*
X48021857Y-99500666D02*
X48164714Y-99500666D01*
X48164714Y-99500666D02*
X48259952Y-99548285D01*
X48259952Y-99548285D02*
X48307571Y-99595904D01*
X48307571Y-99595904D02*
X48355190Y-99691142D01*
X48355190Y-99691142D02*
X48355190Y-100072094D01*
X47831380Y-98643523D02*
X47831380Y-98833999D01*
X47831380Y-98833999D02*
X47879000Y-98929237D01*
X47879000Y-98929237D02*
X47926619Y-98976856D01*
X47926619Y-98976856D02*
X48069476Y-99072094D01*
X48069476Y-99072094D02*
X48259952Y-99119713D01*
X48259952Y-99119713D02*
X48640904Y-99119713D01*
X48640904Y-99119713D02*
X48736142Y-99072094D01*
X48736142Y-99072094D02*
X48783761Y-99024475D01*
X48783761Y-99024475D02*
X48831380Y-98929237D01*
X48831380Y-98929237D02*
X48831380Y-98738761D01*
X48831380Y-98738761D02*
X48783761Y-98643523D01*
X48783761Y-98643523D02*
X48736142Y-98595904D01*
X48736142Y-98595904D02*
X48640904Y-98548285D01*
X48640904Y-98548285D02*
X48402809Y-98548285D01*
X48402809Y-98548285D02*
X48307571Y-98595904D01*
X48307571Y-98595904D02*
X48259952Y-98643523D01*
X48259952Y-98643523D02*
X48212333Y-98738761D01*
X48212333Y-98738761D02*
X48212333Y-98929237D01*
X48212333Y-98929237D02*
X48259952Y-99024475D01*
X48259952Y-99024475D02*
X48307571Y-99072094D01*
X48307571Y-99072094D02*
X48402809Y-99119713D01*
%TO.C,R12*%
X58871142Y-31726380D02*
X58537809Y-31250190D01*
X58299714Y-31726380D02*
X58299714Y-30726380D01*
X58299714Y-30726380D02*
X58680666Y-30726380D01*
X58680666Y-30726380D02*
X58775904Y-30774000D01*
X58775904Y-30774000D02*
X58823523Y-30821619D01*
X58823523Y-30821619D02*
X58871142Y-30916857D01*
X58871142Y-30916857D02*
X58871142Y-31059714D01*
X58871142Y-31059714D02*
X58823523Y-31154952D01*
X58823523Y-31154952D02*
X58775904Y-31202571D01*
X58775904Y-31202571D02*
X58680666Y-31250190D01*
X58680666Y-31250190D02*
X58299714Y-31250190D01*
X59823523Y-31726380D02*
X59252095Y-31726380D01*
X59537809Y-31726380D02*
X59537809Y-30726380D01*
X59537809Y-30726380D02*
X59442571Y-30869238D01*
X59442571Y-30869238D02*
X59347333Y-30964476D01*
X59347333Y-30964476D02*
X59252095Y-31012095D01*
X60204476Y-30821619D02*
X60252095Y-30774000D01*
X60252095Y-30774000D02*
X60347333Y-30726380D01*
X60347333Y-30726380D02*
X60585428Y-30726380D01*
X60585428Y-30726380D02*
X60680666Y-30774000D01*
X60680666Y-30774000D02*
X60728285Y-30821619D01*
X60728285Y-30821619D02*
X60775904Y-30916857D01*
X60775904Y-30916857D02*
X60775904Y-31012095D01*
X60775904Y-31012095D02*
X60728285Y-31154952D01*
X60728285Y-31154952D02*
X60156857Y-31726380D01*
X60156857Y-31726380D02*
X60775904Y-31726380D01*
%TO.C,R4*%
X65006380Y-109175666D02*
X64530190Y-109508999D01*
X65006380Y-109747094D02*
X64006380Y-109747094D01*
X64006380Y-109747094D02*
X64006380Y-109366142D01*
X64006380Y-109366142D02*
X64054000Y-109270904D01*
X64054000Y-109270904D02*
X64101619Y-109223285D01*
X64101619Y-109223285D02*
X64196857Y-109175666D01*
X64196857Y-109175666D02*
X64339714Y-109175666D01*
X64339714Y-109175666D02*
X64434952Y-109223285D01*
X64434952Y-109223285D02*
X64482571Y-109270904D01*
X64482571Y-109270904D02*
X64530190Y-109366142D01*
X64530190Y-109366142D02*
X64530190Y-109747094D01*
X64339714Y-108318523D02*
X65006380Y-108318523D01*
X63958761Y-108556618D02*
X64673047Y-108794713D01*
X64673047Y-108794713D02*
X64673047Y-108175666D01*
%TO.C,R16*%
X58321142Y-39926380D02*
X57987809Y-39450190D01*
X57749714Y-39926380D02*
X57749714Y-38926380D01*
X57749714Y-38926380D02*
X58130666Y-38926380D01*
X58130666Y-38926380D02*
X58225904Y-38974000D01*
X58225904Y-38974000D02*
X58273523Y-39021619D01*
X58273523Y-39021619D02*
X58321142Y-39116857D01*
X58321142Y-39116857D02*
X58321142Y-39259714D01*
X58321142Y-39259714D02*
X58273523Y-39354952D01*
X58273523Y-39354952D02*
X58225904Y-39402571D01*
X58225904Y-39402571D02*
X58130666Y-39450190D01*
X58130666Y-39450190D02*
X57749714Y-39450190D01*
X59273523Y-39926380D02*
X58702095Y-39926380D01*
X58987809Y-39926380D02*
X58987809Y-38926380D01*
X58987809Y-38926380D02*
X58892571Y-39069238D01*
X58892571Y-39069238D02*
X58797333Y-39164476D01*
X58797333Y-39164476D02*
X58702095Y-39212095D01*
X60130666Y-38926380D02*
X59940190Y-38926380D01*
X59940190Y-38926380D02*
X59844952Y-38974000D01*
X59844952Y-38974000D02*
X59797333Y-39021619D01*
X59797333Y-39021619D02*
X59702095Y-39164476D01*
X59702095Y-39164476D02*
X59654476Y-39354952D01*
X59654476Y-39354952D02*
X59654476Y-39735904D01*
X59654476Y-39735904D02*
X59702095Y-39831142D01*
X59702095Y-39831142D02*
X59749714Y-39878761D01*
X59749714Y-39878761D02*
X59844952Y-39926380D01*
X59844952Y-39926380D02*
X60035428Y-39926380D01*
X60035428Y-39926380D02*
X60130666Y-39878761D01*
X60130666Y-39878761D02*
X60178285Y-39831142D01*
X60178285Y-39831142D02*
X60225904Y-39735904D01*
X60225904Y-39735904D02*
X60225904Y-39497809D01*
X60225904Y-39497809D02*
X60178285Y-39402571D01*
X60178285Y-39402571D02*
X60130666Y-39354952D01*
X60130666Y-39354952D02*
X60035428Y-39307333D01*
X60035428Y-39307333D02*
X59844952Y-39307333D01*
X59844952Y-39307333D02*
X59749714Y-39354952D01*
X59749714Y-39354952D02*
X59702095Y-39402571D01*
X59702095Y-39402571D02*
X59654476Y-39497809D01*
%TO.C,U1*%
X9327295Y1759620D02*
X9327295Y950096D01*
X9327295Y950096D02*
X9374914Y854858D01*
X9374914Y854858D02*
X9422533Y807239D01*
X9422533Y807239D02*
X9517771Y759620D01*
X9517771Y759620D02*
X9708247Y759620D01*
X9708247Y759620D02*
X9803485Y807239D01*
X9803485Y807239D02*
X9851104Y854858D01*
X9851104Y854858D02*
X9898723Y950096D01*
X9898723Y950096D02*
X9898723Y1759620D01*
X10898723Y759620D02*
X10327295Y759620D01*
X10613009Y759620D02*
X10613009Y1759620D01*
X10613009Y1759620D02*
X10517771Y1616762D01*
X10517771Y1616762D02*
X10422533Y1521524D01*
X10422533Y1521524D02*
X10327295Y1473905D01*
%TO.C,R3*%
X70656380Y-106725666D02*
X70180190Y-107058999D01*
X70656380Y-107297094D02*
X69656380Y-107297094D01*
X69656380Y-107297094D02*
X69656380Y-106916142D01*
X69656380Y-106916142D02*
X69704000Y-106820904D01*
X69704000Y-106820904D02*
X69751619Y-106773285D01*
X69751619Y-106773285D02*
X69846857Y-106725666D01*
X69846857Y-106725666D02*
X69989714Y-106725666D01*
X69989714Y-106725666D02*
X70084952Y-106773285D01*
X70084952Y-106773285D02*
X70132571Y-106820904D01*
X70132571Y-106820904D02*
X70180190Y-106916142D01*
X70180190Y-106916142D02*
X70180190Y-107297094D01*
X69656380Y-106392332D02*
X69656380Y-105773285D01*
X69656380Y-105773285D02*
X70037333Y-106106618D01*
X70037333Y-106106618D02*
X70037333Y-105963761D01*
X70037333Y-105963761D02*
X70084952Y-105868523D01*
X70084952Y-105868523D02*
X70132571Y-105820904D01*
X70132571Y-105820904D02*
X70227809Y-105773285D01*
X70227809Y-105773285D02*
X70465904Y-105773285D01*
X70465904Y-105773285D02*
X70561142Y-105820904D01*
X70561142Y-105820904D02*
X70608761Y-105868523D01*
X70608761Y-105868523D02*
X70656380Y-105963761D01*
X70656380Y-105963761D02*
X70656380Y-106249475D01*
X70656380Y-106249475D02*
X70608761Y-106344713D01*
X70608761Y-106344713D02*
X70561142Y-106392332D01*
%TO.C,R2*%
X69426380Y-94055666D02*
X68950190Y-94388999D01*
X69426380Y-94627094D02*
X68426380Y-94627094D01*
X68426380Y-94627094D02*
X68426380Y-94246142D01*
X68426380Y-94246142D02*
X68474000Y-94150904D01*
X68474000Y-94150904D02*
X68521619Y-94103285D01*
X68521619Y-94103285D02*
X68616857Y-94055666D01*
X68616857Y-94055666D02*
X68759714Y-94055666D01*
X68759714Y-94055666D02*
X68854952Y-94103285D01*
X68854952Y-94103285D02*
X68902571Y-94150904D01*
X68902571Y-94150904D02*
X68950190Y-94246142D01*
X68950190Y-94246142D02*
X68950190Y-94627094D01*
X68521619Y-93674713D02*
X68474000Y-93627094D01*
X68474000Y-93627094D02*
X68426380Y-93531856D01*
X68426380Y-93531856D02*
X68426380Y-93293761D01*
X68426380Y-93293761D02*
X68474000Y-93198523D01*
X68474000Y-93198523D02*
X68521619Y-93150904D01*
X68521619Y-93150904D02*
X68616857Y-93103285D01*
X68616857Y-93103285D02*
X68712095Y-93103285D01*
X68712095Y-93103285D02*
X68854952Y-93150904D01*
X68854952Y-93150904D02*
X69426380Y-93722332D01*
X69426380Y-93722332D02*
X69426380Y-93103285D01*
%TO.C,BZ1*%
X60794447Y-49494571D02*
X60937304Y-49542190D01*
X60937304Y-49542190D02*
X60984923Y-49589809D01*
X60984923Y-49589809D02*
X61032542Y-49685047D01*
X61032542Y-49685047D02*
X61032542Y-49827904D01*
X61032542Y-49827904D02*
X60984923Y-49923142D01*
X60984923Y-49923142D02*
X60937304Y-49970761D01*
X60937304Y-49970761D02*
X60842066Y-50018380D01*
X60842066Y-50018380D02*
X60461114Y-50018380D01*
X60461114Y-50018380D02*
X60461114Y-49018380D01*
X60461114Y-49018380D02*
X60794447Y-49018380D01*
X60794447Y-49018380D02*
X60889685Y-49066000D01*
X60889685Y-49066000D02*
X60937304Y-49113619D01*
X60937304Y-49113619D02*
X60984923Y-49208857D01*
X60984923Y-49208857D02*
X60984923Y-49304095D01*
X60984923Y-49304095D02*
X60937304Y-49399333D01*
X60937304Y-49399333D02*
X60889685Y-49446952D01*
X60889685Y-49446952D02*
X60794447Y-49494571D01*
X60794447Y-49494571D02*
X60461114Y-49494571D01*
X61365876Y-49018380D02*
X62032542Y-49018380D01*
X62032542Y-49018380D02*
X61365876Y-50018380D01*
X61365876Y-50018380D02*
X62032542Y-50018380D01*
X62937304Y-50018380D02*
X62365876Y-50018380D01*
X62651590Y-50018380D02*
X62651590Y-49018380D01*
X62651590Y-49018380D02*
X62556352Y-49161238D01*
X62556352Y-49161238D02*
X62461114Y-49256476D01*
X62461114Y-49256476D02*
X62365876Y-49304095D01*
X52122048Y-52796428D02*
X52883953Y-52796428D01*
X52503000Y-53177380D02*
X52503000Y-52415476D01*
%TO.C,D3*%
X78606380Y-110697094D02*
X77606380Y-110697094D01*
X77606380Y-110697094D02*
X77606380Y-110458999D01*
X77606380Y-110458999D02*
X77654000Y-110316142D01*
X77654000Y-110316142D02*
X77749238Y-110220904D01*
X77749238Y-110220904D02*
X77844476Y-110173285D01*
X77844476Y-110173285D02*
X78034952Y-110125666D01*
X78034952Y-110125666D02*
X78177809Y-110125666D01*
X78177809Y-110125666D02*
X78368285Y-110173285D01*
X78368285Y-110173285D02*
X78463523Y-110220904D01*
X78463523Y-110220904D02*
X78558761Y-110316142D01*
X78558761Y-110316142D02*
X78606380Y-110458999D01*
X78606380Y-110458999D02*
X78606380Y-110697094D01*
X77606380Y-109792332D02*
X77606380Y-109173285D01*
X77606380Y-109173285D02*
X77987333Y-109506618D01*
X77987333Y-109506618D02*
X77987333Y-109363761D01*
X77987333Y-109363761D02*
X78034952Y-109268523D01*
X78034952Y-109268523D02*
X78082571Y-109220904D01*
X78082571Y-109220904D02*
X78177809Y-109173285D01*
X78177809Y-109173285D02*
X78415904Y-109173285D01*
X78415904Y-109173285D02*
X78511142Y-109220904D01*
X78511142Y-109220904D02*
X78558761Y-109268523D01*
X78558761Y-109268523D02*
X78606380Y-109363761D01*
X78606380Y-109363761D02*
X78606380Y-109649475D01*
X78606380Y-109649475D02*
X78558761Y-109744713D01*
X78558761Y-109744713D02*
X78511142Y-109792332D01*
X77808380Y-101707904D02*
X76808380Y-101707904D01*
X77808380Y-101136476D02*
X77236952Y-101565047D01*
X76808380Y-101136476D02*
X77379809Y-101707904D01*
%TO.C,D4*%
X6546380Y-102652094D02*
X5546380Y-102652094D01*
X5546380Y-102652094D02*
X5546380Y-102413999D01*
X5546380Y-102413999D02*
X5594000Y-102271142D01*
X5594000Y-102271142D02*
X5689238Y-102175904D01*
X5689238Y-102175904D02*
X5784476Y-102128285D01*
X5784476Y-102128285D02*
X5974952Y-102080666D01*
X5974952Y-102080666D02*
X6117809Y-102080666D01*
X6117809Y-102080666D02*
X6308285Y-102128285D01*
X6308285Y-102128285D02*
X6403523Y-102175904D01*
X6403523Y-102175904D02*
X6498761Y-102271142D01*
X6498761Y-102271142D02*
X6546380Y-102413999D01*
X6546380Y-102413999D02*
X6546380Y-102652094D01*
X5879714Y-101223523D02*
X6546380Y-101223523D01*
X5498761Y-101461618D02*
X6213047Y-101699713D01*
X6213047Y-101699713D02*
X6213047Y-101080666D01*
%TO.C,R17*%
X58621142Y-35951380D02*
X58287809Y-35475190D01*
X58049714Y-35951380D02*
X58049714Y-34951380D01*
X58049714Y-34951380D02*
X58430666Y-34951380D01*
X58430666Y-34951380D02*
X58525904Y-34999000D01*
X58525904Y-34999000D02*
X58573523Y-35046619D01*
X58573523Y-35046619D02*
X58621142Y-35141857D01*
X58621142Y-35141857D02*
X58621142Y-35284714D01*
X58621142Y-35284714D02*
X58573523Y-35379952D01*
X58573523Y-35379952D02*
X58525904Y-35427571D01*
X58525904Y-35427571D02*
X58430666Y-35475190D01*
X58430666Y-35475190D02*
X58049714Y-35475190D01*
X59573523Y-35951380D02*
X59002095Y-35951380D01*
X59287809Y-35951380D02*
X59287809Y-34951380D01*
X59287809Y-34951380D02*
X59192571Y-35094238D01*
X59192571Y-35094238D02*
X59097333Y-35189476D01*
X59097333Y-35189476D02*
X59002095Y-35237095D01*
X59906857Y-34951380D02*
X60573523Y-34951380D01*
X60573523Y-34951380D02*
X60144952Y-35951380D01*
%TO.C,R9*%
X63046380Y-99650666D02*
X62570190Y-99983999D01*
X63046380Y-100222094D02*
X62046380Y-100222094D01*
X62046380Y-100222094D02*
X62046380Y-99841142D01*
X62046380Y-99841142D02*
X62094000Y-99745904D01*
X62094000Y-99745904D02*
X62141619Y-99698285D01*
X62141619Y-99698285D02*
X62236857Y-99650666D01*
X62236857Y-99650666D02*
X62379714Y-99650666D01*
X62379714Y-99650666D02*
X62474952Y-99698285D01*
X62474952Y-99698285D02*
X62522571Y-99745904D01*
X62522571Y-99745904D02*
X62570190Y-99841142D01*
X62570190Y-99841142D02*
X62570190Y-100222094D01*
X63046380Y-99174475D02*
X63046380Y-98983999D01*
X63046380Y-98983999D02*
X62998761Y-98888761D01*
X62998761Y-98888761D02*
X62951142Y-98841142D01*
X62951142Y-98841142D02*
X62808285Y-98745904D01*
X62808285Y-98745904D02*
X62617809Y-98698285D01*
X62617809Y-98698285D02*
X62236857Y-98698285D01*
X62236857Y-98698285D02*
X62141619Y-98745904D01*
X62141619Y-98745904D02*
X62094000Y-98793523D01*
X62094000Y-98793523D02*
X62046380Y-98888761D01*
X62046380Y-98888761D02*
X62046380Y-99079237D01*
X62046380Y-99079237D02*
X62094000Y-99174475D01*
X62094000Y-99174475D02*
X62141619Y-99222094D01*
X62141619Y-99222094D02*
X62236857Y-99269713D01*
X62236857Y-99269713D02*
X62474952Y-99269713D01*
X62474952Y-99269713D02*
X62570190Y-99222094D01*
X62570190Y-99222094D02*
X62617809Y-99174475D01*
X62617809Y-99174475D02*
X62665428Y-99079237D01*
X62665428Y-99079237D02*
X62665428Y-98888761D01*
X62665428Y-98888761D02*
X62617809Y-98793523D01*
X62617809Y-98793523D02*
X62570190Y-98745904D01*
X62570190Y-98745904D02*
X62474952Y-98698285D01*
%TO.C,R18*%
X58071142Y-43976380D02*
X57737809Y-43500190D01*
X57499714Y-43976380D02*
X57499714Y-42976380D01*
X57499714Y-42976380D02*
X57880666Y-42976380D01*
X57880666Y-42976380D02*
X57975904Y-43024000D01*
X57975904Y-43024000D02*
X58023523Y-43071619D01*
X58023523Y-43071619D02*
X58071142Y-43166857D01*
X58071142Y-43166857D02*
X58071142Y-43309714D01*
X58071142Y-43309714D02*
X58023523Y-43404952D01*
X58023523Y-43404952D02*
X57975904Y-43452571D01*
X57975904Y-43452571D02*
X57880666Y-43500190D01*
X57880666Y-43500190D02*
X57499714Y-43500190D01*
X59023523Y-43976380D02*
X58452095Y-43976380D01*
X58737809Y-43976380D02*
X58737809Y-42976380D01*
X58737809Y-42976380D02*
X58642571Y-43119238D01*
X58642571Y-43119238D02*
X58547333Y-43214476D01*
X58547333Y-43214476D02*
X58452095Y-43262095D01*
X59594952Y-43404952D02*
X59499714Y-43357333D01*
X59499714Y-43357333D02*
X59452095Y-43309714D01*
X59452095Y-43309714D02*
X59404476Y-43214476D01*
X59404476Y-43214476D02*
X59404476Y-43166857D01*
X59404476Y-43166857D02*
X59452095Y-43071619D01*
X59452095Y-43071619D02*
X59499714Y-43024000D01*
X59499714Y-43024000D02*
X59594952Y-42976380D01*
X59594952Y-42976380D02*
X59785428Y-42976380D01*
X59785428Y-42976380D02*
X59880666Y-43024000D01*
X59880666Y-43024000D02*
X59928285Y-43071619D01*
X59928285Y-43071619D02*
X59975904Y-43166857D01*
X59975904Y-43166857D02*
X59975904Y-43214476D01*
X59975904Y-43214476D02*
X59928285Y-43309714D01*
X59928285Y-43309714D02*
X59880666Y-43357333D01*
X59880666Y-43357333D02*
X59785428Y-43404952D01*
X59785428Y-43404952D02*
X59594952Y-43404952D01*
X59594952Y-43404952D02*
X59499714Y-43452571D01*
X59499714Y-43452571D02*
X59452095Y-43500190D01*
X59452095Y-43500190D02*
X59404476Y-43595428D01*
X59404476Y-43595428D02*
X59404476Y-43785904D01*
X59404476Y-43785904D02*
X59452095Y-43881142D01*
X59452095Y-43881142D02*
X59499714Y-43928761D01*
X59499714Y-43928761D02*
X59594952Y-43976380D01*
X59594952Y-43976380D02*
X59785428Y-43976380D01*
X59785428Y-43976380D02*
X59880666Y-43928761D01*
X59880666Y-43928761D02*
X59928285Y-43881142D01*
X59928285Y-43881142D02*
X59975904Y-43785904D01*
X59975904Y-43785904D02*
X59975904Y-43595428D01*
X59975904Y-43595428D02*
X59928285Y-43500190D01*
X59928285Y-43500190D02*
X59880666Y-43452571D01*
X59880666Y-43452571D02*
X59785428Y-43404952D01*
%TO.C,R5*%
X11131380Y-94600666D02*
X10655190Y-94933999D01*
X11131380Y-95172094D02*
X10131380Y-95172094D01*
X10131380Y-95172094D02*
X10131380Y-94791142D01*
X10131380Y-94791142D02*
X10179000Y-94695904D01*
X10179000Y-94695904D02*
X10226619Y-94648285D01*
X10226619Y-94648285D02*
X10321857Y-94600666D01*
X10321857Y-94600666D02*
X10464714Y-94600666D01*
X10464714Y-94600666D02*
X10559952Y-94648285D01*
X10559952Y-94648285D02*
X10607571Y-94695904D01*
X10607571Y-94695904D02*
X10655190Y-94791142D01*
X10655190Y-94791142D02*
X10655190Y-95172094D01*
X10131380Y-93695904D02*
X10131380Y-94172094D01*
X10131380Y-94172094D02*
X10607571Y-94219713D01*
X10607571Y-94219713D02*
X10559952Y-94172094D01*
X10559952Y-94172094D02*
X10512333Y-94076856D01*
X10512333Y-94076856D02*
X10512333Y-93838761D01*
X10512333Y-93838761D02*
X10559952Y-93743523D01*
X10559952Y-93743523D02*
X10607571Y-93695904D01*
X10607571Y-93695904D02*
X10702809Y-93648285D01*
X10702809Y-93648285D02*
X10940904Y-93648285D01*
X10940904Y-93648285D02*
X11036142Y-93695904D01*
X11036142Y-93695904D02*
X11083761Y-93743523D01*
X11083761Y-93743523D02*
X11131380Y-93838761D01*
X11131380Y-93838761D02*
X11131380Y-94076856D01*
X11131380Y-94076856D02*
X11083761Y-94172094D01*
X11083761Y-94172094D02*
X11036142Y-94219713D01*
%TO.C,R10*%
X54656380Y-99926857D02*
X54180190Y-100260190D01*
X54656380Y-100498285D02*
X53656380Y-100498285D01*
X53656380Y-100498285D02*
X53656380Y-100117333D01*
X53656380Y-100117333D02*
X53704000Y-100022095D01*
X53704000Y-100022095D02*
X53751619Y-99974476D01*
X53751619Y-99974476D02*
X53846857Y-99926857D01*
X53846857Y-99926857D02*
X53989714Y-99926857D01*
X53989714Y-99926857D02*
X54084952Y-99974476D01*
X54084952Y-99974476D02*
X54132571Y-100022095D01*
X54132571Y-100022095D02*
X54180190Y-100117333D01*
X54180190Y-100117333D02*
X54180190Y-100498285D01*
X54656380Y-98974476D02*
X54656380Y-99545904D01*
X54656380Y-99260190D02*
X53656380Y-99260190D01*
X53656380Y-99260190D02*
X53799238Y-99355428D01*
X53799238Y-99355428D02*
X53894476Y-99450666D01*
X53894476Y-99450666D02*
X53942095Y-99545904D01*
X53656380Y-98355428D02*
X53656380Y-98260190D01*
X53656380Y-98260190D02*
X53704000Y-98164952D01*
X53704000Y-98164952D02*
X53751619Y-98117333D01*
X53751619Y-98117333D02*
X53846857Y-98069714D01*
X53846857Y-98069714D02*
X54037333Y-98022095D01*
X54037333Y-98022095D02*
X54275428Y-98022095D01*
X54275428Y-98022095D02*
X54465904Y-98069714D01*
X54465904Y-98069714D02*
X54561142Y-98117333D01*
X54561142Y-98117333D02*
X54608761Y-98164952D01*
X54608761Y-98164952D02*
X54656380Y-98260190D01*
X54656380Y-98260190D02*
X54656380Y-98355428D01*
X54656380Y-98355428D02*
X54608761Y-98450666D01*
X54608761Y-98450666D02*
X54561142Y-98498285D01*
X54561142Y-98498285D02*
X54465904Y-98545904D01*
X54465904Y-98545904D02*
X54275428Y-98593523D01*
X54275428Y-98593523D02*
X54037333Y-98593523D01*
X54037333Y-98593523D02*
X53846857Y-98545904D01*
X53846857Y-98545904D02*
X53751619Y-98498285D01*
X53751619Y-98498285D02*
X53704000Y-98450666D01*
X53704000Y-98450666D02*
X53656380Y-98355428D01*
D10*
%TO.C,U5*%
X30535000Y-56953500D02*
X30535000Y-59493500D01*
X30535000Y-32188500D02*
X30535000Y-29648500D01*
X19105000Y-30918500D02*
X21645000Y-30918500D01*
X20375000Y-29648500D02*
X20375000Y-32188500D01*
X20375000Y-29013500D02*
X19740000Y-28378500D01*
X20375000Y-29013500D02*
X21010000Y-28378500D01*
X20375000Y-29013500D02*
X20375000Y-27108500D01*
D12*
X19740000Y-28378500D02*
X20375000Y-29013500D01*
X16855000Y-56238500D02*
X34055000Y-56238500D01*
X34055000Y-56238500D02*
X34055000Y-33538500D01*
X34055000Y-33538500D02*
X16855000Y-33538500D01*
X16855000Y-33538500D02*
X16855000Y-56238500D01*
D14*
%TO.C,R1*%
X58142000Y-29083000D02*
X57372000Y-29083000D01*
X57372000Y-30453000D02*
X57372000Y-27713000D01*
X57372000Y-27713000D02*
X50832000Y-27713000D01*
X50832000Y-30453000D02*
X57372000Y-30453000D01*
X50832000Y-27713000D02*
X50832000Y-30453000D01*
X50062000Y-29083000D02*
X50832000Y-29083000D01*
%TO.C,R7*%
X46389000Y-101399000D02*
X46389000Y-100629000D01*
X45019000Y-100629000D02*
X47759000Y-100629000D01*
X47759000Y-100629000D02*
X47759000Y-94089000D01*
X45019000Y-94089000D02*
X45019000Y-100629000D01*
X47759000Y-94089000D02*
X45019000Y-94089000D01*
X46389000Y-93319000D02*
X46389000Y-94089000D01*
%TO.C,R11*%
X16367000Y-96136000D02*
X16367000Y-96906000D01*
X17737000Y-96906000D02*
X14997000Y-96906000D01*
X14997000Y-96906000D02*
X14997000Y-103446000D01*
X17737000Y-103446000D02*
X17737000Y-96906000D01*
X14997000Y-103446000D02*
X17737000Y-103446000D01*
X16367000Y-104216000D02*
X16367000Y-103446000D01*
%TO.C,R6*%
X50489000Y-93269000D02*
X50489000Y-94039000D01*
X51859000Y-94039000D02*
X49119000Y-94039000D01*
X49119000Y-94039000D02*
X49119000Y-100579000D01*
X51859000Y-100579000D02*
X51859000Y-94039000D01*
X49119000Y-100579000D02*
X51859000Y-100579000D01*
X50489000Y-101349000D02*
X50489000Y-100579000D01*
%TO.C,R12*%
X55142000Y-33401000D02*
X55912000Y-33401000D01*
X55912000Y-32031000D02*
X55912000Y-34771000D01*
X55912000Y-34771000D02*
X62452000Y-34771000D01*
X62452000Y-32031000D02*
X55912000Y-32031000D01*
X62452000Y-34771000D02*
X62452000Y-32031000D01*
X63222000Y-33401000D02*
X62452000Y-33401000D01*
%TO.C,R4*%
X66689000Y-110649000D02*
X66689000Y-109879000D01*
X65319000Y-109879000D02*
X68059000Y-109879000D01*
X68059000Y-109879000D02*
X68059000Y-103339000D01*
X65319000Y-103339000D02*
X65319000Y-109879000D01*
X68059000Y-103339000D02*
X65319000Y-103339000D01*
X66689000Y-102569000D02*
X66689000Y-103339000D01*
%TO.C,R16*%
X54888000Y-41402000D02*
X55658000Y-41402000D01*
X55658000Y-40032000D02*
X55658000Y-42772000D01*
X55658000Y-42772000D02*
X62198000Y-42772000D01*
X62198000Y-40032000D02*
X55658000Y-40032000D01*
X62198000Y-42772000D02*
X62198000Y-40032000D01*
X62968000Y-41402000D02*
X62198000Y-41402000D01*
D15*
%TO.C,U1*%
X6914200Y-79258000D02*
X6914200Y-1758000D01*
X8414200Y-258000D02*
X75414200Y-258000D01*
X8934200Y-30728000D02*
X8934200Y-78988000D01*
X8934200Y-78988000D02*
X13934200Y-78988000D01*
X13934200Y-30728000D02*
X8934200Y-30728000D01*
X13934200Y-78988000D02*
X13934200Y-30728000D01*
X17914200Y-80758000D02*
X8414200Y-80758000D01*
X19914200Y-82758000D02*
X17914200Y-80758000D01*
X52914200Y-82758000D02*
X19914200Y-82758000D01*
X54914200Y-80758000D02*
X52914200Y-82758000D01*
X69894200Y-30728000D02*
X69894200Y-78988000D01*
X69894200Y-78988000D02*
X74894200Y-78988000D01*
X74894200Y-30728000D02*
X69894200Y-30728000D01*
X74894200Y-78988000D02*
X74894200Y-30728000D01*
X75414200Y-80758000D02*
X54914200Y-80758000D01*
X76914200Y-1758000D02*
X76914200Y-79258000D01*
X8414200Y-258000D02*
G75*
G03*
X6914200Y-1758000I1J-1500001D01*
G01*
X6914200Y-79258000D02*
G75*
G03*
X8414200Y-80758000I1500001J1D01*
G01*
X76914200Y-1758000D02*
G75*
G03*
X75414200Y-258000I-1500000J0D01*
G01*
X75414200Y-80758000D02*
G75*
G03*
X76914200Y-79258000I0J1500000D01*
G01*
D10*
X8514200Y-31998000D02*
G75*
G03*
X8514200Y-31998000I-100000J0D01*
G01*
X69474200Y-31998000D02*
G75*
G03*
X69474200Y-31998000I-100000J0D01*
G01*
D14*
%TO.C,R3*%
X70342000Y-102613000D02*
X70342000Y-103383000D01*
X71712000Y-103383000D02*
X68972000Y-103383000D01*
X68972000Y-103383000D02*
X68972000Y-109923000D01*
X71712000Y-109923000D02*
X71712000Y-103383000D01*
X68972000Y-109923000D02*
X71712000Y-109923000D01*
X70342000Y-110693000D02*
X70342000Y-109923000D01*
%TO.C,R2*%
X66689000Y-89849000D02*
X66689000Y-90619000D01*
X68059000Y-90619000D02*
X65319000Y-90619000D01*
X65319000Y-90619000D02*
X65319000Y-97159000D01*
X68059000Y-97159000D02*
X68059000Y-90619000D01*
X65319000Y-97159000D02*
X68059000Y-97159000D01*
X66689000Y-97929000D02*
X66689000Y-97159000D01*
%TO.C,BZ1*%
X61853000Y-54610000D02*
G75*
G03*
X61853000Y-54610000I-6100000J0D01*
G01*
%TO.C,D3*%
X77011000Y-101956000D02*
X77011000Y-111096000D01*
X76681000Y-101956000D02*
X77011000Y-101956000D01*
X73401000Y-101956000D02*
X73071000Y-101956000D01*
X73071000Y-101956000D02*
X73071000Y-111096000D01*
X77011000Y-103291000D02*
X73071000Y-103291000D01*
X77011000Y-103411000D02*
X73071000Y-103411000D01*
X77011000Y-103531000D02*
X73071000Y-103531000D01*
X77011000Y-111096000D02*
X76681000Y-111096000D01*
X73071000Y-111096000D02*
X73401000Y-111096000D01*
%TO.C,D4*%
X7903000Y-103474000D02*
X8059000Y-103474000D01*
X10219000Y-103474000D02*
X10375000Y-103474000D01*
X8060392Y-100241666D02*
G75*
G03*
X7903485Y-103473999I1078608J-1672334D01*
G01*
X8059164Y-100872871D02*
G75*
G03*
X8059001Y-102954960I1079836J-1041129D01*
G01*
X10218999Y-102954960D02*
G75*
G03*
X10218836Y-100872871I-1079999J1040960D01*
G01*
X10374515Y-103473999D02*
G75*
G03*
X10217608Y-100241666I-1235515J1559999D01*
G01*
%TO.C,R17*%
X55015000Y-37465000D02*
X55785000Y-37465000D01*
X55785000Y-36095000D02*
X55785000Y-38835000D01*
X55785000Y-38835000D02*
X62325000Y-38835000D01*
X62325000Y-36095000D02*
X55785000Y-36095000D01*
X62325000Y-38835000D02*
X62325000Y-36095000D01*
X63095000Y-37465000D02*
X62325000Y-37465000D01*
%TO.C,R9*%
X60309000Y-93469000D02*
X60309000Y-94239000D01*
X61679000Y-94239000D02*
X58939000Y-94239000D01*
X58939000Y-94239000D02*
X58939000Y-100779000D01*
X61679000Y-100779000D02*
X61679000Y-94239000D01*
X58939000Y-100779000D02*
X61679000Y-100779000D01*
X60309000Y-101549000D02*
X60309000Y-100779000D01*
%TO.C,R18*%
X54634000Y-45593000D02*
X55404000Y-45593000D01*
X55404000Y-44223000D02*
X55404000Y-46963000D01*
X55404000Y-46963000D02*
X61944000Y-46963000D01*
X61944000Y-44223000D02*
X55404000Y-44223000D01*
X61944000Y-46963000D02*
X61944000Y-44223000D01*
X62714000Y-45593000D02*
X61944000Y-45593000D01*
%TO.C,R5*%
X8389000Y-88319000D02*
X8389000Y-89089000D01*
X9759000Y-89089000D02*
X7019000Y-89089000D01*
X7019000Y-89089000D02*
X7019000Y-95629000D01*
X9759000Y-95629000D02*
X9759000Y-89089000D01*
X7019000Y-95629000D02*
X9759000Y-95629000D01*
X8389000Y-96399000D02*
X8389000Y-95629000D01*
%TO.C,R10*%
X56489000Y-101599000D02*
X56489000Y-100829000D01*
X55119000Y-100829000D02*
X57859000Y-100829000D01*
X57859000Y-100829000D02*
X57859000Y-94289000D01*
X55119000Y-94289000D02*
X55119000Y-100829000D01*
X57859000Y-94289000D02*
X55119000Y-94289000D01*
X56489000Y-93519000D02*
X56489000Y-94289000D01*
%TD*%
M02*
