%TF.GenerationSoftware,KiCad,Pcbnew,(7.0.0-0)*%
%TF.CreationDate,2023-07-19T10:46:03+09:00*%
%TF.ProjectId,Spct,53706374-2e6b-4696-9361-645f70636258,rev?*%
%TF.SameCoordinates,PX2540608PY1ee3f58*%
%TF.FileFunction,AssemblyDrawing,Top*%
%FSLAX46Y46*%
G04 Gerber Fmt 4.6, Leading zero omitted, Abs format (unit mm)*
G04 Created by KiCad (PCBNEW (7.0.0-0)) date 2023-07-19 10:46:03*
%MOMM*%
%LPD*%
G01*
G04 APERTURE LIST*
%ADD10C,0.150000*%
%ADD11C,0.100000*%
%ADD12C,0.127000*%
%ADD13C,0.200000*%
G04 APERTURE END LIST*
D10*
%TO.C,U5*%
X26774761Y-50888499D02*
X26822380Y-50745642D01*
X26822380Y-50745642D02*
X26822380Y-50507547D01*
X26822380Y-50507547D02*
X26774761Y-50412309D01*
X26774761Y-50412309D02*
X26727142Y-50364690D01*
X26727142Y-50364690D02*
X26631904Y-50317071D01*
X26631904Y-50317071D02*
X26536666Y-50317071D01*
X26536666Y-50317071D02*
X26441428Y-50364690D01*
X26441428Y-50364690D02*
X26393809Y-50412309D01*
X26393809Y-50412309D02*
X26346190Y-50507547D01*
X26346190Y-50507547D02*
X26298571Y-50698023D01*
X26298571Y-50698023D02*
X26250952Y-50793261D01*
X26250952Y-50793261D02*
X26203333Y-50840880D01*
X26203333Y-50840880D02*
X26108095Y-50888499D01*
X26108095Y-50888499D02*
X26012857Y-50888499D01*
X26012857Y-50888499D02*
X25917619Y-50840880D01*
X25917619Y-50840880D02*
X25870000Y-50793261D01*
X25870000Y-50793261D02*
X25822380Y-50698023D01*
X25822380Y-50698023D02*
X25822380Y-50459928D01*
X25822380Y-50459928D02*
X25870000Y-50317071D01*
X25822380Y-49983737D02*
X25822380Y-49317071D01*
X25822380Y-49317071D02*
X26822380Y-49983737D01*
X26822380Y-49983737D02*
X26822380Y-49317071D01*
X26822380Y-48936118D02*
X25822380Y-48936118D01*
X26298571Y-48936118D02*
X26298571Y-48364690D01*
X26822380Y-48364690D02*
X25822380Y-48364690D01*
X26441428Y-47888499D02*
X26441428Y-47126595D01*
X26822380Y-46650404D02*
X25822380Y-46650404D01*
X25822380Y-46650404D02*
X25822380Y-46269452D01*
X25822380Y-46269452D02*
X25870000Y-46174214D01*
X25870000Y-46174214D02*
X25917619Y-46126595D01*
X25917619Y-46126595D02*
X26012857Y-46078976D01*
X26012857Y-46078976D02*
X26155714Y-46078976D01*
X26155714Y-46078976D02*
X26250952Y-46126595D01*
X26250952Y-46126595D02*
X26298571Y-46174214D01*
X26298571Y-46174214D02*
X26346190Y-46269452D01*
X26346190Y-46269452D02*
X26346190Y-46650404D01*
X25822380Y-45745642D02*
X26822380Y-45507547D01*
X26822380Y-45507547D02*
X26108095Y-45317071D01*
X26108095Y-45317071D02*
X26822380Y-45126595D01*
X26822380Y-45126595D02*
X25822380Y-44888500D01*
X26774761Y-44555166D02*
X26822380Y-44412309D01*
X26822380Y-44412309D02*
X26822380Y-44174214D01*
X26822380Y-44174214D02*
X26774761Y-44078976D01*
X26774761Y-44078976D02*
X26727142Y-44031357D01*
X26727142Y-44031357D02*
X26631904Y-43983738D01*
X26631904Y-43983738D02*
X26536666Y-43983738D01*
X26536666Y-43983738D02*
X26441428Y-44031357D01*
X26441428Y-44031357D02*
X26393809Y-44078976D01*
X26393809Y-44078976D02*
X26346190Y-44174214D01*
X26346190Y-44174214D02*
X26298571Y-44364690D01*
X26298571Y-44364690D02*
X26250952Y-44459928D01*
X26250952Y-44459928D02*
X26203333Y-44507547D01*
X26203333Y-44507547D02*
X26108095Y-44555166D01*
X26108095Y-44555166D02*
X26012857Y-44555166D01*
X26012857Y-44555166D02*
X25917619Y-44507547D01*
X25917619Y-44507547D02*
X25870000Y-44459928D01*
X25870000Y-44459928D02*
X25822380Y-44364690D01*
X25822380Y-44364690D02*
X25822380Y-44126595D01*
X25822380Y-44126595D02*
X25870000Y-43983738D01*
X26822380Y-43555166D02*
X25822380Y-43555166D01*
X25822380Y-43555166D02*
X25822380Y-43317071D01*
X25822380Y-43317071D02*
X25870000Y-43174214D01*
X25870000Y-43174214D02*
X25965238Y-43078976D01*
X25965238Y-43078976D02*
X26060476Y-43031357D01*
X26060476Y-43031357D02*
X26250952Y-42983738D01*
X26250952Y-42983738D02*
X26393809Y-42983738D01*
X26393809Y-42983738D02*
X26584285Y-43031357D01*
X26584285Y-43031357D02*
X26679523Y-43078976D01*
X26679523Y-43078976D02*
X26774761Y-43174214D01*
X26774761Y-43174214D02*
X26822380Y-43317071D01*
X26822380Y-43317071D02*
X26822380Y-43555166D01*
X26441428Y-42555166D02*
X26441428Y-41793262D01*
X25822380Y-41126595D02*
X25822380Y-41031357D01*
X25822380Y-41031357D02*
X25870000Y-40936119D01*
X25870000Y-40936119D02*
X25917619Y-40888500D01*
X25917619Y-40888500D02*
X26012857Y-40840881D01*
X26012857Y-40840881D02*
X26203333Y-40793262D01*
X26203333Y-40793262D02*
X26441428Y-40793262D01*
X26441428Y-40793262D02*
X26631904Y-40840881D01*
X26631904Y-40840881D02*
X26727142Y-40888500D01*
X26727142Y-40888500D02*
X26774761Y-40936119D01*
X26774761Y-40936119D02*
X26822380Y-41031357D01*
X26822380Y-41031357D02*
X26822380Y-41126595D01*
X26822380Y-41126595D02*
X26774761Y-41221833D01*
X26774761Y-41221833D02*
X26727142Y-41269452D01*
X26727142Y-41269452D02*
X26631904Y-41317071D01*
X26631904Y-41317071D02*
X26441428Y-41364690D01*
X26441428Y-41364690D02*
X26203333Y-41364690D01*
X26203333Y-41364690D02*
X26012857Y-41317071D01*
X26012857Y-41317071D02*
X25917619Y-41269452D01*
X25917619Y-41269452D02*
X25870000Y-41221833D01*
X25870000Y-41221833D02*
X25822380Y-41126595D01*
X25917619Y-40412309D02*
X25870000Y-40364690D01*
X25870000Y-40364690D02*
X25822380Y-40269452D01*
X25822380Y-40269452D02*
X25822380Y-40031357D01*
X25822380Y-40031357D02*
X25870000Y-39936119D01*
X25870000Y-39936119D02*
X25917619Y-39888500D01*
X25917619Y-39888500D02*
X26012857Y-39840881D01*
X26012857Y-39840881D02*
X26108095Y-39840881D01*
X26108095Y-39840881D02*
X26250952Y-39888500D01*
X26250952Y-39888500D02*
X26822380Y-40459928D01*
X26822380Y-40459928D02*
X26822380Y-39840881D01*
X25822380Y-38983738D02*
X25822380Y-39174214D01*
X25822380Y-39174214D02*
X25870000Y-39269452D01*
X25870000Y-39269452D02*
X25917619Y-39317071D01*
X25917619Y-39317071D02*
X26060476Y-39412309D01*
X26060476Y-39412309D02*
X26250952Y-39459928D01*
X26250952Y-39459928D02*
X26631904Y-39459928D01*
X26631904Y-39459928D02*
X26727142Y-39412309D01*
X26727142Y-39412309D02*
X26774761Y-39364690D01*
X26774761Y-39364690D02*
X26822380Y-39269452D01*
X26822380Y-39269452D02*
X26822380Y-39078976D01*
X26822380Y-39078976D02*
X26774761Y-38983738D01*
X26774761Y-38983738D02*
X26727142Y-38936119D01*
X26727142Y-38936119D02*
X26631904Y-38888500D01*
X26631904Y-38888500D02*
X26393809Y-38888500D01*
X26393809Y-38888500D02*
X26298571Y-38936119D01*
X26298571Y-38936119D02*
X26250952Y-38983738D01*
X26250952Y-38983738D02*
X26203333Y-39078976D01*
X26203333Y-39078976D02*
X26203333Y-39269452D01*
X26203333Y-39269452D02*
X26250952Y-39364690D01*
X26250952Y-39364690D02*
X26298571Y-39412309D01*
X26298571Y-39412309D02*
X26393809Y-39459928D01*
X26687380Y-41205404D02*
X27496904Y-41205404D01*
X27496904Y-41205404D02*
X27592142Y-41157785D01*
X27592142Y-41157785D02*
X27639761Y-41110166D01*
X27639761Y-41110166D02*
X27687380Y-41014928D01*
X27687380Y-41014928D02*
X27687380Y-40824452D01*
X27687380Y-40824452D02*
X27639761Y-40729214D01*
X27639761Y-40729214D02*
X27592142Y-40681595D01*
X27592142Y-40681595D02*
X27496904Y-40633976D01*
X27496904Y-40633976D02*
X26687380Y-40633976D01*
X26687380Y-39681595D02*
X26687380Y-40157785D01*
X26687380Y-40157785D02*
X27163571Y-40205404D01*
X27163571Y-40205404D02*
X27115952Y-40157785D01*
X27115952Y-40157785D02*
X27068333Y-40062547D01*
X27068333Y-40062547D02*
X27068333Y-39824452D01*
X27068333Y-39824452D02*
X27115952Y-39729214D01*
X27115952Y-39729214D02*
X27163571Y-39681595D01*
X27163571Y-39681595D02*
X27258809Y-39633976D01*
X27258809Y-39633976D02*
X27496904Y-39633976D01*
X27496904Y-39633976D02*
X27592142Y-39681595D01*
X27592142Y-39681595D02*
X27639761Y-39729214D01*
X27639761Y-39729214D02*
X27687380Y-39824452D01*
X27687380Y-39824452D02*
X27687380Y-40062547D01*
X27687380Y-40062547D02*
X27639761Y-40157785D01*
X27639761Y-40157785D02*
X27592142Y-40205404D01*
%TO.C,R1*%
X53435333Y-27080380D02*
X52863905Y-27080380D01*
X53149619Y-27080380D02*
X53149619Y-26080380D01*
X53149619Y-26080380D02*
X53054381Y-26223238D01*
X53054381Y-26223238D02*
X52959143Y-26318476D01*
X52959143Y-26318476D02*
X52863905Y-26366095D01*
X54054381Y-26080380D02*
X54149619Y-26080380D01*
X54149619Y-26080380D02*
X54244857Y-26128000D01*
X54244857Y-26128000D02*
X54292476Y-26175619D01*
X54292476Y-26175619D02*
X54340095Y-26270857D01*
X54340095Y-26270857D02*
X54387714Y-26461333D01*
X54387714Y-26461333D02*
X54387714Y-26699428D01*
X54387714Y-26699428D02*
X54340095Y-26889904D01*
X54340095Y-26889904D02*
X54292476Y-26985142D01*
X54292476Y-26985142D02*
X54244857Y-27032761D01*
X54244857Y-27032761D02*
X54149619Y-27080380D01*
X54149619Y-27080380D02*
X54054381Y-27080380D01*
X54054381Y-27080380D02*
X53959143Y-27032761D01*
X53959143Y-27032761D02*
X53911524Y-26985142D01*
X53911524Y-26985142D02*
X53863905Y-26889904D01*
X53863905Y-26889904D02*
X53816286Y-26699428D01*
X53816286Y-26699428D02*
X53816286Y-26461333D01*
X53816286Y-26461333D02*
X53863905Y-26270857D01*
X53863905Y-26270857D02*
X53911524Y-26175619D01*
X53911524Y-26175619D02*
X53959143Y-26128000D01*
X53959143Y-26128000D02*
X54054381Y-26080380D01*
X55006762Y-26080380D02*
X55102000Y-26080380D01*
X55102000Y-26080380D02*
X55197238Y-26128000D01*
X55197238Y-26128000D02*
X55244857Y-26175619D01*
X55244857Y-26175619D02*
X55292476Y-26270857D01*
X55292476Y-26270857D02*
X55340095Y-26461333D01*
X55340095Y-26461333D02*
X55340095Y-26699428D01*
X55340095Y-26699428D02*
X55292476Y-26889904D01*
X55292476Y-26889904D02*
X55244857Y-26985142D01*
X55244857Y-26985142D02*
X55197238Y-27032761D01*
X55197238Y-27032761D02*
X55102000Y-27080380D01*
X55102000Y-27080380D02*
X55006762Y-27080380D01*
X55006762Y-27080380D02*
X54911524Y-27032761D01*
X54911524Y-27032761D02*
X54863905Y-26985142D01*
X54863905Y-26985142D02*
X54816286Y-26889904D01*
X54816286Y-26889904D02*
X54768667Y-26699428D01*
X54768667Y-26699428D02*
X54768667Y-26461333D01*
X54768667Y-26461333D02*
X54816286Y-26270857D01*
X54816286Y-26270857D02*
X54863905Y-26175619D01*
X54863905Y-26175619D02*
X54911524Y-26128000D01*
X54911524Y-26128000D02*
X55006762Y-26080380D01*
X53935333Y-29450380D02*
X53602000Y-28974190D01*
X53363905Y-29450380D02*
X53363905Y-28450380D01*
X53363905Y-28450380D02*
X53744857Y-28450380D01*
X53744857Y-28450380D02*
X53840095Y-28498000D01*
X53840095Y-28498000D02*
X53887714Y-28545619D01*
X53887714Y-28545619D02*
X53935333Y-28640857D01*
X53935333Y-28640857D02*
X53935333Y-28783714D01*
X53935333Y-28783714D02*
X53887714Y-28878952D01*
X53887714Y-28878952D02*
X53840095Y-28926571D01*
X53840095Y-28926571D02*
X53744857Y-28974190D01*
X53744857Y-28974190D02*
X53363905Y-28974190D01*
X54887714Y-29450380D02*
X54316286Y-29450380D01*
X54602000Y-29450380D02*
X54602000Y-28450380D01*
X54602000Y-28450380D02*
X54506762Y-28593238D01*
X54506762Y-28593238D02*
X54411524Y-28688476D01*
X54411524Y-28688476D02*
X54316286Y-28736095D01*
%TO.C,R7*%
X49126380Y-98025666D02*
X49126380Y-98597094D01*
X49126380Y-98311380D02*
X48126380Y-98311380D01*
X48126380Y-98311380D02*
X48269238Y-98406618D01*
X48269238Y-98406618D02*
X48364476Y-98501856D01*
X48364476Y-98501856D02*
X48412095Y-98597094D01*
X48126380Y-97406618D02*
X48126380Y-97311380D01*
X48126380Y-97311380D02*
X48174000Y-97216142D01*
X48174000Y-97216142D02*
X48221619Y-97168523D01*
X48221619Y-97168523D02*
X48316857Y-97120904D01*
X48316857Y-97120904D02*
X48507333Y-97073285D01*
X48507333Y-97073285D02*
X48745428Y-97073285D01*
X48745428Y-97073285D02*
X48935904Y-97120904D01*
X48935904Y-97120904D02*
X49031142Y-97168523D01*
X49031142Y-97168523D02*
X49078761Y-97216142D01*
X49078761Y-97216142D02*
X49126380Y-97311380D01*
X49126380Y-97311380D02*
X49126380Y-97406618D01*
X49126380Y-97406618D02*
X49078761Y-97501856D01*
X49078761Y-97501856D02*
X49031142Y-97549475D01*
X49031142Y-97549475D02*
X48935904Y-97597094D01*
X48935904Y-97597094D02*
X48745428Y-97644713D01*
X48745428Y-97644713D02*
X48507333Y-97644713D01*
X48507333Y-97644713D02*
X48316857Y-97597094D01*
X48316857Y-97597094D02*
X48221619Y-97549475D01*
X48221619Y-97549475D02*
X48174000Y-97501856D01*
X48174000Y-97501856D02*
X48126380Y-97406618D01*
X48126380Y-96454237D02*
X48126380Y-96358999D01*
X48126380Y-96358999D02*
X48174000Y-96263761D01*
X48174000Y-96263761D02*
X48221619Y-96216142D01*
X48221619Y-96216142D02*
X48316857Y-96168523D01*
X48316857Y-96168523D02*
X48507333Y-96120904D01*
X48507333Y-96120904D02*
X48745428Y-96120904D01*
X48745428Y-96120904D02*
X48935904Y-96168523D01*
X48935904Y-96168523D02*
X49031142Y-96216142D01*
X49031142Y-96216142D02*
X49078761Y-96263761D01*
X49078761Y-96263761D02*
X49126380Y-96358999D01*
X49126380Y-96358999D02*
X49126380Y-96454237D01*
X49126380Y-96454237D02*
X49078761Y-96549475D01*
X49078761Y-96549475D02*
X49031142Y-96597094D01*
X49031142Y-96597094D02*
X48935904Y-96644713D01*
X48935904Y-96644713D02*
X48745428Y-96692332D01*
X48745428Y-96692332D02*
X48507333Y-96692332D01*
X48507333Y-96692332D02*
X48316857Y-96644713D01*
X48316857Y-96644713D02*
X48221619Y-96597094D01*
X48221619Y-96597094D02*
X48174000Y-96549475D01*
X48174000Y-96549475D02*
X48126380Y-96454237D01*
X46756380Y-97525666D02*
X46280190Y-97858999D01*
X46756380Y-98097094D02*
X45756380Y-98097094D01*
X45756380Y-98097094D02*
X45756380Y-97716142D01*
X45756380Y-97716142D02*
X45804000Y-97620904D01*
X45804000Y-97620904D02*
X45851619Y-97573285D01*
X45851619Y-97573285D02*
X45946857Y-97525666D01*
X45946857Y-97525666D02*
X46089714Y-97525666D01*
X46089714Y-97525666D02*
X46184952Y-97573285D01*
X46184952Y-97573285D02*
X46232571Y-97620904D01*
X46232571Y-97620904D02*
X46280190Y-97716142D01*
X46280190Y-97716142D02*
X46280190Y-98097094D01*
X45756380Y-97192332D02*
X45756380Y-96525666D01*
X45756380Y-96525666D02*
X46756380Y-96954237D01*
%TO.C,R11*%
X13364380Y-101461713D02*
X13364380Y-100842666D01*
X13364380Y-100842666D02*
X13745333Y-101175999D01*
X13745333Y-101175999D02*
X13745333Y-101033142D01*
X13745333Y-101033142D02*
X13792952Y-100937904D01*
X13792952Y-100937904D02*
X13840571Y-100890285D01*
X13840571Y-100890285D02*
X13935809Y-100842666D01*
X13935809Y-100842666D02*
X14173904Y-100842666D01*
X14173904Y-100842666D02*
X14269142Y-100890285D01*
X14269142Y-100890285D02*
X14316761Y-100937904D01*
X14316761Y-100937904D02*
X14364380Y-101033142D01*
X14364380Y-101033142D02*
X14364380Y-101318856D01*
X14364380Y-101318856D02*
X14316761Y-101414094D01*
X14316761Y-101414094D02*
X14269142Y-101461713D01*
X13364380Y-100509332D02*
X13364380Y-99890285D01*
X13364380Y-99890285D02*
X13745333Y-100223618D01*
X13745333Y-100223618D02*
X13745333Y-100080761D01*
X13745333Y-100080761D02*
X13792952Y-99985523D01*
X13792952Y-99985523D02*
X13840571Y-99937904D01*
X13840571Y-99937904D02*
X13935809Y-99890285D01*
X13935809Y-99890285D02*
X14173904Y-99890285D01*
X14173904Y-99890285D02*
X14269142Y-99937904D01*
X14269142Y-99937904D02*
X14316761Y-99985523D01*
X14316761Y-99985523D02*
X14364380Y-100080761D01*
X14364380Y-100080761D02*
X14364380Y-100366475D01*
X14364380Y-100366475D02*
X14316761Y-100461713D01*
X14316761Y-100461713D02*
X14269142Y-100509332D01*
X13364380Y-99271237D02*
X13364380Y-99175999D01*
X13364380Y-99175999D02*
X13412000Y-99080761D01*
X13412000Y-99080761D02*
X13459619Y-99033142D01*
X13459619Y-99033142D02*
X13554857Y-98985523D01*
X13554857Y-98985523D02*
X13745333Y-98937904D01*
X13745333Y-98937904D02*
X13983428Y-98937904D01*
X13983428Y-98937904D02*
X14173904Y-98985523D01*
X14173904Y-98985523D02*
X14269142Y-99033142D01*
X14269142Y-99033142D02*
X14316761Y-99080761D01*
X14316761Y-99080761D02*
X14364380Y-99175999D01*
X14364380Y-99175999D02*
X14364380Y-99271237D01*
X14364380Y-99271237D02*
X14316761Y-99366475D01*
X14316761Y-99366475D02*
X14269142Y-99414094D01*
X14269142Y-99414094D02*
X14173904Y-99461713D01*
X14173904Y-99461713D02*
X13983428Y-99509332D01*
X13983428Y-99509332D02*
X13745333Y-99509332D01*
X13745333Y-99509332D02*
X13554857Y-99461713D01*
X13554857Y-99461713D02*
X13459619Y-99414094D01*
X13459619Y-99414094D02*
X13412000Y-99366475D01*
X13412000Y-99366475D02*
X13364380Y-99271237D01*
X16734380Y-100818857D02*
X16258190Y-101152190D01*
X16734380Y-101390285D02*
X15734380Y-101390285D01*
X15734380Y-101390285D02*
X15734380Y-101009333D01*
X15734380Y-101009333D02*
X15782000Y-100914095D01*
X15782000Y-100914095D02*
X15829619Y-100866476D01*
X15829619Y-100866476D02*
X15924857Y-100818857D01*
X15924857Y-100818857D02*
X16067714Y-100818857D01*
X16067714Y-100818857D02*
X16162952Y-100866476D01*
X16162952Y-100866476D02*
X16210571Y-100914095D01*
X16210571Y-100914095D02*
X16258190Y-101009333D01*
X16258190Y-101009333D02*
X16258190Y-101390285D01*
X16734380Y-99866476D02*
X16734380Y-100437904D01*
X16734380Y-100152190D02*
X15734380Y-100152190D01*
X15734380Y-100152190D02*
X15877238Y-100247428D01*
X15877238Y-100247428D02*
X15972476Y-100342666D01*
X15972476Y-100342666D02*
X16020095Y-100437904D01*
X16734380Y-98914095D02*
X16734380Y-99485523D01*
X16734380Y-99199809D02*
X15734380Y-99199809D01*
X15734380Y-99199809D02*
X15877238Y-99295047D01*
X15877238Y-99295047D02*
X15972476Y-99390285D01*
X15972476Y-99390285D02*
X16020095Y-99485523D01*
%TO.C,R6*%
X48486380Y-97904238D02*
X48486380Y-98475666D01*
X48486380Y-98189952D02*
X47486380Y-98189952D01*
X47486380Y-98189952D02*
X47629238Y-98285190D01*
X47629238Y-98285190D02*
X47724476Y-98380428D01*
X47724476Y-98380428D02*
X47772095Y-98475666D01*
X47486380Y-97285190D02*
X47486380Y-97189952D01*
X47486380Y-97189952D02*
X47534000Y-97094714D01*
X47534000Y-97094714D02*
X47581619Y-97047095D01*
X47581619Y-97047095D02*
X47676857Y-96999476D01*
X47676857Y-96999476D02*
X47867333Y-96951857D01*
X47867333Y-96951857D02*
X48105428Y-96951857D01*
X48105428Y-96951857D02*
X48295904Y-96999476D01*
X48295904Y-96999476D02*
X48391142Y-97047095D01*
X48391142Y-97047095D02*
X48438761Y-97094714D01*
X48438761Y-97094714D02*
X48486380Y-97189952D01*
X48486380Y-97189952D02*
X48486380Y-97285190D01*
X48486380Y-97285190D02*
X48438761Y-97380428D01*
X48438761Y-97380428D02*
X48391142Y-97428047D01*
X48391142Y-97428047D02*
X48295904Y-97475666D01*
X48295904Y-97475666D02*
X48105428Y-97523285D01*
X48105428Y-97523285D02*
X47867333Y-97523285D01*
X47867333Y-97523285D02*
X47676857Y-97475666D01*
X47676857Y-97475666D02*
X47581619Y-97428047D01*
X47581619Y-97428047D02*
X47534000Y-97380428D01*
X47534000Y-97380428D02*
X47486380Y-97285190D01*
X48486380Y-96523285D02*
X47486380Y-96523285D01*
X48105428Y-96428047D02*
X48486380Y-96142333D01*
X47819714Y-96142333D02*
X48200666Y-96523285D01*
X50856380Y-97475666D02*
X50380190Y-97808999D01*
X50856380Y-98047094D02*
X49856380Y-98047094D01*
X49856380Y-98047094D02*
X49856380Y-97666142D01*
X49856380Y-97666142D02*
X49904000Y-97570904D01*
X49904000Y-97570904D02*
X49951619Y-97523285D01*
X49951619Y-97523285D02*
X50046857Y-97475666D01*
X50046857Y-97475666D02*
X50189714Y-97475666D01*
X50189714Y-97475666D02*
X50284952Y-97523285D01*
X50284952Y-97523285D02*
X50332571Y-97570904D01*
X50332571Y-97570904D02*
X50380190Y-97666142D01*
X50380190Y-97666142D02*
X50380190Y-98047094D01*
X49856380Y-96618523D02*
X49856380Y-96808999D01*
X49856380Y-96808999D02*
X49904000Y-96904237D01*
X49904000Y-96904237D02*
X49951619Y-96951856D01*
X49951619Y-96951856D02*
X50094476Y-97047094D01*
X50094476Y-97047094D02*
X50284952Y-97094713D01*
X50284952Y-97094713D02*
X50665904Y-97094713D01*
X50665904Y-97094713D02*
X50761142Y-97047094D01*
X50761142Y-97047094D02*
X50808761Y-96999475D01*
X50808761Y-96999475D02*
X50856380Y-96904237D01*
X50856380Y-96904237D02*
X50856380Y-96713761D01*
X50856380Y-96713761D02*
X50808761Y-96618523D01*
X50808761Y-96618523D02*
X50761142Y-96570904D01*
X50761142Y-96570904D02*
X50665904Y-96523285D01*
X50665904Y-96523285D02*
X50427809Y-96523285D01*
X50427809Y-96523285D02*
X50332571Y-96570904D01*
X50332571Y-96570904D02*
X50284952Y-96618523D01*
X50284952Y-96618523D02*
X50237333Y-96713761D01*
X50237333Y-96713761D02*
X50237333Y-96904237D01*
X50237333Y-96904237D02*
X50284952Y-96999475D01*
X50284952Y-96999475D02*
X50332571Y-97047094D01*
X50332571Y-97047094D02*
X50427809Y-97094713D01*
%TO.C,REF\u002A\u002A*%
X-5119048Y-8567380D02*
X-5119048Y-7567380D01*
X-5119048Y-7567380D02*
X-4785715Y-8281666D01*
X-4785715Y-8281666D02*
X-4452382Y-7567380D01*
X-4452382Y-7567380D02*
X-4452382Y-8567380D01*
X-3833334Y-8567380D02*
X-3928572Y-8519761D01*
X-3928572Y-8519761D02*
X-3976191Y-8472142D01*
X-3976191Y-8472142D02*
X-4023810Y-8376904D01*
X-4023810Y-8376904D02*
X-4023810Y-8091190D01*
X-4023810Y-8091190D02*
X-3976191Y-7995952D01*
X-3976191Y-7995952D02*
X-3928572Y-7948333D01*
X-3928572Y-7948333D02*
X-3833334Y-7900714D01*
X-3833334Y-7900714D02*
X-3690477Y-7900714D01*
X-3690477Y-7900714D02*
X-3595239Y-7948333D01*
X-3595239Y-7948333D02*
X-3547620Y-7995952D01*
X-3547620Y-7995952D02*
X-3500001Y-8091190D01*
X-3500001Y-8091190D02*
X-3500001Y-8376904D01*
X-3500001Y-8376904D02*
X-3547620Y-8472142D01*
X-3547620Y-8472142D02*
X-3595239Y-8519761D01*
X-3595239Y-8519761D02*
X-3690477Y-8567380D01*
X-3690477Y-8567380D02*
X-3833334Y-8567380D01*
X-2642858Y-7900714D02*
X-2642858Y-8567380D01*
X-3071429Y-7900714D02*
X-3071429Y-8424523D01*
X-3071429Y-8424523D02*
X-3023810Y-8519761D01*
X-3023810Y-8519761D02*
X-2928572Y-8567380D01*
X-2928572Y-8567380D02*
X-2785715Y-8567380D01*
X-2785715Y-8567380D02*
X-2690477Y-8519761D01*
X-2690477Y-8519761D02*
X-2642858Y-8472142D01*
X-2166667Y-7900714D02*
X-2166667Y-8567380D01*
X-2166667Y-7995952D02*
X-2119048Y-7948333D01*
X-2119048Y-7948333D02*
X-2023810Y-7900714D01*
X-2023810Y-7900714D02*
X-1880953Y-7900714D01*
X-1880953Y-7900714D02*
X-1785715Y-7948333D01*
X-1785715Y-7948333D02*
X-1738096Y-8043571D01*
X-1738096Y-8043571D02*
X-1738096Y-8567380D01*
X-1404762Y-7900714D02*
X-1023810Y-7900714D01*
X-1261905Y-7567380D02*
X-1261905Y-8424523D01*
X-1261905Y-8424523D02*
X-1214286Y-8519761D01*
X-1214286Y-8519761D02*
X-1119048Y-8567380D01*
X-1119048Y-8567380D02*
X-1023810Y-8567380D01*
X-690476Y-8567380D02*
X-690476Y-7900714D01*
X-690476Y-7567380D02*
X-738095Y-7615000D01*
X-738095Y-7615000D02*
X-690476Y-7662619D01*
X-690476Y-7662619D02*
X-642857Y-7615000D01*
X-642857Y-7615000D02*
X-690476Y-7567380D01*
X-690476Y-7567380D02*
X-690476Y-7662619D01*
X-214286Y-7900714D02*
X-214286Y-8567380D01*
X-214286Y-7995952D02*
X-166667Y-7948333D01*
X-166667Y-7948333D02*
X-71429Y-7900714D01*
X-71429Y-7900714D02*
X71428Y-7900714D01*
X71428Y-7900714D02*
X166666Y-7948333D01*
X166666Y-7948333D02*
X214285Y-8043571D01*
X214285Y-8043571D02*
X214285Y-8567380D01*
X1119047Y-7900714D02*
X1119047Y-8710238D01*
X1119047Y-8710238D02*
X1071428Y-8805476D01*
X1071428Y-8805476D02*
X1023809Y-8853095D01*
X1023809Y-8853095D02*
X928571Y-8900714D01*
X928571Y-8900714D02*
X785714Y-8900714D01*
X785714Y-8900714D02*
X690476Y-8853095D01*
X1119047Y-8519761D02*
X1023809Y-8567380D01*
X1023809Y-8567380D02*
X833333Y-8567380D01*
X833333Y-8567380D02*
X738095Y-8519761D01*
X738095Y-8519761D02*
X690476Y-8472142D01*
X690476Y-8472142D02*
X642857Y-8376904D01*
X642857Y-8376904D02*
X642857Y-8091190D01*
X642857Y-8091190D02*
X690476Y-7995952D01*
X690476Y-7995952D02*
X738095Y-7948333D01*
X738095Y-7948333D02*
X833333Y-7900714D01*
X833333Y-7900714D02*
X1023809Y-7900714D01*
X1023809Y-7900714D02*
X1119047Y-7948333D01*
X1595238Y-8567380D02*
X1595238Y-7567380D01*
X1595238Y-8043571D02*
X2166666Y-8043571D01*
X2166666Y-8567380D02*
X2166666Y-7567380D01*
X2785714Y-8567380D02*
X2690476Y-8519761D01*
X2690476Y-8519761D02*
X2642857Y-8472142D01*
X2642857Y-8472142D02*
X2595238Y-8376904D01*
X2595238Y-8376904D02*
X2595238Y-8091190D01*
X2595238Y-8091190D02*
X2642857Y-7995952D01*
X2642857Y-7995952D02*
X2690476Y-7948333D01*
X2690476Y-7948333D02*
X2785714Y-7900714D01*
X2785714Y-7900714D02*
X2928571Y-7900714D01*
X2928571Y-7900714D02*
X3023809Y-7948333D01*
X3023809Y-7948333D02*
X3071428Y-7995952D01*
X3071428Y-7995952D02*
X3119047Y-8091190D01*
X3119047Y-8091190D02*
X3119047Y-8376904D01*
X3119047Y-8376904D02*
X3071428Y-8472142D01*
X3071428Y-8472142D02*
X3023809Y-8519761D01*
X3023809Y-8519761D02*
X2928571Y-8567380D01*
X2928571Y-8567380D02*
X2785714Y-8567380D01*
X3690476Y-8567380D02*
X3595238Y-8519761D01*
X3595238Y-8519761D02*
X3547619Y-8424523D01*
X3547619Y-8424523D02*
X3547619Y-7567380D01*
X4452381Y-8519761D02*
X4357143Y-8567380D01*
X4357143Y-8567380D02*
X4166667Y-8567380D01*
X4166667Y-8567380D02*
X4071429Y-8519761D01*
X4071429Y-8519761D02*
X4023810Y-8424523D01*
X4023810Y-8424523D02*
X4023810Y-8043571D01*
X4023810Y-8043571D02*
X4071429Y-7948333D01*
X4071429Y-7948333D02*
X4166667Y-7900714D01*
X4166667Y-7900714D02*
X4357143Y-7900714D01*
X4357143Y-7900714D02*
X4452381Y-7948333D01*
X4452381Y-7948333D02*
X4500000Y-8043571D01*
X4500000Y-8043571D02*
X4500000Y-8138809D01*
X4500000Y-8138809D02*
X4023810Y-8234047D01*
X4690477Y-8662619D02*
X5452381Y-8662619D01*
X5595239Y-7567380D02*
X6214286Y-7567380D01*
X6214286Y-7567380D02*
X5880953Y-7948333D01*
X5880953Y-7948333D02*
X6023810Y-7948333D01*
X6023810Y-7948333D02*
X6119048Y-7995952D01*
X6119048Y-7995952D02*
X6166667Y-8043571D01*
X6166667Y-8043571D02*
X6214286Y-8138809D01*
X6214286Y-8138809D02*
X6214286Y-8376904D01*
X6214286Y-8376904D02*
X6166667Y-8472142D01*
X6166667Y-8472142D02*
X6119048Y-8519761D01*
X6119048Y-8519761D02*
X6023810Y-8567380D01*
X6023810Y-8567380D02*
X5738096Y-8567380D01*
X5738096Y-8567380D02*
X5642858Y-8519761D01*
X5642858Y-8519761D02*
X5595239Y-8472142D01*
X6642858Y-8472142D02*
X6690477Y-8519761D01*
X6690477Y-8519761D02*
X6642858Y-8567380D01*
X6642858Y-8567380D02*
X6595239Y-8519761D01*
X6595239Y-8519761D02*
X6642858Y-8472142D01*
X6642858Y-8472142D02*
X6642858Y-8567380D01*
X7071429Y-7662619D02*
X7119048Y-7615000D01*
X7119048Y-7615000D02*
X7214286Y-7567380D01*
X7214286Y-7567380D02*
X7452381Y-7567380D01*
X7452381Y-7567380D02*
X7547619Y-7615000D01*
X7547619Y-7615000D02*
X7595238Y-7662619D01*
X7595238Y-7662619D02*
X7642857Y-7757857D01*
X7642857Y-7757857D02*
X7642857Y-7853095D01*
X7642857Y-7853095D02*
X7595238Y-7995952D01*
X7595238Y-7995952D02*
X7023810Y-8567380D01*
X7023810Y-8567380D02*
X7642857Y-8567380D01*
X8071429Y-8567380D02*
X8071429Y-7900714D01*
X8071429Y-7995952D02*
X8119048Y-7948333D01*
X8119048Y-7948333D02*
X8214286Y-7900714D01*
X8214286Y-7900714D02*
X8357143Y-7900714D01*
X8357143Y-7900714D02*
X8452381Y-7948333D01*
X8452381Y-7948333D02*
X8500000Y-8043571D01*
X8500000Y-8043571D02*
X8500000Y-8567380D01*
X8500000Y-8043571D02*
X8547619Y-7948333D01*
X8547619Y-7948333D02*
X8642857Y-7900714D01*
X8642857Y-7900714D02*
X8785714Y-7900714D01*
X8785714Y-7900714D02*
X8880953Y-7948333D01*
X8880953Y-7948333D02*
X8928572Y-8043571D01*
X8928572Y-8043571D02*
X8928572Y-8567380D01*
X9404762Y-8567380D02*
X9404762Y-7900714D01*
X9404762Y-7995952D02*
X9452381Y-7948333D01*
X9452381Y-7948333D02*
X9547619Y-7900714D01*
X9547619Y-7900714D02*
X9690476Y-7900714D01*
X9690476Y-7900714D02*
X9785714Y-7948333D01*
X9785714Y-7948333D02*
X9833333Y-8043571D01*
X9833333Y-8043571D02*
X9833333Y-8567380D01*
X9833333Y-8043571D02*
X9880952Y-7948333D01*
X9880952Y-7948333D02*
X9976190Y-7900714D01*
X9976190Y-7900714D02*
X10119047Y-7900714D01*
X10119047Y-7900714D02*
X10214286Y-7948333D01*
X10214286Y-7948333D02*
X10261905Y-8043571D01*
X10261905Y-8043571D02*
X10261905Y-8567380D01*
X10500000Y-8662619D02*
X11261904Y-8662619D01*
X11500000Y-8567380D02*
X11500000Y-7567380D01*
X11500000Y-7567380D02*
X11833333Y-8281666D01*
X11833333Y-8281666D02*
X12166666Y-7567380D01*
X12166666Y-7567380D02*
X12166666Y-8567380D01*
X12547619Y-7567380D02*
X13166666Y-7567380D01*
X13166666Y-7567380D02*
X12833333Y-7948333D01*
X12833333Y-7948333D02*
X12976190Y-7948333D01*
X12976190Y-7948333D02*
X13071428Y-7995952D01*
X13071428Y-7995952D02*
X13119047Y-8043571D01*
X13119047Y-8043571D02*
X13166666Y-8138809D01*
X13166666Y-8138809D02*
X13166666Y-8376904D01*
X13166666Y-8376904D02*
X13119047Y-8472142D01*
X13119047Y-8472142D02*
X13071428Y-8519761D01*
X13071428Y-8519761D02*
X12976190Y-8567380D01*
X12976190Y-8567380D02*
X12690476Y-8567380D01*
X12690476Y-8567380D02*
X12595238Y-8519761D01*
X12595238Y-8519761D02*
X12547619Y-8472142D01*
X2666666Y-4367380D02*
X2333333Y-3891190D01*
X2095238Y-4367380D02*
X2095238Y-3367380D01*
X2095238Y-3367380D02*
X2476190Y-3367380D01*
X2476190Y-3367380D02*
X2571428Y-3415000D01*
X2571428Y-3415000D02*
X2619047Y-3462619D01*
X2619047Y-3462619D02*
X2666666Y-3557857D01*
X2666666Y-3557857D02*
X2666666Y-3700714D01*
X2666666Y-3700714D02*
X2619047Y-3795952D01*
X2619047Y-3795952D02*
X2571428Y-3843571D01*
X2571428Y-3843571D02*
X2476190Y-3891190D01*
X2476190Y-3891190D02*
X2095238Y-3891190D01*
X3095238Y-3843571D02*
X3428571Y-3843571D01*
X3571428Y-4367380D02*
X3095238Y-4367380D01*
X3095238Y-4367380D02*
X3095238Y-3367380D01*
X3095238Y-3367380D02*
X3571428Y-3367380D01*
X4333333Y-3843571D02*
X4000000Y-3843571D01*
X4000000Y-4367380D02*
X4000000Y-3367380D01*
X4000000Y-3367380D02*
X4476190Y-3367380D01*
X5000000Y-3367380D02*
X5000000Y-3605476D01*
X4761905Y-3510238D02*
X5000000Y-3605476D01*
X5000000Y-3605476D02*
X5238095Y-3510238D01*
X4857143Y-3795952D02*
X5000000Y-3605476D01*
X5000000Y-3605476D02*
X5142857Y-3795952D01*
X5761905Y-3367380D02*
X5761905Y-3605476D01*
X5523810Y-3510238D02*
X5761905Y-3605476D01*
X5761905Y-3605476D02*
X6000000Y-3510238D01*
X5619048Y-3795952D02*
X5761905Y-3605476D01*
X5761905Y-3605476D02*
X5904762Y-3795952D01*
%TO.C,R12*%
X58515333Y-36138380D02*
X57943905Y-36138380D01*
X58229619Y-36138380D02*
X58229619Y-35138380D01*
X58229619Y-35138380D02*
X58134381Y-35281238D01*
X58134381Y-35281238D02*
X58039143Y-35376476D01*
X58039143Y-35376476D02*
X57943905Y-35424095D01*
X59134381Y-35138380D02*
X59229619Y-35138380D01*
X59229619Y-35138380D02*
X59324857Y-35186000D01*
X59324857Y-35186000D02*
X59372476Y-35233619D01*
X59372476Y-35233619D02*
X59420095Y-35328857D01*
X59420095Y-35328857D02*
X59467714Y-35519333D01*
X59467714Y-35519333D02*
X59467714Y-35757428D01*
X59467714Y-35757428D02*
X59420095Y-35947904D01*
X59420095Y-35947904D02*
X59372476Y-36043142D01*
X59372476Y-36043142D02*
X59324857Y-36090761D01*
X59324857Y-36090761D02*
X59229619Y-36138380D01*
X59229619Y-36138380D02*
X59134381Y-36138380D01*
X59134381Y-36138380D02*
X59039143Y-36090761D01*
X59039143Y-36090761D02*
X58991524Y-36043142D01*
X58991524Y-36043142D02*
X58943905Y-35947904D01*
X58943905Y-35947904D02*
X58896286Y-35757428D01*
X58896286Y-35757428D02*
X58896286Y-35519333D01*
X58896286Y-35519333D02*
X58943905Y-35328857D01*
X58943905Y-35328857D02*
X58991524Y-35233619D01*
X58991524Y-35233619D02*
X59039143Y-35186000D01*
X59039143Y-35186000D02*
X59134381Y-35138380D01*
X60086762Y-35138380D02*
X60182000Y-35138380D01*
X60182000Y-35138380D02*
X60277238Y-35186000D01*
X60277238Y-35186000D02*
X60324857Y-35233619D01*
X60324857Y-35233619D02*
X60372476Y-35328857D01*
X60372476Y-35328857D02*
X60420095Y-35519333D01*
X60420095Y-35519333D02*
X60420095Y-35757428D01*
X60420095Y-35757428D02*
X60372476Y-35947904D01*
X60372476Y-35947904D02*
X60324857Y-36043142D01*
X60324857Y-36043142D02*
X60277238Y-36090761D01*
X60277238Y-36090761D02*
X60182000Y-36138380D01*
X60182000Y-36138380D02*
X60086762Y-36138380D01*
X60086762Y-36138380D02*
X59991524Y-36090761D01*
X59991524Y-36090761D02*
X59943905Y-36043142D01*
X59943905Y-36043142D02*
X59896286Y-35947904D01*
X59896286Y-35947904D02*
X59848667Y-35757428D01*
X59848667Y-35757428D02*
X59848667Y-35519333D01*
X59848667Y-35519333D02*
X59896286Y-35328857D01*
X59896286Y-35328857D02*
X59943905Y-35233619D01*
X59943905Y-35233619D02*
X59991524Y-35186000D01*
X59991524Y-35186000D02*
X60086762Y-35138380D01*
X58539142Y-33768380D02*
X58205809Y-33292190D01*
X57967714Y-33768380D02*
X57967714Y-32768380D01*
X57967714Y-32768380D02*
X58348666Y-32768380D01*
X58348666Y-32768380D02*
X58443904Y-32816000D01*
X58443904Y-32816000D02*
X58491523Y-32863619D01*
X58491523Y-32863619D02*
X58539142Y-32958857D01*
X58539142Y-32958857D02*
X58539142Y-33101714D01*
X58539142Y-33101714D02*
X58491523Y-33196952D01*
X58491523Y-33196952D02*
X58443904Y-33244571D01*
X58443904Y-33244571D02*
X58348666Y-33292190D01*
X58348666Y-33292190D02*
X57967714Y-33292190D01*
X59491523Y-33768380D02*
X58920095Y-33768380D01*
X59205809Y-33768380D02*
X59205809Y-32768380D01*
X59205809Y-32768380D02*
X59110571Y-32911238D01*
X59110571Y-32911238D02*
X59015333Y-33006476D01*
X59015333Y-33006476D02*
X58920095Y-33054095D01*
X59872476Y-32863619D02*
X59920095Y-32816000D01*
X59920095Y-32816000D02*
X60015333Y-32768380D01*
X60015333Y-32768380D02*
X60253428Y-32768380D01*
X60253428Y-32768380D02*
X60348666Y-32816000D01*
X60348666Y-32816000D02*
X60396285Y-32863619D01*
X60396285Y-32863619D02*
X60443904Y-32958857D01*
X60443904Y-32958857D02*
X60443904Y-33054095D01*
X60443904Y-33054095D02*
X60396285Y-33196952D01*
X60396285Y-33196952D02*
X59824857Y-33768380D01*
X59824857Y-33768380D02*
X60443904Y-33768380D01*
%TO.C,R4*%
X69426380Y-107275666D02*
X69426380Y-107847094D01*
X69426380Y-107561380D02*
X68426380Y-107561380D01*
X68426380Y-107561380D02*
X68569238Y-107656618D01*
X68569238Y-107656618D02*
X68664476Y-107751856D01*
X68664476Y-107751856D02*
X68712095Y-107847094D01*
X68426380Y-106656618D02*
X68426380Y-106561380D01*
X68426380Y-106561380D02*
X68474000Y-106466142D01*
X68474000Y-106466142D02*
X68521619Y-106418523D01*
X68521619Y-106418523D02*
X68616857Y-106370904D01*
X68616857Y-106370904D02*
X68807333Y-106323285D01*
X68807333Y-106323285D02*
X69045428Y-106323285D01*
X69045428Y-106323285D02*
X69235904Y-106370904D01*
X69235904Y-106370904D02*
X69331142Y-106418523D01*
X69331142Y-106418523D02*
X69378761Y-106466142D01*
X69378761Y-106466142D02*
X69426380Y-106561380D01*
X69426380Y-106561380D02*
X69426380Y-106656618D01*
X69426380Y-106656618D02*
X69378761Y-106751856D01*
X69378761Y-106751856D02*
X69331142Y-106799475D01*
X69331142Y-106799475D02*
X69235904Y-106847094D01*
X69235904Y-106847094D02*
X69045428Y-106894713D01*
X69045428Y-106894713D02*
X68807333Y-106894713D01*
X68807333Y-106894713D02*
X68616857Y-106847094D01*
X68616857Y-106847094D02*
X68521619Y-106799475D01*
X68521619Y-106799475D02*
X68474000Y-106751856D01*
X68474000Y-106751856D02*
X68426380Y-106656618D01*
X68426380Y-105704237D02*
X68426380Y-105608999D01*
X68426380Y-105608999D02*
X68474000Y-105513761D01*
X68474000Y-105513761D02*
X68521619Y-105466142D01*
X68521619Y-105466142D02*
X68616857Y-105418523D01*
X68616857Y-105418523D02*
X68807333Y-105370904D01*
X68807333Y-105370904D02*
X69045428Y-105370904D01*
X69045428Y-105370904D02*
X69235904Y-105418523D01*
X69235904Y-105418523D02*
X69331142Y-105466142D01*
X69331142Y-105466142D02*
X69378761Y-105513761D01*
X69378761Y-105513761D02*
X69426380Y-105608999D01*
X69426380Y-105608999D02*
X69426380Y-105704237D01*
X69426380Y-105704237D02*
X69378761Y-105799475D01*
X69378761Y-105799475D02*
X69331142Y-105847094D01*
X69331142Y-105847094D02*
X69235904Y-105894713D01*
X69235904Y-105894713D02*
X69045428Y-105942332D01*
X69045428Y-105942332D02*
X68807333Y-105942332D01*
X68807333Y-105942332D02*
X68616857Y-105894713D01*
X68616857Y-105894713D02*
X68521619Y-105847094D01*
X68521619Y-105847094D02*
X68474000Y-105799475D01*
X68474000Y-105799475D02*
X68426380Y-105704237D01*
X67056380Y-106775666D02*
X66580190Y-107108999D01*
X67056380Y-107347094D02*
X66056380Y-107347094D01*
X66056380Y-107347094D02*
X66056380Y-106966142D01*
X66056380Y-106966142D02*
X66104000Y-106870904D01*
X66104000Y-106870904D02*
X66151619Y-106823285D01*
X66151619Y-106823285D02*
X66246857Y-106775666D01*
X66246857Y-106775666D02*
X66389714Y-106775666D01*
X66389714Y-106775666D02*
X66484952Y-106823285D01*
X66484952Y-106823285D02*
X66532571Y-106870904D01*
X66532571Y-106870904D02*
X66580190Y-106966142D01*
X66580190Y-106966142D02*
X66580190Y-107347094D01*
X66389714Y-105918523D02*
X67056380Y-105918523D01*
X66008761Y-106156618D02*
X66723047Y-106394713D01*
X66723047Y-106394713D02*
X66723047Y-105775666D01*
%TO.C,R16*%
X57999428Y-43472714D02*
X57999428Y-44139380D01*
X57761333Y-43091761D02*
X57523238Y-43806047D01*
X57523238Y-43806047D02*
X58142285Y-43806047D01*
X58523238Y-44044142D02*
X58570857Y-44091761D01*
X58570857Y-44091761D02*
X58523238Y-44139380D01*
X58523238Y-44139380D02*
X58475619Y-44091761D01*
X58475619Y-44091761D02*
X58523238Y-44044142D01*
X58523238Y-44044142D02*
X58523238Y-44139380D01*
X58904190Y-43139380D02*
X59570856Y-43139380D01*
X59570856Y-43139380D02*
X59142285Y-44139380D01*
X59951809Y-44139380D02*
X59951809Y-43139380D01*
X60047047Y-43758428D02*
X60332761Y-44139380D01*
X60332761Y-43472714D02*
X59951809Y-43853666D01*
X58285142Y-41769380D02*
X57951809Y-41293190D01*
X57713714Y-41769380D02*
X57713714Y-40769380D01*
X57713714Y-40769380D02*
X58094666Y-40769380D01*
X58094666Y-40769380D02*
X58189904Y-40817000D01*
X58189904Y-40817000D02*
X58237523Y-40864619D01*
X58237523Y-40864619D02*
X58285142Y-40959857D01*
X58285142Y-40959857D02*
X58285142Y-41102714D01*
X58285142Y-41102714D02*
X58237523Y-41197952D01*
X58237523Y-41197952D02*
X58189904Y-41245571D01*
X58189904Y-41245571D02*
X58094666Y-41293190D01*
X58094666Y-41293190D02*
X57713714Y-41293190D01*
X59237523Y-41769380D02*
X58666095Y-41769380D01*
X58951809Y-41769380D02*
X58951809Y-40769380D01*
X58951809Y-40769380D02*
X58856571Y-40912238D01*
X58856571Y-40912238D02*
X58761333Y-41007476D01*
X58761333Y-41007476D02*
X58666095Y-41055095D01*
X60094666Y-40769380D02*
X59904190Y-40769380D01*
X59904190Y-40769380D02*
X59808952Y-40817000D01*
X59808952Y-40817000D02*
X59761333Y-40864619D01*
X59761333Y-40864619D02*
X59666095Y-41007476D01*
X59666095Y-41007476D02*
X59618476Y-41197952D01*
X59618476Y-41197952D02*
X59618476Y-41578904D01*
X59618476Y-41578904D02*
X59666095Y-41674142D01*
X59666095Y-41674142D02*
X59713714Y-41721761D01*
X59713714Y-41721761D02*
X59808952Y-41769380D01*
X59808952Y-41769380D02*
X59999428Y-41769380D01*
X59999428Y-41769380D02*
X60094666Y-41721761D01*
X60094666Y-41721761D02*
X60142285Y-41674142D01*
X60142285Y-41674142D02*
X60189904Y-41578904D01*
X60189904Y-41578904D02*
X60189904Y-41340809D01*
X60189904Y-41340809D02*
X60142285Y-41245571D01*
X60142285Y-41245571D02*
X60094666Y-41197952D01*
X60094666Y-41197952D02*
X59999428Y-41150333D01*
X59999428Y-41150333D02*
X59808952Y-41150333D01*
X59808952Y-41150333D02*
X59713714Y-41197952D01*
X59713714Y-41197952D02*
X59666095Y-41245571D01*
X59666095Y-41245571D02*
X59618476Y-41340809D01*
%TO.C,U1*%
X10955152Y-82510380D02*
X10955152Y-81510380D01*
X10955152Y-81510380D02*
X11526580Y-82510380D01*
X11526580Y-82510380D02*
X11526580Y-81510380D01*
X12002771Y-81510380D02*
X12002771Y-82319904D01*
X12002771Y-82319904D02*
X12050390Y-82415142D01*
X12050390Y-82415142D02*
X12098009Y-82462761D01*
X12098009Y-82462761D02*
X12193247Y-82510380D01*
X12193247Y-82510380D02*
X12383723Y-82510380D01*
X12383723Y-82510380D02*
X12478961Y-82462761D01*
X12478961Y-82462761D02*
X12526580Y-82415142D01*
X12526580Y-82415142D02*
X12574199Y-82319904D01*
X12574199Y-82319904D02*
X12574199Y-81510380D01*
X13621818Y-82415142D02*
X13574199Y-82462761D01*
X13574199Y-82462761D02*
X13431342Y-82510380D01*
X13431342Y-82510380D02*
X13336104Y-82510380D01*
X13336104Y-82510380D02*
X13193247Y-82462761D01*
X13193247Y-82462761D02*
X13098009Y-82367523D01*
X13098009Y-82367523D02*
X13050390Y-82272285D01*
X13050390Y-82272285D02*
X13002771Y-82081809D01*
X13002771Y-82081809D02*
X13002771Y-81938952D01*
X13002771Y-81938952D02*
X13050390Y-81748476D01*
X13050390Y-81748476D02*
X13098009Y-81653238D01*
X13098009Y-81653238D02*
X13193247Y-81558000D01*
X13193247Y-81558000D02*
X13336104Y-81510380D01*
X13336104Y-81510380D02*
X13431342Y-81510380D01*
X13431342Y-81510380D02*
X13574199Y-81558000D01*
X13574199Y-81558000D02*
X13621818Y-81605619D01*
X14526580Y-82510380D02*
X14050390Y-82510380D01*
X14050390Y-82510380D02*
X14050390Y-81510380D01*
X14859914Y-81986571D02*
X15193247Y-81986571D01*
X15336104Y-82510380D02*
X14859914Y-82510380D01*
X14859914Y-82510380D02*
X14859914Y-81510380D01*
X14859914Y-81510380D02*
X15336104Y-81510380D01*
X15955152Y-81510380D02*
X16145628Y-81510380D01*
X16145628Y-81510380D02*
X16240866Y-81558000D01*
X16240866Y-81558000D02*
X16336104Y-81653238D01*
X16336104Y-81653238D02*
X16383723Y-81843714D01*
X16383723Y-81843714D02*
X16383723Y-82177047D01*
X16383723Y-82177047D02*
X16336104Y-82367523D01*
X16336104Y-82367523D02*
X16240866Y-82462761D01*
X16240866Y-82462761D02*
X16145628Y-82510380D01*
X16145628Y-82510380D02*
X15955152Y-82510380D01*
X15955152Y-82510380D02*
X15859914Y-82462761D01*
X15859914Y-82462761D02*
X15764676Y-82367523D01*
X15764676Y-82367523D02*
X15717057Y-82177047D01*
X15717057Y-82177047D02*
X15717057Y-81843714D01*
X15717057Y-81843714D02*
X15764676Y-81653238D01*
X15764676Y-81653238D02*
X15859914Y-81558000D01*
X15859914Y-81558000D02*
X15955152Y-81510380D01*
X16812295Y-82129428D02*
X17574200Y-82129428D01*
X18383723Y-81986571D02*
X18050390Y-81986571D01*
X18050390Y-82510380D02*
X18050390Y-81510380D01*
X18050390Y-81510380D02*
X18526580Y-81510380D01*
X19336104Y-81843714D02*
X19336104Y-82510380D01*
X19098009Y-81462761D02*
X18859914Y-82177047D01*
X18859914Y-82177047D02*
X19478961Y-82177047D01*
X20050390Y-81510380D02*
X20145628Y-81510380D01*
X20145628Y-81510380D02*
X20240866Y-81558000D01*
X20240866Y-81558000D02*
X20288485Y-81605619D01*
X20288485Y-81605619D02*
X20336104Y-81700857D01*
X20336104Y-81700857D02*
X20383723Y-81891333D01*
X20383723Y-81891333D02*
X20383723Y-82129428D01*
X20383723Y-82129428D02*
X20336104Y-82319904D01*
X20336104Y-82319904D02*
X20288485Y-82415142D01*
X20288485Y-82415142D02*
X20240866Y-82462761D01*
X20240866Y-82462761D02*
X20145628Y-82510380D01*
X20145628Y-82510380D02*
X20050390Y-82510380D01*
X20050390Y-82510380D02*
X19955152Y-82462761D01*
X19955152Y-82462761D02*
X19907533Y-82415142D01*
X19907533Y-82415142D02*
X19859914Y-82319904D01*
X19859914Y-82319904D02*
X19812295Y-82129428D01*
X19812295Y-82129428D02*
X19812295Y-81891333D01*
X19812295Y-81891333D02*
X19859914Y-81700857D01*
X19859914Y-81700857D02*
X19907533Y-81605619D01*
X19907533Y-81605619D02*
X19955152Y-81558000D01*
X19955152Y-81558000D02*
X20050390Y-81510380D01*
X21336104Y-82510380D02*
X20764676Y-82510380D01*
X21050390Y-82510380D02*
X21050390Y-81510380D01*
X21050390Y-81510380D02*
X20955152Y-81653238D01*
X20955152Y-81653238D02*
X20859914Y-81748476D01*
X20859914Y-81748476D02*
X20764676Y-81796095D01*
X22336104Y-82510380D02*
X22002771Y-82034190D01*
X21764676Y-82510380D02*
X21764676Y-81510380D01*
X21764676Y-81510380D02*
X22145628Y-81510380D01*
X22145628Y-81510380D02*
X22240866Y-81558000D01*
X22240866Y-81558000D02*
X22288485Y-81605619D01*
X22288485Y-81605619D02*
X22336104Y-81700857D01*
X22336104Y-81700857D02*
X22336104Y-81843714D01*
X22336104Y-81843714D02*
X22288485Y-81938952D01*
X22288485Y-81938952D02*
X22240866Y-81986571D01*
X22240866Y-81986571D02*
X22145628Y-82034190D01*
X22145628Y-82034190D02*
X21764676Y-82034190D01*
X22764676Y-81986571D02*
X23098009Y-81986571D01*
X23240866Y-82510380D02*
X22764676Y-82510380D01*
X22764676Y-82510380D02*
X22764676Y-81510380D01*
X22764676Y-81510380D02*
X23240866Y-81510380D01*
%TO.C,R3*%
X68339380Y-107248238D02*
X68339380Y-107819666D01*
X68339380Y-107533952D02*
X67339380Y-107533952D01*
X67339380Y-107533952D02*
X67482238Y-107629190D01*
X67482238Y-107629190D02*
X67577476Y-107724428D01*
X67577476Y-107724428D02*
X67625095Y-107819666D01*
X67339380Y-106629190D02*
X67339380Y-106533952D01*
X67339380Y-106533952D02*
X67387000Y-106438714D01*
X67387000Y-106438714D02*
X67434619Y-106391095D01*
X67434619Y-106391095D02*
X67529857Y-106343476D01*
X67529857Y-106343476D02*
X67720333Y-106295857D01*
X67720333Y-106295857D02*
X67958428Y-106295857D01*
X67958428Y-106295857D02*
X68148904Y-106343476D01*
X68148904Y-106343476D02*
X68244142Y-106391095D01*
X68244142Y-106391095D02*
X68291761Y-106438714D01*
X68291761Y-106438714D02*
X68339380Y-106533952D01*
X68339380Y-106533952D02*
X68339380Y-106629190D01*
X68339380Y-106629190D02*
X68291761Y-106724428D01*
X68291761Y-106724428D02*
X68244142Y-106772047D01*
X68244142Y-106772047D02*
X68148904Y-106819666D01*
X68148904Y-106819666D02*
X67958428Y-106867285D01*
X67958428Y-106867285D02*
X67720333Y-106867285D01*
X67720333Y-106867285D02*
X67529857Y-106819666D01*
X67529857Y-106819666D02*
X67434619Y-106772047D01*
X67434619Y-106772047D02*
X67387000Y-106724428D01*
X67387000Y-106724428D02*
X67339380Y-106629190D01*
X68339380Y-105867285D02*
X67339380Y-105867285D01*
X67958428Y-105772047D02*
X68339380Y-105486333D01*
X67672714Y-105486333D02*
X68053666Y-105867285D01*
X72906380Y-109225666D02*
X72430190Y-109558999D01*
X72906380Y-109797094D02*
X71906380Y-109797094D01*
X71906380Y-109797094D02*
X71906380Y-109416142D01*
X71906380Y-109416142D02*
X71954000Y-109320904D01*
X71954000Y-109320904D02*
X72001619Y-109273285D01*
X72001619Y-109273285D02*
X72096857Y-109225666D01*
X72096857Y-109225666D02*
X72239714Y-109225666D01*
X72239714Y-109225666D02*
X72334952Y-109273285D01*
X72334952Y-109273285D02*
X72382571Y-109320904D01*
X72382571Y-109320904D02*
X72430190Y-109416142D01*
X72430190Y-109416142D02*
X72430190Y-109797094D01*
X71906380Y-108892332D02*
X71906380Y-108273285D01*
X71906380Y-108273285D02*
X72287333Y-108606618D01*
X72287333Y-108606618D02*
X72287333Y-108463761D01*
X72287333Y-108463761D02*
X72334952Y-108368523D01*
X72334952Y-108368523D02*
X72382571Y-108320904D01*
X72382571Y-108320904D02*
X72477809Y-108273285D01*
X72477809Y-108273285D02*
X72715904Y-108273285D01*
X72715904Y-108273285D02*
X72811142Y-108320904D01*
X72811142Y-108320904D02*
X72858761Y-108368523D01*
X72858761Y-108368523D02*
X72906380Y-108463761D01*
X72906380Y-108463761D02*
X72906380Y-108749475D01*
X72906380Y-108749475D02*
X72858761Y-108844713D01*
X72858761Y-108844713D02*
X72811142Y-108892332D01*
%TO.C,R2*%
X63686380Y-95103285D02*
X63686380Y-94436619D01*
X63686380Y-94436619D02*
X64686380Y-94865190D01*
X63686380Y-93579476D02*
X63686380Y-94055666D01*
X63686380Y-94055666D02*
X64162571Y-94103285D01*
X64162571Y-94103285D02*
X64114952Y-94055666D01*
X64114952Y-94055666D02*
X64067333Y-93960428D01*
X64067333Y-93960428D02*
X64067333Y-93722333D01*
X64067333Y-93722333D02*
X64114952Y-93627095D01*
X64114952Y-93627095D02*
X64162571Y-93579476D01*
X64162571Y-93579476D02*
X64257809Y-93531857D01*
X64257809Y-93531857D02*
X64495904Y-93531857D01*
X64495904Y-93531857D02*
X64591142Y-93579476D01*
X64591142Y-93579476D02*
X64638761Y-93627095D01*
X64638761Y-93627095D02*
X64686380Y-93722333D01*
X64686380Y-93722333D02*
X64686380Y-93960428D01*
X64686380Y-93960428D02*
X64638761Y-94055666D01*
X64638761Y-94055666D02*
X64591142Y-94103285D01*
X64686380Y-93103285D02*
X63686380Y-93103285D01*
X64305428Y-93008047D02*
X64686380Y-92722333D01*
X64019714Y-92722333D02*
X64400666Y-93103285D01*
X67056380Y-94055666D02*
X66580190Y-94388999D01*
X67056380Y-94627094D02*
X66056380Y-94627094D01*
X66056380Y-94627094D02*
X66056380Y-94246142D01*
X66056380Y-94246142D02*
X66104000Y-94150904D01*
X66104000Y-94150904D02*
X66151619Y-94103285D01*
X66151619Y-94103285D02*
X66246857Y-94055666D01*
X66246857Y-94055666D02*
X66389714Y-94055666D01*
X66389714Y-94055666D02*
X66484952Y-94103285D01*
X66484952Y-94103285D02*
X66532571Y-94150904D01*
X66532571Y-94150904D02*
X66580190Y-94246142D01*
X66580190Y-94246142D02*
X66580190Y-94627094D01*
X66151619Y-93674713D02*
X66104000Y-93627094D01*
X66104000Y-93627094D02*
X66056380Y-93531856D01*
X66056380Y-93531856D02*
X66056380Y-93293761D01*
X66056380Y-93293761D02*
X66104000Y-93198523D01*
X66104000Y-93198523D02*
X66151619Y-93150904D01*
X66151619Y-93150904D02*
X66246857Y-93103285D01*
X66246857Y-93103285D02*
X66342095Y-93103285D01*
X66342095Y-93103285D02*
X66484952Y-93150904D01*
X66484952Y-93150904D02*
X67056380Y-93722332D01*
X67056380Y-93722332D02*
X67056380Y-93103285D01*
%TO.C,REF\u002A\u002A*%
X88567380Y-125119047D02*
X87567380Y-125119047D01*
X87567380Y-125119047D02*
X88281666Y-124785714D01*
X88281666Y-124785714D02*
X87567380Y-124452381D01*
X87567380Y-124452381D02*
X88567380Y-124452381D01*
X88567380Y-123833333D02*
X88519761Y-123928571D01*
X88519761Y-123928571D02*
X88472142Y-123976190D01*
X88472142Y-123976190D02*
X88376904Y-124023809D01*
X88376904Y-124023809D02*
X88091190Y-124023809D01*
X88091190Y-124023809D02*
X87995952Y-123976190D01*
X87995952Y-123976190D02*
X87948333Y-123928571D01*
X87948333Y-123928571D02*
X87900714Y-123833333D01*
X87900714Y-123833333D02*
X87900714Y-123690476D01*
X87900714Y-123690476D02*
X87948333Y-123595238D01*
X87948333Y-123595238D02*
X87995952Y-123547619D01*
X87995952Y-123547619D02*
X88091190Y-123500000D01*
X88091190Y-123500000D02*
X88376904Y-123500000D01*
X88376904Y-123500000D02*
X88472142Y-123547619D01*
X88472142Y-123547619D02*
X88519761Y-123595238D01*
X88519761Y-123595238D02*
X88567380Y-123690476D01*
X88567380Y-123690476D02*
X88567380Y-123833333D01*
X87900714Y-122642857D02*
X88567380Y-122642857D01*
X87900714Y-123071428D02*
X88424523Y-123071428D01*
X88424523Y-123071428D02*
X88519761Y-123023809D01*
X88519761Y-123023809D02*
X88567380Y-122928571D01*
X88567380Y-122928571D02*
X88567380Y-122785714D01*
X88567380Y-122785714D02*
X88519761Y-122690476D01*
X88519761Y-122690476D02*
X88472142Y-122642857D01*
X87900714Y-122166666D02*
X88567380Y-122166666D01*
X87995952Y-122166666D02*
X87948333Y-122119047D01*
X87948333Y-122119047D02*
X87900714Y-122023809D01*
X87900714Y-122023809D02*
X87900714Y-121880952D01*
X87900714Y-121880952D02*
X87948333Y-121785714D01*
X87948333Y-121785714D02*
X88043571Y-121738095D01*
X88043571Y-121738095D02*
X88567380Y-121738095D01*
X87900714Y-121404761D02*
X87900714Y-121023809D01*
X87567380Y-121261904D02*
X88424523Y-121261904D01*
X88424523Y-121261904D02*
X88519761Y-121214285D01*
X88519761Y-121214285D02*
X88567380Y-121119047D01*
X88567380Y-121119047D02*
X88567380Y-121023809D01*
X88567380Y-120690475D02*
X87900714Y-120690475D01*
X87567380Y-120690475D02*
X87615000Y-120738094D01*
X87615000Y-120738094D02*
X87662619Y-120690475D01*
X87662619Y-120690475D02*
X87615000Y-120642856D01*
X87615000Y-120642856D02*
X87567380Y-120690475D01*
X87567380Y-120690475D02*
X87662619Y-120690475D01*
X87900714Y-120214285D02*
X88567380Y-120214285D01*
X87995952Y-120214285D02*
X87948333Y-120166666D01*
X87948333Y-120166666D02*
X87900714Y-120071428D01*
X87900714Y-120071428D02*
X87900714Y-119928571D01*
X87900714Y-119928571D02*
X87948333Y-119833333D01*
X87948333Y-119833333D02*
X88043571Y-119785714D01*
X88043571Y-119785714D02*
X88567380Y-119785714D01*
X87900714Y-118880952D02*
X88710238Y-118880952D01*
X88710238Y-118880952D02*
X88805476Y-118928571D01*
X88805476Y-118928571D02*
X88853095Y-118976190D01*
X88853095Y-118976190D02*
X88900714Y-119071428D01*
X88900714Y-119071428D02*
X88900714Y-119214285D01*
X88900714Y-119214285D02*
X88853095Y-119309523D01*
X88519761Y-118880952D02*
X88567380Y-118976190D01*
X88567380Y-118976190D02*
X88567380Y-119166666D01*
X88567380Y-119166666D02*
X88519761Y-119261904D01*
X88519761Y-119261904D02*
X88472142Y-119309523D01*
X88472142Y-119309523D02*
X88376904Y-119357142D01*
X88376904Y-119357142D02*
X88091190Y-119357142D01*
X88091190Y-119357142D02*
X87995952Y-119309523D01*
X87995952Y-119309523D02*
X87948333Y-119261904D01*
X87948333Y-119261904D02*
X87900714Y-119166666D01*
X87900714Y-119166666D02*
X87900714Y-118976190D01*
X87900714Y-118976190D02*
X87948333Y-118880952D01*
X88567380Y-118404761D02*
X87567380Y-118404761D01*
X88043571Y-118404761D02*
X88043571Y-117833333D01*
X88567380Y-117833333D02*
X87567380Y-117833333D01*
X88567380Y-117214285D02*
X88519761Y-117309523D01*
X88519761Y-117309523D02*
X88472142Y-117357142D01*
X88472142Y-117357142D02*
X88376904Y-117404761D01*
X88376904Y-117404761D02*
X88091190Y-117404761D01*
X88091190Y-117404761D02*
X87995952Y-117357142D01*
X87995952Y-117357142D02*
X87948333Y-117309523D01*
X87948333Y-117309523D02*
X87900714Y-117214285D01*
X87900714Y-117214285D02*
X87900714Y-117071428D01*
X87900714Y-117071428D02*
X87948333Y-116976190D01*
X87948333Y-116976190D02*
X87995952Y-116928571D01*
X87995952Y-116928571D02*
X88091190Y-116880952D01*
X88091190Y-116880952D02*
X88376904Y-116880952D01*
X88376904Y-116880952D02*
X88472142Y-116928571D01*
X88472142Y-116928571D02*
X88519761Y-116976190D01*
X88519761Y-116976190D02*
X88567380Y-117071428D01*
X88567380Y-117071428D02*
X88567380Y-117214285D01*
X88567380Y-116309523D02*
X88519761Y-116404761D01*
X88519761Y-116404761D02*
X88424523Y-116452380D01*
X88424523Y-116452380D02*
X87567380Y-116452380D01*
X88519761Y-115547618D02*
X88567380Y-115642856D01*
X88567380Y-115642856D02*
X88567380Y-115833332D01*
X88567380Y-115833332D02*
X88519761Y-115928570D01*
X88519761Y-115928570D02*
X88424523Y-115976189D01*
X88424523Y-115976189D02*
X88043571Y-115976189D01*
X88043571Y-115976189D02*
X87948333Y-115928570D01*
X87948333Y-115928570D02*
X87900714Y-115833332D01*
X87900714Y-115833332D02*
X87900714Y-115642856D01*
X87900714Y-115642856D02*
X87948333Y-115547618D01*
X87948333Y-115547618D02*
X88043571Y-115499999D01*
X88043571Y-115499999D02*
X88138809Y-115499999D01*
X88138809Y-115499999D02*
X88234047Y-115976189D01*
X88662619Y-115309523D02*
X88662619Y-114547618D01*
X87567380Y-114404760D02*
X87567380Y-113785713D01*
X87567380Y-113785713D02*
X87948333Y-114119046D01*
X87948333Y-114119046D02*
X87948333Y-113976189D01*
X87948333Y-113976189D02*
X87995952Y-113880951D01*
X87995952Y-113880951D02*
X88043571Y-113833332D01*
X88043571Y-113833332D02*
X88138809Y-113785713D01*
X88138809Y-113785713D02*
X88376904Y-113785713D01*
X88376904Y-113785713D02*
X88472142Y-113833332D01*
X88472142Y-113833332D02*
X88519761Y-113880951D01*
X88519761Y-113880951D02*
X88567380Y-113976189D01*
X88567380Y-113976189D02*
X88567380Y-114261903D01*
X88567380Y-114261903D02*
X88519761Y-114357141D01*
X88519761Y-114357141D02*
X88472142Y-114404760D01*
X88472142Y-113357141D02*
X88519761Y-113309522D01*
X88519761Y-113309522D02*
X88567380Y-113357141D01*
X88567380Y-113357141D02*
X88519761Y-113404760D01*
X88519761Y-113404760D02*
X88472142Y-113357141D01*
X88472142Y-113357141D02*
X88567380Y-113357141D01*
X87662619Y-112928570D02*
X87615000Y-112880951D01*
X87615000Y-112880951D02*
X87567380Y-112785713D01*
X87567380Y-112785713D02*
X87567380Y-112547618D01*
X87567380Y-112547618D02*
X87615000Y-112452380D01*
X87615000Y-112452380D02*
X87662619Y-112404761D01*
X87662619Y-112404761D02*
X87757857Y-112357142D01*
X87757857Y-112357142D02*
X87853095Y-112357142D01*
X87853095Y-112357142D02*
X87995952Y-112404761D01*
X87995952Y-112404761D02*
X88567380Y-112976189D01*
X88567380Y-112976189D02*
X88567380Y-112357142D01*
X88567380Y-111928570D02*
X87900714Y-111928570D01*
X87995952Y-111928570D02*
X87948333Y-111880951D01*
X87948333Y-111880951D02*
X87900714Y-111785713D01*
X87900714Y-111785713D02*
X87900714Y-111642856D01*
X87900714Y-111642856D02*
X87948333Y-111547618D01*
X87948333Y-111547618D02*
X88043571Y-111499999D01*
X88043571Y-111499999D02*
X88567380Y-111499999D01*
X88043571Y-111499999D02*
X87948333Y-111452380D01*
X87948333Y-111452380D02*
X87900714Y-111357142D01*
X87900714Y-111357142D02*
X87900714Y-111214285D01*
X87900714Y-111214285D02*
X87948333Y-111119046D01*
X87948333Y-111119046D02*
X88043571Y-111071427D01*
X88043571Y-111071427D02*
X88567380Y-111071427D01*
X88567380Y-110595237D02*
X87900714Y-110595237D01*
X87995952Y-110595237D02*
X87948333Y-110547618D01*
X87948333Y-110547618D02*
X87900714Y-110452380D01*
X87900714Y-110452380D02*
X87900714Y-110309523D01*
X87900714Y-110309523D02*
X87948333Y-110214285D01*
X87948333Y-110214285D02*
X88043571Y-110166666D01*
X88043571Y-110166666D02*
X88567380Y-110166666D01*
X88043571Y-110166666D02*
X87948333Y-110119047D01*
X87948333Y-110119047D02*
X87900714Y-110023809D01*
X87900714Y-110023809D02*
X87900714Y-109880952D01*
X87900714Y-109880952D02*
X87948333Y-109785713D01*
X87948333Y-109785713D02*
X88043571Y-109738094D01*
X88043571Y-109738094D02*
X88567380Y-109738094D01*
X88662619Y-109500000D02*
X88662619Y-108738095D01*
X88567380Y-108499999D02*
X87567380Y-108499999D01*
X87567380Y-108499999D02*
X88281666Y-108166666D01*
X88281666Y-108166666D02*
X87567380Y-107833333D01*
X87567380Y-107833333D02*
X88567380Y-107833333D01*
X87567380Y-107452380D02*
X87567380Y-106833333D01*
X87567380Y-106833333D02*
X87948333Y-107166666D01*
X87948333Y-107166666D02*
X87948333Y-107023809D01*
X87948333Y-107023809D02*
X87995952Y-106928571D01*
X87995952Y-106928571D02*
X88043571Y-106880952D01*
X88043571Y-106880952D02*
X88138809Y-106833333D01*
X88138809Y-106833333D02*
X88376904Y-106833333D01*
X88376904Y-106833333D02*
X88472142Y-106880952D01*
X88472142Y-106880952D02*
X88519761Y-106928571D01*
X88519761Y-106928571D02*
X88567380Y-107023809D01*
X88567380Y-107023809D02*
X88567380Y-107309523D01*
X88567380Y-107309523D02*
X88519761Y-107404761D01*
X88519761Y-107404761D02*
X88472142Y-107452380D01*
X84367380Y-117333333D02*
X83891190Y-117666666D01*
X84367380Y-117904761D02*
X83367380Y-117904761D01*
X83367380Y-117904761D02*
X83367380Y-117523809D01*
X83367380Y-117523809D02*
X83415000Y-117428571D01*
X83415000Y-117428571D02*
X83462619Y-117380952D01*
X83462619Y-117380952D02*
X83557857Y-117333333D01*
X83557857Y-117333333D02*
X83700714Y-117333333D01*
X83700714Y-117333333D02*
X83795952Y-117380952D01*
X83795952Y-117380952D02*
X83843571Y-117428571D01*
X83843571Y-117428571D02*
X83891190Y-117523809D01*
X83891190Y-117523809D02*
X83891190Y-117904761D01*
X83843571Y-116904761D02*
X83843571Y-116571428D01*
X84367380Y-116428571D02*
X84367380Y-116904761D01*
X84367380Y-116904761D02*
X83367380Y-116904761D01*
X83367380Y-116904761D02*
X83367380Y-116428571D01*
X83843571Y-115666666D02*
X83843571Y-115999999D01*
X84367380Y-115999999D02*
X83367380Y-115999999D01*
X83367380Y-115999999D02*
X83367380Y-115523809D01*
X83367380Y-114999999D02*
X83605476Y-114999999D01*
X83510238Y-115238094D02*
X83605476Y-114999999D01*
X83605476Y-114999999D02*
X83510238Y-114761904D01*
X83795952Y-115142856D02*
X83605476Y-114999999D01*
X83605476Y-114999999D02*
X83795952Y-114857142D01*
X83367380Y-114238094D02*
X83605476Y-114238094D01*
X83510238Y-114476189D02*
X83605476Y-114238094D01*
X83605476Y-114238094D02*
X83510238Y-113999999D01*
X83795952Y-114380951D02*
X83605476Y-114238094D01*
X83605476Y-114238094D02*
X83795952Y-114095237D01*
%TO.C,BZ1*%
X47395857Y-61977380D02*
X47395857Y-60977380D01*
X47872047Y-61977380D02*
X47872047Y-60977380D01*
X47872047Y-60977380D02*
X48205380Y-61691666D01*
X48205380Y-61691666D02*
X48538713Y-60977380D01*
X48538713Y-60977380D02*
X48538713Y-61977380D01*
X48872047Y-60977380D02*
X49443475Y-60977380D01*
X49157761Y-61977380D02*
X49157761Y-60977380D01*
X50300618Y-61977380D02*
X49729190Y-61977380D01*
X50014904Y-61977380D02*
X50014904Y-60977380D01*
X50014904Y-60977380D02*
X49919666Y-61120238D01*
X49919666Y-61120238D02*
X49824428Y-61215476D01*
X49824428Y-61215476D02*
X49729190Y-61263095D01*
X50681571Y-61072619D02*
X50729190Y-61025000D01*
X50729190Y-61025000D02*
X50824428Y-60977380D01*
X50824428Y-60977380D02*
X51062523Y-60977380D01*
X51062523Y-60977380D02*
X51157761Y-61025000D01*
X51157761Y-61025000D02*
X51205380Y-61072619D01*
X51205380Y-61072619D02*
X51252999Y-61167857D01*
X51252999Y-61167857D02*
X51252999Y-61263095D01*
X51252999Y-61263095D02*
X51205380Y-61405952D01*
X51205380Y-61405952D02*
X50633952Y-61977380D01*
X50633952Y-61977380D02*
X51252999Y-61977380D01*
X51681571Y-61977380D02*
X51681571Y-60977380D01*
X51681571Y-60977380D02*
X51919666Y-60977380D01*
X51919666Y-60977380D02*
X52062523Y-61025000D01*
X52062523Y-61025000D02*
X52157761Y-61120238D01*
X52157761Y-61120238D02*
X52205380Y-61215476D01*
X52205380Y-61215476D02*
X52252999Y-61405952D01*
X52252999Y-61405952D02*
X52252999Y-61548809D01*
X52252999Y-61548809D02*
X52205380Y-61739285D01*
X52205380Y-61739285D02*
X52157761Y-61834523D01*
X52157761Y-61834523D02*
X52062523Y-61929761D01*
X52062523Y-61929761D02*
X51919666Y-61977380D01*
X51919666Y-61977380D02*
X51681571Y-61977380D01*
X52633952Y-61072619D02*
X52681571Y-61025000D01*
X52681571Y-61025000D02*
X52776809Y-60977380D01*
X52776809Y-60977380D02*
X53014904Y-60977380D01*
X53014904Y-60977380D02*
X53110142Y-61025000D01*
X53110142Y-61025000D02*
X53157761Y-61072619D01*
X53157761Y-61072619D02*
X53205380Y-61167857D01*
X53205380Y-61167857D02*
X53205380Y-61263095D01*
X53205380Y-61263095D02*
X53157761Y-61405952D01*
X53157761Y-61405952D02*
X52586333Y-61977380D01*
X52586333Y-61977380D02*
X53205380Y-61977380D01*
X53824428Y-60977380D02*
X53919666Y-60977380D01*
X53919666Y-60977380D02*
X54014904Y-61025000D01*
X54014904Y-61025000D02*
X54062523Y-61072619D01*
X54062523Y-61072619D02*
X54110142Y-61167857D01*
X54110142Y-61167857D02*
X54157761Y-61358333D01*
X54157761Y-61358333D02*
X54157761Y-61596428D01*
X54157761Y-61596428D02*
X54110142Y-61786904D01*
X54110142Y-61786904D02*
X54062523Y-61882142D01*
X54062523Y-61882142D02*
X54014904Y-61929761D01*
X54014904Y-61929761D02*
X53919666Y-61977380D01*
X53919666Y-61977380D02*
X53824428Y-61977380D01*
X53824428Y-61977380D02*
X53729190Y-61929761D01*
X53729190Y-61929761D02*
X53681571Y-61882142D01*
X53681571Y-61882142D02*
X53633952Y-61786904D01*
X53633952Y-61786904D02*
X53586333Y-61596428D01*
X53586333Y-61596428D02*
X53586333Y-61358333D01*
X53586333Y-61358333D02*
X53633952Y-61167857D01*
X53633952Y-61167857D02*
X53681571Y-61072619D01*
X53681571Y-61072619D02*
X53729190Y-61025000D01*
X53729190Y-61025000D02*
X53824428Y-60977380D01*
X54776809Y-60977380D02*
X54872047Y-60977380D01*
X54872047Y-60977380D02*
X54967285Y-61025000D01*
X54967285Y-61025000D02*
X55014904Y-61072619D01*
X55014904Y-61072619D02*
X55062523Y-61167857D01*
X55062523Y-61167857D02*
X55110142Y-61358333D01*
X55110142Y-61358333D02*
X55110142Y-61596428D01*
X55110142Y-61596428D02*
X55062523Y-61786904D01*
X55062523Y-61786904D02*
X55014904Y-61882142D01*
X55014904Y-61882142D02*
X54967285Y-61929761D01*
X54967285Y-61929761D02*
X54872047Y-61977380D01*
X54872047Y-61977380D02*
X54776809Y-61977380D01*
X54776809Y-61977380D02*
X54681571Y-61929761D01*
X54681571Y-61929761D02*
X54633952Y-61882142D01*
X54633952Y-61882142D02*
X54586333Y-61786904D01*
X54586333Y-61786904D02*
X54538714Y-61596428D01*
X54538714Y-61596428D02*
X54538714Y-61358333D01*
X54538714Y-61358333D02*
X54586333Y-61167857D01*
X54586333Y-61167857D02*
X54633952Y-61072619D01*
X54633952Y-61072619D02*
X54681571Y-61025000D01*
X54681571Y-61025000D02*
X54776809Y-60977380D01*
X56062523Y-61977380D02*
X55491095Y-61977380D01*
X55776809Y-61977380D02*
X55776809Y-60977380D01*
X55776809Y-60977380D02*
X55681571Y-61120238D01*
X55681571Y-61120238D02*
X55586333Y-61215476D01*
X55586333Y-61215476D02*
X55491095Y-61263095D01*
X56443476Y-61691666D02*
X56919666Y-61691666D01*
X56348238Y-61977380D02*
X56681571Y-60977380D01*
X56681571Y-60977380D02*
X57014904Y-61977380D01*
X57348238Y-61977380D02*
X57348238Y-60977380D01*
X57348238Y-60977380D02*
X57729190Y-60977380D01*
X57729190Y-60977380D02*
X57824428Y-61025000D01*
X57824428Y-61025000D02*
X57872047Y-61072619D01*
X57872047Y-61072619D02*
X57919666Y-61167857D01*
X57919666Y-61167857D02*
X57919666Y-61310714D01*
X57919666Y-61310714D02*
X57872047Y-61405952D01*
X57872047Y-61405952D02*
X57824428Y-61453571D01*
X57824428Y-61453571D02*
X57729190Y-61501190D01*
X57729190Y-61501190D02*
X57348238Y-61501190D01*
X58348238Y-61596428D02*
X59110143Y-61596428D01*
X59919666Y-61453571D02*
X60062523Y-61501190D01*
X60062523Y-61501190D02*
X60110142Y-61548809D01*
X60110142Y-61548809D02*
X60157761Y-61644047D01*
X60157761Y-61644047D02*
X60157761Y-61786904D01*
X60157761Y-61786904D02*
X60110142Y-61882142D01*
X60110142Y-61882142D02*
X60062523Y-61929761D01*
X60062523Y-61929761D02*
X59967285Y-61977380D01*
X59967285Y-61977380D02*
X59586333Y-61977380D01*
X59586333Y-61977380D02*
X59586333Y-60977380D01*
X59586333Y-60977380D02*
X59919666Y-60977380D01*
X59919666Y-60977380D02*
X60014904Y-61025000D01*
X60014904Y-61025000D02*
X60062523Y-61072619D01*
X60062523Y-61072619D02*
X60110142Y-61167857D01*
X60110142Y-61167857D02*
X60110142Y-61263095D01*
X60110142Y-61263095D02*
X60062523Y-61358333D01*
X60062523Y-61358333D02*
X60014904Y-61405952D01*
X60014904Y-61405952D02*
X59919666Y-61453571D01*
X59919666Y-61453571D02*
X59586333Y-61453571D01*
X61014904Y-61310714D02*
X61014904Y-61977380D01*
X60586333Y-61310714D02*
X60586333Y-61834523D01*
X60586333Y-61834523D02*
X60633952Y-61929761D01*
X60633952Y-61929761D02*
X60729190Y-61977380D01*
X60729190Y-61977380D02*
X60872047Y-61977380D01*
X60872047Y-61977380D02*
X60967285Y-61929761D01*
X60967285Y-61929761D02*
X61014904Y-61882142D01*
X61395857Y-61310714D02*
X61919666Y-61310714D01*
X61919666Y-61310714D02*
X61395857Y-61977380D01*
X61395857Y-61977380D02*
X61919666Y-61977380D01*
X62205381Y-61310714D02*
X62729190Y-61310714D01*
X62729190Y-61310714D02*
X62205381Y-61977380D01*
X62205381Y-61977380D02*
X62729190Y-61977380D01*
X63491095Y-61929761D02*
X63395857Y-61977380D01*
X63395857Y-61977380D02*
X63205381Y-61977380D01*
X63205381Y-61977380D02*
X63110143Y-61929761D01*
X63110143Y-61929761D02*
X63062524Y-61834523D01*
X63062524Y-61834523D02*
X63062524Y-61453571D01*
X63062524Y-61453571D02*
X63110143Y-61358333D01*
X63110143Y-61358333D02*
X63205381Y-61310714D01*
X63205381Y-61310714D02*
X63395857Y-61310714D01*
X63395857Y-61310714D02*
X63491095Y-61358333D01*
X63491095Y-61358333D02*
X63538714Y-61453571D01*
X63538714Y-61453571D02*
X63538714Y-61548809D01*
X63538714Y-61548809D02*
X63062524Y-61644047D01*
X63967286Y-61977380D02*
X63967286Y-61310714D01*
X63967286Y-61501190D02*
X64014905Y-61405952D01*
X64014905Y-61405952D02*
X64062524Y-61358333D01*
X64062524Y-61358333D02*
X64157762Y-61310714D01*
X64157762Y-61310714D02*
X64253000Y-61310714D01*
X54872047Y-47453571D02*
X55014904Y-47501190D01*
X55014904Y-47501190D02*
X55062523Y-47548809D01*
X55062523Y-47548809D02*
X55110142Y-47644047D01*
X55110142Y-47644047D02*
X55110142Y-47786904D01*
X55110142Y-47786904D02*
X55062523Y-47882142D01*
X55062523Y-47882142D02*
X55014904Y-47929761D01*
X55014904Y-47929761D02*
X54919666Y-47977380D01*
X54919666Y-47977380D02*
X54538714Y-47977380D01*
X54538714Y-47977380D02*
X54538714Y-46977380D01*
X54538714Y-46977380D02*
X54872047Y-46977380D01*
X54872047Y-46977380D02*
X54967285Y-47025000D01*
X54967285Y-47025000D02*
X55014904Y-47072619D01*
X55014904Y-47072619D02*
X55062523Y-47167857D01*
X55062523Y-47167857D02*
X55062523Y-47263095D01*
X55062523Y-47263095D02*
X55014904Y-47358333D01*
X55014904Y-47358333D02*
X54967285Y-47405952D01*
X54967285Y-47405952D02*
X54872047Y-47453571D01*
X54872047Y-47453571D02*
X54538714Y-47453571D01*
X55443476Y-46977380D02*
X56110142Y-46977380D01*
X56110142Y-46977380D02*
X55443476Y-47977380D01*
X55443476Y-47977380D02*
X56110142Y-47977380D01*
X57014904Y-47977380D02*
X56443476Y-47977380D01*
X56729190Y-47977380D02*
X56729190Y-46977380D01*
X56729190Y-46977380D02*
X56633952Y-47120238D01*
X56633952Y-47120238D02*
X56538714Y-47215476D01*
X56538714Y-47215476D02*
X56443476Y-47263095D01*
X52122048Y-52796428D02*
X52883953Y-52796428D01*
X52503000Y-53177380D02*
X52503000Y-52415476D01*
%TO.C,D3*%
X71438380Y-110478380D02*
X71438380Y-109811714D01*
X71438380Y-109811714D02*
X72438380Y-110478380D01*
X72438380Y-110478380D02*
X72438380Y-109811714D01*
X72390761Y-109049809D02*
X72438380Y-109145047D01*
X72438380Y-109145047D02*
X72438380Y-109335523D01*
X72438380Y-109335523D02*
X72390761Y-109430761D01*
X72390761Y-109430761D02*
X72295523Y-109478380D01*
X72295523Y-109478380D02*
X71914571Y-109478380D01*
X71914571Y-109478380D02*
X71819333Y-109430761D01*
X71819333Y-109430761D02*
X71771714Y-109335523D01*
X71771714Y-109335523D02*
X71771714Y-109145047D01*
X71771714Y-109145047D02*
X71819333Y-109049809D01*
X71819333Y-109049809D02*
X71914571Y-109002190D01*
X71914571Y-109002190D02*
X72009809Y-109002190D01*
X72009809Y-109002190D02*
X72105047Y-109478380D01*
X71771714Y-108573618D02*
X72438380Y-108573618D01*
X71866952Y-108573618D02*
X71819333Y-108525999D01*
X71819333Y-108525999D02*
X71771714Y-108430761D01*
X71771714Y-108430761D02*
X71771714Y-108287904D01*
X71771714Y-108287904D02*
X71819333Y-108192666D01*
X71819333Y-108192666D02*
X71914571Y-108145047D01*
X71914571Y-108145047D02*
X72438380Y-108145047D01*
X72390761Y-107287904D02*
X72438380Y-107383142D01*
X72438380Y-107383142D02*
X72438380Y-107573618D01*
X72438380Y-107573618D02*
X72390761Y-107668856D01*
X72390761Y-107668856D02*
X72295523Y-107716475D01*
X72295523Y-107716475D02*
X71914571Y-107716475D01*
X71914571Y-107716475D02*
X71819333Y-107668856D01*
X71819333Y-107668856D02*
X71771714Y-107573618D01*
X71771714Y-107573618D02*
X71771714Y-107383142D01*
X71771714Y-107383142D02*
X71819333Y-107287904D01*
X71819333Y-107287904D02*
X71914571Y-107240285D01*
X71914571Y-107240285D02*
X72009809Y-107240285D01*
X72009809Y-107240285D02*
X72105047Y-107716475D01*
X72438380Y-106811713D02*
X71771714Y-106811713D01*
X71962190Y-106811713D02*
X71866952Y-106764094D01*
X71866952Y-106764094D02*
X71819333Y-106716475D01*
X71819333Y-106716475D02*
X71771714Y-106621237D01*
X71771714Y-106621237D02*
X71771714Y-106525999D01*
X72533619Y-106430761D02*
X72533619Y-105668856D01*
X71438380Y-105525998D02*
X71438380Y-104906951D01*
X71438380Y-104906951D02*
X71819333Y-105240284D01*
X71819333Y-105240284D02*
X71819333Y-105097427D01*
X71819333Y-105097427D02*
X71866952Y-105002189D01*
X71866952Y-105002189D02*
X71914571Y-104954570D01*
X71914571Y-104954570D02*
X72009809Y-104906951D01*
X72009809Y-104906951D02*
X72247904Y-104906951D01*
X72247904Y-104906951D02*
X72343142Y-104954570D01*
X72343142Y-104954570D02*
X72390761Y-105002189D01*
X72390761Y-105002189D02*
X72438380Y-105097427D01*
X72438380Y-105097427D02*
X72438380Y-105383141D01*
X72438380Y-105383141D02*
X72390761Y-105478379D01*
X72390761Y-105478379D02*
X72343142Y-105525998D01*
X72343142Y-104478379D02*
X72390761Y-104430760D01*
X72390761Y-104430760D02*
X72438380Y-104478379D01*
X72438380Y-104478379D02*
X72390761Y-104525998D01*
X72390761Y-104525998D02*
X72343142Y-104478379D01*
X72343142Y-104478379D02*
X72438380Y-104478379D01*
X71438380Y-104097427D02*
X71438380Y-103478380D01*
X71438380Y-103478380D02*
X71819333Y-103811713D01*
X71819333Y-103811713D02*
X71819333Y-103668856D01*
X71819333Y-103668856D02*
X71866952Y-103573618D01*
X71866952Y-103573618D02*
X71914571Y-103525999D01*
X71914571Y-103525999D02*
X72009809Y-103478380D01*
X72009809Y-103478380D02*
X72247904Y-103478380D01*
X72247904Y-103478380D02*
X72343142Y-103525999D01*
X72343142Y-103525999D02*
X72390761Y-103573618D01*
X72390761Y-103573618D02*
X72438380Y-103668856D01*
X72438380Y-103668856D02*
X72438380Y-103954570D01*
X72438380Y-103954570D02*
X72390761Y-104049808D01*
X72390761Y-104049808D02*
X72343142Y-104097427D01*
X71438380Y-103192665D02*
X72438380Y-102859332D01*
X72438380Y-102859332D02*
X71438380Y-102525999D01*
X75408380Y-107931594D02*
X74408380Y-107931594D01*
X74408380Y-107931594D02*
X74408380Y-107693499D01*
X74408380Y-107693499D02*
X74456000Y-107550642D01*
X74456000Y-107550642D02*
X74551238Y-107455404D01*
X74551238Y-107455404D02*
X74646476Y-107407785D01*
X74646476Y-107407785D02*
X74836952Y-107360166D01*
X74836952Y-107360166D02*
X74979809Y-107360166D01*
X74979809Y-107360166D02*
X75170285Y-107407785D01*
X75170285Y-107407785D02*
X75265523Y-107455404D01*
X75265523Y-107455404D02*
X75360761Y-107550642D01*
X75360761Y-107550642D02*
X75408380Y-107693499D01*
X75408380Y-107693499D02*
X75408380Y-107931594D01*
X74408380Y-107026832D02*
X74408380Y-106407785D01*
X74408380Y-106407785D02*
X74789333Y-106741118D01*
X74789333Y-106741118D02*
X74789333Y-106598261D01*
X74789333Y-106598261D02*
X74836952Y-106503023D01*
X74836952Y-106503023D02*
X74884571Y-106455404D01*
X74884571Y-106455404D02*
X74979809Y-106407785D01*
X74979809Y-106407785D02*
X75217904Y-106407785D01*
X75217904Y-106407785D02*
X75313142Y-106455404D01*
X75313142Y-106455404D02*
X75360761Y-106503023D01*
X75360761Y-106503023D02*
X75408380Y-106598261D01*
X75408380Y-106598261D02*
X75408380Y-106883975D01*
X75408380Y-106883975D02*
X75360761Y-106979213D01*
X75360761Y-106979213D02*
X75313142Y-107026832D01*
X77808380Y-101707904D02*
X76808380Y-101707904D01*
X77808380Y-101136476D02*
X77236952Y-101565047D01*
X76808380Y-101136476D02*
X77379809Y-101707904D01*
%TO.C,D4*%
X12466380Y-102556857D02*
X12466380Y-103033047D01*
X12466380Y-103033047D02*
X11466380Y-103033047D01*
X11942571Y-102223523D02*
X11942571Y-101890190D01*
X12466380Y-101747333D02*
X12466380Y-102223523D01*
X12466380Y-102223523D02*
X11466380Y-102223523D01*
X11466380Y-102223523D02*
X11466380Y-101747333D01*
X12466380Y-101318761D02*
X11466380Y-101318761D01*
X11466380Y-101318761D02*
X11466380Y-101080666D01*
X11466380Y-101080666D02*
X11514000Y-100937809D01*
X11514000Y-100937809D02*
X11609238Y-100842571D01*
X11609238Y-100842571D02*
X11704476Y-100794952D01*
X11704476Y-100794952D02*
X11894952Y-100747333D01*
X11894952Y-100747333D02*
X12037809Y-100747333D01*
X12037809Y-100747333D02*
X12228285Y-100794952D01*
X12228285Y-100794952D02*
X12323523Y-100842571D01*
X12323523Y-100842571D02*
X12418761Y-100937809D01*
X12418761Y-100937809D02*
X12466380Y-101080666D01*
X12466380Y-101080666D02*
X12466380Y-101318761D01*
%TO.C,REF\u002A\u002A*%
X8567380Y-125119047D02*
X7567380Y-125119047D01*
X7567380Y-125119047D02*
X8281666Y-124785714D01*
X8281666Y-124785714D02*
X7567380Y-124452381D01*
X7567380Y-124452381D02*
X8567380Y-124452381D01*
X8567380Y-123833333D02*
X8519761Y-123928571D01*
X8519761Y-123928571D02*
X8472142Y-123976190D01*
X8472142Y-123976190D02*
X8376904Y-124023809D01*
X8376904Y-124023809D02*
X8091190Y-124023809D01*
X8091190Y-124023809D02*
X7995952Y-123976190D01*
X7995952Y-123976190D02*
X7948333Y-123928571D01*
X7948333Y-123928571D02*
X7900714Y-123833333D01*
X7900714Y-123833333D02*
X7900714Y-123690476D01*
X7900714Y-123690476D02*
X7948333Y-123595238D01*
X7948333Y-123595238D02*
X7995952Y-123547619D01*
X7995952Y-123547619D02*
X8091190Y-123500000D01*
X8091190Y-123500000D02*
X8376904Y-123500000D01*
X8376904Y-123500000D02*
X8472142Y-123547619D01*
X8472142Y-123547619D02*
X8519761Y-123595238D01*
X8519761Y-123595238D02*
X8567380Y-123690476D01*
X8567380Y-123690476D02*
X8567380Y-123833333D01*
X7900714Y-122642857D02*
X8567380Y-122642857D01*
X7900714Y-123071428D02*
X8424523Y-123071428D01*
X8424523Y-123071428D02*
X8519761Y-123023809D01*
X8519761Y-123023809D02*
X8567380Y-122928571D01*
X8567380Y-122928571D02*
X8567380Y-122785714D01*
X8567380Y-122785714D02*
X8519761Y-122690476D01*
X8519761Y-122690476D02*
X8472142Y-122642857D01*
X7900714Y-122166666D02*
X8567380Y-122166666D01*
X7995952Y-122166666D02*
X7948333Y-122119047D01*
X7948333Y-122119047D02*
X7900714Y-122023809D01*
X7900714Y-122023809D02*
X7900714Y-121880952D01*
X7900714Y-121880952D02*
X7948333Y-121785714D01*
X7948333Y-121785714D02*
X8043571Y-121738095D01*
X8043571Y-121738095D02*
X8567380Y-121738095D01*
X7900714Y-121404761D02*
X7900714Y-121023809D01*
X7567380Y-121261904D02*
X8424523Y-121261904D01*
X8424523Y-121261904D02*
X8519761Y-121214285D01*
X8519761Y-121214285D02*
X8567380Y-121119047D01*
X8567380Y-121119047D02*
X8567380Y-121023809D01*
X8567380Y-120690475D02*
X7900714Y-120690475D01*
X7567380Y-120690475D02*
X7615000Y-120738094D01*
X7615000Y-120738094D02*
X7662619Y-120690475D01*
X7662619Y-120690475D02*
X7615000Y-120642856D01*
X7615000Y-120642856D02*
X7567380Y-120690475D01*
X7567380Y-120690475D02*
X7662619Y-120690475D01*
X7900714Y-120214285D02*
X8567380Y-120214285D01*
X7995952Y-120214285D02*
X7948333Y-120166666D01*
X7948333Y-120166666D02*
X7900714Y-120071428D01*
X7900714Y-120071428D02*
X7900714Y-119928571D01*
X7900714Y-119928571D02*
X7948333Y-119833333D01*
X7948333Y-119833333D02*
X8043571Y-119785714D01*
X8043571Y-119785714D02*
X8567380Y-119785714D01*
X7900714Y-118880952D02*
X8710238Y-118880952D01*
X8710238Y-118880952D02*
X8805476Y-118928571D01*
X8805476Y-118928571D02*
X8853095Y-118976190D01*
X8853095Y-118976190D02*
X8900714Y-119071428D01*
X8900714Y-119071428D02*
X8900714Y-119214285D01*
X8900714Y-119214285D02*
X8853095Y-119309523D01*
X8519761Y-118880952D02*
X8567380Y-118976190D01*
X8567380Y-118976190D02*
X8567380Y-119166666D01*
X8567380Y-119166666D02*
X8519761Y-119261904D01*
X8519761Y-119261904D02*
X8472142Y-119309523D01*
X8472142Y-119309523D02*
X8376904Y-119357142D01*
X8376904Y-119357142D02*
X8091190Y-119357142D01*
X8091190Y-119357142D02*
X7995952Y-119309523D01*
X7995952Y-119309523D02*
X7948333Y-119261904D01*
X7948333Y-119261904D02*
X7900714Y-119166666D01*
X7900714Y-119166666D02*
X7900714Y-118976190D01*
X7900714Y-118976190D02*
X7948333Y-118880952D01*
X8567380Y-118404761D02*
X7567380Y-118404761D01*
X8043571Y-118404761D02*
X8043571Y-117833333D01*
X8567380Y-117833333D02*
X7567380Y-117833333D01*
X8567380Y-117214285D02*
X8519761Y-117309523D01*
X8519761Y-117309523D02*
X8472142Y-117357142D01*
X8472142Y-117357142D02*
X8376904Y-117404761D01*
X8376904Y-117404761D02*
X8091190Y-117404761D01*
X8091190Y-117404761D02*
X7995952Y-117357142D01*
X7995952Y-117357142D02*
X7948333Y-117309523D01*
X7948333Y-117309523D02*
X7900714Y-117214285D01*
X7900714Y-117214285D02*
X7900714Y-117071428D01*
X7900714Y-117071428D02*
X7948333Y-116976190D01*
X7948333Y-116976190D02*
X7995952Y-116928571D01*
X7995952Y-116928571D02*
X8091190Y-116880952D01*
X8091190Y-116880952D02*
X8376904Y-116880952D01*
X8376904Y-116880952D02*
X8472142Y-116928571D01*
X8472142Y-116928571D02*
X8519761Y-116976190D01*
X8519761Y-116976190D02*
X8567380Y-117071428D01*
X8567380Y-117071428D02*
X8567380Y-117214285D01*
X8567380Y-116309523D02*
X8519761Y-116404761D01*
X8519761Y-116404761D02*
X8424523Y-116452380D01*
X8424523Y-116452380D02*
X7567380Y-116452380D01*
X8519761Y-115547618D02*
X8567380Y-115642856D01*
X8567380Y-115642856D02*
X8567380Y-115833332D01*
X8567380Y-115833332D02*
X8519761Y-115928570D01*
X8519761Y-115928570D02*
X8424523Y-115976189D01*
X8424523Y-115976189D02*
X8043571Y-115976189D01*
X8043571Y-115976189D02*
X7948333Y-115928570D01*
X7948333Y-115928570D02*
X7900714Y-115833332D01*
X7900714Y-115833332D02*
X7900714Y-115642856D01*
X7900714Y-115642856D02*
X7948333Y-115547618D01*
X7948333Y-115547618D02*
X8043571Y-115499999D01*
X8043571Y-115499999D02*
X8138809Y-115499999D01*
X8138809Y-115499999D02*
X8234047Y-115976189D01*
X8662619Y-115309523D02*
X8662619Y-114547618D01*
X7567380Y-114404760D02*
X7567380Y-113785713D01*
X7567380Y-113785713D02*
X7948333Y-114119046D01*
X7948333Y-114119046D02*
X7948333Y-113976189D01*
X7948333Y-113976189D02*
X7995952Y-113880951D01*
X7995952Y-113880951D02*
X8043571Y-113833332D01*
X8043571Y-113833332D02*
X8138809Y-113785713D01*
X8138809Y-113785713D02*
X8376904Y-113785713D01*
X8376904Y-113785713D02*
X8472142Y-113833332D01*
X8472142Y-113833332D02*
X8519761Y-113880951D01*
X8519761Y-113880951D02*
X8567380Y-113976189D01*
X8567380Y-113976189D02*
X8567380Y-114261903D01*
X8567380Y-114261903D02*
X8519761Y-114357141D01*
X8519761Y-114357141D02*
X8472142Y-114404760D01*
X8472142Y-113357141D02*
X8519761Y-113309522D01*
X8519761Y-113309522D02*
X8567380Y-113357141D01*
X8567380Y-113357141D02*
X8519761Y-113404760D01*
X8519761Y-113404760D02*
X8472142Y-113357141D01*
X8472142Y-113357141D02*
X8567380Y-113357141D01*
X7662619Y-112928570D02*
X7615000Y-112880951D01*
X7615000Y-112880951D02*
X7567380Y-112785713D01*
X7567380Y-112785713D02*
X7567380Y-112547618D01*
X7567380Y-112547618D02*
X7615000Y-112452380D01*
X7615000Y-112452380D02*
X7662619Y-112404761D01*
X7662619Y-112404761D02*
X7757857Y-112357142D01*
X7757857Y-112357142D02*
X7853095Y-112357142D01*
X7853095Y-112357142D02*
X7995952Y-112404761D01*
X7995952Y-112404761D02*
X8567380Y-112976189D01*
X8567380Y-112976189D02*
X8567380Y-112357142D01*
X8567380Y-111928570D02*
X7900714Y-111928570D01*
X7995952Y-111928570D02*
X7948333Y-111880951D01*
X7948333Y-111880951D02*
X7900714Y-111785713D01*
X7900714Y-111785713D02*
X7900714Y-111642856D01*
X7900714Y-111642856D02*
X7948333Y-111547618D01*
X7948333Y-111547618D02*
X8043571Y-111499999D01*
X8043571Y-111499999D02*
X8567380Y-111499999D01*
X8043571Y-111499999D02*
X7948333Y-111452380D01*
X7948333Y-111452380D02*
X7900714Y-111357142D01*
X7900714Y-111357142D02*
X7900714Y-111214285D01*
X7900714Y-111214285D02*
X7948333Y-111119046D01*
X7948333Y-111119046D02*
X8043571Y-111071427D01*
X8043571Y-111071427D02*
X8567380Y-111071427D01*
X8567380Y-110595237D02*
X7900714Y-110595237D01*
X7995952Y-110595237D02*
X7948333Y-110547618D01*
X7948333Y-110547618D02*
X7900714Y-110452380D01*
X7900714Y-110452380D02*
X7900714Y-110309523D01*
X7900714Y-110309523D02*
X7948333Y-110214285D01*
X7948333Y-110214285D02*
X8043571Y-110166666D01*
X8043571Y-110166666D02*
X8567380Y-110166666D01*
X8043571Y-110166666D02*
X7948333Y-110119047D01*
X7948333Y-110119047D02*
X7900714Y-110023809D01*
X7900714Y-110023809D02*
X7900714Y-109880952D01*
X7900714Y-109880952D02*
X7948333Y-109785713D01*
X7948333Y-109785713D02*
X8043571Y-109738094D01*
X8043571Y-109738094D02*
X8567380Y-109738094D01*
X8662619Y-109500000D02*
X8662619Y-108738095D01*
X8567380Y-108499999D02*
X7567380Y-108499999D01*
X7567380Y-108499999D02*
X8281666Y-108166666D01*
X8281666Y-108166666D02*
X7567380Y-107833333D01*
X7567380Y-107833333D02*
X8567380Y-107833333D01*
X7567380Y-107452380D02*
X7567380Y-106833333D01*
X7567380Y-106833333D02*
X7948333Y-107166666D01*
X7948333Y-107166666D02*
X7948333Y-107023809D01*
X7948333Y-107023809D02*
X7995952Y-106928571D01*
X7995952Y-106928571D02*
X8043571Y-106880952D01*
X8043571Y-106880952D02*
X8138809Y-106833333D01*
X8138809Y-106833333D02*
X8376904Y-106833333D01*
X8376904Y-106833333D02*
X8472142Y-106880952D01*
X8472142Y-106880952D02*
X8519761Y-106928571D01*
X8519761Y-106928571D02*
X8567380Y-107023809D01*
X8567380Y-107023809D02*
X8567380Y-107309523D01*
X8567380Y-107309523D02*
X8519761Y-107404761D01*
X8519761Y-107404761D02*
X8472142Y-107452380D01*
X4367380Y-117333333D02*
X3891190Y-117666666D01*
X4367380Y-117904761D02*
X3367380Y-117904761D01*
X3367380Y-117904761D02*
X3367380Y-117523809D01*
X3367380Y-117523809D02*
X3415000Y-117428571D01*
X3415000Y-117428571D02*
X3462619Y-117380952D01*
X3462619Y-117380952D02*
X3557857Y-117333333D01*
X3557857Y-117333333D02*
X3700714Y-117333333D01*
X3700714Y-117333333D02*
X3795952Y-117380952D01*
X3795952Y-117380952D02*
X3843571Y-117428571D01*
X3843571Y-117428571D02*
X3891190Y-117523809D01*
X3891190Y-117523809D02*
X3891190Y-117904761D01*
X3843571Y-116904761D02*
X3843571Y-116571428D01*
X4367380Y-116428571D02*
X4367380Y-116904761D01*
X4367380Y-116904761D02*
X3367380Y-116904761D01*
X3367380Y-116904761D02*
X3367380Y-116428571D01*
X3843571Y-115666666D02*
X3843571Y-115999999D01*
X4367380Y-115999999D02*
X3367380Y-115999999D01*
X3367380Y-115999999D02*
X3367380Y-115523809D01*
X3367380Y-114999999D02*
X3605476Y-114999999D01*
X3510238Y-115238094D02*
X3605476Y-114999999D01*
X3605476Y-114999999D02*
X3510238Y-114761904D01*
X3795952Y-115142856D02*
X3605476Y-114999999D01*
X3605476Y-114999999D02*
X3795952Y-114857142D01*
X3367380Y-114238094D02*
X3605476Y-114238094D01*
X3510238Y-114476189D02*
X3605476Y-114238094D01*
X3605476Y-114238094D02*
X3510238Y-113999999D01*
X3795952Y-114380951D02*
X3605476Y-114238094D01*
X3605476Y-114238094D02*
X3795952Y-114095237D01*
%TO.C,R17*%
X58126428Y-39535714D02*
X58126428Y-40202380D01*
X57888333Y-39154761D02*
X57650238Y-39869047D01*
X57650238Y-39869047D02*
X58269285Y-39869047D01*
X58650238Y-40107142D02*
X58697857Y-40154761D01*
X58697857Y-40154761D02*
X58650238Y-40202380D01*
X58650238Y-40202380D02*
X58602619Y-40154761D01*
X58602619Y-40154761D02*
X58650238Y-40107142D01*
X58650238Y-40107142D02*
X58650238Y-40202380D01*
X59031190Y-39202380D02*
X59697856Y-39202380D01*
X59697856Y-39202380D02*
X59269285Y-40202380D01*
X60078809Y-40202380D02*
X60078809Y-39202380D01*
X60174047Y-39821428D02*
X60459761Y-40202380D01*
X60459761Y-39535714D02*
X60078809Y-39916666D01*
X58412142Y-37832380D02*
X58078809Y-37356190D01*
X57840714Y-37832380D02*
X57840714Y-36832380D01*
X57840714Y-36832380D02*
X58221666Y-36832380D01*
X58221666Y-36832380D02*
X58316904Y-36880000D01*
X58316904Y-36880000D02*
X58364523Y-36927619D01*
X58364523Y-36927619D02*
X58412142Y-37022857D01*
X58412142Y-37022857D02*
X58412142Y-37165714D01*
X58412142Y-37165714D02*
X58364523Y-37260952D01*
X58364523Y-37260952D02*
X58316904Y-37308571D01*
X58316904Y-37308571D02*
X58221666Y-37356190D01*
X58221666Y-37356190D02*
X57840714Y-37356190D01*
X59364523Y-37832380D02*
X58793095Y-37832380D01*
X59078809Y-37832380D02*
X59078809Y-36832380D01*
X59078809Y-36832380D02*
X58983571Y-36975238D01*
X58983571Y-36975238D02*
X58888333Y-37070476D01*
X58888333Y-37070476D02*
X58793095Y-37118095D01*
X59697857Y-36832380D02*
X60364523Y-36832380D01*
X60364523Y-36832380D02*
X59935952Y-37832380D01*
%TO.C,R9*%
X58306380Y-98175666D02*
X58306380Y-98747094D01*
X58306380Y-98461380D02*
X57306380Y-98461380D01*
X57306380Y-98461380D02*
X57449238Y-98556618D01*
X57449238Y-98556618D02*
X57544476Y-98651856D01*
X57544476Y-98651856D02*
X57592095Y-98747094D01*
X57306380Y-97556618D02*
X57306380Y-97461380D01*
X57306380Y-97461380D02*
X57354000Y-97366142D01*
X57354000Y-97366142D02*
X57401619Y-97318523D01*
X57401619Y-97318523D02*
X57496857Y-97270904D01*
X57496857Y-97270904D02*
X57687333Y-97223285D01*
X57687333Y-97223285D02*
X57925428Y-97223285D01*
X57925428Y-97223285D02*
X58115904Y-97270904D01*
X58115904Y-97270904D02*
X58211142Y-97318523D01*
X58211142Y-97318523D02*
X58258761Y-97366142D01*
X58258761Y-97366142D02*
X58306380Y-97461380D01*
X58306380Y-97461380D02*
X58306380Y-97556618D01*
X58306380Y-97556618D02*
X58258761Y-97651856D01*
X58258761Y-97651856D02*
X58211142Y-97699475D01*
X58211142Y-97699475D02*
X58115904Y-97747094D01*
X58115904Y-97747094D02*
X57925428Y-97794713D01*
X57925428Y-97794713D02*
X57687333Y-97794713D01*
X57687333Y-97794713D02*
X57496857Y-97747094D01*
X57496857Y-97747094D02*
X57401619Y-97699475D01*
X57401619Y-97699475D02*
X57354000Y-97651856D01*
X57354000Y-97651856D02*
X57306380Y-97556618D01*
X57306380Y-96604237D02*
X57306380Y-96508999D01*
X57306380Y-96508999D02*
X57354000Y-96413761D01*
X57354000Y-96413761D02*
X57401619Y-96366142D01*
X57401619Y-96366142D02*
X57496857Y-96318523D01*
X57496857Y-96318523D02*
X57687333Y-96270904D01*
X57687333Y-96270904D02*
X57925428Y-96270904D01*
X57925428Y-96270904D02*
X58115904Y-96318523D01*
X58115904Y-96318523D02*
X58211142Y-96366142D01*
X58211142Y-96366142D02*
X58258761Y-96413761D01*
X58258761Y-96413761D02*
X58306380Y-96508999D01*
X58306380Y-96508999D02*
X58306380Y-96604237D01*
X58306380Y-96604237D02*
X58258761Y-96699475D01*
X58258761Y-96699475D02*
X58211142Y-96747094D01*
X58211142Y-96747094D02*
X58115904Y-96794713D01*
X58115904Y-96794713D02*
X57925428Y-96842332D01*
X57925428Y-96842332D02*
X57687333Y-96842332D01*
X57687333Y-96842332D02*
X57496857Y-96794713D01*
X57496857Y-96794713D02*
X57401619Y-96747094D01*
X57401619Y-96747094D02*
X57354000Y-96699475D01*
X57354000Y-96699475D02*
X57306380Y-96604237D01*
X60676380Y-97675666D02*
X60200190Y-98008999D01*
X60676380Y-98247094D02*
X59676380Y-98247094D01*
X59676380Y-98247094D02*
X59676380Y-97866142D01*
X59676380Y-97866142D02*
X59724000Y-97770904D01*
X59724000Y-97770904D02*
X59771619Y-97723285D01*
X59771619Y-97723285D02*
X59866857Y-97675666D01*
X59866857Y-97675666D02*
X60009714Y-97675666D01*
X60009714Y-97675666D02*
X60104952Y-97723285D01*
X60104952Y-97723285D02*
X60152571Y-97770904D01*
X60152571Y-97770904D02*
X60200190Y-97866142D01*
X60200190Y-97866142D02*
X60200190Y-98247094D01*
X60676380Y-97199475D02*
X60676380Y-97008999D01*
X60676380Y-97008999D02*
X60628761Y-96913761D01*
X60628761Y-96913761D02*
X60581142Y-96866142D01*
X60581142Y-96866142D02*
X60438285Y-96770904D01*
X60438285Y-96770904D02*
X60247809Y-96723285D01*
X60247809Y-96723285D02*
X59866857Y-96723285D01*
X59866857Y-96723285D02*
X59771619Y-96770904D01*
X59771619Y-96770904D02*
X59724000Y-96818523D01*
X59724000Y-96818523D02*
X59676380Y-96913761D01*
X59676380Y-96913761D02*
X59676380Y-97104237D01*
X59676380Y-97104237D02*
X59724000Y-97199475D01*
X59724000Y-97199475D02*
X59771619Y-97247094D01*
X59771619Y-97247094D02*
X59866857Y-97294713D01*
X59866857Y-97294713D02*
X60104952Y-97294713D01*
X60104952Y-97294713D02*
X60200190Y-97247094D01*
X60200190Y-97247094D02*
X60247809Y-97199475D01*
X60247809Y-97199475D02*
X60295428Y-97104237D01*
X60295428Y-97104237D02*
X60295428Y-96913761D01*
X60295428Y-96913761D02*
X60247809Y-96818523D01*
X60247809Y-96818523D02*
X60200190Y-96770904D01*
X60200190Y-96770904D02*
X60104952Y-96723285D01*
%TO.C,R18*%
X57745428Y-47663714D02*
X57745428Y-48330380D01*
X57507333Y-47282761D02*
X57269238Y-47997047D01*
X57269238Y-47997047D02*
X57888285Y-47997047D01*
X58269238Y-48235142D02*
X58316857Y-48282761D01*
X58316857Y-48282761D02*
X58269238Y-48330380D01*
X58269238Y-48330380D02*
X58221619Y-48282761D01*
X58221619Y-48282761D02*
X58269238Y-48235142D01*
X58269238Y-48235142D02*
X58269238Y-48330380D01*
X58650190Y-47330380D02*
X59316856Y-47330380D01*
X59316856Y-47330380D02*
X58888285Y-48330380D01*
X59697809Y-48330380D02*
X59697809Y-47330380D01*
X59793047Y-47949428D02*
X60078761Y-48330380D01*
X60078761Y-47663714D02*
X59697809Y-48044666D01*
X58031142Y-45960380D02*
X57697809Y-45484190D01*
X57459714Y-45960380D02*
X57459714Y-44960380D01*
X57459714Y-44960380D02*
X57840666Y-44960380D01*
X57840666Y-44960380D02*
X57935904Y-45008000D01*
X57935904Y-45008000D02*
X57983523Y-45055619D01*
X57983523Y-45055619D02*
X58031142Y-45150857D01*
X58031142Y-45150857D02*
X58031142Y-45293714D01*
X58031142Y-45293714D02*
X57983523Y-45388952D01*
X57983523Y-45388952D02*
X57935904Y-45436571D01*
X57935904Y-45436571D02*
X57840666Y-45484190D01*
X57840666Y-45484190D02*
X57459714Y-45484190D01*
X58983523Y-45960380D02*
X58412095Y-45960380D01*
X58697809Y-45960380D02*
X58697809Y-44960380D01*
X58697809Y-44960380D02*
X58602571Y-45103238D01*
X58602571Y-45103238D02*
X58507333Y-45198476D01*
X58507333Y-45198476D02*
X58412095Y-45246095D01*
X59554952Y-45388952D02*
X59459714Y-45341333D01*
X59459714Y-45341333D02*
X59412095Y-45293714D01*
X59412095Y-45293714D02*
X59364476Y-45198476D01*
X59364476Y-45198476D02*
X59364476Y-45150857D01*
X59364476Y-45150857D02*
X59412095Y-45055619D01*
X59412095Y-45055619D02*
X59459714Y-45008000D01*
X59459714Y-45008000D02*
X59554952Y-44960380D01*
X59554952Y-44960380D02*
X59745428Y-44960380D01*
X59745428Y-44960380D02*
X59840666Y-45008000D01*
X59840666Y-45008000D02*
X59888285Y-45055619D01*
X59888285Y-45055619D02*
X59935904Y-45150857D01*
X59935904Y-45150857D02*
X59935904Y-45198476D01*
X59935904Y-45198476D02*
X59888285Y-45293714D01*
X59888285Y-45293714D02*
X59840666Y-45341333D01*
X59840666Y-45341333D02*
X59745428Y-45388952D01*
X59745428Y-45388952D02*
X59554952Y-45388952D01*
X59554952Y-45388952D02*
X59459714Y-45436571D01*
X59459714Y-45436571D02*
X59412095Y-45484190D01*
X59412095Y-45484190D02*
X59364476Y-45579428D01*
X59364476Y-45579428D02*
X59364476Y-45769904D01*
X59364476Y-45769904D02*
X59412095Y-45865142D01*
X59412095Y-45865142D02*
X59459714Y-45912761D01*
X59459714Y-45912761D02*
X59554952Y-45960380D01*
X59554952Y-45960380D02*
X59745428Y-45960380D01*
X59745428Y-45960380D02*
X59840666Y-45912761D01*
X59840666Y-45912761D02*
X59888285Y-45865142D01*
X59888285Y-45865142D02*
X59935904Y-45769904D01*
X59935904Y-45769904D02*
X59935904Y-45579428D01*
X59935904Y-45579428D02*
X59888285Y-45484190D01*
X59888285Y-45484190D02*
X59840666Y-45436571D01*
X59840666Y-45436571D02*
X59745428Y-45388952D01*
%TO.C,R5*%
X5386380Y-93644713D02*
X5386380Y-93025666D01*
X5386380Y-93025666D02*
X5767333Y-93358999D01*
X5767333Y-93358999D02*
X5767333Y-93216142D01*
X5767333Y-93216142D02*
X5814952Y-93120904D01*
X5814952Y-93120904D02*
X5862571Y-93073285D01*
X5862571Y-93073285D02*
X5957809Y-93025666D01*
X5957809Y-93025666D02*
X6195904Y-93025666D01*
X6195904Y-93025666D02*
X6291142Y-93073285D01*
X6291142Y-93073285D02*
X6338761Y-93120904D01*
X6338761Y-93120904D02*
X6386380Y-93216142D01*
X6386380Y-93216142D02*
X6386380Y-93501856D01*
X6386380Y-93501856D02*
X6338761Y-93597094D01*
X6338761Y-93597094D02*
X6291142Y-93644713D01*
X5386380Y-92692332D02*
X5386380Y-92073285D01*
X5386380Y-92073285D02*
X5767333Y-92406618D01*
X5767333Y-92406618D02*
X5767333Y-92263761D01*
X5767333Y-92263761D02*
X5814952Y-92168523D01*
X5814952Y-92168523D02*
X5862571Y-92120904D01*
X5862571Y-92120904D02*
X5957809Y-92073285D01*
X5957809Y-92073285D02*
X6195904Y-92073285D01*
X6195904Y-92073285D02*
X6291142Y-92120904D01*
X6291142Y-92120904D02*
X6338761Y-92168523D01*
X6338761Y-92168523D02*
X6386380Y-92263761D01*
X6386380Y-92263761D02*
X6386380Y-92549475D01*
X6386380Y-92549475D02*
X6338761Y-92644713D01*
X6338761Y-92644713D02*
X6291142Y-92692332D01*
X5386380Y-91454237D02*
X5386380Y-91358999D01*
X5386380Y-91358999D02*
X5434000Y-91263761D01*
X5434000Y-91263761D02*
X5481619Y-91216142D01*
X5481619Y-91216142D02*
X5576857Y-91168523D01*
X5576857Y-91168523D02*
X5767333Y-91120904D01*
X5767333Y-91120904D02*
X6005428Y-91120904D01*
X6005428Y-91120904D02*
X6195904Y-91168523D01*
X6195904Y-91168523D02*
X6291142Y-91216142D01*
X6291142Y-91216142D02*
X6338761Y-91263761D01*
X6338761Y-91263761D02*
X6386380Y-91358999D01*
X6386380Y-91358999D02*
X6386380Y-91454237D01*
X6386380Y-91454237D02*
X6338761Y-91549475D01*
X6338761Y-91549475D02*
X6291142Y-91597094D01*
X6291142Y-91597094D02*
X6195904Y-91644713D01*
X6195904Y-91644713D02*
X6005428Y-91692332D01*
X6005428Y-91692332D02*
X5767333Y-91692332D01*
X5767333Y-91692332D02*
X5576857Y-91644713D01*
X5576857Y-91644713D02*
X5481619Y-91597094D01*
X5481619Y-91597094D02*
X5434000Y-91549475D01*
X5434000Y-91549475D02*
X5386380Y-91454237D01*
X8756380Y-92525666D02*
X8280190Y-92858999D01*
X8756380Y-93097094D02*
X7756380Y-93097094D01*
X7756380Y-93097094D02*
X7756380Y-92716142D01*
X7756380Y-92716142D02*
X7804000Y-92620904D01*
X7804000Y-92620904D02*
X7851619Y-92573285D01*
X7851619Y-92573285D02*
X7946857Y-92525666D01*
X7946857Y-92525666D02*
X8089714Y-92525666D01*
X8089714Y-92525666D02*
X8184952Y-92573285D01*
X8184952Y-92573285D02*
X8232571Y-92620904D01*
X8232571Y-92620904D02*
X8280190Y-92716142D01*
X8280190Y-92716142D02*
X8280190Y-93097094D01*
X7756380Y-91620904D02*
X7756380Y-92097094D01*
X7756380Y-92097094D02*
X8232571Y-92144713D01*
X8232571Y-92144713D02*
X8184952Y-92097094D01*
X8184952Y-92097094D02*
X8137333Y-92001856D01*
X8137333Y-92001856D02*
X8137333Y-91763761D01*
X8137333Y-91763761D02*
X8184952Y-91668523D01*
X8184952Y-91668523D02*
X8232571Y-91620904D01*
X8232571Y-91620904D02*
X8327809Y-91573285D01*
X8327809Y-91573285D02*
X8565904Y-91573285D01*
X8565904Y-91573285D02*
X8661142Y-91620904D01*
X8661142Y-91620904D02*
X8708761Y-91668523D01*
X8708761Y-91668523D02*
X8756380Y-91763761D01*
X8756380Y-91763761D02*
X8756380Y-92001856D01*
X8756380Y-92001856D02*
X8708761Y-92097094D01*
X8708761Y-92097094D02*
X8661142Y-92144713D01*
%TO.C,REF\u002A\u002A*%
X74880952Y-8567380D02*
X74880952Y-7567380D01*
X74880952Y-7567380D02*
X75214285Y-8281666D01*
X75214285Y-8281666D02*
X75547618Y-7567380D01*
X75547618Y-7567380D02*
X75547618Y-8567380D01*
X76166666Y-8567380D02*
X76071428Y-8519761D01*
X76071428Y-8519761D02*
X76023809Y-8472142D01*
X76023809Y-8472142D02*
X75976190Y-8376904D01*
X75976190Y-8376904D02*
X75976190Y-8091190D01*
X75976190Y-8091190D02*
X76023809Y-7995952D01*
X76023809Y-7995952D02*
X76071428Y-7948333D01*
X76071428Y-7948333D02*
X76166666Y-7900714D01*
X76166666Y-7900714D02*
X76309523Y-7900714D01*
X76309523Y-7900714D02*
X76404761Y-7948333D01*
X76404761Y-7948333D02*
X76452380Y-7995952D01*
X76452380Y-7995952D02*
X76499999Y-8091190D01*
X76499999Y-8091190D02*
X76499999Y-8376904D01*
X76499999Y-8376904D02*
X76452380Y-8472142D01*
X76452380Y-8472142D02*
X76404761Y-8519761D01*
X76404761Y-8519761D02*
X76309523Y-8567380D01*
X76309523Y-8567380D02*
X76166666Y-8567380D01*
X77357142Y-7900714D02*
X77357142Y-8567380D01*
X76928571Y-7900714D02*
X76928571Y-8424523D01*
X76928571Y-8424523D02*
X76976190Y-8519761D01*
X76976190Y-8519761D02*
X77071428Y-8567380D01*
X77071428Y-8567380D02*
X77214285Y-8567380D01*
X77214285Y-8567380D02*
X77309523Y-8519761D01*
X77309523Y-8519761D02*
X77357142Y-8472142D01*
X77833333Y-7900714D02*
X77833333Y-8567380D01*
X77833333Y-7995952D02*
X77880952Y-7948333D01*
X77880952Y-7948333D02*
X77976190Y-7900714D01*
X77976190Y-7900714D02*
X78119047Y-7900714D01*
X78119047Y-7900714D02*
X78214285Y-7948333D01*
X78214285Y-7948333D02*
X78261904Y-8043571D01*
X78261904Y-8043571D02*
X78261904Y-8567380D01*
X78595238Y-7900714D02*
X78976190Y-7900714D01*
X78738095Y-7567380D02*
X78738095Y-8424523D01*
X78738095Y-8424523D02*
X78785714Y-8519761D01*
X78785714Y-8519761D02*
X78880952Y-8567380D01*
X78880952Y-8567380D02*
X78976190Y-8567380D01*
X79309524Y-8567380D02*
X79309524Y-7900714D01*
X79309524Y-7567380D02*
X79261905Y-7615000D01*
X79261905Y-7615000D02*
X79309524Y-7662619D01*
X79309524Y-7662619D02*
X79357143Y-7615000D01*
X79357143Y-7615000D02*
X79309524Y-7567380D01*
X79309524Y-7567380D02*
X79309524Y-7662619D01*
X79785714Y-7900714D02*
X79785714Y-8567380D01*
X79785714Y-7995952D02*
X79833333Y-7948333D01*
X79833333Y-7948333D02*
X79928571Y-7900714D01*
X79928571Y-7900714D02*
X80071428Y-7900714D01*
X80071428Y-7900714D02*
X80166666Y-7948333D01*
X80166666Y-7948333D02*
X80214285Y-8043571D01*
X80214285Y-8043571D02*
X80214285Y-8567380D01*
X81119047Y-7900714D02*
X81119047Y-8710238D01*
X81119047Y-8710238D02*
X81071428Y-8805476D01*
X81071428Y-8805476D02*
X81023809Y-8853095D01*
X81023809Y-8853095D02*
X80928571Y-8900714D01*
X80928571Y-8900714D02*
X80785714Y-8900714D01*
X80785714Y-8900714D02*
X80690476Y-8853095D01*
X81119047Y-8519761D02*
X81023809Y-8567380D01*
X81023809Y-8567380D02*
X80833333Y-8567380D01*
X80833333Y-8567380D02*
X80738095Y-8519761D01*
X80738095Y-8519761D02*
X80690476Y-8472142D01*
X80690476Y-8472142D02*
X80642857Y-8376904D01*
X80642857Y-8376904D02*
X80642857Y-8091190D01*
X80642857Y-8091190D02*
X80690476Y-7995952D01*
X80690476Y-7995952D02*
X80738095Y-7948333D01*
X80738095Y-7948333D02*
X80833333Y-7900714D01*
X80833333Y-7900714D02*
X81023809Y-7900714D01*
X81023809Y-7900714D02*
X81119047Y-7948333D01*
X81595238Y-8567380D02*
X81595238Y-7567380D01*
X81595238Y-8043571D02*
X82166666Y-8043571D01*
X82166666Y-8567380D02*
X82166666Y-7567380D01*
X82785714Y-8567380D02*
X82690476Y-8519761D01*
X82690476Y-8519761D02*
X82642857Y-8472142D01*
X82642857Y-8472142D02*
X82595238Y-8376904D01*
X82595238Y-8376904D02*
X82595238Y-8091190D01*
X82595238Y-8091190D02*
X82642857Y-7995952D01*
X82642857Y-7995952D02*
X82690476Y-7948333D01*
X82690476Y-7948333D02*
X82785714Y-7900714D01*
X82785714Y-7900714D02*
X82928571Y-7900714D01*
X82928571Y-7900714D02*
X83023809Y-7948333D01*
X83023809Y-7948333D02*
X83071428Y-7995952D01*
X83071428Y-7995952D02*
X83119047Y-8091190D01*
X83119047Y-8091190D02*
X83119047Y-8376904D01*
X83119047Y-8376904D02*
X83071428Y-8472142D01*
X83071428Y-8472142D02*
X83023809Y-8519761D01*
X83023809Y-8519761D02*
X82928571Y-8567380D01*
X82928571Y-8567380D02*
X82785714Y-8567380D01*
X83690476Y-8567380D02*
X83595238Y-8519761D01*
X83595238Y-8519761D02*
X83547619Y-8424523D01*
X83547619Y-8424523D02*
X83547619Y-7567380D01*
X84452381Y-8519761D02*
X84357143Y-8567380D01*
X84357143Y-8567380D02*
X84166667Y-8567380D01*
X84166667Y-8567380D02*
X84071429Y-8519761D01*
X84071429Y-8519761D02*
X84023810Y-8424523D01*
X84023810Y-8424523D02*
X84023810Y-8043571D01*
X84023810Y-8043571D02*
X84071429Y-7948333D01*
X84071429Y-7948333D02*
X84166667Y-7900714D01*
X84166667Y-7900714D02*
X84357143Y-7900714D01*
X84357143Y-7900714D02*
X84452381Y-7948333D01*
X84452381Y-7948333D02*
X84500000Y-8043571D01*
X84500000Y-8043571D02*
X84500000Y-8138809D01*
X84500000Y-8138809D02*
X84023810Y-8234047D01*
X84690477Y-8662619D02*
X85452381Y-8662619D01*
X85595239Y-7567380D02*
X86214286Y-7567380D01*
X86214286Y-7567380D02*
X85880953Y-7948333D01*
X85880953Y-7948333D02*
X86023810Y-7948333D01*
X86023810Y-7948333D02*
X86119048Y-7995952D01*
X86119048Y-7995952D02*
X86166667Y-8043571D01*
X86166667Y-8043571D02*
X86214286Y-8138809D01*
X86214286Y-8138809D02*
X86214286Y-8376904D01*
X86214286Y-8376904D02*
X86166667Y-8472142D01*
X86166667Y-8472142D02*
X86119048Y-8519761D01*
X86119048Y-8519761D02*
X86023810Y-8567380D01*
X86023810Y-8567380D02*
X85738096Y-8567380D01*
X85738096Y-8567380D02*
X85642858Y-8519761D01*
X85642858Y-8519761D02*
X85595239Y-8472142D01*
X86642858Y-8472142D02*
X86690477Y-8519761D01*
X86690477Y-8519761D02*
X86642858Y-8567380D01*
X86642858Y-8567380D02*
X86595239Y-8519761D01*
X86595239Y-8519761D02*
X86642858Y-8472142D01*
X86642858Y-8472142D02*
X86642858Y-8567380D01*
X87071429Y-7662619D02*
X87119048Y-7615000D01*
X87119048Y-7615000D02*
X87214286Y-7567380D01*
X87214286Y-7567380D02*
X87452381Y-7567380D01*
X87452381Y-7567380D02*
X87547619Y-7615000D01*
X87547619Y-7615000D02*
X87595238Y-7662619D01*
X87595238Y-7662619D02*
X87642857Y-7757857D01*
X87642857Y-7757857D02*
X87642857Y-7853095D01*
X87642857Y-7853095D02*
X87595238Y-7995952D01*
X87595238Y-7995952D02*
X87023810Y-8567380D01*
X87023810Y-8567380D02*
X87642857Y-8567380D01*
X88071429Y-8567380D02*
X88071429Y-7900714D01*
X88071429Y-7995952D02*
X88119048Y-7948333D01*
X88119048Y-7948333D02*
X88214286Y-7900714D01*
X88214286Y-7900714D02*
X88357143Y-7900714D01*
X88357143Y-7900714D02*
X88452381Y-7948333D01*
X88452381Y-7948333D02*
X88500000Y-8043571D01*
X88500000Y-8043571D02*
X88500000Y-8567380D01*
X88500000Y-8043571D02*
X88547619Y-7948333D01*
X88547619Y-7948333D02*
X88642857Y-7900714D01*
X88642857Y-7900714D02*
X88785714Y-7900714D01*
X88785714Y-7900714D02*
X88880953Y-7948333D01*
X88880953Y-7948333D02*
X88928572Y-8043571D01*
X88928572Y-8043571D02*
X88928572Y-8567380D01*
X89404762Y-8567380D02*
X89404762Y-7900714D01*
X89404762Y-7995952D02*
X89452381Y-7948333D01*
X89452381Y-7948333D02*
X89547619Y-7900714D01*
X89547619Y-7900714D02*
X89690476Y-7900714D01*
X89690476Y-7900714D02*
X89785714Y-7948333D01*
X89785714Y-7948333D02*
X89833333Y-8043571D01*
X89833333Y-8043571D02*
X89833333Y-8567380D01*
X89833333Y-8043571D02*
X89880952Y-7948333D01*
X89880952Y-7948333D02*
X89976190Y-7900714D01*
X89976190Y-7900714D02*
X90119047Y-7900714D01*
X90119047Y-7900714D02*
X90214286Y-7948333D01*
X90214286Y-7948333D02*
X90261905Y-8043571D01*
X90261905Y-8043571D02*
X90261905Y-8567380D01*
X90500000Y-8662619D02*
X91261904Y-8662619D01*
X91500000Y-8567380D02*
X91500000Y-7567380D01*
X91500000Y-7567380D02*
X91833333Y-8281666D01*
X91833333Y-8281666D02*
X92166666Y-7567380D01*
X92166666Y-7567380D02*
X92166666Y-8567380D01*
X92547619Y-7567380D02*
X93166666Y-7567380D01*
X93166666Y-7567380D02*
X92833333Y-7948333D01*
X92833333Y-7948333D02*
X92976190Y-7948333D01*
X92976190Y-7948333D02*
X93071428Y-7995952D01*
X93071428Y-7995952D02*
X93119047Y-8043571D01*
X93119047Y-8043571D02*
X93166666Y-8138809D01*
X93166666Y-8138809D02*
X93166666Y-8376904D01*
X93166666Y-8376904D02*
X93119047Y-8472142D01*
X93119047Y-8472142D02*
X93071428Y-8519761D01*
X93071428Y-8519761D02*
X92976190Y-8567380D01*
X92976190Y-8567380D02*
X92690476Y-8567380D01*
X92690476Y-8567380D02*
X92595238Y-8519761D01*
X92595238Y-8519761D02*
X92547619Y-8472142D01*
X82666666Y-4367380D02*
X82333333Y-3891190D01*
X82095238Y-4367380D02*
X82095238Y-3367380D01*
X82095238Y-3367380D02*
X82476190Y-3367380D01*
X82476190Y-3367380D02*
X82571428Y-3415000D01*
X82571428Y-3415000D02*
X82619047Y-3462619D01*
X82619047Y-3462619D02*
X82666666Y-3557857D01*
X82666666Y-3557857D02*
X82666666Y-3700714D01*
X82666666Y-3700714D02*
X82619047Y-3795952D01*
X82619047Y-3795952D02*
X82571428Y-3843571D01*
X82571428Y-3843571D02*
X82476190Y-3891190D01*
X82476190Y-3891190D02*
X82095238Y-3891190D01*
X83095238Y-3843571D02*
X83428571Y-3843571D01*
X83571428Y-4367380D02*
X83095238Y-4367380D01*
X83095238Y-4367380D02*
X83095238Y-3367380D01*
X83095238Y-3367380D02*
X83571428Y-3367380D01*
X84333333Y-3843571D02*
X84000000Y-3843571D01*
X84000000Y-4367380D02*
X84000000Y-3367380D01*
X84000000Y-3367380D02*
X84476190Y-3367380D01*
X85000000Y-3367380D02*
X85000000Y-3605476D01*
X84761905Y-3510238D02*
X85000000Y-3605476D01*
X85000000Y-3605476D02*
X85238095Y-3510238D01*
X84857143Y-3795952D02*
X85000000Y-3605476D01*
X85000000Y-3605476D02*
X85142857Y-3795952D01*
X85761905Y-3367380D02*
X85761905Y-3605476D01*
X85523810Y-3510238D02*
X85761905Y-3605476D01*
X85761905Y-3605476D02*
X86000000Y-3510238D01*
X85619048Y-3795952D02*
X85761905Y-3605476D01*
X85761905Y-3605476D02*
X85904762Y-3795952D01*
%TO.C,R10*%
X58559714Y-98487571D02*
X59226380Y-98487571D01*
X58178761Y-98725666D02*
X58893047Y-98963761D01*
X58893047Y-98963761D02*
X58893047Y-98344714D01*
X59131142Y-97963761D02*
X59178761Y-97916142D01*
X59178761Y-97916142D02*
X59226380Y-97963761D01*
X59226380Y-97963761D02*
X59178761Y-98011380D01*
X59178761Y-98011380D02*
X59131142Y-97963761D01*
X59131142Y-97963761D02*
X59226380Y-97963761D01*
X58226380Y-97582809D02*
X58226380Y-96916143D01*
X58226380Y-96916143D02*
X59226380Y-97344714D01*
X59226380Y-96535190D02*
X58226380Y-96535190D01*
X58845428Y-96439952D02*
X59226380Y-96154238D01*
X58559714Y-96154238D02*
X58940666Y-96535190D01*
X56856380Y-98201857D02*
X56380190Y-98535190D01*
X56856380Y-98773285D02*
X55856380Y-98773285D01*
X55856380Y-98773285D02*
X55856380Y-98392333D01*
X55856380Y-98392333D02*
X55904000Y-98297095D01*
X55904000Y-98297095D02*
X55951619Y-98249476D01*
X55951619Y-98249476D02*
X56046857Y-98201857D01*
X56046857Y-98201857D02*
X56189714Y-98201857D01*
X56189714Y-98201857D02*
X56284952Y-98249476D01*
X56284952Y-98249476D02*
X56332571Y-98297095D01*
X56332571Y-98297095D02*
X56380190Y-98392333D01*
X56380190Y-98392333D02*
X56380190Y-98773285D01*
X56856380Y-97249476D02*
X56856380Y-97820904D01*
X56856380Y-97535190D02*
X55856380Y-97535190D01*
X55856380Y-97535190D02*
X55999238Y-97630428D01*
X55999238Y-97630428D02*
X56094476Y-97725666D01*
X56094476Y-97725666D02*
X56142095Y-97820904D01*
X55856380Y-96630428D02*
X55856380Y-96535190D01*
X55856380Y-96535190D02*
X55904000Y-96439952D01*
X55904000Y-96439952D02*
X55951619Y-96392333D01*
X55951619Y-96392333D02*
X56046857Y-96344714D01*
X56046857Y-96344714D02*
X56237333Y-96297095D01*
X56237333Y-96297095D02*
X56475428Y-96297095D01*
X56475428Y-96297095D02*
X56665904Y-96344714D01*
X56665904Y-96344714D02*
X56761142Y-96392333D01*
X56761142Y-96392333D02*
X56808761Y-96439952D01*
X56808761Y-96439952D02*
X56856380Y-96535190D01*
X56856380Y-96535190D02*
X56856380Y-96630428D01*
X56856380Y-96630428D02*
X56808761Y-96725666D01*
X56808761Y-96725666D02*
X56761142Y-96773285D01*
X56761142Y-96773285D02*
X56665904Y-96820904D01*
X56665904Y-96820904D02*
X56475428Y-96868523D01*
X56475428Y-96868523D02*
X56237333Y-96868523D01*
X56237333Y-96868523D02*
X56046857Y-96820904D01*
X56046857Y-96820904D02*
X55951619Y-96773285D01*
X55951619Y-96773285D02*
X55904000Y-96725666D01*
X55904000Y-96725666D02*
X55856380Y-96630428D01*
%TO.C,REF\u002A\u002A*%
X88567380Y-49119047D02*
X87567380Y-49119047D01*
X87567380Y-49119047D02*
X88281666Y-48785714D01*
X88281666Y-48785714D02*
X87567380Y-48452381D01*
X87567380Y-48452381D02*
X88567380Y-48452381D01*
X88567380Y-47833333D02*
X88519761Y-47928571D01*
X88519761Y-47928571D02*
X88472142Y-47976190D01*
X88472142Y-47976190D02*
X88376904Y-48023809D01*
X88376904Y-48023809D02*
X88091190Y-48023809D01*
X88091190Y-48023809D02*
X87995952Y-47976190D01*
X87995952Y-47976190D02*
X87948333Y-47928571D01*
X87948333Y-47928571D02*
X87900714Y-47833333D01*
X87900714Y-47833333D02*
X87900714Y-47690476D01*
X87900714Y-47690476D02*
X87948333Y-47595238D01*
X87948333Y-47595238D02*
X87995952Y-47547619D01*
X87995952Y-47547619D02*
X88091190Y-47500000D01*
X88091190Y-47500000D02*
X88376904Y-47500000D01*
X88376904Y-47500000D02*
X88472142Y-47547619D01*
X88472142Y-47547619D02*
X88519761Y-47595238D01*
X88519761Y-47595238D02*
X88567380Y-47690476D01*
X88567380Y-47690476D02*
X88567380Y-47833333D01*
X87900714Y-46642857D02*
X88567380Y-46642857D01*
X87900714Y-47071428D02*
X88424523Y-47071428D01*
X88424523Y-47071428D02*
X88519761Y-47023809D01*
X88519761Y-47023809D02*
X88567380Y-46928571D01*
X88567380Y-46928571D02*
X88567380Y-46785714D01*
X88567380Y-46785714D02*
X88519761Y-46690476D01*
X88519761Y-46690476D02*
X88472142Y-46642857D01*
X87900714Y-46166666D02*
X88567380Y-46166666D01*
X87995952Y-46166666D02*
X87948333Y-46119047D01*
X87948333Y-46119047D02*
X87900714Y-46023809D01*
X87900714Y-46023809D02*
X87900714Y-45880952D01*
X87900714Y-45880952D02*
X87948333Y-45785714D01*
X87948333Y-45785714D02*
X88043571Y-45738095D01*
X88043571Y-45738095D02*
X88567380Y-45738095D01*
X87900714Y-45404761D02*
X87900714Y-45023809D01*
X87567380Y-45261904D02*
X88424523Y-45261904D01*
X88424523Y-45261904D02*
X88519761Y-45214285D01*
X88519761Y-45214285D02*
X88567380Y-45119047D01*
X88567380Y-45119047D02*
X88567380Y-45023809D01*
X88567380Y-44690475D02*
X87900714Y-44690475D01*
X87567380Y-44690475D02*
X87615000Y-44738094D01*
X87615000Y-44738094D02*
X87662619Y-44690475D01*
X87662619Y-44690475D02*
X87615000Y-44642856D01*
X87615000Y-44642856D02*
X87567380Y-44690475D01*
X87567380Y-44690475D02*
X87662619Y-44690475D01*
X87900714Y-44214285D02*
X88567380Y-44214285D01*
X87995952Y-44214285D02*
X87948333Y-44166666D01*
X87948333Y-44166666D02*
X87900714Y-44071428D01*
X87900714Y-44071428D02*
X87900714Y-43928571D01*
X87900714Y-43928571D02*
X87948333Y-43833333D01*
X87948333Y-43833333D02*
X88043571Y-43785714D01*
X88043571Y-43785714D02*
X88567380Y-43785714D01*
X87900714Y-42880952D02*
X88710238Y-42880952D01*
X88710238Y-42880952D02*
X88805476Y-42928571D01*
X88805476Y-42928571D02*
X88853095Y-42976190D01*
X88853095Y-42976190D02*
X88900714Y-43071428D01*
X88900714Y-43071428D02*
X88900714Y-43214285D01*
X88900714Y-43214285D02*
X88853095Y-43309523D01*
X88519761Y-42880952D02*
X88567380Y-42976190D01*
X88567380Y-42976190D02*
X88567380Y-43166666D01*
X88567380Y-43166666D02*
X88519761Y-43261904D01*
X88519761Y-43261904D02*
X88472142Y-43309523D01*
X88472142Y-43309523D02*
X88376904Y-43357142D01*
X88376904Y-43357142D02*
X88091190Y-43357142D01*
X88091190Y-43357142D02*
X87995952Y-43309523D01*
X87995952Y-43309523D02*
X87948333Y-43261904D01*
X87948333Y-43261904D02*
X87900714Y-43166666D01*
X87900714Y-43166666D02*
X87900714Y-42976190D01*
X87900714Y-42976190D02*
X87948333Y-42880952D01*
X88567380Y-42404761D02*
X87567380Y-42404761D01*
X88043571Y-42404761D02*
X88043571Y-41833333D01*
X88567380Y-41833333D02*
X87567380Y-41833333D01*
X88567380Y-41214285D02*
X88519761Y-41309523D01*
X88519761Y-41309523D02*
X88472142Y-41357142D01*
X88472142Y-41357142D02*
X88376904Y-41404761D01*
X88376904Y-41404761D02*
X88091190Y-41404761D01*
X88091190Y-41404761D02*
X87995952Y-41357142D01*
X87995952Y-41357142D02*
X87948333Y-41309523D01*
X87948333Y-41309523D02*
X87900714Y-41214285D01*
X87900714Y-41214285D02*
X87900714Y-41071428D01*
X87900714Y-41071428D02*
X87948333Y-40976190D01*
X87948333Y-40976190D02*
X87995952Y-40928571D01*
X87995952Y-40928571D02*
X88091190Y-40880952D01*
X88091190Y-40880952D02*
X88376904Y-40880952D01*
X88376904Y-40880952D02*
X88472142Y-40928571D01*
X88472142Y-40928571D02*
X88519761Y-40976190D01*
X88519761Y-40976190D02*
X88567380Y-41071428D01*
X88567380Y-41071428D02*
X88567380Y-41214285D01*
X88567380Y-40309523D02*
X88519761Y-40404761D01*
X88519761Y-40404761D02*
X88424523Y-40452380D01*
X88424523Y-40452380D02*
X87567380Y-40452380D01*
X88519761Y-39547618D02*
X88567380Y-39642856D01*
X88567380Y-39642856D02*
X88567380Y-39833332D01*
X88567380Y-39833332D02*
X88519761Y-39928570D01*
X88519761Y-39928570D02*
X88424523Y-39976189D01*
X88424523Y-39976189D02*
X88043571Y-39976189D01*
X88043571Y-39976189D02*
X87948333Y-39928570D01*
X87948333Y-39928570D02*
X87900714Y-39833332D01*
X87900714Y-39833332D02*
X87900714Y-39642856D01*
X87900714Y-39642856D02*
X87948333Y-39547618D01*
X87948333Y-39547618D02*
X88043571Y-39499999D01*
X88043571Y-39499999D02*
X88138809Y-39499999D01*
X88138809Y-39499999D02*
X88234047Y-39976189D01*
X88662619Y-39309523D02*
X88662619Y-38547618D01*
X87567380Y-38404760D02*
X87567380Y-37785713D01*
X87567380Y-37785713D02*
X87948333Y-38119046D01*
X87948333Y-38119046D02*
X87948333Y-37976189D01*
X87948333Y-37976189D02*
X87995952Y-37880951D01*
X87995952Y-37880951D02*
X88043571Y-37833332D01*
X88043571Y-37833332D02*
X88138809Y-37785713D01*
X88138809Y-37785713D02*
X88376904Y-37785713D01*
X88376904Y-37785713D02*
X88472142Y-37833332D01*
X88472142Y-37833332D02*
X88519761Y-37880951D01*
X88519761Y-37880951D02*
X88567380Y-37976189D01*
X88567380Y-37976189D02*
X88567380Y-38261903D01*
X88567380Y-38261903D02*
X88519761Y-38357141D01*
X88519761Y-38357141D02*
X88472142Y-38404760D01*
X88472142Y-37357141D02*
X88519761Y-37309522D01*
X88519761Y-37309522D02*
X88567380Y-37357141D01*
X88567380Y-37357141D02*
X88519761Y-37404760D01*
X88519761Y-37404760D02*
X88472142Y-37357141D01*
X88472142Y-37357141D02*
X88567380Y-37357141D01*
X87662619Y-36928570D02*
X87615000Y-36880951D01*
X87615000Y-36880951D02*
X87567380Y-36785713D01*
X87567380Y-36785713D02*
X87567380Y-36547618D01*
X87567380Y-36547618D02*
X87615000Y-36452380D01*
X87615000Y-36452380D02*
X87662619Y-36404761D01*
X87662619Y-36404761D02*
X87757857Y-36357142D01*
X87757857Y-36357142D02*
X87853095Y-36357142D01*
X87853095Y-36357142D02*
X87995952Y-36404761D01*
X87995952Y-36404761D02*
X88567380Y-36976189D01*
X88567380Y-36976189D02*
X88567380Y-36357142D01*
X88567380Y-35928570D02*
X87900714Y-35928570D01*
X87995952Y-35928570D02*
X87948333Y-35880951D01*
X87948333Y-35880951D02*
X87900714Y-35785713D01*
X87900714Y-35785713D02*
X87900714Y-35642856D01*
X87900714Y-35642856D02*
X87948333Y-35547618D01*
X87948333Y-35547618D02*
X88043571Y-35499999D01*
X88043571Y-35499999D02*
X88567380Y-35499999D01*
X88043571Y-35499999D02*
X87948333Y-35452380D01*
X87948333Y-35452380D02*
X87900714Y-35357142D01*
X87900714Y-35357142D02*
X87900714Y-35214285D01*
X87900714Y-35214285D02*
X87948333Y-35119046D01*
X87948333Y-35119046D02*
X88043571Y-35071427D01*
X88043571Y-35071427D02*
X88567380Y-35071427D01*
X88567380Y-34595237D02*
X87900714Y-34595237D01*
X87995952Y-34595237D02*
X87948333Y-34547618D01*
X87948333Y-34547618D02*
X87900714Y-34452380D01*
X87900714Y-34452380D02*
X87900714Y-34309523D01*
X87900714Y-34309523D02*
X87948333Y-34214285D01*
X87948333Y-34214285D02*
X88043571Y-34166666D01*
X88043571Y-34166666D02*
X88567380Y-34166666D01*
X88043571Y-34166666D02*
X87948333Y-34119047D01*
X87948333Y-34119047D02*
X87900714Y-34023809D01*
X87900714Y-34023809D02*
X87900714Y-33880952D01*
X87900714Y-33880952D02*
X87948333Y-33785713D01*
X87948333Y-33785713D02*
X88043571Y-33738094D01*
X88043571Y-33738094D02*
X88567380Y-33738094D01*
X88662619Y-33500000D02*
X88662619Y-32738095D01*
X88567380Y-32499999D02*
X87567380Y-32499999D01*
X87567380Y-32499999D02*
X88281666Y-32166666D01*
X88281666Y-32166666D02*
X87567380Y-31833333D01*
X87567380Y-31833333D02*
X88567380Y-31833333D01*
X87567380Y-31452380D02*
X87567380Y-30833333D01*
X87567380Y-30833333D02*
X87948333Y-31166666D01*
X87948333Y-31166666D02*
X87948333Y-31023809D01*
X87948333Y-31023809D02*
X87995952Y-30928571D01*
X87995952Y-30928571D02*
X88043571Y-30880952D01*
X88043571Y-30880952D02*
X88138809Y-30833333D01*
X88138809Y-30833333D02*
X88376904Y-30833333D01*
X88376904Y-30833333D02*
X88472142Y-30880952D01*
X88472142Y-30880952D02*
X88519761Y-30928571D01*
X88519761Y-30928571D02*
X88567380Y-31023809D01*
X88567380Y-31023809D02*
X88567380Y-31309523D01*
X88567380Y-31309523D02*
X88519761Y-31404761D01*
X88519761Y-31404761D02*
X88472142Y-31452380D01*
X84367380Y-41333333D02*
X83891190Y-41666666D01*
X84367380Y-41904761D02*
X83367380Y-41904761D01*
X83367380Y-41904761D02*
X83367380Y-41523809D01*
X83367380Y-41523809D02*
X83415000Y-41428571D01*
X83415000Y-41428571D02*
X83462619Y-41380952D01*
X83462619Y-41380952D02*
X83557857Y-41333333D01*
X83557857Y-41333333D02*
X83700714Y-41333333D01*
X83700714Y-41333333D02*
X83795952Y-41380952D01*
X83795952Y-41380952D02*
X83843571Y-41428571D01*
X83843571Y-41428571D02*
X83891190Y-41523809D01*
X83891190Y-41523809D02*
X83891190Y-41904761D01*
X83843571Y-40904761D02*
X83843571Y-40571428D01*
X84367380Y-40428571D02*
X84367380Y-40904761D01*
X84367380Y-40904761D02*
X83367380Y-40904761D01*
X83367380Y-40904761D02*
X83367380Y-40428571D01*
X83843571Y-39666666D02*
X83843571Y-39999999D01*
X84367380Y-39999999D02*
X83367380Y-39999999D01*
X83367380Y-39999999D02*
X83367380Y-39523809D01*
X83367380Y-38999999D02*
X83605476Y-38999999D01*
X83510238Y-39238094D02*
X83605476Y-38999999D01*
X83605476Y-38999999D02*
X83510238Y-38761904D01*
X83795952Y-39142856D02*
X83605476Y-38999999D01*
X83605476Y-38999999D02*
X83795952Y-38857142D01*
X83367380Y-38238094D02*
X83605476Y-38238094D01*
X83510238Y-38476189D02*
X83605476Y-38238094D01*
X83605476Y-38238094D02*
X83510238Y-37999999D01*
X83795952Y-38380951D02*
X83605476Y-38238094D01*
X83605476Y-38238094D02*
X83795952Y-38095237D01*
D11*
%TO.C,R1*%
X59182000Y-29083000D02*
X57252000Y-29083000D01*
X57252000Y-30333000D02*
X57252000Y-27833000D01*
X57252000Y-27833000D02*
X50952000Y-27833000D01*
X50952000Y-30333000D02*
X57252000Y-30333000D01*
X50952000Y-27833000D02*
X50952000Y-30333000D01*
X49022000Y-29083000D02*
X50952000Y-29083000D01*
%TO.C,R7*%
X46389000Y-102439000D02*
X46389000Y-100509000D01*
X45139000Y-100509000D02*
X47639000Y-100509000D01*
X47639000Y-100509000D02*
X47639000Y-94209000D01*
X45139000Y-94209000D02*
X45139000Y-100509000D01*
X47639000Y-94209000D02*
X45139000Y-94209000D01*
X46389000Y-92279000D02*
X46389000Y-94209000D01*
%TO.C,R11*%
X16367000Y-95096000D02*
X16367000Y-97026000D01*
X17617000Y-97026000D02*
X15117000Y-97026000D01*
X15117000Y-97026000D02*
X15117000Y-103326000D01*
X17617000Y-103326000D02*
X17617000Y-97026000D01*
X15117000Y-103326000D02*
X17617000Y-103326000D01*
X16367000Y-105256000D02*
X16367000Y-103326000D01*
%TO.C,R6*%
X50489000Y-92229000D02*
X50489000Y-94159000D01*
X51739000Y-94159000D02*
X49239000Y-94159000D01*
X49239000Y-94159000D02*
X49239000Y-100459000D01*
X51739000Y-100459000D02*
X51739000Y-94159000D01*
X49239000Y-100459000D02*
X51739000Y-100459000D01*
X50489000Y-102389000D02*
X50489000Y-100459000D01*
%TO.C,R12*%
X54102000Y-33401000D02*
X56032000Y-33401000D01*
X56032000Y-32151000D02*
X56032000Y-34651000D01*
X56032000Y-34651000D02*
X62332000Y-34651000D01*
X62332000Y-32151000D02*
X56032000Y-32151000D01*
X62332000Y-34651000D02*
X62332000Y-32151000D01*
X64262000Y-33401000D02*
X62332000Y-33401000D01*
%TO.C,R4*%
X66689000Y-111689000D02*
X66689000Y-109759000D01*
X65439000Y-109759000D02*
X67939000Y-109759000D01*
X67939000Y-109759000D02*
X67939000Y-103459000D01*
X65439000Y-103459000D02*
X65439000Y-109759000D01*
X67939000Y-103459000D02*
X65439000Y-103459000D01*
X66689000Y-101529000D02*
X66689000Y-103459000D01*
%TO.C,R16*%
X53848000Y-41402000D02*
X55778000Y-41402000D01*
X55778000Y-40152000D02*
X55778000Y-42652000D01*
X55778000Y-42652000D02*
X62078000Y-42652000D01*
X62078000Y-40152000D02*
X55778000Y-40152000D01*
X62078000Y-42652000D02*
X62078000Y-40152000D01*
X64008000Y-41402000D02*
X62078000Y-41402000D01*
D12*
%TO.C,U1*%
X6914200Y-79258000D02*
X6914200Y-1758000D01*
X8414200Y-258000D02*
X75414200Y-258000D01*
X8934200Y-30728000D02*
X8934200Y-78988000D01*
X8934200Y-78988000D02*
X13934200Y-78988000D01*
X13934200Y-30728000D02*
X8934200Y-30728000D01*
X13934200Y-78988000D02*
X13934200Y-30728000D01*
X17914200Y-80758000D02*
X8414200Y-80758000D01*
X19914200Y-82758000D02*
X17914200Y-80758000D01*
X52914200Y-82758000D02*
X19914200Y-82758000D01*
X54914200Y-80758000D02*
X52914200Y-82758000D01*
X69894200Y-30728000D02*
X69894200Y-78988000D01*
X69894200Y-78988000D02*
X74894200Y-78988000D01*
X74894200Y-30728000D02*
X69894200Y-30728000D01*
X74894200Y-78988000D02*
X74894200Y-30728000D01*
X75414200Y-80758000D02*
X54914200Y-80758000D01*
X76914200Y-1758000D02*
X76914200Y-79258000D01*
X8414200Y-258000D02*
G75*
G03*
X6914200Y-1758000I1J-1500001D01*
G01*
X6914200Y-79258000D02*
G75*
G03*
X8414200Y-80758000I1500001J1D01*
G01*
X76914200Y-1758000D02*
G75*
G03*
X75414200Y-258000I-1500000J0D01*
G01*
X75414200Y-80758000D02*
G75*
G03*
X76914200Y-79258000I0J1500000D01*
G01*
D13*
X8514200Y-31998000D02*
G75*
G03*
X8514200Y-31998000I-100000J0D01*
G01*
X69474200Y-31998000D02*
G75*
G03*
X69474200Y-31998000I-100000J0D01*
G01*
D11*
%TO.C,R3*%
X70342000Y-101573000D02*
X70342000Y-103503000D01*
X71592000Y-103503000D02*
X69092000Y-103503000D01*
X69092000Y-103503000D02*
X69092000Y-109803000D01*
X71592000Y-109803000D02*
X71592000Y-103503000D01*
X69092000Y-109803000D02*
X71592000Y-109803000D01*
X70342000Y-111733000D02*
X70342000Y-109803000D01*
%TO.C,R2*%
X66689000Y-88809000D02*
X66689000Y-90739000D01*
X67939000Y-90739000D02*
X65439000Y-90739000D01*
X65439000Y-90739000D02*
X65439000Y-97039000D01*
X67939000Y-97039000D02*
X67939000Y-90739000D01*
X65439000Y-97039000D02*
X67939000Y-97039000D01*
X66689000Y-98969000D02*
X66689000Y-97039000D01*
%TO.C,BZ1*%
X56903000Y-54610000D02*
G75*
G03*
X56903000Y-54610000I-1150000J0D01*
G01*
X61753000Y-54610000D02*
G75*
G03*
X61753000Y-54610000I-6000000J0D01*
G01*
%TO.C,D3*%
X75041000Y-101446000D02*
X75041000Y-102076000D01*
X76891000Y-102076000D02*
X73191000Y-102076000D01*
X73191000Y-102076000D02*
X73191000Y-110976000D01*
X76891000Y-103311000D02*
X73191000Y-103311000D01*
X76891000Y-103411000D02*
X73191000Y-103411000D01*
X76891000Y-103511000D02*
X73191000Y-103511000D01*
X76891000Y-110976000D02*
X76891000Y-102076000D01*
X73191000Y-110976000D02*
X76891000Y-110976000D01*
X75041000Y-111606000D02*
X75041000Y-110976000D01*
%TO.C,D4*%
X7972810Y-103414000D02*
X10305190Y-103414000D01*
X10304475Y-103414554D02*
G75*
G03*
X7972810Y-103413999I-1165475J1500554D01*
G01*
X10639000Y-101914000D02*
G75*
G03*
X10639000Y-101914000I-1500000J0D01*
G01*
%TO.C,R17*%
X53975000Y-37465000D02*
X55905000Y-37465000D01*
X55905000Y-36215000D02*
X55905000Y-38715000D01*
X55905000Y-38715000D02*
X62205000Y-38715000D01*
X62205000Y-36215000D02*
X55905000Y-36215000D01*
X62205000Y-38715000D02*
X62205000Y-36215000D01*
X64135000Y-37465000D02*
X62205000Y-37465000D01*
%TO.C,R9*%
X60309000Y-92429000D02*
X60309000Y-94359000D01*
X61559000Y-94359000D02*
X59059000Y-94359000D01*
X59059000Y-94359000D02*
X59059000Y-100659000D01*
X61559000Y-100659000D02*
X61559000Y-94359000D01*
X59059000Y-100659000D02*
X61559000Y-100659000D01*
X60309000Y-102589000D02*
X60309000Y-100659000D01*
%TO.C,R18*%
X53594000Y-45593000D02*
X55524000Y-45593000D01*
X55524000Y-44343000D02*
X55524000Y-46843000D01*
X55524000Y-46843000D02*
X61824000Y-46843000D01*
X61824000Y-44343000D02*
X55524000Y-44343000D01*
X61824000Y-46843000D02*
X61824000Y-44343000D01*
X63754000Y-45593000D02*
X61824000Y-45593000D01*
%TO.C,R5*%
X8389000Y-87279000D02*
X8389000Y-89209000D01*
X9639000Y-89209000D02*
X7139000Y-89209000D01*
X7139000Y-89209000D02*
X7139000Y-95509000D01*
X9639000Y-95509000D02*
X9639000Y-89209000D01*
X7139000Y-95509000D02*
X9639000Y-95509000D01*
X8389000Y-97439000D02*
X8389000Y-95509000D01*
%TO.C,R10*%
X56489000Y-102639000D02*
X56489000Y-100709000D01*
X55239000Y-100709000D02*
X57739000Y-100709000D01*
X57739000Y-100709000D02*
X57739000Y-94409000D01*
X55239000Y-94409000D02*
X55239000Y-100709000D01*
X57739000Y-94409000D02*
X55239000Y-94409000D01*
X56489000Y-92479000D02*
X56489000Y-94409000D01*
%TD*%
M02*
