%TF.GenerationSoftware,KiCad,Pcbnew,(7.0.0-0)*%
%TF.CreationDate,2023-07-19T10:45:20+09:00*%
%TF.ProjectId,Spct,53706374-2e6b-4696-9361-645f70636258,rev?*%
%TF.SameCoordinates,PX2540608PY1ee3f58*%
%TF.FileFunction,Drillmap*%
%TF.FilePolarity,Positive*%
%FSLAX45Y45*%
G04 Gerber Fmt 4.5, Leading zero omitted, Abs format (unit mm)*
G04 Created by KiCad (PCBNEW (7.0.0-0)) date 2023-07-19 10:45:20*
%MOMM*%
%LPD*%
G01*
G04 APERTURE LIST*
%ADD10C,0.100000*%
%ADD11C,0.200000*%
%ADD12C,0.300000*%
%ADD13C,0.320000*%
G04 APERTURE END LIST*
D10*
X0Y0D02*
X8800000Y0D01*
X8800000Y0D02*
X8800000Y-12000000D01*
X8800000Y-12000000D02*
X0Y-12000000D01*
X0Y-12000000D02*
X0Y0D01*
D11*
D12*
X1628420Y-2668800D02*
X1928420Y-2968800D01*
X1928420Y-2668800D02*
X1628420Y-2968800D01*
X4930420Y-7875800D02*
X5230420Y-8175800D01*
X5230420Y-7875800D02*
X4930420Y-8175800D01*
X6454420Y-2795800D02*
X6754420Y-3095800D01*
X6754420Y-2795800D02*
X6454420Y-3095800D01*
D13*
X560000Y-400000D02*
G75*
G03*
X560000Y-400000I-160000J0D01*
G01*
X560000Y-11600000D02*
G75*
G03*
X560000Y-11600000I-160000J0D01*
G01*
X8560000Y-400000D02*
G75*
G03*
X8560000Y-400000I-160000J0D01*
G01*
X8560000Y-4000000D02*
G75*
G03*
X8560000Y-4000000I-160000J0D01*
G01*
X8560000Y-11600000D02*
G75*
G03*
X8560000Y-11600000I-160000J0D01*
G01*
D11*
X242619Y-12298476D02*
X242619Y-12098476D01*
X242619Y-12098476D02*
X290238Y-12098476D01*
X290238Y-12098476D02*
X318810Y-12108000D01*
X318810Y-12108000D02*
X337857Y-12127048D01*
X337857Y-12127048D02*
X347381Y-12146095D01*
X347381Y-12146095D02*
X356905Y-12184190D01*
X356905Y-12184190D02*
X356905Y-12212762D01*
X356905Y-12212762D02*
X347381Y-12250857D01*
X347381Y-12250857D02*
X337857Y-12269905D01*
X337857Y-12269905D02*
X318810Y-12288952D01*
X318810Y-12288952D02*
X290238Y-12298476D01*
X290238Y-12298476D02*
X242619Y-12298476D01*
X442619Y-12298476D02*
X442619Y-12165143D01*
X442619Y-12203238D02*
X452143Y-12184190D01*
X452143Y-12184190D02*
X461667Y-12174667D01*
X461667Y-12174667D02*
X480714Y-12165143D01*
X480714Y-12165143D02*
X499762Y-12165143D01*
X566429Y-12298476D02*
X566429Y-12165143D01*
X566429Y-12098476D02*
X556905Y-12108000D01*
X556905Y-12108000D02*
X566429Y-12117524D01*
X566429Y-12117524D02*
X575952Y-12108000D01*
X575952Y-12108000D02*
X566429Y-12098476D01*
X566429Y-12098476D02*
X566429Y-12117524D01*
X690238Y-12298476D02*
X671190Y-12288952D01*
X671190Y-12288952D02*
X661667Y-12269905D01*
X661667Y-12269905D02*
X661667Y-12098476D01*
X795000Y-12298476D02*
X775952Y-12288952D01*
X775952Y-12288952D02*
X766428Y-12269905D01*
X766428Y-12269905D02*
X766428Y-12098476D01*
X991190Y-12298476D02*
X991190Y-12098476D01*
X991190Y-12098476D02*
X1057857Y-12241333D01*
X1057857Y-12241333D02*
X1124524Y-12098476D01*
X1124524Y-12098476D02*
X1124524Y-12298476D01*
X1305476Y-12298476D02*
X1305476Y-12193714D01*
X1305476Y-12193714D02*
X1295952Y-12174667D01*
X1295952Y-12174667D02*
X1276905Y-12165143D01*
X1276905Y-12165143D02*
X1238809Y-12165143D01*
X1238809Y-12165143D02*
X1219762Y-12174667D01*
X1305476Y-12288952D02*
X1286429Y-12298476D01*
X1286429Y-12298476D02*
X1238809Y-12298476D01*
X1238809Y-12298476D02*
X1219762Y-12288952D01*
X1219762Y-12288952D02*
X1210238Y-12269905D01*
X1210238Y-12269905D02*
X1210238Y-12250857D01*
X1210238Y-12250857D02*
X1219762Y-12231809D01*
X1219762Y-12231809D02*
X1238809Y-12222286D01*
X1238809Y-12222286D02*
X1286429Y-12222286D01*
X1286429Y-12222286D02*
X1305476Y-12212762D01*
X1400714Y-12165143D02*
X1400714Y-12365143D01*
X1400714Y-12174667D02*
X1419762Y-12165143D01*
X1419762Y-12165143D02*
X1457857Y-12165143D01*
X1457857Y-12165143D02*
X1476905Y-12174667D01*
X1476905Y-12174667D02*
X1486428Y-12184190D01*
X1486428Y-12184190D02*
X1495952Y-12203238D01*
X1495952Y-12203238D02*
X1495952Y-12260381D01*
X1495952Y-12260381D02*
X1486428Y-12279428D01*
X1486428Y-12279428D02*
X1476905Y-12288952D01*
X1476905Y-12288952D02*
X1457857Y-12298476D01*
X1457857Y-12298476D02*
X1419762Y-12298476D01*
X1419762Y-12298476D02*
X1400714Y-12288952D01*
X1581667Y-12279428D02*
X1591190Y-12288952D01*
X1591190Y-12288952D02*
X1581667Y-12298476D01*
X1581667Y-12298476D02*
X1572143Y-12288952D01*
X1572143Y-12288952D02*
X1581667Y-12279428D01*
X1581667Y-12279428D02*
X1581667Y-12298476D01*
X1581667Y-12174667D02*
X1591190Y-12184190D01*
X1591190Y-12184190D02*
X1581667Y-12193714D01*
X1581667Y-12193714D02*
X1572143Y-12184190D01*
X1572143Y-12184190D02*
X1581667Y-12174667D01*
X1581667Y-12174667D02*
X1581667Y-12193714D01*
X-205000Y-12545000D02*
X-5000Y-12745000D01*
X-5000Y-12545000D02*
X-205000Y-12745000D01*
X223571Y-12518476D02*
X347381Y-12518476D01*
X347381Y-12518476D02*
X280714Y-12594667D01*
X280714Y-12594667D02*
X309286Y-12594667D01*
X309286Y-12594667D02*
X328333Y-12604190D01*
X328333Y-12604190D02*
X337857Y-12613714D01*
X337857Y-12613714D02*
X347381Y-12632762D01*
X347381Y-12632762D02*
X347381Y-12680381D01*
X347381Y-12680381D02*
X337857Y-12699428D01*
X337857Y-12699428D02*
X328333Y-12708952D01*
X328333Y-12708952D02*
X309286Y-12718476D01*
X309286Y-12718476D02*
X252143Y-12718476D01*
X252143Y-12718476D02*
X233095Y-12708952D01*
X233095Y-12708952D02*
X223571Y-12699428D01*
X433095Y-12699428D02*
X442619Y-12708952D01*
X442619Y-12708952D02*
X433095Y-12718476D01*
X433095Y-12718476D02*
X423571Y-12708952D01*
X423571Y-12708952D02*
X433095Y-12699428D01*
X433095Y-12699428D02*
X433095Y-12718476D01*
X566429Y-12518476D02*
X585476Y-12518476D01*
X585476Y-12518476D02*
X604524Y-12528000D01*
X604524Y-12528000D02*
X614048Y-12537524D01*
X614048Y-12537524D02*
X623571Y-12556571D01*
X623571Y-12556571D02*
X633095Y-12594667D01*
X633095Y-12594667D02*
X633095Y-12642286D01*
X633095Y-12642286D02*
X623571Y-12680381D01*
X623571Y-12680381D02*
X614048Y-12699428D01*
X614048Y-12699428D02*
X604524Y-12708952D01*
X604524Y-12708952D02*
X585476Y-12718476D01*
X585476Y-12718476D02*
X566429Y-12718476D01*
X566429Y-12718476D02*
X547381Y-12708952D01*
X547381Y-12708952D02*
X537857Y-12699428D01*
X537857Y-12699428D02*
X528333Y-12680381D01*
X528333Y-12680381D02*
X518809Y-12642286D01*
X518809Y-12642286D02*
X518809Y-12594667D01*
X518809Y-12594667D02*
X528333Y-12556571D01*
X528333Y-12556571D02*
X537857Y-12537524D01*
X537857Y-12537524D02*
X547381Y-12528000D01*
X547381Y-12528000D02*
X566429Y-12518476D01*
X756905Y-12518476D02*
X775952Y-12518476D01*
X775952Y-12518476D02*
X795000Y-12528000D01*
X795000Y-12528000D02*
X804524Y-12537524D01*
X804524Y-12537524D02*
X814048Y-12556571D01*
X814048Y-12556571D02*
X823571Y-12594667D01*
X823571Y-12594667D02*
X823571Y-12642286D01*
X823571Y-12642286D02*
X814048Y-12680381D01*
X814048Y-12680381D02*
X804524Y-12699428D01*
X804524Y-12699428D02*
X795000Y-12708952D01*
X795000Y-12708952D02*
X775952Y-12718476D01*
X775952Y-12718476D02*
X756905Y-12718476D01*
X756905Y-12718476D02*
X737857Y-12708952D01*
X737857Y-12708952D02*
X728333Y-12699428D01*
X728333Y-12699428D02*
X718809Y-12680381D01*
X718809Y-12680381D02*
X709286Y-12642286D01*
X709286Y-12642286D02*
X709286Y-12594667D01*
X709286Y-12594667D02*
X718809Y-12556571D01*
X718809Y-12556571D02*
X728333Y-12537524D01*
X728333Y-12537524D02*
X737857Y-12528000D01*
X737857Y-12528000D02*
X756905Y-12518476D01*
X947381Y-12518476D02*
X966429Y-12518476D01*
X966429Y-12518476D02*
X985476Y-12528000D01*
X985476Y-12528000D02*
X995000Y-12537524D01*
X995000Y-12537524D02*
X1004524Y-12556571D01*
X1004524Y-12556571D02*
X1014048Y-12594667D01*
X1014048Y-12594667D02*
X1014048Y-12642286D01*
X1014048Y-12642286D02*
X1004524Y-12680381D01*
X1004524Y-12680381D02*
X995000Y-12699428D01*
X995000Y-12699428D02*
X985476Y-12708952D01*
X985476Y-12708952D02*
X966429Y-12718476D01*
X966429Y-12718476D02*
X947381Y-12718476D01*
X947381Y-12718476D02*
X928333Y-12708952D01*
X928333Y-12708952D02*
X918809Y-12699428D01*
X918809Y-12699428D02*
X909286Y-12680381D01*
X909286Y-12680381D02*
X899762Y-12642286D01*
X899762Y-12642286D02*
X899762Y-12594667D01*
X899762Y-12594667D02*
X909286Y-12556571D01*
X909286Y-12556571D02*
X918809Y-12537524D01*
X918809Y-12537524D02*
X928333Y-12528000D01*
X928333Y-12528000D02*
X947381Y-12518476D01*
X1099762Y-12718476D02*
X1099762Y-12585143D01*
X1099762Y-12604190D02*
X1109286Y-12594667D01*
X1109286Y-12594667D02*
X1128333Y-12585143D01*
X1128333Y-12585143D02*
X1156905Y-12585143D01*
X1156905Y-12585143D02*
X1175952Y-12594667D01*
X1175952Y-12594667D02*
X1185476Y-12613714D01*
X1185476Y-12613714D02*
X1185476Y-12718476D01*
X1185476Y-12613714D02*
X1195000Y-12594667D01*
X1195000Y-12594667D02*
X1214048Y-12585143D01*
X1214048Y-12585143D02*
X1242619Y-12585143D01*
X1242619Y-12585143D02*
X1261667Y-12594667D01*
X1261667Y-12594667D02*
X1271191Y-12613714D01*
X1271191Y-12613714D02*
X1271191Y-12718476D01*
X1366429Y-12718476D02*
X1366429Y-12585143D01*
X1366429Y-12604190D02*
X1375952Y-12594667D01*
X1375952Y-12594667D02*
X1395000Y-12585143D01*
X1395000Y-12585143D02*
X1423571Y-12585143D01*
X1423571Y-12585143D02*
X1442619Y-12594667D01*
X1442619Y-12594667D02*
X1452143Y-12613714D01*
X1452143Y-12613714D02*
X1452143Y-12718476D01*
X1452143Y-12613714D02*
X1461667Y-12594667D01*
X1461667Y-12594667D02*
X1480714Y-12585143D01*
X1480714Y-12585143D02*
X1509286Y-12585143D01*
X1509286Y-12585143D02*
X1528333Y-12594667D01*
X1528333Y-12594667D02*
X1537857Y-12613714D01*
X1537857Y-12613714D02*
X1537857Y-12718476D01*
X1895952Y-12508952D02*
X1724524Y-12766095D01*
X2120714Y-12518476D02*
X2139762Y-12518476D01*
X2139762Y-12518476D02*
X2158810Y-12528000D01*
X2158810Y-12528000D02*
X2168333Y-12537524D01*
X2168333Y-12537524D02*
X2177857Y-12556571D01*
X2177857Y-12556571D02*
X2187381Y-12594667D01*
X2187381Y-12594667D02*
X2187381Y-12642286D01*
X2187381Y-12642286D02*
X2177857Y-12680381D01*
X2177857Y-12680381D02*
X2168333Y-12699428D01*
X2168333Y-12699428D02*
X2158810Y-12708952D01*
X2158810Y-12708952D02*
X2139762Y-12718476D01*
X2139762Y-12718476D02*
X2120714Y-12718476D01*
X2120714Y-12718476D02*
X2101667Y-12708952D01*
X2101667Y-12708952D02*
X2092143Y-12699428D01*
X2092143Y-12699428D02*
X2082619Y-12680381D01*
X2082619Y-12680381D02*
X2073095Y-12642286D01*
X2073095Y-12642286D02*
X2073095Y-12594667D01*
X2073095Y-12594667D02*
X2082619Y-12556571D01*
X2082619Y-12556571D02*
X2092143Y-12537524D01*
X2092143Y-12537524D02*
X2101667Y-12528000D01*
X2101667Y-12528000D02*
X2120714Y-12518476D01*
X2273095Y-12699428D02*
X2282619Y-12708952D01*
X2282619Y-12708952D02*
X2273095Y-12718476D01*
X2273095Y-12718476D02*
X2263572Y-12708952D01*
X2263572Y-12708952D02*
X2273095Y-12699428D01*
X2273095Y-12699428D02*
X2273095Y-12718476D01*
X2473095Y-12718476D02*
X2358810Y-12718476D01*
X2415952Y-12718476D02*
X2415952Y-12518476D01*
X2415952Y-12518476D02*
X2396905Y-12547048D01*
X2396905Y-12547048D02*
X2377857Y-12566095D01*
X2377857Y-12566095D02*
X2358810Y-12575619D01*
X2663572Y-12718476D02*
X2549286Y-12718476D01*
X2606429Y-12718476D02*
X2606429Y-12518476D01*
X2606429Y-12518476D02*
X2587381Y-12547048D01*
X2587381Y-12547048D02*
X2568333Y-12566095D01*
X2568333Y-12566095D02*
X2549286Y-12575619D01*
X2777857Y-12604190D02*
X2758810Y-12594667D01*
X2758810Y-12594667D02*
X2749286Y-12585143D01*
X2749286Y-12585143D02*
X2739762Y-12566095D01*
X2739762Y-12566095D02*
X2739762Y-12556571D01*
X2739762Y-12556571D02*
X2749286Y-12537524D01*
X2749286Y-12537524D02*
X2758810Y-12528000D01*
X2758810Y-12528000D02*
X2777857Y-12518476D01*
X2777857Y-12518476D02*
X2815952Y-12518476D01*
X2815952Y-12518476D02*
X2835000Y-12528000D01*
X2835000Y-12528000D02*
X2844524Y-12537524D01*
X2844524Y-12537524D02*
X2854048Y-12556571D01*
X2854048Y-12556571D02*
X2854048Y-12566095D01*
X2854048Y-12566095D02*
X2844524Y-12585143D01*
X2844524Y-12585143D02*
X2835000Y-12594667D01*
X2835000Y-12594667D02*
X2815952Y-12604190D01*
X2815952Y-12604190D02*
X2777857Y-12604190D01*
X2777857Y-12604190D02*
X2758810Y-12613714D01*
X2758810Y-12613714D02*
X2749286Y-12623238D01*
X2749286Y-12623238D02*
X2739762Y-12642286D01*
X2739762Y-12642286D02*
X2739762Y-12680381D01*
X2739762Y-12680381D02*
X2749286Y-12699428D01*
X2749286Y-12699428D02*
X2758810Y-12708952D01*
X2758810Y-12708952D02*
X2777857Y-12718476D01*
X2777857Y-12718476D02*
X2815952Y-12718476D01*
X2815952Y-12718476D02*
X2835000Y-12708952D01*
X2835000Y-12708952D02*
X2844524Y-12699428D01*
X2844524Y-12699428D02*
X2854048Y-12680381D01*
X2854048Y-12680381D02*
X2854048Y-12642286D01*
X2854048Y-12642286D02*
X2844524Y-12623238D01*
X2844524Y-12623238D02*
X2835000Y-12613714D01*
X2835000Y-12613714D02*
X2815952Y-12604190D01*
X3044524Y-12718476D02*
X2930238Y-12718476D01*
X2987381Y-12718476D02*
X2987381Y-12518476D01*
X2987381Y-12518476D02*
X2968333Y-12547048D01*
X2968333Y-12547048D02*
X2949286Y-12566095D01*
X2949286Y-12566095D02*
X2930238Y-12575619D01*
X3120714Y-12518476D02*
X3120714Y-12556571D01*
X3196905Y-12518476D02*
X3196905Y-12556571D01*
X3459762Y-12794667D02*
X3450238Y-12785143D01*
X3450238Y-12785143D02*
X3431191Y-12756571D01*
X3431191Y-12756571D02*
X3421667Y-12737524D01*
X3421667Y-12737524D02*
X3412143Y-12708952D01*
X3412143Y-12708952D02*
X3402619Y-12661333D01*
X3402619Y-12661333D02*
X3402619Y-12623238D01*
X3402619Y-12623238D02*
X3412143Y-12575619D01*
X3412143Y-12575619D02*
X3421667Y-12547048D01*
X3421667Y-12547048D02*
X3431191Y-12528000D01*
X3431191Y-12528000D02*
X3450238Y-12499428D01*
X3450238Y-12499428D02*
X3459762Y-12489905D01*
X3516905Y-12518476D02*
X3640714Y-12518476D01*
X3640714Y-12518476D02*
X3574048Y-12594667D01*
X3574048Y-12594667D02*
X3602619Y-12594667D01*
X3602619Y-12594667D02*
X3621667Y-12604190D01*
X3621667Y-12604190D02*
X3631191Y-12613714D01*
X3631191Y-12613714D02*
X3640714Y-12632762D01*
X3640714Y-12632762D02*
X3640714Y-12680381D01*
X3640714Y-12680381D02*
X3631191Y-12699428D01*
X3631191Y-12699428D02*
X3621667Y-12708952D01*
X3621667Y-12708952D02*
X3602619Y-12718476D01*
X3602619Y-12718476D02*
X3545476Y-12718476D01*
X3545476Y-12718476D02*
X3526429Y-12708952D01*
X3526429Y-12708952D02*
X3516905Y-12699428D01*
X3846429Y-12718476D02*
X3846429Y-12518476D01*
X3932143Y-12718476D02*
X3932143Y-12613714D01*
X3932143Y-12613714D02*
X3922619Y-12594667D01*
X3922619Y-12594667D02*
X3903572Y-12585143D01*
X3903572Y-12585143D02*
X3875000Y-12585143D01*
X3875000Y-12585143D02*
X3855952Y-12594667D01*
X3855952Y-12594667D02*
X3846429Y-12604190D01*
X4055952Y-12718476D02*
X4036905Y-12708952D01*
X4036905Y-12708952D02*
X4027381Y-12699428D01*
X4027381Y-12699428D02*
X4017857Y-12680381D01*
X4017857Y-12680381D02*
X4017857Y-12623238D01*
X4017857Y-12623238D02*
X4027381Y-12604190D01*
X4027381Y-12604190D02*
X4036905Y-12594667D01*
X4036905Y-12594667D02*
X4055952Y-12585143D01*
X4055952Y-12585143D02*
X4084524Y-12585143D01*
X4084524Y-12585143D02*
X4103572Y-12594667D01*
X4103572Y-12594667D02*
X4113095Y-12604190D01*
X4113095Y-12604190D02*
X4122619Y-12623238D01*
X4122619Y-12623238D02*
X4122619Y-12680381D01*
X4122619Y-12680381D02*
X4113095Y-12699428D01*
X4113095Y-12699428D02*
X4103572Y-12708952D01*
X4103572Y-12708952D02*
X4084524Y-12718476D01*
X4084524Y-12718476D02*
X4055952Y-12718476D01*
X4236905Y-12718476D02*
X4217857Y-12708952D01*
X4217857Y-12708952D02*
X4208334Y-12689905D01*
X4208334Y-12689905D02*
X4208334Y-12518476D01*
X4389286Y-12708952D02*
X4370238Y-12718476D01*
X4370238Y-12718476D02*
X4332143Y-12718476D01*
X4332143Y-12718476D02*
X4313095Y-12708952D01*
X4313095Y-12708952D02*
X4303572Y-12689905D01*
X4303572Y-12689905D02*
X4303572Y-12613714D01*
X4303572Y-12613714D02*
X4313095Y-12594667D01*
X4313095Y-12594667D02*
X4332143Y-12585143D01*
X4332143Y-12585143D02*
X4370238Y-12585143D01*
X4370238Y-12585143D02*
X4389286Y-12594667D01*
X4389286Y-12594667D02*
X4398810Y-12613714D01*
X4398810Y-12613714D02*
X4398810Y-12632762D01*
X4398810Y-12632762D02*
X4303572Y-12651809D01*
X4475000Y-12708952D02*
X4494048Y-12718476D01*
X4494048Y-12718476D02*
X4532143Y-12718476D01*
X4532143Y-12718476D02*
X4551191Y-12708952D01*
X4551191Y-12708952D02*
X4560715Y-12689905D01*
X4560715Y-12689905D02*
X4560715Y-12680381D01*
X4560715Y-12680381D02*
X4551191Y-12661333D01*
X4551191Y-12661333D02*
X4532143Y-12651809D01*
X4532143Y-12651809D02*
X4503572Y-12651809D01*
X4503572Y-12651809D02*
X4484524Y-12642286D01*
X4484524Y-12642286D02*
X4475000Y-12623238D01*
X4475000Y-12623238D02*
X4475000Y-12613714D01*
X4475000Y-12613714D02*
X4484524Y-12594667D01*
X4484524Y-12594667D02*
X4503572Y-12585143D01*
X4503572Y-12585143D02*
X4532143Y-12585143D01*
X4532143Y-12585143D02*
X4551191Y-12594667D01*
X4627381Y-12794667D02*
X4636905Y-12785143D01*
X4636905Y-12785143D02*
X4655953Y-12756571D01*
X4655953Y-12756571D02*
X4665476Y-12737524D01*
X4665476Y-12737524D02*
X4675000Y-12708952D01*
X4675000Y-12708952D02*
X4684524Y-12661333D01*
X4684524Y-12661333D02*
X4684524Y-12623238D01*
X4684524Y-12623238D02*
X4675000Y-12575619D01*
X4675000Y-12575619D02*
X4665476Y-12547048D01*
X4665476Y-12547048D02*
X4655953Y-12528000D01*
X4655953Y-12528000D02*
X4636905Y-12499428D01*
X4636905Y-12499428D02*
X4627381Y-12489905D01*
X4956905Y-12794667D02*
X4947381Y-12785143D01*
X4947381Y-12785143D02*
X4928334Y-12756571D01*
X4928334Y-12756571D02*
X4918810Y-12737524D01*
X4918810Y-12737524D02*
X4909286Y-12708952D01*
X4909286Y-12708952D02*
X4899762Y-12661333D01*
X4899762Y-12661333D02*
X4899762Y-12623238D01*
X4899762Y-12623238D02*
X4909286Y-12575619D01*
X4909286Y-12575619D02*
X4918810Y-12547048D01*
X4918810Y-12547048D02*
X4928334Y-12528000D01*
X4928334Y-12528000D02*
X4947381Y-12499428D01*
X4947381Y-12499428D02*
X4956905Y-12489905D01*
X5033095Y-12585143D02*
X5033095Y-12718476D01*
X5033095Y-12604190D02*
X5042619Y-12594667D01*
X5042619Y-12594667D02*
X5061667Y-12585143D01*
X5061667Y-12585143D02*
X5090238Y-12585143D01*
X5090238Y-12585143D02*
X5109286Y-12594667D01*
X5109286Y-12594667D02*
X5118810Y-12613714D01*
X5118810Y-12613714D02*
X5118810Y-12718476D01*
X5242619Y-12718476D02*
X5223572Y-12708952D01*
X5223572Y-12708952D02*
X5214048Y-12699428D01*
X5214048Y-12699428D02*
X5204524Y-12680381D01*
X5204524Y-12680381D02*
X5204524Y-12623238D01*
X5204524Y-12623238D02*
X5214048Y-12604190D01*
X5214048Y-12604190D02*
X5223572Y-12594667D01*
X5223572Y-12594667D02*
X5242619Y-12585143D01*
X5242619Y-12585143D02*
X5271191Y-12585143D01*
X5271191Y-12585143D02*
X5290238Y-12594667D01*
X5290238Y-12594667D02*
X5299762Y-12604190D01*
X5299762Y-12604190D02*
X5309286Y-12623238D01*
X5309286Y-12623238D02*
X5309286Y-12680381D01*
X5309286Y-12680381D02*
X5299762Y-12699428D01*
X5299762Y-12699428D02*
X5290238Y-12708952D01*
X5290238Y-12708952D02*
X5271191Y-12718476D01*
X5271191Y-12718476D02*
X5242619Y-12718476D01*
X5366429Y-12585143D02*
X5442619Y-12585143D01*
X5395000Y-12518476D02*
X5395000Y-12689905D01*
X5395000Y-12689905D02*
X5404524Y-12708952D01*
X5404524Y-12708952D02*
X5423572Y-12718476D01*
X5423572Y-12718476D02*
X5442619Y-12718476D01*
X5629286Y-12585143D02*
X5629286Y-12785143D01*
X5629286Y-12594667D02*
X5648333Y-12585143D01*
X5648333Y-12585143D02*
X5686429Y-12585143D01*
X5686429Y-12585143D02*
X5705476Y-12594667D01*
X5705476Y-12594667D02*
X5715000Y-12604190D01*
X5715000Y-12604190D02*
X5724524Y-12623238D01*
X5724524Y-12623238D02*
X5724524Y-12680381D01*
X5724524Y-12680381D02*
X5715000Y-12699428D01*
X5715000Y-12699428D02*
X5705476Y-12708952D01*
X5705476Y-12708952D02*
X5686429Y-12718476D01*
X5686429Y-12718476D02*
X5648333Y-12718476D01*
X5648333Y-12718476D02*
X5629286Y-12708952D01*
X5838810Y-12718476D02*
X5819762Y-12708952D01*
X5819762Y-12708952D02*
X5810238Y-12689905D01*
X5810238Y-12689905D02*
X5810238Y-12518476D01*
X6000714Y-12718476D02*
X6000714Y-12613714D01*
X6000714Y-12613714D02*
X5991191Y-12594667D01*
X5991191Y-12594667D02*
X5972143Y-12585143D01*
X5972143Y-12585143D02*
X5934048Y-12585143D01*
X5934048Y-12585143D02*
X5915000Y-12594667D01*
X6000714Y-12708952D02*
X5981667Y-12718476D01*
X5981667Y-12718476D02*
X5934048Y-12718476D01*
X5934048Y-12718476D02*
X5915000Y-12708952D01*
X5915000Y-12708952D02*
X5905476Y-12689905D01*
X5905476Y-12689905D02*
X5905476Y-12670857D01*
X5905476Y-12670857D02*
X5915000Y-12651809D01*
X5915000Y-12651809D02*
X5934048Y-12642286D01*
X5934048Y-12642286D02*
X5981667Y-12642286D01*
X5981667Y-12642286D02*
X6000714Y-12632762D01*
X6067381Y-12585143D02*
X6143572Y-12585143D01*
X6095953Y-12518476D02*
X6095953Y-12689905D01*
X6095953Y-12689905D02*
X6105476Y-12708952D01*
X6105476Y-12708952D02*
X6124524Y-12718476D01*
X6124524Y-12718476D02*
X6143572Y-12718476D01*
X6286429Y-12708952D02*
X6267381Y-12718476D01*
X6267381Y-12718476D02*
X6229286Y-12718476D01*
X6229286Y-12718476D02*
X6210238Y-12708952D01*
X6210238Y-12708952D02*
X6200714Y-12689905D01*
X6200714Y-12689905D02*
X6200714Y-12613714D01*
X6200714Y-12613714D02*
X6210238Y-12594667D01*
X6210238Y-12594667D02*
X6229286Y-12585143D01*
X6229286Y-12585143D02*
X6267381Y-12585143D01*
X6267381Y-12585143D02*
X6286429Y-12594667D01*
X6286429Y-12594667D02*
X6295953Y-12613714D01*
X6295953Y-12613714D02*
X6295953Y-12632762D01*
X6295953Y-12632762D02*
X6200714Y-12651809D01*
X6467381Y-12718476D02*
X6467381Y-12518476D01*
X6467381Y-12708952D02*
X6448334Y-12718476D01*
X6448334Y-12718476D02*
X6410238Y-12718476D01*
X6410238Y-12718476D02*
X6391191Y-12708952D01*
X6391191Y-12708952D02*
X6381667Y-12699428D01*
X6381667Y-12699428D02*
X6372143Y-12680381D01*
X6372143Y-12680381D02*
X6372143Y-12623238D01*
X6372143Y-12623238D02*
X6381667Y-12604190D01*
X6381667Y-12604190D02*
X6391191Y-12594667D01*
X6391191Y-12594667D02*
X6410238Y-12585143D01*
X6410238Y-12585143D02*
X6448334Y-12585143D01*
X6448334Y-12585143D02*
X6467381Y-12594667D01*
X6543572Y-12794667D02*
X6553095Y-12785143D01*
X6553095Y-12785143D02*
X6572143Y-12756571D01*
X6572143Y-12756571D02*
X6581667Y-12737524D01*
X6581667Y-12737524D02*
X6591191Y-12708952D01*
X6591191Y-12708952D02*
X6600714Y-12661333D01*
X6600714Y-12661333D02*
X6600714Y-12623238D01*
X6600714Y-12623238D02*
X6591191Y-12575619D01*
X6591191Y-12575619D02*
X6581667Y-12547048D01*
X6581667Y-12547048D02*
X6572143Y-12528000D01*
X6572143Y-12528000D02*
X6553095Y-12499428D01*
X6553095Y-12499428D02*
X6543572Y-12489905D01*
X-5000Y-12965000D02*
G75*
G03*
X-5000Y-12965000I-100000J0D01*
G01*
X223571Y-12838476D02*
X347381Y-12838476D01*
X347381Y-12838476D02*
X280714Y-12914667D01*
X280714Y-12914667D02*
X309286Y-12914667D01*
X309286Y-12914667D02*
X328333Y-12924190D01*
X328333Y-12924190D02*
X337857Y-12933714D01*
X337857Y-12933714D02*
X347381Y-12952762D01*
X347381Y-12952762D02*
X347381Y-13000381D01*
X347381Y-13000381D02*
X337857Y-13019428D01*
X337857Y-13019428D02*
X328333Y-13028952D01*
X328333Y-13028952D02*
X309286Y-13038476D01*
X309286Y-13038476D02*
X252143Y-13038476D01*
X252143Y-13038476D02*
X233095Y-13028952D01*
X233095Y-13028952D02*
X223571Y-13019428D01*
X433095Y-13019428D02*
X442619Y-13028952D01*
X442619Y-13028952D02*
X433095Y-13038476D01*
X433095Y-13038476D02*
X423571Y-13028952D01*
X423571Y-13028952D02*
X433095Y-13019428D01*
X433095Y-13019428D02*
X433095Y-13038476D01*
X518809Y-12857524D02*
X528333Y-12848000D01*
X528333Y-12848000D02*
X547381Y-12838476D01*
X547381Y-12838476D02*
X595000Y-12838476D01*
X595000Y-12838476D02*
X614048Y-12848000D01*
X614048Y-12848000D02*
X623571Y-12857524D01*
X623571Y-12857524D02*
X633095Y-12876571D01*
X633095Y-12876571D02*
X633095Y-12895619D01*
X633095Y-12895619D02*
X623571Y-12924190D01*
X623571Y-12924190D02*
X509286Y-13038476D01*
X509286Y-13038476D02*
X633095Y-13038476D01*
X756905Y-12838476D02*
X775952Y-12838476D01*
X775952Y-12838476D02*
X795000Y-12848000D01*
X795000Y-12848000D02*
X804524Y-12857524D01*
X804524Y-12857524D02*
X814048Y-12876571D01*
X814048Y-12876571D02*
X823571Y-12914667D01*
X823571Y-12914667D02*
X823571Y-12962286D01*
X823571Y-12962286D02*
X814048Y-13000381D01*
X814048Y-13000381D02*
X804524Y-13019428D01*
X804524Y-13019428D02*
X795000Y-13028952D01*
X795000Y-13028952D02*
X775952Y-13038476D01*
X775952Y-13038476D02*
X756905Y-13038476D01*
X756905Y-13038476D02*
X737857Y-13028952D01*
X737857Y-13028952D02*
X728333Y-13019428D01*
X728333Y-13019428D02*
X718809Y-13000381D01*
X718809Y-13000381D02*
X709286Y-12962286D01*
X709286Y-12962286D02*
X709286Y-12914667D01*
X709286Y-12914667D02*
X718809Y-12876571D01*
X718809Y-12876571D02*
X728333Y-12857524D01*
X728333Y-12857524D02*
X737857Y-12848000D01*
X737857Y-12848000D02*
X756905Y-12838476D01*
X947381Y-12838476D02*
X966429Y-12838476D01*
X966429Y-12838476D02*
X985476Y-12848000D01*
X985476Y-12848000D02*
X995000Y-12857524D01*
X995000Y-12857524D02*
X1004524Y-12876571D01*
X1004524Y-12876571D02*
X1014048Y-12914667D01*
X1014048Y-12914667D02*
X1014048Y-12962286D01*
X1014048Y-12962286D02*
X1004524Y-13000381D01*
X1004524Y-13000381D02*
X995000Y-13019428D01*
X995000Y-13019428D02*
X985476Y-13028952D01*
X985476Y-13028952D02*
X966429Y-13038476D01*
X966429Y-13038476D02*
X947381Y-13038476D01*
X947381Y-13038476D02*
X928333Y-13028952D01*
X928333Y-13028952D02*
X918809Y-13019428D01*
X918809Y-13019428D02*
X909286Y-13000381D01*
X909286Y-13000381D02*
X899762Y-12962286D01*
X899762Y-12962286D02*
X899762Y-12914667D01*
X899762Y-12914667D02*
X909286Y-12876571D01*
X909286Y-12876571D02*
X918809Y-12857524D01*
X918809Y-12857524D02*
X928333Y-12848000D01*
X928333Y-12848000D02*
X947381Y-12838476D01*
X1099762Y-13038476D02*
X1099762Y-12905143D01*
X1099762Y-12924190D02*
X1109286Y-12914667D01*
X1109286Y-12914667D02*
X1128333Y-12905143D01*
X1128333Y-12905143D02*
X1156905Y-12905143D01*
X1156905Y-12905143D02*
X1175952Y-12914667D01*
X1175952Y-12914667D02*
X1185476Y-12933714D01*
X1185476Y-12933714D02*
X1185476Y-13038476D01*
X1185476Y-12933714D02*
X1195000Y-12914667D01*
X1195000Y-12914667D02*
X1214048Y-12905143D01*
X1214048Y-12905143D02*
X1242619Y-12905143D01*
X1242619Y-12905143D02*
X1261667Y-12914667D01*
X1261667Y-12914667D02*
X1271191Y-12933714D01*
X1271191Y-12933714D02*
X1271191Y-13038476D01*
X1366429Y-13038476D02*
X1366429Y-12905143D01*
X1366429Y-12924190D02*
X1375952Y-12914667D01*
X1375952Y-12914667D02*
X1395000Y-12905143D01*
X1395000Y-12905143D02*
X1423571Y-12905143D01*
X1423571Y-12905143D02*
X1442619Y-12914667D01*
X1442619Y-12914667D02*
X1452143Y-12933714D01*
X1452143Y-12933714D02*
X1452143Y-13038476D01*
X1452143Y-12933714D02*
X1461667Y-12914667D01*
X1461667Y-12914667D02*
X1480714Y-12905143D01*
X1480714Y-12905143D02*
X1509286Y-12905143D01*
X1509286Y-12905143D02*
X1528333Y-12914667D01*
X1528333Y-12914667D02*
X1537857Y-12933714D01*
X1537857Y-12933714D02*
X1537857Y-13038476D01*
X1895952Y-12828952D02*
X1724524Y-13086095D01*
X2120714Y-12838476D02*
X2139762Y-12838476D01*
X2139762Y-12838476D02*
X2158810Y-12848000D01*
X2158810Y-12848000D02*
X2168333Y-12857524D01*
X2168333Y-12857524D02*
X2177857Y-12876571D01*
X2177857Y-12876571D02*
X2187381Y-12914667D01*
X2187381Y-12914667D02*
X2187381Y-12962286D01*
X2187381Y-12962286D02*
X2177857Y-13000381D01*
X2177857Y-13000381D02*
X2168333Y-13019428D01*
X2168333Y-13019428D02*
X2158810Y-13028952D01*
X2158810Y-13028952D02*
X2139762Y-13038476D01*
X2139762Y-13038476D02*
X2120714Y-13038476D01*
X2120714Y-13038476D02*
X2101667Y-13028952D01*
X2101667Y-13028952D02*
X2092143Y-13019428D01*
X2092143Y-13019428D02*
X2082619Y-13000381D01*
X2082619Y-13000381D02*
X2073095Y-12962286D01*
X2073095Y-12962286D02*
X2073095Y-12914667D01*
X2073095Y-12914667D02*
X2082619Y-12876571D01*
X2082619Y-12876571D02*
X2092143Y-12857524D01*
X2092143Y-12857524D02*
X2101667Y-12848000D01*
X2101667Y-12848000D02*
X2120714Y-12838476D01*
X2273095Y-13019428D02*
X2282619Y-13028952D01*
X2282619Y-13028952D02*
X2273095Y-13038476D01*
X2273095Y-13038476D02*
X2263572Y-13028952D01*
X2263572Y-13028952D02*
X2273095Y-13019428D01*
X2273095Y-13019428D02*
X2273095Y-13038476D01*
X2473095Y-13038476D02*
X2358810Y-13038476D01*
X2415952Y-13038476D02*
X2415952Y-12838476D01*
X2415952Y-12838476D02*
X2396905Y-12867048D01*
X2396905Y-12867048D02*
X2377857Y-12886095D01*
X2377857Y-12886095D02*
X2358810Y-12895619D01*
X2549286Y-12857524D02*
X2558810Y-12848000D01*
X2558810Y-12848000D02*
X2577857Y-12838476D01*
X2577857Y-12838476D02*
X2625476Y-12838476D01*
X2625476Y-12838476D02*
X2644524Y-12848000D01*
X2644524Y-12848000D02*
X2654048Y-12857524D01*
X2654048Y-12857524D02*
X2663572Y-12876571D01*
X2663572Y-12876571D02*
X2663572Y-12895619D01*
X2663572Y-12895619D02*
X2654048Y-12924190D01*
X2654048Y-12924190D02*
X2539762Y-13038476D01*
X2539762Y-13038476D02*
X2663572Y-13038476D01*
X2835000Y-12838476D02*
X2796905Y-12838476D01*
X2796905Y-12838476D02*
X2777857Y-12848000D01*
X2777857Y-12848000D02*
X2768333Y-12857524D01*
X2768333Y-12857524D02*
X2749286Y-12886095D01*
X2749286Y-12886095D02*
X2739762Y-12924190D01*
X2739762Y-12924190D02*
X2739762Y-13000381D01*
X2739762Y-13000381D02*
X2749286Y-13019428D01*
X2749286Y-13019428D02*
X2758810Y-13028952D01*
X2758810Y-13028952D02*
X2777857Y-13038476D01*
X2777857Y-13038476D02*
X2815952Y-13038476D01*
X2815952Y-13038476D02*
X2835000Y-13028952D01*
X2835000Y-13028952D02*
X2844524Y-13019428D01*
X2844524Y-13019428D02*
X2854048Y-13000381D01*
X2854048Y-13000381D02*
X2854048Y-12952762D01*
X2854048Y-12952762D02*
X2844524Y-12933714D01*
X2844524Y-12933714D02*
X2835000Y-12924190D01*
X2835000Y-12924190D02*
X2815952Y-12914667D01*
X2815952Y-12914667D02*
X2777857Y-12914667D01*
X2777857Y-12914667D02*
X2758810Y-12924190D01*
X2758810Y-12924190D02*
X2749286Y-12933714D01*
X2749286Y-12933714D02*
X2739762Y-12952762D01*
X2977857Y-12838476D02*
X2996905Y-12838476D01*
X2996905Y-12838476D02*
X3015952Y-12848000D01*
X3015952Y-12848000D02*
X3025476Y-12857524D01*
X3025476Y-12857524D02*
X3035000Y-12876571D01*
X3035000Y-12876571D02*
X3044524Y-12914667D01*
X3044524Y-12914667D02*
X3044524Y-12962286D01*
X3044524Y-12962286D02*
X3035000Y-13000381D01*
X3035000Y-13000381D02*
X3025476Y-13019428D01*
X3025476Y-13019428D02*
X3015952Y-13028952D01*
X3015952Y-13028952D02*
X2996905Y-13038476D01*
X2996905Y-13038476D02*
X2977857Y-13038476D01*
X2977857Y-13038476D02*
X2958810Y-13028952D01*
X2958810Y-13028952D02*
X2949286Y-13019428D01*
X2949286Y-13019428D02*
X2939762Y-13000381D01*
X2939762Y-13000381D02*
X2930238Y-12962286D01*
X2930238Y-12962286D02*
X2930238Y-12914667D01*
X2930238Y-12914667D02*
X2939762Y-12876571D01*
X2939762Y-12876571D02*
X2949286Y-12857524D01*
X2949286Y-12857524D02*
X2958810Y-12848000D01*
X2958810Y-12848000D02*
X2977857Y-12838476D01*
X3120714Y-12838476D02*
X3120714Y-12876571D01*
X3196905Y-12838476D02*
X3196905Y-12876571D01*
X3459762Y-13114667D02*
X3450238Y-13105143D01*
X3450238Y-13105143D02*
X3431191Y-13076571D01*
X3431191Y-13076571D02*
X3421667Y-13057524D01*
X3421667Y-13057524D02*
X3412143Y-13028952D01*
X3412143Y-13028952D02*
X3402619Y-12981333D01*
X3402619Y-12981333D02*
X3402619Y-12943238D01*
X3402619Y-12943238D02*
X3412143Y-12895619D01*
X3412143Y-12895619D02*
X3421667Y-12867048D01*
X3421667Y-12867048D02*
X3431191Y-12848000D01*
X3431191Y-12848000D02*
X3450238Y-12819428D01*
X3450238Y-12819428D02*
X3459762Y-12809905D01*
X3631191Y-12838476D02*
X3535952Y-12838476D01*
X3535952Y-12838476D02*
X3526429Y-12933714D01*
X3526429Y-12933714D02*
X3535952Y-12924190D01*
X3535952Y-12924190D02*
X3555000Y-12914667D01*
X3555000Y-12914667D02*
X3602619Y-12914667D01*
X3602619Y-12914667D02*
X3621667Y-12924190D01*
X3621667Y-12924190D02*
X3631191Y-12933714D01*
X3631191Y-12933714D02*
X3640714Y-12952762D01*
X3640714Y-12952762D02*
X3640714Y-13000381D01*
X3640714Y-13000381D02*
X3631191Y-13019428D01*
X3631191Y-13019428D02*
X3621667Y-13028952D01*
X3621667Y-13028952D02*
X3602619Y-13038476D01*
X3602619Y-13038476D02*
X3555000Y-13038476D01*
X3555000Y-13038476D02*
X3535952Y-13028952D01*
X3535952Y-13028952D02*
X3526429Y-13019428D01*
X3846429Y-13038476D02*
X3846429Y-12838476D01*
X3932143Y-13038476D02*
X3932143Y-12933714D01*
X3932143Y-12933714D02*
X3922619Y-12914667D01*
X3922619Y-12914667D02*
X3903572Y-12905143D01*
X3903572Y-12905143D02*
X3875000Y-12905143D01*
X3875000Y-12905143D02*
X3855952Y-12914667D01*
X3855952Y-12914667D02*
X3846429Y-12924190D01*
X4055952Y-13038476D02*
X4036905Y-13028952D01*
X4036905Y-13028952D02*
X4027381Y-13019428D01*
X4027381Y-13019428D02*
X4017857Y-13000381D01*
X4017857Y-13000381D02*
X4017857Y-12943238D01*
X4017857Y-12943238D02*
X4027381Y-12924190D01*
X4027381Y-12924190D02*
X4036905Y-12914667D01*
X4036905Y-12914667D02*
X4055952Y-12905143D01*
X4055952Y-12905143D02*
X4084524Y-12905143D01*
X4084524Y-12905143D02*
X4103572Y-12914667D01*
X4103572Y-12914667D02*
X4113095Y-12924190D01*
X4113095Y-12924190D02*
X4122619Y-12943238D01*
X4122619Y-12943238D02*
X4122619Y-13000381D01*
X4122619Y-13000381D02*
X4113095Y-13019428D01*
X4113095Y-13019428D02*
X4103572Y-13028952D01*
X4103572Y-13028952D02*
X4084524Y-13038476D01*
X4084524Y-13038476D02*
X4055952Y-13038476D01*
X4236905Y-13038476D02*
X4217857Y-13028952D01*
X4217857Y-13028952D02*
X4208334Y-13009905D01*
X4208334Y-13009905D02*
X4208334Y-12838476D01*
X4389286Y-13028952D02*
X4370238Y-13038476D01*
X4370238Y-13038476D02*
X4332143Y-13038476D01*
X4332143Y-13038476D02*
X4313095Y-13028952D01*
X4313095Y-13028952D02*
X4303572Y-13009905D01*
X4303572Y-13009905D02*
X4303572Y-12933714D01*
X4303572Y-12933714D02*
X4313095Y-12914667D01*
X4313095Y-12914667D02*
X4332143Y-12905143D01*
X4332143Y-12905143D02*
X4370238Y-12905143D01*
X4370238Y-12905143D02*
X4389286Y-12914667D01*
X4389286Y-12914667D02*
X4398810Y-12933714D01*
X4398810Y-12933714D02*
X4398810Y-12952762D01*
X4398810Y-12952762D02*
X4303572Y-12971809D01*
X4475000Y-13028952D02*
X4494048Y-13038476D01*
X4494048Y-13038476D02*
X4532143Y-13038476D01*
X4532143Y-13038476D02*
X4551191Y-13028952D01*
X4551191Y-13028952D02*
X4560715Y-13009905D01*
X4560715Y-13009905D02*
X4560715Y-13000381D01*
X4560715Y-13000381D02*
X4551191Y-12981333D01*
X4551191Y-12981333D02*
X4532143Y-12971809D01*
X4532143Y-12971809D02*
X4503572Y-12971809D01*
X4503572Y-12971809D02*
X4484524Y-12962286D01*
X4484524Y-12962286D02*
X4475000Y-12943238D01*
X4475000Y-12943238D02*
X4475000Y-12933714D01*
X4475000Y-12933714D02*
X4484524Y-12914667D01*
X4484524Y-12914667D02*
X4503572Y-12905143D01*
X4503572Y-12905143D02*
X4532143Y-12905143D01*
X4532143Y-12905143D02*
X4551191Y-12914667D01*
X4627381Y-13114667D02*
X4636905Y-13105143D01*
X4636905Y-13105143D02*
X4655953Y-13076571D01*
X4655953Y-13076571D02*
X4665476Y-13057524D01*
X4665476Y-13057524D02*
X4675000Y-13028952D01*
X4675000Y-13028952D02*
X4684524Y-12981333D01*
X4684524Y-12981333D02*
X4684524Y-12943238D01*
X4684524Y-12943238D02*
X4675000Y-12895619D01*
X4675000Y-12895619D02*
X4665476Y-12867048D01*
X4665476Y-12867048D02*
X4655953Y-12848000D01*
X4655953Y-12848000D02*
X4636905Y-12819428D01*
X4636905Y-12819428D02*
X4627381Y-12809905D01*
X4956905Y-13114667D02*
X4947381Y-13105143D01*
X4947381Y-13105143D02*
X4928334Y-13076571D01*
X4928334Y-13076571D02*
X4918810Y-13057524D01*
X4918810Y-13057524D02*
X4909286Y-13028952D01*
X4909286Y-13028952D02*
X4899762Y-12981333D01*
X4899762Y-12981333D02*
X4899762Y-12943238D01*
X4899762Y-12943238D02*
X4909286Y-12895619D01*
X4909286Y-12895619D02*
X4918810Y-12867048D01*
X4918810Y-12867048D02*
X4928334Y-12848000D01*
X4928334Y-12848000D02*
X4947381Y-12819428D01*
X4947381Y-12819428D02*
X4956905Y-12809905D01*
X5033095Y-12905143D02*
X5033095Y-13038476D01*
X5033095Y-12924190D02*
X5042619Y-12914667D01*
X5042619Y-12914667D02*
X5061667Y-12905143D01*
X5061667Y-12905143D02*
X5090238Y-12905143D01*
X5090238Y-12905143D02*
X5109286Y-12914667D01*
X5109286Y-12914667D02*
X5118810Y-12933714D01*
X5118810Y-12933714D02*
X5118810Y-13038476D01*
X5242619Y-13038476D02*
X5223572Y-13028952D01*
X5223572Y-13028952D02*
X5214048Y-13019428D01*
X5214048Y-13019428D02*
X5204524Y-13000381D01*
X5204524Y-13000381D02*
X5204524Y-12943238D01*
X5204524Y-12943238D02*
X5214048Y-12924190D01*
X5214048Y-12924190D02*
X5223572Y-12914667D01*
X5223572Y-12914667D02*
X5242619Y-12905143D01*
X5242619Y-12905143D02*
X5271191Y-12905143D01*
X5271191Y-12905143D02*
X5290238Y-12914667D01*
X5290238Y-12914667D02*
X5299762Y-12924190D01*
X5299762Y-12924190D02*
X5309286Y-12943238D01*
X5309286Y-12943238D02*
X5309286Y-13000381D01*
X5309286Y-13000381D02*
X5299762Y-13019428D01*
X5299762Y-13019428D02*
X5290238Y-13028952D01*
X5290238Y-13028952D02*
X5271191Y-13038476D01*
X5271191Y-13038476D02*
X5242619Y-13038476D01*
X5366429Y-12905143D02*
X5442619Y-12905143D01*
X5395000Y-12838476D02*
X5395000Y-13009905D01*
X5395000Y-13009905D02*
X5404524Y-13028952D01*
X5404524Y-13028952D02*
X5423572Y-13038476D01*
X5423572Y-13038476D02*
X5442619Y-13038476D01*
X5629286Y-12905143D02*
X5629286Y-13105143D01*
X5629286Y-12914667D02*
X5648333Y-12905143D01*
X5648333Y-12905143D02*
X5686429Y-12905143D01*
X5686429Y-12905143D02*
X5705476Y-12914667D01*
X5705476Y-12914667D02*
X5715000Y-12924190D01*
X5715000Y-12924190D02*
X5724524Y-12943238D01*
X5724524Y-12943238D02*
X5724524Y-13000381D01*
X5724524Y-13000381D02*
X5715000Y-13019428D01*
X5715000Y-13019428D02*
X5705476Y-13028952D01*
X5705476Y-13028952D02*
X5686429Y-13038476D01*
X5686429Y-13038476D02*
X5648333Y-13038476D01*
X5648333Y-13038476D02*
X5629286Y-13028952D01*
X5838810Y-13038476D02*
X5819762Y-13028952D01*
X5819762Y-13028952D02*
X5810238Y-13009905D01*
X5810238Y-13009905D02*
X5810238Y-12838476D01*
X6000714Y-13038476D02*
X6000714Y-12933714D01*
X6000714Y-12933714D02*
X5991191Y-12914667D01*
X5991191Y-12914667D02*
X5972143Y-12905143D01*
X5972143Y-12905143D02*
X5934048Y-12905143D01*
X5934048Y-12905143D02*
X5915000Y-12914667D01*
X6000714Y-13028952D02*
X5981667Y-13038476D01*
X5981667Y-13038476D02*
X5934048Y-13038476D01*
X5934048Y-13038476D02*
X5915000Y-13028952D01*
X5915000Y-13028952D02*
X5905476Y-13009905D01*
X5905476Y-13009905D02*
X5905476Y-12990857D01*
X5905476Y-12990857D02*
X5915000Y-12971809D01*
X5915000Y-12971809D02*
X5934048Y-12962286D01*
X5934048Y-12962286D02*
X5981667Y-12962286D01*
X5981667Y-12962286D02*
X6000714Y-12952762D01*
X6067381Y-12905143D02*
X6143572Y-12905143D01*
X6095953Y-12838476D02*
X6095953Y-13009905D01*
X6095953Y-13009905D02*
X6105476Y-13028952D01*
X6105476Y-13028952D02*
X6124524Y-13038476D01*
X6124524Y-13038476D02*
X6143572Y-13038476D01*
X6286429Y-13028952D02*
X6267381Y-13038476D01*
X6267381Y-13038476D02*
X6229286Y-13038476D01*
X6229286Y-13038476D02*
X6210238Y-13028952D01*
X6210238Y-13028952D02*
X6200714Y-13009905D01*
X6200714Y-13009905D02*
X6200714Y-12933714D01*
X6200714Y-12933714D02*
X6210238Y-12914667D01*
X6210238Y-12914667D02*
X6229286Y-12905143D01*
X6229286Y-12905143D02*
X6267381Y-12905143D01*
X6267381Y-12905143D02*
X6286429Y-12914667D01*
X6286429Y-12914667D02*
X6295953Y-12933714D01*
X6295953Y-12933714D02*
X6295953Y-12952762D01*
X6295953Y-12952762D02*
X6200714Y-12971809D01*
X6467381Y-13038476D02*
X6467381Y-12838476D01*
X6467381Y-13028952D02*
X6448334Y-13038476D01*
X6448334Y-13038476D02*
X6410238Y-13038476D01*
X6410238Y-13038476D02*
X6391191Y-13028952D01*
X6391191Y-13028952D02*
X6381667Y-13019428D01*
X6381667Y-13019428D02*
X6372143Y-13000381D01*
X6372143Y-13000381D02*
X6372143Y-12943238D01*
X6372143Y-12943238D02*
X6381667Y-12924190D01*
X6381667Y-12924190D02*
X6391191Y-12914667D01*
X6391191Y-12914667D02*
X6410238Y-12905143D01*
X6410238Y-12905143D02*
X6448334Y-12905143D01*
X6448334Y-12905143D02*
X6467381Y-12914667D01*
X6543572Y-13114667D02*
X6553095Y-13105143D01*
X6553095Y-13105143D02*
X6572143Y-13076571D01*
X6572143Y-13076571D02*
X6581667Y-13057524D01*
X6581667Y-13057524D02*
X6591191Y-13028952D01*
X6591191Y-13028952D02*
X6600714Y-12981333D01*
X6600714Y-12981333D02*
X6600714Y-12943238D01*
X6600714Y-12943238D02*
X6591191Y-12895619D01*
X6591191Y-12895619D02*
X6581667Y-12867048D01*
X6581667Y-12867048D02*
X6572143Y-12848000D01*
X6572143Y-12848000D02*
X6553095Y-12819428D01*
X6553095Y-12819428D02*
X6543572Y-12809905D01*
M02*
