M48
; DRILL file {KiCad (7.0.0-0)} date Wednesday, July 19, 2023 10:45:18 AM
; FORMAT={-:-/ absolute / metric / decimal}
; #@! TF.CreationDate,2023-07-19T10:45:18+09:00
; #@! TF.GenerationSoftware,Kicad,Pcbnew,(7.0.0-0)
; #@! TF.FileFunction,Plated,1,2,PTH
FMAT,2
METRIC
; #@! TA.AperFunction,Plated,PTH,ViaDrill
T1C0.400
; #@! TA.AperFunction,Plated,PTH,ComponentDrill
T2C0.800
; #@! TA.AperFunction,Plated,PTH,ComponentDrill
T3C0.900
; #@! TA.AperFunction,Plated,PTH,ComponentDrill
T4C0.950
; #@! TA.AperFunction,Plated,PTH,ComponentDrill
T5C1.000
; #@! TA.AperFunction,Plated,PTH,ComponentDrill
T6C1.020
; #@! TA.AperFunction,Plated,PTH,ComponentDrill
T7C1.100
; #@! TA.AperFunction,Plated,PTH,ComponentDrill
T8C1.400
; #@! TA.AperFunction,Plated,PTH,ComponentDrill
T9C1.600
%
G90
G05
T1
X0.969Y-21.711
X1.071Y-34.005
X1.071Y-44.215
X1.071Y-67.939
X1.173Y-8.249
X1.173Y-54.883
X1.173Y-79.064
X1.173Y-87.192
X1.223Y-97.657
X1.325Y-105.582
X1.376Y-110.967
X4.119Y-89.986
X4.175Y-85.975
X4.339Y-41.359
X4.389Y-53.859
X5.135Y-102.229
X5.445Y-85.485
X6.557Y-107.969
X7.167Y-83.535
X7.389Y-52.584
X7.472Y-118.79
X7.764Y-38.709
X8.234Y-1.239
X8.539Y-25.419
X10.317Y-13.177
X11.129Y-81.452
X12.653Y-115.843
X13.111Y-94.253
X15.092Y-65.297
X15.092Y-70.987
X15.143Y-76.88
X16.616Y-107.106
X16.768Y-118.79
X17.581Y-59.963
X17.733Y-83.89
X18.039Y-18.909
X18.445Y-59.963
X18.445Y-90.139
X18.597Y-1.239
X19.308Y-59.963
X19.867Y-62.554
X20.172Y-59.963
X20.324Y-97.2
X20.68Y-71.038
X20.731Y-93.136
X20.839Y-9.159
X21.439Y-21.509
X21.442Y-76.931
X21.442Y-81.553
X21.664Y-15.609
X24.134Y-97.403
X24.439Y-102.737
X25.639Y-20.059
X26.139Y-35.309
X26.573Y-112.948
X27.131Y-9.113
X27.233Y-118.841
X29.062Y-107.36
X29.417Y-0.985
X31.539Y-24.159
X31.877Y-76.454
X31.907Y-84.347
X34.243Y-14.904
X34.447Y-90.799
X34.599Y-5.455
X34.65Y-10.129
X35.971Y-101.467
X37.139Y-115.742
X37.698Y-109.9
X38.511Y-85.567
X39.069Y-18.257
X39.089Y-92.659
X39.429Y-72.511
X40.136Y-1.137
X40.339Y-118.891
X40.445Y-67.38
X40.496Y-61.538
X40.648Y-76.727
X41.0Y-95.473
X41.156Y-71.19
X41.9Y-49.039
X42.524Y-38.932
X43.387Y-14.447
X43.489Y-32.176
X45.521Y-7.69
X46.08Y-86.329
X46.537Y-41.015
X47.502Y-49.143
X48.01Y-43.961
X48.112Y-25.978
X48.417Y-1.289
X48.417Y-62.503
X48.467Y-67.787
X48.874Y-71.749
X48.874Y-118.942
X49.128Y-52.801
X49.788Y-47.213
X49.788Y-59.455
X50.245Y-32.582
X51.871Y-40.812
X53.243Y-48.229
X53.293Y-21.254
X53.852Y-62.91
X53.852Y-67.634
X54.36Y-78.048
X55.783Y-59.557
X56.494Y-56.052
X56.689Y-98.009
X58.272Y-118.891
X58.323Y-24.607
X58.577Y-72.613
X59.491Y-1.137
X60.609Y-82.976
X61.439Y-43.459
X61.879Y-30.804
X62.234Y-101.365
X62.488Y-59.506
X62.59Y-51.327
X63.047Y-105.836
X63.098Y-76.118
X63.352Y-63.57
X63.453Y-67.634
X65.13Y-20.695
X65.384Y-14.701
X66.044Y-46.857
X67.439Y-36.109
X67.568Y-83.331
X67.639Y-41.159
X67.67Y-7.335
X68.483Y-59.811
X68.584Y-64.434
X68.635Y-56.763
X68.635Y-67.533
X68.686Y-74.137
X69.499Y-45.892
X69.499Y-53.563
X70.413Y-118.637
X70.718Y-1.086
X70.819Y-28.721
X72.496Y-79.471
X75.739Y-74.009
X76.103Y-64.891
X76.357Y-89.885
X76.763Y-17.139
X78.693Y-62.402
X78.795Y-80.588
X79.049Y-66.72
X79.201Y-71.597
X79.405Y-9.113
X79.76Y-47.771
X79.76Y-55.442
X80.624Y-118.536
X80.725Y-1.188
X83.316Y-94.152
X83.672Y-105.074
X86.669Y-79.775
X86.669Y-88.767
X86.72Y-59.963
X86.771Y-12.719
X86.771Y-68.295
X86.821Y-22.981
X86.821Y-98.419
X86.872Y-6.979
X86.872Y-36.392
X86.872Y-52.75
X86.872Y-112.948
X86.923Y-43.098
X86.974Y-28.62
T2
X8.389Y-87.279
X8.389Y-97.439
X16.367Y-95.096
X16.367Y-105.256
X16.383Y-13.589
X18.923Y-13.589
X21.463Y-13.589
X25.239Y-16.829
X25.239Y-26.989
X25.908Y-13.589
X28.448Y-13.589
X29.389Y-16.929
X29.389Y-27.089
X30.988Y-13.589
X33.839Y-16.979
X33.839Y-27.139
X37.001Y-59.867
X37.001Y-62.407
X37.001Y-64.947
X37.001Y-67.487
X37.001Y-70.027
X37.001Y-72.567
X37.001Y-75.107
X37.231Y-82.042
X37.276Y-45.679
X37.276Y-48.219
X37.276Y-50.759
X37.276Y-53.299
X42.231Y-82.042
X44.621Y-59.867
X44.621Y-62.407
X44.621Y-64.947
X44.621Y-67.487
X44.621Y-70.027
X44.621Y-72.567
X44.621Y-75.107
X44.896Y-45.679
X44.896Y-48.219
X44.896Y-50.759
X44.896Y-53.299
X46.389Y-92.279
X46.389Y-102.439
X47.789Y-110.259
X49.022Y-29.083
X50.489Y-92.229
X50.489Y-102.389
X52.789Y-110.259
X53.594Y-45.593
X53.848Y-41.402
X53.975Y-37.465
X54.102Y-33.401
X56.489Y-92.479
X56.489Y-102.639
X59.182Y-29.083
X60.309Y-92.429
X60.309Y-102.589
X63.754Y-45.593
X64.008Y-41.402
X64.135Y-37.465
X64.262Y-33.401
X66.689Y-88.809
X66.689Y-98.969
X66.689Y-101.529
X66.689Y-111.689
X70.342Y-101.573
X70.342Y-111.733
T3
X9.139Y-100.644
X9.139Y-103.184
T4
X25.888Y-5.68
X28.388Y-5.68
X30.888Y-5.68
X40.991Y-115.624
X43.491Y-115.624
X45.991Y-115.624
X48.491Y-115.624
X50.991Y-115.624
X53.491Y-115.624
X55.991Y-115.624
X58.491Y-115.624
X81.7Y-22.9
X81.7Y-25.4
X81.7Y-27.9
X81.7Y-30.4
X81.7Y-62.865
X81.7Y-65.365
X81.7Y-67.865
X81.7Y-70.365
X81.7Y-72.865
X81.7Y-75.365
T5
X15.347Y-5.761
X17.847Y-5.761
X19.963Y-115.624
X22.463Y-115.624
X30.143Y-115.624
X32.643Y-115.624
X38.628Y-5.761
X40.37Y-106.78
X41.128Y-5.761
X41.64Y-89.0
X42.91Y-106.78
X44.18Y-89.0
X45.45Y-106.78
X46.72Y-89.0
X47.99Y-106.78
X49.26Y-89.0
X50.53Y-106.78
X51.054Y-8.417
X51.054Y-13.417
X51.8Y-89.0
X52.503Y-54.61
X53.07Y-106.78
X54.34Y-89.0
X55.61Y-106.78
X56.88Y-89.0
X58.15Y-106.78
X59.003Y-54.61
X59.42Y-89.0
X60.69Y-106.78
X60.848Y-14.605
X72.248Y-14.605
X81.7Y-13.081
X81.7Y-15.581
T6
X10.164Y-31.998
X10.164Y-34.538
X10.164Y-37.078
X10.164Y-39.618
X10.164Y-42.158
X10.164Y-44.698
X10.164Y-47.238
X10.164Y-49.778
X10.164Y-52.318
X10.164Y-54.858
X10.164Y-57.398
X10.164Y-59.938
X10.164Y-62.478
X10.164Y-65.018
X10.164Y-67.558
X10.164Y-70.098
X10.164Y-72.638
X10.164Y-75.178
X10.164Y-77.718
X12.704Y-31.998
X12.704Y-34.538
X12.704Y-37.078
X12.704Y-39.618
X12.704Y-42.158
X12.704Y-44.698
X12.704Y-47.238
X12.704Y-49.778
X12.704Y-52.318
X12.704Y-54.858
X12.704Y-57.398
X12.704Y-59.938
X12.704Y-62.478
X12.704Y-65.018
X12.704Y-67.558
X12.704Y-70.098
X12.704Y-72.638
X12.704Y-75.178
X12.704Y-77.718
X71.124Y-31.998
X71.124Y-34.538
X71.124Y-37.078
X71.124Y-39.618
X71.124Y-42.158
X71.124Y-44.698
X71.124Y-47.238
X71.124Y-49.778
X71.124Y-52.318
X71.124Y-54.858
X71.124Y-57.398
X71.124Y-59.938
X71.124Y-62.478
X71.124Y-65.018
X71.124Y-67.558
X71.124Y-70.098
X71.124Y-72.638
X71.124Y-75.178
X71.124Y-77.718
X73.664Y-31.998
X73.664Y-34.538
X73.664Y-37.078
X73.664Y-39.618
X73.664Y-42.158
X73.664Y-44.698
X73.664Y-47.238
X73.664Y-49.778
X73.664Y-52.318
X73.664Y-54.858
X73.664Y-57.398
X73.664Y-59.938
X73.664Y-62.478
X73.664Y-65.018
X73.664Y-67.558
X73.664Y-70.098
X73.664Y-72.638
X73.664Y-75.178
X73.664Y-77.718
T7
X18.915Y-35.788
X18.915Y-53.988
X21.455Y-35.788
X21.455Y-53.988
X29.455Y-35.788
X29.455Y-53.988
X31.995Y-35.788
X31.995Y-53.988
T8
X75.041Y-101.446
X75.041Y-111.606
T9
X59.08Y-6.0
X74.32Y-6.0
T0
M30
