M48
; DRILL file {KiCad 8.0.2} date 2024-05-20T01:45:17+0900
; FORMAT={-:-/ absolute / inch / decimal}
; #@! TF.CreationDate,2024-05-20T01:45:17+09:00
; #@! TF.GenerationSoftware,Kicad,Pcbnew,8.0.2
; #@! TF.FileFunction,Plated,1,2,PTH
FMAT,2
INCH
; #@! TA.AperFunction,Plated,PTH,ViaDrill
T1C0.0118
; #@! TA.AperFunction,Plated,PTH,ViaDrill
T2C0.0157
; #@! TA.AperFunction,Plated,PTH,ComponentDrill
T3C0.0374
; #@! TA.AperFunction,Plated,PTH,ComponentDrill
T4C0.0394
; #@! TA.AperFunction,Plated,PTH,ComponentDrill
T5C0.0402
%
G90
G05
T1
X0.7475Y-1.5056
X0.748Y-1.6435
X0.8601Y-1.7467
X0.8603Y-1.5479
X0.8603Y-1.575
X0.8603Y-1.6011
X0.8604Y-1.4969
X0.94Y-1.4644
X0.9612Y-1.7469
X1.01Y-1.5477
X1.01Y-1.5748
X1.01Y-1.6009
X1.0236Y-1.6535
X1.1417Y-2.0276
X1.1614Y-2.0472
X1.1811Y-2.0276
X1.2008Y-2.0472
X1.2205Y-2.0276
X1.2402Y-2.0472
T2
X0.0382Y-0.8548
X0.0422Y-1.3388
X0.0422Y-1.7408
X0.0422Y-2.6748
X0.0462Y-0.3248
X0.0462Y-2.1608
X0.0462Y-3.1128
X0.0462Y-3.4328
X0.0482Y-3.8448
X0.0522Y-4.1568
X0.0542Y-4.3688
X0.1496Y-3.4173
X0.1575Y-3.6811
X0.1708Y-1.6283
X0.1728Y-2.1204
X0.1772Y-2.563
X0.185Y-3.0433
X0.185Y-3.2441
X0.1969Y-3.3976
X0.2022Y-4.0248
X0.2582Y-4.2508
X0.2717Y-3.5236
X0.2874Y-3.3504
X0.2942Y-4.6768
X0.3071Y-1.2362
X0.315Y-1.4764
X0.3242Y-0.0488
X0.3268Y-2.4094
X0.3268Y-2.815
X0.3307Y-2.2087
X0.3362Y-1.0008
X0.378Y-3.3976
X0.3819Y-3.5197
X0.4062Y-0.5188
X0.4382Y-3.2068
X0.4528Y-1.6063
X0.4803Y-0.7795
X0.4982Y-4.5608
X0.5433Y-3.3976
X0.5472Y-3.626
X0.5942Y-2.5708
X0.5942Y-2.7948
X0.5962Y-3.0268
X0.6102Y-3.5276
X0.6339Y-0.5354
X0.6378Y-0.811
X0.6542Y-4.2168
X0.656Y-2.1347
X0.6575Y-0.9567
X0.6575Y-2.3504
X0.6602Y-4.6768
X0.6654Y-1.9173
X0.6772Y-1.4213
X0.6969Y-1.2795
X0.6982Y-3.3028
X0.7126Y-0.6811
X0.7322Y-0.0488
X0.7326Y-1.7686
X0.7559Y-1.4173
X0.7598Y-3.811
X0.7677Y-0.374
X0.7717Y-3.7165
X0.7822Y-2.4628
X0.7835Y-3.3976
X0.7874Y-0.6142
X0.7874Y-1.8189
X0.7913Y-0.9646
X0.8031Y-2.063
X0.8142Y-2.7968
X0.8441Y-0.8468
X0.8442Y-3.0288
X0.8442Y-3.2108
X0.874Y-2.626
X0.878Y-1.0669
X0.8819Y-2.3543
X0.9252Y-1.3386
X0.9409Y-3.0945
X0.9409Y-3.2992
X0.9409Y-3.4173
X0.9449Y-3.6811
X0.9488Y-0.9567
X0.9622Y-4.0448
X0.9646Y-1.3386
X1.0094Y-0.7897
X1.0118Y-0.4882
X1.0118Y-2.2283
X1.0462Y-4.4468
X1.052Y-1.7126
X1.0722Y-4.6788
X1.0748Y-2.4685
X1.0866Y-1.3189
X1.0984Y-0.5197
X1.1024Y-0.3346
X1.1142Y-1.0276
X1.1417Y-1.2874
X1.1442Y-4.2268
X1.1582Y-0.0388
X1.1693Y-3.0945
X1.1693Y-3.437
X1.185Y-3.811
X1.2087Y-4.0433
X1.2205Y-2.8346
X1.2244Y-0.6496
X1.2244Y-1.2874
X1.2562Y-3.3208
X1.2717Y-0.3386
X1.2717Y-0.8465
X1.2717Y-1.1969
X1.2795Y-2.1732
X1.3071Y-0.4646
X1.311Y-1.2874
X1.311Y-2.6024
X1.3189Y-3.0551
X1.3562Y-3.5748
X1.3622Y-0.2148
X1.3701Y-2.7402
X1.3898Y-1.2874
X1.3976Y-3.248
X1.4134Y-1.0433
X1.4162Y-3.9948
X1.4222Y-0.3976
X1.4348Y-1.6683
X1.437Y-2.0472
X1.4488Y-1.3465
X1.4488Y-1.4291
X1.4488Y-1.5157
X1.4488Y-1.6063
X1.4622Y-4.5568
X1.4764Y-1.7126
X1.4764Y-1.811
X1.4764Y-1.9094
X1.4764Y-2.0079
X1.4764Y-2.4724
X1.4842Y-4.3268
X1.5079Y-3.0
X1.5118Y-2.1693
X1.5162Y-3.3688
X1.5197Y-2.7126
X1.5236Y-2.2165
X1.5276Y-1.0276
X1.5276Y-2.6614
X1.5389Y-3.648
X1.5394Y-1.1614
X1.5433Y-0.8937
X1.5472Y-2.1339
X1.5591Y-2.1811
X1.5709Y-1.5748
X1.5802Y-0.0448
X1.5827Y-0.6496
X1.5882Y-4.6808
X1.5906Y-2.2598
X1.5945Y-2.0984
X1.5945Y-2.1457
X1.5945Y-2.7638
X1.6299Y-0.4803
X1.6339Y-0.7559
X1.6339Y-0.811
X1.6339Y-0.8661
X1.6693Y-0.7283
X1.6693Y-0.7835
X1.6693Y-0.8386
X1.6693Y-2.185
X1.685Y-3.1299
X1.7136Y-2.5163
X1.7205Y-4.0394
X1.752Y-2.6614
X1.7559Y-2.9699
X1.7677Y-2.8386
X1.7795Y-2.5394
X1.7922Y-0.3028
X1.7953Y-1.2165
X1.8031Y-2.0394
X1.8142Y-3.3988
X1.815Y-1.5
X1.8307Y-1.8425
X1.8465Y-3.2165
X1.8858Y-3.7008
X1.9062Y-0.0508
X1.9238Y-1.7679
X1.9242Y-4.6828
X1.9331Y-4.0669
X1.9567Y-2.2362
X1.9724Y-2.5551
X1.9961Y-0.7913
X1.9961Y-0.874
X1.9961Y-0.9606
X2.0Y-1.7402
X2.0157Y-2.0787
X2.0157Y-3.7283
X2.0315Y-2.811
X2.0394Y-1.0669
X2.0512Y-2.6614
X2.0551Y-1.4331
X2.0962Y-1.8988
X2.1457Y-1.6136
X2.1457Y-2.4921
X2.1811Y-0.7913
X2.1811Y-0.874
X2.1811Y-0.9606
X2.1811Y-3.1102
X2.2402Y-3.752
X2.252Y-2.2008
X2.2756Y-2.9252
X2.2795Y-3.2087
X2.2835Y-1.6142
X2.2942Y-4.6808
X2.2962Y-0.9688
X2.315Y-2.5118
X2.3422Y-0.0448
X2.3425Y-3.2638
X2.3701Y-1.7953
X2.374Y-1.1654
X2.4426Y-1.3976
X2.4502Y-3.9908
X2.4642Y-2.0208
X2.4822Y-4.1668
X2.4842Y-2.9968
X2.4942Y-2.5028
X2.4982Y-2.6628
X2.5157Y-2.2992
X2.5642Y-0.8148
X2.5709Y-1.622
X2.5748Y-1.4252
X2.5827Y-3.5039
X2.5945Y-2.1575
X2.6002Y-1.8448
X2.6602Y-3.2808
X2.6642Y-0.2888
X2.7002Y-2.5368
X2.7008Y-1.31
X2.7008Y-1.4216
X2.7008Y-1.6299
X2.7022Y-2.6588
X2.7042Y-2.9188
X2.7165Y-2.3661
X2.7362Y-2.1088
X2.7559Y-0.9646
X2.7722Y-4.6708
X2.7756Y-0.7402
X2.776Y-0.6417
X2.776Y-0.689
X2.7842Y-0.0428
X2.8071Y-0.7165
X2.8075Y-0.6181
X2.8075Y-0.6654
X2.8268Y-4.2008
X2.8476Y-1.1024
X2.8504Y-1.6102
X2.9819Y-2.9137
X2.9962Y-2.5548
X3.0062Y-3.5388
X3.0222Y-0.6748
X3.0982Y-2.4568
X3.1122Y-2.6268
X3.1182Y-2.8188
X3.1262Y-0.3588
X3.1378Y-3.1654
X3.1402Y-1.8808
X3.1402Y-2.1828
X3.1742Y-4.6668
X3.1782Y-0.0468
X3.1929Y-3.3976
X3.2802Y-3.7068
X3.2942Y-4.1368
X3.4122Y-3.1408
X3.4122Y-3.4948
X3.4142Y-2.3608
X3.4162Y-0.5008
X3.4162Y-2.6888
X3.4182Y-0.9048
X3.4182Y-3.8748
X3.4202Y-0.2748
X3.4202Y-1.4328
X3.4202Y-2.0768
X3.4202Y-4.4468
X3.4222Y-1.6968
X3.4242Y-1.1268
T3
X1.0192Y-0.2236
X1.1176Y-0.2236
X1.2161Y-0.2236
X1.6138Y-4.5521
X1.7122Y-4.5521
X1.8107Y-4.5521
X1.9091Y-4.5521
X2.0075Y-4.5521
X2.1059Y-4.5521
X2.2044Y-4.5521
X2.3028Y-4.5521
X3.2165Y-0.9016
X3.2165Y-1.0
X3.2165Y-1.0984
X3.2165Y-1.1969
X3.2165Y-2.475
X3.2165Y-2.5734
X3.2165Y-2.6719
X3.2165Y-2.7703
X3.2165Y-2.8687
X3.2165Y-2.9671
T4
X0.6042Y-0.2268
X0.7026Y-0.2268
X0.7859Y-4.5521
X0.8844Y-4.5521
X1.1867Y-4.5521
X1.2852Y-4.5521
X1.5208Y-0.2268
X1.5894Y-4.2039
X1.6192Y-0.2268
X1.6394Y-3.5039
X1.6894Y-4.2039
X1.7394Y-3.5039
X1.7894Y-4.2039
X1.8394Y-3.5039
X1.8894Y-4.2039
X1.9394Y-3.5039
X1.9894Y-4.2039
X2.0394Y-3.5039
X2.0894Y-4.2039
X2.1394Y-3.5039
X2.1894Y-4.2039
X2.2394Y-3.5039
X2.2894Y-4.2039
X2.3394Y-3.5039
X2.3894Y-4.2039
X3.2165Y-0.515
X3.2165Y-0.6134
T5
X0.4002Y-1.2598
X0.4002Y-1.3598
X0.4002Y-1.4598
X0.4002Y-1.5598
X0.4002Y-1.6598
X0.4002Y-1.7598
X0.4002Y-1.8598
X0.4002Y-1.9598
X0.4002Y-2.0598
X0.4002Y-2.1598
X0.4002Y-2.2598
X0.4002Y-2.3598
X0.4002Y-2.4598
X0.4002Y-2.5598
X0.4002Y-2.6598
X0.4002Y-2.7598
X0.4002Y-2.8598
X0.4002Y-2.9598
X0.4002Y-3.0598
X0.5002Y-1.2598
X0.5002Y-1.3598
X0.5002Y-1.4598
X0.5002Y-1.5598
X0.5002Y-1.6598
X0.5002Y-1.7598
X0.5002Y-1.8598
X0.5002Y-1.9598
X0.5002Y-2.0598
X0.5002Y-2.1598
X0.5002Y-2.2598
X0.5002Y-2.3598
X0.5002Y-2.4598
X0.5002Y-2.5598
X0.5002Y-2.6598
X0.5002Y-2.7598
X0.5002Y-2.8598
X0.5002Y-2.9598
X0.5002Y-3.0598
X2.8002Y-1.2598
X2.8002Y-1.3598
X2.8002Y-1.4598
X2.8002Y-1.5598
X2.8002Y-1.6598
X2.8002Y-1.7598
X2.8002Y-1.8598
X2.8002Y-1.9598
X2.8002Y-2.0598
X2.8002Y-2.1598
X2.8002Y-2.2598
X2.8002Y-2.3598
X2.8002Y-2.4598
X2.8002Y-2.5598
X2.8002Y-2.6598
X2.8002Y-2.7598
X2.8002Y-2.8598
X2.8002Y-2.9598
X2.8002Y-3.0598
X2.9002Y-1.2598
X2.9002Y-1.3598
X2.9002Y-1.4598
X2.9002Y-1.5598
X2.9002Y-1.6598
X2.9002Y-1.7598
X2.9002Y-1.8598
X2.9002Y-1.9598
X2.9002Y-2.0598
X2.9002Y-2.1598
X2.9002Y-2.2598
X2.9002Y-2.3598
X2.9002Y-2.4598
X2.9002Y-2.5598
X2.9002Y-2.6598
X2.9002Y-2.7598
X2.9002Y-2.8598
X2.9002Y-2.9598
X2.9002Y-3.0598
M30
