%TF.GenerationSoftware,KiCad,Pcbnew,(7.0.0-0)*%
%TF.CreationDate,2023-07-19T10:45:20+09:00*%
%TF.ProjectId,Spct,53706374-2e6b-4696-9361-645f70636258,rev?*%
%TF.SameCoordinates,PX2540608PY1ee3f58*%
%TF.FileFunction,Drillmap*%
%TF.FilePolarity,Positive*%
%FSLAX45Y45*%
G04 Gerber Fmt 4.5, Leading zero omitted, Abs format (unit mm)*
G04 Created by KiCad (PCBNEW (7.0.0-0)) date 2023-07-19 10:45:20*
%MOMM*%
%LPD*%
G01*
G04 APERTURE LIST*
%ADD10C,0.100000*%
%ADD11C,0.200000*%
%ADD12C,0.040000*%
%ADD13C,0.080000*%
%ADD14C,0.090000*%
%ADD15C,0.095000*%
%ADD16C,0.102000*%
%ADD17C,0.110000*%
%ADD18C,0.140000*%
%ADD19C,0.160000*%
G04 APERTURE END LIST*
D10*
X0Y0D02*
X8800000Y0D01*
X8800000Y0D02*
X8800000Y-12000000D01*
X8800000Y-12000000D02*
X0Y-12000000D01*
X0Y-12000000D02*
X0Y0D01*
D11*
D12*
X76940Y-2151100D02*
X116940Y-2191100D01*
X116940Y-2151100D02*
X76940Y-2191100D01*
X87100Y-3380460D02*
X127100Y-3420460D01*
X127100Y-3380460D02*
X87100Y-3420460D01*
X87100Y-4401540D02*
X127100Y-4441540D01*
X127100Y-4401540D02*
X87100Y-4441540D01*
X87100Y-6773900D02*
X127100Y-6813900D01*
X127100Y-6773900D02*
X87100Y-6813900D01*
X97260Y-804900D02*
X137260Y-844900D01*
X137260Y-804900D02*
X97260Y-844900D01*
X97260Y-5468340D02*
X137260Y-5508340D01*
X137260Y-5468340D02*
X97260Y-5508340D01*
X97260Y-7886420D02*
X137260Y-7926420D01*
X137260Y-7886420D02*
X97260Y-7926420D01*
X97260Y-8699220D02*
X137260Y-8739220D01*
X137260Y-8699220D02*
X97260Y-8739220D01*
X102340Y-9745700D02*
X142340Y-9785700D01*
X142340Y-9745700D02*
X102340Y-9785700D01*
X112500Y-10538180D02*
X152500Y-10578180D01*
X152500Y-10538180D02*
X112500Y-10578180D01*
X117580Y-11076660D02*
X157580Y-11116660D01*
X157580Y-11076660D02*
X117580Y-11116660D01*
X391900Y-8978620D02*
X431900Y-9018620D01*
X431900Y-8978620D02*
X391900Y-9018620D01*
X397500Y-8577500D02*
X437500Y-8617500D01*
X437500Y-8577500D02*
X397500Y-8617500D01*
X413900Y-4115900D02*
X453900Y-4155900D01*
X453900Y-4115900D02*
X413900Y-4155900D01*
X418900Y-5365900D02*
X458900Y-5405900D01*
X458900Y-5365900D02*
X418900Y-5405900D01*
X493500Y-10202900D02*
X533500Y-10242900D01*
X533500Y-10202900D02*
X493500Y-10242900D01*
X524500Y-8528500D02*
X564500Y-8568500D01*
X564500Y-8528500D02*
X524500Y-8568500D01*
X635740Y-10776940D02*
X675740Y-10816940D01*
X675740Y-10776940D02*
X635740Y-10816940D01*
X696700Y-8333460D02*
X736700Y-8373460D01*
X736700Y-8333460D02*
X696700Y-8373460D01*
X718900Y-5238400D02*
X758900Y-5278400D01*
X758900Y-5238400D02*
X718900Y-5278400D01*
X727180Y-11858980D02*
X767180Y-11898980D01*
X767180Y-11858980D02*
X727180Y-11898980D01*
X756400Y-3850900D02*
X796400Y-3890900D01*
X796400Y-3850900D02*
X756400Y-3890900D01*
X803380Y-103860D02*
X843380Y-143860D01*
X843380Y-103860D02*
X803380Y-143860D01*
X833860Y-2521940D02*
X873860Y-2561940D01*
X873860Y-2521940D02*
X833860Y-2561940D01*
X1011660Y-1297660D02*
X1051660Y-1337660D01*
X1051660Y-1297660D02*
X1011660Y-1337660D01*
X1092940Y-8125180D02*
X1132940Y-8165180D01*
X1132940Y-8125180D02*
X1092940Y-8165180D01*
X1245340Y-11564340D02*
X1285340Y-11604340D01*
X1285340Y-11564340D02*
X1245340Y-11604340D01*
X1291060Y-9405340D02*
X1331060Y-9445340D01*
X1331060Y-9405340D02*
X1291060Y-9445340D01*
X1489180Y-6509740D02*
X1529180Y-6549740D01*
X1529180Y-6509740D02*
X1489180Y-6549740D01*
X1489180Y-7078700D02*
X1529180Y-7118700D01*
X1529180Y-7078700D02*
X1489180Y-7118700D01*
X1494260Y-7667980D02*
X1534260Y-7707980D01*
X1534260Y-7667980D02*
X1494260Y-7707980D01*
X1641580Y-10690580D02*
X1681580Y-10730580D01*
X1681580Y-10690580D02*
X1641580Y-10730580D01*
X1656820Y-11858980D02*
X1696820Y-11898980D01*
X1696820Y-11858980D02*
X1656820Y-11898980D01*
X1738100Y-5976340D02*
X1778100Y-6016340D01*
X1778100Y-5976340D02*
X1738100Y-6016340D01*
X1753340Y-8369020D02*
X1793340Y-8409020D01*
X1793340Y-8369020D02*
X1753340Y-8409020D01*
X1783900Y-1870900D02*
X1823900Y-1910900D01*
X1823900Y-1870900D02*
X1783900Y-1910900D01*
X1824460Y-5976340D02*
X1864460Y-6016340D01*
X1864460Y-5976340D02*
X1824460Y-6016340D01*
X1824460Y-8993860D02*
X1864460Y-9033860D01*
X1864460Y-8993860D02*
X1824460Y-9033860D01*
X1839700Y-103860D02*
X1879700Y-143860D01*
X1879700Y-103860D02*
X1839700Y-143860D01*
X1910820Y-5976340D02*
X1950820Y-6016340D01*
X1950820Y-5976340D02*
X1910820Y-6016340D01*
X1966700Y-6235420D02*
X2006700Y-6275420D01*
X2006700Y-6235420D02*
X1966700Y-6275420D01*
X1997180Y-5976340D02*
X2037180Y-6016340D01*
X2037180Y-5976340D02*
X1997180Y-6016340D01*
X2012420Y-9699980D02*
X2052420Y-9739980D01*
X2052420Y-9699980D02*
X2012420Y-9739980D01*
X2047980Y-7083780D02*
X2087980Y-7123780D01*
X2087980Y-7083780D02*
X2047980Y-7123780D01*
X2053060Y-9293580D02*
X2093060Y-9333580D01*
X2093060Y-9293580D02*
X2053060Y-9333580D01*
X2063900Y-895900D02*
X2103900Y-935900D01*
X2103900Y-895900D02*
X2063900Y-935900D01*
X2123900Y-2130900D02*
X2163900Y-2170900D01*
X2163900Y-2130900D02*
X2123900Y-2170900D01*
X2124180Y-7673060D02*
X2164180Y-7713060D01*
X2164180Y-7673060D02*
X2124180Y-7713060D01*
X2124180Y-8135340D02*
X2164180Y-8175340D01*
X2164180Y-8135340D02*
X2124180Y-8175340D01*
X2146400Y-1540900D02*
X2186400Y-1580900D01*
X2186400Y-1540900D02*
X2146400Y-1580900D01*
X2393420Y-9720300D02*
X2433420Y-9760300D01*
X2433420Y-9720300D02*
X2393420Y-9760300D01*
X2423900Y-10253700D02*
X2463900Y-10293700D01*
X2463900Y-10253700D02*
X2423900Y-10293700D01*
X2543900Y-1985900D02*
X2583900Y-2025900D01*
X2583900Y-1985900D02*
X2543900Y-2025900D01*
X2593900Y-3510900D02*
X2633900Y-3550900D01*
X2633900Y-3510900D02*
X2593900Y-3550900D01*
X2637260Y-11274780D02*
X2677260Y-11314780D01*
X2677260Y-11274780D02*
X2637260Y-11314780D01*
X2693140Y-891260D02*
X2733140Y-931260D01*
X2733140Y-891260D02*
X2693140Y-931260D01*
X2703300Y-11864060D02*
X2743300Y-11904060D01*
X2743300Y-11864060D02*
X2703300Y-11904060D01*
X2886180Y-10715980D02*
X2926180Y-10755980D01*
X2926180Y-10715980D02*
X2886180Y-10755980D01*
X2921740Y-78460D02*
X2961740Y-118460D01*
X2961740Y-78460D02*
X2921740Y-118460D01*
X3133900Y-2395900D02*
X3173900Y-2435900D01*
X3173900Y-2395900D02*
X3133900Y-2435900D01*
X3167700Y-7625400D02*
X3207700Y-7665400D01*
X3207700Y-7625400D02*
X3167700Y-7665400D01*
X3170660Y-8414740D02*
X3210660Y-8454740D01*
X3210660Y-8414740D02*
X3170660Y-8454740D01*
X3404340Y-1470380D02*
X3444340Y-1510380D01*
X3444340Y-1470380D02*
X3404340Y-1510380D01*
X3424660Y-9059900D02*
X3464660Y-9099900D01*
X3464660Y-9059900D02*
X3424660Y-9099900D01*
X3439900Y-525500D02*
X3479900Y-565500D01*
X3479900Y-525500D02*
X3439900Y-565500D01*
X3444980Y-992860D02*
X3484980Y-1032860D01*
X3484980Y-992860D02*
X3444980Y-1032860D01*
X3577060Y-10126700D02*
X3617060Y-10166700D01*
X3617060Y-10126700D02*
X3577060Y-10166700D01*
X3693900Y-11554180D02*
X3733900Y-11594180D01*
X3733900Y-11554180D02*
X3693900Y-11594180D01*
X3749780Y-10969980D02*
X3789780Y-11009980D01*
X3789780Y-10969980D02*
X3749780Y-11009980D01*
X3831060Y-8536660D02*
X3871060Y-8576660D01*
X3871060Y-8536660D02*
X3831060Y-8576660D01*
X3886940Y-1805660D02*
X3926940Y-1845660D01*
X3926940Y-1805660D02*
X3886940Y-1845660D01*
X3888900Y-9245900D02*
X3928900Y-9285900D01*
X3928900Y-9245900D02*
X3888900Y-9285900D01*
X3922920Y-7231100D02*
X3962920Y-7271100D01*
X3962920Y-7231100D02*
X3922920Y-7271100D01*
X3993620Y-93700D02*
X4033620Y-133700D01*
X4033620Y-93700D02*
X3993620Y-133700D01*
X4013940Y-11869140D02*
X4053940Y-11909140D01*
X4053940Y-11869140D02*
X4013940Y-11909140D01*
X4024520Y-6718020D02*
X4064520Y-6758020D01*
X4064520Y-6718020D02*
X4024520Y-6758020D01*
X4029600Y-6133820D02*
X4069600Y-6173820D01*
X4069600Y-6133820D02*
X4029600Y-6173820D01*
X4044840Y-7652740D02*
X4084840Y-7692740D01*
X4084840Y-7652740D02*
X4044840Y-7692740D01*
X4079980Y-9527260D02*
X4119980Y-9567260D01*
X4119980Y-9527260D02*
X4079980Y-9567260D01*
X4095640Y-7099020D02*
X4135640Y-7139020D01*
X4135640Y-7099020D02*
X4095640Y-7139020D01*
X4170040Y-4883940D02*
X4210040Y-4923940D01*
X4210040Y-4883940D02*
X4170040Y-4923940D01*
X4232380Y-3873220D02*
X4272380Y-3913220D01*
X4272380Y-3873220D02*
X4232380Y-3913220D01*
X4318740Y-1424660D02*
X4358740Y-1464660D01*
X4358740Y-1424660D02*
X4318740Y-1464660D01*
X4328900Y-3197580D02*
X4368900Y-3237580D01*
X4368900Y-3197580D02*
X4328900Y-3237580D01*
X4532100Y-749020D02*
X4572100Y-789020D01*
X4572100Y-749020D02*
X4532100Y-789020D01*
X4587980Y-8612860D02*
X4627980Y-8652860D01*
X4627980Y-8612860D02*
X4587980Y-8652860D01*
X4633700Y-4081500D02*
X4673700Y-4121500D01*
X4673700Y-4081500D02*
X4633700Y-4121500D01*
X4730220Y-4894300D02*
X4770220Y-4934300D01*
X4770220Y-4894300D02*
X4730220Y-4934300D01*
X4781020Y-4376140D02*
X4821020Y-4416140D01*
X4821020Y-4376140D02*
X4781020Y-4416140D01*
X4791180Y-2577820D02*
X4831180Y-2617820D01*
X4831180Y-2577820D02*
X4791180Y-2617820D01*
X4821660Y-108940D02*
X4861660Y-148940D01*
X4861660Y-108940D02*
X4821660Y-148940D01*
X4821660Y-6230340D02*
X4861660Y-6270340D01*
X4861660Y-6230340D02*
X4821660Y-6270340D01*
X4826740Y-6758660D02*
X4866740Y-6798660D01*
X4866740Y-6758660D02*
X4826740Y-6798660D01*
X4867380Y-7154900D02*
X4907380Y-7194900D01*
X4907380Y-7154900D02*
X4867380Y-7194900D01*
X4867380Y-11874220D02*
X4907380Y-11914220D01*
X4907380Y-11874220D02*
X4867380Y-11914220D01*
X4892780Y-5260060D02*
X4932780Y-5300060D01*
X4932780Y-5260060D02*
X4892780Y-5300060D01*
X4958820Y-4701260D02*
X4998820Y-4741260D01*
X4998820Y-4701260D02*
X4958820Y-4741260D01*
X4958820Y-5925540D02*
X4998820Y-5965540D01*
X4998820Y-5925540D02*
X4958820Y-5965540D01*
X5004540Y-3238220D02*
X5044540Y-3278220D01*
X5044540Y-3238220D02*
X5004540Y-3278220D01*
X5167100Y-4061180D02*
X5207100Y-4101180D01*
X5207100Y-4061180D02*
X5167100Y-4101180D01*
X5304260Y-4802860D02*
X5344260Y-4842860D01*
X5344260Y-4802860D02*
X5304260Y-4842860D01*
X5309340Y-2105380D02*
X5349340Y-2145380D01*
X5349340Y-2105380D02*
X5309340Y-2145380D01*
X5365220Y-6270980D02*
X5405220Y-6310980D01*
X5405220Y-6270980D02*
X5365220Y-6310980D01*
X5365220Y-6743420D02*
X5405220Y-6783420D01*
X5405220Y-6743420D02*
X5365220Y-6783420D01*
X5416020Y-7784820D02*
X5456020Y-7824820D01*
X5456020Y-7784820D02*
X5416020Y-7824820D01*
X5558260Y-5935700D02*
X5598260Y-5975700D01*
X5598260Y-5935700D02*
X5558260Y-5975700D01*
X5629380Y-5585180D02*
X5669380Y-5625180D01*
X5669380Y-5585180D02*
X5629380Y-5625180D01*
X5648900Y-9780900D02*
X5688900Y-9820900D01*
X5688900Y-9780900D02*
X5648900Y-9820900D01*
X5807180Y-11869140D02*
X5847180Y-11909140D01*
X5847180Y-11869140D02*
X5807180Y-11909140D01*
X5812260Y-2440660D02*
X5852260Y-2480660D01*
X5852260Y-2440660D02*
X5812260Y-2480660D01*
X5837660Y-7241260D02*
X5877660Y-7281260D01*
X5877660Y-7241260D02*
X5837660Y-7281260D01*
X5929100Y-93700D02*
X5969100Y-133700D01*
X5969100Y-93700D02*
X5929100Y-133700D01*
X6040860Y-8277580D02*
X6080860Y-8317580D01*
X6080860Y-8277580D02*
X6040860Y-8317580D01*
X6123900Y-4325900D02*
X6163900Y-4365900D01*
X6163900Y-4325900D02*
X6123900Y-4365900D01*
X6167860Y-3060420D02*
X6207860Y-3100420D01*
X6207860Y-3060420D02*
X6167860Y-3100420D01*
X6203420Y-10116540D02*
X6243420Y-10156540D01*
X6243420Y-10116540D02*
X6203420Y-10156540D01*
X6228820Y-5930620D02*
X6268820Y-5970620D01*
X6268820Y-5930620D02*
X6228820Y-5970620D01*
X6238980Y-5112740D02*
X6278980Y-5152740D01*
X6278980Y-5112740D02*
X6238980Y-5152740D01*
X6284700Y-10563580D02*
X6324700Y-10603580D01*
X6324700Y-10563580D02*
X6284700Y-10603580D01*
X6289780Y-7591780D02*
X6329780Y-7631780D01*
X6329780Y-7591780D02*
X6289780Y-7631780D01*
X6315180Y-6337020D02*
X6355180Y-6377020D01*
X6355180Y-6337020D02*
X6315180Y-6377020D01*
X6325340Y-6743420D02*
X6365340Y-6783420D01*
X6365340Y-6743420D02*
X6325340Y-6783420D01*
X6492980Y-2049500D02*
X6532980Y-2089500D01*
X6532980Y-2049500D02*
X6492980Y-2089500D01*
X6518380Y-1450060D02*
X6558380Y-1490060D01*
X6558380Y-1450060D02*
X6518380Y-1490060D01*
X6584420Y-4665700D02*
X6624420Y-4705700D01*
X6624420Y-4665700D02*
X6584420Y-4705700D01*
X6723900Y-3590900D02*
X6763900Y-3630900D01*
X6763900Y-3590900D02*
X6723900Y-3630900D01*
X6736820Y-8313140D02*
X6776820Y-8353140D01*
X6776820Y-8313140D02*
X6736820Y-8353140D01*
X6743900Y-4095900D02*
X6783900Y-4135900D01*
X6783900Y-4095900D02*
X6743900Y-4135900D01*
X6746980Y-713460D02*
X6786980Y-753460D01*
X6786980Y-713460D02*
X6746980Y-753460D01*
X6828260Y-5961100D02*
X6868260Y-6001100D01*
X6868260Y-5961100D02*
X6828260Y-6001100D01*
X6838420Y-6423380D02*
X6878420Y-6463380D01*
X6878420Y-6423380D02*
X6838420Y-6463380D01*
X6843500Y-5656300D02*
X6883500Y-5696300D01*
X6883500Y-5656300D02*
X6843500Y-5696300D01*
X6843500Y-6733260D02*
X6883500Y-6773260D01*
X6883500Y-6733260D02*
X6843500Y-6773260D01*
X6848580Y-7393660D02*
X6888580Y-7433660D01*
X6888580Y-7393660D02*
X6848580Y-7433660D01*
X6929860Y-4569180D02*
X6969860Y-4609180D01*
X6969860Y-4569180D02*
X6929860Y-4609180D01*
X6929860Y-5336260D02*
X6969860Y-5376260D01*
X6969860Y-5336260D02*
X6929860Y-5376260D01*
X7021300Y-11843740D02*
X7061300Y-11883740D01*
X7061300Y-11843740D02*
X7021300Y-11883740D01*
X7051780Y-88620D02*
X7091780Y-128620D01*
X7091780Y-88620D02*
X7051780Y-128620D01*
X7061940Y-2852140D02*
X7101940Y-2892140D01*
X7101940Y-2852140D02*
X7061940Y-2892140D01*
X7229580Y-7927060D02*
X7269580Y-7967060D01*
X7269580Y-7927060D02*
X7229580Y-7967060D01*
X7553900Y-7380900D02*
X7593900Y-7420900D01*
X7593900Y-7380900D02*
X7553900Y-7420900D01*
X7590260Y-6469100D02*
X7630260Y-6509100D01*
X7630260Y-6469100D02*
X7590260Y-6509100D01*
X7615660Y-8968460D02*
X7655660Y-9008460D01*
X7655660Y-8968460D02*
X7615660Y-9008460D01*
X7656300Y-1693900D02*
X7696300Y-1733900D01*
X7696300Y-1693900D02*
X7656300Y-1733900D01*
X7849340Y-6220180D02*
X7889340Y-6260180D01*
X7889340Y-6220180D02*
X7849340Y-6260180D01*
X7859500Y-8038820D02*
X7899500Y-8078820D01*
X7899500Y-8038820D02*
X7859500Y-8078820D01*
X7884900Y-6651980D02*
X7924900Y-6691980D01*
X7924900Y-6651980D02*
X7884900Y-6691980D01*
X7900140Y-7139660D02*
X7940140Y-7179660D01*
X7940140Y-7139660D02*
X7900140Y-7179660D01*
X7920460Y-891260D02*
X7960460Y-931260D01*
X7960460Y-891260D02*
X7920460Y-931260D01*
X7956020Y-4757140D02*
X7996020Y-4797140D01*
X7996020Y-4757140D02*
X7956020Y-4797140D01*
X7956020Y-5524220D02*
X7996020Y-5564220D01*
X7996020Y-5524220D02*
X7956020Y-5564220D01*
X8042380Y-11833580D02*
X8082380Y-11873580D01*
X8082380Y-11833580D02*
X8042380Y-11873580D01*
X8052540Y-98780D02*
X8092540Y-138780D01*
X8092540Y-98780D02*
X8052540Y-138780D01*
X8311620Y-9395180D02*
X8351620Y-9435180D01*
X8351620Y-9395180D02*
X8311620Y-9435180D01*
X8347180Y-10487380D02*
X8387180Y-10527380D01*
X8387180Y-10487380D02*
X8347180Y-10527380D01*
X8646900Y-7957540D02*
X8686900Y-7997540D01*
X8686900Y-7957540D02*
X8646900Y-7997540D01*
X8646900Y-8856700D02*
X8686900Y-8896700D01*
X8686900Y-8856700D02*
X8646900Y-8896700D01*
X8651980Y-5976340D02*
X8691980Y-6016340D01*
X8691980Y-5976340D02*
X8651980Y-6016340D01*
X8657060Y-1251940D02*
X8697060Y-1291940D01*
X8697060Y-1251940D02*
X8657060Y-1291940D01*
X8657060Y-6809460D02*
X8697060Y-6849460D01*
X8697060Y-6809460D02*
X8657060Y-6849460D01*
X8662140Y-2278100D02*
X8702140Y-2318100D01*
X8702140Y-2278100D02*
X8662140Y-2318100D01*
X8662140Y-9821900D02*
X8702140Y-9861900D01*
X8702140Y-9821900D02*
X8662140Y-9861900D01*
X8667220Y-677900D02*
X8707220Y-717900D01*
X8707220Y-677900D02*
X8667220Y-717900D01*
X8667220Y-3619220D02*
X8707220Y-3659220D01*
X8707220Y-3619220D02*
X8667220Y-3659220D01*
X8667220Y-5254980D02*
X8707220Y-5294980D01*
X8707220Y-5254980D02*
X8667220Y-5294980D01*
X8667220Y-11274780D02*
X8707220Y-11314780D01*
X8707220Y-11274780D02*
X8667220Y-11314780D01*
X8672300Y-4289780D02*
X8712300Y-4329780D01*
X8712300Y-4289780D02*
X8672300Y-4329780D01*
X8677380Y-2841980D02*
X8717380Y-2881980D01*
X8717380Y-2841980D02*
X8677380Y-2881980D01*
D13*
X878900Y-8727900D02*
G75*
G03*
X878900Y-8727900I-40000J0D01*
G01*
X878900Y-9743900D02*
G75*
G03*
X878900Y-9743900I-40000J0D01*
G01*
X1676700Y-9509600D02*
G75*
G03*
X1676700Y-9509600I-40000J0D01*
G01*
X1676700Y-10525600D02*
G75*
G03*
X1676700Y-10525600I-40000J0D01*
G01*
X1678300Y-1358900D02*
G75*
G03*
X1678300Y-1358900I-40000J0D01*
G01*
X1932300Y-1358900D02*
G75*
G03*
X1932300Y-1358900I-40000J0D01*
G01*
X2186300Y-1358900D02*
G75*
G03*
X2186300Y-1358900I-40000J0D01*
G01*
X2563900Y-1682900D02*
G75*
G03*
X2563900Y-1682900I-40000J0D01*
G01*
X2563900Y-2698900D02*
G75*
G03*
X2563900Y-2698900I-40000J0D01*
G01*
X2630800Y-1358900D02*
G75*
G03*
X2630800Y-1358900I-40000J0D01*
G01*
X2884800Y-1358900D02*
G75*
G03*
X2884800Y-1358900I-40000J0D01*
G01*
X2978900Y-1692900D02*
G75*
G03*
X2978900Y-1692900I-40000J0D01*
G01*
X2978900Y-2708900D02*
G75*
G03*
X2978900Y-2708900I-40000J0D01*
G01*
X3138800Y-1358900D02*
G75*
G03*
X3138800Y-1358900I-40000J0D01*
G01*
X3423900Y-1697900D02*
G75*
G03*
X3423900Y-1697900I-40000J0D01*
G01*
X3423900Y-2713900D02*
G75*
G03*
X3423900Y-2713900I-40000J0D01*
G01*
X3740080Y-5986680D02*
G75*
G03*
X3740080Y-5986680I-40000J0D01*
G01*
X3740080Y-6240680D02*
G75*
G03*
X3740080Y-6240680I-40000J0D01*
G01*
X3740080Y-6494680D02*
G75*
G03*
X3740080Y-6494680I-40000J0D01*
G01*
X3740080Y-6748680D02*
G75*
G03*
X3740080Y-6748680I-40000J0D01*
G01*
X3740080Y-7002680D02*
G75*
G03*
X3740080Y-7002680I-40000J0D01*
G01*
X3740080Y-7256680D02*
G75*
G03*
X3740080Y-7256680I-40000J0D01*
G01*
X3740080Y-7510680D02*
G75*
G03*
X3740080Y-7510680I-40000J0D01*
G01*
X3763100Y-8204200D02*
G75*
G03*
X3763100Y-8204200I-40000J0D01*
G01*
X3767600Y-4567860D02*
G75*
G03*
X3767600Y-4567860I-40000J0D01*
G01*
X3767600Y-4821860D02*
G75*
G03*
X3767600Y-4821860I-40000J0D01*
G01*
X3767600Y-5075860D02*
G75*
G03*
X3767600Y-5075860I-40000J0D01*
G01*
X3767600Y-5329860D02*
G75*
G03*
X3767600Y-5329860I-40000J0D01*
G01*
X4263100Y-8204200D02*
G75*
G03*
X4263100Y-8204200I-40000J0D01*
G01*
X4502080Y-5986680D02*
G75*
G03*
X4502080Y-5986680I-40000J0D01*
G01*
X4502080Y-6240680D02*
G75*
G03*
X4502080Y-6240680I-40000J0D01*
G01*
X4502080Y-6494680D02*
G75*
G03*
X4502080Y-6494680I-40000J0D01*
G01*
X4502080Y-6748680D02*
G75*
G03*
X4502080Y-6748680I-40000J0D01*
G01*
X4502080Y-7002680D02*
G75*
G03*
X4502080Y-7002680I-40000J0D01*
G01*
X4502080Y-7256680D02*
G75*
G03*
X4502080Y-7256680I-40000J0D01*
G01*
X4502080Y-7510680D02*
G75*
G03*
X4502080Y-7510680I-40000J0D01*
G01*
X4529600Y-4567860D02*
G75*
G03*
X4529600Y-4567860I-40000J0D01*
G01*
X4529600Y-4821860D02*
G75*
G03*
X4529600Y-4821860I-40000J0D01*
G01*
X4529600Y-5075860D02*
G75*
G03*
X4529600Y-5075860I-40000J0D01*
G01*
X4529600Y-5329860D02*
G75*
G03*
X4529600Y-5329860I-40000J0D01*
G01*
X4678900Y-9227900D02*
G75*
G03*
X4678900Y-9227900I-40000J0D01*
G01*
X4678900Y-10243900D02*
G75*
G03*
X4678900Y-10243900I-40000J0D01*
G01*
X4818900Y-11025900D02*
G75*
G03*
X4818900Y-11025900I-40000J0D01*
G01*
X4942200Y-2908300D02*
G75*
G03*
X4942200Y-2908300I-40000J0D01*
G01*
X5088900Y-9222900D02*
G75*
G03*
X5088900Y-9222900I-40000J0D01*
G01*
X5088900Y-10238900D02*
G75*
G03*
X5088900Y-10238900I-40000J0D01*
G01*
X5318900Y-11025900D02*
G75*
G03*
X5318900Y-11025900I-40000J0D01*
G01*
X5399400Y-4559300D02*
G75*
G03*
X5399400Y-4559300I-40000J0D01*
G01*
X5424800Y-4140200D02*
G75*
G03*
X5424800Y-4140200I-40000J0D01*
G01*
X5437500Y-3746500D02*
G75*
G03*
X5437500Y-3746500I-40000J0D01*
G01*
X5450200Y-3340100D02*
G75*
G03*
X5450200Y-3340100I-40000J0D01*
G01*
X5688900Y-9247900D02*
G75*
G03*
X5688900Y-9247900I-40000J0D01*
G01*
X5688900Y-10263900D02*
G75*
G03*
X5688900Y-10263900I-40000J0D01*
G01*
X5958200Y-2908300D02*
G75*
G03*
X5958200Y-2908300I-40000J0D01*
G01*
X6070900Y-9242900D02*
G75*
G03*
X6070900Y-9242900I-40000J0D01*
G01*
X6070900Y-10258900D02*
G75*
G03*
X6070900Y-10258900I-40000J0D01*
G01*
X6415400Y-4559300D02*
G75*
G03*
X6415400Y-4559300I-40000J0D01*
G01*
X6440800Y-4140200D02*
G75*
G03*
X6440800Y-4140200I-40000J0D01*
G01*
X6453500Y-3746500D02*
G75*
G03*
X6453500Y-3746500I-40000J0D01*
G01*
X6466200Y-3340100D02*
G75*
G03*
X6466200Y-3340100I-40000J0D01*
G01*
X6708900Y-8880900D02*
G75*
G03*
X6708900Y-8880900I-40000J0D01*
G01*
X6708900Y-9896900D02*
G75*
G03*
X6708900Y-9896900I-40000J0D01*
G01*
X6708900Y-10152900D02*
G75*
G03*
X6708900Y-10152900I-40000J0D01*
G01*
X6708900Y-11168900D02*
G75*
G03*
X6708900Y-11168900I-40000J0D01*
G01*
X7074200Y-10157300D02*
G75*
G03*
X7074200Y-10157300I-40000J0D01*
G01*
X7074200Y-11173300D02*
G75*
G03*
X7074200Y-11173300I-40000J0D01*
G01*
D14*
X913900Y-10019400D02*
X913900Y-10109400D01*
X868900Y-10064400D02*
X958900Y-10064400D01*
X913900Y-10273400D02*
X913900Y-10363400D01*
X868900Y-10318400D02*
X958900Y-10318400D01*
D15*
X2622388Y-601588D02*
X2622388Y-534412D01*
X2555212Y-534412D01*
X2555212Y-601588D01*
X2622388Y-601588D01*
X2872388Y-601588D02*
X2872388Y-534412D01*
X2805212Y-534412D01*
X2805212Y-601588D01*
X2872388Y-601588D01*
X3122388Y-601588D02*
X3122388Y-534412D01*
X3055212Y-534412D01*
X3055212Y-601588D01*
X3122388Y-601588D01*
X4132688Y-11595988D02*
X4132688Y-11528812D01*
X4065512Y-11528812D01*
X4065512Y-11595988D01*
X4132688Y-11595988D01*
X4382688Y-11595988D02*
X4382688Y-11528812D01*
X4315512Y-11528812D01*
X4315512Y-11595988D01*
X4382688Y-11595988D01*
X4632688Y-11595988D02*
X4632688Y-11528812D01*
X4565512Y-11528812D01*
X4565512Y-11595988D01*
X4632688Y-11595988D01*
X4882688Y-11595988D02*
X4882688Y-11528812D01*
X4815512Y-11528812D01*
X4815512Y-11595988D01*
X4882688Y-11595988D01*
X5132688Y-11595988D02*
X5132688Y-11528812D01*
X5065512Y-11528812D01*
X5065512Y-11595988D01*
X5132688Y-11595988D01*
X5382688Y-11595988D02*
X5382688Y-11528812D01*
X5315512Y-11528812D01*
X5315512Y-11595988D01*
X5382688Y-11595988D01*
X5632688Y-11595988D02*
X5632688Y-11528812D01*
X5565512Y-11528812D01*
X5565512Y-11595988D01*
X5632688Y-11595988D01*
X5882688Y-11595988D02*
X5882688Y-11528812D01*
X5815512Y-11528812D01*
X5815512Y-11595988D01*
X5882688Y-11595988D01*
X8203588Y-2323588D02*
X8203588Y-2256412D01*
X8136412Y-2256412D01*
X8136412Y-2323588D01*
X8203588Y-2323588D01*
X8203588Y-2573588D02*
X8203588Y-2506412D01*
X8136412Y-2506412D01*
X8136412Y-2573588D01*
X8203588Y-2573588D01*
X8203588Y-2823588D02*
X8203588Y-2756412D01*
X8136412Y-2756412D01*
X8136412Y-2823588D01*
X8203588Y-2823588D01*
X8203588Y-3073588D02*
X8203588Y-3006412D01*
X8136412Y-3006412D01*
X8136412Y-3073588D01*
X8203588Y-3073588D01*
X8203588Y-6320088D02*
X8203588Y-6252912D01*
X8136412Y-6252912D01*
X8136412Y-6320088D01*
X8203588Y-6320088D01*
X8203588Y-6570088D02*
X8203588Y-6502912D01*
X8136412Y-6502912D01*
X8136412Y-6570088D01*
X8203588Y-6570088D01*
X8203588Y-6820088D02*
X8203588Y-6752912D01*
X8136412Y-6752912D01*
X8136412Y-6820088D01*
X8203588Y-6820088D01*
X8203588Y-7070088D02*
X8203588Y-7002912D01*
X8136412Y-7002912D01*
X8136412Y-7070088D01*
X8203588Y-7070088D01*
X8203588Y-7320088D02*
X8203588Y-7252912D01*
X8136412Y-7252912D01*
X8136412Y-7320088D01*
X8203588Y-7320088D01*
X8203588Y-7570088D02*
X8203588Y-7502912D01*
X8136412Y-7502912D01*
X8136412Y-7570088D01*
X8203588Y-7570088D01*
D10*
X1534700Y-626100D02*
X1584700Y-576100D01*
X1534700Y-526100D01*
X1484700Y-576100D01*
X1534700Y-626100D01*
X1784700Y-626100D02*
X1834700Y-576100D01*
X1784700Y-526100D01*
X1734700Y-576100D01*
X1784700Y-626100D01*
X1996300Y-11612400D02*
X2046300Y-11562400D01*
X1996300Y-11512400D01*
X1946300Y-11562400D01*
X1996300Y-11612400D01*
X2246300Y-11612400D02*
X2296300Y-11562400D01*
X2246300Y-11512400D01*
X2196300Y-11562400D01*
X2246300Y-11612400D01*
X3014300Y-11612400D02*
X3064300Y-11562400D01*
X3014300Y-11512400D01*
X2964300Y-11562400D01*
X3014300Y-11612400D01*
X3264300Y-11612400D02*
X3314300Y-11562400D01*
X3264300Y-11512400D01*
X3214300Y-11562400D01*
X3264300Y-11612400D01*
X3862800Y-626100D02*
X3912800Y-576100D01*
X3862800Y-526100D01*
X3812800Y-576100D01*
X3862800Y-626100D01*
X4037000Y-10728000D02*
X4087000Y-10678000D01*
X4037000Y-10628000D01*
X3987000Y-10678000D01*
X4037000Y-10728000D01*
X4112800Y-626100D02*
X4162800Y-576100D01*
X4112800Y-526100D01*
X4062800Y-576100D01*
X4112800Y-626100D01*
X4164000Y-8950000D02*
X4214000Y-8900000D01*
X4164000Y-8850000D01*
X4114000Y-8900000D01*
X4164000Y-8950000D01*
X4291000Y-10728000D02*
X4341000Y-10678000D01*
X4291000Y-10628000D01*
X4241000Y-10678000D01*
X4291000Y-10728000D01*
X4418000Y-8950000D02*
X4468000Y-8900000D01*
X4418000Y-8850000D01*
X4368000Y-8900000D01*
X4418000Y-8950000D01*
X4545000Y-10728000D02*
X4595000Y-10678000D01*
X4545000Y-10628000D01*
X4495000Y-10678000D01*
X4545000Y-10728000D01*
X4672000Y-8950000D02*
X4722000Y-8900000D01*
X4672000Y-8850000D01*
X4622000Y-8900000D01*
X4672000Y-8950000D01*
X4799000Y-10728000D02*
X4849000Y-10678000D01*
X4799000Y-10628000D01*
X4749000Y-10678000D01*
X4799000Y-10728000D01*
X4926000Y-8950000D02*
X4976000Y-8900000D01*
X4926000Y-8850000D01*
X4876000Y-8900000D01*
X4926000Y-8950000D01*
X5053000Y-10728000D02*
X5103000Y-10678000D01*
X5053000Y-10628000D01*
X5003000Y-10678000D01*
X5053000Y-10728000D01*
X5105400Y-891668D02*
X5155400Y-841668D01*
X5105400Y-791668D01*
X5055400Y-841668D01*
X5105400Y-891668D01*
X5105400Y-1391668D02*
X5155400Y-1341668D01*
X5105400Y-1291668D01*
X5055400Y-1341668D01*
X5105400Y-1391668D01*
X5180000Y-8950000D02*
X5230000Y-8900000D01*
X5180000Y-8850000D01*
X5130000Y-8900000D01*
X5180000Y-8950000D01*
X5250300Y-5511000D02*
X5300300Y-5461000D01*
X5250300Y-5411000D01*
X5200300Y-5461000D01*
X5250300Y-5511000D01*
X5307000Y-10728000D02*
X5357000Y-10678000D01*
X5307000Y-10628000D01*
X5257000Y-10678000D01*
X5307000Y-10728000D01*
X5434000Y-8950000D02*
X5484000Y-8900000D01*
X5434000Y-8850000D01*
X5384000Y-8900000D01*
X5434000Y-8950000D01*
X5561000Y-10728000D02*
X5611000Y-10678000D01*
X5561000Y-10628000D01*
X5511000Y-10678000D01*
X5561000Y-10728000D01*
X5688000Y-8950000D02*
X5738000Y-8900000D01*
X5688000Y-8850000D01*
X5638000Y-8900000D01*
X5688000Y-8950000D01*
X5815000Y-10728000D02*
X5865000Y-10678000D01*
X5815000Y-10628000D01*
X5765000Y-10678000D01*
X5815000Y-10728000D01*
X5900300Y-5511000D02*
X5950300Y-5461000D01*
X5900300Y-5411000D01*
X5850300Y-5461000D01*
X5900300Y-5511000D01*
X5942000Y-8950000D02*
X5992000Y-8900000D01*
X5942000Y-8850000D01*
X5892000Y-8900000D01*
X5942000Y-8950000D01*
X6069000Y-10728000D02*
X6119000Y-10678000D01*
X6069000Y-10628000D01*
X6019000Y-10678000D01*
X6069000Y-10728000D01*
X6084800Y-1510500D02*
X6134800Y-1460500D01*
X6084800Y-1410500D01*
X6034800Y-1460500D01*
X6084800Y-1510500D01*
X7224800Y-1510500D02*
X7274800Y-1460500D01*
X7224800Y-1410500D01*
X7174800Y-1460500D01*
X7224800Y-1510500D01*
X8170000Y-1358100D02*
X8220000Y-1308100D01*
X8170000Y-1258100D01*
X8120000Y-1308100D01*
X8170000Y-1358100D01*
X8170000Y-1608100D02*
X8220000Y-1558100D01*
X8170000Y-1508100D01*
X8120000Y-1558100D01*
X8170000Y-1608100D01*
D16*
X965420Y-3148800D02*
X1067420Y-3250800D01*
X1067420Y-3148800D02*
X965420Y-3250800D01*
X1067420Y-3199800D02*
G75*
G03*
X1067420Y-3199800I-51000J0D01*
G01*
X965420Y-3402800D02*
X1067420Y-3504800D01*
X1067420Y-3402800D02*
X965420Y-3504800D01*
X1067420Y-3453800D02*
G75*
G03*
X1067420Y-3453800I-51000J0D01*
G01*
X965420Y-3656800D02*
X1067420Y-3758800D01*
X1067420Y-3656800D02*
X965420Y-3758800D01*
X1067420Y-3707800D02*
G75*
G03*
X1067420Y-3707800I-51000J0D01*
G01*
X965420Y-3910800D02*
X1067420Y-4012800D01*
X1067420Y-3910800D02*
X965420Y-4012800D01*
X1067420Y-3961800D02*
G75*
G03*
X1067420Y-3961800I-51000J0D01*
G01*
X965420Y-4164800D02*
X1067420Y-4266800D01*
X1067420Y-4164800D02*
X965420Y-4266800D01*
X1067420Y-4215800D02*
G75*
G03*
X1067420Y-4215800I-51000J0D01*
G01*
X965420Y-4418800D02*
X1067420Y-4520800D01*
X1067420Y-4418800D02*
X965420Y-4520800D01*
X1067420Y-4469800D02*
G75*
G03*
X1067420Y-4469800I-51000J0D01*
G01*
X965420Y-4672800D02*
X1067420Y-4774800D01*
X1067420Y-4672800D02*
X965420Y-4774800D01*
X1067420Y-4723800D02*
G75*
G03*
X1067420Y-4723800I-51000J0D01*
G01*
X965420Y-4926800D02*
X1067420Y-5028800D01*
X1067420Y-4926800D02*
X965420Y-5028800D01*
X1067420Y-4977800D02*
G75*
G03*
X1067420Y-4977800I-51000J0D01*
G01*
X965420Y-5180800D02*
X1067420Y-5282800D01*
X1067420Y-5180800D02*
X965420Y-5282800D01*
X1067420Y-5231800D02*
G75*
G03*
X1067420Y-5231800I-51000J0D01*
G01*
X965420Y-5434800D02*
X1067420Y-5536800D01*
X1067420Y-5434800D02*
X965420Y-5536800D01*
X1067420Y-5485800D02*
G75*
G03*
X1067420Y-5485800I-51000J0D01*
G01*
X965420Y-5688800D02*
X1067420Y-5790800D01*
X1067420Y-5688800D02*
X965420Y-5790800D01*
X1067420Y-5739800D02*
G75*
G03*
X1067420Y-5739800I-51000J0D01*
G01*
X965420Y-5942800D02*
X1067420Y-6044800D01*
X1067420Y-5942800D02*
X965420Y-6044800D01*
X1067420Y-5993800D02*
G75*
G03*
X1067420Y-5993800I-51000J0D01*
G01*
X965420Y-6196800D02*
X1067420Y-6298800D01*
X1067420Y-6196800D02*
X965420Y-6298800D01*
X1067420Y-6247800D02*
G75*
G03*
X1067420Y-6247800I-51000J0D01*
G01*
X965420Y-6450800D02*
X1067420Y-6552800D01*
X1067420Y-6450800D02*
X965420Y-6552800D01*
X1067420Y-6501800D02*
G75*
G03*
X1067420Y-6501800I-51000J0D01*
G01*
X965420Y-6704800D02*
X1067420Y-6806800D01*
X1067420Y-6704800D02*
X965420Y-6806800D01*
X1067420Y-6755800D02*
G75*
G03*
X1067420Y-6755800I-51000J0D01*
G01*
X965420Y-6958800D02*
X1067420Y-7060800D01*
X1067420Y-6958800D02*
X965420Y-7060800D01*
X1067420Y-7009800D02*
G75*
G03*
X1067420Y-7009800I-51000J0D01*
G01*
X965420Y-7212800D02*
X1067420Y-7314800D01*
X1067420Y-7212800D02*
X965420Y-7314800D01*
X1067420Y-7263800D02*
G75*
G03*
X1067420Y-7263800I-51000J0D01*
G01*
X965420Y-7466800D02*
X1067420Y-7568800D01*
X1067420Y-7466800D02*
X965420Y-7568800D01*
X1067420Y-7517800D02*
G75*
G03*
X1067420Y-7517800I-51000J0D01*
G01*
X965420Y-7720800D02*
X1067420Y-7822800D01*
X1067420Y-7720800D02*
X965420Y-7822800D01*
X1067420Y-7771800D02*
G75*
G03*
X1067420Y-7771800I-51000J0D01*
G01*
X1219420Y-3148800D02*
X1321420Y-3250800D01*
X1321420Y-3148800D02*
X1219420Y-3250800D01*
X1321420Y-3199800D02*
G75*
G03*
X1321420Y-3199800I-51000J0D01*
G01*
X1219420Y-3402800D02*
X1321420Y-3504800D01*
X1321420Y-3402800D02*
X1219420Y-3504800D01*
X1321420Y-3453800D02*
G75*
G03*
X1321420Y-3453800I-51000J0D01*
G01*
X1219420Y-3656800D02*
X1321420Y-3758800D01*
X1321420Y-3656800D02*
X1219420Y-3758800D01*
X1321420Y-3707800D02*
G75*
G03*
X1321420Y-3707800I-51000J0D01*
G01*
X1219420Y-3910800D02*
X1321420Y-4012800D01*
X1321420Y-3910800D02*
X1219420Y-4012800D01*
X1321420Y-3961800D02*
G75*
G03*
X1321420Y-3961800I-51000J0D01*
G01*
X1219420Y-4164800D02*
X1321420Y-4266800D01*
X1321420Y-4164800D02*
X1219420Y-4266800D01*
X1321420Y-4215800D02*
G75*
G03*
X1321420Y-4215800I-51000J0D01*
G01*
X1219420Y-4418800D02*
X1321420Y-4520800D01*
X1321420Y-4418800D02*
X1219420Y-4520800D01*
X1321420Y-4469800D02*
G75*
G03*
X1321420Y-4469800I-51000J0D01*
G01*
X1219420Y-4672800D02*
X1321420Y-4774800D01*
X1321420Y-4672800D02*
X1219420Y-4774800D01*
X1321420Y-4723800D02*
G75*
G03*
X1321420Y-4723800I-51000J0D01*
G01*
X1219420Y-4926800D02*
X1321420Y-5028800D01*
X1321420Y-4926800D02*
X1219420Y-5028800D01*
X1321420Y-4977800D02*
G75*
G03*
X1321420Y-4977800I-51000J0D01*
G01*
X1219420Y-5180800D02*
X1321420Y-5282800D01*
X1321420Y-5180800D02*
X1219420Y-5282800D01*
X1321420Y-5231800D02*
G75*
G03*
X1321420Y-5231800I-51000J0D01*
G01*
X1219420Y-5434800D02*
X1321420Y-5536800D01*
X1321420Y-5434800D02*
X1219420Y-5536800D01*
X1321420Y-5485800D02*
G75*
G03*
X1321420Y-5485800I-51000J0D01*
G01*
X1219420Y-5688800D02*
X1321420Y-5790800D01*
X1321420Y-5688800D02*
X1219420Y-5790800D01*
X1321420Y-5739800D02*
G75*
G03*
X1321420Y-5739800I-51000J0D01*
G01*
X1219420Y-5942800D02*
X1321420Y-6044800D01*
X1321420Y-5942800D02*
X1219420Y-6044800D01*
X1321420Y-5993800D02*
G75*
G03*
X1321420Y-5993800I-51000J0D01*
G01*
X1219420Y-6196800D02*
X1321420Y-6298800D01*
X1321420Y-6196800D02*
X1219420Y-6298800D01*
X1321420Y-6247800D02*
G75*
G03*
X1321420Y-6247800I-51000J0D01*
G01*
X1219420Y-6450800D02*
X1321420Y-6552800D01*
X1321420Y-6450800D02*
X1219420Y-6552800D01*
X1321420Y-6501800D02*
G75*
G03*
X1321420Y-6501800I-51000J0D01*
G01*
X1219420Y-6704800D02*
X1321420Y-6806800D01*
X1321420Y-6704800D02*
X1219420Y-6806800D01*
X1321420Y-6755800D02*
G75*
G03*
X1321420Y-6755800I-51000J0D01*
G01*
X1219420Y-6958800D02*
X1321420Y-7060800D01*
X1321420Y-6958800D02*
X1219420Y-7060800D01*
X1321420Y-7009800D02*
G75*
G03*
X1321420Y-7009800I-51000J0D01*
G01*
X1219420Y-7212800D02*
X1321420Y-7314800D01*
X1321420Y-7212800D02*
X1219420Y-7314800D01*
X1321420Y-7263800D02*
G75*
G03*
X1321420Y-7263800I-51000J0D01*
G01*
X1219420Y-7466800D02*
X1321420Y-7568800D01*
X1321420Y-7466800D02*
X1219420Y-7568800D01*
X1321420Y-7517800D02*
G75*
G03*
X1321420Y-7517800I-51000J0D01*
G01*
X1219420Y-7720800D02*
X1321420Y-7822800D01*
X1321420Y-7720800D02*
X1219420Y-7822800D01*
X1321420Y-7771800D02*
G75*
G03*
X1321420Y-7771800I-51000J0D01*
G01*
X7061420Y-3148800D02*
X7163420Y-3250800D01*
X7163420Y-3148800D02*
X7061420Y-3250800D01*
X7163420Y-3199800D02*
G75*
G03*
X7163420Y-3199800I-51000J0D01*
G01*
X7061420Y-3402800D02*
X7163420Y-3504800D01*
X7163420Y-3402800D02*
X7061420Y-3504800D01*
X7163420Y-3453800D02*
G75*
G03*
X7163420Y-3453800I-51000J0D01*
G01*
X7061420Y-3656800D02*
X7163420Y-3758800D01*
X7163420Y-3656800D02*
X7061420Y-3758800D01*
X7163420Y-3707800D02*
G75*
G03*
X7163420Y-3707800I-51000J0D01*
G01*
X7061420Y-3910800D02*
X7163420Y-4012800D01*
X7163420Y-3910800D02*
X7061420Y-4012800D01*
X7163420Y-3961800D02*
G75*
G03*
X7163420Y-3961800I-51000J0D01*
G01*
X7061420Y-4164800D02*
X7163420Y-4266800D01*
X7163420Y-4164800D02*
X7061420Y-4266800D01*
X7163420Y-4215800D02*
G75*
G03*
X7163420Y-4215800I-51000J0D01*
G01*
X7061420Y-4418800D02*
X7163420Y-4520800D01*
X7163420Y-4418800D02*
X7061420Y-4520800D01*
X7163420Y-4469800D02*
G75*
G03*
X7163420Y-4469800I-51000J0D01*
G01*
X7061420Y-4672800D02*
X7163420Y-4774800D01*
X7163420Y-4672800D02*
X7061420Y-4774800D01*
X7163420Y-4723800D02*
G75*
G03*
X7163420Y-4723800I-51000J0D01*
G01*
X7061420Y-4926800D02*
X7163420Y-5028800D01*
X7163420Y-4926800D02*
X7061420Y-5028800D01*
X7163420Y-4977800D02*
G75*
G03*
X7163420Y-4977800I-51000J0D01*
G01*
X7061420Y-5180800D02*
X7163420Y-5282800D01*
X7163420Y-5180800D02*
X7061420Y-5282800D01*
X7163420Y-5231800D02*
G75*
G03*
X7163420Y-5231800I-51000J0D01*
G01*
X7061420Y-5434800D02*
X7163420Y-5536800D01*
X7163420Y-5434800D02*
X7061420Y-5536800D01*
X7163420Y-5485800D02*
G75*
G03*
X7163420Y-5485800I-51000J0D01*
G01*
X7061420Y-5688800D02*
X7163420Y-5790800D01*
X7163420Y-5688800D02*
X7061420Y-5790800D01*
X7163420Y-5739800D02*
G75*
G03*
X7163420Y-5739800I-51000J0D01*
G01*
X7061420Y-5942800D02*
X7163420Y-6044800D01*
X7163420Y-5942800D02*
X7061420Y-6044800D01*
X7163420Y-5993800D02*
G75*
G03*
X7163420Y-5993800I-51000J0D01*
G01*
X7061420Y-6196800D02*
X7163420Y-6298800D01*
X7163420Y-6196800D02*
X7061420Y-6298800D01*
X7163420Y-6247800D02*
G75*
G03*
X7163420Y-6247800I-51000J0D01*
G01*
X7061420Y-6450800D02*
X7163420Y-6552800D01*
X7163420Y-6450800D02*
X7061420Y-6552800D01*
X7163420Y-6501800D02*
G75*
G03*
X7163420Y-6501800I-51000J0D01*
G01*
X7061420Y-6704800D02*
X7163420Y-6806800D01*
X7163420Y-6704800D02*
X7061420Y-6806800D01*
X7163420Y-6755800D02*
G75*
G03*
X7163420Y-6755800I-51000J0D01*
G01*
X7061420Y-6958800D02*
X7163420Y-7060800D01*
X7163420Y-6958800D02*
X7061420Y-7060800D01*
X7163420Y-7009800D02*
G75*
G03*
X7163420Y-7009800I-51000J0D01*
G01*
X7061420Y-7212800D02*
X7163420Y-7314800D01*
X7163420Y-7212800D02*
X7061420Y-7314800D01*
X7163420Y-7263800D02*
G75*
G03*
X7163420Y-7263800I-51000J0D01*
G01*
X7061420Y-7466800D02*
X7163420Y-7568800D01*
X7163420Y-7466800D02*
X7061420Y-7568800D01*
X7163420Y-7517800D02*
G75*
G03*
X7163420Y-7517800I-51000J0D01*
G01*
X7061420Y-7720800D02*
X7163420Y-7822800D01*
X7163420Y-7720800D02*
X7061420Y-7822800D01*
X7163420Y-7771800D02*
G75*
G03*
X7163420Y-7771800I-51000J0D01*
G01*
X7315420Y-3148800D02*
X7417420Y-3250800D01*
X7417420Y-3148800D02*
X7315420Y-3250800D01*
X7417420Y-3199800D02*
G75*
G03*
X7417420Y-3199800I-51000J0D01*
G01*
X7315420Y-3402800D02*
X7417420Y-3504800D01*
X7417420Y-3402800D02*
X7315420Y-3504800D01*
X7417420Y-3453800D02*
G75*
G03*
X7417420Y-3453800I-51000J0D01*
G01*
X7315420Y-3656800D02*
X7417420Y-3758800D01*
X7417420Y-3656800D02*
X7315420Y-3758800D01*
X7417420Y-3707800D02*
G75*
G03*
X7417420Y-3707800I-51000J0D01*
G01*
X7315420Y-3910800D02*
X7417420Y-4012800D01*
X7417420Y-3910800D02*
X7315420Y-4012800D01*
X7417420Y-3961800D02*
G75*
G03*
X7417420Y-3961800I-51000J0D01*
G01*
X7315420Y-4164800D02*
X7417420Y-4266800D01*
X7417420Y-4164800D02*
X7315420Y-4266800D01*
X7417420Y-4215800D02*
G75*
G03*
X7417420Y-4215800I-51000J0D01*
G01*
X7315420Y-4418800D02*
X7417420Y-4520800D01*
X7417420Y-4418800D02*
X7315420Y-4520800D01*
X7417420Y-4469800D02*
G75*
G03*
X7417420Y-4469800I-51000J0D01*
G01*
X7315420Y-4672800D02*
X7417420Y-4774800D01*
X7417420Y-4672800D02*
X7315420Y-4774800D01*
X7417420Y-4723800D02*
G75*
G03*
X7417420Y-4723800I-51000J0D01*
G01*
X7315420Y-4926800D02*
X7417420Y-5028800D01*
X7417420Y-4926800D02*
X7315420Y-5028800D01*
X7417420Y-4977800D02*
G75*
G03*
X7417420Y-4977800I-51000J0D01*
G01*
X7315420Y-5180800D02*
X7417420Y-5282800D01*
X7417420Y-5180800D02*
X7315420Y-5282800D01*
X7417420Y-5231800D02*
G75*
G03*
X7417420Y-5231800I-51000J0D01*
G01*
X7315420Y-5434800D02*
X7417420Y-5536800D01*
X7417420Y-5434800D02*
X7315420Y-5536800D01*
X7417420Y-5485800D02*
G75*
G03*
X7417420Y-5485800I-51000J0D01*
G01*
X7315420Y-5688800D02*
X7417420Y-5790800D01*
X7417420Y-5688800D02*
X7315420Y-5790800D01*
X7417420Y-5739800D02*
G75*
G03*
X7417420Y-5739800I-51000J0D01*
G01*
X7315420Y-5942800D02*
X7417420Y-6044800D01*
X7417420Y-5942800D02*
X7315420Y-6044800D01*
X7417420Y-5993800D02*
G75*
G03*
X7417420Y-5993800I-51000J0D01*
G01*
X7315420Y-6196800D02*
X7417420Y-6298800D01*
X7417420Y-6196800D02*
X7315420Y-6298800D01*
X7417420Y-6247800D02*
G75*
G03*
X7417420Y-6247800I-51000J0D01*
G01*
X7315420Y-6450800D02*
X7417420Y-6552800D01*
X7417420Y-6450800D02*
X7315420Y-6552800D01*
X7417420Y-6501800D02*
G75*
G03*
X7417420Y-6501800I-51000J0D01*
G01*
X7315420Y-6704800D02*
X7417420Y-6806800D01*
X7417420Y-6704800D02*
X7315420Y-6806800D01*
X7417420Y-6755800D02*
G75*
G03*
X7417420Y-6755800I-51000J0D01*
G01*
X7315420Y-6958800D02*
X7417420Y-7060800D01*
X7417420Y-6958800D02*
X7315420Y-7060800D01*
X7417420Y-7009800D02*
G75*
G03*
X7417420Y-7009800I-51000J0D01*
G01*
X7315420Y-7212800D02*
X7417420Y-7314800D01*
X7417420Y-7212800D02*
X7315420Y-7314800D01*
X7417420Y-7263800D02*
G75*
G03*
X7417420Y-7263800I-51000J0D01*
G01*
X7315420Y-7466800D02*
X7417420Y-7568800D01*
X7417420Y-7466800D02*
X7315420Y-7568800D01*
X7417420Y-7517800D02*
G75*
G03*
X7417420Y-7517800I-51000J0D01*
G01*
X7315420Y-7720800D02*
X7417420Y-7822800D01*
X7417420Y-7720800D02*
X7315420Y-7822800D01*
X7417420Y-7771800D02*
G75*
G03*
X7417420Y-7771800I-51000J0D01*
G01*
D17*
X1836500Y-3523850D02*
X1946500Y-3633850D01*
X1946500Y-3523850D02*
X1836500Y-3633850D01*
X1891500Y-3523850D02*
X1891500Y-3633850D01*
X1836500Y-3578850D02*
X1946500Y-3578850D01*
X1836500Y-5343850D02*
X1946500Y-5453850D01*
X1946500Y-5343850D02*
X1836500Y-5453850D01*
X1891500Y-5343850D02*
X1891500Y-5453850D01*
X1836500Y-5398850D02*
X1946500Y-5398850D01*
X2090500Y-3523850D02*
X2200500Y-3633850D01*
X2200500Y-3523850D02*
X2090500Y-3633850D01*
X2145500Y-3523850D02*
X2145500Y-3633850D01*
X2090500Y-3578850D02*
X2200500Y-3578850D01*
X2090500Y-5343850D02*
X2200500Y-5453850D01*
X2200500Y-5343850D02*
X2090500Y-5453850D01*
X2145500Y-5343850D02*
X2145500Y-5453850D01*
X2090500Y-5398850D02*
X2200500Y-5398850D01*
X2890500Y-3523850D02*
X3000500Y-3633850D01*
X3000500Y-3523850D02*
X2890500Y-3633850D01*
X2945500Y-3523850D02*
X2945500Y-3633850D01*
X2890500Y-3578850D02*
X3000500Y-3578850D01*
X2890500Y-5343850D02*
X3000500Y-5453850D01*
X3000500Y-5343850D02*
X2890500Y-5453850D01*
X2945500Y-5343850D02*
X2945500Y-5453850D01*
X2890500Y-5398850D02*
X3000500Y-5398850D01*
X3144500Y-3523850D02*
X3254500Y-3633850D01*
X3254500Y-3523850D02*
X3144500Y-3633850D01*
X3199500Y-3523850D02*
X3199500Y-3633850D01*
X3144500Y-3578850D02*
X3254500Y-3578850D01*
X3144500Y-5343850D02*
X3254500Y-5453850D01*
X3254500Y-5343850D02*
X3144500Y-5453850D01*
X3199500Y-5343850D02*
X3199500Y-5453850D01*
X3144500Y-5398850D02*
X3254500Y-5398850D01*
D18*
X7434100Y-10074600D02*
X7574100Y-10214600D01*
X7574100Y-10074600D02*
X7434100Y-10214600D01*
X7553598Y-10194098D02*
X7553598Y-10095102D01*
X7454602Y-10095102D01*
X7454602Y-10194098D01*
X7553598Y-10194098D01*
X7434100Y-11090600D02*
X7574100Y-11230600D01*
X7574100Y-11090600D02*
X7434100Y-11230600D01*
X7553598Y-11210098D02*
X7553598Y-11111102D01*
X7454602Y-11111102D01*
X7454602Y-11210098D01*
X7553598Y-11210098D01*
D19*
X5828000Y-520000D02*
X5988000Y-680000D01*
X5988000Y-520000D02*
X5828000Y-680000D01*
X5908000Y-680000D02*
X5988000Y-600000D01*
X5908000Y-520000D01*
X5828000Y-600000D01*
X5908000Y-680000D01*
X7352000Y-520000D02*
X7512000Y-680000D01*
X7512000Y-520000D02*
X7352000Y-680000D01*
X7432000Y-680000D02*
X7512000Y-600000D01*
X7432000Y-520000D01*
X7352000Y-600000D01*
X7432000Y-680000D01*
D11*
X242619Y-12298476D02*
X242619Y-12098476D01*
X242619Y-12098476D02*
X290238Y-12098476D01*
X290238Y-12098476D02*
X318810Y-12108000D01*
X318810Y-12108000D02*
X337857Y-12127048D01*
X337857Y-12127048D02*
X347381Y-12146095D01*
X347381Y-12146095D02*
X356905Y-12184190D01*
X356905Y-12184190D02*
X356905Y-12212762D01*
X356905Y-12212762D02*
X347381Y-12250857D01*
X347381Y-12250857D02*
X337857Y-12269905D01*
X337857Y-12269905D02*
X318810Y-12288952D01*
X318810Y-12288952D02*
X290238Y-12298476D01*
X290238Y-12298476D02*
X242619Y-12298476D01*
X442619Y-12298476D02*
X442619Y-12165143D01*
X442619Y-12203238D02*
X452143Y-12184190D01*
X452143Y-12184190D02*
X461667Y-12174667D01*
X461667Y-12174667D02*
X480714Y-12165143D01*
X480714Y-12165143D02*
X499762Y-12165143D01*
X566429Y-12298476D02*
X566429Y-12165143D01*
X566429Y-12098476D02*
X556905Y-12108000D01*
X556905Y-12108000D02*
X566429Y-12117524D01*
X566429Y-12117524D02*
X575952Y-12108000D01*
X575952Y-12108000D02*
X566429Y-12098476D01*
X566429Y-12098476D02*
X566429Y-12117524D01*
X690238Y-12298476D02*
X671190Y-12288952D01*
X671190Y-12288952D02*
X661667Y-12269905D01*
X661667Y-12269905D02*
X661667Y-12098476D01*
X795000Y-12298476D02*
X775952Y-12288952D01*
X775952Y-12288952D02*
X766428Y-12269905D01*
X766428Y-12269905D02*
X766428Y-12098476D01*
X991190Y-12298476D02*
X991190Y-12098476D01*
X991190Y-12098476D02*
X1057857Y-12241333D01*
X1057857Y-12241333D02*
X1124524Y-12098476D01*
X1124524Y-12098476D02*
X1124524Y-12298476D01*
X1305476Y-12298476D02*
X1305476Y-12193714D01*
X1305476Y-12193714D02*
X1295952Y-12174667D01*
X1295952Y-12174667D02*
X1276905Y-12165143D01*
X1276905Y-12165143D02*
X1238809Y-12165143D01*
X1238809Y-12165143D02*
X1219762Y-12174667D01*
X1305476Y-12288952D02*
X1286429Y-12298476D01*
X1286429Y-12298476D02*
X1238809Y-12298476D01*
X1238809Y-12298476D02*
X1219762Y-12288952D01*
X1219762Y-12288952D02*
X1210238Y-12269905D01*
X1210238Y-12269905D02*
X1210238Y-12250857D01*
X1210238Y-12250857D02*
X1219762Y-12231809D01*
X1219762Y-12231809D02*
X1238809Y-12222286D01*
X1238809Y-12222286D02*
X1286429Y-12222286D01*
X1286429Y-12222286D02*
X1305476Y-12212762D01*
X1400714Y-12165143D02*
X1400714Y-12365143D01*
X1400714Y-12174667D02*
X1419762Y-12165143D01*
X1419762Y-12165143D02*
X1457857Y-12165143D01*
X1457857Y-12165143D02*
X1476905Y-12174667D01*
X1476905Y-12174667D02*
X1486428Y-12184190D01*
X1486428Y-12184190D02*
X1495952Y-12203238D01*
X1495952Y-12203238D02*
X1495952Y-12260381D01*
X1495952Y-12260381D02*
X1486428Y-12279428D01*
X1486428Y-12279428D02*
X1476905Y-12288952D01*
X1476905Y-12288952D02*
X1457857Y-12298476D01*
X1457857Y-12298476D02*
X1419762Y-12298476D01*
X1419762Y-12298476D02*
X1400714Y-12288952D01*
X1581667Y-12279428D02*
X1591190Y-12288952D01*
X1591190Y-12288952D02*
X1581667Y-12298476D01*
X1581667Y-12298476D02*
X1572143Y-12288952D01*
X1572143Y-12288952D02*
X1581667Y-12279428D01*
X1581667Y-12279428D02*
X1581667Y-12298476D01*
X1581667Y-12174667D02*
X1591190Y-12184190D01*
X1591190Y-12184190D02*
X1581667Y-12193714D01*
X1581667Y-12193714D02*
X1572143Y-12184190D01*
X1572143Y-12184190D02*
X1581667Y-12174667D01*
X1581667Y-12174667D02*
X1581667Y-12193714D01*
D12*
X-45000Y-12625000D02*
X-5000Y-12665000D01*
X-5000Y-12625000D02*
X-45000Y-12665000D01*
D11*
X280714Y-12518476D02*
X299762Y-12518476D01*
X299762Y-12518476D02*
X318810Y-12528000D01*
X318810Y-12528000D02*
X328333Y-12537524D01*
X328333Y-12537524D02*
X337857Y-12556571D01*
X337857Y-12556571D02*
X347381Y-12594667D01*
X347381Y-12594667D02*
X347381Y-12642286D01*
X347381Y-12642286D02*
X337857Y-12680381D01*
X337857Y-12680381D02*
X328333Y-12699428D01*
X328333Y-12699428D02*
X318810Y-12708952D01*
X318810Y-12708952D02*
X299762Y-12718476D01*
X299762Y-12718476D02*
X280714Y-12718476D01*
X280714Y-12718476D02*
X261667Y-12708952D01*
X261667Y-12708952D02*
X252143Y-12699428D01*
X252143Y-12699428D02*
X242619Y-12680381D01*
X242619Y-12680381D02*
X233095Y-12642286D01*
X233095Y-12642286D02*
X233095Y-12594667D01*
X233095Y-12594667D02*
X242619Y-12556571D01*
X242619Y-12556571D02*
X252143Y-12537524D01*
X252143Y-12537524D02*
X261667Y-12528000D01*
X261667Y-12528000D02*
X280714Y-12518476D01*
X433095Y-12699428D02*
X442619Y-12708952D01*
X442619Y-12708952D02*
X433095Y-12718476D01*
X433095Y-12718476D02*
X423571Y-12708952D01*
X423571Y-12708952D02*
X433095Y-12699428D01*
X433095Y-12699428D02*
X433095Y-12718476D01*
X614048Y-12585143D02*
X614048Y-12718476D01*
X566429Y-12508952D02*
X518809Y-12651809D01*
X518809Y-12651809D02*
X642619Y-12651809D01*
X756905Y-12518476D02*
X775952Y-12518476D01*
X775952Y-12518476D02*
X795000Y-12528000D01*
X795000Y-12528000D02*
X804524Y-12537524D01*
X804524Y-12537524D02*
X814048Y-12556571D01*
X814048Y-12556571D02*
X823571Y-12594667D01*
X823571Y-12594667D02*
X823571Y-12642286D01*
X823571Y-12642286D02*
X814048Y-12680381D01*
X814048Y-12680381D02*
X804524Y-12699428D01*
X804524Y-12699428D02*
X795000Y-12708952D01*
X795000Y-12708952D02*
X775952Y-12718476D01*
X775952Y-12718476D02*
X756905Y-12718476D01*
X756905Y-12718476D02*
X737857Y-12708952D01*
X737857Y-12708952D02*
X728333Y-12699428D01*
X728333Y-12699428D02*
X718809Y-12680381D01*
X718809Y-12680381D02*
X709286Y-12642286D01*
X709286Y-12642286D02*
X709286Y-12594667D01*
X709286Y-12594667D02*
X718809Y-12556571D01*
X718809Y-12556571D02*
X728333Y-12537524D01*
X728333Y-12537524D02*
X737857Y-12528000D01*
X737857Y-12528000D02*
X756905Y-12518476D01*
X947381Y-12518476D02*
X966429Y-12518476D01*
X966429Y-12518476D02*
X985476Y-12528000D01*
X985476Y-12528000D02*
X995000Y-12537524D01*
X995000Y-12537524D02*
X1004524Y-12556571D01*
X1004524Y-12556571D02*
X1014048Y-12594667D01*
X1014048Y-12594667D02*
X1014048Y-12642286D01*
X1014048Y-12642286D02*
X1004524Y-12680381D01*
X1004524Y-12680381D02*
X995000Y-12699428D01*
X995000Y-12699428D02*
X985476Y-12708952D01*
X985476Y-12708952D02*
X966429Y-12718476D01*
X966429Y-12718476D02*
X947381Y-12718476D01*
X947381Y-12718476D02*
X928333Y-12708952D01*
X928333Y-12708952D02*
X918809Y-12699428D01*
X918809Y-12699428D02*
X909286Y-12680381D01*
X909286Y-12680381D02*
X899762Y-12642286D01*
X899762Y-12642286D02*
X899762Y-12594667D01*
X899762Y-12594667D02*
X909286Y-12556571D01*
X909286Y-12556571D02*
X918809Y-12537524D01*
X918809Y-12537524D02*
X928333Y-12528000D01*
X928333Y-12528000D02*
X947381Y-12518476D01*
X1099762Y-12718476D02*
X1099762Y-12585143D01*
X1099762Y-12604190D02*
X1109286Y-12594667D01*
X1109286Y-12594667D02*
X1128333Y-12585143D01*
X1128333Y-12585143D02*
X1156905Y-12585143D01*
X1156905Y-12585143D02*
X1175952Y-12594667D01*
X1175952Y-12594667D02*
X1185476Y-12613714D01*
X1185476Y-12613714D02*
X1185476Y-12718476D01*
X1185476Y-12613714D02*
X1195000Y-12594667D01*
X1195000Y-12594667D02*
X1214048Y-12585143D01*
X1214048Y-12585143D02*
X1242619Y-12585143D01*
X1242619Y-12585143D02*
X1261667Y-12594667D01*
X1261667Y-12594667D02*
X1271191Y-12613714D01*
X1271191Y-12613714D02*
X1271191Y-12718476D01*
X1366429Y-12718476D02*
X1366429Y-12585143D01*
X1366429Y-12604190D02*
X1375952Y-12594667D01*
X1375952Y-12594667D02*
X1395000Y-12585143D01*
X1395000Y-12585143D02*
X1423571Y-12585143D01*
X1423571Y-12585143D02*
X1442619Y-12594667D01*
X1442619Y-12594667D02*
X1452143Y-12613714D01*
X1452143Y-12613714D02*
X1452143Y-12718476D01*
X1452143Y-12613714D02*
X1461667Y-12594667D01*
X1461667Y-12594667D02*
X1480714Y-12585143D01*
X1480714Y-12585143D02*
X1509286Y-12585143D01*
X1509286Y-12585143D02*
X1528333Y-12594667D01*
X1528333Y-12594667D02*
X1537857Y-12613714D01*
X1537857Y-12613714D02*
X1537857Y-12718476D01*
X1895952Y-12508952D02*
X1724524Y-12766095D01*
X2120714Y-12518476D02*
X2139762Y-12518476D01*
X2139762Y-12518476D02*
X2158810Y-12528000D01*
X2158810Y-12528000D02*
X2168333Y-12537524D01*
X2168333Y-12537524D02*
X2177857Y-12556571D01*
X2177857Y-12556571D02*
X2187381Y-12594667D01*
X2187381Y-12594667D02*
X2187381Y-12642286D01*
X2187381Y-12642286D02*
X2177857Y-12680381D01*
X2177857Y-12680381D02*
X2168333Y-12699428D01*
X2168333Y-12699428D02*
X2158810Y-12708952D01*
X2158810Y-12708952D02*
X2139762Y-12718476D01*
X2139762Y-12718476D02*
X2120714Y-12718476D01*
X2120714Y-12718476D02*
X2101667Y-12708952D01*
X2101667Y-12708952D02*
X2092143Y-12699428D01*
X2092143Y-12699428D02*
X2082619Y-12680381D01*
X2082619Y-12680381D02*
X2073095Y-12642286D01*
X2073095Y-12642286D02*
X2073095Y-12594667D01*
X2073095Y-12594667D02*
X2082619Y-12556571D01*
X2082619Y-12556571D02*
X2092143Y-12537524D01*
X2092143Y-12537524D02*
X2101667Y-12528000D01*
X2101667Y-12528000D02*
X2120714Y-12518476D01*
X2273095Y-12699428D02*
X2282619Y-12708952D01*
X2282619Y-12708952D02*
X2273095Y-12718476D01*
X2273095Y-12718476D02*
X2263572Y-12708952D01*
X2263572Y-12708952D02*
X2273095Y-12699428D01*
X2273095Y-12699428D02*
X2273095Y-12718476D01*
X2406429Y-12518476D02*
X2425476Y-12518476D01*
X2425476Y-12518476D02*
X2444524Y-12528000D01*
X2444524Y-12528000D02*
X2454048Y-12537524D01*
X2454048Y-12537524D02*
X2463572Y-12556571D01*
X2463572Y-12556571D02*
X2473095Y-12594667D01*
X2473095Y-12594667D02*
X2473095Y-12642286D01*
X2473095Y-12642286D02*
X2463572Y-12680381D01*
X2463572Y-12680381D02*
X2454048Y-12699428D01*
X2454048Y-12699428D02*
X2444524Y-12708952D01*
X2444524Y-12708952D02*
X2425476Y-12718476D01*
X2425476Y-12718476D02*
X2406429Y-12718476D01*
X2406429Y-12718476D02*
X2387381Y-12708952D01*
X2387381Y-12708952D02*
X2377857Y-12699428D01*
X2377857Y-12699428D02*
X2368333Y-12680381D01*
X2368333Y-12680381D02*
X2358810Y-12642286D01*
X2358810Y-12642286D02*
X2358810Y-12594667D01*
X2358810Y-12594667D02*
X2368333Y-12556571D01*
X2368333Y-12556571D02*
X2377857Y-12537524D01*
X2377857Y-12537524D02*
X2387381Y-12528000D01*
X2387381Y-12528000D02*
X2406429Y-12518476D01*
X2663572Y-12718476D02*
X2549286Y-12718476D01*
X2606429Y-12718476D02*
X2606429Y-12518476D01*
X2606429Y-12518476D02*
X2587381Y-12547048D01*
X2587381Y-12547048D02*
X2568333Y-12566095D01*
X2568333Y-12566095D02*
X2549286Y-12575619D01*
X2844524Y-12518476D02*
X2749286Y-12518476D01*
X2749286Y-12518476D02*
X2739762Y-12613714D01*
X2739762Y-12613714D02*
X2749286Y-12604190D01*
X2749286Y-12604190D02*
X2768333Y-12594667D01*
X2768333Y-12594667D02*
X2815952Y-12594667D01*
X2815952Y-12594667D02*
X2835000Y-12604190D01*
X2835000Y-12604190D02*
X2844524Y-12613714D01*
X2844524Y-12613714D02*
X2854048Y-12632762D01*
X2854048Y-12632762D02*
X2854048Y-12680381D01*
X2854048Y-12680381D02*
X2844524Y-12699428D01*
X2844524Y-12699428D02*
X2835000Y-12708952D01*
X2835000Y-12708952D02*
X2815952Y-12718476D01*
X2815952Y-12718476D02*
X2768333Y-12718476D01*
X2768333Y-12718476D02*
X2749286Y-12708952D01*
X2749286Y-12708952D02*
X2739762Y-12699428D01*
X2920714Y-12518476D02*
X3054048Y-12518476D01*
X3054048Y-12518476D02*
X2968333Y-12718476D01*
X3120714Y-12518476D02*
X3120714Y-12556571D01*
X3196905Y-12518476D02*
X3196905Y-12556571D01*
X3459762Y-12794667D02*
X3450238Y-12785143D01*
X3450238Y-12785143D02*
X3431191Y-12756571D01*
X3431191Y-12756571D02*
X3421667Y-12737524D01*
X3421667Y-12737524D02*
X3412143Y-12708952D01*
X3412143Y-12708952D02*
X3402619Y-12661333D01*
X3402619Y-12661333D02*
X3402619Y-12623238D01*
X3402619Y-12623238D02*
X3412143Y-12575619D01*
X3412143Y-12575619D02*
X3421667Y-12547048D01*
X3421667Y-12547048D02*
X3431191Y-12528000D01*
X3431191Y-12528000D02*
X3450238Y-12499428D01*
X3450238Y-12499428D02*
X3459762Y-12489905D01*
X3640714Y-12718476D02*
X3526429Y-12718476D01*
X3583571Y-12718476D02*
X3583571Y-12518476D01*
X3583571Y-12518476D02*
X3564524Y-12547048D01*
X3564524Y-12547048D02*
X3545476Y-12566095D01*
X3545476Y-12566095D02*
X3526429Y-12575619D01*
X3812143Y-12518476D02*
X3774048Y-12518476D01*
X3774048Y-12518476D02*
X3755000Y-12528000D01*
X3755000Y-12528000D02*
X3745476Y-12537524D01*
X3745476Y-12537524D02*
X3726429Y-12566095D01*
X3726429Y-12566095D02*
X3716905Y-12604190D01*
X3716905Y-12604190D02*
X3716905Y-12680381D01*
X3716905Y-12680381D02*
X3726429Y-12699428D01*
X3726429Y-12699428D02*
X3735952Y-12708952D01*
X3735952Y-12708952D02*
X3755000Y-12718476D01*
X3755000Y-12718476D02*
X3793095Y-12718476D01*
X3793095Y-12718476D02*
X3812143Y-12708952D01*
X3812143Y-12708952D02*
X3821667Y-12699428D01*
X3821667Y-12699428D02*
X3831191Y-12680381D01*
X3831191Y-12680381D02*
X3831191Y-12632762D01*
X3831191Y-12632762D02*
X3821667Y-12613714D01*
X3821667Y-12613714D02*
X3812143Y-12604190D01*
X3812143Y-12604190D02*
X3793095Y-12594667D01*
X3793095Y-12594667D02*
X3755000Y-12594667D01*
X3755000Y-12594667D02*
X3735952Y-12604190D01*
X3735952Y-12604190D02*
X3726429Y-12613714D01*
X3726429Y-12613714D02*
X3716905Y-12632762D01*
X3945476Y-12604190D02*
X3926429Y-12594667D01*
X3926429Y-12594667D02*
X3916905Y-12585143D01*
X3916905Y-12585143D02*
X3907381Y-12566095D01*
X3907381Y-12566095D02*
X3907381Y-12556571D01*
X3907381Y-12556571D02*
X3916905Y-12537524D01*
X3916905Y-12537524D02*
X3926429Y-12528000D01*
X3926429Y-12528000D02*
X3945476Y-12518476D01*
X3945476Y-12518476D02*
X3983572Y-12518476D01*
X3983572Y-12518476D02*
X4002619Y-12528000D01*
X4002619Y-12528000D02*
X4012143Y-12537524D01*
X4012143Y-12537524D02*
X4021667Y-12556571D01*
X4021667Y-12556571D02*
X4021667Y-12566095D01*
X4021667Y-12566095D02*
X4012143Y-12585143D01*
X4012143Y-12585143D02*
X4002619Y-12594667D01*
X4002619Y-12594667D02*
X3983572Y-12604190D01*
X3983572Y-12604190D02*
X3945476Y-12604190D01*
X3945476Y-12604190D02*
X3926429Y-12613714D01*
X3926429Y-12613714D02*
X3916905Y-12623238D01*
X3916905Y-12623238D02*
X3907381Y-12642286D01*
X3907381Y-12642286D02*
X3907381Y-12680381D01*
X3907381Y-12680381D02*
X3916905Y-12699428D01*
X3916905Y-12699428D02*
X3926429Y-12708952D01*
X3926429Y-12708952D02*
X3945476Y-12718476D01*
X3945476Y-12718476D02*
X3983572Y-12718476D01*
X3983572Y-12718476D02*
X4002619Y-12708952D01*
X4002619Y-12708952D02*
X4012143Y-12699428D01*
X4012143Y-12699428D02*
X4021667Y-12680381D01*
X4021667Y-12680381D02*
X4021667Y-12642286D01*
X4021667Y-12642286D02*
X4012143Y-12623238D01*
X4012143Y-12623238D02*
X4002619Y-12613714D01*
X4002619Y-12613714D02*
X3983572Y-12604190D01*
X4227381Y-12718476D02*
X4227381Y-12518476D01*
X4313095Y-12718476D02*
X4313095Y-12613714D01*
X4313095Y-12613714D02*
X4303572Y-12594667D01*
X4303572Y-12594667D02*
X4284524Y-12585143D01*
X4284524Y-12585143D02*
X4255953Y-12585143D01*
X4255953Y-12585143D02*
X4236905Y-12594667D01*
X4236905Y-12594667D02*
X4227381Y-12604190D01*
X4436905Y-12718476D02*
X4417857Y-12708952D01*
X4417857Y-12708952D02*
X4408334Y-12699428D01*
X4408334Y-12699428D02*
X4398810Y-12680381D01*
X4398810Y-12680381D02*
X4398810Y-12623238D01*
X4398810Y-12623238D02*
X4408334Y-12604190D01*
X4408334Y-12604190D02*
X4417857Y-12594667D01*
X4417857Y-12594667D02*
X4436905Y-12585143D01*
X4436905Y-12585143D02*
X4465476Y-12585143D01*
X4465476Y-12585143D02*
X4484524Y-12594667D01*
X4484524Y-12594667D02*
X4494048Y-12604190D01*
X4494048Y-12604190D02*
X4503572Y-12623238D01*
X4503572Y-12623238D02*
X4503572Y-12680381D01*
X4503572Y-12680381D02*
X4494048Y-12699428D01*
X4494048Y-12699428D02*
X4484524Y-12708952D01*
X4484524Y-12708952D02*
X4465476Y-12718476D01*
X4465476Y-12718476D02*
X4436905Y-12718476D01*
X4617857Y-12718476D02*
X4598810Y-12708952D01*
X4598810Y-12708952D02*
X4589286Y-12689905D01*
X4589286Y-12689905D02*
X4589286Y-12518476D01*
X4770238Y-12708952D02*
X4751191Y-12718476D01*
X4751191Y-12718476D02*
X4713095Y-12718476D01*
X4713095Y-12718476D02*
X4694048Y-12708952D01*
X4694048Y-12708952D02*
X4684524Y-12689905D01*
X4684524Y-12689905D02*
X4684524Y-12613714D01*
X4684524Y-12613714D02*
X4694048Y-12594667D01*
X4694048Y-12594667D02*
X4713095Y-12585143D01*
X4713095Y-12585143D02*
X4751191Y-12585143D01*
X4751191Y-12585143D02*
X4770238Y-12594667D01*
X4770238Y-12594667D02*
X4779762Y-12613714D01*
X4779762Y-12613714D02*
X4779762Y-12632762D01*
X4779762Y-12632762D02*
X4684524Y-12651809D01*
X4855953Y-12708952D02*
X4875000Y-12718476D01*
X4875000Y-12718476D02*
X4913095Y-12718476D01*
X4913095Y-12718476D02*
X4932143Y-12708952D01*
X4932143Y-12708952D02*
X4941667Y-12689905D01*
X4941667Y-12689905D02*
X4941667Y-12680381D01*
X4941667Y-12680381D02*
X4932143Y-12661333D01*
X4932143Y-12661333D02*
X4913095Y-12651809D01*
X4913095Y-12651809D02*
X4884524Y-12651809D01*
X4884524Y-12651809D02*
X4865476Y-12642286D01*
X4865476Y-12642286D02*
X4855953Y-12623238D01*
X4855953Y-12623238D02*
X4855953Y-12613714D01*
X4855953Y-12613714D02*
X4865476Y-12594667D01*
X4865476Y-12594667D02*
X4884524Y-12585143D01*
X4884524Y-12585143D02*
X4913095Y-12585143D01*
X4913095Y-12585143D02*
X4932143Y-12594667D01*
X5008334Y-12794667D02*
X5017857Y-12785143D01*
X5017857Y-12785143D02*
X5036905Y-12756571D01*
X5036905Y-12756571D02*
X5046429Y-12737524D01*
X5046429Y-12737524D02*
X5055953Y-12708952D01*
X5055953Y-12708952D02*
X5065476Y-12661333D01*
X5065476Y-12661333D02*
X5065476Y-12623238D01*
X5065476Y-12623238D02*
X5055953Y-12575619D01*
X5055953Y-12575619D02*
X5046429Y-12547048D01*
X5046429Y-12547048D02*
X5036905Y-12528000D01*
X5036905Y-12528000D02*
X5017857Y-12499428D01*
X5017857Y-12499428D02*
X5008334Y-12489905D01*
D13*
X-5000Y-12909000D02*
G75*
G03*
X-5000Y-12909000I-40000J0D01*
G01*
D11*
X280714Y-12782476D02*
X299762Y-12782476D01*
X299762Y-12782476D02*
X318810Y-12792000D01*
X318810Y-12792000D02*
X328333Y-12801524D01*
X328333Y-12801524D02*
X337857Y-12820571D01*
X337857Y-12820571D02*
X347381Y-12858667D01*
X347381Y-12858667D02*
X347381Y-12906286D01*
X347381Y-12906286D02*
X337857Y-12944381D01*
X337857Y-12944381D02*
X328333Y-12963428D01*
X328333Y-12963428D02*
X318810Y-12972952D01*
X318810Y-12972952D02*
X299762Y-12982476D01*
X299762Y-12982476D02*
X280714Y-12982476D01*
X280714Y-12982476D02*
X261667Y-12972952D01*
X261667Y-12972952D02*
X252143Y-12963428D01*
X252143Y-12963428D02*
X242619Y-12944381D01*
X242619Y-12944381D02*
X233095Y-12906286D01*
X233095Y-12906286D02*
X233095Y-12858667D01*
X233095Y-12858667D02*
X242619Y-12820571D01*
X242619Y-12820571D02*
X252143Y-12801524D01*
X252143Y-12801524D02*
X261667Y-12792000D01*
X261667Y-12792000D02*
X280714Y-12782476D01*
X433095Y-12963428D02*
X442619Y-12972952D01*
X442619Y-12972952D02*
X433095Y-12982476D01*
X433095Y-12982476D02*
X423571Y-12972952D01*
X423571Y-12972952D02*
X433095Y-12963428D01*
X433095Y-12963428D02*
X433095Y-12982476D01*
X556905Y-12868190D02*
X537857Y-12858667D01*
X537857Y-12858667D02*
X528333Y-12849143D01*
X528333Y-12849143D02*
X518809Y-12830095D01*
X518809Y-12830095D02*
X518809Y-12820571D01*
X518809Y-12820571D02*
X528333Y-12801524D01*
X528333Y-12801524D02*
X537857Y-12792000D01*
X537857Y-12792000D02*
X556905Y-12782476D01*
X556905Y-12782476D02*
X595000Y-12782476D01*
X595000Y-12782476D02*
X614048Y-12792000D01*
X614048Y-12792000D02*
X623571Y-12801524D01*
X623571Y-12801524D02*
X633095Y-12820571D01*
X633095Y-12820571D02*
X633095Y-12830095D01*
X633095Y-12830095D02*
X623571Y-12849143D01*
X623571Y-12849143D02*
X614048Y-12858667D01*
X614048Y-12858667D02*
X595000Y-12868190D01*
X595000Y-12868190D02*
X556905Y-12868190D01*
X556905Y-12868190D02*
X537857Y-12877714D01*
X537857Y-12877714D02*
X528333Y-12887238D01*
X528333Y-12887238D02*
X518809Y-12906286D01*
X518809Y-12906286D02*
X518809Y-12944381D01*
X518809Y-12944381D02*
X528333Y-12963428D01*
X528333Y-12963428D02*
X537857Y-12972952D01*
X537857Y-12972952D02*
X556905Y-12982476D01*
X556905Y-12982476D02*
X595000Y-12982476D01*
X595000Y-12982476D02*
X614048Y-12972952D01*
X614048Y-12972952D02*
X623571Y-12963428D01*
X623571Y-12963428D02*
X633095Y-12944381D01*
X633095Y-12944381D02*
X633095Y-12906286D01*
X633095Y-12906286D02*
X623571Y-12887238D01*
X623571Y-12887238D02*
X614048Y-12877714D01*
X614048Y-12877714D02*
X595000Y-12868190D01*
X756905Y-12782476D02*
X775952Y-12782476D01*
X775952Y-12782476D02*
X795000Y-12792000D01*
X795000Y-12792000D02*
X804524Y-12801524D01*
X804524Y-12801524D02*
X814048Y-12820571D01*
X814048Y-12820571D02*
X823571Y-12858667D01*
X823571Y-12858667D02*
X823571Y-12906286D01*
X823571Y-12906286D02*
X814048Y-12944381D01*
X814048Y-12944381D02*
X804524Y-12963428D01*
X804524Y-12963428D02*
X795000Y-12972952D01*
X795000Y-12972952D02*
X775952Y-12982476D01*
X775952Y-12982476D02*
X756905Y-12982476D01*
X756905Y-12982476D02*
X737857Y-12972952D01*
X737857Y-12972952D02*
X728333Y-12963428D01*
X728333Y-12963428D02*
X718809Y-12944381D01*
X718809Y-12944381D02*
X709286Y-12906286D01*
X709286Y-12906286D02*
X709286Y-12858667D01*
X709286Y-12858667D02*
X718809Y-12820571D01*
X718809Y-12820571D02*
X728333Y-12801524D01*
X728333Y-12801524D02*
X737857Y-12792000D01*
X737857Y-12792000D02*
X756905Y-12782476D01*
X947381Y-12782476D02*
X966429Y-12782476D01*
X966429Y-12782476D02*
X985476Y-12792000D01*
X985476Y-12792000D02*
X995000Y-12801524D01*
X995000Y-12801524D02*
X1004524Y-12820571D01*
X1004524Y-12820571D02*
X1014048Y-12858667D01*
X1014048Y-12858667D02*
X1014048Y-12906286D01*
X1014048Y-12906286D02*
X1004524Y-12944381D01*
X1004524Y-12944381D02*
X995000Y-12963428D01*
X995000Y-12963428D02*
X985476Y-12972952D01*
X985476Y-12972952D02*
X966429Y-12982476D01*
X966429Y-12982476D02*
X947381Y-12982476D01*
X947381Y-12982476D02*
X928333Y-12972952D01*
X928333Y-12972952D02*
X918809Y-12963428D01*
X918809Y-12963428D02*
X909286Y-12944381D01*
X909286Y-12944381D02*
X899762Y-12906286D01*
X899762Y-12906286D02*
X899762Y-12858667D01*
X899762Y-12858667D02*
X909286Y-12820571D01*
X909286Y-12820571D02*
X918809Y-12801524D01*
X918809Y-12801524D02*
X928333Y-12792000D01*
X928333Y-12792000D02*
X947381Y-12782476D01*
X1099762Y-12982476D02*
X1099762Y-12849143D01*
X1099762Y-12868190D02*
X1109286Y-12858667D01*
X1109286Y-12858667D02*
X1128333Y-12849143D01*
X1128333Y-12849143D02*
X1156905Y-12849143D01*
X1156905Y-12849143D02*
X1175952Y-12858667D01*
X1175952Y-12858667D02*
X1185476Y-12877714D01*
X1185476Y-12877714D02*
X1185476Y-12982476D01*
X1185476Y-12877714D02*
X1195000Y-12858667D01*
X1195000Y-12858667D02*
X1214048Y-12849143D01*
X1214048Y-12849143D02*
X1242619Y-12849143D01*
X1242619Y-12849143D02*
X1261667Y-12858667D01*
X1261667Y-12858667D02*
X1271191Y-12877714D01*
X1271191Y-12877714D02*
X1271191Y-12982476D01*
X1366429Y-12982476D02*
X1366429Y-12849143D01*
X1366429Y-12868190D02*
X1375952Y-12858667D01*
X1375952Y-12858667D02*
X1395000Y-12849143D01*
X1395000Y-12849143D02*
X1423571Y-12849143D01*
X1423571Y-12849143D02*
X1442619Y-12858667D01*
X1442619Y-12858667D02*
X1452143Y-12877714D01*
X1452143Y-12877714D02*
X1452143Y-12982476D01*
X1452143Y-12877714D02*
X1461667Y-12858667D01*
X1461667Y-12858667D02*
X1480714Y-12849143D01*
X1480714Y-12849143D02*
X1509286Y-12849143D01*
X1509286Y-12849143D02*
X1528333Y-12858667D01*
X1528333Y-12858667D02*
X1537857Y-12877714D01*
X1537857Y-12877714D02*
X1537857Y-12982476D01*
X1895952Y-12772952D02*
X1724524Y-13030095D01*
X2120714Y-12782476D02*
X2139762Y-12782476D01*
X2139762Y-12782476D02*
X2158810Y-12792000D01*
X2158810Y-12792000D02*
X2168333Y-12801524D01*
X2168333Y-12801524D02*
X2177857Y-12820571D01*
X2177857Y-12820571D02*
X2187381Y-12858667D01*
X2187381Y-12858667D02*
X2187381Y-12906286D01*
X2187381Y-12906286D02*
X2177857Y-12944381D01*
X2177857Y-12944381D02*
X2168333Y-12963428D01*
X2168333Y-12963428D02*
X2158810Y-12972952D01*
X2158810Y-12972952D02*
X2139762Y-12982476D01*
X2139762Y-12982476D02*
X2120714Y-12982476D01*
X2120714Y-12982476D02*
X2101667Y-12972952D01*
X2101667Y-12972952D02*
X2092143Y-12963428D01*
X2092143Y-12963428D02*
X2082619Y-12944381D01*
X2082619Y-12944381D02*
X2073095Y-12906286D01*
X2073095Y-12906286D02*
X2073095Y-12858667D01*
X2073095Y-12858667D02*
X2082619Y-12820571D01*
X2082619Y-12820571D02*
X2092143Y-12801524D01*
X2092143Y-12801524D02*
X2101667Y-12792000D01*
X2101667Y-12792000D02*
X2120714Y-12782476D01*
X2273095Y-12963428D02*
X2282619Y-12972952D01*
X2282619Y-12972952D02*
X2273095Y-12982476D01*
X2273095Y-12982476D02*
X2263572Y-12972952D01*
X2263572Y-12972952D02*
X2273095Y-12963428D01*
X2273095Y-12963428D02*
X2273095Y-12982476D01*
X2406429Y-12782476D02*
X2425476Y-12782476D01*
X2425476Y-12782476D02*
X2444524Y-12792000D01*
X2444524Y-12792000D02*
X2454048Y-12801524D01*
X2454048Y-12801524D02*
X2463572Y-12820571D01*
X2463572Y-12820571D02*
X2473095Y-12858667D01*
X2473095Y-12858667D02*
X2473095Y-12906286D01*
X2473095Y-12906286D02*
X2463572Y-12944381D01*
X2463572Y-12944381D02*
X2454048Y-12963428D01*
X2454048Y-12963428D02*
X2444524Y-12972952D01*
X2444524Y-12972952D02*
X2425476Y-12982476D01*
X2425476Y-12982476D02*
X2406429Y-12982476D01*
X2406429Y-12982476D02*
X2387381Y-12972952D01*
X2387381Y-12972952D02*
X2377857Y-12963428D01*
X2377857Y-12963428D02*
X2368333Y-12944381D01*
X2368333Y-12944381D02*
X2358810Y-12906286D01*
X2358810Y-12906286D02*
X2358810Y-12858667D01*
X2358810Y-12858667D02*
X2368333Y-12820571D01*
X2368333Y-12820571D02*
X2377857Y-12801524D01*
X2377857Y-12801524D02*
X2387381Y-12792000D01*
X2387381Y-12792000D02*
X2406429Y-12782476D01*
X2539762Y-12782476D02*
X2663572Y-12782476D01*
X2663572Y-12782476D02*
X2596905Y-12858667D01*
X2596905Y-12858667D02*
X2625476Y-12858667D01*
X2625476Y-12858667D02*
X2644524Y-12868190D01*
X2644524Y-12868190D02*
X2654048Y-12877714D01*
X2654048Y-12877714D02*
X2663572Y-12896762D01*
X2663572Y-12896762D02*
X2663572Y-12944381D01*
X2663572Y-12944381D02*
X2654048Y-12963428D01*
X2654048Y-12963428D02*
X2644524Y-12972952D01*
X2644524Y-12972952D02*
X2625476Y-12982476D01*
X2625476Y-12982476D02*
X2568333Y-12982476D01*
X2568333Y-12982476D02*
X2549286Y-12972952D01*
X2549286Y-12972952D02*
X2539762Y-12963428D01*
X2854048Y-12982476D02*
X2739762Y-12982476D01*
X2796905Y-12982476D02*
X2796905Y-12782476D01*
X2796905Y-12782476D02*
X2777857Y-12811048D01*
X2777857Y-12811048D02*
X2758810Y-12830095D01*
X2758810Y-12830095D02*
X2739762Y-12839619D01*
X3035000Y-12782476D02*
X2939762Y-12782476D01*
X2939762Y-12782476D02*
X2930238Y-12877714D01*
X2930238Y-12877714D02*
X2939762Y-12868190D01*
X2939762Y-12868190D02*
X2958810Y-12858667D01*
X2958810Y-12858667D02*
X3006429Y-12858667D01*
X3006429Y-12858667D02*
X3025476Y-12868190D01*
X3025476Y-12868190D02*
X3035000Y-12877714D01*
X3035000Y-12877714D02*
X3044524Y-12896762D01*
X3044524Y-12896762D02*
X3044524Y-12944381D01*
X3044524Y-12944381D02*
X3035000Y-12963428D01*
X3035000Y-12963428D02*
X3025476Y-12972952D01*
X3025476Y-12972952D02*
X3006429Y-12982476D01*
X3006429Y-12982476D02*
X2958810Y-12982476D01*
X2958810Y-12982476D02*
X2939762Y-12972952D01*
X2939762Y-12972952D02*
X2930238Y-12963428D01*
X3120714Y-12782476D02*
X3120714Y-12820571D01*
X3196905Y-12782476D02*
X3196905Y-12820571D01*
X3459762Y-13058667D02*
X3450238Y-13049143D01*
X3450238Y-13049143D02*
X3431191Y-13020571D01*
X3431191Y-13020571D02*
X3421667Y-13001524D01*
X3421667Y-13001524D02*
X3412143Y-12972952D01*
X3412143Y-12972952D02*
X3402619Y-12925333D01*
X3402619Y-12925333D02*
X3402619Y-12887238D01*
X3402619Y-12887238D02*
X3412143Y-12839619D01*
X3412143Y-12839619D02*
X3421667Y-12811048D01*
X3421667Y-12811048D02*
X3431191Y-12792000D01*
X3431191Y-12792000D02*
X3450238Y-12763428D01*
X3450238Y-12763428D02*
X3459762Y-12753905D01*
X3621667Y-12782476D02*
X3583571Y-12782476D01*
X3583571Y-12782476D02*
X3564524Y-12792000D01*
X3564524Y-12792000D02*
X3555000Y-12801524D01*
X3555000Y-12801524D02*
X3535952Y-12830095D01*
X3535952Y-12830095D02*
X3526429Y-12868190D01*
X3526429Y-12868190D02*
X3526429Y-12944381D01*
X3526429Y-12944381D02*
X3535952Y-12963428D01*
X3535952Y-12963428D02*
X3545476Y-12972952D01*
X3545476Y-12972952D02*
X3564524Y-12982476D01*
X3564524Y-12982476D02*
X3602619Y-12982476D01*
X3602619Y-12982476D02*
X3621667Y-12972952D01*
X3621667Y-12972952D02*
X3631191Y-12963428D01*
X3631191Y-12963428D02*
X3640714Y-12944381D01*
X3640714Y-12944381D02*
X3640714Y-12896762D01*
X3640714Y-12896762D02*
X3631191Y-12877714D01*
X3631191Y-12877714D02*
X3621667Y-12868190D01*
X3621667Y-12868190D02*
X3602619Y-12858667D01*
X3602619Y-12858667D02*
X3564524Y-12858667D01*
X3564524Y-12858667D02*
X3545476Y-12868190D01*
X3545476Y-12868190D02*
X3535952Y-12877714D01*
X3535952Y-12877714D02*
X3526429Y-12896762D01*
X3812143Y-12782476D02*
X3774048Y-12782476D01*
X3774048Y-12782476D02*
X3755000Y-12792000D01*
X3755000Y-12792000D02*
X3745476Y-12801524D01*
X3745476Y-12801524D02*
X3726429Y-12830095D01*
X3726429Y-12830095D02*
X3716905Y-12868190D01*
X3716905Y-12868190D02*
X3716905Y-12944381D01*
X3716905Y-12944381D02*
X3726429Y-12963428D01*
X3726429Y-12963428D02*
X3735952Y-12972952D01*
X3735952Y-12972952D02*
X3755000Y-12982476D01*
X3755000Y-12982476D02*
X3793095Y-12982476D01*
X3793095Y-12982476D02*
X3812143Y-12972952D01*
X3812143Y-12972952D02*
X3821667Y-12963428D01*
X3821667Y-12963428D02*
X3831191Y-12944381D01*
X3831191Y-12944381D02*
X3831191Y-12896762D01*
X3831191Y-12896762D02*
X3821667Y-12877714D01*
X3821667Y-12877714D02*
X3812143Y-12868190D01*
X3812143Y-12868190D02*
X3793095Y-12858667D01*
X3793095Y-12858667D02*
X3755000Y-12858667D01*
X3755000Y-12858667D02*
X3735952Y-12868190D01*
X3735952Y-12868190D02*
X3726429Y-12877714D01*
X3726429Y-12877714D02*
X3716905Y-12896762D01*
X4036905Y-12982476D02*
X4036905Y-12782476D01*
X4122619Y-12982476D02*
X4122619Y-12877714D01*
X4122619Y-12877714D02*
X4113095Y-12858667D01*
X4113095Y-12858667D02*
X4094048Y-12849143D01*
X4094048Y-12849143D02*
X4065476Y-12849143D01*
X4065476Y-12849143D02*
X4046429Y-12858667D01*
X4046429Y-12858667D02*
X4036905Y-12868190D01*
X4246429Y-12982476D02*
X4227381Y-12972952D01*
X4227381Y-12972952D02*
X4217857Y-12963428D01*
X4217857Y-12963428D02*
X4208334Y-12944381D01*
X4208334Y-12944381D02*
X4208334Y-12887238D01*
X4208334Y-12887238D02*
X4217857Y-12868190D01*
X4217857Y-12868190D02*
X4227381Y-12858667D01*
X4227381Y-12858667D02*
X4246429Y-12849143D01*
X4246429Y-12849143D02*
X4275000Y-12849143D01*
X4275000Y-12849143D02*
X4294048Y-12858667D01*
X4294048Y-12858667D02*
X4303572Y-12868190D01*
X4303572Y-12868190D02*
X4313095Y-12887238D01*
X4313095Y-12887238D02*
X4313095Y-12944381D01*
X4313095Y-12944381D02*
X4303572Y-12963428D01*
X4303572Y-12963428D02*
X4294048Y-12972952D01*
X4294048Y-12972952D02*
X4275000Y-12982476D01*
X4275000Y-12982476D02*
X4246429Y-12982476D01*
X4427381Y-12982476D02*
X4408334Y-12972952D01*
X4408334Y-12972952D02*
X4398810Y-12953905D01*
X4398810Y-12953905D02*
X4398810Y-12782476D01*
X4579762Y-12972952D02*
X4560715Y-12982476D01*
X4560715Y-12982476D02*
X4522619Y-12982476D01*
X4522619Y-12982476D02*
X4503572Y-12972952D01*
X4503572Y-12972952D02*
X4494048Y-12953905D01*
X4494048Y-12953905D02*
X4494048Y-12877714D01*
X4494048Y-12877714D02*
X4503572Y-12858667D01*
X4503572Y-12858667D02*
X4522619Y-12849143D01*
X4522619Y-12849143D02*
X4560715Y-12849143D01*
X4560715Y-12849143D02*
X4579762Y-12858667D01*
X4579762Y-12858667D02*
X4589286Y-12877714D01*
X4589286Y-12877714D02*
X4589286Y-12896762D01*
X4589286Y-12896762D02*
X4494048Y-12915809D01*
X4665476Y-12972952D02*
X4684524Y-12982476D01*
X4684524Y-12982476D02*
X4722619Y-12982476D01*
X4722619Y-12982476D02*
X4741667Y-12972952D01*
X4741667Y-12972952D02*
X4751191Y-12953905D01*
X4751191Y-12953905D02*
X4751191Y-12944381D01*
X4751191Y-12944381D02*
X4741667Y-12925333D01*
X4741667Y-12925333D02*
X4722619Y-12915809D01*
X4722619Y-12915809D02*
X4694048Y-12915809D01*
X4694048Y-12915809D02*
X4675000Y-12906286D01*
X4675000Y-12906286D02*
X4665476Y-12887238D01*
X4665476Y-12887238D02*
X4665476Y-12877714D01*
X4665476Y-12877714D02*
X4675000Y-12858667D01*
X4675000Y-12858667D02*
X4694048Y-12849143D01*
X4694048Y-12849143D02*
X4722619Y-12849143D01*
X4722619Y-12849143D02*
X4741667Y-12858667D01*
X4817857Y-13058667D02*
X4827381Y-13049143D01*
X4827381Y-13049143D02*
X4846429Y-13020571D01*
X4846429Y-13020571D02*
X4855953Y-13001524D01*
X4855953Y-13001524D02*
X4865476Y-12972952D01*
X4865476Y-12972952D02*
X4875000Y-12925333D01*
X4875000Y-12925333D02*
X4875000Y-12887238D01*
X4875000Y-12887238D02*
X4865476Y-12839619D01*
X4865476Y-12839619D02*
X4855953Y-12811048D01*
X4855953Y-12811048D02*
X4846429Y-12792000D01*
X4846429Y-12792000D02*
X4827381Y-12763428D01*
X4827381Y-12763428D02*
X4817857Y-12753905D01*
D14*
X-50000Y-13128000D02*
X-50000Y-13218000D01*
X-95000Y-13173000D02*
X-5000Y-13173000D01*
D11*
X280714Y-13046476D02*
X299762Y-13046476D01*
X299762Y-13046476D02*
X318810Y-13056000D01*
X318810Y-13056000D02*
X328333Y-13065524D01*
X328333Y-13065524D02*
X337857Y-13084571D01*
X337857Y-13084571D02*
X347381Y-13122667D01*
X347381Y-13122667D02*
X347381Y-13170286D01*
X347381Y-13170286D02*
X337857Y-13208381D01*
X337857Y-13208381D02*
X328333Y-13227428D01*
X328333Y-13227428D02*
X318810Y-13236952D01*
X318810Y-13236952D02*
X299762Y-13246476D01*
X299762Y-13246476D02*
X280714Y-13246476D01*
X280714Y-13246476D02*
X261667Y-13236952D01*
X261667Y-13236952D02*
X252143Y-13227428D01*
X252143Y-13227428D02*
X242619Y-13208381D01*
X242619Y-13208381D02*
X233095Y-13170286D01*
X233095Y-13170286D02*
X233095Y-13122667D01*
X233095Y-13122667D02*
X242619Y-13084571D01*
X242619Y-13084571D02*
X252143Y-13065524D01*
X252143Y-13065524D02*
X261667Y-13056000D01*
X261667Y-13056000D02*
X280714Y-13046476D01*
X433095Y-13227428D02*
X442619Y-13236952D01*
X442619Y-13236952D02*
X433095Y-13246476D01*
X433095Y-13246476D02*
X423571Y-13236952D01*
X423571Y-13236952D02*
X433095Y-13227428D01*
X433095Y-13227428D02*
X433095Y-13246476D01*
X537857Y-13246476D02*
X575952Y-13246476D01*
X575952Y-13246476D02*
X595000Y-13236952D01*
X595000Y-13236952D02*
X604524Y-13227428D01*
X604524Y-13227428D02*
X623571Y-13198857D01*
X623571Y-13198857D02*
X633095Y-13160762D01*
X633095Y-13160762D02*
X633095Y-13084571D01*
X633095Y-13084571D02*
X623571Y-13065524D01*
X623571Y-13065524D02*
X614048Y-13056000D01*
X614048Y-13056000D02*
X595000Y-13046476D01*
X595000Y-13046476D02*
X556905Y-13046476D01*
X556905Y-13046476D02*
X537857Y-13056000D01*
X537857Y-13056000D02*
X528333Y-13065524D01*
X528333Y-13065524D02*
X518809Y-13084571D01*
X518809Y-13084571D02*
X518809Y-13132190D01*
X518809Y-13132190D02*
X528333Y-13151238D01*
X528333Y-13151238D02*
X537857Y-13160762D01*
X537857Y-13160762D02*
X556905Y-13170286D01*
X556905Y-13170286D02*
X595000Y-13170286D01*
X595000Y-13170286D02*
X614048Y-13160762D01*
X614048Y-13160762D02*
X623571Y-13151238D01*
X623571Y-13151238D02*
X633095Y-13132190D01*
X756905Y-13046476D02*
X775952Y-13046476D01*
X775952Y-13046476D02*
X795000Y-13056000D01*
X795000Y-13056000D02*
X804524Y-13065524D01*
X804524Y-13065524D02*
X814048Y-13084571D01*
X814048Y-13084571D02*
X823571Y-13122667D01*
X823571Y-13122667D02*
X823571Y-13170286D01*
X823571Y-13170286D02*
X814048Y-13208381D01*
X814048Y-13208381D02*
X804524Y-13227428D01*
X804524Y-13227428D02*
X795000Y-13236952D01*
X795000Y-13236952D02*
X775952Y-13246476D01*
X775952Y-13246476D02*
X756905Y-13246476D01*
X756905Y-13246476D02*
X737857Y-13236952D01*
X737857Y-13236952D02*
X728333Y-13227428D01*
X728333Y-13227428D02*
X718809Y-13208381D01*
X718809Y-13208381D02*
X709286Y-13170286D01*
X709286Y-13170286D02*
X709286Y-13122667D01*
X709286Y-13122667D02*
X718809Y-13084571D01*
X718809Y-13084571D02*
X728333Y-13065524D01*
X728333Y-13065524D02*
X737857Y-13056000D01*
X737857Y-13056000D02*
X756905Y-13046476D01*
X947381Y-13046476D02*
X966429Y-13046476D01*
X966429Y-13046476D02*
X985476Y-13056000D01*
X985476Y-13056000D02*
X995000Y-13065524D01*
X995000Y-13065524D02*
X1004524Y-13084571D01*
X1004524Y-13084571D02*
X1014048Y-13122667D01*
X1014048Y-13122667D02*
X1014048Y-13170286D01*
X1014048Y-13170286D02*
X1004524Y-13208381D01*
X1004524Y-13208381D02*
X995000Y-13227428D01*
X995000Y-13227428D02*
X985476Y-13236952D01*
X985476Y-13236952D02*
X966429Y-13246476D01*
X966429Y-13246476D02*
X947381Y-13246476D01*
X947381Y-13246476D02*
X928333Y-13236952D01*
X928333Y-13236952D02*
X918809Y-13227428D01*
X918809Y-13227428D02*
X909286Y-13208381D01*
X909286Y-13208381D02*
X899762Y-13170286D01*
X899762Y-13170286D02*
X899762Y-13122667D01*
X899762Y-13122667D02*
X909286Y-13084571D01*
X909286Y-13084571D02*
X918809Y-13065524D01*
X918809Y-13065524D02*
X928333Y-13056000D01*
X928333Y-13056000D02*
X947381Y-13046476D01*
X1099762Y-13246476D02*
X1099762Y-13113143D01*
X1099762Y-13132190D02*
X1109286Y-13122667D01*
X1109286Y-13122667D02*
X1128333Y-13113143D01*
X1128333Y-13113143D02*
X1156905Y-13113143D01*
X1156905Y-13113143D02*
X1175952Y-13122667D01*
X1175952Y-13122667D02*
X1185476Y-13141714D01*
X1185476Y-13141714D02*
X1185476Y-13246476D01*
X1185476Y-13141714D02*
X1195000Y-13122667D01*
X1195000Y-13122667D02*
X1214048Y-13113143D01*
X1214048Y-13113143D02*
X1242619Y-13113143D01*
X1242619Y-13113143D02*
X1261667Y-13122667D01*
X1261667Y-13122667D02*
X1271191Y-13141714D01*
X1271191Y-13141714D02*
X1271191Y-13246476D01*
X1366429Y-13246476D02*
X1366429Y-13113143D01*
X1366429Y-13132190D02*
X1375952Y-13122667D01*
X1375952Y-13122667D02*
X1395000Y-13113143D01*
X1395000Y-13113143D02*
X1423571Y-13113143D01*
X1423571Y-13113143D02*
X1442619Y-13122667D01*
X1442619Y-13122667D02*
X1452143Y-13141714D01*
X1452143Y-13141714D02*
X1452143Y-13246476D01*
X1452143Y-13141714D02*
X1461667Y-13122667D01*
X1461667Y-13122667D02*
X1480714Y-13113143D01*
X1480714Y-13113143D02*
X1509286Y-13113143D01*
X1509286Y-13113143D02*
X1528333Y-13122667D01*
X1528333Y-13122667D02*
X1537857Y-13141714D01*
X1537857Y-13141714D02*
X1537857Y-13246476D01*
X1895952Y-13036952D02*
X1724524Y-13294095D01*
X2120714Y-13046476D02*
X2139762Y-13046476D01*
X2139762Y-13046476D02*
X2158810Y-13056000D01*
X2158810Y-13056000D02*
X2168333Y-13065524D01*
X2168333Y-13065524D02*
X2177857Y-13084571D01*
X2177857Y-13084571D02*
X2187381Y-13122667D01*
X2187381Y-13122667D02*
X2187381Y-13170286D01*
X2187381Y-13170286D02*
X2177857Y-13208381D01*
X2177857Y-13208381D02*
X2168333Y-13227428D01*
X2168333Y-13227428D02*
X2158810Y-13236952D01*
X2158810Y-13236952D02*
X2139762Y-13246476D01*
X2139762Y-13246476D02*
X2120714Y-13246476D01*
X2120714Y-13246476D02*
X2101667Y-13236952D01*
X2101667Y-13236952D02*
X2092143Y-13227428D01*
X2092143Y-13227428D02*
X2082619Y-13208381D01*
X2082619Y-13208381D02*
X2073095Y-13170286D01*
X2073095Y-13170286D02*
X2073095Y-13122667D01*
X2073095Y-13122667D02*
X2082619Y-13084571D01*
X2082619Y-13084571D02*
X2092143Y-13065524D01*
X2092143Y-13065524D02*
X2101667Y-13056000D01*
X2101667Y-13056000D02*
X2120714Y-13046476D01*
X2273095Y-13227428D02*
X2282619Y-13236952D01*
X2282619Y-13236952D02*
X2273095Y-13246476D01*
X2273095Y-13246476D02*
X2263572Y-13236952D01*
X2263572Y-13236952D02*
X2273095Y-13227428D01*
X2273095Y-13227428D02*
X2273095Y-13246476D01*
X2406429Y-13046476D02*
X2425476Y-13046476D01*
X2425476Y-13046476D02*
X2444524Y-13056000D01*
X2444524Y-13056000D02*
X2454048Y-13065524D01*
X2454048Y-13065524D02*
X2463572Y-13084571D01*
X2463572Y-13084571D02*
X2473095Y-13122667D01*
X2473095Y-13122667D02*
X2473095Y-13170286D01*
X2473095Y-13170286D02*
X2463572Y-13208381D01*
X2463572Y-13208381D02*
X2454048Y-13227428D01*
X2454048Y-13227428D02*
X2444524Y-13236952D01*
X2444524Y-13236952D02*
X2425476Y-13246476D01*
X2425476Y-13246476D02*
X2406429Y-13246476D01*
X2406429Y-13246476D02*
X2387381Y-13236952D01*
X2387381Y-13236952D02*
X2377857Y-13227428D01*
X2377857Y-13227428D02*
X2368333Y-13208381D01*
X2368333Y-13208381D02*
X2358810Y-13170286D01*
X2358810Y-13170286D02*
X2358810Y-13122667D01*
X2358810Y-13122667D02*
X2368333Y-13084571D01*
X2368333Y-13084571D02*
X2377857Y-13065524D01*
X2377857Y-13065524D02*
X2387381Y-13056000D01*
X2387381Y-13056000D02*
X2406429Y-13046476D01*
X2539762Y-13046476D02*
X2663572Y-13046476D01*
X2663572Y-13046476D02*
X2596905Y-13122667D01*
X2596905Y-13122667D02*
X2625476Y-13122667D01*
X2625476Y-13122667D02*
X2644524Y-13132190D01*
X2644524Y-13132190D02*
X2654048Y-13141714D01*
X2654048Y-13141714D02*
X2663572Y-13160762D01*
X2663572Y-13160762D02*
X2663572Y-13208381D01*
X2663572Y-13208381D02*
X2654048Y-13227428D01*
X2654048Y-13227428D02*
X2644524Y-13236952D01*
X2644524Y-13236952D02*
X2625476Y-13246476D01*
X2625476Y-13246476D02*
X2568333Y-13246476D01*
X2568333Y-13246476D02*
X2549286Y-13236952D01*
X2549286Y-13236952D02*
X2539762Y-13227428D01*
X2844524Y-13046476D02*
X2749286Y-13046476D01*
X2749286Y-13046476D02*
X2739762Y-13141714D01*
X2739762Y-13141714D02*
X2749286Y-13132190D01*
X2749286Y-13132190D02*
X2768333Y-13122667D01*
X2768333Y-13122667D02*
X2815952Y-13122667D01*
X2815952Y-13122667D02*
X2835000Y-13132190D01*
X2835000Y-13132190D02*
X2844524Y-13141714D01*
X2844524Y-13141714D02*
X2854048Y-13160762D01*
X2854048Y-13160762D02*
X2854048Y-13208381D01*
X2854048Y-13208381D02*
X2844524Y-13227428D01*
X2844524Y-13227428D02*
X2835000Y-13236952D01*
X2835000Y-13236952D02*
X2815952Y-13246476D01*
X2815952Y-13246476D02*
X2768333Y-13246476D01*
X2768333Y-13246476D02*
X2749286Y-13236952D01*
X2749286Y-13236952D02*
X2739762Y-13227428D01*
X3025476Y-13113143D02*
X3025476Y-13246476D01*
X2977857Y-13036952D02*
X2930238Y-13179809D01*
X2930238Y-13179809D02*
X3054048Y-13179809D01*
X3120714Y-13046476D02*
X3120714Y-13084571D01*
X3196905Y-13046476D02*
X3196905Y-13084571D01*
X3459762Y-13322667D02*
X3450238Y-13313143D01*
X3450238Y-13313143D02*
X3431191Y-13284571D01*
X3431191Y-13284571D02*
X3421667Y-13265524D01*
X3421667Y-13265524D02*
X3412143Y-13236952D01*
X3412143Y-13236952D02*
X3402619Y-13189333D01*
X3402619Y-13189333D02*
X3402619Y-13151238D01*
X3402619Y-13151238D02*
X3412143Y-13103619D01*
X3412143Y-13103619D02*
X3421667Y-13075048D01*
X3421667Y-13075048D02*
X3431191Y-13056000D01*
X3431191Y-13056000D02*
X3450238Y-13027428D01*
X3450238Y-13027428D02*
X3459762Y-13017905D01*
X3526429Y-13065524D02*
X3535952Y-13056000D01*
X3535952Y-13056000D02*
X3555000Y-13046476D01*
X3555000Y-13046476D02*
X3602619Y-13046476D01*
X3602619Y-13046476D02*
X3621667Y-13056000D01*
X3621667Y-13056000D02*
X3631191Y-13065524D01*
X3631191Y-13065524D02*
X3640714Y-13084571D01*
X3640714Y-13084571D02*
X3640714Y-13103619D01*
X3640714Y-13103619D02*
X3631191Y-13132190D01*
X3631191Y-13132190D02*
X3516905Y-13246476D01*
X3516905Y-13246476D02*
X3640714Y-13246476D01*
X3846429Y-13246476D02*
X3846429Y-13046476D01*
X3932143Y-13246476D02*
X3932143Y-13141714D01*
X3932143Y-13141714D02*
X3922619Y-13122667D01*
X3922619Y-13122667D02*
X3903572Y-13113143D01*
X3903572Y-13113143D02*
X3875000Y-13113143D01*
X3875000Y-13113143D02*
X3855952Y-13122667D01*
X3855952Y-13122667D02*
X3846429Y-13132190D01*
X4055952Y-13246476D02*
X4036905Y-13236952D01*
X4036905Y-13236952D02*
X4027381Y-13227428D01*
X4027381Y-13227428D02*
X4017857Y-13208381D01*
X4017857Y-13208381D02*
X4017857Y-13151238D01*
X4017857Y-13151238D02*
X4027381Y-13132190D01*
X4027381Y-13132190D02*
X4036905Y-13122667D01*
X4036905Y-13122667D02*
X4055952Y-13113143D01*
X4055952Y-13113143D02*
X4084524Y-13113143D01*
X4084524Y-13113143D02*
X4103572Y-13122667D01*
X4103572Y-13122667D02*
X4113095Y-13132190D01*
X4113095Y-13132190D02*
X4122619Y-13151238D01*
X4122619Y-13151238D02*
X4122619Y-13208381D01*
X4122619Y-13208381D02*
X4113095Y-13227428D01*
X4113095Y-13227428D02*
X4103572Y-13236952D01*
X4103572Y-13236952D02*
X4084524Y-13246476D01*
X4084524Y-13246476D02*
X4055952Y-13246476D01*
X4236905Y-13246476D02*
X4217857Y-13236952D01*
X4217857Y-13236952D02*
X4208334Y-13217905D01*
X4208334Y-13217905D02*
X4208334Y-13046476D01*
X4389286Y-13236952D02*
X4370238Y-13246476D01*
X4370238Y-13246476D02*
X4332143Y-13246476D01*
X4332143Y-13246476D02*
X4313095Y-13236952D01*
X4313095Y-13236952D02*
X4303572Y-13217905D01*
X4303572Y-13217905D02*
X4303572Y-13141714D01*
X4303572Y-13141714D02*
X4313095Y-13122667D01*
X4313095Y-13122667D02*
X4332143Y-13113143D01*
X4332143Y-13113143D02*
X4370238Y-13113143D01*
X4370238Y-13113143D02*
X4389286Y-13122667D01*
X4389286Y-13122667D02*
X4398810Y-13141714D01*
X4398810Y-13141714D02*
X4398810Y-13160762D01*
X4398810Y-13160762D02*
X4303572Y-13179809D01*
X4475000Y-13236952D02*
X4494048Y-13246476D01*
X4494048Y-13246476D02*
X4532143Y-13246476D01*
X4532143Y-13246476D02*
X4551191Y-13236952D01*
X4551191Y-13236952D02*
X4560715Y-13217905D01*
X4560715Y-13217905D02*
X4560715Y-13208381D01*
X4560715Y-13208381D02*
X4551191Y-13189333D01*
X4551191Y-13189333D02*
X4532143Y-13179809D01*
X4532143Y-13179809D02*
X4503572Y-13179809D01*
X4503572Y-13179809D02*
X4484524Y-13170286D01*
X4484524Y-13170286D02*
X4475000Y-13151238D01*
X4475000Y-13151238D02*
X4475000Y-13141714D01*
X4475000Y-13141714D02*
X4484524Y-13122667D01*
X4484524Y-13122667D02*
X4503572Y-13113143D01*
X4503572Y-13113143D02*
X4532143Y-13113143D01*
X4532143Y-13113143D02*
X4551191Y-13122667D01*
X4627381Y-13322667D02*
X4636905Y-13313143D01*
X4636905Y-13313143D02*
X4655953Y-13284571D01*
X4655953Y-13284571D02*
X4665476Y-13265524D01*
X4665476Y-13265524D02*
X4675000Y-13236952D01*
X4675000Y-13236952D02*
X4684524Y-13189333D01*
X4684524Y-13189333D02*
X4684524Y-13151238D01*
X4684524Y-13151238D02*
X4675000Y-13103619D01*
X4675000Y-13103619D02*
X4665476Y-13075048D01*
X4665476Y-13075048D02*
X4655953Y-13056000D01*
X4655953Y-13056000D02*
X4636905Y-13027428D01*
X4636905Y-13027428D02*
X4627381Y-13017905D01*
D15*
X-18912Y-13470588D02*
X-18912Y-13403412D01*
X-86088Y-13403412D01*
X-86088Y-13470588D01*
X-18912Y-13470588D01*
D11*
X280714Y-13310476D02*
X299762Y-13310476D01*
X299762Y-13310476D02*
X318810Y-13320000D01*
X318810Y-13320000D02*
X328333Y-13329524D01*
X328333Y-13329524D02*
X337857Y-13348571D01*
X337857Y-13348571D02*
X347381Y-13386667D01*
X347381Y-13386667D02*
X347381Y-13434286D01*
X347381Y-13434286D02*
X337857Y-13472381D01*
X337857Y-13472381D02*
X328333Y-13491428D01*
X328333Y-13491428D02*
X318810Y-13500952D01*
X318810Y-13500952D02*
X299762Y-13510476D01*
X299762Y-13510476D02*
X280714Y-13510476D01*
X280714Y-13510476D02*
X261667Y-13500952D01*
X261667Y-13500952D02*
X252143Y-13491428D01*
X252143Y-13491428D02*
X242619Y-13472381D01*
X242619Y-13472381D02*
X233095Y-13434286D01*
X233095Y-13434286D02*
X233095Y-13386667D01*
X233095Y-13386667D02*
X242619Y-13348571D01*
X242619Y-13348571D02*
X252143Y-13329524D01*
X252143Y-13329524D02*
X261667Y-13320000D01*
X261667Y-13320000D02*
X280714Y-13310476D01*
X433095Y-13491428D02*
X442619Y-13500952D01*
X442619Y-13500952D02*
X433095Y-13510476D01*
X433095Y-13510476D02*
X423571Y-13500952D01*
X423571Y-13500952D02*
X433095Y-13491428D01*
X433095Y-13491428D02*
X433095Y-13510476D01*
X537857Y-13510476D02*
X575952Y-13510476D01*
X575952Y-13510476D02*
X595000Y-13500952D01*
X595000Y-13500952D02*
X604524Y-13491428D01*
X604524Y-13491428D02*
X623571Y-13462857D01*
X623571Y-13462857D02*
X633095Y-13424762D01*
X633095Y-13424762D02*
X633095Y-13348571D01*
X633095Y-13348571D02*
X623571Y-13329524D01*
X623571Y-13329524D02*
X614048Y-13320000D01*
X614048Y-13320000D02*
X595000Y-13310476D01*
X595000Y-13310476D02*
X556905Y-13310476D01*
X556905Y-13310476D02*
X537857Y-13320000D01*
X537857Y-13320000D02*
X528333Y-13329524D01*
X528333Y-13329524D02*
X518809Y-13348571D01*
X518809Y-13348571D02*
X518809Y-13396190D01*
X518809Y-13396190D02*
X528333Y-13415238D01*
X528333Y-13415238D02*
X537857Y-13424762D01*
X537857Y-13424762D02*
X556905Y-13434286D01*
X556905Y-13434286D02*
X595000Y-13434286D01*
X595000Y-13434286D02*
X614048Y-13424762D01*
X614048Y-13424762D02*
X623571Y-13415238D01*
X623571Y-13415238D02*
X633095Y-13396190D01*
X814048Y-13310476D02*
X718809Y-13310476D01*
X718809Y-13310476D02*
X709286Y-13405714D01*
X709286Y-13405714D02*
X718809Y-13396190D01*
X718809Y-13396190D02*
X737857Y-13386667D01*
X737857Y-13386667D02*
X785476Y-13386667D01*
X785476Y-13386667D02*
X804524Y-13396190D01*
X804524Y-13396190D02*
X814048Y-13405714D01*
X814048Y-13405714D02*
X823571Y-13424762D01*
X823571Y-13424762D02*
X823571Y-13472381D01*
X823571Y-13472381D02*
X814048Y-13491428D01*
X814048Y-13491428D02*
X804524Y-13500952D01*
X804524Y-13500952D02*
X785476Y-13510476D01*
X785476Y-13510476D02*
X737857Y-13510476D01*
X737857Y-13510476D02*
X718809Y-13500952D01*
X718809Y-13500952D02*
X709286Y-13491428D01*
X947381Y-13310476D02*
X966429Y-13310476D01*
X966429Y-13310476D02*
X985476Y-13320000D01*
X985476Y-13320000D02*
X995000Y-13329524D01*
X995000Y-13329524D02*
X1004524Y-13348571D01*
X1004524Y-13348571D02*
X1014048Y-13386667D01*
X1014048Y-13386667D02*
X1014048Y-13434286D01*
X1014048Y-13434286D02*
X1004524Y-13472381D01*
X1004524Y-13472381D02*
X995000Y-13491428D01*
X995000Y-13491428D02*
X985476Y-13500952D01*
X985476Y-13500952D02*
X966429Y-13510476D01*
X966429Y-13510476D02*
X947381Y-13510476D01*
X947381Y-13510476D02*
X928333Y-13500952D01*
X928333Y-13500952D02*
X918809Y-13491428D01*
X918809Y-13491428D02*
X909286Y-13472381D01*
X909286Y-13472381D02*
X899762Y-13434286D01*
X899762Y-13434286D02*
X899762Y-13386667D01*
X899762Y-13386667D02*
X909286Y-13348571D01*
X909286Y-13348571D02*
X918809Y-13329524D01*
X918809Y-13329524D02*
X928333Y-13320000D01*
X928333Y-13320000D02*
X947381Y-13310476D01*
X1099762Y-13510476D02*
X1099762Y-13377143D01*
X1099762Y-13396190D02*
X1109286Y-13386667D01*
X1109286Y-13386667D02*
X1128333Y-13377143D01*
X1128333Y-13377143D02*
X1156905Y-13377143D01*
X1156905Y-13377143D02*
X1175952Y-13386667D01*
X1175952Y-13386667D02*
X1185476Y-13405714D01*
X1185476Y-13405714D02*
X1185476Y-13510476D01*
X1185476Y-13405714D02*
X1195000Y-13386667D01*
X1195000Y-13386667D02*
X1214048Y-13377143D01*
X1214048Y-13377143D02*
X1242619Y-13377143D01*
X1242619Y-13377143D02*
X1261667Y-13386667D01*
X1261667Y-13386667D02*
X1271191Y-13405714D01*
X1271191Y-13405714D02*
X1271191Y-13510476D01*
X1366429Y-13510476D02*
X1366429Y-13377143D01*
X1366429Y-13396190D02*
X1375952Y-13386667D01*
X1375952Y-13386667D02*
X1395000Y-13377143D01*
X1395000Y-13377143D02*
X1423571Y-13377143D01*
X1423571Y-13377143D02*
X1442619Y-13386667D01*
X1442619Y-13386667D02*
X1452143Y-13405714D01*
X1452143Y-13405714D02*
X1452143Y-13510476D01*
X1452143Y-13405714D02*
X1461667Y-13386667D01*
X1461667Y-13386667D02*
X1480714Y-13377143D01*
X1480714Y-13377143D02*
X1509286Y-13377143D01*
X1509286Y-13377143D02*
X1528333Y-13386667D01*
X1528333Y-13386667D02*
X1537857Y-13405714D01*
X1537857Y-13405714D02*
X1537857Y-13510476D01*
X1895952Y-13300952D02*
X1724524Y-13558095D01*
X2120714Y-13310476D02*
X2139762Y-13310476D01*
X2139762Y-13310476D02*
X2158810Y-13320000D01*
X2158810Y-13320000D02*
X2168333Y-13329524D01*
X2168333Y-13329524D02*
X2177857Y-13348571D01*
X2177857Y-13348571D02*
X2187381Y-13386667D01*
X2187381Y-13386667D02*
X2187381Y-13434286D01*
X2187381Y-13434286D02*
X2177857Y-13472381D01*
X2177857Y-13472381D02*
X2168333Y-13491428D01*
X2168333Y-13491428D02*
X2158810Y-13500952D01*
X2158810Y-13500952D02*
X2139762Y-13510476D01*
X2139762Y-13510476D02*
X2120714Y-13510476D01*
X2120714Y-13510476D02*
X2101667Y-13500952D01*
X2101667Y-13500952D02*
X2092143Y-13491428D01*
X2092143Y-13491428D02*
X2082619Y-13472381D01*
X2082619Y-13472381D02*
X2073095Y-13434286D01*
X2073095Y-13434286D02*
X2073095Y-13386667D01*
X2073095Y-13386667D02*
X2082619Y-13348571D01*
X2082619Y-13348571D02*
X2092143Y-13329524D01*
X2092143Y-13329524D02*
X2101667Y-13320000D01*
X2101667Y-13320000D02*
X2120714Y-13310476D01*
X2273095Y-13491428D02*
X2282619Y-13500952D01*
X2282619Y-13500952D02*
X2273095Y-13510476D01*
X2273095Y-13510476D02*
X2263572Y-13500952D01*
X2263572Y-13500952D02*
X2273095Y-13491428D01*
X2273095Y-13491428D02*
X2273095Y-13510476D01*
X2406429Y-13310476D02*
X2425476Y-13310476D01*
X2425476Y-13310476D02*
X2444524Y-13320000D01*
X2444524Y-13320000D02*
X2454048Y-13329524D01*
X2454048Y-13329524D02*
X2463572Y-13348571D01*
X2463572Y-13348571D02*
X2473095Y-13386667D01*
X2473095Y-13386667D02*
X2473095Y-13434286D01*
X2473095Y-13434286D02*
X2463572Y-13472381D01*
X2463572Y-13472381D02*
X2454048Y-13491428D01*
X2454048Y-13491428D02*
X2444524Y-13500952D01*
X2444524Y-13500952D02*
X2425476Y-13510476D01*
X2425476Y-13510476D02*
X2406429Y-13510476D01*
X2406429Y-13510476D02*
X2387381Y-13500952D01*
X2387381Y-13500952D02*
X2377857Y-13491428D01*
X2377857Y-13491428D02*
X2368333Y-13472381D01*
X2368333Y-13472381D02*
X2358810Y-13434286D01*
X2358810Y-13434286D02*
X2358810Y-13386667D01*
X2358810Y-13386667D02*
X2368333Y-13348571D01*
X2368333Y-13348571D02*
X2377857Y-13329524D01*
X2377857Y-13329524D02*
X2387381Y-13320000D01*
X2387381Y-13320000D02*
X2406429Y-13310476D01*
X2539762Y-13310476D02*
X2663572Y-13310476D01*
X2663572Y-13310476D02*
X2596905Y-13386667D01*
X2596905Y-13386667D02*
X2625476Y-13386667D01*
X2625476Y-13386667D02*
X2644524Y-13396190D01*
X2644524Y-13396190D02*
X2654048Y-13405714D01*
X2654048Y-13405714D02*
X2663572Y-13424762D01*
X2663572Y-13424762D02*
X2663572Y-13472381D01*
X2663572Y-13472381D02*
X2654048Y-13491428D01*
X2654048Y-13491428D02*
X2644524Y-13500952D01*
X2644524Y-13500952D02*
X2625476Y-13510476D01*
X2625476Y-13510476D02*
X2568333Y-13510476D01*
X2568333Y-13510476D02*
X2549286Y-13500952D01*
X2549286Y-13500952D02*
X2539762Y-13491428D01*
X2730238Y-13310476D02*
X2863571Y-13310476D01*
X2863571Y-13310476D02*
X2777857Y-13510476D01*
X3025476Y-13377143D02*
X3025476Y-13510476D01*
X2977857Y-13300952D02*
X2930238Y-13443809D01*
X2930238Y-13443809D02*
X3054048Y-13443809D01*
X3120714Y-13310476D02*
X3120714Y-13348571D01*
X3196905Y-13310476D02*
X3196905Y-13348571D01*
X3459762Y-13586667D02*
X3450238Y-13577143D01*
X3450238Y-13577143D02*
X3431191Y-13548571D01*
X3431191Y-13548571D02*
X3421667Y-13529524D01*
X3421667Y-13529524D02*
X3412143Y-13500952D01*
X3412143Y-13500952D02*
X3402619Y-13453333D01*
X3402619Y-13453333D02*
X3402619Y-13415238D01*
X3402619Y-13415238D02*
X3412143Y-13367619D01*
X3412143Y-13367619D02*
X3421667Y-13339048D01*
X3421667Y-13339048D02*
X3431191Y-13320000D01*
X3431191Y-13320000D02*
X3450238Y-13291428D01*
X3450238Y-13291428D02*
X3459762Y-13281905D01*
X3526429Y-13329524D02*
X3535952Y-13320000D01*
X3535952Y-13320000D02*
X3555000Y-13310476D01*
X3555000Y-13310476D02*
X3602619Y-13310476D01*
X3602619Y-13310476D02*
X3621667Y-13320000D01*
X3621667Y-13320000D02*
X3631191Y-13329524D01*
X3631191Y-13329524D02*
X3640714Y-13348571D01*
X3640714Y-13348571D02*
X3640714Y-13367619D01*
X3640714Y-13367619D02*
X3631191Y-13396190D01*
X3631191Y-13396190D02*
X3516905Y-13510476D01*
X3516905Y-13510476D02*
X3640714Y-13510476D01*
X3831191Y-13510476D02*
X3716905Y-13510476D01*
X3774048Y-13510476D02*
X3774048Y-13310476D01*
X3774048Y-13310476D02*
X3755000Y-13339048D01*
X3755000Y-13339048D02*
X3735952Y-13358095D01*
X3735952Y-13358095D02*
X3716905Y-13367619D01*
X4036905Y-13510476D02*
X4036905Y-13310476D01*
X4122619Y-13510476D02*
X4122619Y-13405714D01*
X4122619Y-13405714D02*
X4113095Y-13386667D01*
X4113095Y-13386667D02*
X4094048Y-13377143D01*
X4094048Y-13377143D02*
X4065476Y-13377143D01*
X4065476Y-13377143D02*
X4046429Y-13386667D01*
X4046429Y-13386667D02*
X4036905Y-13396190D01*
X4246429Y-13510476D02*
X4227381Y-13500952D01*
X4227381Y-13500952D02*
X4217857Y-13491428D01*
X4217857Y-13491428D02*
X4208334Y-13472381D01*
X4208334Y-13472381D02*
X4208334Y-13415238D01*
X4208334Y-13415238D02*
X4217857Y-13396190D01*
X4217857Y-13396190D02*
X4227381Y-13386667D01*
X4227381Y-13386667D02*
X4246429Y-13377143D01*
X4246429Y-13377143D02*
X4275000Y-13377143D01*
X4275000Y-13377143D02*
X4294048Y-13386667D01*
X4294048Y-13386667D02*
X4303572Y-13396190D01*
X4303572Y-13396190D02*
X4313095Y-13415238D01*
X4313095Y-13415238D02*
X4313095Y-13472381D01*
X4313095Y-13472381D02*
X4303572Y-13491428D01*
X4303572Y-13491428D02*
X4294048Y-13500952D01*
X4294048Y-13500952D02*
X4275000Y-13510476D01*
X4275000Y-13510476D02*
X4246429Y-13510476D01*
X4427381Y-13510476D02*
X4408334Y-13500952D01*
X4408334Y-13500952D02*
X4398810Y-13481905D01*
X4398810Y-13481905D02*
X4398810Y-13310476D01*
X4579762Y-13500952D02*
X4560715Y-13510476D01*
X4560715Y-13510476D02*
X4522619Y-13510476D01*
X4522619Y-13510476D02*
X4503572Y-13500952D01*
X4503572Y-13500952D02*
X4494048Y-13481905D01*
X4494048Y-13481905D02*
X4494048Y-13405714D01*
X4494048Y-13405714D02*
X4503572Y-13386667D01*
X4503572Y-13386667D02*
X4522619Y-13377143D01*
X4522619Y-13377143D02*
X4560715Y-13377143D01*
X4560715Y-13377143D02*
X4579762Y-13386667D01*
X4579762Y-13386667D02*
X4589286Y-13405714D01*
X4589286Y-13405714D02*
X4589286Y-13424762D01*
X4589286Y-13424762D02*
X4494048Y-13443809D01*
X4665476Y-13500952D02*
X4684524Y-13510476D01*
X4684524Y-13510476D02*
X4722619Y-13510476D01*
X4722619Y-13510476D02*
X4741667Y-13500952D01*
X4741667Y-13500952D02*
X4751191Y-13481905D01*
X4751191Y-13481905D02*
X4751191Y-13472381D01*
X4751191Y-13472381D02*
X4741667Y-13453333D01*
X4741667Y-13453333D02*
X4722619Y-13443809D01*
X4722619Y-13443809D02*
X4694048Y-13443809D01*
X4694048Y-13443809D02*
X4675000Y-13434286D01*
X4675000Y-13434286D02*
X4665476Y-13415238D01*
X4665476Y-13415238D02*
X4665476Y-13405714D01*
X4665476Y-13405714D02*
X4675000Y-13386667D01*
X4675000Y-13386667D02*
X4694048Y-13377143D01*
X4694048Y-13377143D02*
X4722619Y-13377143D01*
X4722619Y-13377143D02*
X4741667Y-13386667D01*
X4817857Y-13586667D02*
X4827381Y-13577143D01*
X4827381Y-13577143D02*
X4846429Y-13548571D01*
X4846429Y-13548571D02*
X4855953Y-13529524D01*
X4855953Y-13529524D02*
X4865476Y-13500952D01*
X4865476Y-13500952D02*
X4875000Y-13453333D01*
X4875000Y-13453333D02*
X4875000Y-13415238D01*
X4875000Y-13415238D02*
X4865476Y-13367619D01*
X4865476Y-13367619D02*
X4855953Y-13339048D01*
X4855953Y-13339048D02*
X4846429Y-13320000D01*
X4846429Y-13320000D02*
X4827381Y-13291428D01*
X4827381Y-13291428D02*
X4817857Y-13281905D01*
D10*
X-55000Y-13751000D02*
X-5000Y-13701000D01*
X-55000Y-13651000D01*
X-105000Y-13701000D01*
X-55000Y-13751000D01*
D11*
X347381Y-13774476D02*
X233095Y-13774476D01*
X290238Y-13774476D02*
X290238Y-13574476D01*
X290238Y-13574476D02*
X271190Y-13603048D01*
X271190Y-13603048D02*
X252143Y-13622095D01*
X252143Y-13622095D02*
X233095Y-13631619D01*
X433095Y-13755428D02*
X442619Y-13764952D01*
X442619Y-13764952D02*
X433095Y-13774476D01*
X433095Y-13774476D02*
X423571Y-13764952D01*
X423571Y-13764952D02*
X433095Y-13755428D01*
X433095Y-13755428D02*
X433095Y-13774476D01*
X566429Y-13574476D02*
X585476Y-13574476D01*
X585476Y-13574476D02*
X604524Y-13584000D01*
X604524Y-13584000D02*
X614048Y-13593524D01*
X614048Y-13593524D02*
X623571Y-13612571D01*
X623571Y-13612571D02*
X633095Y-13650667D01*
X633095Y-13650667D02*
X633095Y-13698286D01*
X633095Y-13698286D02*
X623571Y-13736381D01*
X623571Y-13736381D02*
X614048Y-13755428D01*
X614048Y-13755428D02*
X604524Y-13764952D01*
X604524Y-13764952D02*
X585476Y-13774476D01*
X585476Y-13774476D02*
X566429Y-13774476D01*
X566429Y-13774476D02*
X547381Y-13764952D01*
X547381Y-13764952D02*
X537857Y-13755428D01*
X537857Y-13755428D02*
X528333Y-13736381D01*
X528333Y-13736381D02*
X518809Y-13698286D01*
X518809Y-13698286D02*
X518809Y-13650667D01*
X518809Y-13650667D02*
X528333Y-13612571D01*
X528333Y-13612571D02*
X537857Y-13593524D01*
X537857Y-13593524D02*
X547381Y-13584000D01*
X547381Y-13584000D02*
X566429Y-13574476D01*
X756905Y-13574476D02*
X775952Y-13574476D01*
X775952Y-13574476D02*
X795000Y-13584000D01*
X795000Y-13584000D02*
X804524Y-13593524D01*
X804524Y-13593524D02*
X814048Y-13612571D01*
X814048Y-13612571D02*
X823571Y-13650667D01*
X823571Y-13650667D02*
X823571Y-13698286D01*
X823571Y-13698286D02*
X814048Y-13736381D01*
X814048Y-13736381D02*
X804524Y-13755428D01*
X804524Y-13755428D02*
X795000Y-13764952D01*
X795000Y-13764952D02*
X775952Y-13774476D01*
X775952Y-13774476D02*
X756905Y-13774476D01*
X756905Y-13774476D02*
X737857Y-13764952D01*
X737857Y-13764952D02*
X728333Y-13755428D01*
X728333Y-13755428D02*
X718809Y-13736381D01*
X718809Y-13736381D02*
X709286Y-13698286D01*
X709286Y-13698286D02*
X709286Y-13650667D01*
X709286Y-13650667D02*
X718809Y-13612571D01*
X718809Y-13612571D02*
X728333Y-13593524D01*
X728333Y-13593524D02*
X737857Y-13584000D01*
X737857Y-13584000D02*
X756905Y-13574476D01*
X947381Y-13574476D02*
X966429Y-13574476D01*
X966429Y-13574476D02*
X985476Y-13584000D01*
X985476Y-13584000D02*
X995000Y-13593524D01*
X995000Y-13593524D02*
X1004524Y-13612571D01*
X1004524Y-13612571D02*
X1014048Y-13650667D01*
X1014048Y-13650667D02*
X1014048Y-13698286D01*
X1014048Y-13698286D02*
X1004524Y-13736381D01*
X1004524Y-13736381D02*
X995000Y-13755428D01*
X995000Y-13755428D02*
X985476Y-13764952D01*
X985476Y-13764952D02*
X966429Y-13774476D01*
X966429Y-13774476D02*
X947381Y-13774476D01*
X947381Y-13774476D02*
X928333Y-13764952D01*
X928333Y-13764952D02*
X918809Y-13755428D01*
X918809Y-13755428D02*
X909286Y-13736381D01*
X909286Y-13736381D02*
X899762Y-13698286D01*
X899762Y-13698286D02*
X899762Y-13650667D01*
X899762Y-13650667D02*
X909286Y-13612571D01*
X909286Y-13612571D02*
X918809Y-13593524D01*
X918809Y-13593524D02*
X928333Y-13584000D01*
X928333Y-13584000D02*
X947381Y-13574476D01*
X1099762Y-13774476D02*
X1099762Y-13641143D01*
X1099762Y-13660190D02*
X1109286Y-13650667D01*
X1109286Y-13650667D02*
X1128333Y-13641143D01*
X1128333Y-13641143D02*
X1156905Y-13641143D01*
X1156905Y-13641143D02*
X1175952Y-13650667D01*
X1175952Y-13650667D02*
X1185476Y-13669714D01*
X1185476Y-13669714D02*
X1185476Y-13774476D01*
X1185476Y-13669714D02*
X1195000Y-13650667D01*
X1195000Y-13650667D02*
X1214048Y-13641143D01*
X1214048Y-13641143D02*
X1242619Y-13641143D01*
X1242619Y-13641143D02*
X1261667Y-13650667D01*
X1261667Y-13650667D02*
X1271191Y-13669714D01*
X1271191Y-13669714D02*
X1271191Y-13774476D01*
X1366429Y-13774476D02*
X1366429Y-13641143D01*
X1366429Y-13660190D02*
X1375952Y-13650667D01*
X1375952Y-13650667D02*
X1395000Y-13641143D01*
X1395000Y-13641143D02*
X1423571Y-13641143D01*
X1423571Y-13641143D02*
X1442619Y-13650667D01*
X1442619Y-13650667D02*
X1452143Y-13669714D01*
X1452143Y-13669714D02*
X1452143Y-13774476D01*
X1452143Y-13669714D02*
X1461667Y-13650667D01*
X1461667Y-13650667D02*
X1480714Y-13641143D01*
X1480714Y-13641143D02*
X1509286Y-13641143D01*
X1509286Y-13641143D02*
X1528333Y-13650667D01*
X1528333Y-13650667D02*
X1537857Y-13669714D01*
X1537857Y-13669714D02*
X1537857Y-13774476D01*
X1895952Y-13564952D02*
X1724524Y-13822095D01*
X2120714Y-13574476D02*
X2139762Y-13574476D01*
X2139762Y-13574476D02*
X2158810Y-13584000D01*
X2158810Y-13584000D02*
X2168333Y-13593524D01*
X2168333Y-13593524D02*
X2177857Y-13612571D01*
X2177857Y-13612571D02*
X2187381Y-13650667D01*
X2187381Y-13650667D02*
X2187381Y-13698286D01*
X2187381Y-13698286D02*
X2177857Y-13736381D01*
X2177857Y-13736381D02*
X2168333Y-13755428D01*
X2168333Y-13755428D02*
X2158810Y-13764952D01*
X2158810Y-13764952D02*
X2139762Y-13774476D01*
X2139762Y-13774476D02*
X2120714Y-13774476D01*
X2120714Y-13774476D02*
X2101667Y-13764952D01*
X2101667Y-13764952D02*
X2092143Y-13755428D01*
X2092143Y-13755428D02*
X2082619Y-13736381D01*
X2082619Y-13736381D02*
X2073095Y-13698286D01*
X2073095Y-13698286D02*
X2073095Y-13650667D01*
X2073095Y-13650667D02*
X2082619Y-13612571D01*
X2082619Y-13612571D02*
X2092143Y-13593524D01*
X2092143Y-13593524D02*
X2101667Y-13584000D01*
X2101667Y-13584000D02*
X2120714Y-13574476D01*
X2273095Y-13755428D02*
X2282619Y-13764952D01*
X2282619Y-13764952D02*
X2273095Y-13774476D01*
X2273095Y-13774476D02*
X2263572Y-13764952D01*
X2263572Y-13764952D02*
X2273095Y-13755428D01*
X2273095Y-13755428D02*
X2273095Y-13774476D01*
X2406429Y-13574476D02*
X2425476Y-13574476D01*
X2425476Y-13574476D02*
X2444524Y-13584000D01*
X2444524Y-13584000D02*
X2454048Y-13593524D01*
X2454048Y-13593524D02*
X2463572Y-13612571D01*
X2463572Y-13612571D02*
X2473095Y-13650667D01*
X2473095Y-13650667D02*
X2473095Y-13698286D01*
X2473095Y-13698286D02*
X2463572Y-13736381D01*
X2463572Y-13736381D02*
X2454048Y-13755428D01*
X2454048Y-13755428D02*
X2444524Y-13764952D01*
X2444524Y-13764952D02*
X2425476Y-13774476D01*
X2425476Y-13774476D02*
X2406429Y-13774476D01*
X2406429Y-13774476D02*
X2387381Y-13764952D01*
X2387381Y-13764952D02*
X2377857Y-13755428D01*
X2377857Y-13755428D02*
X2368333Y-13736381D01*
X2368333Y-13736381D02*
X2358810Y-13698286D01*
X2358810Y-13698286D02*
X2358810Y-13650667D01*
X2358810Y-13650667D02*
X2368333Y-13612571D01*
X2368333Y-13612571D02*
X2377857Y-13593524D01*
X2377857Y-13593524D02*
X2387381Y-13584000D01*
X2387381Y-13584000D02*
X2406429Y-13574476D01*
X2539762Y-13574476D02*
X2663572Y-13574476D01*
X2663572Y-13574476D02*
X2596905Y-13650667D01*
X2596905Y-13650667D02*
X2625476Y-13650667D01*
X2625476Y-13650667D02*
X2644524Y-13660190D01*
X2644524Y-13660190D02*
X2654048Y-13669714D01*
X2654048Y-13669714D02*
X2663572Y-13688762D01*
X2663572Y-13688762D02*
X2663572Y-13736381D01*
X2663572Y-13736381D02*
X2654048Y-13755428D01*
X2654048Y-13755428D02*
X2644524Y-13764952D01*
X2644524Y-13764952D02*
X2625476Y-13774476D01*
X2625476Y-13774476D02*
X2568333Y-13774476D01*
X2568333Y-13774476D02*
X2549286Y-13764952D01*
X2549286Y-13764952D02*
X2539762Y-13755428D01*
X2758810Y-13774476D02*
X2796905Y-13774476D01*
X2796905Y-13774476D02*
X2815952Y-13764952D01*
X2815952Y-13764952D02*
X2825476Y-13755428D01*
X2825476Y-13755428D02*
X2844524Y-13726857D01*
X2844524Y-13726857D02*
X2854048Y-13688762D01*
X2854048Y-13688762D02*
X2854048Y-13612571D01*
X2854048Y-13612571D02*
X2844524Y-13593524D01*
X2844524Y-13593524D02*
X2835000Y-13584000D01*
X2835000Y-13584000D02*
X2815952Y-13574476D01*
X2815952Y-13574476D02*
X2777857Y-13574476D01*
X2777857Y-13574476D02*
X2758810Y-13584000D01*
X2758810Y-13584000D02*
X2749286Y-13593524D01*
X2749286Y-13593524D02*
X2739762Y-13612571D01*
X2739762Y-13612571D02*
X2739762Y-13660190D01*
X2739762Y-13660190D02*
X2749286Y-13679238D01*
X2749286Y-13679238D02*
X2758810Y-13688762D01*
X2758810Y-13688762D02*
X2777857Y-13698286D01*
X2777857Y-13698286D02*
X2815952Y-13698286D01*
X2815952Y-13698286D02*
X2835000Y-13688762D01*
X2835000Y-13688762D02*
X2844524Y-13679238D01*
X2844524Y-13679238D02*
X2854048Y-13660190D01*
X3025476Y-13641143D02*
X3025476Y-13774476D01*
X2977857Y-13564952D02*
X2930238Y-13707809D01*
X2930238Y-13707809D02*
X3054048Y-13707809D01*
X3120714Y-13574476D02*
X3120714Y-13612571D01*
X3196905Y-13574476D02*
X3196905Y-13612571D01*
X3459762Y-13850667D02*
X3450238Y-13841143D01*
X3450238Y-13841143D02*
X3431191Y-13812571D01*
X3431191Y-13812571D02*
X3421667Y-13793524D01*
X3421667Y-13793524D02*
X3412143Y-13764952D01*
X3412143Y-13764952D02*
X3402619Y-13717333D01*
X3402619Y-13717333D02*
X3402619Y-13679238D01*
X3402619Y-13679238D02*
X3412143Y-13631619D01*
X3412143Y-13631619D02*
X3421667Y-13603048D01*
X3421667Y-13603048D02*
X3431191Y-13584000D01*
X3431191Y-13584000D02*
X3450238Y-13555428D01*
X3450238Y-13555428D02*
X3459762Y-13545905D01*
X3516905Y-13574476D02*
X3640714Y-13574476D01*
X3640714Y-13574476D02*
X3574048Y-13650667D01*
X3574048Y-13650667D02*
X3602619Y-13650667D01*
X3602619Y-13650667D02*
X3621667Y-13660190D01*
X3621667Y-13660190D02*
X3631191Y-13669714D01*
X3631191Y-13669714D02*
X3640714Y-13688762D01*
X3640714Y-13688762D02*
X3640714Y-13736381D01*
X3640714Y-13736381D02*
X3631191Y-13755428D01*
X3631191Y-13755428D02*
X3621667Y-13764952D01*
X3621667Y-13764952D02*
X3602619Y-13774476D01*
X3602619Y-13774476D02*
X3545476Y-13774476D01*
X3545476Y-13774476D02*
X3526429Y-13764952D01*
X3526429Y-13764952D02*
X3516905Y-13755428D01*
X3707381Y-13574476D02*
X3831191Y-13574476D01*
X3831191Y-13574476D02*
X3764524Y-13650667D01*
X3764524Y-13650667D02*
X3793095Y-13650667D01*
X3793095Y-13650667D02*
X3812143Y-13660190D01*
X3812143Y-13660190D02*
X3821667Y-13669714D01*
X3821667Y-13669714D02*
X3831191Y-13688762D01*
X3831191Y-13688762D02*
X3831191Y-13736381D01*
X3831191Y-13736381D02*
X3821667Y-13755428D01*
X3821667Y-13755428D02*
X3812143Y-13764952D01*
X3812143Y-13764952D02*
X3793095Y-13774476D01*
X3793095Y-13774476D02*
X3735952Y-13774476D01*
X3735952Y-13774476D02*
X3716905Y-13764952D01*
X3716905Y-13764952D02*
X3707381Y-13755428D01*
X4036905Y-13774476D02*
X4036905Y-13574476D01*
X4122619Y-13774476D02*
X4122619Y-13669714D01*
X4122619Y-13669714D02*
X4113095Y-13650667D01*
X4113095Y-13650667D02*
X4094048Y-13641143D01*
X4094048Y-13641143D02*
X4065476Y-13641143D01*
X4065476Y-13641143D02*
X4046429Y-13650667D01*
X4046429Y-13650667D02*
X4036905Y-13660190D01*
X4246429Y-13774476D02*
X4227381Y-13764952D01*
X4227381Y-13764952D02*
X4217857Y-13755428D01*
X4217857Y-13755428D02*
X4208334Y-13736381D01*
X4208334Y-13736381D02*
X4208334Y-13679238D01*
X4208334Y-13679238D02*
X4217857Y-13660190D01*
X4217857Y-13660190D02*
X4227381Y-13650667D01*
X4227381Y-13650667D02*
X4246429Y-13641143D01*
X4246429Y-13641143D02*
X4275000Y-13641143D01*
X4275000Y-13641143D02*
X4294048Y-13650667D01*
X4294048Y-13650667D02*
X4303572Y-13660190D01*
X4303572Y-13660190D02*
X4313095Y-13679238D01*
X4313095Y-13679238D02*
X4313095Y-13736381D01*
X4313095Y-13736381D02*
X4303572Y-13755428D01*
X4303572Y-13755428D02*
X4294048Y-13764952D01*
X4294048Y-13764952D02*
X4275000Y-13774476D01*
X4275000Y-13774476D02*
X4246429Y-13774476D01*
X4427381Y-13774476D02*
X4408334Y-13764952D01*
X4408334Y-13764952D02*
X4398810Y-13745905D01*
X4398810Y-13745905D02*
X4398810Y-13574476D01*
X4579762Y-13764952D02*
X4560715Y-13774476D01*
X4560715Y-13774476D02*
X4522619Y-13774476D01*
X4522619Y-13774476D02*
X4503572Y-13764952D01*
X4503572Y-13764952D02*
X4494048Y-13745905D01*
X4494048Y-13745905D02*
X4494048Y-13669714D01*
X4494048Y-13669714D02*
X4503572Y-13650667D01*
X4503572Y-13650667D02*
X4522619Y-13641143D01*
X4522619Y-13641143D02*
X4560715Y-13641143D01*
X4560715Y-13641143D02*
X4579762Y-13650667D01*
X4579762Y-13650667D02*
X4589286Y-13669714D01*
X4589286Y-13669714D02*
X4589286Y-13688762D01*
X4589286Y-13688762D02*
X4494048Y-13707809D01*
X4665476Y-13764952D02*
X4684524Y-13774476D01*
X4684524Y-13774476D02*
X4722619Y-13774476D01*
X4722619Y-13774476D02*
X4741667Y-13764952D01*
X4741667Y-13764952D02*
X4751191Y-13745905D01*
X4751191Y-13745905D02*
X4751191Y-13736381D01*
X4751191Y-13736381D02*
X4741667Y-13717333D01*
X4741667Y-13717333D02*
X4722619Y-13707809D01*
X4722619Y-13707809D02*
X4694048Y-13707809D01*
X4694048Y-13707809D02*
X4675000Y-13698286D01*
X4675000Y-13698286D02*
X4665476Y-13679238D01*
X4665476Y-13679238D02*
X4665476Y-13669714D01*
X4665476Y-13669714D02*
X4675000Y-13650667D01*
X4675000Y-13650667D02*
X4694048Y-13641143D01*
X4694048Y-13641143D02*
X4722619Y-13641143D01*
X4722619Y-13641143D02*
X4741667Y-13650667D01*
X4817857Y-13850667D02*
X4827381Y-13841143D01*
X4827381Y-13841143D02*
X4846429Y-13812571D01*
X4846429Y-13812571D02*
X4855953Y-13793524D01*
X4855953Y-13793524D02*
X4865476Y-13764952D01*
X4865476Y-13764952D02*
X4875000Y-13717333D01*
X4875000Y-13717333D02*
X4875000Y-13679238D01*
X4875000Y-13679238D02*
X4865476Y-13631619D01*
X4865476Y-13631619D02*
X4855953Y-13603048D01*
X4855953Y-13603048D02*
X4846429Y-13584000D01*
X4846429Y-13584000D02*
X4827381Y-13555428D01*
X4827381Y-13555428D02*
X4817857Y-13545905D01*
D16*
X-107000Y-13914000D02*
X-5000Y-14016000D01*
X-5000Y-13914000D02*
X-107000Y-14016000D01*
X-5000Y-13965000D02*
G75*
G03*
X-5000Y-13965000I-51000J0D01*
G01*
D11*
X347381Y-14038476D02*
X233095Y-14038476D01*
X290238Y-14038476D02*
X290238Y-13838476D01*
X290238Y-13838476D02*
X271190Y-13867048D01*
X271190Y-13867048D02*
X252143Y-13886095D01*
X252143Y-13886095D02*
X233095Y-13895619D01*
X433095Y-14019428D02*
X442619Y-14028952D01*
X442619Y-14028952D02*
X433095Y-14038476D01*
X433095Y-14038476D02*
X423571Y-14028952D01*
X423571Y-14028952D02*
X433095Y-14019428D01*
X433095Y-14019428D02*
X433095Y-14038476D01*
X566429Y-13838476D02*
X585476Y-13838476D01*
X585476Y-13838476D02*
X604524Y-13848000D01*
X604524Y-13848000D02*
X614048Y-13857524D01*
X614048Y-13857524D02*
X623571Y-13876571D01*
X623571Y-13876571D02*
X633095Y-13914667D01*
X633095Y-13914667D02*
X633095Y-13962286D01*
X633095Y-13962286D02*
X623571Y-14000381D01*
X623571Y-14000381D02*
X614048Y-14019428D01*
X614048Y-14019428D02*
X604524Y-14028952D01*
X604524Y-14028952D02*
X585476Y-14038476D01*
X585476Y-14038476D02*
X566429Y-14038476D01*
X566429Y-14038476D02*
X547381Y-14028952D01*
X547381Y-14028952D02*
X537857Y-14019428D01*
X537857Y-14019428D02*
X528333Y-14000381D01*
X528333Y-14000381D02*
X518809Y-13962286D01*
X518809Y-13962286D02*
X518809Y-13914667D01*
X518809Y-13914667D02*
X528333Y-13876571D01*
X528333Y-13876571D02*
X537857Y-13857524D01*
X537857Y-13857524D02*
X547381Y-13848000D01*
X547381Y-13848000D02*
X566429Y-13838476D01*
X709286Y-13857524D02*
X718809Y-13848000D01*
X718809Y-13848000D02*
X737857Y-13838476D01*
X737857Y-13838476D02*
X785476Y-13838476D01*
X785476Y-13838476D02*
X804524Y-13848000D01*
X804524Y-13848000D02*
X814048Y-13857524D01*
X814048Y-13857524D02*
X823571Y-13876571D01*
X823571Y-13876571D02*
X823571Y-13895619D01*
X823571Y-13895619D02*
X814048Y-13924190D01*
X814048Y-13924190D02*
X699762Y-14038476D01*
X699762Y-14038476D02*
X823571Y-14038476D01*
X947381Y-13838476D02*
X966429Y-13838476D01*
X966429Y-13838476D02*
X985476Y-13848000D01*
X985476Y-13848000D02*
X995000Y-13857524D01*
X995000Y-13857524D02*
X1004524Y-13876571D01*
X1004524Y-13876571D02*
X1014048Y-13914667D01*
X1014048Y-13914667D02*
X1014048Y-13962286D01*
X1014048Y-13962286D02*
X1004524Y-14000381D01*
X1004524Y-14000381D02*
X995000Y-14019428D01*
X995000Y-14019428D02*
X985476Y-14028952D01*
X985476Y-14028952D02*
X966429Y-14038476D01*
X966429Y-14038476D02*
X947381Y-14038476D01*
X947381Y-14038476D02*
X928333Y-14028952D01*
X928333Y-14028952D02*
X918809Y-14019428D01*
X918809Y-14019428D02*
X909286Y-14000381D01*
X909286Y-14000381D02*
X899762Y-13962286D01*
X899762Y-13962286D02*
X899762Y-13914667D01*
X899762Y-13914667D02*
X909286Y-13876571D01*
X909286Y-13876571D02*
X918809Y-13857524D01*
X918809Y-13857524D02*
X928333Y-13848000D01*
X928333Y-13848000D02*
X947381Y-13838476D01*
X1099762Y-14038476D02*
X1099762Y-13905143D01*
X1099762Y-13924190D02*
X1109286Y-13914667D01*
X1109286Y-13914667D02*
X1128333Y-13905143D01*
X1128333Y-13905143D02*
X1156905Y-13905143D01*
X1156905Y-13905143D02*
X1175952Y-13914667D01*
X1175952Y-13914667D02*
X1185476Y-13933714D01*
X1185476Y-13933714D02*
X1185476Y-14038476D01*
X1185476Y-13933714D02*
X1195000Y-13914667D01*
X1195000Y-13914667D02*
X1214048Y-13905143D01*
X1214048Y-13905143D02*
X1242619Y-13905143D01*
X1242619Y-13905143D02*
X1261667Y-13914667D01*
X1261667Y-13914667D02*
X1271191Y-13933714D01*
X1271191Y-13933714D02*
X1271191Y-14038476D01*
X1366429Y-14038476D02*
X1366429Y-13905143D01*
X1366429Y-13924190D02*
X1375952Y-13914667D01*
X1375952Y-13914667D02*
X1395000Y-13905143D01*
X1395000Y-13905143D02*
X1423571Y-13905143D01*
X1423571Y-13905143D02*
X1442619Y-13914667D01*
X1442619Y-13914667D02*
X1452143Y-13933714D01*
X1452143Y-13933714D02*
X1452143Y-14038476D01*
X1452143Y-13933714D02*
X1461667Y-13914667D01*
X1461667Y-13914667D02*
X1480714Y-13905143D01*
X1480714Y-13905143D02*
X1509286Y-13905143D01*
X1509286Y-13905143D02*
X1528333Y-13914667D01*
X1528333Y-13914667D02*
X1537857Y-13933714D01*
X1537857Y-13933714D02*
X1537857Y-14038476D01*
X1895952Y-13828952D02*
X1724524Y-14086095D01*
X2120714Y-13838476D02*
X2139762Y-13838476D01*
X2139762Y-13838476D02*
X2158810Y-13848000D01*
X2158810Y-13848000D02*
X2168333Y-13857524D01*
X2168333Y-13857524D02*
X2177857Y-13876571D01*
X2177857Y-13876571D02*
X2187381Y-13914667D01*
X2187381Y-13914667D02*
X2187381Y-13962286D01*
X2187381Y-13962286D02*
X2177857Y-14000381D01*
X2177857Y-14000381D02*
X2168333Y-14019428D01*
X2168333Y-14019428D02*
X2158810Y-14028952D01*
X2158810Y-14028952D02*
X2139762Y-14038476D01*
X2139762Y-14038476D02*
X2120714Y-14038476D01*
X2120714Y-14038476D02*
X2101667Y-14028952D01*
X2101667Y-14028952D02*
X2092143Y-14019428D01*
X2092143Y-14019428D02*
X2082619Y-14000381D01*
X2082619Y-14000381D02*
X2073095Y-13962286D01*
X2073095Y-13962286D02*
X2073095Y-13914667D01*
X2073095Y-13914667D02*
X2082619Y-13876571D01*
X2082619Y-13876571D02*
X2092143Y-13857524D01*
X2092143Y-13857524D02*
X2101667Y-13848000D01*
X2101667Y-13848000D02*
X2120714Y-13838476D01*
X2273095Y-14019428D02*
X2282619Y-14028952D01*
X2282619Y-14028952D02*
X2273095Y-14038476D01*
X2273095Y-14038476D02*
X2263572Y-14028952D01*
X2263572Y-14028952D02*
X2273095Y-14019428D01*
X2273095Y-14019428D02*
X2273095Y-14038476D01*
X2406429Y-13838476D02*
X2425476Y-13838476D01*
X2425476Y-13838476D02*
X2444524Y-13848000D01*
X2444524Y-13848000D02*
X2454048Y-13857524D01*
X2454048Y-13857524D02*
X2463572Y-13876571D01*
X2463572Y-13876571D02*
X2473095Y-13914667D01*
X2473095Y-13914667D02*
X2473095Y-13962286D01*
X2473095Y-13962286D02*
X2463572Y-14000381D01*
X2463572Y-14000381D02*
X2454048Y-14019428D01*
X2454048Y-14019428D02*
X2444524Y-14028952D01*
X2444524Y-14028952D02*
X2425476Y-14038476D01*
X2425476Y-14038476D02*
X2406429Y-14038476D01*
X2406429Y-14038476D02*
X2387381Y-14028952D01*
X2387381Y-14028952D02*
X2377857Y-14019428D01*
X2377857Y-14019428D02*
X2368333Y-14000381D01*
X2368333Y-14000381D02*
X2358810Y-13962286D01*
X2358810Y-13962286D02*
X2358810Y-13914667D01*
X2358810Y-13914667D02*
X2368333Y-13876571D01*
X2368333Y-13876571D02*
X2377857Y-13857524D01*
X2377857Y-13857524D02*
X2387381Y-13848000D01*
X2387381Y-13848000D02*
X2406429Y-13838476D01*
X2644524Y-13905143D02*
X2644524Y-14038476D01*
X2596905Y-13828952D02*
X2549286Y-13971809D01*
X2549286Y-13971809D02*
X2673095Y-13971809D01*
X2787381Y-13838476D02*
X2806429Y-13838476D01*
X2806429Y-13838476D02*
X2825476Y-13848000D01*
X2825476Y-13848000D02*
X2835000Y-13857524D01*
X2835000Y-13857524D02*
X2844524Y-13876571D01*
X2844524Y-13876571D02*
X2854048Y-13914667D01*
X2854048Y-13914667D02*
X2854048Y-13962286D01*
X2854048Y-13962286D02*
X2844524Y-14000381D01*
X2844524Y-14000381D02*
X2835000Y-14019428D01*
X2835000Y-14019428D02*
X2825476Y-14028952D01*
X2825476Y-14028952D02*
X2806429Y-14038476D01*
X2806429Y-14038476D02*
X2787381Y-14038476D01*
X2787381Y-14038476D02*
X2768333Y-14028952D01*
X2768333Y-14028952D02*
X2758810Y-14019428D01*
X2758810Y-14019428D02*
X2749286Y-14000381D01*
X2749286Y-14000381D02*
X2739762Y-13962286D01*
X2739762Y-13962286D02*
X2739762Y-13914667D01*
X2739762Y-13914667D02*
X2749286Y-13876571D01*
X2749286Y-13876571D02*
X2758810Y-13857524D01*
X2758810Y-13857524D02*
X2768333Y-13848000D01*
X2768333Y-13848000D02*
X2787381Y-13838476D01*
X2930238Y-13857524D02*
X2939762Y-13848000D01*
X2939762Y-13848000D02*
X2958810Y-13838476D01*
X2958810Y-13838476D02*
X3006429Y-13838476D01*
X3006429Y-13838476D02*
X3025476Y-13848000D01*
X3025476Y-13848000D02*
X3035000Y-13857524D01*
X3035000Y-13857524D02*
X3044524Y-13876571D01*
X3044524Y-13876571D02*
X3044524Y-13895619D01*
X3044524Y-13895619D02*
X3035000Y-13924190D01*
X3035000Y-13924190D02*
X2920714Y-14038476D01*
X2920714Y-14038476D02*
X3044524Y-14038476D01*
X3120714Y-13838476D02*
X3120714Y-13876571D01*
X3196905Y-13838476D02*
X3196905Y-13876571D01*
X3459762Y-14114667D02*
X3450238Y-14105143D01*
X3450238Y-14105143D02*
X3431191Y-14076571D01*
X3431191Y-14076571D02*
X3421667Y-14057524D01*
X3421667Y-14057524D02*
X3412143Y-14028952D01*
X3412143Y-14028952D02*
X3402619Y-13981333D01*
X3402619Y-13981333D02*
X3402619Y-13943238D01*
X3402619Y-13943238D02*
X3412143Y-13895619D01*
X3412143Y-13895619D02*
X3421667Y-13867048D01*
X3421667Y-13867048D02*
X3431191Y-13848000D01*
X3431191Y-13848000D02*
X3450238Y-13819428D01*
X3450238Y-13819428D02*
X3459762Y-13809905D01*
X3516905Y-13838476D02*
X3650238Y-13838476D01*
X3650238Y-13838476D02*
X3564524Y-14038476D01*
X3812143Y-13838476D02*
X3774048Y-13838476D01*
X3774048Y-13838476D02*
X3755000Y-13848000D01*
X3755000Y-13848000D02*
X3745476Y-13857524D01*
X3745476Y-13857524D02*
X3726429Y-13886095D01*
X3726429Y-13886095D02*
X3716905Y-13924190D01*
X3716905Y-13924190D02*
X3716905Y-14000381D01*
X3716905Y-14000381D02*
X3726429Y-14019428D01*
X3726429Y-14019428D02*
X3735952Y-14028952D01*
X3735952Y-14028952D02*
X3755000Y-14038476D01*
X3755000Y-14038476D02*
X3793095Y-14038476D01*
X3793095Y-14038476D02*
X3812143Y-14028952D01*
X3812143Y-14028952D02*
X3821667Y-14019428D01*
X3821667Y-14019428D02*
X3831191Y-14000381D01*
X3831191Y-14000381D02*
X3831191Y-13952762D01*
X3831191Y-13952762D02*
X3821667Y-13933714D01*
X3821667Y-13933714D02*
X3812143Y-13924190D01*
X3812143Y-13924190D02*
X3793095Y-13914667D01*
X3793095Y-13914667D02*
X3755000Y-13914667D01*
X3755000Y-13914667D02*
X3735952Y-13924190D01*
X3735952Y-13924190D02*
X3726429Y-13933714D01*
X3726429Y-13933714D02*
X3716905Y-13952762D01*
X4036905Y-14038476D02*
X4036905Y-13838476D01*
X4122619Y-14038476D02*
X4122619Y-13933714D01*
X4122619Y-13933714D02*
X4113095Y-13914667D01*
X4113095Y-13914667D02*
X4094048Y-13905143D01*
X4094048Y-13905143D02*
X4065476Y-13905143D01*
X4065476Y-13905143D02*
X4046429Y-13914667D01*
X4046429Y-13914667D02*
X4036905Y-13924190D01*
X4246429Y-14038476D02*
X4227381Y-14028952D01*
X4227381Y-14028952D02*
X4217857Y-14019428D01*
X4217857Y-14019428D02*
X4208334Y-14000381D01*
X4208334Y-14000381D02*
X4208334Y-13943238D01*
X4208334Y-13943238D02*
X4217857Y-13924190D01*
X4217857Y-13924190D02*
X4227381Y-13914667D01*
X4227381Y-13914667D02*
X4246429Y-13905143D01*
X4246429Y-13905143D02*
X4275000Y-13905143D01*
X4275000Y-13905143D02*
X4294048Y-13914667D01*
X4294048Y-13914667D02*
X4303572Y-13924190D01*
X4303572Y-13924190D02*
X4313095Y-13943238D01*
X4313095Y-13943238D02*
X4313095Y-14000381D01*
X4313095Y-14000381D02*
X4303572Y-14019428D01*
X4303572Y-14019428D02*
X4294048Y-14028952D01*
X4294048Y-14028952D02*
X4275000Y-14038476D01*
X4275000Y-14038476D02*
X4246429Y-14038476D01*
X4427381Y-14038476D02*
X4408334Y-14028952D01*
X4408334Y-14028952D02*
X4398810Y-14009905D01*
X4398810Y-14009905D02*
X4398810Y-13838476D01*
X4579762Y-14028952D02*
X4560715Y-14038476D01*
X4560715Y-14038476D02*
X4522619Y-14038476D01*
X4522619Y-14038476D02*
X4503572Y-14028952D01*
X4503572Y-14028952D02*
X4494048Y-14009905D01*
X4494048Y-14009905D02*
X4494048Y-13933714D01*
X4494048Y-13933714D02*
X4503572Y-13914667D01*
X4503572Y-13914667D02*
X4522619Y-13905143D01*
X4522619Y-13905143D02*
X4560715Y-13905143D01*
X4560715Y-13905143D02*
X4579762Y-13914667D01*
X4579762Y-13914667D02*
X4589286Y-13933714D01*
X4589286Y-13933714D02*
X4589286Y-13952762D01*
X4589286Y-13952762D02*
X4494048Y-13971809D01*
X4665476Y-14028952D02*
X4684524Y-14038476D01*
X4684524Y-14038476D02*
X4722619Y-14038476D01*
X4722619Y-14038476D02*
X4741667Y-14028952D01*
X4741667Y-14028952D02*
X4751191Y-14009905D01*
X4751191Y-14009905D02*
X4751191Y-14000381D01*
X4751191Y-14000381D02*
X4741667Y-13981333D01*
X4741667Y-13981333D02*
X4722619Y-13971809D01*
X4722619Y-13971809D02*
X4694048Y-13971809D01*
X4694048Y-13971809D02*
X4675000Y-13962286D01*
X4675000Y-13962286D02*
X4665476Y-13943238D01*
X4665476Y-13943238D02*
X4665476Y-13933714D01*
X4665476Y-13933714D02*
X4675000Y-13914667D01*
X4675000Y-13914667D02*
X4694048Y-13905143D01*
X4694048Y-13905143D02*
X4722619Y-13905143D01*
X4722619Y-13905143D02*
X4741667Y-13914667D01*
X4817857Y-14114667D02*
X4827381Y-14105143D01*
X4827381Y-14105143D02*
X4846429Y-14076571D01*
X4846429Y-14076571D02*
X4855953Y-14057524D01*
X4855953Y-14057524D02*
X4865476Y-14028952D01*
X4865476Y-14028952D02*
X4875000Y-13981333D01*
X4875000Y-13981333D02*
X4875000Y-13943238D01*
X4875000Y-13943238D02*
X4865476Y-13895619D01*
X4865476Y-13895619D02*
X4855953Y-13867048D01*
X4855953Y-13867048D02*
X4846429Y-13848000D01*
X4846429Y-13848000D02*
X4827381Y-13819428D01*
X4827381Y-13819428D02*
X4817857Y-13809905D01*
D17*
X-115000Y-14174000D02*
X-5000Y-14284000D01*
X-5000Y-14174000D02*
X-115000Y-14284000D01*
X-60000Y-14174000D02*
X-60000Y-14284000D01*
X-115000Y-14229000D02*
X-5000Y-14229000D01*
D11*
X347381Y-14302476D02*
X233095Y-14302476D01*
X290238Y-14302476D02*
X290238Y-14102476D01*
X290238Y-14102476D02*
X271190Y-14131048D01*
X271190Y-14131048D02*
X252143Y-14150095D01*
X252143Y-14150095D02*
X233095Y-14159619D01*
X433095Y-14283428D02*
X442619Y-14292952D01*
X442619Y-14292952D02*
X433095Y-14302476D01*
X433095Y-14302476D02*
X423571Y-14292952D01*
X423571Y-14292952D02*
X433095Y-14283428D01*
X433095Y-14283428D02*
X433095Y-14302476D01*
X633095Y-14302476D02*
X518809Y-14302476D01*
X575952Y-14302476D02*
X575952Y-14102476D01*
X575952Y-14102476D02*
X556905Y-14131048D01*
X556905Y-14131048D02*
X537857Y-14150095D01*
X537857Y-14150095D02*
X518809Y-14159619D01*
X756905Y-14102476D02*
X775952Y-14102476D01*
X775952Y-14102476D02*
X795000Y-14112000D01*
X795000Y-14112000D02*
X804524Y-14121524D01*
X804524Y-14121524D02*
X814048Y-14140571D01*
X814048Y-14140571D02*
X823571Y-14178667D01*
X823571Y-14178667D02*
X823571Y-14226286D01*
X823571Y-14226286D02*
X814048Y-14264381D01*
X814048Y-14264381D02*
X804524Y-14283428D01*
X804524Y-14283428D02*
X795000Y-14292952D01*
X795000Y-14292952D02*
X775952Y-14302476D01*
X775952Y-14302476D02*
X756905Y-14302476D01*
X756905Y-14302476D02*
X737857Y-14292952D01*
X737857Y-14292952D02*
X728333Y-14283428D01*
X728333Y-14283428D02*
X718809Y-14264381D01*
X718809Y-14264381D02*
X709286Y-14226286D01*
X709286Y-14226286D02*
X709286Y-14178667D01*
X709286Y-14178667D02*
X718809Y-14140571D01*
X718809Y-14140571D02*
X728333Y-14121524D01*
X728333Y-14121524D02*
X737857Y-14112000D01*
X737857Y-14112000D02*
X756905Y-14102476D01*
X947381Y-14102476D02*
X966429Y-14102476D01*
X966429Y-14102476D02*
X985476Y-14112000D01*
X985476Y-14112000D02*
X995000Y-14121524D01*
X995000Y-14121524D02*
X1004524Y-14140571D01*
X1004524Y-14140571D02*
X1014048Y-14178667D01*
X1014048Y-14178667D02*
X1014048Y-14226286D01*
X1014048Y-14226286D02*
X1004524Y-14264381D01*
X1004524Y-14264381D02*
X995000Y-14283428D01*
X995000Y-14283428D02*
X985476Y-14292952D01*
X985476Y-14292952D02*
X966429Y-14302476D01*
X966429Y-14302476D02*
X947381Y-14302476D01*
X947381Y-14302476D02*
X928333Y-14292952D01*
X928333Y-14292952D02*
X918809Y-14283428D01*
X918809Y-14283428D02*
X909286Y-14264381D01*
X909286Y-14264381D02*
X899762Y-14226286D01*
X899762Y-14226286D02*
X899762Y-14178667D01*
X899762Y-14178667D02*
X909286Y-14140571D01*
X909286Y-14140571D02*
X918809Y-14121524D01*
X918809Y-14121524D02*
X928333Y-14112000D01*
X928333Y-14112000D02*
X947381Y-14102476D01*
X1099762Y-14302476D02*
X1099762Y-14169143D01*
X1099762Y-14188190D02*
X1109286Y-14178667D01*
X1109286Y-14178667D02*
X1128333Y-14169143D01*
X1128333Y-14169143D02*
X1156905Y-14169143D01*
X1156905Y-14169143D02*
X1175952Y-14178667D01*
X1175952Y-14178667D02*
X1185476Y-14197714D01*
X1185476Y-14197714D02*
X1185476Y-14302476D01*
X1185476Y-14197714D02*
X1195000Y-14178667D01*
X1195000Y-14178667D02*
X1214048Y-14169143D01*
X1214048Y-14169143D02*
X1242619Y-14169143D01*
X1242619Y-14169143D02*
X1261667Y-14178667D01*
X1261667Y-14178667D02*
X1271191Y-14197714D01*
X1271191Y-14197714D02*
X1271191Y-14302476D01*
X1366429Y-14302476D02*
X1366429Y-14169143D01*
X1366429Y-14188190D02*
X1375952Y-14178667D01*
X1375952Y-14178667D02*
X1395000Y-14169143D01*
X1395000Y-14169143D02*
X1423571Y-14169143D01*
X1423571Y-14169143D02*
X1442619Y-14178667D01*
X1442619Y-14178667D02*
X1452143Y-14197714D01*
X1452143Y-14197714D02*
X1452143Y-14302476D01*
X1452143Y-14197714D02*
X1461667Y-14178667D01*
X1461667Y-14178667D02*
X1480714Y-14169143D01*
X1480714Y-14169143D02*
X1509286Y-14169143D01*
X1509286Y-14169143D02*
X1528333Y-14178667D01*
X1528333Y-14178667D02*
X1537857Y-14197714D01*
X1537857Y-14197714D02*
X1537857Y-14302476D01*
X1895952Y-14092952D02*
X1724524Y-14350095D01*
X2120714Y-14102476D02*
X2139762Y-14102476D01*
X2139762Y-14102476D02*
X2158810Y-14112000D01*
X2158810Y-14112000D02*
X2168333Y-14121524D01*
X2168333Y-14121524D02*
X2177857Y-14140571D01*
X2177857Y-14140571D02*
X2187381Y-14178667D01*
X2187381Y-14178667D02*
X2187381Y-14226286D01*
X2187381Y-14226286D02*
X2177857Y-14264381D01*
X2177857Y-14264381D02*
X2168333Y-14283428D01*
X2168333Y-14283428D02*
X2158810Y-14292952D01*
X2158810Y-14292952D02*
X2139762Y-14302476D01*
X2139762Y-14302476D02*
X2120714Y-14302476D01*
X2120714Y-14302476D02*
X2101667Y-14292952D01*
X2101667Y-14292952D02*
X2092143Y-14283428D01*
X2092143Y-14283428D02*
X2082619Y-14264381D01*
X2082619Y-14264381D02*
X2073095Y-14226286D01*
X2073095Y-14226286D02*
X2073095Y-14178667D01*
X2073095Y-14178667D02*
X2082619Y-14140571D01*
X2082619Y-14140571D02*
X2092143Y-14121524D01*
X2092143Y-14121524D02*
X2101667Y-14112000D01*
X2101667Y-14112000D02*
X2120714Y-14102476D01*
X2273095Y-14283428D02*
X2282619Y-14292952D01*
X2282619Y-14292952D02*
X2273095Y-14302476D01*
X2273095Y-14302476D02*
X2263572Y-14292952D01*
X2263572Y-14292952D02*
X2273095Y-14283428D01*
X2273095Y-14283428D02*
X2273095Y-14302476D01*
X2406429Y-14102476D02*
X2425476Y-14102476D01*
X2425476Y-14102476D02*
X2444524Y-14112000D01*
X2444524Y-14112000D02*
X2454048Y-14121524D01*
X2454048Y-14121524D02*
X2463572Y-14140571D01*
X2463572Y-14140571D02*
X2473095Y-14178667D01*
X2473095Y-14178667D02*
X2473095Y-14226286D01*
X2473095Y-14226286D02*
X2463572Y-14264381D01*
X2463572Y-14264381D02*
X2454048Y-14283428D01*
X2454048Y-14283428D02*
X2444524Y-14292952D01*
X2444524Y-14292952D02*
X2425476Y-14302476D01*
X2425476Y-14302476D02*
X2406429Y-14302476D01*
X2406429Y-14302476D02*
X2387381Y-14292952D01*
X2387381Y-14292952D02*
X2377857Y-14283428D01*
X2377857Y-14283428D02*
X2368333Y-14264381D01*
X2368333Y-14264381D02*
X2358810Y-14226286D01*
X2358810Y-14226286D02*
X2358810Y-14178667D01*
X2358810Y-14178667D02*
X2368333Y-14140571D01*
X2368333Y-14140571D02*
X2377857Y-14121524D01*
X2377857Y-14121524D02*
X2387381Y-14112000D01*
X2387381Y-14112000D02*
X2406429Y-14102476D01*
X2644524Y-14169143D02*
X2644524Y-14302476D01*
X2596905Y-14092952D02*
X2549286Y-14235809D01*
X2549286Y-14235809D02*
X2673095Y-14235809D01*
X2730238Y-14102476D02*
X2854048Y-14102476D01*
X2854048Y-14102476D02*
X2787381Y-14178667D01*
X2787381Y-14178667D02*
X2815952Y-14178667D01*
X2815952Y-14178667D02*
X2835000Y-14188190D01*
X2835000Y-14188190D02*
X2844524Y-14197714D01*
X2844524Y-14197714D02*
X2854048Y-14216762D01*
X2854048Y-14216762D02*
X2854048Y-14264381D01*
X2854048Y-14264381D02*
X2844524Y-14283428D01*
X2844524Y-14283428D02*
X2835000Y-14292952D01*
X2835000Y-14292952D02*
X2815952Y-14302476D01*
X2815952Y-14302476D02*
X2758810Y-14302476D01*
X2758810Y-14302476D02*
X2739762Y-14292952D01*
X2739762Y-14292952D02*
X2730238Y-14283428D01*
X2920714Y-14102476D02*
X3044524Y-14102476D01*
X3044524Y-14102476D02*
X2977857Y-14178667D01*
X2977857Y-14178667D02*
X3006429Y-14178667D01*
X3006429Y-14178667D02*
X3025476Y-14188190D01*
X3025476Y-14188190D02*
X3035000Y-14197714D01*
X3035000Y-14197714D02*
X3044524Y-14216762D01*
X3044524Y-14216762D02*
X3044524Y-14264381D01*
X3044524Y-14264381D02*
X3035000Y-14283428D01*
X3035000Y-14283428D02*
X3025476Y-14292952D01*
X3025476Y-14292952D02*
X3006429Y-14302476D01*
X3006429Y-14302476D02*
X2949286Y-14302476D01*
X2949286Y-14302476D02*
X2930238Y-14292952D01*
X2930238Y-14292952D02*
X2920714Y-14283428D01*
X3120714Y-14102476D02*
X3120714Y-14140571D01*
X3196905Y-14102476D02*
X3196905Y-14140571D01*
X3459762Y-14378667D02*
X3450238Y-14369143D01*
X3450238Y-14369143D02*
X3431191Y-14340571D01*
X3431191Y-14340571D02*
X3421667Y-14321524D01*
X3421667Y-14321524D02*
X3412143Y-14292952D01*
X3412143Y-14292952D02*
X3402619Y-14245333D01*
X3402619Y-14245333D02*
X3402619Y-14207238D01*
X3402619Y-14207238D02*
X3412143Y-14159619D01*
X3412143Y-14159619D02*
X3421667Y-14131048D01*
X3421667Y-14131048D02*
X3431191Y-14112000D01*
X3431191Y-14112000D02*
X3450238Y-14083428D01*
X3450238Y-14083428D02*
X3459762Y-14073905D01*
X3564524Y-14188190D02*
X3545476Y-14178667D01*
X3545476Y-14178667D02*
X3535952Y-14169143D01*
X3535952Y-14169143D02*
X3526429Y-14150095D01*
X3526429Y-14150095D02*
X3526429Y-14140571D01*
X3526429Y-14140571D02*
X3535952Y-14121524D01*
X3535952Y-14121524D02*
X3545476Y-14112000D01*
X3545476Y-14112000D02*
X3564524Y-14102476D01*
X3564524Y-14102476D02*
X3602619Y-14102476D01*
X3602619Y-14102476D02*
X3621667Y-14112000D01*
X3621667Y-14112000D02*
X3631191Y-14121524D01*
X3631191Y-14121524D02*
X3640714Y-14140571D01*
X3640714Y-14140571D02*
X3640714Y-14150095D01*
X3640714Y-14150095D02*
X3631191Y-14169143D01*
X3631191Y-14169143D02*
X3621667Y-14178667D01*
X3621667Y-14178667D02*
X3602619Y-14188190D01*
X3602619Y-14188190D02*
X3564524Y-14188190D01*
X3564524Y-14188190D02*
X3545476Y-14197714D01*
X3545476Y-14197714D02*
X3535952Y-14207238D01*
X3535952Y-14207238D02*
X3526429Y-14226286D01*
X3526429Y-14226286D02*
X3526429Y-14264381D01*
X3526429Y-14264381D02*
X3535952Y-14283428D01*
X3535952Y-14283428D02*
X3545476Y-14292952D01*
X3545476Y-14292952D02*
X3564524Y-14302476D01*
X3564524Y-14302476D02*
X3602619Y-14302476D01*
X3602619Y-14302476D02*
X3621667Y-14292952D01*
X3621667Y-14292952D02*
X3631191Y-14283428D01*
X3631191Y-14283428D02*
X3640714Y-14264381D01*
X3640714Y-14264381D02*
X3640714Y-14226286D01*
X3640714Y-14226286D02*
X3631191Y-14207238D01*
X3631191Y-14207238D02*
X3621667Y-14197714D01*
X3621667Y-14197714D02*
X3602619Y-14188190D01*
X3846429Y-14302476D02*
X3846429Y-14102476D01*
X3932143Y-14302476D02*
X3932143Y-14197714D01*
X3932143Y-14197714D02*
X3922619Y-14178667D01*
X3922619Y-14178667D02*
X3903572Y-14169143D01*
X3903572Y-14169143D02*
X3875000Y-14169143D01*
X3875000Y-14169143D02*
X3855952Y-14178667D01*
X3855952Y-14178667D02*
X3846429Y-14188190D01*
X4055952Y-14302476D02*
X4036905Y-14292952D01*
X4036905Y-14292952D02*
X4027381Y-14283428D01*
X4027381Y-14283428D02*
X4017857Y-14264381D01*
X4017857Y-14264381D02*
X4017857Y-14207238D01*
X4017857Y-14207238D02*
X4027381Y-14188190D01*
X4027381Y-14188190D02*
X4036905Y-14178667D01*
X4036905Y-14178667D02*
X4055952Y-14169143D01*
X4055952Y-14169143D02*
X4084524Y-14169143D01*
X4084524Y-14169143D02*
X4103572Y-14178667D01*
X4103572Y-14178667D02*
X4113095Y-14188190D01*
X4113095Y-14188190D02*
X4122619Y-14207238D01*
X4122619Y-14207238D02*
X4122619Y-14264381D01*
X4122619Y-14264381D02*
X4113095Y-14283428D01*
X4113095Y-14283428D02*
X4103572Y-14292952D01*
X4103572Y-14292952D02*
X4084524Y-14302476D01*
X4084524Y-14302476D02*
X4055952Y-14302476D01*
X4236905Y-14302476D02*
X4217857Y-14292952D01*
X4217857Y-14292952D02*
X4208334Y-14273905D01*
X4208334Y-14273905D02*
X4208334Y-14102476D01*
X4389286Y-14292952D02*
X4370238Y-14302476D01*
X4370238Y-14302476D02*
X4332143Y-14302476D01*
X4332143Y-14302476D02*
X4313095Y-14292952D01*
X4313095Y-14292952D02*
X4303572Y-14273905D01*
X4303572Y-14273905D02*
X4303572Y-14197714D01*
X4303572Y-14197714D02*
X4313095Y-14178667D01*
X4313095Y-14178667D02*
X4332143Y-14169143D01*
X4332143Y-14169143D02*
X4370238Y-14169143D01*
X4370238Y-14169143D02*
X4389286Y-14178667D01*
X4389286Y-14178667D02*
X4398810Y-14197714D01*
X4398810Y-14197714D02*
X4398810Y-14216762D01*
X4398810Y-14216762D02*
X4303572Y-14235809D01*
X4475000Y-14292952D02*
X4494048Y-14302476D01*
X4494048Y-14302476D02*
X4532143Y-14302476D01*
X4532143Y-14302476D02*
X4551191Y-14292952D01*
X4551191Y-14292952D02*
X4560715Y-14273905D01*
X4560715Y-14273905D02*
X4560715Y-14264381D01*
X4560715Y-14264381D02*
X4551191Y-14245333D01*
X4551191Y-14245333D02*
X4532143Y-14235809D01*
X4532143Y-14235809D02*
X4503572Y-14235809D01*
X4503572Y-14235809D02*
X4484524Y-14226286D01*
X4484524Y-14226286D02*
X4475000Y-14207238D01*
X4475000Y-14207238D02*
X4475000Y-14197714D01*
X4475000Y-14197714D02*
X4484524Y-14178667D01*
X4484524Y-14178667D02*
X4503572Y-14169143D01*
X4503572Y-14169143D02*
X4532143Y-14169143D01*
X4532143Y-14169143D02*
X4551191Y-14178667D01*
X4627381Y-14378667D02*
X4636905Y-14369143D01*
X4636905Y-14369143D02*
X4655953Y-14340571D01*
X4655953Y-14340571D02*
X4665476Y-14321524D01*
X4665476Y-14321524D02*
X4675000Y-14292952D01*
X4675000Y-14292952D02*
X4684524Y-14245333D01*
X4684524Y-14245333D02*
X4684524Y-14207238D01*
X4684524Y-14207238D02*
X4675000Y-14159619D01*
X4675000Y-14159619D02*
X4665476Y-14131048D01*
X4665476Y-14131048D02*
X4655953Y-14112000D01*
X4655953Y-14112000D02*
X4636905Y-14083428D01*
X4636905Y-14083428D02*
X4627381Y-14073905D01*
D18*
X-145000Y-14423000D02*
X-5000Y-14563000D01*
X-5000Y-14423000D02*
X-145000Y-14563000D01*
X-25502Y-14542498D02*
X-25502Y-14443502D01*
X-124498Y-14443502D01*
X-124498Y-14542498D01*
X-25502Y-14542498D01*
D11*
X347381Y-14566476D02*
X233095Y-14566476D01*
X290238Y-14566476D02*
X290238Y-14366476D01*
X290238Y-14366476D02*
X271190Y-14395048D01*
X271190Y-14395048D02*
X252143Y-14414095D01*
X252143Y-14414095D02*
X233095Y-14423619D01*
X433095Y-14547428D02*
X442619Y-14556952D01*
X442619Y-14556952D02*
X433095Y-14566476D01*
X433095Y-14566476D02*
X423571Y-14556952D01*
X423571Y-14556952D02*
X433095Y-14547428D01*
X433095Y-14547428D02*
X433095Y-14566476D01*
X614048Y-14433143D02*
X614048Y-14566476D01*
X566429Y-14356952D02*
X518809Y-14499809D01*
X518809Y-14499809D02*
X642619Y-14499809D01*
X756905Y-14366476D02*
X775952Y-14366476D01*
X775952Y-14366476D02*
X795000Y-14376000D01*
X795000Y-14376000D02*
X804524Y-14385524D01*
X804524Y-14385524D02*
X814048Y-14404571D01*
X814048Y-14404571D02*
X823571Y-14442667D01*
X823571Y-14442667D02*
X823571Y-14490286D01*
X823571Y-14490286D02*
X814048Y-14528381D01*
X814048Y-14528381D02*
X804524Y-14547428D01*
X804524Y-14547428D02*
X795000Y-14556952D01*
X795000Y-14556952D02*
X775952Y-14566476D01*
X775952Y-14566476D02*
X756905Y-14566476D01*
X756905Y-14566476D02*
X737857Y-14556952D01*
X737857Y-14556952D02*
X728333Y-14547428D01*
X728333Y-14547428D02*
X718809Y-14528381D01*
X718809Y-14528381D02*
X709286Y-14490286D01*
X709286Y-14490286D02*
X709286Y-14442667D01*
X709286Y-14442667D02*
X718809Y-14404571D01*
X718809Y-14404571D02*
X728333Y-14385524D01*
X728333Y-14385524D02*
X737857Y-14376000D01*
X737857Y-14376000D02*
X756905Y-14366476D01*
X947381Y-14366476D02*
X966429Y-14366476D01*
X966429Y-14366476D02*
X985476Y-14376000D01*
X985476Y-14376000D02*
X995000Y-14385524D01*
X995000Y-14385524D02*
X1004524Y-14404571D01*
X1004524Y-14404571D02*
X1014048Y-14442667D01*
X1014048Y-14442667D02*
X1014048Y-14490286D01*
X1014048Y-14490286D02*
X1004524Y-14528381D01*
X1004524Y-14528381D02*
X995000Y-14547428D01*
X995000Y-14547428D02*
X985476Y-14556952D01*
X985476Y-14556952D02*
X966429Y-14566476D01*
X966429Y-14566476D02*
X947381Y-14566476D01*
X947381Y-14566476D02*
X928333Y-14556952D01*
X928333Y-14556952D02*
X918809Y-14547428D01*
X918809Y-14547428D02*
X909286Y-14528381D01*
X909286Y-14528381D02*
X899762Y-14490286D01*
X899762Y-14490286D02*
X899762Y-14442667D01*
X899762Y-14442667D02*
X909286Y-14404571D01*
X909286Y-14404571D02*
X918809Y-14385524D01*
X918809Y-14385524D02*
X928333Y-14376000D01*
X928333Y-14376000D02*
X947381Y-14366476D01*
X1099762Y-14566476D02*
X1099762Y-14433143D01*
X1099762Y-14452190D02*
X1109286Y-14442667D01*
X1109286Y-14442667D02*
X1128333Y-14433143D01*
X1128333Y-14433143D02*
X1156905Y-14433143D01*
X1156905Y-14433143D02*
X1175952Y-14442667D01*
X1175952Y-14442667D02*
X1185476Y-14461714D01*
X1185476Y-14461714D02*
X1185476Y-14566476D01*
X1185476Y-14461714D02*
X1195000Y-14442667D01*
X1195000Y-14442667D02*
X1214048Y-14433143D01*
X1214048Y-14433143D02*
X1242619Y-14433143D01*
X1242619Y-14433143D02*
X1261667Y-14442667D01*
X1261667Y-14442667D02*
X1271191Y-14461714D01*
X1271191Y-14461714D02*
X1271191Y-14566476D01*
X1366429Y-14566476D02*
X1366429Y-14433143D01*
X1366429Y-14452190D02*
X1375952Y-14442667D01*
X1375952Y-14442667D02*
X1395000Y-14433143D01*
X1395000Y-14433143D02*
X1423571Y-14433143D01*
X1423571Y-14433143D02*
X1442619Y-14442667D01*
X1442619Y-14442667D02*
X1452143Y-14461714D01*
X1452143Y-14461714D02*
X1452143Y-14566476D01*
X1452143Y-14461714D02*
X1461667Y-14442667D01*
X1461667Y-14442667D02*
X1480714Y-14433143D01*
X1480714Y-14433143D02*
X1509286Y-14433143D01*
X1509286Y-14433143D02*
X1528333Y-14442667D01*
X1528333Y-14442667D02*
X1537857Y-14461714D01*
X1537857Y-14461714D02*
X1537857Y-14566476D01*
X1895952Y-14356952D02*
X1724524Y-14614095D01*
X2120714Y-14366476D02*
X2139762Y-14366476D01*
X2139762Y-14366476D02*
X2158810Y-14376000D01*
X2158810Y-14376000D02*
X2168333Y-14385524D01*
X2168333Y-14385524D02*
X2177857Y-14404571D01*
X2177857Y-14404571D02*
X2187381Y-14442667D01*
X2187381Y-14442667D02*
X2187381Y-14490286D01*
X2187381Y-14490286D02*
X2177857Y-14528381D01*
X2177857Y-14528381D02*
X2168333Y-14547428D01*
X2168333Y-14547428D02*
X2158810Y-14556952D01*
X2158810Y-14556952D02*
X2139762Y-14566476D01*
X2139762Y-14566476D02*
X2120714Y-14566476D01*
X2120714Y-14566476D02*
X2101667Y-14556952D01*
X2101667Y-14556952D02*
X2092143Y-14547428D01*
X2092143Y-14547428D02*
X2082619Y-14528381D01*
X2082619Y-14528381D02*
X2073095Y-14490286D01*
X2073095Y-14490286D02*
X2073095Y-14442667D01*
X2073095Y-14442667D02*
X2082619Y-14404571D01*
X2082619Y-14404571D02*
X2092143Y-14385524D01*
X2092143Y-14385524D02*
X2101667Y-14376000D01*
X2101667Y-14376000D02*
X2120714Y-14366476D01*
X2273095Y-14547428D02*
X2282619Y-14556952D01*
X2282619Y-14556952D02*
X2273095Y-14566476D01*
X2273095Y-14566476D02*
X2263572Y-14556952D01*
X2263572Y-14556952D02*
X2273095Y-14547428D01*
X2273095Y-14547428D02*
X2273095Y-14566476D01*
X2406429Y-14366476D02*
X2425476Y-14366476D01*
X2425476Y-14366476D02*
X2444524Y-14376000D01*
X2444524Y-14376000D02*
X2454048Y-14385524D01*
X2454048Y-14385524D02*
X2463572Y-14404571D01*
X2463572Y-14404571D02*
X2473095Y-14442667D01*
X2473095Y-14442667D02*
X2473095Y-14490286D01*
X2473095Y-14490286D02*
X2463572Y-14528381D01*
X2463572Y-14528381D02*
X2454048Y-14547428D01*
X2454048Y-14547428D02*
X2444524Y-14556952D01*
X2444524Y-14556952D02*
X2425476Y-14566476D01*
X2425476Y-14566476D02*
X2406429Y-14566476D01*
X2406429Y-14566476D02*
X2387381Y-14556952D01*
X2387381Y-14556952D02*
X2377857Y-14547428D01*
X2377857Y-14547428D02*
X2368333Y-14528381D01*
X2368333Y-14528381D02*
X2358810Y-14490286D01*
X2358810Y-14490286D02*
X2358810Y-14442667D01*
X2358810Y-14442667D02*
X2368333Y-14404571D01*
X2368333Y-14404571D02*
X2377857Y-14385524D01*
X2377857Y-14385524D02*
X2387381Y-14376000D01*
X2387381Y-14376000D02*
X2406429Y-14366476D01*
X2654048Y-14366476D02*
X2558810Y-14366476D01*
X2558810Y-14366476D02*
X2549286Y-14461714D01*
X2549286Y-14461714D02*
X2558810Y-14452190D01*
X2558810Y-14452190D02*
X2577857Y-14442667D01*
X2577857Y-14442667D02*
X2625476Y-14442667D01*
X2625476Y-14442667D02*
X2644524Y-14452190D01*
X2644524Y-14452190D02*
X2654048Y-14461714D01*
X2654048Y-14461714D02*
X2663572Y-14480762D01*
X2663572Y-14480762D02*
X2663572Y-14528381D01*
X2663572Y-14528381D02*
X2654048Y-14547428D01*
X2654048Y-14547428D02*
X2644524Y-14556952D01*
X2644524Y-14556952D02*
X2625476Y-14566476D01*
X2625476Y-14566476D02*
X2577857Y-14566476D01*
X2577857Y-14566476D02*
X2558810Y-14556952D01*
X2558810Y-14556952D02*
X2549286Y-14547428D01*
X2844524Y-14366476D02*
X2749286Y-14366476D01*
X2749286Y-14366476D02*
X2739762Y-14461714D01*
X2739762Y-14461714D02*
X2749286Y-14452190D01*
X2749286Y-14452190D02*
X2768333Y-14442667D01*
X2768333Y-14442667D02*
X2815952Y-14442667D01*
X2815952Y-14442667D02*
X2835000Y-14452190D01*
X2835000Y-14452190D02*
X2844524Y-14461714D01*
X2844524Y-14461714D02*
X2854048Y-14480762D01*
X2854048Y-14480762D02*
X2854048Y-14528381D01*
X2854048Y-14528381D02*
X2844524Y-14547428D01*
X2844524Y-14547428D02*
X2835000Y-14556952D01*
X2835000Y-14556952D02*
X2815952Y-14566476D01*
X2815952Y-14566476D02*
X2768333Y-14566476D01*
X2768333Y-14566476D02*
X2749286Y-14556952D01*
X2749286Y-14556952D02*
X2739762Y-14547428D01*
X3044524Y-14566476D02*
X2930238Y-14566476D01*
X2987381Y-14566476D02*
X2987381Y-14366476D01*
X2987381Y-14366476D02*
X2968333Y-14395048D01*
X2968333Y-14395048D02*
X2949286Y-14414095D01*
X2949286Y-14414095D02*
X2930238Y-14423619D01*
X3120714Y-14366476D02*
X3120714Y-14404571D01*
X3196905Y-14366476D02*
X3196905Y-14404571D01*
X3459762Y-14642667D02*
X3450238Y-14633143D01*
X3450238Y-14633143D02*
X3431191Y-14604571D01*
X3431191Y-14604571D02*
X3421667Y-14585524D01*
X3421667Y-14585524D02*
X3412143Y-14556952D01*
X3412143Y-14556952D02*
X3402619Y-14509333D01*
X3402619Y-14509333D02*
X3402619Y-14471238D01*
X3402619Y-14471238D02*
X3412143Y-14423619D01*
X3412143Y-14423619D02*
X3421667Y-14395048D01*
X3421667Y-14395048D02*
X3431191Y-14376000D01*
X3431191Y-14376000D02*
X3450238Y-14347428D01*
X3450238Y-14347428D02*
X3459762Y-14337905D01*
X3526429Y-14385524D02*
X3535952Y-14376000D01*
X3535952Y-14376000D02*
X3555000Y-14366476D01*
X3555000Y-14366476D02*
X3602619Y-14366476D01*
X3602619Y-14366476D02*
X3621667Y-14376000D01*
X3621667Y-14376000D02*
X3631191Y-14385524D01*
X3631191Y-14385524D02*
X3640714Y-14404571D01*
X3640714Y-14404571D02*
X3640714Y-14423619D01*
X3640714Y-14423619D02*
X3631191Y-14452190D01*
X3631191Y-14452190D02*
X3516905Y-14566476D01*
X3516905Y-14566476D02*
X3640714Y-14566476D01*
X3846429Y-14566476D02*
X3846429Y-14366476D01*
X3932143Y-14566476D02*
X3932143Y-14461714D01*
X3932143Y-14461714D02*
X3922619Y-14442667D01*
X3922619Y-14442667D02*
X3903572Y-14433143D01*
X3903572Y-14433143D02*
X3875000Y-14433143D01*
X3875000Y-14433143D02*
X3855952Y-14442667D01*
X3855952Y-14442667D02*
X3846429Y-14452190D01*
X4055952Y-14566476D02*
X4036905Y-14556952D01*
X4036905Y-14556952D02*
X4027381Y-14547428D01*
X4027381Y-14547428D02*
X4017857Y-14528381D01*
X4017857Y-14528381D02*
X4017857Y-14471238D01*
X4017857Y-14471238D02*
X4027381Y-14452190D01*
X4027381Y-14452190D02*
X4036905Y-14442667D01*
X4036905Y-14442667D02*
X4055952Y-14433143D01*
X4055952Y-14433143D02*
X4084524Y-14433143D01*
X4084524Y-14433143D02*
X4103572Y-14442667D01*
X4103572Y-14442667D02*
X4113095Y-14452190D01*
X4113095Y-14452190D02*
X4122619Y-14471238D01*
X4122619Y-14471238D02*
X4122619Y-14528381D01*
X4122619Y-14528381D02*
X4113095Y-14547428D01*
X4113095Y-14547428D02*
X4103572Y-14556952D01*
X4103572Y-14556952D02*
X4084524Y-14566476D01*
X4084524Y-14566476D02*
X4055952Y-14566476D01*
X4236905Y-14566476D02*
X4217857Y-14556952D01*
X4217857Y-14556952D02*
X4208334Y-14537905D01*
X4208334Y-14537905D02*
X4208334Y-14366476D01*
X4389286Y-14556952D02*
X4370238Y-14566476D01*
X4370238Y-14566476D02*
X4332143Y-14566476D01*
X4332143Y-14566476D02*
X4313095Y-14556952D01*
X4313095Y-14556952D02*
X4303572Y-14537905D01*
X4303572Y-14537905D02*
X4303572Y-14461714D01*
X4303572Y-14461714D02*
X4313095Y-14442667D01*
X4313095Y-14442667D02*
X4332143Y-14433143D01*
X4332143Y-14433143D02*
X4370238Y-14433143D01*
X4370238Y-14433143D02*
X4389286Y-14442667D01*
X4389286Y-14442667D02*
X4398810Y-14461714D01*
X4398810Y-14461714D02*
X4398810Y-14480762D01*
X4398810Y-14480762D02*
X4303572Y-14499809D01*
X4475000Y-14556952D02*
X4494048Y-14566476D01*
X4494048Y-14566476D02*
X4532143Y-14566476D01*
X4532143Y-14566476D02*
X4551191Y-14556952D01*
X4551191Y-14556952D02*
X4560715Y-14537905D01*
X4560715Y-14537905D02*
X4560715Y-14528381D01*
X4560715Y-14528381D02*
X4551191Y-14509333D01*
X4551191Y-14509333D02*
X4532143Y-14499809D01*
X4532143Y-14499809D02*
X4503572Y-14499809D01*
X4503572Y-14499809D02*
X4484524Y-14490286D01*
X4484524Y-14490286D02*
X4475000Y-14471238D01*
X4475000Y-14471238D02*
X4475000Y-14461714D01*
X4475000Y-14461714D02*
X4484524Y-14442667D01*
X4484524Y-14442667D02*
X4503572Y-14433143D01*
X4503572Y-14433143D02*
X4532143Y-14433143D01*
X4532143Y-14433143D02*
X4551191Y-14442667D01*
X4627381Y-14642667D02*
X4636905Y-14633143D01*
X4636905Y-14633143D02*
X4655953Y-14604571D01*
X4655953Y-14604571D02*
X4665476Y-14585524D01*
X4665476Y-14585524D02*
X4675000Y-14556952D01*
X4675000Y-14556952D02*
X4684524Y-14509333D01*
X4684524Y-14509333D02*
X4684524Y-14471238D01*
X4684524Y-14471238D02*
X4675000Y-14423619D01*
X4675000Y-14423619D02*
X4665476Y-14395048D01*
X4665476Y-14395048D02*
X4655953Y-14376000D01*
X4655953Y-14376000D02*
X4636905Y-14347428D01*
X4636905Y-14347428D02*
X4627381Y-14337905D01*
D19*
X-165000Y-14677000D02*
X-5000Y-14837000D01*
X-5000Y-14677000D02*
X-165000Y-14837000D01*
X-85000Y-14837000D02*
X-5000Y-14757000D01*
X-85000Y-14677000D01*
X-165000Y-14757000D01*
X-85000Y-14837000D01*
D11*
X347381Y-14830476D02*
X233095Y-14830476D01*
X290238Y-14830476D02*
X290238Y-14630476D01*
X290238Y-14630476D02*
X271190Y-14659048D01*
X271190Y-14659048D02*
X252143Y-14678095D01*
X252143Y-14678095D02*
X233095Y-14687619D01*
X433095Y-14811428D02*
X442619Y-14820952D01*
X442619Y-14820952D02*
X433095Y-14830476D01*
X433095Y-14830476D02*
X423571Y-14820952D01*
X423571Y-14820952D02*
X433095Y-14811428D01*
X433095Y-14811428D02*
X433095Y-14830476D01*
X614048Y-14630476D02*
X575952Y-14630476D01*
X575952Y-14630476D02*
X556905Y-14640000D01*
X556905Y-14640000D02*
X547381Y-14649524D01*
X547381Y-14649524D02*
X528333Y-14678095D01*
X528333Y-14678095D02*
X518809Y-14716190D01*
X518809Y-14716190D02*
X518809Y-14792381D01*
X518809Y-14792381D02*
X528333Y-14811428D01*
X528333Y-14811428D02*
X537857Y-14820952D01*
X537857Y-14820952D02*
X556905Y-14830476D01*
X556905Y-14830476D02*
X595000Y-14830476D01*
X595000Y-14830476D02*
X614048Y-14820952D01*
X614048Y-14820952D02*
X623571Y-14811428D01*
X623571Y-14811428D02*
X633095Y-14792381D01*
X633095Y-14792381D02*
X633095Y-14744762D01*
X633095Y-14744762D02*
X623571Y-14725714D01*
X623571Y-14725714D02*
X614048Y-14716190D01*
X614048Y-14716190D02*
X595000Y-14706667D01*
X595000Y-14706667D02*
X556905Y-14706667D01*
X556905Y-14706667D02*
X537857Y-14716190D01*
X537857Y-14716190D02*
X528333Y-14725714D01*
X528333Y-14725714D02*
X518809Y-14744762D01*
X756905Y-14630476D02*
X775952Y-14630476D01*
X775952Y-14630476D02*
X795000Y-14640000D01*
X795000Y-14640000D02*
X804524Y-14649524D01*
X804524Y-14649524D02*
X814048Y-14668571D01*
X814048Y-14668571D02*
X823571Y-14706667D01*
X823571Y-14706667D02*
X823571Y-14754286D01*
X823571Y-14754286D02*
X814048Y-14792381D01*
X814048Y-14792381D02*
X804524Y-14811428D01*
X804524Y-14811428D02*
X795000Y-14820952D01*
X795000Y-14820952D02*
X775952Y-14830476D01*
X775952Y-14830476D02*
X756905Y-14830476D01*
X756905Y-14830476D02*
X737857Y-14820952D01*
X737857Y-14820952D02*
X728333Y-14811428D01*
X728333Y-14811428D02*
X718809Y-14792381D01*
X718809Y-14792381D02*
X709286Y-14754286D01*
X709286Y-14754286D02*
X709286Y-14706667D01*
X709286Y-14706667D02*
X718809Y-14668571D01*
X718809Y-14668571D02*
X728333Y-14649524D01*
X728333Y-14649524D02*
X737857Y-14640000D01*
X737857Y-14640000D02*
X756905Y-14630476D01*
X947381Y-14630476D02*
X966429Y-14630476D01*
X966429Y-14630476D02*
X985476Y-14640000D01*
X985476Y-14640000D02*
X995000Y-14649524D01*
X995000Y-14649524D02*
X1004524Y-14668571D01*
X1004524Y-14668571D02*
X1014048Y-14706667D01*
X1014048Y-14706667D02*
X1014048Y-14754286D01*
X1014048Y-14754286D02*
X1004524Y-14792381D01*
X1004524Y-14792381D02*
X995000Y-14811428D01*
X995000Y-14811428D02*
X985476Y-14820952D01*
X985476Y-14820952D02*
X966429Y-14830476D01*
X966429Y-14830476D02*
X947381Y-14830476D01*
X947381Y-14830476D02*
X928333Y-14820952D01*
X928333Y-14820952D02*
X918809Y-14811428D01*
X918809Y-14811428D02*
X909286Y-14792381D01*
X909286Y-14792381D02*
X899762Y-14754286D01*
X899762Y-14754286D02*
X899762Y-14706667D01*
X899762Y-14706667D02*
X909286Y-14668571D01*
X909286Y-14668571D02*
X918809Y-14649524D01*
X918809Y-14649524D02*
X928333Y-14640000D01*
X928333Y-14640000D02*
X947381Y-14630476D01*
X1099762Y-14830476D02*
X1099762Y-14697143D01*
X1099762Y-14716190D02*
X1109286Y-14706667D01*
X1109286Y-14706667D02*
X1128333Y-14697143D01*
X1128333Y-14697143D02*
X1156905Y-14697143D01*
X1156905Y-14697143D02*
X1175952Y-14706667D01*
X1175952Y-14706667D02*
X1185476Y-14725714D01*
X1185476Y-14725714D02*
X1185476Y-14830476D01*
X1185476Y-14725714D02*
X1195000Y-14706667D01*
X1195000Y-14706667D02*
X1214048Y-14697143D01*
X1214048Y-14697143D02*
X1242619Y-14697143D01*
X1242619Y-14697143D02*
X1261667Y-14706667D01*
X1261667Y-14706667D02*
X1271191Y-14725714D01*
X1271191Y-14725714D02*
X1271191Y-14830476D01*
X1366429Y-14830476D02*
X1366429Y-14697143D01*
X1366429Y-14716190D02*
X1375952Y-14706667D01*
X1375952Y-14706667D02*
X1395000Y-14697143D01*
X1395000Y-14697143D02*
X1423571Y-14697143D01*
X1423571Y-14697143D02*
X1442619Y-14706667D01*
X1442619Y-14706667D02*
X1452143Y-14725714D01*
X1452143Y-14725714D02*
X1452143Y-14830476D01*
X1452143Y-14725714D02*
X1461667Y-14706667D01*
X1461667Y-14706667D02*
X1480714Y-14697143D01*
X1480714Y-14697143D02*
X1509286Y-14697143D01*
X1509286Y-14697143D02*
X1528333Y-14706667D01*
X1528333Y-14706667D02*
X1537857Y-14725714D01*
X1537857Y-14725714D02*
X1537857Y-14830476D01*
X1895952Y-14620952D02*
X1724524Y-14878095D01*
X2120714Y-14630476D02*
X2139762Y-14630476D01*
X2139762Y-14630476D02*
X2158810Y-14640000D01*
X2158810Y-14640000D02*
X2168333Y-14649524D01*
X2168333Y-14649524D02*
X2177857Y-14668571D01*
X2177857Y-14668571D02*
X2187381Y-14706667D01*
X2187381Y-14706667D02*
X2187381Y-14754286D01*
X2187381Y-14754286D02*
X2177857Y-14792381D01*
X2177857Y-14792381D02*
X2168333Y-14811428D01*
X2168333Y-14811428D02*
X2158810Y-14820952D01*
X2158810Y-14820952D02*
X2139762Y-14830476D01*
X2139762Y-14830476D02*
X2120714Y-14830476D01*
X2120714Y-14830476D02*
X2101667Y-14820952D01*
X2101667Y-14820952D02*
X2092143Y-14811428D01*
X2092143Y-14811428D02*
X2082619Y-14792381D01*
X2082619Y-14792381D02*
X2073095Y-14754286D01*
X2073095Y-14754286D02*
X2073095Y-14706667D01*
X2073095Y-14706667D02*
X2082619Y-14668571D01*
X2082619Y-14668571D02*
X2092143Y-14649524D01*
X2092143Y-14649524D02*
X2101667Y-14640000D01*
X2101667Y-14640000D02*
X2120714Y-14630476D01*
X2273095Y-14811428D02*
X2282619Y-14820952D01*
X2282619Y-14820952D02*
X2273095Y-14830476D01*
X2273095Y-14830476D02*
X2263572Y-14820952D01*
X2263572Y-14820952D02*
X2273095Y-14811428D01*
X2273095Y-14811428D02*
X2273095Y-14830476D01*
X2406429Y-14630476D02*
X2425476Y-14630476D01*
X2425476Y-14630476D02*
X2444524Y-14640000D01*
X2444524Y-14640000D02*
X2454048Y-14649524D01*
X2454048Y-14649524D02*
X2463572Y-14668571D01*
X2463572Y-14668571D02*
X2473095Y-14706667D01*
X2473095Y-14706667D02*
X2473095Y-14754286D01*
X2473095Y-14754286D02*
X2463572Y-14792381D01*
X2463572Y-14792381D02*
X2454048Y-14811428D01*
X2454048Y-14811428D02*
X2444524Y-14820952D01*
X2444524Y-14820952D02*
X2425476Y-14830476D01*
X2425476Y-14830476D02*
X2406429Y-14830476D01*
X2406429Y-14830476D02*
X2387381Y-14820952D01*
X2387381Y-14820952D02*
X2377857Y-14811428D01*
X2377857Y-14811428D02*
X2368333Y-14792381D01*
X2368333Y-14792381D02*
X2358810Y-14754286D01*
X2358810Y-14754286D02*
X2358810Y-14706667D01*
X2358810Y-14706667D02*
X2368333Y-14668571D01*
X2368333Y-14668571D02*
X2377857Y-14649524D01*
X2377857Y-14649524D02*
X2387381Y-14640000D01*
X2387381Y-14640000D02*
X2406429Y-14630476D01*
X2644524Y-14630476D02*
X2606429Y-14630476D01*
X2606429Y-14630476D02*
X2587381Y-14640000D01*
X2587381Y-14640000D02*
X2577857Y-14649524D01*
X2577857Y-14649524D02*
X2558810Y-14678095D01*
X2558810Y-14678095D02*
X2549286Y-14716190D01*
X2549286Y-14716190D02*
X2549286Y-14792381D01*
X2549286Y-14792381D02*
X2558810Y-14811428D01*
X2558810Y-14811428D02*
X2568333Y-14820952D01*
X2568333Y-14820952D02*
X2587381Y-14830476D01*
X2587381Y-14830476D02*
X2625476Y-14830476D01*
X2625476Y-14830476D02*
X2644524Y-14820952D01*
X2644524Y-14820952D02*
X2654048Y-14811428D01*
X2654048Y-14811428D02*
X2663572Y-14792381D01*
X2663572Y-14792381D02*
X2663572Y-14744762D01*
X2663572Y-14744762D02*
X2654048Y-14725714D01*
X2654048Y-14725714D02*
X2644524Y-14716190D01*
X2644524Y-14716190D02*
X2625476Y-14706667D01*
X2625476Y-14706667D02*
X2587381Y-14706667D01*
X2587381Y-14706667D02*
X2568333Y-14716190D01*
X2568333Y-14716190D02*
X2558810Y-14725714D01*
X2558810Y-14725714D02*
X2549286Y-14744762D01*
X2730238Y-14630476D02*
X2854048Y-14630476D01*
X2854048Y-14630476D02*
X2787381Y-14706667D01*
X2787381Y-14706667D02*
X2815952Y-14706667D01*
X2815952Y-14706667D02*
X2835000Y-14716190D01*
X2835000Y-14716190D02*
X2844524Y-14725714D01*
X2844524Y-14725714D02*
X2854048Y-14744762D01*
X2854048Y-14744762D02*
X2854048Y-14792381D01*
X2854048Y-14792381D02*
X2844524Y-14811428D01*
X2844524Y-14811428D02*
X2835000Y-14820952D01*
X2835000Y-14820952D02*
X2815952Y-14830476D01*
X2815952Y-14830476D02*
X2758810Y-14830476D01*
X2758810Y-14830476D02*
X2739762Y-14820952D01*
X2739762Y-14820952D02*
X2730238Y-14811428D01*
X2977857Y-14630476D02*
X2996905Y-14630476D01*
X2996905Y-14630476D02*
X3015952Y-14640000D01*
X3015952Y-14640000D02*
X3025476Y-14649524D01*
X3025476Y-14649524D02*
X3035000Y-14668571D01*
X3035000Y-14668571D02*
X3044524Y-14706667D01*
X3044524Y-14706667D02*
X3044524Y-14754286D01*
X3044524Y-14754286D02*
X3035000Y-14792381D01*
X3035000Y-14792381D02*
X3025476Y-14811428D01*
X3025476Y-14811428D02*
X3015952Y-14820952D01*
X3015952Y-14820952D02*
X2996905Y-14830476D01*
X2996905Y-14830476D02*
X2977857Y-14830476D01*
X2977857Y-14830476D02*
X2958810Y-14820952D01*
X2958810Y-14820952D02*
X2949286Y-14811428D01*
X2949286Y-14811428D02*
X2939762Y-14792381D01*
X2939762Y-14792381D02*
X2930238Y-14754286D01*
X2930238Y-14754286D02*
X2930238Y-14706667D01*
X2930238Y-14706667D02*
X2939762Y-14668571D01*
X2939762Y-14668571D02*
X2949286Y-14649524D01*
X2949286Y-14649524D02*
X2958810Y-14640000D01*
X2958810Y-14640000D02*
X2977857Y-14630476D01*
X3120714Y-14630476D02*
X3120714Y-14668571D01*
X3196905Y-14630476D02*
X3196905Y-14668571D01*
X3459762Y-14906667D02*
X3450238Y-14897143D01*
X3450238Y-14897143D02*
X3431191Y-14868571D01*
X3431191Y-14868571D02*
X3421667Y-14849524D01*
X3421667Y-14849524D02*
X3412143Y-14820952D01*
X3412143Y-14820952D02*
X3402619Y-14773333D01*
X3402619Y-14773333D02*
X3402619Y-14735238D01*
X3402619Y-14735238D02*
X3412143Y-14687619D01*
X3412143Y-14687619D02*
X3421667Y-14659048D01*
X3421667Y-14659048D02*
X3431191Y-14640000D01*
X3431191Y-14640000D02*
X3450238Y-14611428D01*
X3450238Y-14611428D02*
X3459762Y-14601905D01*
X3526429Y-14649524D02*
X3535952Y-14640000D01*
X3535952Y-14640000D02*
X3555000Y-14630476D01*
X3555000Y-14630476D02*
X3602619Y-14630476D01*
X3602619Y-14630476D02*
X3621667Y-14640000D01*
X3621667Y-14640000D02*
X3631191Y-14649524D01*
X3631191Y-14649524D02*
X3640714Y-14668571D01*
X3640714Y-14668571D02*
X3640714Y-14687619D01*
X3640714Y-14687619D02*
X3631191Y-14716190D01*
X3631191Y-14716190D02*
X3516905Y-14830476D01*
X3516905Y-14830476D02*
X3640714Y-14830476D01*
X3846429Y-14830476D02*
X3846429Y-14630476D01*
X3932143Y-14830476D02*
X3932143Y-14725714D01*
X3932143Y-14725714D02*
X3922619Y-14706667D01*
X3922619Y-14706667D02*
X3903572Y-14697143D01*
X3903572Y-14697143D02*
X3875000Y-14697143D01*
X3875000Y-14697143D02*
X3855952Y-14706667D01*
X3855952Y-14706667D02*
X3846429Y-14716190D01*
X4055952Y-14830476D02*
X4036905Y-14820952D01*
X4036905Y-14820952D02*
X4027381Y-14811428D01*
X4027381Y-14811428D02*
X4017857Y-14792381D01*
X4017857Y-14792381D02*
X4017857Y-14735238D01*
X4017857Y-14735238D02*
X4027381Y-14716190D01*
X4027381Y-14716190D02*
X4036905Y-14706667D01*
X4036905Y-14706667D02*
X4055952Y-14697143D01*
X4055952Y-14697143D02*
X4084524Y-14697143D01*
X4084524Y-14697143D02*
X4103572Y-14706667D01*
X4103572Y-14706667D02*
X4113095Y-14716190D01*
X4113095Y-14716190D02*
X4122619Y-14735238D01*
X4122619Y-14735238D02*
X4122619Y-14792381D01*
X4122619Y-14792381D02*
X4113095Y-14811428D01*
X4113095Y-14811428D02*
X4103572Y-14820952D01*
X4103572Y-14820952D02*
X4084524Y-14830476D01*
X4084524Y-14830476D02*
X4055952Y-14830476D01*
X4236905Y-14830476D02*
X4217857Y-14820952D01*
X4217857Y-14820952D02*
X4208334Y-14801905D01*
X4208334Y-14801905D02*
X4208334Y-14630476D01*
X4389286Y-14820952D02*
X4370238Y-14830476D01*
X4370238Y-14830476D02*
X4332143Y-14830476D01*
X4332143Y-14830476D02*
X4313095Y-14820952D01*
X4313095Y-14820952D02*
X4303572Y-14801905D01*
X4303572Y-14801905D02*
X4303572Y-14725714D01*
X4303572Y-14725714D02*
X4313095Y-14706667D01*
X4313095Y-14706667D02*
X4332143Y-14697143D01*
X4332143Y-14697143D02*
X4370238Y-14697143D01*
X4370238Y-14697143D02*
X4389286Y-14706667D01*
X4389286Y-14706667D02*
X4398810Y-14725714D01*
X4398810Y-14725714D02*
X4398810Y-14744762D01*
X4398810Y-14744762D02*
X4303572Y-14763809D01*
X4475000Y-14820952D02*
X4494048Y-14830476D01*
X4494048Y-14830476D02*
X4532143Y-14830476D01*
X4532143Y-14830476D02*
X4551191Y-14820952D01*
X4551191Y-14820952D02*
X4560715Y-14801905D01*
X4560715Y-14801905D02*
X4560715Y-14792381D01*
X4560715Y-14792381D02*
X4551191Y-14773333D01*
X4551191Y-14773333D02*
X4532143Y-14763809D01*
X4532143Y-14763809D02*
X4503572Y-14763809D01*
X4503572Y-14763809D02*
X4484524Y-14754286D01*
X4484524Y-14754286D02*
X4475000Y-14735238D01*
X4475000Y-14735238D02*
X4475000Y-14725714D01*
X4475000Y-14725714D02*
X4484524Y-14706667D01*
X4484524Y-14706667D02*
X4503572Y-14697143D01*
X4503572Y-14697143D02*
X4532143Y-14697143D01*
X4532143Y-14697143D02*
X4551191Y-14706667D01*
X4627381Y-14906667D02*
X4636905Y-14897143D01*
X4636905Y-14897143D02*
X4655953Y-14868571D01*
X4655953Y-14868571D02*
X4665476Y-14849524D01*
X4665476Y-14849524D02*
X4675000Y-14820952D01*
X4675000Y-14820952D02*
X4684524Y-14773333D01*
X4684524Y-14773333D02*
X4684524Y-14735238D01*
X4684524Y-14735238D02*
X4675000Y-14687619D01*
X4675000Y-14687619D02*
X4665476Y-14659048D01*
X4665476Y-14659048D02*
X4655953Y-14640000D01*
X4655953Y-14640000D02*
X4636905Y-14611428D01*
X4636905Y-14611428D02*
X4627381Y-14601905D01*
M02*
