M48
; DRILL file {KiCad (7.0.0-0)} date Sunday, March 19, 2023 11:13:46 PM
; FORMAT={-:-/ absolute / inch / decimal}
; #@! TF.CreationDate,2023-03-19T23:13:46+09:00
; #@! TF.GenerationSoftware,Kicad,Pcbnew,(7.0.0-0)
; #@! TF.FileFunction,Plated,1,2,PTH
FMAT,2
INCH
; #@! TA.AperFunction,Plated,PTH,ViaDrill
T1C0.0157
; #@! TA.AperFunction,Plated,PTH,ComponentDrill
T2C0.0276
; #@! TA.AperFunction,Plated,PTH,ComponentDrill
T3C0.0295
; #@! TA.AperFunction,Plated,PTH,ComponentDrill
T4C0.0315
; #@! TA.AperFunction,Plated,PTH,ComponentDrill
T5C0.0354
; #@! TA.AperFunction,Plated,PTH,ComponentDrill
T6C0.0374
; #@! TA.AperFunction,Plated,PTH,ComponentDrill
T7C0.0394
; #@! TA.AperFunction,Plated,PTH,ComponentDrill
T8C0.0402
; #@! TA.AperFunction,Plated,PTH,ComponentDrill
T9C0.0551
; #@! TA.AperFunction,Plated,PTH,ComponentDrill
T10C0.0630
%
G90
G05
T1
X0.0382Y-0.8548
X0.0422Y-1.3388
X0.0422Y-1.7408
X0.0422Y-2.6748
X0.0462Y-0.3248
X0.0462Y-2.1608
X0.0462Y-3.1128
X0.0462Y-3.4328
X0.0482Y-3.8448
X0.0522Y-4.1568
X0.0542Y-4.3688
X0.1622Y-3.5428
X0.1644Y-3.3848
X0.1922Y-2.0648
X0.1962Y-1.7428
X0.2022Y-4.0248
X0.2144Y-3.3656
X0.2582Y-4.2508
X0.2802Y-1.8908
X0.2822Y-3.2888
X0.2842Y-1.5808
X0.2942Y-4.6768
X0.3242Y-0.0488
X0.3362Y-1.0008
X0.4062Y-0.5188
X0.4382Y-3.2068
X0.4982Y-4.5608
X0.5162Y-3.7108
X0.5942Y-0.8708
X0.5942Y-2.5708
X0.5942Y-2.7948
X0.5962Y-3.0268
X0.6542Y-4.2168
X0.6602Y-4.6768
X0.6922Y-2.3608
X0.6982Y-3.3028
X0.7262Y-2.3608
X0.7262Y-3.5488
X0.7322Y-0.0488
X0.7602Y-2.3608
X0.7802Y-1.5288
X0.7822Y-2.4628
X0.7942Y-2.3608
X0.8002Y-2.0908
X0.8002Y-3.8268
X0.8082Y-1.3608
X0.8142Y-2.7968
X0.8162Y-3.6668
X0.8202Y-1.8468
X0.8442Y-3.0288
X0.8442Y-3.2108
X0.8782Y-0.3928
X0.9082Y-3.3988
X0.9162Y-2.5928
X0.9502Y-3.8348
X0.9622Y-4.0448
X0.9682Y-0.5888
X1.0042Y-1.1628
X1.0142Y-3.0348
X1.0302Y-2.4048
X1.0322Y-1.5848
X1.0342Y-3.4968
X1.0362Y-2.8028
X1.0402Y-2.0208
X1.0462Y-3.3028
X1.0462Y-4.4468
X1.0602Y-3.2108
X1.0682Y-0.3588
X1.0722Y-4.6788
X1.1442Y-4.2268
X1.1582Y-0.0388
X1.2282Y-1.0928
X1.255Y-3.01
X1.2562Y-3.3208
X1.2762Y-2.5628
X1.3002Y-1.4388
X1.3482Y-0.5868
X1.3562Y-3.5748
X1.3622Y-0.2148
X1.3642Y-0.3988
X1.4162Y-3.9948
X1.4622Y-4.5568
X1.4642Y-2.8568
X1.4842Y-4.3268
X1.5042Y-2.6548
X1.5062Y-2.4248
X1.5122Y-3.0228
X1.5162Y-3.3688
X1.5322Y-2.8048
X1.5382Y-0.7188
X1.5802Y-0.0448
X1.5882Y-4.6808
X1.5942Y-1.6788
X1.5982Y-1.9268
X1.6142Y-3.7588
X1.6742Y-1.5328
X1.7082Y-0.5688
X1.7122Y-1.2668
X1.7442Y-1.7128
X1.7562Y-2.3508
X1.7582Y-3.6168
X1.7662Y-2.1648
X1.7682Y-1.8508
X1.7682Y-3.0048
X1.7722Y-2.7788
X1.7722Y-2.8628
X1.7862Y-3.1388
X1.7922Y-0.3028
X1.8142Y-3.3988
X1.8322Y-1.6148
X1.8702Y-1.9348
X1.8902Y-1.7308
X1.8942Y-1.0228
X1.9062Y-0.0508
X1.9062Y-2.4608
X1.9082Y-2.6688
X1.9242Y-2.8248
X1.9242Y-4.6828
X1.9342Y-2.0788
X1.9602Y-1.8588
X1.9602Y-2.3408
X1.9782Y-1.2828
X2.0422Y-1.6068
X2.0962Y-1.8988
X2.0982Y-0.8368
X2.1202Y-2.4768
X2.1202Y-2.6628
X2.1402Y-3.0728
X2.1962Y-2.3448
X2.2082Y-3.9768
X2.2242Y-2.2068
X2.2942Y-4.6808
X2.2962Y-0.9688
X2.3062Y-2.8588
X2.3222Y-1.7088
X2.3422Y-0.0448
X2.3862Y-3.2668
X2.4362Y-1.2128
X2.4502Y-3.9908
X2.4602Y-2.3428
X2.4642Y-2.0208
X2.4822Y-4.1668
X2.4842Y-2.9968
X2.4942Y-2.5028
X2.4982Y-2.6628
X2.5622Y-1.6468
X2.5642Y-0.8148
X2.5742Y-0.5788
X2.6002Y-1.8448
X2.6222Y-4.3968
X2.6602Y-3.2808
X2.6642Y-0.2888
X2.6822Y-1.3988
X2.6962Y-2.3548
X2.6982Y-1.4968
X2.7002Y-2.5368
X2.7022Y-2.2348
X2.7022Y-2.6588
X2.7042Y-2.9188
X2.7362Y-1.8068
X2.7362Y-2.1088
X2.7722Y-4.6708
X2.7842Y-0.0428
X2.7882Y-1.1308
X2.8542Y-3.1288
X2.9902Y-3.0548
X2.9962Y-2.5548
X3.0062Y-3.5388
X3.0222Y-0.6748
X3.0982Y-2.4568
X3.1022Y-3.1728
X3.1122Y-2.6268
X3.1182Y-2.8188
X3.1262Y-0.3588
X3.1402Y-1.8808
X3.1402Y-2.1828
X3.1742Y-4.6668
X3.1782Y-0.0468
X3.2802Y-3.7068
X3.2942Y-4.1368
X3.4122Y-3.1408
X3.4122Y-3.4948
X3.4142Y-2.3608
X3.4162Y-0.5008
X3.4162Y-2.6888
X3.4182Y-0.9048
X3.4182Y-3.8748
X3.4202Y-0.2748
X3.4202Y-1.4328
X3.4202Y-2.0768
X3.4202Y-4.4468
X3.4222Y-1.6968
X3.4242Y-1.1268
T2
X0.3594Y-3.4289
X0.3594Y-3.6289
X0.6444Y-3.7439
X0.6444Y-3.9439
X0.98Y-0.745
X0.98Y-0.945
X1.145Y-0.74
X1.145Y-0.94
X1.315Y-0.745
X1.315Y-0.945
X1.9094Y-3.6439
X1.9094Y-3.8439
X2.0694Y-3.6439
X2.0694Y-3.8439
X2.11Y-1.795
X2.12Y-1.63
X2.125Y-1.475
X2.13Y-1.145
X2.13Y-1.315
X2.2262Y-3.6428
X2.2262Y-3.8428
X2.31Y-1.795
X2.32Y-1.63
X2.325Y-1.475
X2.33Y-1.145
X2.33Y-1.315
X2.3744Y-3.6389
X2.3744Y-3.8389
X2.6094Y-3.6489
X2.6094Y-3.8489
X2.6144Y-3.9939
X2.6144Y-4.1939
X2.7694Y-3.9989
X2.7694Y-4.1989
T3
X0.5444Y-3.5339
X0.5944Y-3.4839
X0.6444Y-3.5339
X0.745Y-0.535
X0.795Y-0.585
X0.845Y-0.535
X1.12Y-0.535
X1.17Y-0.585
X1.22Y-0.535
T4
X1.3686Y-2.359
X1.3686Y-2.459
X1.3686Y-2.559
X1.3686Y-2.659
X1.3686Y-2.759
X1.3686Y-2.859
X1.3686Y-2.959
X1.3854Y-1.7946
X1.3854Y-1.8946
X1.3854Y-1.9946
X1.3854Y-2.0946
X1.4658Y-3.23
X1.5642Y-3.23
X1.6686Y-2.359
X1.6686Y-2.459
X1.6686Y-2.559
X1.6686Y-2.659
X1.6686Y-2.759
X1.6686Y-2.859
X1.6686Y-2.959
X1.6854Y-1.7946
X1.6854Y-1.8946
X1.6854Y-1.9946
X1.6854Y-2.0946
X1.8952Y-4.3389
X1.9936Y-4.3389
T5
X0.3644Y-3.7591
X0.3644Y-3.8591
T6
X1.0192Y-0.2236
X1.1176Y-0.2236
X1.2161Y-0.2236
X1.6138Y-4.5521
X1.7122Y-4.5521
X1.8107Y-4.5521
X1.9091Y-4.5521
X2.0075Y-4.5521
X2.1059Y-4.5521
X2.2044Y-4.5521
X2.3028Y-4.5521
X3.2165Y-0.9016
X3.2165Y-1.0
X3.2165Y-1.0984
X3.2165Y-1.1969
X3.2165Y-2.475
X3.2165Y-2.5734
X3.2165Y-2.6719
X3.2165Y-2.7703
X3.2165Y-2.8687
X3.2165Y-2.9671
T7
X0.6042Y-0.2268
X0.7026Y-0.2268
X0.7859Y-4.5521
X0.8844Y-4.5521
X1.1867Y-4.5521
X1.2852Y-4.5521
X1.5208Y-0.2268
X1.5894Y-4.2039
X1.6192Y-0.2268
X1.6394Y-3.5039
X1.6894Y-4.2039
X1.7394Y-3.5039
X1.7894Y-4.2039
X1.8394Y-3.5039
X1.8894Y-4.2039
X1.9394Y-3.5039
X1.9894Y-4.2039
X2.01Y-0.3314
X2.01Y-0.5282
X2.0394Y-3.5039
X2.067Y-2.15
X2.0894Y-4.2039
X2.1394Y-3.5039
X2.1894Y-4.2039
X2.2394Y-3.5039
X2.2894Y-4.2039
X2.323Y-2.15
X2.3394Y-3.5039
X2.3894Y-4.2039
X2.3956Y-0.575
X2.8444Y-0.575
X3.2165Y-0.515
X3.2165Y-0.6134
T8
X0.4Y-1.26
X0.4Y-1.36
X0.4Y-1.46
X0.4Y-1.56
X0.4Y-1.66
X0.4Y-1.76
X0.4Y-1.86
X0.4Y-1.96
X0.4Y-2.06
X0.4Y-2.16
X0.4Y-2.26
X0.4Y-2.36
X0.4Y-2.46
X0.4Y-2.56
X0.4Y-2.66
X0.4Y-2.76
X0.4Y-2.86
X0.4Y-2.96
X0.4Y-3.06
X0.5Y-1.26
X0.5Y-1.36
X0.5Y-1.46
X0.5Y-1.56
X0.5Y-1.66
X0.5Y-1.76
X0.5Y-1.86
X0.5Y-1.96
X0.5Y-2.06
X0.5Y-2.16
X0.5Y-2.26
X0.5Y-2.36
X0.5Y-2.46
X0.5Y-2.56
X0.5Y-2.66
X0.5Y-2.76
X0.5Y-2.86
X0.5Y-2.96
X0.5Y-3.06
X2.8Y-1.26
X2.8Y-1.36
X2.8Y-1.46
X2.8Y-1.56
X2.8Y-1.66
X2.8Y-1.76
X2.8Y-1.86
X2.8Y-1.96
X2.8Y-2.06
X2.8Y-2.16
X2.8Y-2.26
X2.8Y-2.36
X2.8Y-2.46
X2.8Y-2.56
X2.8Y-2.66
X2.8Y-2.76
X2.8Y-2.86
X2.8Y-2.96
X2.8Y-3.06
X2.9Y-1.26
X2.9Y-1.36
X2.9Y-1.46
X2.9Y-1.56
X2.9Y-1.66
X2.9Y-1.76
X2.9Y-1.86
X2.9Y-1.96
X2.9Y-2.06
X2.9Y-2.16
X2.9Y-2.26
X2.9Y-2.36
X2.9Y-2.46
X2.9Y-2.56
X2.9Y-2.66
X2.9Y-2.76
X2.9Y-2.86
X2.9Y-2.96
X2.9Y-3.06
T9
X0.925Y-1.29
X0.925Y-1.69
X2.9544Y-3.9939
X2.9544Y-4.3939
T10
X2.326Y-0.2362
X2.926Y-0.2362
T0
M30
