%TF.GenerationSoftware,KiCad,Pcbnew,(7.0.0-0)*%
%TF.CreationDate,2023-03-19T23:14:05+09:00*%
%TF.ProjectId,Spct,53706374-2e6b-4696-9361-645f70636258,rev?*%
%TF.SameCoordinates,PX2540608PY1ee3f58*%
%TF.FileFunction,Legend,Bot*%
%TF.FilePolarity,Positive*%
%FSLAX46Y46*%
G04 Gerber Fmt 4.6, Leading zero omitted, Abs format (unit mm)*
G04 Created by KiCad (PCBNEW (7.0.0-0)) date 2023-03-19 23:14:05*
%MOMM*%
%LPD*%
G01*
G04 APERTURE LIST*
%ADD10C,0.200000*%
%ADD11C,0.150000*%
%ADD12C,0.100000*%
%ADD13C,0.120000*%
G04 APERTURE END LIST*
D10*
X85433257Y-63289257D02*
X85433257Y-62146400D01*
X84861828Y-62717828D02*
X86004685Y-62717828D01*
X85433257Y-75963857D02*
X85433257Y-74821000D01*
X78281542Y-77945057D02*
X78281542Y-77445057D01*
X77495828Y-77230771D02*
X77495828Y-77945057D01*
X77495828Y-77945057D02*
X78995828Y-77945057D01*
X78995828Y-77945057D02*
X78995828Y-77230771D01*
X77495828Y-76587914D02*
X78995828Y-76587914D01*
X78995828Y-76587914D02*
X77495828Y-75730771D01*
X77495828Y-75730771D02*
X78995828Y-75730771D01*
X77638685Y-74159342D02*
X77567257Y-74230770D01*
X77567257Y-74230770D02*
X77495828Y-74445056D01*
X77495828Y-74445056D02*
X77495828Y-74587913D01*
X77495828Y-74587913D02*
X77567257Y-74802199D01*
X77567257Y-74802199D02*
X77710114Y-74945056D01*
X77710114Y-74945056D02*
X77852971Y-75016485D01*
X77852971Y-75016485D02*
X78138685Y-75087913D01*
X78138685Y-75087913D02*
X78352971Y-75087913D01*
X78352971Y-75087913D02*
X78638685Y-75016485D01*
X78638685Y-75016485D02*
X78781542Y-74945056D01*
X78781542Y-74945056D02*
X78924400Y-74802199D01*
X78924400Y-74802199D02*
X78995828Y-74587913D01*
X78995828Y-74587913D02*
X78995828Y-74445056D01*
X78995828Y-74445056D02*
X78924400Y-74230770D01*
X78924400Y-74230770D02*
X78852971Y-74159342D01*
X78995828Y-73230770D02*
X78995828Y-72945056D01*
X78995828Y-72945056D02*
X78924400Y-72802199D01*
X78924400Y-72802199D02*
X78781542Y-72659342D01*
X78781542Y-72659342D02*
X78495828Y-72587913D01*
X78495828Y-72587913D02*
X77995828Y-72587913D01*
X77995828Y-72587913D02*
X77710114Y-72659342D01*
X77710114Y-72659342D02*
X77567257Y-72802199D01*
X77567257Y-72802199D02*
X77495828Y-72945056D01*
X77495828Y-72945056D02*
X77495828Y-73230770D01*
X77495828Y-73230770D02*
X77567257Y-73373628D01*
X77567257Y-73373628D02*
X77710114Y-73516485D01*
X77710114Y-73516485D02*
X77995828Y-73587913D01*
X77995828Y-73587913D02*
X78495828Y-73587913D01*
X78495828Y-73587913D02*
X78781542Y-73516485D01*
X78781542Y-73516485D02*
X78924400Y-73373628D01*
X78924400Y-73373628D02*
X78995828Y-73230770D01*
X77495828Y-71945056D02*
X78995828Y-71945056D01*
X78995828Y-71945056D02*
X78995828Y-71587913D01*
X78995828Y-71587913D02*
X78924400Y-71373627D01*
X78924400Y-71373627D02*
X78781542Y-71230770D01*
X78781542Y-71230770D02*
X78638685Y-71159341D01*
X78638685Y-71159341D02*
X78352971Y-71087913D01*
X78352971Y-71087913D02*
X78138685Y-71087913D01*
X78138685Y-71087913D02*
X77852971Y-71159341D01*
X77852971Y-71159341D02*
X77710114Y-71230770D01*
X77710114Y-71230770D02*
X77567257Y-71373627D01*
X77567257Y-71373627D02*
X77495828Y-71587913D01*
X77495828Y-71587913D02*
X77495828Y-71945056D01*
X78281542Y-70445056D02*
X78281542Y-69945056D01*
X77495828Y-69730770D02*
X77495828Y-70445056D01*
X77495828Y-70445056D02*
X78995828Y-70445056D01*
X78995828Y-70445056D02*
X78995828Y-69730770D01*
X77495828Y-68230770D02*
X78210114Y-68730770D01*
X77495828Y-69087913D02*
X78995828Y-69087913D01*
X78995828Y-69087913D02*
X78995828Y-68516484D01*
X78995828Y-68516484D02*
X78924400Y-68373627D01*
X78924400Y-68373627D02*
X78852971Y-68302198D01*
X78852971Y-68302198D02*
X78710114Y-68230770D01*
X78710114Y-68230770D02*
X78495828Y-68230770D01*
X78495828Y-68230770D02*
X78352971Y-68302198D01*
X78352971Y-68302198D02*
X78281542Y-68373627D01*
X78281542Y-68373627D02*
X78210114Y-68516484D01*
X78210114Y-68516484D02*
X78210114Y-69087913D01*
X32441542Y-119027257D02*
X33584400Y-119027257D01*
X33012971Y-118455828D02*
X33012971Y-119598685D01*
X30028542Y-119027257D02*
X31171400Y-119027257D01*
X60810257Y-112621371D02*
X60810257Y-111121371D01*
X60810257Y-111121371D02*
X60310257Y-112192800D01*
X60310257Y-112192800D02*
X59810257Y-111121371D01*
X59810257Y-111121371D02*
X59810257Y-112621371D01*
X58810256Y-111121371D02*
X58524542Y-111121371D01*
X58524542Y-111121371D02*
X58381685Y-111192800D01*
X58381685Y-111192800D02*
X58238828Y-111335657D01*
X58238828Y-111335657D02*
X58167399Y-111621371D01*
X58167399Y-111621371D02*
X58167399Y-112121371D01*
X58167399Y-112121371D02*
X58238828Y-112407085D01*
X58238828Y-112407085D02*
X58381685Y-112549942D01*
X58381685Y-112549942D02*
X58524542Y-112621371D01*
X58524542Y-112621371D02*
X58810256Y-112621371D01*
X58810256Y-112621371D02*
X58953114Y-112549942D01*
X58953114Y-112549942D02*
X59095971Y-112407085D01*
X59095971Y-112407085D02*
X59167399Y-112121371D01*
X59167399Y-112121371D02*
X59167399Y-111621371D01*
X59167399Y-111621371D02*
X59095971Y-111335657D01*
X59095971Y-111335657D02*
X58953114Y-111192800D01*
X58953114Y-111192800D02*
X58810256Y-111121371D01*
X57738827Y-111121371D02*
X56881685Y-111121371D01*
X57310256Y-112621371D02*
X57310256Y-111121371D01*
X56095970Y-111121371D02*
X55810256Y-111121371D01*
X55810256Y-111121371D02*
X55667399Y-111192800D01*
X55667399Y-111192800D02*
X55524542Y-111335657D01*
X55524542Y-111335657D02*
X55453113Y-111621371D01*
X55453113Y-111621371D02*
X55453113Y-112121371D01*
X55453113Y-112121371D02*
X55524542Y-112407085D01*
X55524542Y-112407085D02*
X55667399Y-112549942D01*
X55667399Y-112549942D02*
X55810256Y-112621371D01*
X55810256Y-112621371D02*
X56095970Y-112621371D01*
X56095970Y-112621371D02*
X56238828Y-112549942D01*
X56238828Y-112549942D02*
X56381685Y-112407085D01*
X56381685Y-112407085D02*
X56453113Y-112121371D01*
X56453113Y-112121371D02*
X56453113Y-111621371D01*
X56453113Y-111621371D02*
X56381685Y-111335657D01*
X56381685Y-111335657D02*
X56238828Y-111192800D01*
X56238828Y-111192800D02*
X56095970Y-111121371D01*
X53953113Y-112621371D02*
X54453113Y-111907085D01*
X54810256Y-112621371D02*
X54810256Y-111121371D01*
X54810256Y-111121371D02*
X54238827Y-111121371D01*
X54238827Y-111121371D02*
X54095970Y-111192800D01*
X54095970Y-111192800D02*
X54024541Y-111264228D01*
X54024541Y-111264228D02*
X53953113Y-111407085D01*
X53953113Y-111407085D02*
X53953113Y-111621371D01*
X53953113Y-111621371D02*
X54024541Y-111764228D01*
X54024541Y-111764228D02*
X54095970Y-111835657D01*
X54095970Y-111835657D02*
X54238827Y-111907085D01*
X54238827Y-111907085D02*
X54810256Y-111907085D01*
X35359457Y-111886457D02*
X34859457Y-111886457D01*
X34645171Y-112672171D02*
X35359457Y-112672171D01*
X35359457Y-112672171D02*
X35359457Y-111172171D01*
X35359457Y-111172171D02*
X34645171Y-111172171D01*
X34073742Y-112600742D02*
X33859457Y-112672171D01*
X33859457Y-112672171D02*
X33502314Y-112672171D01*
X33502314Y-112672171D02*
X33359457Y-112600742D01*
X33359457Y-112600742D02*
X33288028Y-112529314D01*
X33288028Y-112529314D02*
X33216599Y-112386457D01*
X33216599Y-112386457D02*
X33216599Y-112243600D01*
X33216599Y-112243600D02*
X33288028Y-112100742D01*
X33288028Y-112100742D02*
X33359457Y-112029314D01*
X33359457Y-112029314D02*
X33502314Y-111957885D01*
X33502314Y-111957885D02*
X33788028Y-111886457D01*
X33788028Y-111886457D02*
X33930885Y-111815028D01*
X33930885Y-111815028D02*
X34002314Y-111743600D01*
X34002314Y-111743600D02*
X34073742Y-111600742D01*
X34073742Y-111600742D02*
X34073742Y-111457885D01*
X34073742Y-111457885D02*
X34002314Y-111315028D01*
X34002314Y-111315028D02*
X33930885Y-111243600D01*
X33930885Y-111243600D02*
X33788028Y-111172171D01*
X33788028Y-111172171D02*
X33430885Y-111172171D01*
X33430885Y-111172171D02*
X33216599Y-111243600D01*
X31716600Y-112529314D02*
X31788028Y-112600742D01*
X31788028Y-112600742D02*
X32002314Y-112672171D01*
X32002314Y-112672171D02*
X32145171Y-112672171D01*
X32145171Y-112672171D02*
X32359457Y-112600742D01*
X32359457Y-112600742D02*
X32502314Y-112457885D01*
X32502314Y-112457885D02*
X32573743Y-112315028D01*
X32573743Y-112315028D02*
X32645171Y-112029314D01*
X32645171Y-112029314D02*
X32645171Y-111815028D01*
X32645171Y-111815028D02*
X32573743Y-111529314D01*
X32573743Y-111529314D02*
X32502314Y-111386457D01*
X32502314Y-111386457D02*
X32359457Y-111243600D01*
X32359457Y-111243600D02*
X32145171Y-111172171D01*
X32145171Y-111172171D02*
X32002314Y-111172171D01*
X32002314Y-111172171D02*
X31788028Y-111243600D01*
X31788028Y-111243600D02*
X31716600Y-111315028D01*
X30173743Y-112672171D02*
X30173743Y-111172171D01*
X30173743Y-111172171D02*
X29602314Y-111172171D01*
X29602314Y-111172171D02*
X29459457Y-111243600D01*
X29459457Y-111243600D02*
X29388028Y-111315028D01*
X29388028Y-111315028D02*
X29316600Y-111457885D01*
X29316600Y-111457885D02*
X29316600Y-111672171D01*
X29316600Y-111672171D02*
X29388028Y-111815028D01*
X29388028Y-111815028D02*
X29459457Y-111886457D01*
X29459457Y-111886457D02*
X29602314Y-111957885D01*
X29602314Y-111957885D02*
X30173743Y-111957885D01*
X28816600Y-111172171D02*
X28459457Y-112672171D01*
X28459457Y-112672171D02*
X28173743Y-111600742D01*
X28173743Y-111600742D02*
X27888028Y-112672171D01*
X27888028Y-112672171D02*
X27530886Y-111172171D01*
X25555057Y-111886457D02*
X25055057Y-111886457D01*
X24840771Y-112672171D02*
X25555057Y-112672171D01*
X25555057Y-112672171D02*
X25555057Y-111172171D01*
X25555057Y-111172171D02*
X24840771Y-111172171D01*
X24269342Y-112600742D02*
X24055057Y-112672171D01*
X24055057Y-112672171D02*
X23697914Y-112672171D01*
X23697914Y-112672171D02*
X23555057Y-112600742D01*
X23555057Y-112600742D02*
X23483628Y-112529314D01*
X23483628Y-112529314D02*
X23412199Y-112386457D01*
X23412199Y-112386457D02*
X23412199Y-112243600D01*
X23412199Y-112243600D02*
X23483628Y-112100742D01*
X23483628Y-112100742D02*
X23555057Y-112029314D01*
X23555057Y-112029314D02*
X23697914Y-111957885D01*
X23697914Y-111957885D02*
X23983628Y-111886457D01*
X23983628Y-111886457D02*
X24126485Y-111815028D01*
X24126485Y-111815028D02*
X24197914Y-111743600D01*
X24197914Y-111743600D02*
X24269342Y-111600742D01*
X24269342Y-111600742D02*
X24269342Y-111457885D01*
X24269342Y-111457885D02*
X24197914Y-111315028D01*
X24197914Y-111315028D02*
X24126485Y-111243600D01*
X24126485Y-111243600D02*
X23983628Y-111172171D01*
X23983628Y-111172171D02*
X23626485Y-111172171D01*
X23626485Y-111172171D02*
X23412199Y-111243600D01*
X21912200Y-112529314D02*
X21983628Y-112600742D01*
X21983628Y-112600742D02*
X22197914Y-112672171D01*
X22197914Y-112672171D02*
X22340771Y-112672171D01*
X22340771Y-112672171D02*
X22555057Y-112600742D01*
X22555057Y-112600742D02*
X22697914Y-112457885D01*
X22697914Y-112457885D02*
X22769343Y-112315028D01*
X22769343Y-112315028D02*
X22840771Y-112029314D01*
X22840771Y-112029314D02*
X22840771Y-111815028D01*
X22840771Y-111815028D02*
X22769343Y-111529314D01*
X22769343Y-111529314D02*
X22697914Y-111386457D01*
X22697914Y-111386457D02*
X22555057Y-111243600D01*
X22555057Y-111243600D02*
X22340771Y-111172171D01*
X22340771Y-111172171D02*
X22197914Y-111172171D01*
X22197914Y-111172171D02*
X21983628Y-111243600D01*
X21983628Y-111243600D02*
X21912200Y-111315028D01*
X20440771Y-112600742D02*
X20226486Y-112672171D01*
X20226486Y-112672171D02*
X19869343Y-112672171D01*
X19869343Y-112672171D02*
X19726486Y-112600742D01*
X19726486Y-112600742D02*
X19655057Y-112529314D01*
X19655057Y-112529314D02*
X19583628Y-112386457D01*
X19583628Y-112386457D02*
X19583628Y-112243600D01*
X19583628Y-112243600D02*
X19655057Y-112100742D01*
X19655057Y-112100742D02*
X19726486Y-112029314D01*
X19726486Y-112029314D02*
X19869343Y-111957885D01*
X19869343Y-111957885D02*
X20155057Y-111886457D01*
X20155057Y-111886457D02*
X20297914Y-111815028D01*
X20297914Y-111815028D02*
X20369343Y-111743600D01*
X20369343Y-111743600D02*
X20440771Y-111600742D01*
X20440771Y-111600742D02*
X20440771Y-111457885D01*
X20440771Y-111457885D02*
X20369343Y-111315028D01*
X20369343Y-111315028D02*
X20297914Y-111243600D01*
X20297914Y-111243600D02*
X20155057Y-111172171D01*
X20155057Y-111172171D02*
X19797914Y-111172171D01*
X19797914Y-111172171D02*
X19583628Y-111243600D01*
X18940772Y-112672171D02*
X18940772Y-111172171D01*
X18940772Y-111172171D02*
X18369343Y-111172171D01*
X18369343Y-111172171D02*
X18226486Y-111243600D01*
X18226486Y-111243600D02*
X18155057Y-111315028D01*
X18155057Y-111315028D02*
X18083629Y-111457885D01*
X18083629Y-111457885D02*
X18083629Y-111672171D01*
X18083629Y-111672171D02*
X18155057Y-111815028D01*
X18155057Y-111815028D02*
X18226486Y-111886457D01*
X18226486Y-111886457D02*
X18369343Y-111957885D01*
X18369343Y-111957885D02*
X18940772Y-111957885D01*
X17440772Y-111886457D02*
X16940772Y-111886457D01*
X16726486Y-112672171D02*
X17440772Y-112672171D01*
X17440772Y-112672171D02*
X17440772Y-111172171D01*
X17440772Y-111172171D02*
X16726486Y-111172171D01*
X16083629Y-111886457D02*
X15583629Y-111886457D01*
X15369343Y-112672171D02*
X16083629Y-112672171D01*
X16083629Y-112672171D02*
X16083629Y-111172171D01*
X16083629Y-111172171D02*
X15369343Y-111172171D01*
X14726486Y-112672171D02*
X14726486Y-111172171D01*
X14726486Y-111172171D02*
X14369343Y-111172171D01*
X14369343Y-111172171D02*
X14155057Y-111243600D01*
X14155057Y-111243600D02*
X14012200Y-111386457D01*
X14012200Y-111386457D02*
X13940771Y-111529314D01*
X13940771Y-111529314D02*
X13869343Y-111815028D01*
X13869343Y-111815028D02*
X13869343Y-112029314D01*
X13869343Y-112029314D02*
X13940771Y-112315028D01*
X13940771Y-112315028D02*
X14012200Y-112457885D01*
X14012200Y-112457885D02*
X14155057Y-112600742D01*
X14155057Y-112600742D02*
X14369343Y-112672171D01*
X14369343Y-112672171D02*
X14726486Y-112672171D01*
X18620857Y-9168857D02*
X18120857Y-9168857D01*
X17906571Y-9954571D02*
X18620857Y-9954571D01*
X18620857Y-9954571D02*
X18620857Y-8454571D01*
X18620857Y-8454571D02*
X17906571Y-8454571D01*
X17263714Y-9954571D02*
X17263714Y-8454571D01*
X17263714Y-8454571D02*
X16763714Y-9526000D01*
X16763714Y-9526000D02*
X16263714Y-8454571D01*
X16263714Y-8454571D02*
X16263714Y-9954571D01*
X15263713Y-8454571D02*
X14977999Y-8454571D01*
X14977999Y-8454571D02*
X14835142Y-8526000D01*
X14835142Y-8526000D02*
X14692285Y-8668857D01*
X14692285Y-8668857D02*
X14620856Y-8954571D01*
X14620856Y-8954571D02*
X14620856Y-9454571D01*
X14620856Y-9454571D02*
X14692285Y-9740285D01*
X14692285Y-9740285D02*
X14835142Y-9883142D01*
X14835142Y-9883142D02*
X14977999Y-9954571D01*
X14977999Y-9954571D02*
X15263713Y-9954571D01*
X15263713Y-9954571D02*
X15406571Y-9883142D01*
X15406571Y-9883142D02*
X15549428Y-9740285D01*
X15549428Y-9740285D02*
X15620856Y-9454571D01*
X15620856Y-9454571D02*
X15620856Y-8954571D01*
X15620856Y-8954571D02*
X15549428Y-8668857D01*
X15549428Y-8668857D02*
X15406571Y-8526000D01*
X15406571Y-8526000D02*
X15263713Y-8454571D01*
X32249523Y-2268761D02*
X32106666Y-2316380D01*
X32106666Y-2316380D02*
X31868571Y-2316380D01*
X31868571Y-2316380D02*
X31773333Y-2268761D01*
X31773333Y-2268761D02*
X31725714Y-2221142D01*
X31725714Y-2221142D02*
X31678095Y-2125904D01*
X31678095Y-2125904D02*
X31678095Y-2030666D01*
X31678095Y-2030666D02*
X31725714Y-1935428D01*
X31725714Y-1935428D02*
X31773333Y-1887809D01*
X31773333Y-1887809D02*
X31868571Y-1840190D01*
X31868571Y-1840190D02*
X32059047Y-1792571D01*
X32059047Y-1792571D02*
X32154285Y-1744952D01*
X32154285Y-1744952D02*
X32201904Y-1697333D01*
X32201904Y-1697333D02*
X32249523Y-1602095D01*
X32249523Y-1602095D02*
X32249523Y-1506857D01*
X32249523Y-1506857D02*
X32201904Y-1411619D01*
X32201904Y-1411619D02*
X32154285Y-1364000D01*
X32154285Y-1364000D02*
X32059047Y-1316380D01*
X32059047Y-1316380D02*
X31820952Y-1316380D01*
X31820952Y-1316380D02*
X31678095Y-1364000D01*
X31249523Y-2316380D02*
X31249523Y-1316380D01*
X30249524Y-1364000D02*
X30344762Y-1316380D01*
X30344762Y-1316380D02*
X30487619Y-1316380D01*
X30487619Y-1316380D02*
X30630476Y-1364000D01*
X30630476Y-1364000D02*
X30725714Y-1459238D01*
X30725714Y-1459238D02*
X30773333Y-1554476D01*
X30773333Y-1554476D02*
X30820952Y-1744952D01*
X30820952Y-1744952D02*
X30820952Y-1887809D01*
X30820952Y-1887809D02*
X30773333Y-2078285D01*
X30773333Y-2078285D02*
X30725714Y-2173523D01*
X30725714Y-2173523D02*
X30630476Y-2268761D01*
X30630476Y-2268761D02*
X30487619Y-2316380D01*
X30487619Y-2316380D02*
X30392381Y-2316380D01*
X30392381Y-2316380D02*
X30249524Y-2268761D01*
X30249524Y-2268761D02*
X30201905Y-2221142D01*
X30201905Y-2221142D02*
X30201905Y-1887809D01*
X30201905Y-1887809D02*
X30392381Y-1887809D01*
X28907857Y-1636142D02*
X27765000Y-1636142D01*
X26494857Y-1636142D02*
X25352000Y-1636142D01*
X25923428Y-2207571D02*
X25923428Y-1064714D01*
X29971571Y-9827571D02*
X30685857Y-9827571D01*
X30685857Y-9827571D02*
X30685857Y-8327571D01*
X29471571Y-9827571D02*
X29471571Y-8327571D01*
X28757285Y-9827571D02*
X28757285Y-8327571D01*
X28757285Y-8327571D02*
X28400142Y-8327571D01*
X28400142Y-8327571D02*
X28185856Y-8399000D01*
X28185856Y-8399000D02*
X28042999Y-8541857D01*
X28042999Y-8541857D02*
X27971570Y-8684714D01*
X27971570Y-8684714D02*
X27900142Y-8970428D01*
X27900142Y-8970428D02*
X27900142Y-9184714D01*
X27900142Y-9184714D02*
X27971570Y-9470428D01*
X27971570Y-9470428D02*
X28042999Y-9613285D01*
X28042999Y-9613285D02*
X28185856Y-9756142D01*
X28185856Y-9756142D02*
X28400142Y-9827571D01*
X28400142Y-9827571D02*
X28757285Y-9827571D01*
X42584142Y-8581571D02*
X41727000Y-8581571D01*
X42155571Y-10081571D02*
X42155571Y-8581571D01*
X41227000Y-9295857D02*
X40727000Y-9295857D01*
X40512714Y-10081571D02*
X41227000Y-10081571D01*
X41227000Y-10081571D02*
X41227000Y-8581571D01*
X41227000Y-8581571D02*
X40512714Y-8581571D01*
X39869857Y-10081571D02*
X39869857Y-8581571D01*
X39869857Y-8581571D02*
X39369857Y-9653000D01*
X39369857Y-9653000D02*
X38869857Y-8581571D01*
X38869857Y-8581571D02*
X38869857Y-10081571D01*
X38155571Y-10081571D02*
X38155571Y-8581571D01*
X38155571Y-8581571D02*
X37584142Y-8581571D01*
X37584142Y-8581571D02*
X37441285Y-8653000D01*
X37441285Y-8653000D02*
X37369856Y-8724428D01*
X37369856Y-8724428D02*
X37298428Y-8867285D01*
X37298428Y-8867285D02*
X37298428Y-9081571D01*
X37298428Y-9081571D02*
X37369856Y-9224428D01*
X37369856Y-9224428D02*
X37441285Y-9295857D01*
X37441285Y-9295857D02*
X37584142Y-9367285D01*
X37584142Y-9367285D02*
X38155571Y-9367285D01*
D11*
X87000000Y-30200000D02*
X86612693Y-30043709D01*
X87000000Y-30200000D02*
X87000000Y-29800000D01*
X86600000Y-29600000D02*
X87000000Y-30200000D01*
X85600000Y-30000000D02*
X86400000Y-30000000D01*
X85600000Y-29200000D02*
X86000000Y-30000000D01*
X86400000Y-29200000D02*
X85600000Y-29200000D01*
X86000000Y-30000000D02*
X86400000Y-29200000D01*
X86000000Y-28000000D02*
X86000000Y-31000000D01*
X85858521Y-25110608D02*
G75*
G03*
X85858521Y-25110608I-296839J0D01*
G01*
X85827941Y-22578411D02*
G75*
G03*
X85827941Y-22578411I-296839J0D01*
G01*
X85531102Y-22578411D02*
X86330896Y-25130948D01*
D10*
X85897857Y-16142857D02*
X85897857Y-15000000D01*
X85897857Y-13542857D02*
X85897857Y-12400000D01*
X85326428Y-12971428D02*
X86469285Y-12971428D01*
X77626428Y-30642857D02*
X79126428Y-30642857D01*
X79126428Y-30642857D02*
X79126428Y-30071428D01*
X79126428Y-30071428D02*
X79055000Y-29928571D01*
X79055000Y-29928571D02*
X78983571Y-29857142D01*
X78983571Y-29857142D02*
X78840714Y-29785714D01*
X78840714Y-29785714D02*
X78626428Y-29785714D01*
X78626428Y-29785714D02*
X78483571Y-29857142D01*
X78483571Y-29857142D02*
X78412142Y-29928571D01*
X78412142Y-29928571D02*
X78340714Y-30071428D01*
X78340714Y-30071428D02*
X78340714Y-30642857D01*
X79126428Y-29285714D02*
X77626428Y-28928571D01*
X77626428Y-28928571D02*
X78697857Y-28642857D01*
X78697857Y-28642857D02*
X77626428Y-28357142D01*
X77626428Y-28357142D02*
X79126428Y-28000000D01*
X77626428Y-26571428D02*
X78340714Y-27071428D01*
X77626428Y-27428571D02*
X79126428Y-27428571D01*
X79126428Y-27428571D02*
X79126428Y-26857142D01*
X79126428Y-26857142D02*
X79055000Y-26714285D01*
X79055000Y-26714285D02*
X78983571Y-26642856D01*
X78983571Y-26642856D02*
X78840714Y-26571428D01*
X78840714Y-26571428D02*
X78626428Y-26571428D01*
X78626428Y-26571428D02*
X78483571Y-26642856D01*
X78483571Y-26642856D02*
X78412142Y-26714285D01*
X78412142Y-26714285D02*
X78340714Y-26857142D01*
X78340714Y-26857142D02*
X78340714Y-27428571D01*
X77697857Y-25099999D02*
X77626428Y-24885714D01*
X77626428Y-24885714D02*
X77626428Y-24528571D01*
X77626428Y-24528571D02*
X77697857Y-24385714D01*
X77697857Y-24385714D02*
X77769285Y-24314285D01*
X77769285Y-24314285D02*
X77912142Y-24242856D01*
X77912142Y-24242856D02*
X78055000Y-24242856D01*
X78055000Y-24242856D02*
X78197857Y-24314285D01*
X78197857Y-24314285D02*
X78269285Y-24385714D01*
X78269285Y-24385714D02*
X78340714Y-24528571D01*
X78340714Y-24528571D02*
X78412142Y-24814285D01*
X78412142Y-24814285D02*
X78483571Y-24957142D01*
X78483571Y-24957142D02*
X78555000Y-25028571D01*
X78555000Y-25028571D02*
X78697857Y-25099999D01*
X78697857Y-25099999D02*
X78840714Y-25099999D01*
X78840714Y-25099999D02*
X78983571Y-25028571D01*
X78983571Y-25028571D02*
X79055000Y-24957142D01*
X79055000Y-24957142D02*
X79126428Y-24814285D01*
X79126428Y-24814285D02*
X79126428Y-24457142D01*
X79126428Y-24457142D02*
X79055000Y-24242856D01*
X79126428Y-23742857D02*
X77626428Y-23385714D01*
X77626428Y-23385714D02*
X78697857Y-23100000D01*
X78697857Y-23100000D02*
X77626428Y-22814285D01*
X77626428Y-22814285D02*
X79126428Y-22457143D01*
X79126428Y-16057142D02*
X77626428Y-15557142D01*
X77626428Y-15557142D02*
X79126428Y-15057142D01*
X77626428Y-14557143D02*
X79126428Y-14557143D01*
X77626428Y-13842857D02*
X79126428Y-13842857D01*
X79126428Y-13842857D02*
X77626428Y-12985714D01*
X77626428Y-12985714D02*
X79126428Y-12985714D01*
D12*
%TO.C,U3*%
X62500904Y-84776380D02*
X62500904Y-85585904D01*
X62500904Y-85585904D02*
X62453285Y-85681142D01*
X62453285Y-85681142D02*
X62405666Y-85728761D01*
X62405666Y-85728761D02*
X62310428Y-85776380D01*
X62310428Y-85776380D02*
X62119952Y-85776380D01*
X62119952Y-85776380D02*
X62024714Y-85728761D01*
X62024714Y-85728761D02*
X61977095Y-85681142D01*
X61977095Y-85681142D02*
X61929476Y-85585904D01*
X61929476Y-85585904D02*
X61929476Y-84776380D01*
X61548523Y-84776380D02*
X60929476Y-84776380D01*
X60929476Y-84776380D02*
X61262809Y-85157333D01*
X61262809Y-85157333D02*
X61119952Y-85157333D01*
X61119952Y-85157333D02*
X61024714Y-85204952D01*
X61024714Y-85204952D02*
X60977095Y-85252571D01*
X60977095Y-85252571D02*
X60929476Y-85347809D01*
X60929476Y-85347809D02*
X60929476Y-85585904D01*
X60929476Y-85585904D02*
X60977095Y-85681142D01*
X60977095Y-85681142D02*
X61024714Y-85728761D01*
X61024714Y-85728761D02*
X61119952Y-85776380D01*
X61119952Y-85776380D02*
X61405666Y-85776380D01*
X61405666Y-85776380D02*
X61500904Y-85728761D01*
X61500904Y-85728761D02*
X61548523Y-85681142D01*
D11*
%TO.C,R13*%
X27418380Y-20566142D02*
X26942190Y-20232809D01*
X27418380Y-19994714D02*
X26418380Y-19994714D01*
X26418380Y-19994714D02*
X26418380Y-20375666D01*
X26418380Y-20375666D02*
X26466000Y-20470904D01*
X26466000Y-20470904D02*
X26513619Y-20518523D01*
X26513619Y-20518523D02*
X26608857Y-20566142D01*
X26608857Y-20566142D02*
X26751714Y-20566142D01*
X26751714Y-20566142D02*
X26846952Y-20518523D01*
X26846952Y-20518523D02*
X26894571Y-20470904D01*
X26894571Y-20470904D02*
X26942190Y-20375666D01*
X26942190Y-20375666D02*
X26942190Y-19994714D01*
X27418380Y-21518523D02*
X27418380Y-20947095D01*
X27418380Y-21232809D02*
X26418380Y-21232809D01*
X26418380Y-21232809D02*
X26561238Y-21137571D01*
X26561238Y-21137571D02*
X26656476Y-21042333D01*
X26656476Y-21042333D02*
X26704095Y-20947095D01*
X26418380Y-21851857D02*
X26418380Y-22470904D01*
X26418380Y-22470904D02*
X26799333Y-22137571D01*
X26799333Y-22137571D02*
X26799333Y-22280428D01*
X26799333Y-22280428D02*
X26846952Y-22375666D01*
X26846952Y-22375666D02*
X26894571Y-22423285D01*
X26894571Y-22423285D02*
X26989809Y-22470904D01*
X26989809Y-22470904D02*
X27227904Y-22470904D01*
X27227904Y-22470904D02*
X27323142Y-22423285D01*
X27323142Y-22423285D02*
X27370761Y-22375666D01*
X27370761Y-22375666D02*
X27418380Y-22280428D01*
X27418380Y-22280428D02*
X27418380Y-21994714D01*
X27418380Y-21994714D02*
X27370761Y-21899476D01*
X27370761Y-21899476D02*
X27323142Y-21851857D01*
%TO.C,D1*%
X18938380Y-36391905D02*
X17938380Y-36391905D01*
X17938380Y-36391905D02*
X17938380Y-36630000D01*
X17938380Y-36630000D02*
X17986000Y-36772857D01*
X17986000Y-36772857D02*
X18081238Y-36868095D01*
X18081238Y-36868095D02*
X18176476Y-36915714D01*
X18176476Y-36915714D02*
X18366952Y-36963333D01*
X18366952Y-36963333D02*
X18509809Y-36963333D01*
X18509809Y-36963333D02*
X18700285Y-36915714D01*
X18700285Y-36915714D02*
X18795523Y-36868095D01*
X18795523Y-36868095D02*
X18890761Y-36772857D01*
X18890761Y-36772857D02*
X18938380Y-36630000D01*
X18938380Y-36630000D02*
X18938380Y-36391905D01*
X18938380Y-37915714D02*
X18938380Y-37344286D01*
X18938380Y-37630000D02*
X17938380Y-37630000D01*
X17938380Y-37630000D02*
X18081238Y-37534762D01*
X18081238Y-37534762D02*
X18176476Y-37439524D01*
X18176476Y-37439524D02*
X18224095Y-37344286D01*
X26262380Y-42664095D02*
X25262380Y-42664095D01*
X26262380Y-43235523D02*
X25690952Y-42806952D01*
X25262380Y-43235523D02*
X25833809Y-42664095D01*
%TO.C,F1*%
X67472333Y-10652571D02*
X67805666Y-10652571D01*
X67805666Y-11176380D02*
X67805666Y-10176380D01*
X67805666Y-10176380D02*
X67329476Y-10176380D01*
X66424714Y-11176380D02*
X66996142Y-11176380D01*
X66710428Y-11176380D02*
X66710428Y-10176380D01*
X66710428Y-10176380D02*
X66805666Y-10319238D01*
X66805666Y-10319238D02*
X66900904Y-10414476D01*
X66900904Y-10414476D02*
X66996142Y-10462095D01*
%TO.C,D2*%
X67877094Y-2576380D02*
X67877094Y-1576380D01*
X67877094Y-1576380D02*
X67638999Y-1576380D01*
X67638999Y-1576380D02*
X67496142Y-1624000D01*
X67496142Y-1624000D02*
X67400904Y-1719238D01*
X67400904Y-1719238D02*
X67353285Y-1814476D01*
X67353285Y-1814476D02*
X67305666Y-2004952D01*
X67305666Y-2004952D02*
X67305666Y-2147809D01*
X67305666Y-2147809D02*
X67353285Y-2338285D01*
X67353285Y-2338285D02*
X67400904Y-2433523D01*
X67400904Y-2433523D02*
X67496142Y-2528761D01*
X67496142Y-2528761D02*
X67638999Y-2576380D01*
X67638999Y-2576380D02*
X67877094Y-2576380D01*
X66924713Y-1671619D02*
X66877094Y-1624000D01*
X66877094Y-1624000D02*
X66781856Y-1576380D01*
X66781856Y-1576380D02*
X66543761Y-1576380D01*
X66543761Y-1576380D02*
X66448523Y-1624000D01*
X66448523Y-1624000D02*
X66400904Y-1671619D01*
X66400904Y-1671619D02*
X66353285Y-1766857D01*
X66353285Y-1766857D02*
X66353285Y-1862095D01*
X66353285Y-1862095D02*
X66400904Y-2004952D01*
X66400904Y-2004952D02*
X66972332Y-2576380D01*
X66972332Y-2576380D02*
X66353285Y-2576380D01*
X59341904Y-8967380D02*
X59341904Y-7967380D01*
X58770476Y-8967380D02*
X59199047Y-8395952D01*
X58770476Y-7967380D02*
X59341904Y-8538809D01*
%TO.C,R14*%
X23227380Y-20820142D02*
X22751190Y-20486809D01*
X23227380Y-20248714D02*
X22227380Y-20248714D01*
X22227380Y-20248714D02*
X22227380Y-20629666D01*
X22227380Y-20629666D02*
X22275000Y-20724904D01*
X22275000Y-20724904D02*
X22322619Y-20772523D01*
X22322619Y-20772523D02*
X22417857Y-20820142D01*
X22417857Y-20820142D02*
X22560714Y-20820142D01*
X22560714Y-20820142D02*
X22655952Y-20772523D01*
X22655952Y-20772523D02*
X22703571Y-20724904D01*
X22703571Y-20724904D02*
X22751190Y-20629666D01*
X22751190Y-20629666D02*
X22751190Y-20248714D01*
X23227380Y-21772523D02*
X23227380Y-21201095D01*
X23227380Y-21486809D02*
X22227380Y-21486809D01*
X22227380Y-21486809D02*
X22370238Y-21391571D01*
X22370238Y-21391571D02*
X22465476Y-21296333D01*
X22465476Y-21296333D02*
X22513095Y-21201095D01*
X22560714Y-22629666D02*
X23227380Y-22629666D01*
X22179761Y-22391571D02*
X22894047Y-22153476D01*
X22894047Y-22153476D02*
X22894047Y-22772523D01*
%TO.C,R8*%
X31918380Y-21239533D02*
X31442190Y-20906200D01*
X31918380Y-20668105D02*
X30918380Y-20668105D01*
X30918380Y-20668105D02*
X30918380Y-21049057D01*
X30918380Y-21049057D02*
X30966000Y-21144295D01*
X30966000Y-21144295D02*
X31013619Y-21191914D01*
X31013619Y-21191914D02*
X31108857Y-21239533D01*
X31108857Y-21239533D02*
X31251714Y-21239533D01*
X31251714Y-21239533D02*
X31346952Y-21191914D01*
X31346952Y-21191914D02*
X31394571Y-21144295D01*
X31394571Y-21144295D02*
X31442190Y-21049057D01*
X31442190Y-21049057D02*
X31442190Y-20668105D01*
X31346952Y-21810962D02*
X31299333Y-21715724D01*
X31299333Y-21715724D02*
X31251714Y-21668105D01*
X31251714Y-21668105D02*
X31156476Y-21620486D01*
X31156476Y-21620486D02*
X31108857Y-21620486D01*
X31108857Y-21620486D02*
X31013619Y-21668105D01*
X31013619Y-21668105D02*
X30966000Y-21715724D01*
X30966000Y-21715724D02*
X30918380Y-21810962D01*
X30918380Y-21810962D02*
X30918380Y-22001438D01*
X30918380Y-22001438D02*
X30966000Y-22096676D01*
X30966000Y-22096676D02*
X31013619Y-22144295D01*
X31013619Y-22144295D02*
X31108857Y-22191914D01*
X31108857Y-22191914D02*
X31156476Y-22191914D01*
X31156476Y-22191914D02*
X31251714Y-22144295D01*
X31251714Y-22144295D02*
X31299333Y-22096676D01*
X31299333Y-22096676D02*
X31346952Y-22001438D01*
X31346952Y-22001438D02*
X31346952Y-21810962D01*
X31346952Y-21810962D02*
X31394571Y-21715724D01*
X31394571Y-21715724D02*
X31442190Y-21668105D01*
X31442190Y-21668105D02*
X31537428Y-21620486D01*
X31537428Y-21620486D02*
X31727904Y-21620486D01*
X31727904Y-21620486D02*
X31823142Y-21668105D01*
X31823142Y-21668105D02*
X31870761Y-21715724D01*
X31870761Y-21715724D02*
X31918380Y-21810962D01*
X31918380Y-21810962D02*
X31918380Y-22001438D01*
X31918380Y-22001438D02*
X31870761Y-22096676D01*
X31870761Y-22096676D02*
X31823142Y-22144295D01*
X31823142Y-22144295D02*
X31727904Y-22191914D01*
X31727904Y-22191914D02*
X31537428Y-22191914D01*
X31537428Y-22191914D02*
X31442190Y-22144295D01*
X31442190Y-22144295D02*
X31394571Y-22096676D01*
X31394571Y-22096676D02*
X31346952Y-22001438D01*
%TO.C,U4*%
X39760904Y-54900380D02*
X39760904Y-55709904D01*
X39760904Y-55709904D02*
X39713285Y-55805142D01*
X39713285Y-55805142D02*
X39665666Y-55852761D01*
X39665666Y-55852761D02*
X39570428Y-55900380D01*
X39570428Y-55900380D02*
X39379952Y-55900380D01*
X39379952Y-55900380D02*
X39284714Y-55852761D01*
X39284714Y-55852761D02*
X39237095Y-55805142D01*
X39237095Y-55805142D02*
X39189476Y-55709904D01*
X39189476Y-55709904D02*
X39189476Y-54900380D01*
X38284714Y-55233714D02*
X38284714Y-55900380D01*
X38522809Y-54852761D02*
X38760904Y-55567047D01*
X38760904Y-55567047D02*
X38141857Y-55567047D01*
%TO.C,Q3*%
X29813238Y-17611619D02*
X29908476Y-17564000D01*
X29908476Y-17564000D02*
X30003714Y-17468761D01*
X30003714Y-17468761D02*
X30146571Y-17325904D01*
X30146571Y-17325904D02*
X30241809Y-17278285D01*
X30241809Y-17278285D02*
X30337047Y-17278285D01*
X30289428Y-17516380D02*
X30384666Y-17468761D01*
X30384666Y-17468761D02*
X30479904Y-17373523D01*
X30479904Y-17373523D02*
X30527523Y-17183047D01*
X30527523Y-17183047D02*
X30527523Y-16849714D01*
X30527523Y-16849714D02*
X30479904Y-16659238D01*
X30479904Y-16659238D02*
X30384666Y-16564000D01*
X30384666Y-16564000D02*
X30289428Y-16516380D01*
X30289428Y-16516380D02*
X30098952Y-16516380D01*
X30098952Y-16516380D02*
X30003714Y-16564000D01*
X30003714Y-16564000D02*
X29908476Y-16659238D01*
X29908476Y-16659238D02*
X29860857Y-16849714D01*
X29860857Y-16849714D02*
X29860857Y-17183047D01*
X29860857Y-17183047D02*
X29908476Y-17373523D01*
X29908476Y-17373523D02*
X30003714Y-17468761D01*
X30003714Y-17468761D02*
X30098952Y-17516380D01*
X30098952Y-17516380D02*
X30289428Y-17516380D01*
X29527523Y-16516380D02*
X28908476Y-16516380D01*
X28908476Y-16516380D02*
X29241809Y-16897333D01*
X29241809Y-16897333D02*
X29098952Y-16897333D01*
X29098952Y-16897333D02*
X29003714Y-16944952D01*
X29003714Y-16944952D02*
X28956095Y-16992571D01*
X28956095Y-16992571D02*
X28908476Y-17087809D01*
X28908476Y-17087809D02*
X28908476Y-17325904D01*
X28908476Y-17325904D02*
X28956095Y-17421142D01*
X28956095Y-17421142D02*
X29003714Y-17468761D01*
X29003714Y-17468761D02*
X29098952Y-17516380D01*
X29098952Y-17516380D02*
X29384666Y-17516380D01*
X29384666Y-17516380D02*
X29479904Y-17468761D01*
X29479904Y-17468761D02*
X29527523Y-17421142D01*
%TO.C,C1*%
X51105666Y-5081142D02*
X51153285Y-5128761D01*
X51153285Y-5128761D02*
X51296142Y-5176380D01*
X51296142Y-5176380D02*
X51391380Y-5176380D01*
X51391380Y-5176380D02*
X51534237Y-5128761D01*
X51534237Y-5128761D02*
X51629475Y-5033523D01*
X51629475Y-5033523D02*
X51677094Y-4938285D01*
X51677094Y-4938285D02*
X51724713Y-4747809D01*
X51724713Y-4747809D02*
X51724713Y-4604952D01*
X51724713Y-4604952D02*
X51677094Y-4414476D01*
X51677094Y-4414476D02*
X51629475Y-4319238D01*
X51629475Y-4319238D02*
X51534237Y-4224000D01*
X51534237Y-4224000D02*
X51391380Y-4176380D01*
X51391380Y-4176380D02*
X51296142Y-4176380D01*
X51296142Y-4176380D02*
X51153285Y-4224000D01*
X51153285Y-4224000D02*
X51105666Y-4271619D01*
X50153285Y-5176380D02*
X50724713Y-5176380D01*
X50438999Y-5176380D02*
X50438999Y-4176380D01*
X50438999Y-4176380D02*
X50534237Y-4319238D01*
X50534237Y-4319238D02*
X50629475Y-4414476D01*
X50629475Y-4414476D02*
X50724713Y-4462095D01*
%TO.C,C3*%
X43105666Y-82281142D02*
X43153285Y-82328761D01*
X43153285Y-82328761D02*
X43296142Y-82376380D01*
X43296142Y-82376380D02*
X43391380Y-82376380D01*
X43391380Y-82376380D02*
X43534237Y-82328761D01*
X43534237Y-82328761D02*
X43629475Y-82233523D01*
X43629475Y-82233523D02*
X43677094Y-82138285D01*
X43677094Y-82138285D02*
X43724713Y-81947809D01*
X43724713Y-81947809D02*
X43724713Y-81804952D01*
X43724713Y-81804952D02*
X43677094Y-81614476D01*
X43677094Y-81614476D02*
X43629475Y-81519238D01*
X43629475Y-81519238D02*
X43534237Y-81424000D01*
X43534237Y-81424000D02*
X43391380Y-81376380D01*
X43391380Y-81376380D02*
X43296142Y-81376380D01*
X43296142Y-81376380D02*
X43153285Y-81424000D01*
X43153285Y-81424000D02*
X43105666Y-81471619D01*
X42772332Y-81376380D02*
X42153285Y-81376380D01*
X42153285Y-81376380D02*
X42486618Y-81757333D01*
X42486618Y-81757333D02*
X42343761Y-81757333D01*
X42343761Y-81757333D02*
X42248523Y-81804952D01*
X42248523Y-81804952D02*
X42200904Y-81852571D01*
X42200904Y-81852571D02*
X42153285Y-81947809D01*
X42153285Y-81947809D02*
X42153285Y-82185904D01*
X42153285Y-82185904D02*
X42200904Y-82281142D01*
X42200904Y-82281142D02*
X42248523Y-82328761D01*
X42248523Y-82328761D02*
X42343761Y-82376380D01*
X42343761Y-82376380D02*
X42629475Y-82376380D01*
X42629475Y-82376380D02*
X42724713Y-82328761D01*
X42724713Y-82328761D02*
X42772332Y-82281142D01*
%TO.C,Q2*%
X20288238Y-17611619D02*
X20383476Y-17564000D01*
X20383476Y-17564000D02*
X20478714Y-17468761D01*
X20478714Y-17468761D02*
X20621571Y-17325904D01*
X20621571Y-17325904D02*
X20716809Y-17278285D01*
X20716809Y-17278285D02*
X20812047Y-17278285D01*
X20764428Y-17516380D02*
X20859666Y-17468761D01*
X20859666Y-17468761D02*
X20954904Y-17373523D01*
X20954904Y-17373523D02*
X21002523Y-17183047D01*
X21002523Y-17183047D02*
X21002523Y-16849714D01*
X21002523Y-16849714D02*
X20954904Y-16659238D01*
X20954904Y-16659238D02*
X20859666Y-16564000D01*
X20859666Y-16564000D02*
X20764428Y-16516380D01*
X20764428Y-16516380D02*
X20573952Y-16516380D01*
X20573952Y-16516380D02*
X20478714Y-16564000D01*
X20478714Y-16564000D02*
X20383476Y-16659238D01*
X20383476Y-16659238D02*
X20335857Y-16849714D01*
X20335857Y-16849714D02*
X20335857Y-17183047D01*
X20335857Y-17183047D02*
X20383476Y-17373523D01*
X20383476Y-17373523D02*
X20478714Y-17468761D01*
X20478714Y-17468761D02*
X20573952Y-17516380D01*
X20573952Y-17516380D02*
X20764428Y-17516380D01*
X19954904Y-16611619D02*
X19907285Y-16564000D01*
X19907285Y-16564000D02*
X19812047Y-16516380D01*
X19812047Y-16516380D02*
X19573952Y-16516380D01*
X19573952Y-16516380D02*
X19478714Y-16564000D01*
X19478714Y-16564000D02*
X19431095Y-16611619D01*
X19431095Y-16611619D02*
X19383476Y-16706857D01*
X19383476Y-16706857D02*
X19383476Y-16802095D01*
X19383476Y-16802095D02*
X19431095Y-16944952D01*
X19431095Y-16944952D02*
X20002523Y-17516380D01*
X20002523Y-17516380D02*
X19383476Y-17516380D01*
%TO.C,U2*%
X39333304Y-76854980D02*
X39333304Y-77664504D01*
X39333304Y-77664504D02*
X39285685Y-77759742D01*
X39285685Y-77759742D02*
X39238066Y-77807361D01*
X39238066Y-77807361D02*
X39142828Y-77854980D01*
X39142828Y-77854980D02*
X38952352Y-77854980D01*
X38952352Y-77854980D02*
X38857114Y-77807361D01*
X38857114Y-77807361D02*
X38809495Y-77759742D01*
X38809495Y-77759742D02*
X38761876Y-77664504D01*
X38761876Y-77664504D02*
X38761876Y-76854980D01*
X38333304Y-76950219D02*
X38285685Y-76902600D01*
X38285685Y-76902600D02*
X38190447Y-76854980D01*
X38190447Y-76854980D02*
X37952352Y-76854980D01*
X37952352Y-76854980D02*
X37857114Y-76902600D01*
X37857114Y-76902600D02*
X37809495Y-76950219D01*
X37809495Y-76950219D02*
X37761876Y-77045457D01*
X37761876Y-77045457D02*
X37761876Y-77140695D01*
X37761876Y-77140695D02*
X37809495Y-77283552D01*
X37809495Y-77283552D02*
X38380923Y-77854980D01*
X38380923Y-77854980D02*
X37761876Y-77854980D01*
%TO.C,U3*%
G36*
X60690000Y-105510000D02*
G01*
X59420000Y-104240000D01*
X61960000Y-104240000D01*
X60690000Y-105510000D01*
G37*
D12*
X60690000Y-105510000D02*
X59420000Y-104240000D01*
X61960000Y-104240000D01*
X60690000Y-105510000D01*
X63230000Y-109320000D02*
X37830000Y-109320000D01*
X37830000Y-109320000D02*
X37830000Y-86460000D01*
X37830000Y-86460000D02*
X63230000Y-86460000D01*
X63230000Y-86460000D02*
X63230000Y-109320000D01*
D13*
%TO.C,J5*%
X84310000Y-19990000D02*
X84310000Y-22490000D01*
X81810000Y-19990000D02*
X84310000Y-19990000D01*
X84010000Y-20290000D02*
X84010000Y-33010000D01*
X82510000Y-20290000D02*
X82510000Y-21290000D01*
X81700000Y-20290000D02*
X81700000Y-20790000D01*
X79990000Y-20290000D02*
X84010000Y-20290000D01*
X81700000Y-20790000D02*
X80490000Y-20790000D01*
X80490000Y-20790000D02*
X80490000Y-32510000D01*
X82510000Y-21290000D02*
X84010000Y-21290000D01*
X82510000Y-32010000D02*
X84010000Y-32010000D01*
X81700000Y-32510000D02*
X81700000Y-33010000D01*
X80490000Y-32510000D02*
X81700000Y-32510000D01*
X84010000Y-33010000D02*
X79990000Y-33010000D01*
X82510000Y-33010000D02*
X82510000Y-32010000D01*
X79990000Y-33010000D02*
X79990000Y-20290000D01*
%TO.C,J1*%
X84310000Y-10171000D02*
X84310000Y-12671000D01*
X81810000Y-10171000D02*
X84310000Y-10171000D01*
X84010000Y-10471000D02*
X84010000Y-18191000D01*
X82510000Y-10471000D02*
X82510000Y-11471000D01*
X81700000Y-10471000D02*
X81700000Y-10971000D01*
X79990000Y-10471000D02*
X84010000Y-10471000D01*
X81700000Y-10971000D02*
X80490000Y-10971000D01*
X80490000Y-10971000D02*
X80490000Y-17691000D01*
X82510000Y-11471000D02*
X84010000Y-11471000D01*
X82510000Y-17191000D02*
X84010000Y-17191000D01*
X81700000Y-17691000D02*
X81700000Y-18191000D01*
X80490000Y-17691000D02*
X81700000Y-17691000D01*
X84010000Y-18191000D02*
X79990000Y-18191000D01*
X82510000Y-18191000D02*
X82510000Y-17191000D01*
X79990000Y-18191000D02*
X79990000Y-10471000D01*
%TO.C,J3*%
X61401000Y-118234000D02*
X58901000Y-118234000D01*
X61401000Y-115734000D02*
X61401000Y-118234000D01*
X61101000Y-117934000D02*
X38381000Y-117934000D01*
X61101000Y-116434000D02*
X60101000Y-116434000D01*
X61101000Y-115624000D02*
X60601000Y-115624000D01*
X61101000Y-113914000D02*
X61101000Y-117934000D01*
X60601000Y-115624000D02*
X60601000Y-114414000D01*
X60601000Y-114414000D02*
X38881000Y-114414000D01*
X60101000Y-116434000D02*
X60101000Y-117934000D01*
X39381000Y-116434000D02*
X39381000Y-117934000D01*
X38881000Y-115624000D02*
X38381000Y-115624000D01*
X38881000Y-114414000D02*
X38881000Y-115624000D01*
X38381000Y-117934000D02*
X38381000Y-113914000D01*
X38381000Y-116434000D02*
X39381000Y-116434000D01*
X38381000Y-113914000D02*
X61101000Y-113914000D01*
%TO.C,R13*%
X28163000Y-23256000D02*
X28163000Y-19416000D01*
X30003000Y-23256000D02*
X30003000Y-19416000D01*
%TO.C,D1*%
X21525000Y-42416000D02*
X21525000Y-33276000D01*
X21855000Y-42416000D02*
X21525000Y-42416000D01*
X25135000Y-42416000D02*
X25465000Y-42416000D01*
X25465000Y-42416000D02*
X25465000Y-33276000D01*
X25465000Y-41081000D02*
X21525000Y-41081000D01*
X25465000Y-40961000D02*
X21525000Y-40961000D01*
X25465000Y-40841000D02*
X21525000Y-40841000D01*
X21525000Y-33276000D02*
X21855000Y-33276000D01*
X25465000Y-33276000D02*
X25135000Y-33276000D01*
%TO.C,F1*%
X57098000Y-17255000D02*
X57098000Y-11955000D01*
X57098000Y-17255000D02*
X75998000Y-17255000D01*
X75998000Y-11955000D02*
X57098000Y-11955000D01*
X75998000Y-11955000D02*
X75998000Y-17255000D01*
%TO.C,J8*%
X25373000Y-118234000D02*
X22873000Y-118234000D01*
X25373000Y-115734000D02*
X25373000Y-118234000D01*
X25073000Y-117934000D02*
X17353000Y-117934000D01*
X25073000Y-116434000D02*
X24073000Y-116434000D01*
X25073000Y-115624000D02*
X24573000Y-115624000D01*
X25073000Y-113914000D02*
X25073000Y-117934000D01*
X24573000Y-115624000D02*
X24573000Y-114414000D01*
X24573000Y-114414000D02*
X17853000Y-114414000D01*
X24073000Y-116434000D02*
X24073000Y-117934000D01*
X18353000Y-116434000D02*
X18353000Y-117934000D01*
X17853000Y-115624000D02*
X17353000Y-115624000D01*
X17853000Y-114414000D02*
X17853000Y-115624000D01*
X17353000Y-117934000D02*
X17353000Y-113914000D01*
X17353000Y-116434000D02*
X18353000Y-116434000D01*
X17353000Y-113914000D02*
X25073000Y-113914000D01*
%TO.C,J6*%
X35718000Y-3151000D02*
X38218000Y-3151000D01*
X35718000Y-5651000D02*
X35718000Y-3151000D01*
X36018000Y-3451000D02*
X43738000Y-3451000D01*
X36018000Y-4951000D02*
X37018000Y-4951000D01*
X36018000Y-5761000D02*
X36518000Y-5761000D01*
X36018000Y-7471000D02*
X36018000Y-3451000D01*
X36518000Y-5761000D02*
X36518000Y-6971000D01*
X36518000Y-6971000D02*
X43238000Y-6971000D01*
X37018000Y-4951000D02*
X37018000Y-3451000D01*
X42738000Y-4951000D02*
X42738000Y-3451000D01*
X43238000Y-5761000D02*
X43738000Y-5761000D01*
X43238000Y-6971000D02*
X43238000Y-5761000D01*
X43738000Y-3451000D02*
X43738000Y-7471000D01*
X43738000Y-4951000D02*
X42738000Y-4951000D01*
X43738000Y-7471000D02*
X36018000Y-7471000D01*
%TO.C,D2*%
X60920000Y-6000000D02*
X61830000Y-6000000D01*
X61830000Y-3280000D02*
X71570000Y-3280000D01*
X61830000Y-8720000D02*
X61830000Y-3280000D01*
X63255000Y-8720000D02*
X63255000Y-3280000D01*
X63375000Y-8720000D02*
X63375000Y-3280000D01*
X63495000Y-8720000D02*
X63495000Y-3280000D01*
X71570000Y-3280000D02*
X71570000Y-8720000D01*
X71570000Y-8720000D02*
X61830000Y-8720000D01*
X72480000Y-6000000D02*
X71570000Y-6000000D01*
%TO.C,R14*%
X23972000Y-23383000D02*
X23972000Y-19543000D01*
X25812000Y-23383000D02*
X25812000Y-19543000D01*
%TO.C,R8*%
X32481000Y-23383000D02*
X32481000Y-19543000D01*
X34321000Y-23383000D02*
X34321000Y-19543000D01*
%TO.C,U4*%
X33859000Y-44193000D02*
X44139000Y-44193000D01*
X33859000Y-54593000D02*
X33859000Y-44193000D01*
X36349000Y-44253000D02*
X41649000Y-44253000D01*
X36349000Y-54533000D02*
X36349000Y-44253000D01*
X37999000Y-54533000D02*
X36349000Y-54533000D01*
X41649000Y-44253000D02*
X41649000Y-54533000D01*
X41649000Y-54533000D02*
X39999000Y-54533000D01*
X44139000Y-44193000D02*
X44139000Y-54593000D01*
X44139000Y-54593000D02*
X33859000Y-54593000D01*
X39999000Y-54533000D02*
G75*
G03*
X37999000Y-54533000I-1000000J0D01*
G01*
%TO.C,Q3*%
X27918000Y-11739000D02*
X31518000Y-11739000D01*
X27879522Y-11750522D02*
G75*
G03*
X29718000Y-16189000I1838478J-1838478D01*
G01*
X29718000Y-16189000D02*
G75*
G03*
X31556478Y-11750522I0J2600000D01*
G01*
%TO.C,J9*%
X35553000Y-118234000D02*
X33053000Y-118234000D01*
X35553000Y-115734000D02*
X35553000Y-118234000D01*
X35253000Y-117934000D02*
X27533000Y-117934000D01*
X35253000Y-116434000D02*
X34253000Y-116434000D01*
X35253000Y-115624000D02*
X34753000Y-115624000D01*
X35253000Y-113914000D02*
X35253000Y-117934000D01*
X34753000Y-115624000D02*
X34753000Y-114414000D01*
X34753000Y-114414000D02*
X28033000Y-114414000D01*
X34253000Y-116434000D02*
X34253000Y-117934000D01*
X28533000Y-116434000D02*
X28533000Y-117934000D01*
X28033000Y-115624000D02*
X27533000Y-115624000D01*
X28033000Y-114414000D02*
X28033000Y-115624000D01*
X27533000Y-117934000D02*
X27533000Y-113914000D01*
X27533000Y-116434000D02*
X28533000Y-116434000D01*
X27533000Y-113914000D02*
X35253000Y-113914000D01*
%TO.C,J7*%
X84310000Y-59955000D02*
X84310000Y-62455000D01*
X81810000Y-59955000D02*
X84310000Y-59955000D01*
X84010000Y-60255000D02*
X84010000Y-77975000D01*
X82510000Y-60255000D02*
X82510000Y-61255000D01*
X81700000Y-60255000D02*
X81700000Y-60755000D01*
X79990000Y-60255000D02*
X84010000Y-60255000D01*
X81700000Y-60755000D02*
X80490000Y-60755000D01*
X80490000Y-60755000D02*
X80490000Y-77475000D01*
X82510000Y-61255000D02*
X84010000Y-61255000D01*
X82510000Y-76975000D02*
X84010000Y-76975000D01*
X81700000Y-77475000D02*
X81700000Y-77975000D01*
X80490000Y-77475000D02*
X81700000Y-77475000D01*
X84010000Y-77975000D02*
X79990000Y-77975000D01*
X82510000Y-77975000D02*
X82510000Y-76975000D01*
X79990000Y-77975000D02*
X79990000Y-60255000D01*
%TO.C,C1*%
X53929000Y-16396323D02*
X53929000Y-15396323D01*
X54429000Y-15896323D02*
X53429000Y-15896323D01*
X56134000Y-10916677D02*
X45974000Y-10916677D01*
X56134000Y-10876677D02*
X45974000Y-10876677D01*
X56134000Y-10836677D02*
X45974000Y-10836677D01*
X56133000Y-10796677D02*
X45975000Y-10796677D01*
X56132000Y-10756677D02*
X45976000Y-10756677D01*
X56131000Y-10716677D02*
X45977000Y-10716677D01*
X56129000Y-10676677D02*
X45979000Y-10676677D01*
X56127000Y-10636677D02*
X45981000Y-10636677D01*
X56124000Y-10596677D02*
X45984000Y-10596677D01*
X56122000Y-10556677D02*
X45986000Y-10556677D01*
X56119000Y-10516677D02*
X45989000Y-10516677D01*
X56116000Y-10476677D02*
X45992000Y-10476677D01*
X56112000Y-10436677D02*
X45996000Y-10436677D01*
X56108000Y-10396677D02*
X46000000Y-10396677D01*
X56104000Y-10356677D02*
X46004000Y-10356677D01*
X56099000Y-10316677D02*
X46009000Y-10316677D01*
X56094000Y-10276677D02*
X46014000Y-10276677D01*
X56089000Y-10236677D02*
X46019000Y-10236677D01*
X56084000Y-10195677D02*
X46024000Y-10195677D01*
X56078000Y-10155677D02*
X46030000Y-10155677D01*
X56072000Y-10115677D02*
X46036000Y-10115677D01*
X56065000Y-10075677D02*
X46043000Y-10075677D01*
X56058000Y-10035677D02*
X46050000Y-10035677D01*
X56051000Y-9995677D02*
X46057000Y-9995677D01*
X56044000Y-9955677D02*
X46064000Y-9955677D01*
X56036000Y-9915677D02*
X46072000Y-9915677D01*
X56028000Y-9875677D02*
X46080000Y-9875677D01*
X56019000Y-9835677D02*
X46089000Y-9835677D01*
X56010000Y-9795677D02*
X46098000Y-9795677D01*
X56001000Y-9755677D02*
X46107000Y-9755677D01*
X55992000Y-9715677D02*
X46116000Y-9715677D01*
X55982000Y-9675677D02*
X46126000Y-9675677D01*
X49813000Y-9635677D02*
X46136000Y-9635677D01*
X55972000Y-9635677D02*
X52295000Y-9635677D01*
X49813000Y-9595677D02*
X46147000Y-9595677D01*
X55961000Y-9595677D02*
X52295000Y-9595677D01*
X49813000Y-9555677D02*
X46157000Y-9555677D01*
X55951000Y-9555677D02*
X52295000Y-9555677D01*
X49813000Y-9515677D02*
X46169000Y-9515677D01*
X55939000Y-9515677D02*
X52295000Y-9515677D01*
X49813000Y-9475677D02*
X46180000Y-9475677D01*
X55928000Y-9475677D02*
X52295000Y-9475677D01*
X49813000Y-9435677D02*
X46192000Y-9435677D01*
X55916000Y-9435677D02*
X52295000Y-9435677D01*
X49813000Y-9395677D02*
X46204000Y-9395677D01*
X55904000Y-9395677D02*
X52295000Y-9395677D01*
X49813000Y-9355677D02*
X46217000Y-9355677D01*
X55891000Y-9355677D02*
X52295000Y-9355677D01*
X49813000Y-9315677D02*
X46230000Y-9315677D01*
X55878000Y-9315677D02*
X52295000Y-9315677D01*
X49813000Y-9275677D02*
X46243000Y-9275677D01*
X55865000Y-9275677D02*
X52295000Y-9275677D01*
X49813000Y-9235677D02*
X46257000Y-9235677D01*
X55851000Y-9235677D02*
X52295000Y-9235677D01*
X49813000Y-9195677D02*
X46271000Y-9195677D01*
X55837000Y-9195677D02*
X52295000Y-9195677D01*
X49813000Y-9155677D02*
X46286000Y-9155677D01*
X55822000Y-9155677D02*
X52295000Y-9155677D01*
X49813000Y-9115677D02*
X46300000Y-9115677D01*
X55808000Y-9115677D02*
X52295000Y-9115677D01*
X49813000Y-9075677D02*
X46316000Y-9075677D01*
X55792000Y-9075677D02*
X52295000Y-9075677D01*
X49813000Y-9035677D02*
X46331000Y-9035677D01*
X55777000Y-9035677D02*
X52295000Y-9035677D01*
X49813000Y-8995677D02*
X46347000Y-8995677D01*
X55761000Y-8995677D02*
X52295000Y-8995677D01*
X49813000Y-8955677D02*
X46364000Y-8955677D01*
X55744000Y-8955677D02*
X52295000Y-8955677D01*
X49813000Y-8915677D02*
X46380000Y-8915677D01*
X55728000Y-8915677D02*
X52295000Y-8915677D01*
X49813000Y-8875677D02*
X46397000Y-8875677D01*
X55711000Y-8875677D02*
X52295000Y-8875677D01*
X49813000Y-8835677D02*
X46415000Y-8835677D01*
X55693000Y-8835677D02*
X52295000Y-8835677D01*
X49813000Y-8795677D02*
X46433000Y-8795677D01*
X55675000Y-8795677D02*
X52295000Y-8795677D01*
X49813000Y-8755677D02*
X46451000Y-8755677D01*
X55657000Y-8755677D02*
X52295000Y-8755677D01*
X49813000Y-8715677D02*
X46470000Y-8715677D01*
X55638000Y-8715677D02*
X52295000Y-8715677D01*
X49813000Y-8675677D02*
X46490000Y-8675677D01*
X55618000Y-8675677D02*
X52295000Y-8675677D01*
X49813000Y-8635677D02*
X46509000Y-8635677D01*
X55599000Y-8635677D02*
X52295000Y-8635677D01*
X49813000Y-8595677D02*
X46529000Y-8595677D01*
X55579000Y-8595677D02*
X52295000Y-8595677D01*
X49813000Y-8555677D02*
X46550000Y-8555677D01*
X55558000Y-8555677D02*
X52295000Y-8555677D01*
X49813000Y-8515677D02*
X46571000Y-8515677D01*
X55537000Y-8515677D02*
X52295000Y-8515677D01*
X49813000Y-8475677D02*
X46592000Y-8475677D01*
X55516000Y-8475677D02*
X52295000Y-8475677D01*
X49813000Y-8435677D02*
X46614000Y-8435677D01*
X55494000Y-8435677D02*
X52295000Y-8435677D01*
X49813000Y-8395677D02*
X46637000Y-8395677D01*
X55471000Y-8395677D02*
X52295000Y-8395677D01*
X49813000Y-8355677D02*
X46659000Y-8355677D01*
X55449000Y-8355677D02*
X52295000Y-8355677D01*
X49813000Y-8315677D02*
X46683000Y-8315677D01*
X55425000Y-8315677D02*
X52295000Y-8315677D01*
X49813000Y-8275677D02*
X46707000Y-8275677D01*
X55401000Y-8275677D02*
X52295000Y-8275677D01*
X49813000Y-8235677D02*
X46731000Y-8235677D01*
X55377000Y-8235677D02*
X52295000Y-8235677D01*
X49813000Y-8195677D02*
X46756000Y-8195677D01*
X55352000Y-8195677D02*
X52295000Y-8195677D01*
X49813000Y-8155677D02*
X46781000Y-8155677D01*
X55327000Y-8155677D02*
X52295000Y-8155677D01*
X49813000Y-8115677D02*
X46807000Y-8115677D01*
X55301000Y-8115677D02*
X52295000Y-8115677D01*
X49813000Y-8075677D02*
X46833000Y-8075677D01*
X55275000Y-8075677D02*
X52295000Y-8075677D01*
X49813000Y-8035677D02*
X46860000Y-8035677D01*
X55248000Y-8035677D02*
X52295000Y-8035677D01*
X49813000Y-7995677D02*
X46888000Y-7995677D01*
X55220000Y-7995677D02*
X52295000Y-7995677D01*
X49813000Y-7955677D02*
X46916000Y-7955677D01*
X55192000Y-7955677D02*
X52295000Y-7955677D01*
X49813000Y-7915677D02*
X46944000Y-7915677D01*
X55164000Y-7915677D02*
X52295000Y-7915677D01*
X49813000Y-7875677D02*
X46974000Y-7875677D01*
X55134000Y-7875677D02*
X52295000Y-7875677D01*
X49813000Y-7835677D02*
X47004000Y-7835677D01*
X55104000Y-7835677D02*
X52295000Y-7835677D01*
X49813000Y-7795677D02*
X47034000Y-7795677D01*
X55074000Y-7795677D02*
X52295000Y-7795677D01*
X49813000Y-7755677D02*
X47065000Y-7755677D01*
X55043000Y-7755677D02*
X52295000Y-7755677D01*
X49813000Y-7715677D02*
X47097000Y-7715677D01*
X55011000Y-7715677D02*
X52295000Y-7715677D01*
X49813000Y-7675677D02*
X47129000Y-7675677D01*
X54979000Y-7675677D02*
X52295000Y-7675677D01*
X49813000Y-7635677D02*
X47162000Y-7635677D01*
X54946000Y-7635677D02*
X52295000Y-7635677D01*
X49813000Y-7595677D02*
X47196000Y-7595677D01*
X54912000Y-7595677D02*
X52295000Y-7595677D01*
X49813000Y-7555677D02*
X47230000Y-7555677D01*
X54878000Y-7555677D02*
X52295000Y-7555677D01*
X49813000Y-7515677D02*
X47265000Y-7515677D01*
X54843000Y-7515677D02*
X52295000Y-7515677D01*
X49813000Y-7475677D02*
X47301000Y-7475677D01*
X54807000Y-7475677D02*
X52295000Y-7475677D01*
X49813000Y-7435677D02*
X47338000Y-7435677D01*
X54770000Y-7435677D02*
X52295000Y-7435677D01*
X49813000Y-7395677D02*
X47375000Y-7395677D01*
X54733000Y-7395677D02*
X52295000Y-7395677D01*
X49813000Y-7355677D02*
X47414000Y-7355677D01*
X54694000Y-7355677D02*
X52295000Y-7355677D01*
X49813000Y-7315677D02*
X47453000Y-7315677D01*
X54655000Y-7315677D02*
X52295000Y-7315677D01*
X49813000Y-7275677D02*
X47493000Y-7275677D01*
X54615000Y-7275677D02*
X52295000Y-7275677D01*
X49813000Y-7235677D02*
X47534000Y-7235677D01*
X54574000Y-7235677D02*
X52295000Y-7235677D01*
X49813000Y-7195677D02*
X47576000Y-7195677D01*
X54532000Y-7195677D02*
X52295000Y-7195677D01*
X54490000Y-7155677D02*
X47618000Y-7155677D01*
X54446000Y-7115677D02*
X47662000Y-7115677D01*
X54401000Y-7075677D02*
X47707000Y-7075677D01*
X54355000Y-7035677D02*
X47753000Y-7035677D01*
X54308000Y-6995677D02*
X47800000Y-6995677D01*
X54260000Y-6955677D02*
X47848000Y-6955677D01*
X54210000Y-6915677D02*
X47898000Y-6915677D01*
X54160000Y-6875677D02*
X47948000Y-6875677D01*
X54108000Y-6835677D02*
X48000000Y-6835677D01*
X54054000Y-6795677D02*
X48054000Y-6795677D01*
X53999000Y-6755677D02*
X48109000Y-6755677D01*
X53943000Y-6715677D02*
X48165000Y-6715677D01*
X53884000Y-6675677D02*
X48224000Y-6675677D01*
X53824000Y-6635677D02*
X48284000Y-6635677D01*
X53763000Y-6595677D02*
X48345000Y-6595677D01*
X53699000Y-6555677D02*
X48409000Y-6555677D01*
X53633000Y-6515677D02*
X48475000Y-6515677D01*
X53564000Y-6475677D02*
X48544000Y-6475677D01*
X53493000Y-6435677D02*
X48615000Y-6435677D01*
X53419000Y-6395677D02*
X48689000Y-6395677D01*
X53343000Y-6355677D02*
X48765000Y-6355677D01*
X53263000Y-6315677D02*
X48845000Y-6315677D01*
X53179000Y-6275677D02*
X48929000Y-6275677D01*
X53091000Y-6235677D02*
X49017000Y-6235677D01*
X52998000Y-6195677D02*
X49110000Y-6195677D01*
X52900000Y-6155677D02*
X49208000Y-6155677D01*
X52796000Y-6115677D02*
X49312000Y-6115677D01*
X52684000Y-6075677D02*
X49424000Y-6075677D01*
X52564000Y-6035677D02*
X49544000Y-6035677D01*
X52432000Y-5995677D02*
X49676000Y-5995677D01*
X52284000Y-5955677D02*
X49824000Y-5955677D01*
X52116000Y-5915677D02*
X49992000Y-5915677D01*
X51916000Y-5875677D02*
X50192000Y-5875677D01*
X51653000Y-5835677D02*
X50455000Y-5835677D01*
X56174000Y-10916677D02*
G75*
G03*
X56174000Y-10916677I-5120000J0D01*
G01*
%TO.C,J4*%
X12437000Y-3151000D02*
X14937000Y-3151000D01*
X12437000Y-5651000D02*
X12437000Y-3151000D01*
X12737000Y-3451000D02*
X20457000Y-3451000D01*
X12737000Y-4951000D02*
X13737000Y-4951000D01*
X12737000Y-5761000D02*
X13237000Y-5761000D01*
X12737000Y-7471000D02*
X12737000Y-3451000D01*
X13237000Y-5761000D02*
X13237000Y-6971000D01*
X13237000Y-6971000D02*
X19957000Y-6971000D01*
X13737000Y-4951000D02*
X13737000Y-3451000D01*
X19457000Y-4951000D02*
X19457000Y-3451000D01*
X19957000Y-5761000D02*
X20457000Y-5761000D01*
X19957000Y-6971000D02*
X19957000Y-5761000D01*
X20457000Y-3451000D02*
X20457000Y-7471000D01*
X20457000Y-4951000D02*
X19457000Y-4951000D01*
X20457000Y-7471000D02*
X12737000Y-7471000D01*
%TO.C,C3*%
X36661000Y-80872000D02*
X40301000Y-80872000D01*
X36661000Y-81117000D02*
X36661000Y-80872000D01*
X36661000Y-83212000D02*
X36661000Y-82967000D01*
X36661000Y-83212000D02*
X40301000Y-83212000D01*
X40301000Y-81117000D02*
X40301000Y-80872000D01*
X40301000Y-83212000D02*
X40301000Y-82967000D01*
%TO.C,Q2*%
X18393000Y-11739000D02*
X21993000Y-11739000D01*
X18354522Y-11750522D02*
G75*
G03*
X20193000Y-16189000I1838478J-1838478D01*
G01*
X20193000Y-16189000D02*
G75*
G03*
X22031478Y-11750522I0J2600000D01*
G01*
%TO.C,U2*%
X33431400Y-58527600D02*
X43711400Y-58527600D01*
X33431400Y-76547600D02*
X33431400Y-58527600D01*
X35921400Y-58587600D02*
X41221400Y-58587600D01*
X35921400Y-76487600D02*
X35921400Y-58587600D01*
X37571400Y-76487600D02*
X35921400Y-76487600D01*
X41221400Y-58587600D02*
X41221400Y-76487600D01*
X41221400Y-76487600D02*
X39571400Y-76487600D01*
X43711400Y-58527600D02*
X43711400Y-76547600D01*
X43711400Y-76547600D02*
X33431400Y-76547600D01*
X39571400Y-76487600D02*
G75*
G03*
X37571400Y-76487600I-1000000J0D01*
G01*
%TO.C,J2*%
X22978000Y-3070000D02*
X25478000Y-3070000D01*
X22978000Y-5570000D02*
X22978000Y-3070000D01*
X23278000Y-3370000D02*
X33498000Y-3370000D01*
X23278000Y-4870000D02*
X24278000Y-4870000D01*
X23278000Y-5680000D02*
X23778000Y-5680000D01*
X23278000Y-7390000D02*
X23278000Y-3370000D01*
X23778000Y-5680000D02*
X23778000Y-6890000D01*
X23778000Y-6890000D02*
X32998000Y-6890000D01*
X24278000Y-4870000D02*
X24278000Y-3370000D01*
X32498000Y-4870000D02*
X32498000Y-3370000D01*
X32998000Y-5680000D02*
X33498000Y-5680000D01*
X32998000Y-6890000D02*
X32998000Y-5680000D01*
X33498000Y-3370000D02*
X33498000Y-7390000D01*
X33498000Y-4870000D02*
X32498000Y-4870000D01*
X33498000Y-7390000D02*
X23278000Y-7390000D01*
%TD*%
M02*
