M48
; DRILL file {KiCad 9.0.3} date 2025-08-19T00:15:30+0900
; FORMAT={-:-/ absolute / metric / decimal}
; #@! TF.CreationDate,2025-08-19T00:15:30+09:00
; #@! TF.GenerationSoftware,Kicad,Pcbnew,9.0.3
; #@! TF.FileFunction,Plated,1,2,PTH
FMAT,2
METRIC
; #@! TA.AperFunction,Plated,PTH,ViaDrill
T1C0.300
; #@! TA.AperFunction,Plated,PTH,ViaDrill
T2C0.400
; #@! TA.AperFunction,Plated,PTH,ComponentDrill
T3C0.600
; #@! TA.AperFunction,Plated,PTH,ComponentDrill
T4C0.950
; #@! TA.AperFunction,Plated,PTH,ComponentDrill
T5C1.000
; #@! TA.AperFunction,Plated,PTH,ComponentDrill
T6C1.020
; #@! TA.AperFunction,Plated,PTH,ComponentDrill
T7C1.800
; #@! TA.AperFunction,Plated,PTH,ComponentDrill
T8C2.410
%
G90
G05
T1
X1.27Y103.338
X1.27Y89.012
X1.321Y96.378
X1.372Y108.062
X1.49Y83.67
X1.49Y78.662
X1.49Y73.655
X1.49Y68.647
X1.49Y63.64
X1.49Y58.633
X1.49Y53.625
X1.49Y48.618
X1.49Y43.61
X1.49Y38.603
X1.49Y33.596
X1.49Y28.588
X1.49Y23.581
X1.49Y18.573
X1.49Y13.566
X1.49Y8.559
X1.5Y113.087
X4.369Y40.65
X4.674Y92.365
X5.029Y88.402
X6.771Y118.447
X6.909Y81.392
X7.518Y91.196
X7.874Y59.04
X9.001Y1.047
X9.296Y52.842
X9.5Y87.285
X9.79Y12.447
X9.85Y9.707
X10.516Y77.836
X10.566Y58.126
X10.566Y40.396
X10.82Y16.307
X10.922Y63.815
X11.684Y85.05
X11.779Y118.447
X12.19Y6.777
X12.344Y91.044
X13.18Y19.167
X14.009Y1.047
X14.478Y100.645
X14.681Y60.513
X15.037Y63.002
X15.06Y4.247
X15.24Y56.652
X15.392Y42.073
X15.596Y81.646
X15.596Y66.965
X15.9Y88.606
X16.786Y118.447
X16.88Y19.597
X18.186Y84.084
X18.339Y103.338
X19.016Y1.047
X19.202Y100.696
X19.406Y91.4
X19.558Y36.891
X19.88Y4.097
X20.2Y19.517
X20.371Y80.833
X20.777Y28.154
X21.692Y55.027
X21.742Y78.293
X21.742Y64.476
X21.793Y72.858
X21.794Y118.447
X22.25Y44.867
X22.606Y47.407
X22.86Y81.595
X23.05Y18.937
X23.1Y67.638
X23.216Y49.693
X23.927Y52.436
X24.023Y1.047
X24.282Y58.227
X24.384Y61.885
X25.06Y4.197
X25.197Y74.94
X25.908Y24.547
X26.289Y88.25
X26.416Y86.726
X26.467Y85.253
X26.47Y21.827
X26.543Y89.774
X26.721Y36.942
X26.797Y92.187
X26.797Y90.917
X26.801Y118.447
X26.924Y80.274
X26.924Y78.496
X27.305Y93.33
X27.686Y47.0
X27.737Y54.976
X27.93Y6.587
X28.245Y71.994
X28.296Y112.532
X28.296Y111.669
X28.448Y93.457
X29.031Y1.047
X29.362Y78.039
X29.769Y56.652
X29.845Y93.457
X29.972Y108.824
X30.07Y9.437
X30.074Y115.53
X30.099Y47.737
X30.886Y108.824
X30.937Y115.479
X31.242Y93.457
X31.344Y78.039
X31.808Y118.447
X31.852Y58.837
X32.563Y112.634
X32.563Y111.72
X32.766Y93.457
X32.817Y69.657
X33.528Y78.09
X33.82Y10.187
X34.036Y83.551
X34.036Y82.916
X34.038Y1.047
X34.14Y20.777
X34.21Y13.427
X34.22Y17.457
X34.29Y73.366
X34.417Y93.457
X34.671Y83.551
X34.671Y82.916
X34.747Y97.191
X34.747Y96.556
X34.747Y95.921
X34.747Y95.311
X34.9Y64.831
X35.154Y73.366
X35.154Y65.746
X35.2Y53.04
X35.382Y97.191
X35.382Y96.556
X35.408Y95.921
X35.408Y95.311
X35.865Y57.008
X35.916Y71.029
X36.017Y63.358
X36.195Y85.71
X36.271Y80.173
X36.322Y88.25
X36.449Y86.98
X36.474Y102.322
X36.816Y118.447
X37.186Y96.734
X37.236Y75.042
X37.236Y74.442
X37.287Y55.89
X37.785Y54.656
X37.846Y70.978
X38.02Y48.31
X38.049Y96.734
X38.151Y100.747
X38.227Y88.25
X38.302Y77.031
X38.608Y43.673
X38.791Y70.114
X38.862Y96.734
X38.862Y91.028
X39.046Y1.047
X39.167Y90.409
X39.268Y68.641
X39.522Y73.721
X39.776Y98.664
X39.802Y90.206
X39.878Y64.78
X40.132Y77.074
X40.335Y62.798
X40.488Y66.829
X40.551Y94.587
X40.894Y92.568
X40.894Y88.377
X41.402Y66.254
X41.783Y88.377
X41.823Y118.447
X41.91Y92.187
X42.012Y54.417
X42.494Y63.891
X42.774Y43.861
X42.799Y92.187
X42.799Y88.377
X43.18Y63.409
X43.18Y58.938
X43.18Y49.794
X43.5Y73.96
X44.044Y96.937
X44.053Y1.047
X44.094Y68.184
X44.109Y94.651
X44.277Y63.271
X44.337Y88.088
X44.577Y110.094
X44.577Y104.887
X44.577Y81.011
X44.577Y70.724
X44.803Y73.973
X44.907Y98.41
X45.104Y69.934
X45.568Y58.278
X45.669Y47.102
X45.809Y87.312
X45.822Y98.41
X45.923Y65.831
X46.291Y62.101
X46.609Y89.774
X46.634Y71.08
X46.7Y92.203
X46.736Y98.41
X46.831Y118.447
X46.939Y107.148
X47.025Y59.548
X47.193Y68.946
X47.25Y74.24
X47.295Y63.973
X47.6Y60.716
X47.68Y77.59
X47.752Y55.636
X47.854Y111.72
X48.26Y47.864
X48.26Y41.26
X48.26Y32.878
X48.463Y53.147
X48.565Y26.579
X48.616Y58.481
X48.819Y92.619
X48.87Y90.688
X48.93Y71.69
X49.06Y1.047
X49.276Y61.936
X49.378Y107.503
X49.403Y60.945
X49.59Y76.91
X49.657Y85.964
X50.038Y101.153
X50.089Y68.489
X50.28Y74.45
X50.495Y67.524
X50.952Y111.821
X51.003Y64.12
X51.206Y80.224
X51.206Y77.633
X51.359Y45.07
X51.473Y63.51
X51.613Y36.993
X51.613Y29.017
X51.838Y118.447
X52.121Y62.85
X52.222Y64.695
X52.578Y95.21
X52.578Y57.465
X52.883Y99.934
X52.934Y108.316
X52.949Y65.231
X52.953Y89.089
X53.086Y47.407
X53.137Y49.998
X53.391Y54.265
X53.442Y65.796
X53.86Y83.39
X54.068Y1.047
X54.76Y97.29
X54.762Y65.238
X54.864Y69.048
X55.067Y71.791
X55.067Y44.968
X55.677Y58.837
X55.829Y105.116
X55.931Y98.461
X56.032Y74.28
X56.236Y92.314
X56.388Y19.314
X56.846Y118.447
X57.652Y104.354
X57.652Y103.693
X57.652Y102.322
X57.658Y102.982
X58.064Y76.668
X58.41Y61.61
X58.572Y88.23
X58.776Y41.463
X58.877Y37.044
X59.075Y1.047
X59.131Y111.872
X59.182Y23.861
X59.436Y20.94
X59.487Y103.338
X59.792Y56.5
X59.792Y52.995
X60.249Y47.458
X60.35Y49.998
X60.53Y90.13
X60.706Y96.327
X61.062Y100.391
X61.265Y74.432
X61.265Y71.842
X61.316Y68.997
X61.417Y91.349
X61.853Y118.447
X62.23Y110.958
X62.23Y64.78
X62.586Y108.214
X62.68Y80.24
X63.423Y96.887
X63.754Y36.332
X63.805Y30.948
X64.019Y96.887
X64.083Y1.047
X64.414Y15.301
X64.606Y96.887
X64.668Y105.166
X64.68Y64.42
X64.77Y22.312
X64.77Y19.111
X64.973Y94.498
X65.01Y85.13
X65.16Y59.84
X65.176Y109.688
X65.28Y74.31
X65.32Y76.96
X65.39Y43.28
X65.48Y71.62
X65.558Y112.259
X65.59Y68.95
X65.786Y99.172
X65.91Y53.64
X65.95Y47.32
X65.97Y49.85
X66.243Y102.626
X66.345Y108.214
X66.853Y33.386
X66.86Y118.447
X67.06Y96.93
X67.19Y109.081
X67.695Y111.303
X67.716Y115.733
X68.199Y100.188
X68.783Y110.704
X68.936Y31.456
X68.936Y26.274
X69.09Y1.047
X69.647Y103.744
X70.12Y52.43
X70.358Y112.253
X70.358Y88.656
X70.98Y69.19
X71.09Y74.21
X71.39Y63.33
X71.45Y78.73
X71.5Y56.8
X71.58Y98.6
X71.97Y95.74
X72.085Y90.638
X73.025Y103.49
X73.101Y83.119
X73.152Y66.254
X73.152Y39.584
X73.152Y30.592
X73.203Y59.7
X73.203Y45.324
X73.304Y52.792
X73.355Y76.566
X73.355Y70.775
X73.406Y36.231
X74.097Y1.047
X74.524Y41.362
X75.7Y95.93
X75.895Y87.336
X75.946Y73.67
X75.946Y57.211
X75.946Y38.314
X75.997Y80.02
X76.098Y42.479
X76.454Y68.692
X76.606Y64.476
X76.875Y118.447
X77.165Y90.841
X77.826Y50.556
X78.384Y85.304
X78.689Y71.842
X79.105Y1.047
X79.502Y83.17
X79.604Y90.79
X79.807Y74.331
X79.959Y54.468
X80.162Y47.864
X80.32Y118.46
X82.245Y100.239
X82.347Y68.184
X82.423Y103.49
X84.074Y92.212
X84.105Y93.432
X84.156Y97.242
X84.156Y94.651
X84.277Y60.005
X84.379Y51.369
X84.517Y67.611
X84.836Y63.739
X85.09Y95.972
X85.141Y64.933
X85.598Y70.089
X86.208Y48.778
X86.614Y90.384
X86.817Y98.816
X86.89Y113.44
X86.89Y108.433
X86.89Y103.425
X86.89Y83.396
X86.89Y73.381
X86.89Y68.373
X86.89Y53.351
X86.89Y43.336
X86.89Y38.329
X86.89Y33.321
X86.89Y28.314
X86.89Y23.307
X86.89Y18.299
X86.89Y13.292
X86.89Y8.284
T2
X34.595Y47.661
X34.595Y46.391
X34.646Y48.931
T4
X4.787Y85.202
X4.787Y82.702
X4.787Y80.202
X4.787Y77.702
X41.829Y114.378
X44.329Y114.378
X46.829Y114.378
T5
X19.685Y76.566
X19.685Y74.026
X19.685Y71.486
X19.685Y68.946
X19.685Y66.406
X19.685Y63.866
X19.685Y61.326
X19.685Y58.786
X19.685Y53.709
X19.685Y51.169
X19.685Y48.629
X19.685Y46.089
X19.685Y43.549
X19.685Y41.009
X28.742Y32.438
X28.742Y29.898
X28.742Y27.358
X28.742Y24.818
X28.742Y22.278
X28.742Y19.738
X28.742Y17.198
X28.742Y14.658
X28.742Y12.118
X31.282Y32.438
X31.282Y29.898
X31.282Y27.358
X31.282Y24.818
X31.282Y22.278
X31.282Y19.738
X31.282Y17.198
X31.282Y14.658
X31.282Y12.118
X66.782Y31.168
X66.782Y28.628
X66.782Y26.088
X66.782Y23.548
X66.782Y21.008
X66.782Y18.468
X66.782Y15.928
X66.782Y13.388
X67.995Y58.659
X67.995Y56.119
X67.995Y53.579
X67.995Y51.039
X67.995Y48.499
X67.995Y45.959
X67.995Y43.419
X67.995Y40.879
X67.998Y85.57
X67.998Y83.03
X67.998Y80.49
X67.998Y77.95
X67.998Y75.41
X67.998Y72.87
X67.998Y70.33
X67.998Y67.79
X67.998Y65.25
X67.998Y62.71
T6
X10.367Y32.658
X10.367Y29.658
X10.367Y26.658
X13.367Y32.658
X13.367Y29.658
X13.367Y26.658
T7
X14.92Y107.173
X15.582Y16.758
X15.582Y12.558
X20.42Y107.173
X21.082Y16.758
X21.082Y12.558
T8
X6.047Y34.808
X6.047Y24.508
T3
G00X63.625Y117.881
M15
G01X63.625Y118.681
M16
G05
G00X63.625Y113.531
M15
G01X63.625Y114.631
M16
G05
G00X72.265Y117.881
M15
G01X72.265Y118.681
M16
G05
G00X72.265Y113.531
M15
G01X72.265Y114.631
M16
G05
M30
