%TF.GenerationSoftware,KiCad,Pcbnew,9.0.3*%
%TF.CreationDate,2025-08-19T00:15:23+09:00*%
%TF.ProjectId,Spct,53706374-2e6b-4696-9361-645f70636258,rev?*%
%TF.SameCoordinates,PX2540608PY9154d58*%
%TF.FileFunction,AssemblyDrawing,Bot*%
%FSLAX46Y46*%
G04 Gerber Fmt 4.6, Leading zero omitted, Abs format (unit mm)*
G04 Created by KiCad (PCBNEW 9.0.3) date 2025-08-19 00:15:23*
%MOMM*%
%LPD*%
G01*
G04 APERTURE LIST*
%ADD10C,0.150000*%
%ADD11C,0.100000*%
G04 APERTURE END LIST*
D10*
X608009Y86690095D02*
X608009Y86356762D01*
X1131819Y86213905D02*
X1131819Y86690095D01*
X1131819Y86690095D02*
X131819Y86690095D01*
X131819Y86690095D02*
X131819Y86213905D01*
X1131819Y85785333D02*
X131819Y85785333D01*
X608009Y85785333D02*
X608009Y85213905D01*
X1131819Y85213905D02*
X131819Y85213905D01*
X1227057Y84975809D02*
X1227057Y84213905D01*
X608009Y83642476D02*
X655628Y83499619D01*
X655628Y83499619D02*
X703247Y83452000D01*
X703247Y83452000D02*
X798485Y83404381D01*
X798485Y83404381D02*
X941342Y83404381D01*
X941342Y83404381D02*
X1036580Y83452000D01*
X1036580Y83452000D02*
X1084200Y83499619D01*
X1084200Y83499619D02*
X1131819Y83594857D01*
X1131819Y83594857D02*
X1131819Y83975809D01*
X1131819Y83975809D02*
X131819Y83975809D01*
X131819Y83975809D02*
X131819Y83642476D01*
X131819Y83642476D02*
X179438Y83547238D01*
X179438Y83547238D02*
X227057Y83499619D01*
X227057Y83499619D02*
X322295Y83452000D01*
X322295Y83452000D02*
X417533Y83452000D01*
X417533Y83452000D02*
X512771Y83499619D01*
X512771Y83499619D02*
X560390Y83547238D01*
X560390Y83547238D02*
X608009Y83642476D01*
X608009Y83642476D02*
X608009Y83975809D01*
X465152Y82547238D02*
X1131819Y82547238D01*
X84200Y82785333D02*
X798485Y83023428D01*
X798485Y83023428D02*
X798485Y82404381D01*
X608009Y81690095D02*
X655628Y81547238D01*
X655628Y81547238D02*
X703247Y81499619D01*
X703247Y81499619D02*
X798485Y81452000D01*
X798485Y81452000D02*
X941342Y81452000D01*
X941342Y81452000D02*
X1036580Y81499619D01*
X1036580Y81499619D02*
X1084200Y81547238D01*
X1084200Y81547238D02*
X1131819Y81642476D01*
X1131819Y81642476D02*
X1131819Y82023428D01*
X1131819Y82023428D02*
X131819Y82023428D01*
X131819Y82023428D02*
X131819Y81690095D01*
X131819Y81690095D02*
X179438Y81594857D01*
X179438Y81594857D02*
X227057Y81547238D01*
X227057Y81547238D02*
X322295Y81499619D01*
X322295Y81499619D02*
X417533Y81499619D01*
X417533Y81499619D02*
X512771Y81547238D01*
X512771Y81547238D02*
X560390Y81594857D01*
X560390Y81594857D02*
X608009Y81690095D01*
X608009Y81690095D02*
X608009Y82023428D01*
X750866Y81023428D02*
X750866Y80261523D01*
X608009Y79785333D02*
X608009Y79452000D01*
X1131819Y79309143D02*
X1131819Y79785333D01*
X1131819Y79785333D02*
X131819Y79785333D01*
X131819Y79785333D02*
X131819Y79309143D01*
X1131819Y78880571D02*
X131819Y78880571D01*
X608009Y78880571D02*
X608009Y78309143D01*
X1131819Y78309143D02*
X131819Y78309143D01*
X750866Y77832952D02*
X750866Y77071047D01*
X846104Y76642476D02*
X846104Y76166286D01*
X1131819Y76737714D02*
X131819Y76404381D01*
X131819Y76404381D02*
X1131819Y76071048D01*
X2741819Y81785334D02*
X3456104Y81785334D01*
X3456104Y81785334D02*
X3598961Y81832953D01*
X3598961Y81832953D02*
X3694200Y81928191D01*
X3694200Y81928191D02*
X3741819Y82071048D01*
X3741819Y82071048D02*
X3741819Y82166286D01*
X2741819Y80832953D02*
X2741819Y81309143D01*
X2741819Y81309143D02*
X3218009Y81356762D01*
X3218009Y81356762D02*
X3170390Y81309143D01*
X3170390Y81309143D02*
X3122771Y81213905D01*
X3122771Y81213905D02*
X3122771Y80975810D01*
X3122771Y80975810D02*
X3170390Y80880572D01*
X3170390Y80880572D02*
X3218009Y80832953D01*
X3218009Y80832953D02*
X3313247Y80785334D01*
X3313247Y80785334D02*
X3551342Y80785334D01*
X3551342Y80785334D02*
X3646580Y80832953D01*
X3646580Y80832953D02*
X3694200Y80880572D01*
X3694200Y80880572D02*
X3741819Y80975810D01*
X3741819Y80975810D02*
X3741819Y81213905D01*
X3741819Y81213905D02*
X3694200Y81309143D01*
X3694200Y81309143D02*
X3646580Y81356762D01*
X23924819Y114577762D02*
X22924819Y114577762D01*
X22924819Y114577762D02*
X23639104Y114244429D01*
X23639104Y114244429D02*
X22924819Y113911096D01*
X22924819Y113911096D02*
X23924819Y113911096D01*
X23924819Y113434905D02*
X23258152Y113434905D01*
X22924819Y113434905D02*
X22972438Y113482524D01*
X22972438Y113482524D02*
X23020057Y113434905D01*
X23020057Y113434905D02*
X22972438Y113387286D01*
X22972438Y113387286D02*
X22924819Y113434905D01*
X22924819Y113434905D02*
X23020057Y113434905D01*
X23258152Y112958715D02*
X23924819Y112958715D01*
X23353390Y112958715D02*
X23305771Y112911096D01*
X23305771Y112911096D02*
X23258152Y112815858D01*
X23258152Y112815858D02*
X23258152Y112673001D01*
X23258152Y112673001D02*
X23305771Y112577763D01*
X23305771Y112577763D02*
X23401009Y112530144D01*
X23401009Y112530144D02*
X23924819Y112530144D01*
X23924819Y112053953D02*
X23258152Y112053953D01*
X22924819Y112053953D02*
X22972438Y112101572D01*
X22972438Y112101572D02*
X23020057Y112053953D01*
X23020057Y112053953D02*
X22972438Y112006334D01*
X22972438Y112006334D02*
X22924819Y112053953D01*
X22924819Y112053953D02*
X23020057Y112053953D01*
X23543866Y111577763D02*
X23543866Y110815858D01*
X23401009Y110006335D02*
X23401009Y110339668D01*
X23924819Y110339668D02*
X22924819Y110339668D01*
X22924819Y110339668D02*
X22924819Y109863478D01*
X23924819Y109482525D02*
X23258152Y109482525D01*
X22924819Y109482525D02*
X22972438Y109530144D01*
X22972438Y109530144D02*
X23020057Y109482525D01*
X23020057Y109482525D02*
X22972438Y109434906D01*
X22972438Y109434906D02*
X22924819Y109482525D01*
X22924819Y109482525D02*
X23020057Y109482525D01*
X23258152Y109149192D02*
X23258152Y108768240D01*
X22924819Y109006335D02*
X23781961Y109006335D01*
X23781961Y109006335D02*
X23877200Y108958716D01*
X23877200Y108958716D02*
X23924819Y108863478D01*
X23924819Y108863478D02*
X23924819Y108768240D01*
X24305771Y108149192D02*
X24258152Y108196811D01*
X24258152Y108196811D02*
X24115295Y108292049D01*
X24115295Y108292049D02*
X24020057Y108339668D01*
X24020057Y108339668D02*
X23877200Y108387287D01*
X23877200Y108387287D02*
X23639104Y108434906D01*
X23639104Y108434906D02*
X23448628Y108434906D01*
X23448628Y108434906D02*
X23210533Y108387287D01*
X23210533Y108387287D02*
X23067676Y108339668D01*
X23067676Y108339668D02*
X22972438Y108292049D01*
X22972438Y108292049D02*
X22829580Y108196811D01*
X22829580Y108196811D02*
X22781961Y108149192D01*
X22924819Y107292049D02*
X22924819Y107768239D01*
X22924819Y107768239D02*
X23401009Y107815858D01*
X23401009Y107815858D02*
X23353390Y107768239D01*
X23353390Y107768239D02*
X23305771Y107673001D01*
X23305771Y107673001D02*
X23305771Y107434906D01*
X23305771Y107434906D02*
X23353390Y107339668D01*
X23353390Y107339668D02*
X23401009Y107292049D01*
X23401009Y107292049D02*
X23496247Y107244430D01*
X23496247Y107244430D02*
X23734342Y107244430D01*
X23734342Y107244430D02*
X23829580Y107292049D01*
X23829580Y107292049D02*
X23877200Y107339668D01*
X23877200Y107339668D02*
X23924819Y107434906D01*
X23924819Y107434906D02*
X23924819Y107673001D01*
X23924819Y107673001D02*
X23877200Y107768239D01*
X23877200Y107768239D02*
X23829580Y107815858D01*
X22924819Y106339668D02*
X22924819Y106815858D01*
X22924819Y106815858D02*
X23401009Y106863477D01*
X23401009Y106863477D02*
X23353390Y106815858D01*
X23353390Y106815858D02*
X23305771Y106720620D01*
X23305771Y106720620D02*
X23305771Y106482525D01*
X23305771Y106482525D02*
X23353390Y106387287D01*
X23353390Y106387287D02*
X23401009Y106339668D01*
X23401009Y106339668D02*
X23496247Y106292049D01*
X23496247Y106292049D02*
X23734342Y106292049D01*
X23734342Y106292049D02*
X23829580Y106339668D01*
X23829580Y106339668D02*
X23877200Y106387287D01*
X23877200Y106387287D02*
X23924819Y106482525D01*
X23924819Y106482525D02*
X23924819Y106720620D01*
X23924819Y106720620D02*
X23877200Y106815858D01*
X23877200Y106815858D02*
X23829580Y106863477D01*
X22924819Y105434906D02*
X22924819Y105625382D01*
X22924819Y105625382D02*
X22972438Y105720620D01*
X22972438Y105720620D02*
X23020057Y105768239D01*
X23020057Y105768239D02*
X23162914Y105863477D01*
X23162914Y105863477D02*
X23353390Y105911096D01*
X23353390Y105911096D02*
X23734342Y105911096D01*
X23734342Y105911096D02*
X23829580Y105863477D01*
X23829580Y105863477D02*
X23877200Y105815858D01*
X23877200Y105815858D02*
X23924819Y105720620D01*
X23924819Y105720620D02*
X23924819Y105530144D01*
X23924819Y105530144D02*
X23877200Y105434906D01*
X23877200Y105434906D02*
X23829580Y105387287D01*
X23829580Y105387287D02*
X23734342Y105339668D01*
X23734342Y105339668D02*
X23496247Y105339668D01*
X23496247Y105339668D02*
X23401009Y105387287D01*
X23401009Y105387287D02*
X23353390Y105434906D01*
X23353390Y105434906D02*
X23305771Y105530144D01*
X23305771Y105530144D02*
X23305771Y105720620D01*
X23305771Y105720620D02*
X23353390Y105815858D01*
X23353390Y105815858D02*
X23401009Y105863477D01*
X23401009Y105863477D02*
X23496247Y105911096D01*
X23924819Y104863477D02*
X23924819Y104673001D01*
X23924819Y104673001D02*
X23877200Y104577763D01*
X23877200Y104577763D02*
X23829580Y104530144D01*
X23829580Y104530144D02*
X23686723Y104434906D01*
X23686723Y104434906D02*
X23496247Y104387287D01*
X23496247Y104387287D02*
X23115295Y104387287D01*
X23115295Y104387287D02*
X23020057Y104434906D01*
X23020057Y104434906D02*
X22972438Y104482525D01*
X22972438Y104482525D02*
X22924819Y104577763D01*
X22924819Y104577763D02*
X22924819Y104768239D01*
X22924819Y104768239D02*
X22972438Y104863477D01*
X22972438Y104863477D02*
X23020057Y104911096D01*
X23020057Y104911096D02*
X23115295Y104958715D01*
X23115295Y104958715D02*
X23353390Y104958715D01*
X23353390Y104958715D02*
X23448628Y104911096D01*
X23448628Y104911096D02*
X23496247Y104863477D01*
X23496247Y104863477D02*
X23543866Y104768239D01*
X23543866Y104768239D02*
X23543866Y104577763D01*
X23543866Y104577763D02*
X23496247Y104482525D01*
X23496247Y104482525D02*
X23448628Y104434906D01*
X23448628Y104434906D02*
X23353390Y104387287D01*
X23543866Y103958715D02*
X23543866Y103196810D01*
X22924819Y102530144D02*
X22924819Y102434906D01*
X22924819Y102434906D02*
X22972438Y102339668D01*
X22972438Y102339668D02*
X23020057Y102292049D01*
X23020057Y102292049D02*
X23115295Y102244430D01*
X23115295Y102244430D02*
X23305771Y102196811D01*
X23305771Y102196811D02*
X23543866Y102196811D01*
X23543866Y102196811D02*
X23734342Y102244430D01*
X23734342Y102244430D02*
X23829580Y102292049D01*
X23829580Y102292049D02*
X23877200Y102339668D01*
X23877200Y102339668D02*
X23924819Y102434906D01*
X23924819Y102434906D02*
X23924819Y102530144D01*
X23924819Y102530144D02*
X23877200Y102625382D01*
X23877200Y102625382D02*
X23829580Y102673001D01*
X23829580Y102673001D02*
X23734342Y102720620D01*
X23734342Y102720620D02*
X23543866Y102768239D01*
X23543866Y102768239D02*
X23305771Y102768239D01*
X23305771Y102768239D02*
X23115295Y102720620D01*
X23115295Y102720620D02*
X23020057Y102673001D01*
X23020057Y102673001D02*
X22972438Y102625382D01*
X22972438Y102625382D02*
X22924819Y102530144D01*
X23020057Y101815858D02*
X22972438Y101768239D01*
X22972438Y101768239D02*
X22924819Y101673001D01*
X22924819Y101673001D02*
X22924819Y101434906D01*
X22924819Y101434906D02*
X22972438Y101339668D01*
X22972438Y101339668D02*
X23020057Y101292049D01*
X23020057Y101292049D02*
X23115295Y101244430D01*
X23115295Y101244430D02*
X23210533Y101244430D01*
X23210533Y101244430D02*
X23353390Y101292049D01*
X23353390Y101292049D02*
X23924819Y101863477D01*
X23924819Y101863477D02*
X23924819Y101244430D01*
X23639104Y100863477D02*
X23639104Y100387287D01*
X23924819Y100958715D02*
X22924819Y100625382D01*
X22924819Y100625382D02*
X23924819Y100292049D01*
X24305771Y100053953D02*
X24258152Y100006334D01*
X24258152Y100006334D02*
X24115295Y99911096D01*
X24115295Y99911096D02*
X24020057Y99863477D01*
X24020057Y99863477D02*
X23877200Y99815858D01*
X23877200Y99815858D02*
X23639104Y99768239D01*
X23639104Y99768239D02*
X23448628Y99768239D01*
X23448628Y99768239D02*
X23210533Y99815858D01*
X23210533Y99815858D02*
X23067676Y99863477D01*
X23067676Y99863477D02*
X22972438Y99911096D01*
X22972438Y99911096D02*
X22829580Y100006334D01*
X22829580Y100006334D02*
X22781961Y100053953D01*
X1174819Y107506334D02*
X1889104Y107506334D01*
X1889104Y107506334D02*
X2031961Y107553953D01*
X2031961Y107553953D02*
X2127200Y107649191D01*
X2127200Y107649191D02*
X2174819Y107792048D01*
X2174819Y107792048D02*
X2174819Y107887286D01*
X2174819Y106506334D02*
X2174819Y107077762D01*
X2174819Y106792048D02*
X1174819Y106792048D01*
X1174819Y106792048D02*
X1317676Y106887286D01*
X1317676Y106887286D02*
X1412914Y106982524D01*
X1412914Y106982524D02*
X1460533Y107077762D01*
X70520095Y10258420D02*
X70567714Y10210800D01*
X70567714Y10210800D02*
X70710571Y10163181D01*
X70710571Y10163181D02*
X70805809Y10163181D01*
X70805809Y10163181D02*
X70948666Y10210800D01*
X70948666Y10210800D02*
X71043904Y10306039D01*
X71043904Y10306039D02*
X71091523Y10401277D01*
X71091523Y10401277D02*
X71139142Y10591753D01*
X71139142Y10591753D02*
X71139142Y10734610D01*
X71139142Y10734610D02*
X71091523Y10925086D01*
X71091523Y10925086D02*
X71043904Y11020324D01*
X71043904Y11020324D02*
X70948666Y11115562D01*
X70948666Y11115562D02*
X70805809Y11163181D01*
X70805809Y11163181D02*
X70710571Y11163181D01*
X70710571Y11163181D02*
X70567714Y11115562D01*
X70567714Y11115562D02*
X70520095Y11067943D01*
X69948666Y10163181D02*
X70043904Y10210800D01*
X70043904Y10210800D02*
X70091523Y10258420D01*
X70091523Y10258420D02*
X70139142Y10353658D01*
X70139142Y10353658D02*
X70139142Y10639372D01*
X70139142Y10639372D02*
X70091523Y10734610D01*
X70091523Y10734610D02*
X70043904Y10782229D01*
X70043904Y10782229D02*
X69948666Y10829848D01*
X69948666Y10829848D02*
X69805809Y10829848D01*
X69805809Y10829848D02*
X69710571Y10782229D01*
X69710571Y10782229D02*
X69662952Y10734610D01*
X69662952Y10734610D02*
X69615333Y10639372D01*
X69615333Y10639372D02*
X69615333Y10353658D01*
X69615333Y10353658D02*
X69662952Y10258420D01*
X69662952Y10258420D02*
X69710571Y10210800D01*
X69710571Y10210800D02*
X69805809Y10163181D01*
X69805809Y10163181D02*
X69948666Y10163181D01*
X69186761Y10829848D02*
X69186761Y10163181D01*
X69186761Y10734610D02*
X69139142Y10782229D01*
X69139142Y10782229D02*
X69043904Y10829848D01*
X69043904Y10829848D02*
X68901047Y10829848D01*
X68901047Y10829848D02*
X68805809Y10782229D01*
X68805809Y10782229D02*
X68758190Y10686991D01*
X68758190Y10686991D02*
X68758190Y10163181D01*
X68281999Y10829848D02*
X68281999Y10163181D01*
X68281999Y10734610D02*
X68234380Y10782229D01*
X68234380Y10782229D02*
X68139142Y10829848D01*
X68139142Y10829848D02*
X67996285Y10829848D01*
X67996285Y10829848D02*
X67901047Y10782229D01*
X67901047Y10782229D02*
X67853428Y10686991D01*
X67853428Y10686991D02*
X67853428Y10163181D01*
X67615333Y10067943D02*
X66853428Y10067943D01*
X66424856Y11163181D02*
X66329618Y11163181D01*
X66329618Y11163181D02*
X66234380Y11115562D01*
X66234380Y11115562D02*
X66186761Y11067943D01*
X66186761Y11067943D02*
X66139142Y10972705D01*
X66139142Y10972705D02*
X66091523Y10782229D01*
X66091523Y10782229D02*
X66091523Y10544134D01*
X66091523Y10544134D02*
X66139142Y10353658D01*
X66139142Y10353658D02*
X66186761Y10258420D01*
X66186761Y10258420D02*
X66234380Y10210800D01*
X66234380Y10210800D02*
X66329618Y10163181D01*
X66329618Y10163181D02*
X66424856Y10163181D01*
X66424856Y10163181D02*
X66520094Y10210800D01*
X66520094Y10210800D02*
X66567713Y10258420D01*
X66567713Y10258420D02*
X66615332Y10353658D01*
X66615332Y10353658D02*
X66662951Y10544134D01*
X66662951Y10544134D02*
X66662951Y10782229D01*
X66662951Y10782229D02*
X66615332Y10972705D01*
X66615332Y10972705D02*
X66567713Y11067943D01*
X66567713Y11067943D02*
X66520094Y11115562D01*
X66520094Y11115562D02*
X66424856Y11163181D01*
X65139142Y10163181D02*
X65710570Y10163181D01*
X65424856Y10163181D02*
X65424856Y11163181D01*
X65424856Y11163181D02*
X65520094Y11020324D01*
X65520094Y11020324D02*
X65615332Y10925086D01*
X65615332Y10925086D02*
X65710570Y10877467D01*
X64805808Y10163181D02*
X64281999Y10829848D01*
X64805808Y10829848D02*
X64281999Y10163181D01*
X63710570Y11163181D02*
X63615332Y11163181D01*
X63615332Y11163181D02*
X63520094Y11115562D01*
X63520094Y11115562D02*
X63472475Y11067943D01*
X63472475Y11067943D02*
X63424856Y10972705D01*
X63424856Y10972705D02*
X63377237Y10782229D01*
X63377237Y10782229D02*
X63377237Y10544134D01*
X63377237Y10544134D02*
X63424856Y10353658D01*
X63424856Y10353658D02*
X63472475Y10258420D01*
X63472475Y10258420D02*
X63520094Y10210800D01*
X63520094Y10210800D02*
X63615332Y10163181D01*
X63615332Y10163181D02*
X63710570Y10163181D01*
X63710570Y10163181D02*
X63805808Y10210800D01*
X63805808Y10210800D02*
X63853427Y10258420D01*
X63853427Y10258420D02*
X63901046Y10353658D01*
X63901046Y10353658D02*
X63948665Y10544134D01*
X63948665Y10544134D02*
X63948665Y10782229D01*
X63948665Y10782229D02*
X63901046Y10972705D01*
X63901046Y10972705D02*
X63853427Y11067943D01*
X63853427Y11067943D02*
X63805808Y11115562D01*
X63805808Y11115562D02*
X63710570Y11163181D01*
X62805808Y10734610D02*
X62901046Y10782229D01*
X62901046Y10782229D02*
X62948665Y10829848D01*
X62948665Y10829848D02*
X62996284Y10925086D01*
X62996284Y10925086D02*
X62996284Y10972705D01*
X62996284Y10972705D02*
X62948665Y11067943D01*
X62948665Y11067943D02*
X62901046Y11115562D01*
X62901046Y11115562D02*
X62805808Y11163181D01*
X62805808Y11163181D02*
X62615332Y11163181D01*
X62615332Y11163181D02*
X62520094Y11115562D01*
X62520094Y11115562D02*
X62472475Y11067943D01*
X62472475Y11067943D02*
X62424856Y10972705D01*
X62424856Y10972705D02*
X62424856Y10925086D01*
X62424856Y10925086D02*
X62472475Y10829848D01*
X62472475Y10829848D02*
X62520094Y10782229D01*
X62520094Y10782229D02*
X62615332Y10734610D01*
X62615332Y10734610D02*
X62805808Y10734610D01*
X62805808Y10734610D02*
X62901046Y10686991D01*
X62901046Y10686991D02*
X62948665Y10639372D01*
X62948665Y10639372D02*
X62996284Y10544134D01*
X62996284Y10544134D02*
X62996284Y10353658D01*
X62996284Y10353658D02*
X62948665Y10258420D01*
X62948665Y10258420D02*
X62901046Y10210800D01*
X62901046Y10210800D02*
X62805808Y10163181D01*
X62805808Y10163181D02*
X62615332Y10163181D01*
X62615332Y10163181D02*
X62520094Y10210800D01*
X62520094Y10210800D02*
X62472475Y10258420D01*
X62472475Y10258420D02*
X62424856Y10353658D01*
X62424856Y10353658D02*
X62424856Y10544134D01*
X62424856Y10544134D02*
X62472475Y10639372D01*
X62472475Y10639372D02*
X62520094Y10686991D01*
X62520094Y10686991D02*
X62615332Y10734610D01*
X66236819Y23087524D02*
X66951104Y23087524D01*
X66951104Y23087524D02*
X67093961Y23135143D01*
X67093961Y23135143D02*
X67189200Y23230381D01*
X67189200Y23230381D02*
X67236819Y23373238D01*
X67236819Y23373238D02*
X67236819Y23468476D01*
X67236819Y22087524D02*
X67236819Y22658952D01*
X67236819Y22373238D02*
X66236819Y22373238D01*
X66236819Y22373238D02*
X66379676Y22468476D01*
X66379676Y22468476D02*
X66474914Y22563714D01*
X66474914Y22563714D02*
X66522533Y22658952D01*
X66236819Y21468476D02*
X66236819Y21373238D01*
X66236819Y21373238D02*
X66284438Y21278000D01*
X66284438Y21278000D02*
X66332057Y21230381D01*
X66332057Y21230381D02*
X66427295Y21182762D01*
X66427295Y21182762D02*
X66617771Y21135143D01*
X66617771Y21135143D02*
X66855866Y21135143D01*
X66855866Y21135143D02*
X67046342Y21182762D01*
X67046342Y21182762D02*
X67141580Y21230381D01*
X67141580Y21230381D02*
X67189200Y21278000D01*
X67189200Y21278000D02*
X67236819Y21373238D01*
X67236819Y21373238D02*
X67236819Y21468476D01*
X67236819Y21468476D02*
X67189200Y21563714D01*
X67189200Y21563714D02*
X67141580Y21611333D01*
X67141580Y21611333D02*
X67046342Y21658952D01*
X67046342Y21658952D02*
X66855866Y21706571D01*
X66855866Y21706571D02*
X66617771Y21706571D01*
X66617771Y21706571D02*
X66427295Y21658952D01*
X66427295Y21658952D02*
X66332057Y21611333D01*
X66332057Y21611333D02*
X66284438Y21563714D01*
X66284438Y21563714D02*
X66236819Y21468476D01*
X16521819Y35348477D02*
X15521819Y35348477D01*
X15521819Y35348477D02*
X16236104Y35015144D01*
X16236104Y35015144D02*
X15521819Y34681811D01*
X15521819Y34681811D02*
X16521819Y34681811D01*
X16521819Y34062763D02*
X16474200Y34158001D01*
X16474200Y34158001D02*
X16426580Y34205620D01*
X16426580Y34205620D02*
X16331342Y34253239D01*
X16331342Y34253239D02*
X16045628Y34253239D01*
X16045628Y34253239D02*
X15950390Y34205620D01*
X15950390Y34205620D02*
X15902771Y34158001D01*
X15902771Y34158001D02*
X15855152Y34062763D01*
X15855152Y34062763D02*
X15855152Y33919906D01*
X15855152Y33919906D02*
X15902771Y33824668D01*
X15902771Y33824668D02*
X15950390Y33777049D01*
X15950390Y33777049D02*
X16045628Y33729430D01*
X16045628Y33729430D02*
X16331342Y33729430D01*
X16331342Y33729430D02*
X16426580Y33777049D01*
X16426580Y33777049D02*
X16474200Y33824668D01*
X16474200Y33824668D02*
X16521819Y33919906D01*
X16521819Y33919906D02*
X16521819Y34062763D01*
X15855152Y33443715D02*
X15855152Y33062763D01*
X15521819Y33300858D02*
X16378961Y33300858D01*
X16378961Y33300858D02*
X16474200Y33253239D01*
X16474200Y33253239D02*
X16521819Y33158001D01*
X16521819Y33158001D02*
X16521819Y33062763D01*
X16521819Y32586572D02*
X16474200Y32681810D01*
X16474200Y32681810D02*
X16426580Y32729429D01*
X16426580Y32729429D02*
X16331342Y32777048D01*
X16331342Y32777048D02*
X16045628Y32777048D01*
X16045628Y32777048D02*
X15950390Y32729429D01*
X15950390Y32729429D02*
X15902771Y32681810D01*
X15902771Y32681810D02*
X15855152Y32586572D01*
X15855152Y32586572D02*
X15855152Y32443715D01*
X15855152Y32443715D02*
X15902771Y32348477D01*
X15902771Y32348477D02*
X15950390Y32300858D01*
X15950390Y32300858D02*
X16045628Y32253239D01*
X16045628Y32253239D02*
X16331342Y32253239D01*
X16331342Y32253239D02*
X16426580Y32300858D01*
X16426580Y32300858D02*
X16474200Y32348477D01*
X16474200Y32348477D02*
X16521819Y32443715D01*
X16521819Y32443715D02*
X16521819Y32586572D01*
X16521819Y31824667D02*
X15855152Y31824667D01*
X16045628Y31824667D02*
X15950390Y31777048D01*
X15950390Y31777048D02*
X15902771Y31729429D01*
X15902771Y31729429D02*
X15855152Y31634191D01*
X15855152Y31634191D02*
X15855152Y31538953D01*
X16617057Y31443714D02*
X16617057Y30681810D01*
X15998009Y30110381D02*
X15998009Y30443714D01*
X16521819Y30443714D02*
X15521819Y30443714D01*
X15521819Y30443714D02*
X15521819Y29967524D01*
X16474200Y29205619D02*
X16521819Y29300857D01*
X16521819Y29300857D02*
X16521819Y29491333D01*
X16521819Y29491333D02*
X16474200Y29586571D01*
X16474200Y29586571D02*
X16378961Y29634190D01*
X16378961Y29634190D02*
X15998009Y29634190D01*
X15998009Y29634190D02*
X15902771Y29586571D01*
X15902771Y29586571D02*
X15855152Y29491333D01*
X15855152Y29491333D02*
X15855152Y29300857D01*
X15855152Y29300857D02*
X15902771Y29205619D01*
X15902771Y29205619D02*
X15998009Y29158000D01*
X15998009Y29158000D02*
X16093247Y29158000D01*
X16093247Y29158000D02*
X16188485Y29634190D01*
X16474200Y28348476D02*
X16521819Y28443714D01*
X16521819Y28443714D02*
X16521819Y28634190D01*
X16521819Y28634190D02*
X16474200Y28729428D01*
X16474200Y28729428D02*
X16378961Y28777047D01*
X16378961Y28777047D02*
X15998009Y28777047D01*
X15998009Y28777047D02*
X15902771Y28729428D01*
X15902771Y28729428D02*
X15855152Y28634190D01*
X15855152Y28634190D02*
X15855152Y28443714D01*
X15855152Y28443714D02*
X15902771Y28348476D01*
X15902771Y28348476D02*
X15998009Y28300857D01*
X15998009Y28300857D02*
X16093247Y28300857D01*
X16093247Y28300857D02*
X16188485Y28777047D01*
X16521819Y27443714D02*
X15521819Y27443714D01*
X16474200Y27443714D02*
X16521819Y27538952D01*
X16521819Y27538952D02*
X16521819Y27729428D01*
X16521819Y27729428D02*
X16474200Y27824666D01*
X16474200Y27824666D02*
X16426580Y27872285D01*
X16426580Y27872285D02*
X16331342Y27919904D01*
X16331342Y27919904D02*
X16045628Y27919904D01*
X16045628Y27919904D02*
X15950390Y27872285D01*
X15950390Y27872285D02*
X15902771Y27824666D01*
X15902771Y27824666D02*
X15855152Y27729428D01*
X15855152Y27729428D02*
X15855152Y27538952D01*
X15855152Y27538952D02*
X15902771Y27443714D01*
X16521819Y26967523D02*
X15521819Y26967523D01*
X15902771Y26967523D02*
X15855152Y26872285D01*
X15855152Y26872285D02*
X15855152Y26681809D01*
X15855152Y26681809D02*
X15902771Y26586571D01*
X15902771Y26586571D02*
X15950390Y26538952D01*
X15950390Y26538952D02*
X16045628Y26491333D01*
X16045628Y26491333D02*
X16331342Y26491333D01*
X16331342Y26491333D02*
X16426580Y26538952D01*
X16426580Y26538952D02*
X16474200Y26586571D01*
X16474200Y26586571D02*
X16521819Y26681809D01*
X16521819Y26681809D02*
X16521819Y26872285D01*
X16521819Y26872285D02*
X16474200Y26967523D01*
X16521819Y25634190D02*
X15998009Y25634190D01*
X15998009Y25634190D02*
X15902771Y25681809D01*
X15902771Y25681809D02*
X15855152Y25777047D01*
X15855152Y25777047D02*
X15855152Y25967523D01*
X15855152Y25967523D02*
X15902771Y26062761D01*
X16474200Y25634190D02*
X16521819Y25729428D01*
X16521819Y25729428D02*
X16521819Y25967523D01*
X16521819Y25967523D02*
X16474200Y26062761D01*
X16474200Y26062761D02*
X16378961Y26110380D01*
X16378961Y26110380D02*
X16283723Y26110380D01*
X16283723Y26110380D02*
X16188485Y26062761D01*
X16188485Y26062761D02*
X16140866Y25967523D01*
X16140866Y25967523D02*
X16140866Y25729428D01*
X16140866Y25729428D02*
X16093247Y25634190D01*
X16474200Y24729428D02*
X16521819Y24824666D01*
X16521819Y24824666D02*
X16521819Y25015142D01*
X16521819Y25015142D02*
X16474200Y25110380D01*
X16474200Y25110380D02*
X16426580Y25157999D01*
X16426580Y25157999D02*
X16331342Y25205618D01*
X16331342Y25205618D02*
X16045628Y25205618D01*
X16045628Y25205618D02*
X15950390Y25157999D01*
X15950390Y25157999D02*
X15902771Y25110380D01*
X15902771Y25110380D02*
X15855152Y25015142D01*
X15855152Y25015142D02*
X15855152Y24824666D01*
X15855152Y24824666D02*
X15902771Y24729428D01*
X16521819Y24300856D02*
X15521819Y24300856D01*
X16140866Y24205618D02*
X16521819Y23919904D01*
X15855152Y23919904D02*
X16236104Y24300856D01*
X1601819Y30467524D02*
X2316104Y30467524D01*
X2316104Y30467524D02*
X2458961Y30515143D01*
X2458961Y30515143D02*
X2554200Y30610381D01*
X2554200Y30610381D02*
X2601819Y30753238D01*
X2601819Y30753238D02*
X2601819Y30848476D01*
X2601819Y29467524D02*
X2601819Y30038952D01*
X2601819Y29753238D02*
X1601819Y29753238D01*
X1601819Y29753238D02*
X1744676Y29848476D01*
X1744676Y29848476D02*
X1839914Y29943714D01*
X1839914Y29943714D02*
X1887533Y30038952D01*
X1601819Y29134190D02*
X1601819Y28515143D01*
X1601819Y28515143D02*
X1982771Y28848476D01*
X1982771Y28848476D02*
X1982771Y28705619D01*
X1982771Y28705619D02*
X2030390Y28610381D01*
X2030390Y28610381D02*
X2078009Y28562762D01*
X2078009Y28562762D02*
X2173247Y28515143D01*
X2173247Y28515143D02*
X2411342Y28515143D01*
X2411342Y28515143D02*
X2506580Y28562762D01*
X2506580Y28562762D02*
X2554200Y28610381D01*
X2554200Y28610381D02*
X2601819Y28705619D01*
X2601819Y28705619D02*
X2601819Y28991333D01*
X2601819Y28991333D02*
X2554200Y29086571D01*
X2554200Y29086571D02*
X2506580Y29134190D01*
X24586819Y19324668D02*
X23586819Y19324668D01*
X23586819Y19324668D02*
X24301104Y18991335D01*
X24301104Y18991335D02*
X23586819Y18658002D01*
X23586819Y18658002D02*
X24586819Y18658002D01*
X24586819Y18038954D02*
X24539200Y18134192D01*
X24539200Y18134192D02*
X24491580Y18181811D01*
X24491580Y18181811D02*
X24396342Y18229430D01*
X24396342Y18229430D02*
X24110628Y18229430D01*
X24110628Y18229430D02*
X24015390Y18181811D01*
X24015390Y18181811D02*
X23967771Y18134192D01*
X23967771Y18134192D02*
X23920152Y18038954D01*
X23920152Y18038954D02*
X23920152Y17896097D01*
X23920152Y17896097D02*
X23967771Y17800859D01*
X23967771Y17800859D02*
X24015390Y17753240D01*
X24015390Y17753240D02*
X24110628Y17705621D01*
X24110628Y17705621D02*
X24396342Y17705621D01*
X24396342Y17705621D02*
X24491580Y17753240D01*
X24491580Y17753240D02*
X24539200Y17800859D01*
X24539200Y17800859D02*
X24586819Y17896097D01*
X24586819Y17896097D02*
X24586819Y18038954D01*
X23920152Y17419906D02*
X23920152Y17038954D01*
X23586819Y17277049D02*
X24443961Y17277049D01*
X24443961Y17277049D02*
X24539200Y17229430D01*
X24539200Y17229430D02*
X24586819Y17134192D01*
X24586819Y17134192D02*
X24586819Y17038954D01*
X24586819Y16562763D02*
X24539200Y16658001D01*
X24539200Y16658001D02*
X24491580Y16705620D01*
X24491580Y16705620D02*
X24396342Y16753239D01*
X24396342Y16753239D02*
X24110628Y16753239D01*
X24110628Y16753239D02*
X24015390Y16705620D01*
X24015390Y16705620D02*
X23967771Y16658001D01*
X23967771Y16658001D02*
X23920152Y16562763D01*
X23920152Y16562763D02*
X23920152Y16419906D01*
X23920152Y16419906D02*
X23967771Y16324668D01*
X23967771Y16324668D02*
X24015390Y16277049D01*
X24015390Y16277049D02*
X24110628Y16229430D01*
X24110628Y16229430D02*
X24396342Y16229430D01*
X24396342Y16229430D02*
X24491580Y16277049D01*
X24491580Y16277049D02*
X24539200Y16324668D01*
X24539200Y16324668D02*
X24586819Y16419906D01*
X24586819Y16419906D02*
X24586819Y16562763D01*
X24586819Y15800858D02*
X23920152Y15800858D01*
X24110628Y15800858D02*
X24015390Y15753239D01*
X24015390Y15753239D02*
X23967771Y15705620D01*
X23967771Y15705620D02*
X23920152Y15610382D01*
X23920152Y15610382D02*
X23920152Y15515144D01*
X24682057Y15419905D02*
X24682057Y14658001D01*
X23586819Y14229429D02*
X23586819Y14038953D01*
X23586819Y14038953D02*
X23634438Y13943715D01*
X23634438Y13943715D02*
X23729676Y13848477D01*
X23729676Y13848477D02*
X23920152Y13800858D01*
X23920152Y13800858D02*
X24253485Y13800858D01*
X24253485Y13800858D02*
X24443961Y13848477D01*
X24443961Y13848477D02*
X24539200Y13943715D01*
X24539200Y13943715D02*
X24586819Y14038953D01*
X24586819Y14038953D02*
X24586819Y14229429D01*
X24586819Y14229429D02*
X24539200Y14324667D01*
X24539200Y14324667D02*
X24443961Y14419905D01*
X24443961Y14419905D02*
X24253485Y14467524D01*
X24253485Y14467524D02*
X23920152Y14467524D01*
X23920152Y14467524D02*
X23729676Y14419905D01*
X23729676Y14419905D02*
X23634438Y14324667D01*
X23634438Y14324667D02*
X23586819Y14229429D01*
X23920152Y12943715D02*
X24586819Y12943715D01*
X23920152Y13372286D02*
X24443961Y13372286D01*
X24443961Y13372286D02*
X24539200Y13324667D01*
X24539200Y13324667D02*
X24586819Y13229429D01*
X24586819Y13229429D02*
X24586819Y13086572D01*
X24586819Y13086572D02*
X24539200Y12991334D01*
X24539200Y12991334D02*
X24491580Y12943715D01*
X23920152Y12610381D02*
X23920152Y12229429D01*
X23586819Y12467524D02*
X24443961Y12467524D01*
X24443961Y12467524D02*
X24539200Y12419905D01*
X24539200Y12419905D02*
X24586819Y12324667D01*
X24586819Y12324667D02*
X24586819Y12229429D01*
X23920152Y11896095D02*
X24920152Y11896095D01*
X23967771Y11896095D02*
X23920152Y11800857D01*
X23920152Y11800857D02*
X23920152Y11610381D01*
X23920152Y11610381D02*
X23967771Y11515143D01*
X23967771Y11515143D02*
X24015390Y11467524D01*
X24015390Y11467524D02*
X24110628Y11419905D01*
X24110628Y11419905D02*
X24396342Y11419905D01*
X24396342Y11419905D02*
X24491580Y11467524D01*
X24491580Y11467524D02*
X24539200Y11515143D01*
X24539200Y11515143D02*
X24586819Y11610381D01*
X24586819Y11610381D02*
X24586819Y11800857D01*
X24586819Y11800857D02*
X24539200Y11896095D01*
X23920152Y10562762D02*
X24586819Y10562762D01*
X23920152Y10991333D02*
X24443961Y10991333D01*
X24443961Y10991333D02*
X24539200Y10943714D01*
X24539200Y10943714D02*
X24586819Y10848476D01*
X24586819Y10848476D02*
X24586819Y10705619D01*
X24586819Y10705619D02*
X24539200Y10610381D01*
X24539200Y10610381D02*
X24491580Y10562762D01*
X23920152Y10229428D02*
X23920152Y9848476D01*
X23586819Y10086571D02*
X24443961Y10086571D01*
X24443961Y10086571D02*
X24539200Y10038952D01*
X24539200Y10038952D02*
X24586819Y9943714D01*
X24586819Y9943714D02*
X24586819Y9848476D01*
X1836819Y15467524D02*
X2551104Y15467524D01*
X2551104Y15467524D02*
X2693961Y15515143D01*
X2693961Y15515143D02*
X2789200Y15610381D01*
X2789200Y15610381D02*
X2836819Y15753238D01*
X2836819Y15753238D02*
X2836819Y15848476D01*
X2836819Y14467524D02*
X2836819Y15038952D01*
X2836819Y14753238D02*
X1836819Y14753238D01*
X1836819Y14753238D02*
X1979676Y14848476D01*
X1979676Y14848476D02*
X2074914Y14943714D01*
X2074914Y14943714D02*
X2122533Y15038952D01*
X1932057Y14086571D02*
X1884438Y14038952D01*
X1884438Y14038952D02*
X1836819Y13943714D01*
X1836819Y13943714D02*
X1836819Y13705619D01*
X1836819Y13705619D02*
X1884438Y13610381D01*
X1884438Y13610381D02*
X1932057Y13562762D01*
X1932057Y13562762D02*
X2027295Y13515143D01*
X2027295Y13515143D02*
X2122533Y13515143D01*
X2122533Y13515143D02*
X2265390Y13562762D01*
X2265390Y13562762D02*
X2836819Y14134190D01*
X2836819Y14134190D02*
X2836819Y13515143D01*
X37654858Y34848420D02*
X37702477Y34800800D01*
X37702477Y34800800D02*
X37845334Y34753181D01*
X37845334Y34753181D02*
X37940572Y34753181D01*
X37940572Y34753181D02*
X38083429Y34800800D01*
X38083429Y34800800D02*
X38178667Y34896039D01*
X38178667Y34896039D02*
X38226286Y34991277D01*
X38226286Y34991277D02*
X38273905Y35181753D01*
X38273905Y35181753D02*
X38273905Y35324610D01*
X38273905Y35324610D02*
X38226286Y35515086D01*
X38226286Y35515086D02*
X38178667Y35610324D01*
X38178667Y35610324D02*
X38083429Y35705562D01*
X38083429Y35705562D02*
X37940572Y35753181D01*
X37940572Y35753181D02*
X37845334Y35753181D01*
X37845334Y35753181D02*
X37702477Y35705562D01*
X37702477Y35705562D02*
X37654858Y35657943D01*
X37083429Y34753181D02*
X37178667Y34800800D01*
X37178667Y34800800D02*
X37226286Y34848420D01*
X37226286Y34848420D02*
X37273905Y34943658D01*
X37273905Y34943658D02*
X37273905Y35229372D01*
X37273905Y35229372D02*
X37226286Y35324610D01*
X37226286Y35324610D02*
X37178667Y35372229D01*
X37178667Y35372229D02*
X37083429Y35419848D01*
X37083429Y35419848D02*
X36940572Y35419848D01*
X36940572Y35419848D02*
X36845334Y35372229D01*
X36845334Y35372229D02*
X36797715Y35324610D01*
X36797715Y35324610D02*
X36750096Y35229372D01*
X36750096Y35229372D02*
X36750096Y34943658D01*
X36750096Y34943658D02*
X36797715Y34848420D01*
X36797715Y34848420D02*
X36845334Y34800800D01*
X36845334Y34800800D02*
X36940572Y34753181D01*
X36940572Y34753181D02*
X37083429Y34753181D01*
X36321524Y35419848D02*
X36321524Y34753181D01*
X36321524Y35324610D02*
X36273905Y35372229D01*
X36273905Y35372229D02*
X36178667Y35419848D01*
X36178667Y35419848D02*
X36035810Y35419848D01*
X36035810Y35419848D02*
X35940572Y35372229D01*
X35940572Y35372229D02*
X35892953Y35276991D01*
X35892953Y35276991D02*
X35892953Y34753181D01*
X35416762Y35419848D02*
X35416762Y34753181D01*
X35416762Y35324610D02*
X35369143Y35372229D01*
X35369143Y35372229D02*
X35273905Y35419848D01*
X35273905Y35419848D02*
X35131048Y35419848D01*
X35131048Y35419848D02*
X35035810Y35372229D01*
X35035810Y35372229D02*
X34988191Y35276991D01*
X34988191Y35276991D02*
X34988191Y34753181D01*
X34750096Y34657943D02*
X33988191Y34657943D01*
X33559619Y35753181D02*
X33464381Y35753181D01*
X33464381Y35753181D02*
X33369143Y35705562D01*
X33369143Y35705562D02*
X33321524Y35657943D01*
X33321524Y35657943D02*
X33273905Y35562705D01*
X33273905Y35562705D02*
X33226286Y35372229D01*
X33226286Y35372229D02*
X33226286Y35134134D01*
X33226286Y35134134D02*
X33273905Y34943658D01*
X33273905Y34943658D02*
X33321524Y34848420D01*
X33321524Y34848420D02*
X33369143Y34800800D01*
X33369143Y34800800D02*
X33464381Y34753181D01*
X33464381Y34753181D02*
X33559619Y34753181D01*
X33559619Y34753181D02*
X33654857Y34800800D01*
X33654857Y34800800D02*
X33702476Y34848420D01*
X33702476Y34848420D02*
X33750095Y34943658D01*
X33750095Y34943658D02*
X33797714Y35134134D01*
X33797714Y35134134D02*
X33797714Y35372229D01*
X33797714Y35372229D02*
X33750095Y35562705D01*
X33750095Y35562705D02*
X33702476Y35657943D01*
X33702476Y35657943D02*
X33654857Y35705562D01*
X33654857Y35705562D02*
X33559619Y35753181D01*
X32845333Y35657943D02*
X32797714Y35705562D01*
X32797714Y35705562D02*
X32702476Y35753181D01*
X32702476Y35753181D02*
X32464381Y35753181D01*
X32464381Y35753181D02*
X32369143Y35705562D01*
X32369143Y35705562D02*
X32321524Y35657943D01*
X32321524Y35657943D02*
X32273905Y35562705D01*
X32273905Y35562705D02*
X32273905Y35467467D01*
X32273905Y35467467D02*
X32321524Y35324610D01*
X32321524Y35324610D02*
X32892952Y34753181D01*
X32892952Y34753181D02*
X32273905Y34753181D01*
X31940571Y34753181D02*
X31416762Y35419848D01*
X31940571Y35419848D02*
X31416762Y34753181D01*
X30845333Y35753181D02*
X30750095Y35753181D01*
X30750095Y35753181D02*
X30654857Y35705562D01*
X30654857Y35705562D02*
X30607238Y35657943D01*
X30607238Y35657943D02*
X30559619Y35562705D01*
X30559619Y35562705D02*
X30512000Y35372229D01*
X30512000Y35372229D02*
X30512000Y35134134D01*
X30512000Y35134134D02*
X30559619Y34943658D01*
X30559619Y34943658D02*
X30607238Y34848420D01*
X30607238Y34848420D02*
X30654857Y34800800D01*
X30654857Y34800800D02*
X30750095Y34753181D01*
X30750095Y34753181D02*
X30845333Y34753181D01*
X30845333Y34753181D02*
X30940571Y34800800D01*
X30940571Y34800800D02*
X30988190Y34848420D01*
X30988190Y34848420D02*
X31035809Y34943658D01*
X31035809Y34943658D02*
X31083428Y35134134D01*
X31083428Y35134134D02*
X31083428Y35372229D01*
X31083428Y35372229D02*
X31035809Y35562705D01*
X31035809Y35562705D02*
X30988190Y35657943D01*
X30988190Y35657943D02*
X30940571Y35705562D01*
X30940571Y35705562D02*
X30845333Y35753181D01*
X30035809Y34753181D02*
X29845333Y34753181D01*
X29845333Y34753181D02*
X29750095Y34800800D01*
X29750095Y34800800D02*
X29702476Y34848420D01*
X29702476Y34848420D02*
X29607238Y34991277D01*
X29607238Y34991277D02*
X29559619Y35181753D01*
X29559619Y35181753D02*
X29559619Y35562705D01*
X29559619Y35562705D02*
X29607238Y35657943D01*
X29607238Y35657943D02*
X29654857Y35705562D01*
X29654857Y35705562D02*
X29750095Y35753181D01*
X29750095Y35753181D02*
X29940571Y35753181D01*
X29940571Y35753181D02*
X30035809Y35705562D01*
X30035809Y35705562D02*
X30083428Y35657943D01*
X30083428Y35657943D02*
X30131047Y35562705D01*
X30131047Y35562705D02*
X30131047Y35324610D01*
X30131047Y35324610D02*
X30083428Y35229372D01*
X30083428Y35229372D02*
X30035809Y35181753D01*
X30035809Y35181753D02*
X29940571Y35134134D01*
X29940571Y35134134D02*
X29750095Y35134134D01*
X29750095Y35134134D02*
X29654857Y35181753D01*
X29654857Y35181753D02*
X29607238Y35229372D01*
X29607238Y35229372D02*
X29559619Y35324610D01*
X29369143Y34657943D02*
X28607238Y34657943D01*
X28178666Y35753181D02*
X27988190Y35753181D01*
X27988190Y35753181D02*
X27892952Y35705562D01*
X27892952Y35705562D02*
X27797714Y35610324D01*
X27797714Y35610324D02*
X27750095Y35419848D01*
X27750095Y35419848D02*
X27750095Y35086515D01*
X27750095Y35086515D02*
X27797714Y34896039D01*
X27797714Y34896039D02*
X27892952Y34800800D01*
X27892952Y34800800D02*
X27988190Y34753181D01*
X27988190Y34753181D02*
X28178666Y34753181D01*
X28178666Y34753181D02*
X28273904Y34800800D01*
X28273904Y34800800D02*
X28369142Y34896039D01*
X28369142Y34896039D02*
X28416761Y35086515D01*
X28416761Y35086515D02*
X28416761Y35419848D01*
X28416761Y35419848D02*
X28369142Y35610324D01*
X28369142Y35610324D02*
X28273904Y35705562D01*
X28273904Y35705562D02*
X28178666Y35753181D01*
X26892952Y34753181D02*
X26892952Y35753181D01*
X26892952Y34800800D02*
X26988190Y34753181D01*
X26988190Y34753181D02*
X27178666Y34753181D01*
X27178666Y34753181D02*
X27273904Y34800800D01*
X27273904Y34800800D02*
X27321523Y34848420D01*
X27321523Y34848420D02*
X27369142Y34943658D01*
X27369142Y34943658D02*
X27369142Y35229372D01*
X27369142Y35229372D02*
X27321523Y35324610D01*
X27321523Y35324610D02*
X27273904Y35372229D01*
X27273904Y35372229D02*
X27178666Y35419848D01*
X27178666Y35419848D02*
X26988190Y35419848D01*
X26988190Y35419848D02*
X26892952Y35372229D01*
X25988190Y34753181D02*
X25988190Y35753181D01*
X25988190Y34800800D02*
X26083428Y34753181D01*
X26083428Y34753181D02*
X26273904Y34753181D01*
X26273904Y34753181D02*
X26369142Y34800800D01*
X26369142Y34800800D02*
X26416761Y34848420D01*
X26416761Y34848420D02*
X26464380Y34943658D01*
X26464380Y34943658D02*
X26464380Y35229372D01*
X26464380Y35229372D02*
X26416761Y35324610D01*
X26416761Y35324610D02*
X26369142Y35372229D01*
X26369142Y35372229D02*
X26273904Y35419848D01*
X26273904Y35419848D02*
X26083428Y35419848D01*
X26083428Y35419848D02*
X25988190Y35372229D01*
X25750095Y34657943D02*
X24988190Y34657943D01*
X24750094Y35276991D02*
X24416761Y35276991D01*
X24273904Y34753181D02*
X24750094Y34753181D01*
X24750094Y34753181D02*
X24750094Y35753181D01*
X24750094Y35753181D02*
X24273904Y35753181D01*
X23940570Y35419848D02*
X23702475Y34753181D01*
X23702475Y34753181D02*
X23464380Y35419848D01*
X22702475Y34800800D02*
X22797713Y34753181D01*
X22797713Y34753181D02*
X22988189Y34753181D01*
X22988189Y34753181D02*
X23083427Y34800800D01*
X23083427Y34800800D02*
X23131046Y34896039D01*
X23131046Y34896039D02*
X23131046Y35276991D01*
X23131046Y35276991D02*
X23083427Y35372229D01*
X23083427Y35372229D02*
X22988189Y35419848D01*
X22988189Y35419848D02*
X22797713Y35419848D01*
X22797713Y35419848D02*
X22702475Y35372229D01*
X22702475Y35372229D02*
X22654856Y35276991D01*
X22654856Y35276991D02*
X22654856Y35181753D01*
X22654856Y35181753D02*
X23131046Y35086515D01*
X22226284Y35419848D02*
X22226284Y34753181D01*
X22226284Y35324610D02*
X22178665Y35372229D01*
X22178665Y35372229D02*
X22083427Y35419848D01*
X22083427Y35419848D02*
X21940570Y35419848D01*
X21940570Y35419848D02*
X21845332Y35372229D01*
X21845332Y35372229D02*
X21797713Y35276991D01*
X21797713Y35276991D02*
X21797713Y34753181D01*
X29466819Y23087524D02*
X30181104Y23087524D01*
X30181104Y23087524D02*
X30323961Y23135143D01*
X30323961Y23135143D02*
X30419200Y23230381D01*
X30419200Y23230381D02*
X30466819Y23373238D01*
X30466819Y23373238D02*
X30466819Y23468476D01*
X30466819Y22087524D02*
X30466819Y22658952D01*
X30466819Y22373238D02*
X29466819Y22373238D01*
X29466819Y22373238D02*
X29609676Y22468476D01*
X29609676Y22468476D02*
X29704914Y22563714D01*
X29704914Y22563714D02*
X29752533Y22658952D01*
X30466819Y21135143D02*
X30466819Y21706571D01*
X30466819Y21420857D02*
X29466819Y21420857D01*
X29466819Y21420857D02*
X29609676Y21516095D01*
X29609676Y21516095D02*
X29704914Y21611333D01*
X29704914Y21611333D02*
X29752533Y21706571D01*
X90413218Y99106391D02*
X90746551Y99106391D01*
X90746551Y98582581D02*
X90746551Y99582581D01*
X90746551Y99582581D02*
X90270361Y99582581D01*
X90032265Y99582581D02*
X89460837Y99582581D01*
X89746551Y98582581D02*
X89746551Y99582581D01*
X89175122Y98630200D02*
X89032265Y98582581D01*
X89032265Y98582581D02*
X88794170Y98582581D01*
X88794170Y98582581D02*
X88698932Y98630200D01*
X88698932Y98630200D02*
X88651313Y98677820D01*
X88651313Y98677820D02*
X88603694Y98773058D01*
X88603694Y98773058D02*
X88603694Y98868296D01*
X88603694Y98868296D02*
X88651313Y98963534D01*
X88651313Y98963534D02*
X88698932Y99011153D01*
X88698932Y99011153D02*
X88794170Y99058772D01*
X88794170Y99058772D02*
X88984646Y99106391D01*
X88984646Y99106391D02*
X89079884Y99154010D01*
X89079884Y99154010D02*
X89127503Y99201629D01*
X89127503Y99201629D02*
X89175122Y99296867D01*
X89175122Y99296867D02*
X89175122Y99392105D01*
X89175122Y99392105D02*
X89127503Y99487343D01*
X89127503Y99487343D02*
X89079884Y99534962D01*
X89079884Y99534962D02*
X88984646Y99582581D01*
X88984646Y99582581D02*
X88746551Y99582581D01*
X88746551Y99582581D02*
X88603694Y99534962D01*
X88175122Y98582581D02*
X88175122Y99582581D01*
X88175122Y99106391D02*
X87603694Y99106391D01*
X87603694Y98582581D02*
X87603694Y99582581D01*
X87127503Y98963534D02*
X86365599Y98963534D01*
X85365599Y98582581D02*
X85937027Y98582581D01*
X85651313Y98582581D02*
X85651313Y99582581D01*
X85651313Y99582581D02*
X85746551Y99439724D01*
X85746551Y99439724D02*
X85841789Y99344486D01*
X85841789Y99344486D02*
X85937027Y99296867D01*
X84746551Y99582581D02*
X84651313Y99582581D01*
X84651313Y99582581D02*
X84556075Y99534962D01*
X84556075Y99534962D02*
X84508456Y99487343D01*
X84508456Y99487343D02*
X84460837Y99392105D01*
X84460837Y99392105D02*
X84413218Y99201629D01*
X84413218Y99201629D02*
X84413218Y98963534D01*
X84413218Y98963534D02*
X84460837Y98773058D01*
X84460837Y98773058D02*
X84508456Y98677820D01*
X84508456Y98677820D02*
X84556075Y98630200D01*
X84556075Y98630200D02*
X84651313Y98582581D01*
X84651313Y98582581D02*
X84746551Y98582581D01*
X84746551Y98582581D02*
X84841789Y98630200D01*
X84841789Y98630200D02*
X84889408Y98677820D01*
X84889408Y98677820D02*
X84937027Y98773058D01*
X84937027Y98773058D02*
X84984646Y98963534D01*
X84984646Y98963534D02*
X84984646Y99201629D01*
X84984646Y99201629D02*
X84937027Y99392105D01*
X84937027Y99392105D02*
X84889408Y99487343D01*
X84889408Y99487343D02*
X84841789Y99534962D01*
X84841789Y99534962D02*
X84746551Y99582581D01*
X83508456Y99582581D02*
X83984646Y99582581D01*
X83984646Y99582581D02*
X84032265Y99106391D01*
X84032265Y99106391D02*
X83984646Y99154010D01*
X83984646Y99154010D02*
X83889408Y99201629D01*
X83889408Y99201629D02*
X83651313Y99201629D01*
X83651313Y99201629D02*
X83556075Y99154010D01*
X83556075Y99154010D02*
X83508456Y99106391D01*
X83508456Y99106391D02*
X83460837Y99011153D01*
X83460837Y99011153D02*
X83460837Y98773058D01*
X83460837Y98773058D02*
X83508456Y98677820D01*
X83508456Y98677820D02*
X83556075Y98630200D01*
X83556075Y98630200D02*
X83651313Y98582581D01*
X83651313Y98582581D02*
X83889408Y98582581D01*
X83889408Y98582581D02*
X83984646Y98630200D01*
X83984646Y98630200D02*
X84032265Y98677820D01*
X83032265Y98963534D02*
X82270361Y98963534D01*
X81603694Y99582581D02*
X81508456Y99582581D01*
X81508456Y99582581D02*
X81413218Y99534962D01*
X81413218Y99534962D02*
X81365599Y99487343D01*
X81365599Y99487343D02*
X81317980Y99392105D01*
X81317980Y99392105D02*
X81270361Y99201629D01*
X81270361Y99201629D02*
X81270361Y98963534D01*
X81270361Y98963534D02*
X81317980Y98773058D01*
X81317980Y98773058D02*
X81365599Y98677820D01*
X81365599Y98677820D02*
X81413218Y98630200D01*
X81413218Y98630200D02*
X81508456Y98582581D01*
X81508456Y98582581D02*
X81603694Y98582581D01*
X81603694Y98582581D02*
X81698932Y98630200D01*
X81698932Y98630200D02*
X81746551Y98677820D01*
X81746551Y98677820D02*
X81794170Y98773058D01*
X81794170Y98773058D02*
X81841789Y98963534D01*
X81841789Y98963534D02*
X81841789Y99201629D01*
X81841789Y99201629D02*
X81794170Y99392105D01*
X81794170Y99392105D02*
X81746551Y99487343D01*
X81746551Y99487343D02*
X81698932Y99534962D01*
X81698932Y99534962D02*
X81603694Y99582581D01*
X80317980Y98582581D02*
X80889408Y98582581D01*
X80603694Y98582581D02*
X80603694Y99582581D01*
X80603694Y99582581D02*
X80698932Y99439724D01*
X80698932Y99439724D02*
X80794170Y99344486D01*
X80794170Y99344486D02*
X80889408Y99296867D01*
X79889408Y98963534D02*
X79127504Y98963534D01*
X78175123Y98582581D02*
X78651313Y98582581D01*
X78651313Y98582581D02*
X78651313Y99582581D01*
X77841789Y98963534D02*
X77079885Y98963534D01*
X76603694Y98582581D02*
X76603694Y99582581D01*
X76603694Y99582581D02*
X76365599Y99582581D01*
X76365599Y99582581D02*
X76222742Y99534962D01*
X76222742Y99534962D02*
X76127504Y99439724D01*
X76127504Y99439724D02*
X76079885Y99344486D01*
X76079885Y99344486D02*
X76032266Y99154010D01*
X76032266Y99154010D02*
X76032266Y99011153D01*
X76032266Y99011153D02*
X76079885Y98820677D01*
X76079885Y98820677D02*
X76127504Y98725439D01*
X76127504Y98725439D02*
X76222742Y98630200D01*
X76222742Y98630200D02*
X76365599Y98582581D01*
X76365599Y98582581D02*
X76603694Y98582581D01*
X75746551Y99582581D02*
X75413218Y98582581D01*
X75413218Y98582581D02*
X75079885Y99582581D01*
X74746551Y98963534D02*
X73984647Y98963534D01*
X73508456Y98582581D02*
X73508456Y99582581D01*
X72937028Y98582581D02*
X73365599Y99154010D01*
X72937028Y99582581D02*
X73508456Y99011153D01*
X72508456Y98963534D02*
X71746552Y98963534D01*
X71413218Y99582581D02*
X70841790Y99582581D01*
X71127504Y98582581D02*
X71127504Y99582581D01*
X69937028Y98582581D02*
X70270361Y99058772D01*
X70508456Y98582581D02*
X70508456Y99582581D01*
X70508456Y99582581D02*
X70127504Y99582581D01*
X70127504Y99582581D02*
X70032266Y99534962D01*
X70032266Y99534962D02*
X69984647Y99487343D01*
X69984647Y99487343D02*
X69937028Y99392105D01*
X69937028Y99392105D02*
X69937028Y99249248D01*
X69937028Y99249248D02*
X69984647Y99154010D01*
X69984647Y99154010D02*
X70032266Y99106391D01*
X70032266Y99106391D02*
X70127504Y99058772D01*
X70127504Y99058772D02*
X70508456Y99058772D01*
X79820419Y95085734D02*
X80534704Y95085734D01*
X80534704Y95085734D02*
X80677561Y95133353D01*
X80677561Y95133353D02*
X80772800Y95228591D01*
X80772800Y95228591D02*
X80820419Y95371448D01*
X80820419Y95371448D02*
X80820419Y95466686D01*
X79820419Y94704781D02*
X79820419Y94085734D01*
X79820419Y94085734D02*
X80201371Y94419067D01*
X80201371Y94419067D02*
X80201371Y94276210D01*
X80201371Y94276210D02*
X80248990Y94180972D01*
X80248990Y94180972D02*
X80296609Y94133353D01*
X80296609Y94133353D02*
X80391847Y94085734D01*
X80391847Y94085734D02*
X80629942Y94085734D01*
X80629942Y94085734D02*
X80725180Y94133353D01*
X80725180Y94133353D02*
X80772800Y94180972D01*
X80772800Y94180972D02*
X80820419Y94276210D01*
X80820419Y94276210D02*
X80820419Y94561924D01*
X80820419Y94561924D02*
X80772800Y94657162D01*
X80772800Y94657162D02*
X80725180Y94704781D01*
X49567094Y117846991D02*
X49233761Y117846991D01*
X49090904Y117323181D02*
X49567094Y117323181D01*
X49567094Y117323181D02*
X49567094Y118323181D01*
X49567094Y118323181D02*
X49090904Y118323181D01*
X48662332Y117323181D02*
X48662332Y118323181D01*
X48662332Y117846991D02*
X48090904Y117846991D01*
X48090904Y117323181D02*
X48090904Y118323181D01*
X47852809Y117227943D02*
X47090904Y117227943D01*
X46519475Y117846991D02*
X46376618Y117799372D01*
X46376618Y117799372D02*
X46328999Y117751753D01*
X46328999Y117751753D02*
X46281380Y117656515D01*
X46281380Y117656515D02*
X46281380Y117513658D01*
X46281380Y117513658D02*
X46328999Y117418420D01*
X46328999Y117418420D02*
X46376618Y117370800D01*
X46376618Y117370800D02*
X46471856Y117323181D01*
X46471856Y117323181D02*
X46852808Y117323181D01*
X46852808Y117323181D02*
X46852808Y118323181D01*
X46852808Y118323181D02*
X46519475Y118323181D01*
X46519475Y118323181D02*
X46424237Y118275562D01*
X46424237Y118275562D02*
X46376618Y118227943D01*
X46376618Y118227943D02*
X46328999Y118132705D01*
X46328999Y118132705D02*
X46328999Y118037467D01*
X46328999Y118037467D02*
X46376618Y117942229D01*
X46376618Y117942229D02*
X46424237Y117894610D01*
X46424237Y117894610D02*
X46519475Y117846991D01*
X46519475Y117846991D02*
X46852808Y117846991D01*
X45948046Y118323181D02*
X45328999Y118323181D01*
X45328999Y118323181D02*
X45662332Y117942229D01*
X45662332Y117942229D02*
X45519475Y117942229D01*
X45519475Y117942229D02*
X45424237Y117894610D01*
X45424237Y117894610D02*
X45376618Y117846991D01*
X45376618Y117846991D02*
X45328999Y117751753D01*
X45328999Y117751753D02*
X45328999Y117513658D01*
X45328999Y117513658D02*
X45376618Y117418420D01*
X45376618Y117418420D02*
X45424237Y117370800D01*
X45424237Y117370800D02*
X45519475Y117323181D01*
X45519475Y117323181D02*
X45805189Y117323181D01*
X45805189Y117323181D02*
X45900427Y117370800D01*
X45900427Y117370800D02*
X45948046Y117418420D01*
X44567094Y117846991D02*
X44424237Y117799372D01*
X44424237Y117799372D02*
X44376618Y117751753D01*
X44376618Y117751753D02*
X44328999Y117656515D01*
X44328999Y117656515D02*
X44328999Y117513658D01*
X44328999Y117513658D02*
X44376618Y117418420D01*
X44376618Y117418420D02*
X44424237Y117370800D01*
X44424237Y117370800D02*
X44519475Y117323181D01*
X44519475Y117323181D02*
X44900427Y117323181D01*
X44900427Y117323181D02*
X44900427Y118323181D01*
X44900427Y118323181D02*
X44567094Y118323181D01*
X44567094Y118323181D02*
X44471856Y118275562D01*
X44471856Y118275562D02*
X44424237Y118227943D01*
X44424237Y118227943D02*
X44376618Y118132705D01*
X44376618Y118132705D02*
X44376618Y118037467D01*
X44376618Y118037467D02*
X44424237Y117942229D01*
X44424237Y117942229D02*
X44471856Y117894610D01*
X44471856Y117894610D02*
X44567094Y117846991D01*
X44567094Y117846991D02*
X44900427Y117846991D01*
X43900427Y117704134D02*
X43138523Y117704134D01*
X42662332Y117846991D02*
X42328999Y117846991D01*
X42186142Y117323181D02*
X42662332Y117323181D01*
X42662332Y117323181D02*
X42662332Y118323181D01*
X42662332Y118323181D02*
X42186142Y118323181D01*
X41757570Y117323181D02*
X41757570Y118323181D01*
X41757570Y117846991D02*
X41186142Y117846991D01*
X41186142Y117323181D02*
X41186142Y118323181D01*
X40709951Y117704134D02*
X39948047Y117704134D01*
X39519475Y117608896D02*
X39043285Y117608896D01*
X39614713Y117323181D02*
X39281380Y118323181D01*
X39281380Y118323181D02*
X38948047Y117323181D01*
X44662333Y116423181D02*
X44662333Y115708896D01*
X44662333Y115708896D02*
X44709952Y115566039D01*
X44709952Y115566039D02*
X44805190Y115470800D01*
X44805190Y115470800D02*
X44948047Y115423181D01*
X44948047Y115423181D02*
X45043285Y115423181D01*
X44233761Y116327943D02*
X44186142Y116375562D01*
X44186142Y116375562D02*
X44090904Y116423181D01*
X44090904Y116423181D02*
X43852809Y116423181D01*
X43852809Y116423181D02*
X43757571Y116375562D01*
X43757571Y116375562D02*
X43709952Y116327943D01*
X43709952Y116327943D02*
X43662333Y116232705D01*
X43662333Y116232705D02*
X43662333Y116137467D01*
X43662333Y116137467D02*
X43709952Y115994610D01*
X43709952Y115994610D02*
X44281380Y115423181D01*
X44281380Y115423181D02*
X43662333Y115423181D01*
D11*
%TO.C,J5*%
X2177000Y74792000D02*
X2177000Y77292000D01*
X2587000Y87702000D02*
X6387000Y87702000D01*
X2587000Y75202000D02*
X2587000Y87702000D01*
X4677000Y74792000D02*
X2177000Y74792000D01*
X6387000Y87702000D02*
X6387000Y75202000D01*
X6387000Y75202000D02*
X2587000Y75202000D01*
%TO.C,J1*%
X1020000Y109873000D02*
X13820000Y109873000D01*
X1020000Y104473000D02*
X1020000Y109873000D01*
X12405786Y107173000D02*
X13820000Y106173000D01*
X13820000Y109873000D02*
X13820000Y104473000D01*
X13820000Y108173000D02*
X12405786Y107173000D01*
X13820000Y104473000D02*
X1020000Y104473000D01*
%TO.C,J10*%
X65512000Y31803000D02*
X65512000Y12118000D01*
X65512000Y12118000D02*
X68052000Y12118000D01*
X66147000Y32438000D02*
X65512000Y31803000D01*
X68052000Y32438000D02*
X66147000Y32438000D01*
X68052000Y12118000D02*
X68052000Y32438000D01*
%TO.C,J13*%
X1447000Y35233000D02*
X1447000Y24083000D01*
X1447000Y24083000D02*
X2447000Y23083000D01*
X2447000Y36233000D02*
X1447000Y35233000D01*
X2447000Y23083000D02*
X11357000Y23083000D01*
X10367000Y32658000D02*
X11357000Y31908000D01*
X11357000Y36233000D02*
X2447000Y36233000D01*
X11357000Y33408000D02*
X10367000Y32658000D01*
X11357000Y23083000D02*
X11357000Y36233000D01*
%TO.C,J12*%
X1682000Y19458000D02*
X14482000Y19458000D01*
X1682000Y9858000D02*
X1682000Y19458000D01*
X13067786Y16758000D02*
X14482000Y15758000D01*
X14482000Y19458000D02*
X14482000Y9858000D01*
X14482000Y17758000D02*
X13067786Y16758000D01*
X14482000Y9858000D02*
X1682000Y9858000D01*
%TO.C,J11*%
X27472000Y33708000D02*
X27472000Y10848000D01*
X27472000Y10848000D02*
X31552000Y10848000D01*
X31552000Y10848000D02*
X32552000Y11848000D01*
X32552000Y33708000D02*
X27472000Y33708000D01*
X32552000Y11848000D02*
X32552000Y33708000D01*
%TO.C,J3*%
X77615600Y97492400D02*
X78660600Y97492400D01*
X77615600Y97092400D02*
X77615600Y97492400D01*
X77615600Y96222400D02*
X78660600Y96222400D01*
X77615600Y95822400D02*
X77615600Y96222400D01*
X77615600Y94952400D02*
X78660600Y94952400D01*
X77615600Y94552400D02*
X77615600Y94952400D01*
X77615600Y93682400D02*
X78660600Y93682400D01*
X77615600Y93282400D02*
X77615600Y93682400D01*
X77615600Y92412400D02*
X78660600Y92412400D01*
X77615600Y92012400D02*
X77615600Y92412400D01*
X78660600Y97927400D02*
X78660600Y92012400D01*
X78660600Y97092400D02*
X77615600Y97092400D01*
X78660600Y95822400D02*
X77615600Y95822400D01*
X78660600Y94552400D02*
X77615600Y94552400D01*
X78660600Y93282400D02*
X77615600Y93282400D01*
X78660600Y92012400D02*
X77615600Y92012400D01*
X78660600Y92012400D02*
X79095600Y91577400D01*
X79095600Y91577400D02*
X82070600Y91577400D01*
X82070600Y97927400D02*
X78660600Y97927400D01*
X82070600Y97092400D02*
X83115600Y97092400D01*
X82070600Y95822400D02*
X83115600Y95822400D01*
X82070600Y94552400D02*
X83115600Y94552400D01*
X82070600Y93282400D02*
X83115600Y93282400D01*
X82070600Y92012400D02*
X83115600Y92012400D01*
X82070600Y91577400D02*
X82070600Y97927400D01*
X83115600Y97492400D02*
X82070600Y97492400D01*
X83115600Y97092400D02*
X83115600Y97492400D01*
X83115600Y96222400D02*
X82070600Y96222400D01*
X83115600Y95822400D02*
X83115600Y96222400D01*
X83115600Y94952400D02*
X82070600Y94952400D01*
X83115600Y94552400D02*
X83115600Y94952400D01*
X83115600Y93682400D02*
X82070600Y93682400D01*
X83115600Y93282400D02*
X83115600Y93682400D01*
X83115600Y92412400D02*
X82070600Y92412400D01*
X83115600Y92012400D02*
X83115600Y92412400D01*
%TO.C,J2*%
X38919000Y116988000D02*
X41419000Y116988000D01*
X38919000Y114488000D02*
X38919000Y116988000D01*
X39329000Y116578000D02*
X49329000Y116578000D01*
X39329000Y112778000D02*
X39329000Y116578000D01*
X49329000Y116578000D02*
X49329000Y112778000D01*
X49329000Y112778000D02*
X39329000Y112778000D01*
%TD*%
M02*
