ISO-10303-21;
HEADER;
/* Generated by software containing ST-Developer
 * from STEP Tools, Inc. (www.steptools.com) 
 */
/* OPTION: using custom renumber hook */

FILE_DESCRIPTION(
/* description */ ('STEP AP242',
'CAx-IF Rec.Pracs.---Representation and Presentation of Product Manufa
cturing Information (PMI)---4.0---2014-10-13',
'CAx-IF Rec.Pracs.---3D Tessellated Geometry---0.4---2014-09-14','2;1'),

/* implementation_level */ '2;1');

FILE_NAME(
/* name */ '66a47f832614bc00d86051b4',
/* time_stamp */ '2024-07-27T05:03:00Z',
/* author */ (''),
/* organization */ (''),
/* preprocessor_version */ 'ST-DEVELOPER v20',
/* originating_system */ '  ',
/* authorisation */ '  ');

FILE_SCHEMA (('AP242_MANAGED_MODEL_BASED_3D_ENGINEERING_MIM_LF { 1 0 10303 442 1 1 4 }'));
ENDSEC;

DATA;
#10=SHAPE_REPRESENTATION_RELATIONSHIP('','',#1162,#16);
#11=SHAPE_REPRESENTATION_RELATIONSHIP('','',#1163,#17);
#12=SHAPE_REPRESENTATION_RELATIONSHIP('','',#1164,#18);
#13=SHAPE_REPRESENTATION_RELATIONSHIP('','',#1165,#19);
#14=SHAPE_REPRESENTATION_RELATIONSHIP('','',#1166,#20);
#15=SHAPE_REPRESENTATION_RELATIONSHIP('','',#1167,#21);
#16=ADVANCED_BREP_SHAPE_REPRESENTATION('',(#1150),#1840);
#17=ADVANCED_BREP_SHAPE_REPRESENTATION('',(#1151),#1841);
#18=ADVANCED_BREP_SHAPE_REPRESENTATION('',(#1152),#1842);
#19=ADVANCED_BREP_SHAPE_REPRESENTATION('',(#1153),#1843);
#20=ADVANCED_BREP_SHAPE_REPRESENTATION('',(#1154),#1844);
#21=ADVANCED_BREP_SHAPE_REPRESENTATION('',(#1155),#1845);
#22=CYLINDRICAL_SURFACE('',#1176,0.000244122924676818);
#23=CIRCLE('',#1174,0.000244122924676818);
#24=CIRCLE('',#1177,0.000244122924676818);
#25=ORIENTED_EDGE('',*,*,#317,.F.);
#26=ORIENTED_EDGE('',*,*,#318,.F.);
#27=ORIENTED_EDGE('',*,*,#319,.T.);
#28=ORIENTED_EDGE('',*,*,#320,.T.);
#29=ORIENTED_EDGE('',*,*,#321,.T.);
#30=ORIENTED_EDGE('',*,*,#322,.F.);
#31=ORIENTED_EDGE('',*,*,#323,.F.);
#32=ORIENTED_EDGE('',*,*,#318,.T.);
#33=ORIENTED_EDGE('',*,*,#324,.T.);
#34=ORIENTED_EDGE('',*,*,#325,.F.);
#35=ORIENTED_EDGE('',*,*,#326,.F.);
#36=ORIENTED_EDGE('',*,*,#322,.T.);
#37=ORIENTED_EDGE('',*,*,#327,.F.);
#38=ORIENTED_EDGE('',*,*,#320,.F.);
#39=ORIENTED_EDGE('',*,*,#328,.T.);
#40=ORIENTED_EDGE('',*,*,#325,.T.);
#41=ORIENTED_EDGE('',*,*,#329,.F.);
#42=ORIENTED_EDGE('',*,*,#319,.F.);
#43=ORIENTED_EDGE('',*,*,#323,.T.);
#44=ORIENTED_EDGE('',*,*,#326,.T.);
#45=ORIENTED_EDGE('',*,*,#328,.F.);
#46=ORIENTED_EDGE('',*,*,#317,.T.);
#47=ORIENTED_EDGE('',*,*,#327,.T.);
#48=ORIENTED_EDGE('',*,*,#324,.F.);
#49=ORIENTED_EDGE('',*,*,#321,.F.);
#50=ORIENTED_EDGE('',*,*,#330,.F.);
#51=ORIENTED_EDGE('',*,*,#329,.T.);
#52=ORIENTED_EDGE('',*,*,#330,.T.);
#53=ORIENTED_EDGE('',*,*,#331,.T.);
#54=ORIENTED_EDGE('',*,*,#332,.F.);
#55=ORIENTED_EDGE('',*,*,#333,.F.);
#56=ORIENTED_EDGE('',*,*,#334,.T.);
#57=ORIENTED_EDGE('',*,*,#335,.F.);
#58=ORIENTED_EDGE('',*,*,#334,.F.);
#59=ORIENTED_EDGE('',*,*,#336,.T.);
#60=ORIENTED_EDGE('',*,*,#337,.T.);
#61=ORIENTED_EDGE('',*,*,#338,.F.);
#62=ORIENTED_EDGE('',*,*,#337,.F.);
#63=ORIENTED_EDGE('',*,*,#339,.T.);
#64=ORIENTED_EDGE('',*,*,#340,.T.);
#65=ORIENTED_EDGE('',*,*,#341,.T.);
#66=ORIENTED_EDGE('',*,*,#340,.F.);
#67=ORIENTED_EDGE('',*,*,#342,.F.);
#68=ORIENTED_EDGE('',*,*,#332,.T.);
#69=ORIENTED_EDGE('',*,*,#333,.T.);
#70=ORIENTED_EDGE('',*,*,#342,.T.);
#71=ORIENTED_EDGE('',*,*,#339,.F.);
#72=ORIENTED_EDGE('',*,*,#336,.F.);
#73=ORIENTED_EDGE('',*,*,#331,.F.);
#74=ORIENTED_EDGE('',*,*,#335,.T.);
#75=ORIENTED_EDGE('',*,*,#338,.T.);
#76=ORIENTED_EDGE('',*,*,#341,.F.);
#77=ORIENTED_EDGE('',*,*,#343,.T.);
#78=ORIENTED_EDGE('',*,*,#344,.F.);
#79=ORIENTED_EDGE('',*,*,#345,.F.);
#80=ORIENTED_EDGE('',*,*,#346,.T.);
#81=ORIENTED_EDGE('',*,*,#347,.F.);
#82=ORIENTED_EDGE('',*,*,#346,.F.);
#83=ORIENTED_EDGE('',*,*,#348,.T.);
#84=ORIENTED_EDGE('',*,*,#349,.T.);
#85=ORIENTED_EDGE('',*,*,#350,.F.);
#86=ORIENTED_EDGE('',*,*,#349,.F.);
#87=ORIENTED_EDGE('',*,*,#351,.T.);
#88=ORIENTED_EDGE('',*,*,#352,.T.);
#89=ORIENTED_EDGE('',*,*,#353,.T.);
#90=ORIENTED_EDGE('',*,*,#352,.F.);
#91=ORIENTED_EDGE('',*,*,#354,.F.);
#92=ORIENTED_EDGE('',*,*,#344,.T.);
#93=ORIENTED_EDGE('',*,*,#345,.T.);
#94=ORIENTED_EDGE('',*,*,#354,.T.);
#95=ORIENTED_EDGE('',*,*,#351,.F.);
#96=ORIENTED_EDGE('',*,*,#348,.F.);
#97=ORIENTED_EDGE('',*,*,#343,.F.);
#98=ORIENTED_EDGE('',*,*,#347,.T.);
#99=ORIENTED_EDGE('',*,*,#350,.T.);
#100=ORIENTED_EDGE('',*,*,#353,.F.);
#101=ORIENTED_EDGE('',*,*,#355,.T.);
#102=ORIENTED_EDGE('',*,*,#356,.F.);
#103=ORIENTED_EDGE('',*,*,#357,.F.);
#104=ORIENTED_EDGE('',*,*,#358,.T.);
#105=ORIENTED_EDGE('',*,*,#359,.F.);
#106=ORIENTED_EDGE('',*,*,#358,.F.);
#107=ORIENTED_EDGE('',*,*,#360,.T.);
#108=ORIENTED_EDGE('',*,*,#361,.T.);
#109=ORIENTED_EDGE('',*,*,#362,.F.);
#110=ORIENTED_EDGE('',*,*,#361,.F.);
#111=ORIENTED_EDGE('',*,*,#363,.T.);
#112=ORIENTED_EDGE('',*,*,#364,.T.);
#113=ORIENTED_EDGE('',*,*,#365,.T.);
#114=ORIENTED_EDGE('',*,*,#364,.F.);
#115=ORIENTED_EDGE('',*,*,#366,.F.);
#116=ORIENTED_EDGE('',*,*,#356,.T.);
#117=ORIENTED_EDGE('',*,*,#357,.T.);
#118=ORIENTED_EDGE('',*,*,#366,.T.);
#119=ORIENTED_EDGE('',*,*,#363,.F.);
#120=ORIENTED_EDGE('',*,*,#360,.F.);
#121=ORIENTED_EDGE('',*,*,#355,.F.);
#122=ORIENTED_EDGE('',*,*,#359,.T.);
#123=ORIENTED_EDGE('',*,*,#362,.T.);
#124=ORIENTED_EDGE('',*,*,#365,.F.);
#125=ORIENTED_EDGE('',*,*,#367,.T.);
#126=ORIENTED_EDGE('',*,*,#368,.F.);
#127=ORIENTED_EDGE('',*,*,#369,.F.);
#128=ORIENTED_EDGE('',*,*,#370,.T.);
#129=ORIENTED_EDGE('',*,*,#371,.F.);
#130=ORIENTED_EDGE('',*,*,#370,.F.);
#131=ORIENTED_EDGE('',*,*,#372,.T.);
#132=ORIENTED_EDGE('',*,*,#373,.T.);
#133=ORIENTED_EDGE('',*,*,#374,.F.);
#134=ORIENTED_EDGE('',*,*,#373,.F.);
#135=ORIENTED_EDGE('',*,*,#375,.T.);
#136=ORIENTED_EDGE('',*,*,#376,.T.);
#137=ORIENTED_EDGE('',*,*,#377,.T.);
#138=ORIENTED_EDGE('',*,*,#376,.F.);
#139=ORIENTED_EDGE('',*,*,#378,.F.);
#140=ORIENTED_EDGE('',*,*,#368,.T.);
#141=ORIENTED_EDGE('',*,*,#369,.T.);
#142=ORIENTED_EDGE('',*,*,#378,.T.);
#143=ORIENTED_EDGE('',*,*,#375,.F.);
#144=ORIENTED_EDGE('',*,*,#372,.F.);
#145=ORIENTED_EDGE('',*,*,#367,.F.);
#146=ORIENTED_EDGE('',*,*,#371,.T.);
#147=ORIENTED_EDGE('',*,*,#374,.T.);
#148=ORIENTED_EDGE('',*,*,#377,.F.);
#149=ORIENTED_EDGE('',*,*,#379,.F.);
#150=ORIENTED_EDGE('',*,*,#380,.T.);
#151=ORIENTED_EDGE('',*,*,#381,.F.);
#152=ORIENTED_EDGE('',*,*,#382,.F.);
#153=ORIENTED_EDGE('',*,*,#383,.F.);
#154=ORIENTED_EDGE('',*,*,#384,.T.);
#155=ORIENTED_EDGE('',*,*,#385,.T.);
#156=ORIENTED_EDGE('',*,*,#386,.T.);
#157=ORIENTED_EDGE('',*,*,#387,.F.);
#158=ORIENTED_EDGE('',*,*,#388,.F.);
#159=ORIENTED_EDGE('',*,*,#389,.T.);
#160=ORIENTED_EDGE('',*,*,#390,.T.);
#161=ORIENTED_EDGE('',*,*,#391,.F.);
#162=ORIENTED_EDGE('',*,*,#392,.F.);
#163=ORIENTED_EDGE('',*,*,#393,.T.);
#164=ORIENTED_EDGE('',*,*,#394,.T.);
#165=ORIENTED_EDGE('',*,*,#395,.F.);
#166=ORIENTED_EDGE('',*,*,#396,.F.);
#167=ORIENTED_EDGE('',*,*,#397,.T.);
#168=ORIENTED_EDGE('',*,*,#398,.T.);
#169=ORIENTED_EDGE('',*,*,#399,.T.);
#170=ORIENTED_EDGE('',*,*,#400,.T.);
#171=ORIENTED_EDGE('',*,*,#401,.F.);
#172=ORIENTED_EDGE('',*,*,#402,.T.);
#173=ORIENTED_EDGE('',*,*,#403,.F.);
#174=ORIENTED_EDGE('',*,*,#402,.F.);
#175=ORIENTED_EDGE('',*,*,#404,.T.);
#176=ORIENTED_EDGE('',*,*,#405,.T.);
#177=ORIENTED_EDGE('',*,*,#406,.F.);
#178=ORIENTED_EDGE('',*,*,#407,.F.);
#179=ORIENTED_EDGE('',*,*,#405,.F.);
#180=ORIENTED_EDGE('',*,*,#408,.T.);
#181=ORIENTED_EDGE('',*,*,#401,.T.);
#182=ORIENTED_EDGE('',*,*,#409,.F.);
#183=ORIENTED_EDGE('',*,*,#410,.F.);
#184=ORIENTED_EDGE('',*,*,#411,.T.);
#185=ORIENTED_EDGE('',*,*,#382,.T.);
#186=ORIENTED_EDGE('',*,*,#412,.T.);
#187=ORIENTED_EDGE('',*,*,#413,.F.);
#188=ORIENTED_EDGE('',*,*,#414,.F.);
#189=ORIENTED_EDGE('',*,*,#415,.T.);
#190=ORIENTED_EDGE('',*,*,#396,.T.);
#191=ORIENTED_EDGE('',*,*,#416,.F.);
#192=ORIENTED_EDGE('',*,*,#417,.F.);
#193=ORIENTED_EDGE('',*,*,#418,.T.);
#194=ORIENTED_EDGE('',*,*,#392,.T.);
#195=ORIENTED_EDGE('',*,*,#419,.F.);
#196=ORIENTED_EDGE('',*,*,#420,.F.);
#197=ORIENTED_EDGE('',*,*,#421,.T.);
#198=ORIENTED_EDGE('',*,*,#388,.T.);
#199=ORIENTED_EDGE('',*,*,#422,.F.);
#200=ORIENTED_EDGE('',*,*,#423,.F.);
#201=ORIENTED_EDGE('',*,*,#424,.T.);
#202=ORIENTED_EDGE('',*,*,#425,.T.);
#203=ORIENTED_EDGE('',*,*,#385,.F.);
#204=ORIENTED_EDGE('',*,*,#426,.T.);
#205=ORIENTED_EDGE('',*,*,#427,.T.);
#206=ORIENTED_EDGE('',*,*,#428,.F.);
#207=ORIENTED_EDGE('',*,*,#408,.F.);
#208=ORIENTED_EDGE('',*,*,#404,.F.);
#209=ORIENTED_EDGE('',*,*,#407,.T.);
#210=ORIENTED_EDGE('',*,*,#429,.T.);
#211=ORIENTED_EDGE('',*,*,#430,.F.);
#212=ORIENTED_EDGE('',*,*,#431,.F.);
#213=ORIENTED_EDGE('',*,*,#383,.T.);
#214=ORIENTED_EDGE('',*,*,#432,.F.);
#215=ORIENTED_EDGE('',*,*,#433,.F.);
#216=ORIENTED_EDGE('',*,*,#434,.T.);
#217=ORIENTED_EDGE('',*,*,#435,.T.);
#218=ORIENTED_EDGE('',*,*,#390,.F.);
#219=ORIENTED_EDGE('',*,*,#436,.F.);
#220=ORIENTED_EDGE('',*,*,#437,.T.);
#221=ORIENTED_EDGE('',*,*,#438,.T.);
#222=ORIENTED_EDGE('',*,*,#394,.F.);
#223=ORIENTED_EDGE('',*,*,#439,.F.);
#224=ORIENTED_EDGE('',*,*,#440,.T.);
#225=ORIENTED_EDGE('',*,*,#441,.T.);
#226=ORIENTED_EDGE('',*,*,#398,.F.);
#227=ORIENTED_EDGE('',*,*,#442,.F.);
#228=ORIENTED_EDGE('',*,*,#443,.T.);
#229=ORIENTED_EDGE('',*,*,#444,.T.);
#230=ORIENTED_EDGE('',*,*,#445,.F.);
#231=ORIENTED_EDGE('',*,*,#380,.F.);
#232=ORIENTED_EDGE('',*,*,#446,.F.);
#233=ORIENTED_EDGE('',*,*,#447,.T.);
#234=ORIENTED_EDGE('',*,*,#448,.T.);
#235=ORIENTED_EDGE('',*,*,#399,.F.);
#236=ORIENTED_EDGE('',*,*,#403,.T.);
#237=ORIENTED_EDGE('',*,*,#443,.F.);
#238=ORIENTED_EDGE('',*,*,#449,.F.);
#239=ORIENTED_EDGE('',*,*,#414,.T.);
#240=ORIENTED_EDGE('',*,*,#450,.T.);
#241=ORIENTED_EDGE('',*,*,#442,.T.);
#242=ORIENTED_EDGE('',*,*,#397,.F.);
#243=ORIENTED_EDGE('',*,*,#415,.F.);
#244=ORIENTED_EDGE('',*,*,#449,.T.);
#245=ORIENTED_EDGE('',*,*,#412,.F.);
#246=ORIENTED_EDGE('',*,*,#381,.T.);
#247=ORIENTED_EDGE('',*,*,#445,.T.);
#248=ORIENTED_EDGE('',*,*,#451,.F.);
#249=ORIENTED_EDGE('',*,*,#444,.F.);
#250=ORIENTED_EDGE('',*,*,#450,.F.);
#251=ORIENTED_EDGE('',*,*,#413,.T.);
#252=ORIENTED_EDGE('',*,*,#451,.T.);
#253=ORIENTED_EDGE('',*,*,#440,.F.);
#254=ORIENTED_EDGE('',*,*,#452,.F.);
#255=ORIENTED_EDGE('',*,*,#417,.T.);
#256=ORIENTED_EDGE('',*,*,#453,.T.);
#257=ORIENTED_EDGE('',*,*,#439,.T.);
#258=ORIENTED_EDGE('',*,*,#393,.F.);
#259=ORIENTED_EDGE('',*,*,#418,.F.);
#260=ORIENTED_EDGE('',*,*,#452,.T.);
#261=ORIENTED_EDGE('',*,*,#441,.F.);
#262=ORIENTED_EDGE('',*,*,#453,.F.);
#263=ORIENTED_EDGE('',*,*,#416,.T.);
#264=ORIENTED_EDGE('',*,*,#395,.T.);
#265=ORIENTED_EDGE('',*,*,#437,.F.);
#266=ORIENTED_EDGE('',*,*,#454,.F.);
#267=ORIENTED_EDGE('',*,*,#420,.T.);
#268=ORIENTED_EDGE('',*,*,#455,.T.);
#269=ORIENTED_EDGE('',*,*,#436,.T.);
#270=ORIENTED_EDGE('',*,*,#389,.F.);
#271=ORIENTED_EDGE('',*,*,#421,.F.);
#272=ORIENTED_EDGE('',*,*,#454,.T.);
#273=ORIENTED_EDGE('',*,*,#438,.F.);
#274=ORIENTED_EDGE('',*,*,#455,.F.);
#275=ORIENTED_EDGE('',*,*,#419,.T.);
#276=ORIENTED_EDGE('',*,*,#391,.T.);
#277=ORIENTED_EDGE('',*,*,#386,.F.);
#278=ORIENTED_EDGE('',*,*,#425,.F.);
#279=ORIENTED_EDGE('',*,*,#456,.T.);
#280=ORIENTED_EDGE('',*,*,#432,.T.);
#281=ORIENTED_EDGE('',*,*,#434,.F.);
#282=ORIENTED_EDGE('',*,*,#457,.F.);
#283=ORIENTED_EDGE('',*,*,#423,.T.);
#284=ORIENTED_EDGE('',*,*,#458,.T.);
#285=ORIENTED_EDGE('',*,*,#433,.T.);
#286=ORIENTED_EDGE('',*,*,#456,.F.);
#287=ORIENTED_EDGE('',*,*,#424,.F.);
#288=ORIENTED_EDGE('',*,*,#457,.T.);
#289=ORIENTED_EDGE('',*,*,#435,.F.);
#290=ORIENTED_EDGE('',*,*,#458,.F.);
#291=ORIENTED_EDGE('',*,*,#422,.T.);
#292=ORIENTED_EDGE('',*,*,#387,.T.);
#293=ORIENTED_EDGE('',*,*,#430,.T.);
#294=ORIENTED_EDGE('',*,*,#459,.F.);
#295=ORIENTED_EDGE('',*,*,#427,.F.);
#296=ORIENTED_EDGE('',*,*,#460,.T.);
#297=ORIENTED_EDGE('',*,*,#384,.F.);
#298=ORIENTED_EDGE('',*,*,#431,.T.);
#299=ORIENTED_EDGE('',*,*,#460,.F.);
#300=ORIENTED_EDGE('',*,*,#426,.F.);
#301=ORIENTED_EDGE('',*,*,#429,.F.);
#302=ORIENTED_EDGE('',*,*,#406,.T.);
#303=ORIENTED_EDGE('',*,*,#428,.T.);
#304=ORIENTED_EDGE('',*,*,#459,.T.);
#305=ORIENTED_EDGE('',*,*,#446,.T.);
#306=ORIENTED_EDGE('',*,*,#379,.T.);
#307=ORIENTED_EDGE('',*,*,#411,.F.);
#308=ORIENTED_EDGE('',*,*,#461,.T.);
#309=ORIENTED_EDGE('',*,*,#400,.F.);
#310=ORIENTED_EDGE('',*,*,#448,.F.);
#311=ORIENTED_EDGE('',*,*,#462,.F.);
#312=ORIENTED_EDGE('',*,*,#409,.T.);
#313=ORIENTED_EDGE('',*,*,#447,.F.);
#314=ORIENTED_EDGE('',*,*,#461,.F.);
#315=ORIENTED_EDGE('',*,*,#410,.T.);
#316=ORIENTED_EDGE('',*,*,#462,.T.);
#317=EDGE_CURVE('',#463,#464,#561,.T.);
#318=EDGE_CURVE('',#465,#463,#562,.F.);
#319=EDGE_CURVE('',#465,#466,#563,.T.);
#320=EDGE_CURVE('',#466,#464,#564,.T.);
#321=EDGE_CURVE('',#463,#467,#565,.F.);
#322=EDGE_CURVE('',#468,#467,#566,.T.);
#323=EDGE_CURVE('',#465,#468,#567,.F.);
#324=EDGE_CURVE('',#467,#469,#568,.F.);
#325=EDGE_CURVE('',#470,#469,#569,.F.);
#326=EDGE_CURVE('',#468,#470,#570,.F.);
#327=EDGE_CURVE('',#464,#469,#571,.T.);
#328=EDGE_CURVE('',#466,#470,#572,.T.);
#329=EDGE_CURVE('',#471,#471,#23,.T.);
#330=EDGE_CURVE('',#472,#472,#24,.T.);
#331=EDGE_CURVE('',#473,#474,#573,.T.);
#332=EDGE_CURVE('',#475,#474,#574,.T.);
#333=EDGE_CURVE('',#476,#475,#575,.T.);
#334=EDGE_CURVE('',#476,#473,#576,.T.);
#335=EDGE_CURVE('',#473,#477,#577,.T.);
#336=EDGE_CURVE('',#476,#478,#578,.T.);
#337=EDGE_CURVE('',#478,#477,#579,.T.);
#338=EDGE_CURVE('',#477,#479,#580,.T.);
#339=EDGE_CURVE('',#478,#480,#581,.T.);
#340=EDGE_CURVE('',#480,#479,#582,.T.);
#341=EDGE_CURVE('',#474,#479,#583,.T.);
#342=EDGE_CURVE('',#475,#480,#584,.T.);
#343=EDGE_CURVE('',#481,#482,#585,.T.);
#344=EDGE_CURVE('',#483,#482,#586,.T.);
#345=EDGE_CURVE('',#484,#483,#587,.T.);
#346=EDGE_CURVE('',#484,#481,#588,.T.);
#347=EDGE_CURVE('',#481,#485,#589,.T.);
#348=EDGE_CURVE('',#484,#486,#590,.T.);
#349=EDGE_CURVE('',#486,#485,#591,.T.);
#350=EDGE_CURVE('',#485,#487,#592,.T.);
#351=EDGE_CURVE('',#486,#488,#593,.T.);
#352=EDGE_CURVE('',#488,#487,#594,.T.);
#353=EDGE_CURVE('',#482,#487,#595,.T.);
#354=EDGE_CURVE('',#483,#488,#596,.T.);
#355=EDGE_CURVE('',#489,#490,#597,.T.);
#356=EDGE_CURVE('',#491,#490,#598,.T.);
#357=EDGE_CURVE('',#492,#491,#599,.T.);
#358=EDGE_CURVE('',#492,#489,#600,.T.);
#359=EDGE_CURVE('',#489,#493,#601,.T.);
#360=EDGE_CURVE('',#492,#494,#602,.T.);
#361=EDGE_CURVE('',#494,#493,#603,.T.);
#362=EDGE_CURVE('',#493,#495,#604,.T.);
#363=EDGE_CURVE('',#494,#496,#605,.T.);
#364=EDGE_CURVE('',#496,#495,#606,.T.);
#365=EDGE_CURVE('',#490,#495,#607,.T.);
#366=EDGE_CURVE('',#491,#496,#608,.T.);
#367=EDGE_CURVE('',#497,#498,#609,.T.);
#368=EDGE_CURVE('',#499,#498,#610,.T.);
#369=EDGE_CURVE('',#500,#499,#611,.T.);
#370=EDGE_CURVE('',#500,#497,#612,.T.);
#371=EDGE_CURVE('',#497,#501,#613,.T.);
#372=EDGE_CURVE('',#500,#502,#614,.T.);
#373=EDGE_CURVE('',#502,#501,#615,.T.);
#374=EDGE_CURVE('',#501,#503,#616,.T.);
#375=EDGE_CURVE('',#502,#504,#617,.T.);
#376=EDGE_CURVE('',#504,#503,#618,.T.);
#377=EDGE_CURVE('',#498,#503,#619,.T.);
#378=EDGE_CURVE('',#499,#504,#620,.T.);
#379=EDGE_CURVE('',#505,#506,#621,.T.);
#380=EDGE_CURVE('',#505,#507,#622,.T.);
#381=EDGE_CURVE('',#508,#507,#623,.T.);
#382=EDGE_CURVE('',#506,#508,#624,.T.);
#383=EDGE_CURVE('',#509,#510,#625,.T.);
#384=EDGE_CURVE('',#509,#511,#626,.T.);
#385=EDGE_CURVE('',#511,#512,#627,.T.);
#386=EDGE_CURVE('',#512,#510,#628,.T.);
#387=EDGE_CURVE('',#513,#514,#629,.T.);
#388=EDGE_CURVE('',#515,#513,#630,.T.);
#389=EDGE_CURVE('',#515,#516,#631,.T.);
#390=EDGE_CURVE('',#516,#514,#632,.T.);
#391=EDGE_CURVE('',#517,#518,#633,.T.);
#392=EDGE_CURVE('',#519,#517,#634,.T.);
#393=EDGE_CURVE('',#519,#520,#635,.T.);
#394=EDGE_CURVE('',#520,#518,#636,.T.);
#395=EDGE_CURVE('',#521,#522,#637,.T.);
#396=EDGE_CURVE('',#523,#521,#638,.T.);
#397=EDGE_CURVE('',#523,#524,#639,.T.);
#398=EDGE_CURVE('',#524,#522,#640,.T.);
#399=EDGE_CURVE('',#525,#526,#641,.T.);
#400=EDGE_CURVE('',#526,#527,#642,.T.);
#401=EDGE_CURVE('',#528,#527,#643,.T.);
#402=EDGE_CURVE('',#528,#525,#644,.T.);
#403=EDGE_CURVE('',#525,#529,#645,.T.);
#404=EDGE_CURVE('',#528,#530,#646,.T.);
#405=EDGE_CURVE('',#530,#529,#647,.T.);
#406=EDGE_CURVE('',#531,#532,#648,.T.);
#407=EDGE_CURVE('',#529,#531,#649,.T.);
#408=EDGE_CURVE('',#530,#532,#650,.T.);
#409=EDGE_CURVE('',#533,#527,#651,.T.);
#410=EDGE_CURVE('',#534,#533,#652,.T.);
#411=EDGE_CURVE('',#534,#506,#653,.T.);
#412=EDGE_CURVE('',#508,#535,#654,.T.);
#413=EDGE_CURVE('',#536,#535,#655,.T.);
#414=EDGE_CURVE('',#537,#536,#656,.T.);
#415=EDGE_CURVE('',#537,#523,#657,.T.);
#416=EDGE_CURVE('',#538,#521,#658,.T.);
#417=EDGE_CURVE('',#539,#538,#659,.T.);
#418=EDGE_CURVE('',#539,#519,#660,.T.);
#419=EDGE_CURVE('',#540,#517,#661,.T.);
#420=EDGE_CURVE('',#541,#540,#662,.T.);
#421=EDGE_CURVE('',#541,#515,#663,.T.);
#422=EDGE_CURVE('',#542,#513,#664,.T.);
#423=EDGE_CURVE('',#543,#542,#665,.T.);
#424=EDGE_CURVE('',#543,#544,#666,.T.);
#425=EDGE_CURVE('',#544,#512,#667,.T.);
#426=EDGE_CURVE('',#511,#545,#668,.T.);
#427=EDGE_CURVE('',#545,#546,#669,.T.);
#428=EDGE_CURVE('',#532,#546,#670,.T.);
#429=EDGE_CURVE('',#531,#547,#671,.T.);
#430=EDGE_CURVE('',#548,#547,#672,.T.);
#431=EDGE_CURVE('',#509,#548,#673,.T.);
#432=EDGE_CURVE('',#549,#510,#674,.T.);
#433=EDGE_CURVE('',#550,#549,#675,.T.);
#434=EDGE_CURVE('',#550,#551,#676,.T.);
#435=EDGE_CURVE('',#551,#514,#677,.T.);
#436=EDGE_CURVE('',#552,#516,#678,.T.);
#437=EDGE_CURVE('',#552,#553,#679,.T.);
#438=EDGE_CURVE('',#553,#518,#680,.T.);
#439=EDGE_CURVE('',#554,#520,#681,.T.);
#440=EDGE_CURVE('',#554,#555,#682,.T.);
#441=EDGE_CURVE('',#555,#522,#683,.T.);
#442=EDGE_CURVE('',#556,#524,#684,.T.);
#443=EDGE_CURVE('',#556,#557,#685,.T.);
#444=EDGE_CURVE('',#557,#558,#686,.T.);
#445=EDGE_CURVE('',#507,#558,#687,.T.);
#446=EDGE_CURVE('',#559,#505,#688,.T.);
#447=EDGE_CURVE('',#559,#560,#689,.T.);
#448=EDGE_CURVE('',#560,#526,#690,.T.);
#449=EDGE_CURVE('',#537,#556,#691,.T.);
#450=EDGE_CURVE('',#536,#557,#692,.T.);
#451=EDGE_CURVE('',#535,#558,#693,.T.);
#452=EDGE_CURVE('',#539,#554,#694,.T.);
#453=EDGE_CURVE('',#538,#555,#695,.T.);
#454=EDGE_CURVE('',#541,#552,#696,.T.);
#455=EDGE_CURVE('',#540,#553,#697,.T.);
#456=EDGE_CURVE('',#544,#549,#698,.T.);
#457=EDGE_CURVE('',#543,#550,#699,.T.);
#458=EDGE_CURVE('',#542,#551,#700,.T.);
#459=EDGE_CURVE('',#546,#547,#701,.T.);
#460=EDGE_CURVE('',#545,#548,#702,.T.);
#461=EDGE_CURVE('',#534,#559,#703,.T.);
#462=EDGE_CURVE('',#533,#560,#704,.T.);
#463=VERTEX_POINT('',#1525);
#464=VERTEX_POINT('',#1526);
#465=VERTEX_POINT('',#1528);
#466=VERTEX_POINT('',#1530);
#467=VERTEX_POINT('',#1534);
#468=VERTEX_POINT('',#1536);
#469=VERTEX_POINT('',#1540);
#470=VERTEX_POINT('',#1542);
#471=VERTEX_POINT('',#1549);
#472=VERTEX_POINT('',#1553);
#473=VERTEX_POINT('',#1558);
#474=VERTEX_POINT('',#1559);
#475=VERTEX_POINT('',#1561);
#476=VERTEX_POINT('',#1563);
#477=VERTEX_POINT('',#1567);
#478=VERTEX_POINT('',#1569);
#479=VERTEX_POINT('',#1573);
#480=VERTEX_POINT('',#1575);
#481=VERTEX_POINT('',#1585);
#482=VERTEX_POINT('',#1586);
#483=VERTEX_POINT('',#1588);
#484=VERTEX_POINT('',#1590);
#485=VERTEX_POINT('',#1594);
#486=VERTEX_POINT('',#1596);
#487=VERTEX_POINT('',#1600);
#488=VERTEX_POINT('',#1602);
#489=VERTEX_POINT('',#1612);
#490=VERTEX_POINT('',#1613);
#491=VERTEX_POINT('',#1615);
#492=VERTEX_POINT('',#1617);
#493=VERTEX_POINT('',#1621);
#494=VERTEX_POINT('',#1623);
#495=VERTEX_POINT('',#1627);
#496=VERTEX_POINT('',#1629);
#497=VERTEX_POINT('',#1639);
#498=VERTEX_POINT('',#1640);
#499=VERTEX_POINT('',#1642);
#500=VERTEX_POINT('',#1644);
#501=VERTEX_POINT('',#1648);
#502=VERTEX_POINT('',#1650);
#503=VERTEX_POINT('',#1654);
#504=VERTEX_POINT('',#1656);
#505=VERTEX_POINT('',#1666);
#506=VERTEX_POINT('',#1667);
#507=VERTEX_POINT('',#1669);
#508=VERTEX_POINT('',#1671);
#509=VERTEX_POINT('',#1675);
#510=VERTEX_POINT('',#1676);
#511=VERTEX_POINT('',#1678);
#512=VERTEX_POINT('',#1680);
#513=VERTEX_POINT('',#1684);
#514=VERTEX_POINT('',#1685);
#515=VERTEX_POINT('',#1687);
#516=VERTEX_POINT('',#1689);
#517=VERTEX_POINT('',#1693);
#518=VERTEX_POINT('',#1694);
#519=VERTEX_POINT('',#1696);
#520=VERTEX_POINT('',#1698);
#521=VERTEX_POINT('',#1702);
#522=VERTEX_POINT('',#1703);
#523=VERTEX_POINT('',#1705);
#524=VERTEX_POINT('',#1707);
#525=VERTEX_POINT('',#1711);
#526=VERTEX_POINT('',#1712);
#527=VERTEX_POINT('',#1714);
#528=VERTEX_POINT('',#1716);
#529=VERTEX_POINT('',#1720);
#530=VERTEX_POINT('',#1722);
#531=VERTEX_POINT('',#1726);
#532=VERTEX_POINT('',#1727);
#533=VERTEX_POINT('',#1732);
#534=VERTEX_POINT('',#1734);
#535=VERTEX_POINT('',#1737);
#536=VERTEX_POINT('',#1739);
#537=VERTEX_POINT('',#1741);
#538=VERTEX_POINT('',#1744);
#539=VERTEX_POINT('',#1746);
#540=VERTEX_POINT('',#1749);
#541=VERTEX_POINT('',#1751);
#542=VERTEX_POINT('',#1754);
#543=VERTEX_POINT('',#1756);
#544=VERTEX_POINT('',#1758);
#545=VERTEX_POINT('',#1761);
#546=VERTEX_POINT('',#1763);
#547=VERTEX_POINT('',#1767);
#548=VERTEX_POINT('',#1769);
#549=VERTEX_POINT('',#1772);
#550=VERTEX_POINT('',#1774);
#551=VERTEX_POINT('',#1776);
#552=VERTEX_POINT('',#1779);
#553=VERTEX_POINT('',#1781);
#554=VERTEX_POINT('',#1784);
#555=VERTEX_POINT('',#1786);
#556=VERTEX_POINT('',#1789);
#557=VERTEX_POINT('',#1791);
#558=VERTEX_POINT('',#1793);
#559=VERTEX_POINT('',#1796);
#560=VERTEX_POINT('',#1798);
#561=LINE('',#1524,#705);
#562=LINE('',#1527,#706);
#563=LINE('',#1529,#707);
#564=LINE('',#1531,#708);
#565=LINE('',#1533,#709);
#566=LINE('',#1535,#710);
#567=LINE('',#1537,#711);
#568=LINE('',#1539,#712);
#569=LINE('',#1541,#713);
#570=LINE('',#1543,#714);
#571=LINE('',#1545,#715);
#572=LINE('',#1546,#716);
#573=LINE('',#1557,#717);
#574=LINE('',#1560,#718);
#575=LINE('',#1562,#719);
#576=LINE('',#1564,#720);
#577=LINE('',#1566,#721);
#578=LINE('',#1568,#722);
#579=LINE('',#1570,#723);
#580=LINE('',#1572,#724);
#581=LINE('',#1574,#725);
#582=LINE('',#1576,#726);
#583=LINE('',#1578,#727);
#584=LINE('',#1579,#728);
#585=LINE('',#1584,#729);
#586=LINE('',#1587,#730);
#587=LINE('',#1589,#731);
#588=LINE('',#1591,#732);
#589=LINE('',#1593,#733);
#590=LINE('',#1595,#734);
#591=LINE('',#1597,#735);
#592=LINE('',#1599,#736);
#593=LINE('',#1601,#737);
#594=LINE('',#1603,#738);
#595=LINE('',#1605,#739);
#596=LINE('',#1606,#740);
#597=LINE('',#1611,#741);
#598=LINE('',#1614,#742);
#599=LINE('',#1616,#743);
#600=LINE('',#1618,#744);
#601=LINE('',#1620,#745);
#602=LINE('',#1622,#746);
#603=LINE('',#1624,#747);
#604=LINE('',#1626,#748);
#605=LINE('',#1628,#749);
#606=LINE('',#1630,#750);
#607=LINE('',#1632,#751);
#608=LINE('',#1633,#752);
#609=LINE('',#1638,#753);
#610=LINE('',#1641,#754);
#611=LINE('',#1643,#755);
#612=LINE('',#1645,#756);
#613=LINE('',#1647,#757);
#614=LINE('',#1649,#758);
#615=LINE('',#1651,#759);
#616=LINE('',#1653,#760);
#617=LINE('',#1655,#761);
#618=LINE('',#1657,#762);
#619=LINE('',#1659,#763);
#620=LINE('',#1660,#764);
#621=LINE('',#1665,#765);
#622=LINE('',#1668,#766);
#623=LINE('',#1670,#767);
#624=LINE('',#1672,#768);
#625=LINE('',#1674,#769);
#626=LINE('',#1677,#770);
#627=LINE('',#1679,#771);
#628=LINE('',#1681,#772);
#629=LINE('',#1683,#773);
#630=LINE('',#1686,#774);
#631=LINE('',#1688,#775);
#632=LINE('',#1690,#776);
#633=LINE('',#1692,#777);
#634=LINE('',#1695,#778);
#635=LINE('',#1697,#779);
#636=LINE('',#1699,#780);
#637=LINE('',#1701,#781);
#638=LINE('',#1704,#782);
#639=LINE('',#1706,#783);
#640=LINE('',#1708,#784);
#641=LINE('',#1710,#785);
#642=LINE('',#1713,#786);
#643=LINE('',#1715,#787);
#644=LINE('',#1717,#788);
#645=LINE('',#1719,#789);
#646=LINE('',#1721,#790);
#647=LINE('',#1723,#791);
#648=LINE('',#1725,#792);
#649=LINE('',#1728,#793);
#650=LINE('',#1729,#794);
#651=LINE('',#1731,#795);
#652=LINE('',#1733,#796);
#653=LINE('',#1735,#797);
#654=LINE('',#1736,#798);
#655=LINE('',#1738,#799);
#656=LINE('',#1740,#800);
#657=LINE('',#1742,#801);
#658=LINE('',#1743,#802);
#659=LINE('',#1745,#803);
#660=LINE('',#1747,#804);
#661=LINE('',#1748,#805);
#662=LINE('',#1750,#806);
#663=LINE('',#1752,#807);
#664=LINE('',#1753,#808);
#665=LINE('',#1755,#809);
#666=LINE('',#1757,#810);
#667=LINE('',#1759,#811);
#668=LINE('',#1760,#812);
#669=LINE('',#1762,#813);
#670=LINE('',#1764,#814);
#671=LINE('',#1766,#815);
#672=LINE('',#1768,#816);
#673=LINE('',#1770,#817);
#674=LINE('',#1771,#818);
#675=LINE('',#1773,#819);
#676=LINE('',#1775,#820);
#677=LINE('',#1777,#821);
#678=LINE('',#1778,#822);
#679=LINE('',#1780,#823);
#680=LINE('',#1782,#824);
#681=LINE('',#1783,#825);
#682=LINE('',#1785,#826);
#683=LINE('',#1787,#827);
#684=LINE('',#1788,#828);
#685=LINE('',#1790,#829);
#686=LINE('',#1792,#830);
#687=LINE('',#1794,#831);
#688=LINE('',#1795,#832);
#689=LINE('',#1797,#833);
#690=LINE('',#1799,#834);
#691=LINE('',#1801,#835);
#692=LINE('',#1802,#836);
#693=LINE('',#1805,#837);
#694=LINE('',#1808,#838);
#695=LINE('',#1809,#839);
#696=LINE('',#1813,#840);
#697=LINE('',#1814,#841);
#698=LINE('',#1818,#842);
#699=LINE('',#1820,#843);
#700=LINE('',#1821,#844);
#701=LINE('',#1825,#845);
#702=LINE('',#1826,#846);
#703=LINE('',#1830,#847);
#704=LINE('',#1832,#848);
#705=VECTOR('',#1242,1.);
#706=VECTOR('',#1243,1.);
#707=VECTOR('',#1244,1.);
#708=VECTOR('',#1245,1.);
#709=VECTOR('',#1248,1.);
#710=VECTOR('',#1249,1.);
#711=VECTOR('',#1250,1.);
#712=VECTOR('',#1253,1.);
#713=VECTOR('',#1254,1.);
#714=VECTOR('',#1255,1.);
#715=VECTOR('',#1258,1.);
#716=VECTOR('',#1259,1.);
#717=VECTOR('',#1276,1.);
#718=VECTOR('',#1277,1.);
#719=VECTOR('',#1278,1.);
#720=VECTOR('',#1279,1.);
#721=VECTOR('',#1282,1.);
#722=VECTOR('',#1283,1.);
#723=VECTOR('',#1284,1.);
#724=VECTOR('',#1287,1.);
#725=VECTOR('',#1288,1.);
#726=VECTOR('',#1289,1.);
#727=VECTOR('',#1292,1.);
#728=VECTOR('',#1293,1.);
#729=VECTOR('',#1302,1.);
#730=VECTOR('',#1303,1.);
#731=VECTOR('',#1304,1.);
#732=VECTOR('',#1305,1.);
#733=VECTOR('',#1308,1.);
#734=VECTOR('',#1309,1.);
#735=VECTOR('',#1310,1.);
#736=VECTOR('',#1313,1.);
#737=VECTOR('',#1314,1.);
#738=VECTOR('',#1315,1.);
#739=VECTOR('',#1318,1.);
#740=VECTOR('',#1319,1.);
#741=VECTOR('',#1328,1.);
#742=VECTOR('',#1329,1.);
#743=VECTOR('',#1330,1.);
#744=VECTOR('',#1331,1.);
#745=VECTOR('',#1334,1.);
#746=VECTOR('',#1335,1.);
#747=VECTOR('',#1336,1.);
#748=VECTOR('',#1339,1.);
#749=VECTOR('',#1340,1.);
#750=VECTOR('',#1341,1.);
#751=VECTOR('',#1344,1.);
#752=VECTOR('',#1345,1.);
#753=VECTOR('',#1354,1.);
#754=VECTOR('',#1355,1.);
#755=VECTOR('',#1356,1.);
#756=VECTOR('',#1357,1.);
#757=VECTOR('',#1360,1.);
#758=VECTOR('',#1361,1.);
#759=VECTOR('',#1362,1.);
#760=VECTOR('',#1365,1.);
#761=VECTOR('',#1366,1.);
#762=VECTOR('',#1367,1.);
#763=VECTOR('',#1370,1.);
#764=VECTOR('',#1371,1.);
#765=VECTOR('',#1380,1.);
#766=VECTOR('',#1381,1.);
#767=VECTOR('',#1382,1.);
#768=VECTOR('',#1383,1.);
#769=VECTOR('',#1386,1.);
#770=VECTOR('',#1387,1.);
#771=VECTOR('',#1388,1.);
#772=VECTOR('',#1389,1.);
#773=VECTOR('',#1392,1.);
#774=VECTOR('',#1393,1.);
#775=VECTOR('',#1394,1.);
#776=VECTOR('',#1395,1.);
#777=VECTOR('',#1398,1.);
#778=VECTOR('',#1399,1.);
#779=VECTOR('',#1400,1.);
#780=VECTOR('',#1401,1.);
#781=VECTOR('',#1404,1.);
#782=VECTOR('',#1405,1.);
#783=VECTOR('',#1406,1.);
#784=VECTOR('',#1407,1.);
#785=VECTOR('',#1410,1.);
#786=VECTOR('',#1411,1.);
#787=VECTOR('',#1412,1.);
#788=VECTOR('',#1413,1.);
#789=VECTOR('',#1416,1.);
#790=VECTOR('',#1417,1.);
#791=VECTOR('',#1418,1.);
#792=VECTOR('',#1421,1.);
#793=VECTOR('',#1422,1.);
#794=VECTOR('',#1423,1.);
#795=VECTOR('',#1426,1.);
#796=VECTOR('',#1427,1.);
#797=VECTOR('',#1428,1.);
#798=VECTOR('',#1429,1.);
#799=VECTOR('',#1430,1.);
#800=VECTOR('',#1431,1.);
#801=VECTOR('',#1432,1.);
#802=VECTOR('',#1433,1.);
#803=VECTOR('',#1434,1.);
#804=VECTOR('',#1435,1.);
#805=VECTOR('',#1436,1.);
#806=VECTOR('',#1437,1.);
#807=VECTOR('',#1438,1.);
#808=VECTOR('',#1439,1.);
#809=VECTOR('',#1440,1.);
#810=VECTOR('',#1441,1.);
#811=VECTOR('',#1442,1.);
#812=VECTOR('',#1443,1.);
#813=VECTOR('',#1444,1.);
#814=VECTOR('',#1445,1.);
#815=VECTOR('',#1448,1.);
#816=VECTOR('',#1449,1.);
#817=VECTOR('',#1450,1.);
#818=VECTOR('',#1451,1.);
#819=VECTOR('',#1452,1.);
#820=VECTOR('',#1453,1.);
#821=VECTOR('',#1454,1.);
#822=VECTOR('',#1455,1.);
#823=VECTOR('',#1456,1.);
#824=VECTOR('',#1457,1.);
#825=VECTOR('',#1458,1.);
#826=VECTOR('',#1459,1.);
#827=VECTOR('',#1460,1.);
#828=VECTOR('',#1461,1.);
#829=VECTOR('',#1462,1.);
#830=VECTOR('',#1463,1.);
#831=VECTOR('',#1464,1.);
#832=VECTOR('',#1465,1.);
#833=VECTOR('',#1466,1.);
#834=VECTOR('',#1467,1.);
#835=VECTOR('',#1470,1.);
#836=VECTOR('',#1471,1.);
#837=VECTOR('',#1476,1.);
#838=VECTOR('',#1481,1.);
#839=VECTOR('',#1482,1.);
#840=VECTOR('',#1489,1.);
#841=VECTOR('',#1490,1.);
#842=VECTOR('',#1497,1.);
#843=VECTOR('',#1500,1.);
#844=VECTOR('',#1501,1.);
#845=VECTOR('',#1508,1.);
#846=VECTOR('',#1509,1.);
#847=VECTOR('',#1516,1.);
#848=VECTOR('',#1519,1.);
#849=EDGE_LOOP('',(#25,#26,#27,#28));
#850=EDGE_LOOP('',(#29,#30,#31,#32));
#851=EDGE_LOOP('',(#33,#34,#35,#36));
#852=EDGE_LOOP('',(#37,#38,#39,#40));
#853=EDGE_LOOP('',(#41));
#854=EDGE_LOOP('',(#42,#43,#44,#45));
#855=EDGE_LOOP('',(#46,#47,#48,#49));
#856=EDGE_LOOP('',(#50));
#857=EDGE_LOOP('',(#51));
#858=EDGE_LOOP('',(#52));
#859=EDGE_LOOP('',(#53,#54,#55,#56));
#860=EDGE_LOOP('',(#57,#58,#59,#60));
#861=EDGE_LOOP('',(#61,#62,#63,#64));
#862=EDGE_LOOP('',(#65,#66,#67,#68));
#863=EDGE_LOOP('',(#69,#70,#71,#72));
#864=EDGE_LOOP('',(#73,#74,#75,#76));
#865=EDGE_LOOP('',(#77,#78,#79,#80));
#866=EDGE_LOOP('',(#81,#82,#83,#84));
#867=EDGE_LOOP('',(#85,#86,#87,#88));
#868=EDGE_LOOP('',(#89,#90,#91,#92));
#869=EDGE_LOOP('',(#93,#94,#95,#96));
#870=EDGE_LOOP('',(#97,#98,#99,#100));
#871=EDGE_LOOP('',(#101,#102,#103,#104));
#872=EDGE_LOOP('',(#105,#106,#107,#108));
#873=EDGE_LOOP('',(#109,#110,#111,#112));
#874=EDGE_LOOP('',(#113,#114,#115,#116));
#875=EDGE_LOOP('',(#117,#118,#119,#120));
#876=EDGE_LOOP('',(#121,#122,#123,#124));
#877=EDGE_LOOP('',(#125,#126,#127,#128));
#878=EDGE_LOOP('',(#129,#130,#131,#132));
#879=EDGE_LOOP('',(#133,#134,#135,#136));
#880=EDGE_LOOP('',(#137,#138,#139,#140));
#881=EDGE_LOOP('',(#141,#142,#143,#144));
#882=EDGE_LOOP('',(#145,#146,#147,#148));
#883=EDGE_LOOP('',(#149,#150,#151,#152));
#884=EDGE_LOOP('',(#153,#154,#155,#156));
#885=EDGE_LOOP('',(#157,#158,#159,#160));
#886=EDGE_LOOP('',(#161,#162,#163,#164));
#887=EDGE_LOOP('',(#165,#166,#167,#168));
#888=EDGE_LOOP('',(#169,#170,#171,#172));
#889=EDGE_LOOP('',(#173,#174,#175,#176));
#890=EDGE_LOOP('',(#177,#178,#179,#180));
#891=EDGE_LOOP('',(#181,#182,#183,#184,#185,#186,#187,#188,#189,#190,#191,
#192,#193,#194,#195,#196,#197,#198,#199,#200,#201,#202,#203,#204,#205,#206,
#207,#208));
#892=EDGE_LOOP('',(#209,#210,#211,#212,#213,#214,#215,#216,#217,#218,#219,
#220,#221,#222,#223,#224,#225,#226,#227,#228,#229,#230,#231,#232,#233,#234,
#235,#236));
#893=EDGE_LOOP('',(#237,#238,#239,#240));
#894=EDGE_LOOP('',(#241,#242,#243,#244));
#895=EDGE_LOOP('',(#245,#246,#247,#248));
#896=EDGE_LOOP('',(#249,#250,#251,#252));
#897=EDGE_LOOP('',(#253,#254,#255,#256));
#898=EDGE_LOOP('',(#257,#258,#259,#260));
#899=EDGE_LOOP('',(#261,#262,#263,#264));
#900=EDGE_LOOP('',(#265,#266,#267,#268));
#901=EDGE_LOOP('',(#269,#270,#271,#272));
#902=EDGE_LOOP('',(#273,#274,#275,#276));
#903=EDGE_LOOP('',(#277,#278,#279,#280));
#904=EDGE_LOOP('',(#281,#282,#283,#284));
#905=EDGE_LOOP('',(#285,#286,#287,#288));
#906=EDGE_LOOP('',(#289,#290,#291,#292));
#907=EDGE_LOOP('',(#293,#294,#295,#296));
#908=EDGE_LOOP('',(#297,#298,#299,#300));
#909=EDGE_LOOP('',(#301,#302,#303,#304));
#910=EDGE_LOOP('',(#305,#306,#307,#308));
#911=EDGE_LOOP('',(#309,#310,#311,#312));
#912=EDGE_LOOP('',(#313,#314,#315,#316));
#913=FACE_BOUND('',#849,.T.);
#914=FACE_BOUND('',#850,.T.);
#915=FACE_BOUND('',#851,.T.);
#916=FACE_BOUND('',#852,.T.);
#917=FACE_BOUND('',#853,.T.);
#918=FACE_BOUND('',#854,.T.);
#919=FACE_BOUND('',#855,.T.);
#920=FACE_BOUND('',#856,.T.);
#921=FACE_BOUND('',#857,.T.);
#922=FACE_BOUND('',#858,.T.);
#923=FACE_BOUND('',#859,.T.);
#924=FACE_BOUND('',#860,.T.);
#925=FACE_BOUND('',#861,.T.);
#926=FACE_BOUND('',#862,.T.);
#927=FACE_BOUND('',#863,.T.);
#928=FACE_BOUND('',#864,.T.);
#929=FACE_BOUND('',#865,.T.);
#930=FACE_BOUND('',#866,.T.);
#931=FACE_BOUND('',#867,.T.);
#932=FACE_BOUND('',#868,.T.);
#933=FACE_BOUND('',#869,.T.);
#934=FACE_BOUND('',#870,.T.);
#935=FACE_BOUND('',#871,.T.);
#936=FACE_BOUND('',#872,.T.);
#937=FACE_BOUND('',#873,.T.);
#938=FACE_BOUND('',#874,.T.);
#939=FACE_BOUND('',#875,.T.);
#940=FACE_BOUND('',#876,.T.);
#941=FACE_BOUND('',#877,.T.);
#942=FACE_BOUND('',#878,.T.);
#943=FACE_BOUND('',#879,.T.);
#944=FACE_BOUND('',#880,.T.);
#945=FACE_BOUND('',#881,.T.);
#946=FACE_BOUND('',#882,.T.);
#947=FACE_BOUND('',#883,.T.);
#948=FACE_BOUND('',#884,.T.);
#949=FACE_BOUND('',#885,.T.);
#950=FACE_BOUND('',#886,.T.);
#951=FACE_BOUND('',#887,.T.);
#952=FACE_BOUND('',#888,.T.);
#953=FACE_BOUND('',#889,.T.);
#954=FACE_BOUND('',#890,.T.);
#955=FACE_BOUND('',#891,.T.);
#956=FACE_BOUND('',#892,.T.);
#957=FACE_BOUND('',#893,.T.);
#958=FACE_BOUND('',#894,.T.);
#959=FACE_BOUND('',#895,.T.);
#960=FACE_BOUND('',#896,.T.);
#961=FACE_BOUND('',#897,.T.);
#962=FACE_BOUND('',#898,.T.);
#963=FACE_BOUND('',#899,.T.);
#964=FACE_BOUND('',#900,.T.);
#965=FACE_BOUND('',#901,.T.);
#966=FACE_BOUND('',#902,.T.);
#967=FACE_BOUND('',#903,.T.);
#968=FACE_BOUND('',#904,.T.);
#969=FACE_BOUND('',#905,.T.);
#970=FACE_BOUND('',#906,.T.);
#971=FACE_BOUND('',#907,.T.);
#972=FACE_BOUND('',#908,.T.);
#973=FACE_BOUND('',#909,.T.);
#974=FACE_BOUND('',#910,.T.);
#975=FACE_BOUND('',#911,.T.);
#976=FACE_BOUND('',#912,.T.);
#977=PLANE('',#1169);
#978=PLANE('',#1170);
#979=PLANE('',#1171);
#980=PLANE('',#1172);
#981=PLANE('',#1173);
#982=PLANE('',#1175);
#983=PLANE('',#1178);
#984=PLANE('',#1180);
#985=PLANE('',#1181);
#986=PLANE('',#1182);
#987=PLANE('',#1183);
#988=PLANE('',#1184);
#989=PLANE('',#1185);
#990=PLANE('',#1187);
#991=PLANE('',#1188);
#992=PLANE('',#1189);
#993=PLANE('',#1190);
#994=PLANE('',#1191);
#995=PLANE('',#1192);
#996=PLANE('',#1194);
#997=PLANE('',#1195);
#998=PLANE('',#1196);
#999=PLANE('',#1197);
#1000=PLANE('',#1198);
#1001=PLANE('',#1199);
#1002=PLANE('',#1201);
#1003=PLANE('',#1202);
#1004=PLANE('',#1203);
#1005=PLANE('',#1204);
#1006=PLANE('',#1205);
#1007=PLANE('',#1206);
#1008=PLANE('',#1208);
#1009=PLANE('',#1209);
#1010=PLANE('',#1210);
#1011=PLANE('',#1211);
#1012=PLANE('',#1212);
#1013=PLANE('',#1213);
#1014=PLANE('',#1214);
#1015=PLANE('',#1215);
#1016=PLANE('',#1216);
#1017=PLANE('',#1217);
#1018=PLANE('',#1218);
#1019=PLANE('',#1219);
#1020=PLANE('',#1220);
#1021=PLANE('',#1221);
#1022=PLANE('',#1222);
#1023=PLANE('',#1223);
#1024=PLANE('',#1224);
#1025=PLANE('',#1225);
#1026=PLANE('',#1226);
#1027=PLANE('',#1227);
#1028=PLANE('',#1228);
#1029=PLANE('',#1229);
#1030=PLANE('',#1230);
#1031=PLANE('',#1231);
#1032=PLANE('',#1232);
#1033=PLANE('',#1233);
#1034=PLANE('',#1234);
#1035=PLANE('',#1235);
#1036=PLANE('',#1236);
#1037=PLANE('',#1237);
#1038=ADVANCED_FACE('',(#913),#977,.T.);
#1039=ADVANCED_FACE('',(#914),#978,.T.);
#1040=ADVANCED_FACE('',(#915),#979,.T.);
#1041=ADVANCED_FACE('',(#916),#980,.T.);
#1042=ADVANCED_FACE('',(#917,#918),#981,.T.);
#1043=ADVANCED_FACE('',(#919),#982,.F.);
#1044=ADVANCED_FACE('',(#920,#921),#22,.F.);
#1045=ADVANCED_FACE('',(#922),#983,.T.);
#1046=ADVANCED_FACE('',(#923),#984,.F.);
#1047=ADVANCED_FACE('',(#924),#985,.T.);
#1048=ADVANCED_FACE('',(#925),#986,.T.);
#1049=ADVANCED_FACE('',(#926),#987,.F.);
#1050=ADVANCED_FACE('',(#927),#988,.F.);
#1051=ADVANCED_FACE('',(#928),#989,.T.);
#1052=ADVANCED_FACE('',(#929),#990,.F.);
#1053=ADVANCED_FACE('',(#930),#991,.T.);
#1054=ADVANCED_FACE('',(#931),#992,.T.);
#1055=ADVANCED_FACE('',(#932),#993,.F.);
#1056=ADVANCED_FACE('',(#933),#994,.F.);
#1057=ADVANCED_FACE('',(#934),#995,.T.);
#1058=ADVANCED_FACE('',(#935),#996,.F.);
#1059=ADVANCED_FACE('',(#936),#997,.T.);
#1060=ADVANCED_FACE('',(#937),#998,.T.);
#1061=ADVANCED_FACE('',(#938),#999,.F.);
#1062=ADVANCED_FACE('',(#939),#1000,.F.);
#1063=ADVANCED_FACE('',(#940),#1001,.T.);
#1064=ADVANCED_FACE('',(#941),#1002,.F.);
#1065=ADVANCED_FACE('',(#942),#1003,.T.);
#1066=ADVANCED_FACE('',(#943),#1004,.T.);
#1067=ADVANCED_FACE('',(#944),#1005,.F.);
#1068=ADVANCED_FACE('',(#945),#1006,.F.);
#1069=ADVANCED_FACE('',(#946),#1007,.T.);
#1070=ADVANCED_FACE('',(#947),#1008,.F.);
#1071=ADVANCED_FACE('',(#948),#1009,.T.);
#1072=ADVANCED_FACE('',(#949),#1010,.F.);
#1073=ADVANCED_FACE('',(#950),#1011,.F.);
#1074=ADVANCED_FACE('',(#951),#1012,.F.);
#1075=ADVANCED_FACE('',(#952),#1013,.F.);
#1076=ADVANCED_FACE('',(#953),#1014,.T.);
#1077=ADVANCED_FACE('',(#954),#1015,.T.);
#1078=ADVANCED_FACE('',(#955),#1016,.F.);
#1079=ADVANCED_FACE('',(#956),#1017,.T.);
#1080=ADVANCED_FACE('',(#957),#1018,.F.);
#1081=ADVANCED_FACE('',(#958),#1019,.T.);
#1082=ADVANCED_FACE('',(#959),#1020,.T.);
#1083=ADVANCED_FACE('',(#960),#1021,.F.);
#1084=ADVANCED_FACE('',(#961),#1022,.F.);
#1085=ADVANCED_FACE('',(#962),#1023,.T.);
#1086=ADVANCED_FACE('',(#963),#1024,.F.);
#1087=ADVANCED_FACE('',(#964),#1025,.F.);
#1088=ADVANCED_FACE('',(#965),#1026,.T.);
#1089=ADVANCED_FACE('',(#966),#1027,.F.);
#1090=ADVANCED_FACE('',(#967),#1028,.T.);
#1091=ADVANCED_FACE('',(#968),#1029,.F.);
#1092=ADVANCED_FACE('',(#969),#1030,.T.);
#1093=ADVANCED_FACE('',(#970),#1031,.F.);
#1094=ADVANCED_FACE('',(#971),#1032,.F.);
#1095=ADVANCED_FACE('',(#972),#1033,.F.);
#1096=ADVANCED_FACE('',(#973),#1034,.T.);
#1097=ADVANCED_FACE('',(#974),#1035,.F.);
#1098=ADVANCED_FACE('',(#975),#1036,.T.);
#1099=ADVANCED_FACE('',(#976),#1037,.T.);
#1100=CLOSED_SHELL('',(#1038,#1039,#1040,#1041,#1042,#1043,#1044,#1045));
#1101=CLOSED_SHELL('',(#1046,#1047,#1048,#1049,#1050,#1051));
#1102=CLOSED_SHELL('',(#1052,#1053,#1054,#1055,#1056,#1057));
#1103=CLOSED_SHELL('',(#1058,#1059,#1060,#1061,#1062,#1063));
#1104=CLOSED_SHELL('',(#1064,#1065,#1066,#1067,#1068,#1069));
#1105=CLOSED_SHELL('',(#1070,#1071,#1072,#1073,#1074,#1075,#1076,#1077,
#1078,#1079,#1080,#1081,#1082,#1083,#1084,#1085,#1086,#1087,#1088,#1089,
#1090,#1091,#1092,#1093,#1094,#1095,#1096,#1097,#1098,#1099));
#1106=STYLED_ITEM('',(#1112),#1150);
#1107=STYLED_ITEM('',(#1113),#1151);
#1108=STYLED_ITEM('',(#1114),#1152);
#1109=STYLED_ITEM('',(#1115),#1153);
#1110=STYLED_ITEM('',(#1116),#1154);
#1111=STYLED_ITEM('',(#1117),#1155);
#1112=PRESENTATION_STYLE_ASSIGNMENT((#1118));
#1113=PRESENTATION_STYLE_ASSIGNMENT((#1119));
#1114=PRESENTATION_STYLE_ASSIGNMENT((#1120));
#1115=PRESENTATION_STYLE_ASSIGNMENT((#1121));
#1116=PRESENTATION_STYLE_ASSIGNMENT((#1122));
#1117=PRESENTATION_STYLE_ASSIGNMENT((#1123));
#1118=SURFACE_STYLE_USAGE(.BOTH.,#1124);
#1119=SURFACE_STYLE_USAGE(.BOTH.,#1125);
#1120=SURFACE_STYLE_USAGE(.BOTH.,#1126);
#1121=SURFACE_STYLE_USAGE(.BOTH.,#1127);
#1122=SURFACE_STYLE_USAGE(.BOTH.,#1128);
#1123=SURFACE_STYLE_USAGE(.BOTH.,#1129);
#1124=SURFACE_SIDE_STYLE('',(#1130));
#1125=SURFACE_SIDE_STYLE('',(#1131));
#1126=SURFACE_SIDE_STYLE('',(#1132));
#1127=SURFACE_SIDE_STYLE('',(#1133));
#1128=SURFACE_SIDE_STYLE('',(#1134));
#1129=SURFACE_SIDE_STYLE('',(#1135));
#1130=SURFACE_STYLE_FILL_AREA(#1136);
#1131=SURFACE_STYLE_FILL_AREA(#1137);
#1132=SURFACE_STYLE_FILL_AREA(#1138);
#1133=SURFACE_STYLE_FILL_AREA(#1139);
#1134=SURFACE_STYLE_FILL_AREA(#1140);
#1135=SURFACE_STYLE_FILL_AREA(#1141);
#1136=FILL_AREA_STYLE('',(#1142));
#1137=FILL_AREA_STYLE('',(#1143));
#1138=FILL_AREA_STYLE('',(#1144));
#1139=FILL_AREA_STYLE('',(#1145));
#1140=FILL_AREA_STYLE('',(#1146));
#1141=FILL_AREA_STYLE('',(#1147));
#1142=FILL_AREA_STYLE_COLOUR('',#1148);
#1143=FILL_AREA_STYLE_COLOUR('',#1149);
#1144=FILL_AREA_STYLE_COLOUR('',#1149);
#1145=FILL_AREA_STYLE_COLOUR('',#1149);
#1146=FILL_AREA_STYLE_COLOUR('',#1149);
#1147=FILL_AREA_STYLE_COLOUR('',#1149);
#1148=COLOUR_RGB('',0.156862745098039,0.156862745098039,0.156862745098039);
#1149=COLOUR_RGB('',0.647058823529412,0.647058823529412,0.647058823529412);
#1150=MANIFOLD_SOLID_BREP('Part 1',#1100);
#1151=MANIFOLD_SOLID_BREP('Part 2',#1101);
#1152=MANIFOLD_SOLID_BREP('Part 3',#1102);
#1153=MANIFOLD_SOLID_BREP('Part 4',#1103);
#1154=MANIFOLD_SOLID_BREP('Part 5',#1104);
#1155=MANIFOLD_SOLID_BREP('Part 6',#1105);
#1156=SHAPE_DEFINITION_REPRESENTATION(#1870,#1162);
#1157=SHAPE_DEFINITION_REPRESENTATION(#1871,#1163);
#1158=SHAPE_DEFINITION_REPRESENTATION(#1872,#1164);
#1159=SHAPE_DEFINITION_REPRESENTATION(#1873,#1165);
#1160=SHAPE_DEFINITION_REPRESENTATION(#1874,#1166);
#1161=SHAPE_DEFINITION_REPRESENTATION(#1875,#1167);
#1162=SHAPE_REPRESENTATION('Part 1',(#1168),#1840);
#1163=SHAPE_REPRESENTATION('Part 2',(#1179),#1841);
#1164=SHAPE_REPRESENTATION('Part 3',(#1186),#1842);
#1165=SHAPE_REPRESENTATION('Part 4',(#1193),#1843);
#1166=SHAPE_REPRESENTATION('Part 5',(#1200),#1844);
#1167=SHAPE_REPRESENTATION('Part 6',(#1207),#1845);
#1168=AXIS2_PLACEMENT_3D('',#1522,#1238,#1239);
#1169=AXIS2_PLACEMENT_3D('',#1523,#1240,#1241);
#1170=AXIS2_PLACEMENT_3D('',#1532,#1246,#1247);
#1171=AXIS2_PLACEMENT_3D('',#1538,#1251,#1252);
#1172=AXIS2_PLACEMENT_3D('',#1544,#1256,#1257);
#1173=AXIS2_PLACEMENT_3D('',#1547,#1260,#1261);
#1174=AXIS2_PLACEMENT_3D('',#1548,#1262,#1263);
#1175=AXIS2_PLACEMENT_3D('',#1550,#1264,#1265);
#1176=AXIS2_PLACEMENT_3D('',#1551,#1266,#1267);
#1177=AXIS2_PLACEMENT_3D('',#1552,#1268,#1269);
#1178=AXIS2_PLACEMENT_3D('',#1554,#1270,#1271);
#1179=AXIS2_PLACEMENT_3D('',#1555,#1272,#1273);
#1180=AXIS2_PLACEMENT_3D('',#1556,#1274,#1275);
#1181=AXIS2_PLACEMENT_3D('',#1565,#1280,#1281);
#1182=AXIS2_PLACEMENT_3D('',#1571,#1285,#1286);
#1183=AXIS2_PLACEMENT_3D('',#1577,#1290,#1291);
#1184=AXIS2_PLACEMENT_3D('',#1580,#1294,#1295);
#1185=AXIS2_PLACEMENT_3D('',#1581,#1296,#1297);
#1186=AXIS2_PLACEMENT_3D('',#1582,#1298,#1299);
#1187=AXIS2_PLACEMENT_3D('',#1583,#1300,#1301);
#1188=AXIS2_PLACEMENT_3D('',#1592,#1306,#1307);
#1189=AXIS2_PLACEMENT_3D('',#1598,#1311,#1312);
#1190=AXIS2_PLACEMENT_3D('',#1604,#1316,#1317);
#1191=AXIS2_PLACEMENT_3D('',#1607,#1320,#1321);
#1192=AXIS2_PLACEMENT_3D('',#1608,#1322,#1323);
#1193=AXIS2_PLACEMENT_3D('',#1609,#1324,#1325);
#1194=AXIS2_PLACEMENT_3D('',#1610,#1326,#1327);
#1195=AXIS2_PLACEMENT_3D('',#1619,#1332,#1333);
#1196=AXIS2_PLACEMENT_3D('',#1625,#1337,#1338);
#1197=AXIS2_PLACEMENT_3D('',#1631,#1342,#1343);
#1198=AXIS2_PLACEMENT_3D('',#1634,#1346,#1347);
#1199=AXIS2_PLACEMENT_3D('',#1635,#1348,#1349);
#1200=AXIS2_PLACEMENT_3D('',#1636,#1350,#1351);
#1201=AXIS2_PLACEMENT_3D('',#1637,#1352,#1353);
#1202=AXIS2_PLACEMENT_3D('',#1646,#1358,#1359);
#1203=AXIS2_PLACEMENT_3D('',#1652,#1363,#1364);
#1204=AXIS2_PLACEMENT_3D('',#1658,#1368,#1369);
#1205=AXIS2_PLACEMENT_3D('',#1661,#1372,#1373);
#1206=AXIS2_PLACEMENT_3D('',#1662,#1374,#1375);
#1207=AXIS2_PLACEMENT_3D('',#1663,#1376,#1377);
#1208=AXIS2_PLACEMENT_3D('',#1664,#1378,#1379);
#1209=AXIS2_PLACEMENT_3D('',#1673,#1384,#1385);
#1210=AXIS2_PLACEMENT_3D('',#1682,#1390,#1391);
#1211=AXIS2_PLACEMENT_3D('',#1691,#1396,#1397);
#1212=AXIS2_PLACEMENT_3D('',#1700,#1402,#1403);
#1213=AXIS2_PLACEMENT_3D('',#1709,#1408,#1409);
#1214=AXIS2_PLACEMENT_3D('',#1718,#1414,#1415);
#1215=AXIS2_PLACEMENT_3D('',#1724,#1419,#1420);
#1216=AXIS2_PLACEMENT_3D('',#1730,#1424,#1425);
#1217=AXIS2_PLACEMENT_3D('',#1765,#1446,#1447);
#1218=AXIS2_PLACEMENT_3D('',#1800,#1468,#1469);
#1219=AXIS2_PLACEMENT_3D('',#1803,#1472,#1473);
#1220=AXIS2_PLACEMENT_3D('',#1804,#1474,#1475);
#1221=AXIS2_PLACEMENT_3D('',#1806,#1477,#1478);
#1222=AXIS2_PLACEMENT_3D('',#1807,#1479,#1480);
#1223=AXIS2_PLACEMENT_3D('',#1810,#1483,#1484);
#1224=AXIS2_PLACEMENT_3D('',#1811,#1485,#1486);
#1225=AXIS2_PLACEMENT_3D('',#1812,#1487,#1488);
#1226=AXIS2_PLACEMENT_3D('',#1815,#1491,#1492);
#1227=AXIS2_PLACEMENT_3D('',#1816,#1493,#1494);
#1228=AXIS2_PLACEMENT_3D('',#1817,#1495,#1496);
#1229=AXIS2_PLACEMENT_3D('',#1819,#1498,#1499);
#1230=AXIS2_PLACEMENT_3D('',#1822,#1502,#1503);
#1231=AXIS2_PLACEMENT_3D('',#1823,#1504,#1505);
#1232=AXIS2_PLACEMENT_3D('',#1824,#1506,#1507);
#1233=AXIS2_PLACEMENT_3D('',#1827,#1510,#1511);
#1234=AXIS2_PLACEMENT_3D('',#1828,#1512,#1513);
#1235=AXIS2_PLACEMENT_3D('',#1829,#1514,#1515);
#1236=AXIS2_PLACEMENT_3D('',#1831,#1517,#1518);
#1237=AXIS2_PLACEMENT_3D('',#1833,#1520,#1521);
#1238=DIRECTION('',(0.,0.,1.));
#1239=DIRECTION('',(1.,0.,0.));
#1240=DIRECTION('',(0.994521895368273,-7.32266756905048E-17,0.104528463267653));
#1241=DIRECTION('',(0.104528463267653,0.,-0.994521895368273));
#1242=DIRECTION('',(-7.36300286917151E-17,-1.,0.));
#1243=DIRECTION('',(-0.103962051184498,-0.103962051184498,0.989132844377854));
#1244=DIRECTION('',(-7.36300286917151E-17,-1.,0.));
#1245=DIRECTION('',(0.103962051184498,-0.103962051184498,-0.989132844377854));
#1246=DIRECTION('',(0.,0.994521895368273,0.104528463267653));
#1247=DIRECTION('',(0.,-0.104528463267653,0.994521895368273));
#1248=DIRECTION('',(1.,0.,0.));
#1249=DIRECTION('',(-0.103962051184498,0.103962051184498,-0.989132844377854));
#1250=DIRECTION('',(1.,0.,0.));
#1251=DIRECTION('',(-0.994521895368273,7.32266756905048E-17,0.104528463267653));
#1252=DIRECTION('',(0.104528463267653,0.,0.994521895368273));
#1253=DIRECTION('',(7.36300286917151E-17,1.,0.));
#1254=DIRECTION('',(0.103962051184498,0.103962051184498,0.989132844377854));
#1255=DIRECTION('',(7.36300286917151E-17,1.,0.));
#1256=DIRECTION('',(0.,-0.994521895368273,0.104528463267653));
#1257=DIRECTION('',(0.,-0.104528463267653,-0.994521895368273));
#1258=DIRECTION('',(-1.,0.,0.));
#1259=DIRECTION('',(-1.,0.,0.));
#1260=DIRECTION('',(0.,0.,1.));
#1261=DIRECTION('',(1.,0.,0.));
#1262=DIRECTION('',(0.,0.,1.));
#1263=DIRECTION('',(1.,0.,0.));
#1264=DIRECTION('',(0.,0.,1.));
#1265=DIRECTION('',(1.,0.,0.));
#1266=DIRECTION('',(0.,0.,1.));
#1267=DIRECTION('',(1.,0.,0.));
#1268=DIRECTION('',(0.,0.,1.));
#1269=DIRECTION('',(1.,0.,0.));
#1270=DIRECTION('',(0.,0.,1.));
#1271=DIRECTION('',(1.,0.,0.));
#1272=DIRECTION('',(0.,0.,1.));
#1273=DIRECTION('',(1.,0.,0.));
#1274=DIRECTION('',(0.,1.,0.));
#1275=DIRECTION('',(0.,0.,1.));
#1276=DIRECTION('',(1.,0.,0.));
#1277=DIRECTION('',(0.,0.,-1.));
#1278=DIRECTION('',(1.,0.,0.));
#1279=DIRECTION('',(0.,0.,-1.));
#1280=DIRECTION('',(-1.,0.,0.));
#1281=DIRECTION('',(0.,0.,1.));
#1282=DIRECTION('',(0.,1.,0.));
#1283=DIRECTION('',(0.,1.,0.));
#1284=DIRECTION('',(0.,0.,-1.));
#1285=DIRECTION('',(0.,1.,0.));
#1286=DIRECTION('',(0.,0.,1.));
#1287=DIRECTION('',(1.,0.,0.));
#1288=DIRECTION('',(1.,0.,0.));
#1289=DIRECTION('',(0.,0.,-1.));
#1290=DIRECTION('',(-1.,0.,0.));
#1291=DIRECTION('',(0.,0.,1.));
#1292=DIRECTION('',(0.,1.,0.));
#1293=DIRECTION('',(0.,1.,0.));
#1294=DIRECTION('',(0.,0.,-1.));
#1295=DIRECTION('',(1.,0.,0.));
#1296=DIRECTION('',(0.,0.,-1.));
#1297=DIRECTION('',(1.,0.,0.));
#1298=DIRECTION('',(0.,0.,1.));
#1299=DIRECTION('',(1.,0.,0.));
#1300=DIRECTION('',(0.,1.,0.));
#1301=DIRECTION('',(0.,0.,1.));
#1302=DIRECTION('',(1.,0.,0.));
#1303=DIRECTION('',(0.,0.,-1.));
#1304=DIRECTION('',(1.,0.,0.));
#1305=DIRECTION('',(0.,0.,-1.));
#1306=DIRECTION('',(-1.,0.,0.));
#1307=DIRECTION('',(0.,0.,1.));
#1308=DIRECTION('',(0.,1.,0.));
#1309=DIRECTION('',(0.,1.,0.));
#1310=DIRECTION('',(0.,0.,-1.));
#1311=DIRECTION('',(0.,1.,0.));
#1312=DIRECTION('',(0.,0.,1.));
#1313=DIRECTION('',(1.,0.,0.));
#1314=DIRECTION('',(1.,0.,0.));
#1315=DIRECTION('',(0.,0.,-1.));
#1316=DIRECTION('',(-1.,0.,0.));
#1317=DIRECTION('',(0.,0.,1.));
#1318=DIRECTION('',(0.,1.,0.));
#1319=DIRECTION('',(0.,1.,0.));
#1320=DIRECTION('',(0.,0.,-1.));
#1321=DIRECTION('',(1.,0.,0.));
#1322=DIRECTION('',(0.,0.,-1.));
#1323=DIRECTION('',(1.,0.,0.));
#1324=DIRECTION('',(0.,0.,1.));
#1325=DIRECTION('',(1.,0.,0.));
#1326=DIRECTION('',(0.,1.,0.));
#1327=DIRECTION('',(0.,0.,1.));
#1328=DIRECTION('',(1.,0.,0.));
#1329=DIRECTION('',(0.,0.,-1.));
#1330=DIRECTION('',(1.,0.,0.));
#1331=DIRECTION('',(0.,0.,-1.));
#1332=DIRECTION('',(-1.,0.,0.));
#1333=DIRECTION('',(0.,0.,1.));
#1334=DIRECTION('',(0.,1.,0.));
#1335=DIRECTION('',(0.,1.,0.));
#1336=DIRECTION('',(0.,0.,-1.));
#1337=DIRECTION('',(0.,1.,0.));
#1338=DIRECTION('',(0.,0.,1.));
#1339=DIRECTION('',(1.,0.,0.));
#1340=DIRECTION('',(1.,0.,0.));
#1341=DIRECTION('',(0.,0.,-1.));
#1342=DIRECTION('',(-1.,0.,0.));
#1343=DIRECTION('',(0.,0.,1.));
#1344=DIRECTION('',(0.,1.,0.));
#1345=DIRECTION('',(0.,1.,0.));
#1346=DIRECTION('',(0.,0.,-1.));
#1347=DIRECTION('',(1.,0.,0.));
#1348=DIRECTION('',(0.,0.,-1.));
#1349=DIRECTION('',(1.,0.,0.));
#1350=DIRECTION('',(0.,0.,1.));
#1351=DIRECTION('',(1.,0.,0.));
#1352=DIRECTION('',(0.,1.,0.));
#1353=DIRECTION('',(0.,0.,1.));
#1354=DIRECTION('',(1.,0.,0.));
#1355=DIRECTION('',(0.,0.,-1.));
#1356=DIRECTION('',(1.,0.,0.));
#1357=DIRECTION('',(0.,0.,-1.));
#1358=DIRECTION('',(-1.,0.,0.));
#1359=DIRECTION('',(0.,0.,1.));
#1360=DIRECTION('',(0.,1.,0.));
#1361=DIRECTION('',(0.,1.,0.));
#1362=DIRECTION('',(0.,0.,-1.));
#1363=DIRECTION('',(0.,1.,0.));
#1364=DIRECTION('',(0.,0.,1.));
#1365=DIRECTION('',(1.,0.,0.));
#1366=DIRECTION('',(1.,0.,0.));
#1367=DIRECTION('',(0.,0.,-1.));
#1368=DIRECTION('',(-1.,0.,0.));
#1369=DIRECTION('',(0.,0.,1.));
#1370=DIRECTION('',(0.,1.,0.));
#1371=DIRECTION('',(0.,1.,0.));
#1372=DIRECTION('',(0.,0.,-1.));
#1373=DIRECTION('',(1.,0.,0.));
#1374=DIRECTION('',(0.,0.,-1.));
#1375=DIRECTION('',(1.,0.,0.));
#1376=DIRECTION('',(0.,0.,1.));
#1377=DIRECTION('',(1.,0.,0.));
#1378=DIRECTION('',(-1.,-1.18492040708798E-16,0.));
#1379=DIRECTION('',(1.18492040708798E-16,-1.,0.));
#1380=DIRECTION('',(0.,0.,1.));
#1381=DIRECTION('',(-1.18492040708798E-16,1.,0.));
#1382=DIRECTION('',(0.,0.,-1.));
#1383=DIRECTION('',(-1.18492040708798E-16,1.,0.));
#1384=DIRECTION('',(-1.,3.55476122126395E-16,0.));
#1385=DIRECTION('',(-3.55476122126395E-16,-1.,0.));
#1386=DIRECTION('',(3.55476122126395E-16,1.,0.));
#1387=DIRECTION('',(0.,0.,1.));
#1388=DIRECTION('',(3.55476122126395E-16,1.,0.));
#1389=DIRECTION('',(0.,0.,-1.));
#1390=DIRECTION('',(-2.30681313294788E-16,-1.,0.));
#1391=DIRECTION('',(1.,-2.30681313294788E-16,0.));
#1392=DIRECTION('',(0.,0.,-1.));
#1393=DIRECTION('',(-1.,2.30681313294788E-16,0.));
#1394=DIRECTION('',(0.,0.,-1.));
#1395=DIRECTION('',(-1.,2.30681313294788E-16,0.));
#1396=DIRECTION('',(-2.30681313294788E-16,-1.,0.));
#1397=DIRECTION('',(1.,-2.30681313294788E-16,0.));
#1398=DIRECTION('',(0.,0.,-1.));
#1399=DIRECTION('',(-1.,2.30681313294788E-16,0.));
#1400=DIRECTION('',(0.,0.,-1.));
#1401=DIRECTION('',(-1.,2.30681313294788E-16,0.));
#1402=DIRECTION('',(-2.30681313294788E-16,-1.,0.));
#1403=DIRECTION('',(1.,-2.30681313294788E-16,0.));
#1404=DIRECTION('',(0.,0.,-1.));
#1405=DIRECTION('',(-1.,2.30681313294788E-16,0.));
#1406=DIRECTION('',(0.,0.,-1.));
#1407=DIRECTION('',(-1.,2.30681313294788E-16,0.));
#1408=DIRECTION('',(-1.,-1.18492040708798E-16,0.));
#1409=DIRECTION('',(1.18492040708798E-16,-1.,0.));
#1410=DIRECTION('',(-1.18492040708798E-16,1.,0.));
#1411=DIRECTION('',(0.,0.,1.));
#1412=DIRECTION('',(-1.18492040708798E-16,1.,0.));
#1413=DIRECTION('',(0.,0.,-1.));
#1414=DIRECTION('',(-1.15340656647394E-16,-1.,0.));
#1415=DIRECTION('',(1.,-1.15340656647394E-16,0.));
#1416=DIRECTION('',(-1.,1.15340656647394E-16,0.));
#1417=DIRECTION('',(-1.,1.15340656647394E-16,0.));
#1418=DIRECTION('',(0.,0.,-1.));
#1419=DIRECTION('',(-1.,3.55476122126395E-16,0.));
#1420=DIRECTION('',(-3.55476122126395E-16,-1.,0.));
#1421=DIRECTION('',(0.,0.,1.));
#1422=DIRECTION('',(3.55476122126395E-16,1.,0.));
#1423=DIRECTION('',(3.55476122126395E-16,1.,0.));
#1424=DIRECTION('',(0.,0.,-1.));
#1425=DIRECTION('',(1.,0.,0.));
#1426=DIRECTION('',(-1.,1.26314816211903E-16,0.));
#1427=DIRECTION('',(0.,-1.,0.));
#1428=DIRECTION('',(-1.,1.26314816211903E-16,0.));
#1429=DIRECTION('',(1.,0.,0.));
#1430=DIRECTION('',(0.,-1.,0.));
#1431=DIRECTION('',(1.,0.,0.));
#1432=DIRECTION('',(0.,-1.,0.));
#1433=DIRECTION('',(0.,-1.,0.));
#1434=DIRECTION('',(1.,0.,0.));
#1435=DIRECTION('',(0.,-1.,0.));
#1436=DIRECTION('',(0.,-1.,0.));
#1437=DIRECTION('',(1.,0.,0.));
#1438=DIRECTION('',(0.,-1.,0.));
#1439=DIRECTION('',(0.,-1.,0.));
#1440=DIRECTION('',(1.,0.,0.));
#1441=DIRECTION('',(0.,-1.,0.));
#1442=DIRECTION('',(1.,0.,0.));
#1443=DIRECTION('',(-1.,1.26314816211903E-16,0.));
#1444=DIRECTION('',(0.,-1.,0.));
#1445=DIRECTION('',(-1.,1.26314816211903E-16,0.));
#1446=DIRECTION('',(0.,0.,-1.));
#1447=DIRECTION('',(1.,0.,0.));
#1448=DIRECTION('',(-1.,1.26314816211903E-16,0.));
#1449=DIRECTION('',(0.,-1.,0.));
#1450=DIRECTION('',(-1.,1.26314816211903E-16,0.));
#1451=DIRECTION('',(1.,0.,0.));
#1452=DIRECTION('',(0.,-1.,0.));
#1453=DIRECTION('',(1.,0.,0.));
#1454=DIRECTION('',(0.,-1.,0.));
#1455=DIRECTION('',(0.,-1.,0.));
#1456=DIRECTION('',(1.,0.,0.));
#1457=DIRECTION('',(0.,-1.,0.));
#1458=DIRECTION('',(0.,-1.,0.));
#1459=DIRECTION('',(1.,0.,0.));
#1460=DIRECTION('',(0.,-1.,0.));
#1461=DIRECTION('',(0.,-1.,0.));
#1462=DIRECTION('',(1.,0.,0.));
#1463=DIRECTION('',(0.,-1.,0.));
#1464=DIRECTION('',(1.,0.,0.));
#1465=DIRECTION('',(-1.,1.26314816211903E-16,0.));
#1466=DIRECTION('',(0.,-1.,0.));
#1467=DIRECTION('',(-1.,1.26314816211903E-16,0.));
#1468=DIRECTION('',(0.,-1.,0.));
#1469=DIRECTION('',(0.,0.,1.));
#1470=DIRECTION('',(0.,0.,-1.));
#1471=DIRECTION('',(0.,0.,-1.));
#1472=DIRECTION('',(-1.,0.,0.));
#1473=DIRECTION('',(0.,0.,1.));
#1474=DIRECTION('',(0.,-1.,0.));
#1475=DIRECTION('',(0.,0.,1.));
#1476=DIRECTION('',(0.,0.,-1.));
#1477=DIRECTION('',(-1.,0.,0.));
#1478=DIRECTION('',(0.,0.,1.));
#1479=DIRECTION('',(0.,-1.,0.));
#1480=DIRECTION('',(0.,0.,1.));
#1481=DIRECTION('',(0.,0.,-1.));
#1482=DIRECTION('',(0.,0.,-1.));
#1483=DIRECTION('',(-1.,0.,0.));
#1484=DIRECTION('',(0.,0.,1.));
#1485=DIRECTION('',(-1.,0.,0.));
#1486=DIRECTION('',(0.,0.,1.));
#1487=DIRECTION('',(0.,-1.,0.));
#1488=DIRECTION('',(0.,0.,1.));
#1489=DIRECTION('',(0.,0.,-1.));
#1490=DIRECTION('',(0.,0.,-1.));
#1491=DIRECTION('',(-1.,0.,0.));
#1492=DIRECTION('',(0.,0.,1.));
#1493=DIRECTION('',(-1.,0.,0.));
#1494=DIRECTION('',(0.,0.,1.));
#1495=DIRECTION('',(0.,-1.,0.));
#1496=DIRECTION('',(0.,0.,1.));
#1497=DIRECTION('',(0.,0.,-1.));
#1498=DIRECTION('',(0.,-1.,0.));
#1499=DIRECTION('',(0.,0.,1.));
#1500=DIRECTION('',(0.,0.,-1.));
#1501=DIRECTION('',(0.,0.,-1.));
#1502=DIRECTION('',(-1.,0.,0.));
#1503=DIRECTION('',(0.,0.,1.));
#1504=DIRECTION('',(-1.,0.,0.));
#1505=DIRECTION('',(0.,0.,1.));
#1506=DIRECTION('',(1.,0.,0.));
#1507=DIRECTION('',(0.,0.,-1.));
#1508=DIRECTION('',(0.,0.,-1.));
#1509=DIRECTION('',(0.,0.,-1.));
#1510=DIRECTION('',(-1.26314816211903E-16,-1.,0.));
#1511=DIRECTION('',(1.,-1.26314816211903E-16,0.));
#1512=DIRECTION('',(-1.26314816211903E-16,-1.,0.));
#1513=DIRECTION('',(1.,-1.26314816211903E-16,0.));
#1514=DIRECTION('',(-1.26314816211903E-16,-1.,0.));
#1515=DIRECTION('',(1.,-1.26314816211903E-16,0.));
#1516=DIRECTION('',(0.,0.,-1.));
#1517=DIRECTION('',(-1.26314816211903E-16,-1.,0.));
#1518=DIRECTION('',(1.,-1.26314816211903E-16,0.));
#1519=DIRECTION('',(0.,0.,-1.));
#1520=DIRECTION('',(1.,0.,0.));
#1521=DIRECTION('',(0.,0.,-1.));
#1522=CARTESIAN_POINT('',(0.,0.,0.));
#1523=CARTESIAN_POINT('',(0.00245,0.002945,0.));
#1524=CARTESIAN_POINT('',(0.00245,0.002945,0.));
#1525=CARTESIAN_POINT('',(0.00245,0.002945,0.));
#1526=CARTESIAN_POINT('',(0.00245,-0.002945,0.));
#1527=CARTESIAN_POINT('',(0.00245,0.002945,0.));
#1528=CARTESIAN_POINT('',(0.00234489576473432,0.00283989576473432,0.001));
#1529=CARTESIAN_POINT('',(0.00234489576473432,0.002945,0.001));
#1530=CARTESIAN_POINT('',(0.00234489576473432,-0.00283989576473432,0.001));
#1531=CARTESIAN_POINT('',(0.00238634024337059,-0.00288134024337058,0.000605682125639367));
#1532=CARTESIAN_POINT('',(0.,0.002945,0.));
#1533=CARTESIAN_POINT('',(0.,0.002945,0.));
#1534=CARTESIAN_POINT('',(-0.00245,0.002945,0.));
#1535=CARTESIAN_POINT('',(-0.00245,0.002945,0.));
#1536=CARTESIAN_POINT('',(-0.00234489576473432,0.00283989576473432,0.001));
#1537=CARTESIAN_POINT('',(0.,0.00283989576473432,0.001));
#1538=CARTESIAN_POINT('',(-0.00245,0.002945,0.));
#1539=CARTESIAN_POINT('',(-0.00245,0.002945,0.));
#1540=CARTESIAN_POINT('',(-0.00245,-0.002945,0.));
#1541=CARTESIAN_POINT('',(-0.00238634024337059,-0.00288134024337058,0.000605682125639367));
#1542=CARTESIAN_POINT('',(-0.00234489576473432,-0.00283989576473432,0.001));
#1543=CARTESIAN_POINT('',(-0.00234489576473432,0.002945,0.001));
#1544=CARTESIAN_POINT('',(0.,-0.002945,0.));
#1545=CARTESIAN_POINT('',(0.,-0.002945,0.));
#1546=CARTESIAN_POINT('',(0.,-0.00283989576473432,0.001));
#1547=CARTESIAN_POINT('',(0.,0.,0.001));
#1548=CARTESIAN_POINT('',(-0.00161018397398321,-0.00189966175041655,0.001));
#1549=CARTESIAN_POINT('',(-0.00136606104930639,-0.00189966175041655,0.001));
#1550=CARTESIAN_POINT('',(0.,0.,0.));
#1551=CARTESIAN_POINT('',(-0.00161018397398321,-0.00189966175041655,0.00095));
#1552=CARTESIAN_POINT('',(-0.00161018397398321,-0.00189966175041655,0.00095));
#1553=CARTESIAN_POINT('',(-0.00136606104930639,-0.00189966175041655,0.00095));
#1554=CARTESIAN_POINT('',(0.,0.,0.00095));
#1555=CARTESIAN_POINT('',(0.,0.,0.));
#1556=CARTESIAN_POINT('',(0.001905,-0.003075,0.00024));
#1557=CARTESIAN_POINT('',(0.001905,-0.003075,-4.E-5));
#1558=CARTESIAN_POINT('',(0.0017,-0.003075,-4.E-5));
#1559=CARTESIAN_POINT('',(0.00211,-0.003075,-4.E-5));
#1560=CARTESIAN_POINT('',(0.00211,-0.003075,0.00024));
#1561=CARTESIAN_POINT('',(0.00211,-0.003075,0.00024));
#1562=CARTESIAN_POINT('',(0.001905,-0.003075,0.00024));
#1563=CARTESIAN_POINT('',(0.0017,-0.003075,0.00024));
#1564=CARTESIAN_POINT('',(0.0017,-0.003075,0.00024));
#1565=CARTESIAN_POINT('',(0.0017,-0.00277,0.00024));
#1566=CARTESIAN_POINT('',(0.0017,-0.00277,-4.E-5));
#1567=CARTESIAN_POINT('',(0.0017,-0.002465,-4.E-5));
#1568=CARTESIAN_POINT('',(0.0017,-0.00277,0.00024));
#1569=CARTESIAN_POINT('',(0.0017,-0.002465,0.00024));
#1570=CARTESIAN_POINT('',(0.0017,-0.002465,0.00024));
#1571=CARTESIAN_POINT('',(0.001905,-0.002465,0.00024));
#1572=CARTESIAN_POINT('',(0.001905,-0.002465,-4.E-5));
#1573=CARTESIAN_POINT('',(0.00211,-0.002465,-4.E-5));
#1574=CARTESIAN_POINT('',(0.001905,-0.002465,0.00024));
#1575=CARTESIAN_POINT('',(0.00211,-0.002465,0.00024));
#1576=CARTESIAN_POINT('',(0.00211,-0.002465,0.00024));
#1577=CARTESIAN_POINT('',(0.00211,-0.00277,0.00024));
#1578=CARTESIAN_POINT('',(0.00211,-0.00277,-4.E-5));
#1579=CARTESIAN_POINT('',(0.00211,-0.00277,0.00024));
#1580=CARTESIAN_POINT('',(0.,-6.5E-5,0.00024));
#1581=CARTESIAN_POINT('',(0.,-6.5E-5,-4.E-5));
#1582=CARTESIAN_POINT('',(0.,0.,0.));
#1583=CARTESIAN_POINT('',(0.000635,-0.003075,0.00024));
#1584=CARTESIAN_POINT('',(0.000635,-0.003075,-4.E-5));
#1585=CARTESIAN_POINT('',(0.00043,-0.003075,-4.E-5));
#1586=CARTESIAN_POINT('',(0.00084,-0.003075,-4.E-5));
#1587=CARTESIAN_POINT('',(0.00084,-0.003075,0.00024));
#1588=CARTESIAN_POINT('',(0.00084,-0.003075,0.00024));
#1589=CARTESIAN_POINT('',(0.000635,-0.003075,0.00024));
#1590=CARTESIAN_POINT('',(0.00043,-0.003075,0.00024));
#1591=CARTESIAN_POINT('',(0.00043,-0.003075,0.00024));
#1592=CARTESIAN_POINT('',(0.00043,-0.00277,0.00024));
#1593=CARTESIAN_POINT('',(0.00043,-0.00277,-4.E-5));
#1594=CARTESIAN_POINT('',(0.00043,-0.002465,-4.E-5));
#1595=CARTESIAN_POINT('',(0.00043,-0.00277,0.00024));
#1596=CARTESIAN_POINT('',(0.00043,-0.002465,0.00024));
#1597=CARTESIAN_POINT('',(0.00043,-0.002465,0.00024));
#1598=CARTESIAN_POINT('',(0.000635,-0.002465,0.00024));
#1599=CARTESIAN_POINT('',(0.000635,-0.002465,-4.E-5));
#1600=CARTESIAN_POINT('',(0.00084,-0.002465,-4.E-5));
#1601=CARTESIAN_POINT('',(0.000635,-0.002465,0.00024));
#1602=CARTESIAN_POINT('',(0.00084,-0.002465,0.00024));
#1603=CARTESIAN_POINT('',(0.00084,-0.002465,0.00024));
#1604=CARTESIAN_POINT('',(0.00084,-0.00277,0.00024));
#1605=CARTESIAN_POINT('',(0.00084,-0.00277,-4.E-5));
#1606=CARTESIAN_POINT('',(0.00084,-0.00277,0.00024));
#1607=CARTESIAN_POINT('',(-0.00127,-6.5E-5,0.00024));
#1608=CARTESIAN_POINT('',(-0.00127,-6.5E-5,-4.E-5));
#1609=CARTESIAN_POINT('',(0.,0.,0.));
#1610=CARTESIAN_POINT('',(-0.000635,-0.003075,0.00024));
#1611=CARTESIAN_POINT('',(-0.000635,-0.003075,-4.E-5));
#1612=CARTESIAN_POINT('',(-0.00084,-0.003075,-4.E-5));
#1613=CARTESIAN_POINT('',(-0.00043,-0.003075,-4.E-5));
#1614=CARTESIAN_POINT('',(-0.00043,-0.003075,0.00024));
#1615=CARTESIAN_POINT('',(-0.00043,-0.003075,0.00024));
#1616=CARTESIAN_POINT('',(-0.000635,-0.003075,0.00024));
#1617=CARTESIAN_POINT('',(-0.00084,-0.003075,0.00024));
#1618=CARTESIAN_POINT('',(-0.00084,-0.003075,0.00024));
#1619=CARTESIAN_POINT('',(-0.00084,-0.00277,0.00024));
#1620=CARTESIAN_POINT('',(-0.00084,-0.00277,-4.E-5));
#1621=CARTESIAN_POINT('',(-0.00084,-0.002465,-4.E-5));
#1622=CARTESIAN_POINT('',(-0.00084,-0.00277,0.00024));
#1623=CARTESIAN_POINT('',(-0.00084,-0.002465,0.00024));
#1624=CARTESIAN_POINT('',(-0.00084,-0.002465,0.00024));
#1625=CARTESIAN_POINT('',(-0.000635,-0.002465,0.00024));
#1626=CARTESIAN_POINT('',(-0.000635,-0.002465,-4.E-5));
#1627=CARTESIAN_POINT('',(-0.00043,-0.002465,-4.E-5));
#1628=CARTESIAN_POINT('',(-0.000635,-0.002465,0.00024));
#1629=CARTESIAN_POINT('',(-0.00043,-0.002465,0.00024));
#1630=CARTESIAN_POINT('',(-0.00043,-0.002465,0.00024));
#1631=CARTESIAN_POINT('',(-0.00043,-0.00277,0.00024));
#1632=CARTESIAN_POINT('',(-0.00043,-0.00277,-4.E-5));
#1633=CARTESIAN_POINT('',(-0.00043,-0.00277,0.00024));
#1634=CARTESIAN_POINT('',(-0.00254,-6.5E-5,0.00024));
#1635=CARTESIAN_POINT('',(-0.00254,-6.5E-5,-4.E-5));
#1636=CARTESIAN_POINT('',(0.,0.,0.));
#1637=CARTESIAN_POINT('',(-0.001905,-0.003075,0.00024));
#1638=CARTESIAN_POINT('',(-0.001905,-0.003075,-4.E-5));
#1639=CARTESIAN_POINT('',(-0.00211,-0.003075,-4.E-5));
#1640=CARTESIAN_POINT('',(-0.0017,-0.003075,-4.E-5));
#1641=CARTESIAN_POINT('',(-0.0017,-0.003075,0.00024));
#1642=CARTESIAN_POINT('',(-0.0017,-0.003075,0.00024));
#1643=CARTESIAN_POINT('',(-0.001905,-0.003075,0.00024));
#1644=CARTESIAN_POINT('',(-0.00211,-0.003075,0.00024));
#1645=CARTESIAN_POINT('',(-0.00211,-0.003075,0.00024));
#1646=CARTESIAN_POINT('',(-0.00211,-0.00277,0.00024));
#1647=CARTESIAN_POINT('',(-0.00211,-0.00277,-4.E-5));
#1648=CARTESIAN_POINT('',(-0.00211,-0.002465,-4.E-5));
#1649=CARTESIAN_POINT('',(-0.00211,-0.00277,0.00024));
#1650=CARTESIAN_POINT('',(-0.00211,-0.002465,0.00024));
#1651=CARTESIAN_POINT('',(-0.00211,-0.002465,0.00024));
#1652=CARTESIAN_POINT('',(-0.001905,-0.002465,0.00024));
#1653=CARTESIAN_POINT('',(-0.001905,-0.002465,-4.E-5));
#1654=CARTESIAN_POINT('',(-0.0017,-0.002465,-4.E-5));
#1655=CARTESIAN_POINT('',(-0.001905,-0.002465,0.00024));
#1656=CARTESIAN_POINT('',(-0.0017,-0.002465,0.00024));
#1657=CARTESIAN_POINT('',(-0.0017,-0.002465,0.00024));
#1658=CARTESIAN_POINT('',(-0.0017,-0.00277,0.00024));
#1659=CARTESIAN_POINT('',(-0.0017,-0.00277,-4.E-5));
#1660=CARTESIAN_POINT('',(-0.0017,-0.00277,0.00024));
#1661=CARTESIAN_POINT('',(-0.00381,-6.5E-5,0.00024));
#1662=CARTESIAN_POINT('',(-0.00381,-6.5E-5,-4.E-5));
#1663=CARTESIAN_POINT('',(0.,0.,0.));
#1664=CARTESIAN_POINT('',(0.00188,0.000635,0.00024));
#1665=CARTESIAN_POINT('',(0.00188,-0.000445,0.00024));
#1666=CARTESIAN_POINT('',(0.00188,-0.000445,-4.E-5));
#1667=CARTESIAN_POINT('',(0.00188,-0.000445,0.00024));
#1668=CARTESIAN_POINT('',(0.00188,0.000635,-4.E-5));
#1669=CARTESIAN_POINT('',(0.00188,0.002465,-4.E-5));
#1670=CARTESIAN_POINT('',(0.00188,0.002465,0.00024));
#1671=CARTESIAN_POINT('',(0.00188,0.002465,0.00024));
#1672=CARTESIAN_POINT('',(0.00188,0.000635,0.00024));
#1673=CARTESIAN_POINT('',(-0.00188,0.000635,0.00024));
#1674=CARTESIAN_POINT('',(-0.00188,0.000635,-4.E-5));
#1675=CARTESIAN_POINT('',(-0.00188,-0.000445,-4.E-5));
#1676=CARTESIAN_POINT('',(-0.00188,0.002465,-4.E-5));
#1677=CARTESIAN_POINT('',(-0.00188,-0.000445,0.00024));
#1678=CARTESIAN_POINT('',(-0.00188,-0.000445,0.00024));
#1679=CARTESIAN_POINT('',(-0.00188,0.000635,0.00024));
#1680=CARTESIAN_POINT('',(-0.00188,0.002465,0.00024));
#1681=CARTESIAN_POINT('',(-0.00188,0.002465,0.00024));
#1682=CARTESIAN_POINT('',(-2.16840434497101E-19,0.002465,0.00024));
#1683=CARTESIAN_POINT('',(-0.0017,0.002465,0.00024));
#1684=CARTESIAN_POINT('',(-0.0017,0.002465,0.00024));
#1685=CARTESIAN_POINT('',(-0.0017,0.002465,-4.E-5));
#1686=CARTESIAN_POINT('',(-2.16840434497101E-19,0.002465,0.00024));
#1687=CARTESIAN_POINT('',(-0.00084,0.002465,0.00024));
#1688=CARTESIAN_POINT('',(-0.00084,0.002465,0.00024));
#1689=CARTESIAN_POINT('',(-0.00084,0.002465,-4.E-5));
#1690=CARTESIAN_POINT('',(-2.16840434497101E-19,0.002465,-4.E-5));
#1691=CARTESIAN_POINT('',(-2.16840434497101E-19,0.002465,0.00024));
#1692=CARTESIAN_POINT('',(-0.00043,0.002465,0.00024));
#1693=CARTESIAN_POINT('',(-0.00043,0.002465,0.00024));
#1694=CARTESIAN_POINT('',(-0.00043,0.002465,-4.E-5));
#1695=CARTESIAN_POINT('',(-2.16840434497101E-19,0.002465,0.00024));
#1696=CARTESIAN_POINT('',(0.00043,0.002465,0.00024));
#1697=CARTESIAN_POINT('',(0.00043,0.002465,0.00024));
#1698=CARTESIAN_POINT('',(0.00043,0.002465,-4.E-5));
#1699=CARTESIAN_POINT('',(-2.16840434497101E-19,0.002465,-4.E-5));
#1700=CARTESIAN_POINT('',(-2.16840434497101E-19,0.002465,0.00024));
#1701=CARTESIAN_POINT('',(0.00084,0.002465,0.00024));
#1702=CARTESIAN_POINT('',(0.00084,0.002465,0.00024));
#1703=CARTESIAN_POINT('',(0.00084,0.002465,-4.E-5));
#1704=CARTESIAN_POINT('',(-2.16840434497101E-19,0.002465,0.00024));
#1705=CARTESIAN_POINT('',(0.0017,0.002465,0.00024));
#1706=CARTESIAN_POINT('',(0.0017,0.002465,0.00024));
#1707=CARTESIAN_POINT('',(0.0017,0.002465,-4.E-5));
#1708=CARTESIAN_POINT('',(-2.16840434497101E-19,0.002465,-4.E-5));
#1709=CARTESIAN_POINT('',(0.00188,0.000635,0.00024));
#1710=CARTESIAN_POINT('',(0.00188,0.000635,-4.E-5));
#1711=CARTESIAN_POINT('',(0.00188,-0.001195,-4.E-5));
#1712=CARTESIAN_POINT('',(0.00188,-0.000695,-4.E-5));
#1713=CARTESIAN_POINT('',(0.00188,-0.000695,0.00024));
#1714=CARTESIAN_POINT('',(0.00188,-0.000695,0.00024));
#1715=CARTESIAN_POINT('',(0.00188,0.000635,0.00024));
#1716=CARTESIAN_POINT('',(0.00188,-0.001195,0.00024));
#1717=CARTESIAN_POINT('',(0.00188,-0.001195,0.00024));
#1718=CARTESIAN_POINT('',(-1.51788304147971E-18,-0.001195,0.00024));
#1719=CARTESIAN_POINT('',(-1.51788304147971E-18,-0.001195,-4.E-5));
#1720=CARTESIAN_POINT('',(-0.00188,-0.001195,-4.E-5));
#1721=CARTESIAN_POINT('',(-1.51788304147971E-18,-0.001195,0.00024));
#1722=CARTESIAN_POINT('',(-0.00188,-0.001195,0.00024));
#1723=CARTESIAN_POINT('',(-0.00188,-0.001195,0.00024));
#1724=CARTESIAN_POINT('',(-0.00188,0.000635,0.00024));
#1725=CARTESIAN_POINT('',(-0.00188,-0.000695,0.00024));
#1726=CARTESIAN_POINT('',(-0.00188,-0.000695,-4.E-5));
#1727=CARTESIAN_POINT('',(-0.00188,-0.000695,0.00024));
#1728=CARTESIAN_POINT('',(-0.00188,0.000635,-4.E-5));
#1729=CARTESIAN_POINT('',(-0.00188,0.000635,0.00024));
#1730=CARTESIAN_POINT('',(0.,0.,0.00024));
#1731=CARTESIAN_POINT('',(0.,-0.000695,0.00024));
#1732=CARTESIAN_POINT('',(0.002575,-0.000695,0.00024));
#1733=CARTESIAN_POINT('',(0.002575,-0.00057,0.00024));
#1734=CARTESIAN_POINT('',(0.002575,-0.000445,0.00024));
#1735=CARTESIAN_POINT('',(0.,-0.000445,0.00024));
#1736=CARTESIAN_POINT('',(0.001905,0.002465,0.00024));
#1737=CARTESIAN_POINT('',(0.00211,0.002465,0.00024));
#1738=CARTESIAN_POINT('',(0.00211,0.00277,0.00024));
#1739=CARTESIAN_POINT('',(0.00211,0.003075,0.00024));
#1740=CARTESIAN_POINT('',(0.001905,0.003075,0.00024));
#1741=CARTESIAN_POINT('',(0.0017,0.003075,0.00024));
#1742=CARTESIAN_POINT('',(0.0017,0.00277,0.00024));
#1743=CARTESIAN_POINT('',(0.00084,0.00277,0.00024));
#1744=CARTESIAN_POINT('',(0.00084,0.003075,0.00024));
#1745=CARTESIAN_POINT('',(0.000635,0.003075,0.00024));
#1746=CARTESIAN_POINT('',(0.00043,0.003075,0.00024));
#1747=CARTESIAN_POINT('',(0.00043,0.00277,0.00024));
#1748=CARTESIAN_POINT('',(-0.00043,0.00277,0.00024));
#1749=CARTESIAN_POINT('',(-0.00043,0.003075,0.00024));
#1750=CARTESIAN_POINT('',(-0.000635,0.003075,0.00024));
#1751=CARTESIAN_POINT('',(-0.00084,0.003075,0.00024));
#1752=CARTESIAN_POINT('',(-0.00084,0.00277,0.00024));
#1753=CARTESIAN_POINT('',(-0.0017,0.00277,0.00024));
#1754=CARTESIAN_POINT('',(-0.0017,0.003075,0.00024));
#1755=CARTESIAN_POINT('',(-0.001905,0.003075,0.00024));
#1756=CARTESIAN_POINT('',(-0.00211,0.003075,0.00024));
#1757=CARTESIAN_POINT('',(-0.00211,0.00277,0.00024));
#1758=CARTESIAN_POINT('',(-0.00211,0.002465,0.00024));
#1759=CARTESIAN_POINT('',(-0.001905,0.002465,0.00024));
#1760=CARTESIAN_POINT('',(0.,-0.000445,0.00024));
#1761=CARTESIAN_POINT('',(-0.002575,-0.000445,0.00024));
#1762=CARTESIAN_POINT('',(-0.002575,-0.00057,0.00024));
#1763=CARTESIAN_POINT('',(-0.002575,-0.000695,0.00024));
#1764=CARTESIAN_POINT('',(0.,-0.000695,0.00024));
#1765=CARTESIAN_POINT('',(0.,0.,-4.E-5));
#1766=CARTESIAN_POINT('',(0.,-0.000695,-4.E-5));
#1767=CARTESIAN_POINT('',(-0.002575,-0.000695,-4.E-5));
#1768=CARTESIAN_POINT('',(-0.002575,-0.00057,-4.E-5));
#1769=CARTESIAN_POINT('',(-0.002575,-0.000445,-4.E-5));
#1770=CARTESIAN_POINT('',(0.,-0.000445,-4.E-5));
#1771=CARTESIAN_POINT('',(-0.001905,0.002465,-4.E-5));
#1772=CARTESIAN_POINT('',(-0.00211,0.002465,-4.E-5));
#1773=CARTESIAN_POINT('',(-0.00211,0.00277,-4.E-5));
#1774=CARTESIAN_POINT('',(-0.00211,0.003075,-4.E-5));
#1775=CARTESIAN_POINT('',(-0.001905,0.003075,-4.E-5));
#1776=CARTESIAN_POINT('',(-0.0017,0.003075,-4.E-5));
#1777=CARTESIAN_POINT('',(-0.0017,0.00277,-4.E-5));
#1778=CARTESIAN_POINT('',(-0.00084,0.00277,-4.E-5));
#1779=CARTESIAN_POINT('',(-0.00084,0.003075,-4.E-5));
#1780=CARTESIAN_POINT('',(-0.000635,0.003075,-4.E-5));
#1781=CARTESIAN_POINT('',(-0.00043,0.003075,-4.E-5));
#1782=CARTESIAN_POINT('',(-0.00043,0.00277,-4.E-5));
#1783=CARTESIAN_POINT('',(0.00043,0.00277,-4.E-5));
#1784=CARTESIAN_POINT('',(0.00043,0.003075,-4.E-5));
#1785=CARTESIAN_POINT('',(0.000635,0.003075,-4.E-5));
#1786=CARTESIAN_POINT('',(0.00084,0.003075,-4.E-5));
#1787=CARTESIAN_POINT('',(0.00084,0.00277,-4.E-5));
#1788=CARTESIAN_POINT('',(0.0017,0.00277,-4.E-5));
#1789=CARTESIAN_POINT('',(0.0017,0.003075,-4.E-5));
#1790=CARTESIAN_POINT('',(0.001905,0.003075,-4.E-5));
#1791=CARTESIAN_POINT('',(0.00211,0.003075,-4.E-5));
#1792=CARTESIAN_POINT('',(0.00211,0.00277,-4.E-5));
#1793=CARTESIAN_POINT('',(0.00211,0.002465,-4.E-5));
#1794=CARTESIAN_POINT('',(0.001905,0.002465,-4.E-5));
#1795=CARTESIAN_POINT('',(0.,-0.000445,-4.E-5));
#1796=CARTESIAN_POINT('',(0.002575,-0.000445,-4.E-5));
#1797=CARTESIAN_POINT('',(0.002575,-0.00057,-4.E-5));
#1798=CARTESIAN_POINT('',(0.002575,-0.000695,-4.E-5));
#1799=CARTESIAN_POINT('',(0.,-0.000695,-4.E-5));
#1800=CARTESIAN_POINT('',(0.001905,0.003075,0.00024));
#1801=CARTESIAN_POINT('',(0.0017,0.003075,0.00024));
#1802=CARTESIAN_POINT('',(0.00211,0.003075,0.00024));
#1803=CARTESIAN_POINT('',(0.0017,0.00277,0.00024));
#1804=CARTESIAN_POINT('',(0.001905,0.002465,0.00024));
#1805=CARTESIAN_POINT('',(0.00211,0.002465,0.00024));
#1806=CARTESIAN_POINT('',(0.00211,0.00277,0.00024));
#1807=CARTESIAN_POINT('',(0.000635,0.003075,0.00024));
#1808=CARTESIAN_POINT('',(0.00043,0.003075,0.00024));
#1809=CARTESIAN_POINT('',(0.00084,0.003075,0.00024));
#1810=CARTESIAN_POINT('',(0.00043,0.00277,0.00024));
#1811=CARTESIAN_POINT('',(0.00084,0.00277,0.00024));
#1812=CARTESIAN_POINT('',(-0.000635,0.003075,0.00024));
#1813=CARTESIAN_POINT('',(-0.00084,0.003075,0.00024));
#1814=CARTESIAN_POINT('',(-0.00043,0.003075,0.00024));
#1815=CARTESIAN_POINT('',(-0.00084,0.00277,0.00024));
#1816=CARTESIAN_POINT('',(-0.00043,0.00277,0.00024));
#1817=CARTESIAN_POINT('',(-0.001905,0.002465,0.00024));
#1818=CARTESIAN_POINT('',(-0.00211,0.002465,0.00024));
#1819=CARTESIAN_POINT('',(-0.001905,0.003075,0.00024));
#1820=CARTESIAN_POINT('',(-0.00211,0.003075,0.00024));
#1821=CARTESIAN_POINT('',(-0.0017,0.003075,0.00024));
#1822=CARTESIAN_POINT('',(-0.00211,0.00277,0.00024));
#1823=CARTESIAN_POINT('',(-0.0017,0.00277,0.00024));
#1824=CARTESIAN_POINT('',(-0.002575,-0.00057,0.00024));
#1825=CARTESIAN_POINT('',(-0.002575,-0.000695,0.00024));
#1826=CARTESIAN_POINT('',(-0.002575,-0.000445,0.00024));
#1827=CARTESIAN_POINT('',(0.,-0.000445,0.00024));
#1828=CARTESIAN_POINT('',(0.,-0.000695,0.00024));
#1829=CARTESIAN_POINT('',(0.,-0.000445,0.00024));
#1830=CARTESIAN_POINT('',(0.002575,-0.000445,0.00024));
#1831=CARTESIAN_POINT('',(0.,-0.000695,0.00024));
#1832=CARTESIAN_POINT('',(0.002575,-0.000695,0.00024));
#1833=CARTESIAN_POINT('',(0.002575,-0.00057,0.00024));
#1834=MECHANICAL_DESIGN_GEOMETRIC_PRESENTATION_REPRESENTATION('',(#1106),
#1840);
#1835=MECHANICAL_DESIGN_GEOMETRIC_PRESENTATION_REPRESENTATION('',(#1107),
#1841);
#1836=MECHANICAL_DESIGN_GEOMETRIC_PRESENTATION_REPRESENTATION('',(#1108),
#1842);
#1837=MECHANICAL_DESIGN_GEOMETRIC_PRESENTATION_REPRESENTATION('',(#1109),
#1843);
#1838=MECHANICAL_DESIGN_GEOMETRIC_PRESENTATION_REPRESENTATION('',(#1110),
#1844);
#1839=MECHANICAL_DESIGN_GEOMETRIC_PRESENTATION_REPRESENTATION('',(#1111),
#1845);
#1840=(
GEOMETRIC_REPRESENTATION_CONTEXT(3)
GLOBAL_UNCERTAINTY_ASSIGNED_CONTEXT((#1846))
GLOBAL_UNIT_ASSIGNED_CONTEXT((#1864,#1858,#1852))
REPRESENTATION_CONTEXT('Part 1','TOP_LEVEL_ASSEMBLY_PART')
);
#1841=(
GEOMETRIC_REPRESENTATION_CONTEXT(3)
GLOBAL_UNCERTAINTY_ASSIGNED_CONTEXT((#1847))
GLOBAL_UNIT_ASSIGNED_CONTEXT((#1865,#1859,#1853))
REPRESENTATION_CONTEXT('Part 2','TOP_LEVEL_ASSEMBLY_PART')
);
#1842=(
GEOMETRIC_REPRESENTATION_CONTEXT(3)
GLOBAL_UNCERTAINTY_ASSIGNED_CONTEXT((#1848))
GLOBAL_UNIT_ASSIGNED_CONTEXT((#1866,#1860,#1854))
REPRESENTATION_CONTEXT('Part 3','TOP_LEVEL_ASSEMBLY_PART')
);
#1843=(
GEOMETRIC_REPRESENTATION_CONTEXT(3)
GLOBAL_UNCERTAINTY_ASSIGNED_CONTEXT((#1849))
GLOBAL_UNIT_ASSIGNED_CONTEXT((#1867,#1861,#1855))
REPRESENTATION_CONTEXT('Part 4','TOP_LEVEL_ASSEMBLY_PART')
);
#1844=(
GEOMETRIC_REPRESENTATION_CONTEXT(3)
GLOBAL_UNCERTAINTY_ASSIGNED_CONTEXT((#1850))
GLOBAL_UNIT_ASSIGNED_CONTEXT((#1868,#1862,#1856))
REPRESENTATION_CONTEXT('Part 5','TOP_LEVEL_ASSEMBLY_PART')
);
#1845=(
GEOMETRIC_REPRESENTATION_CONTEXT(3)
GLOBAL_UNCERTAINTY_ASSIGNED_CONTEXT((#1851))
GLOBAL_UNIT_ASSIGNED_CONTEXT((#1869,#1863,#1857))
REPRESENTATION_CONTEXT('Part 6','TOP_LEVEL_ASSEMBLY_PART')
);
#1846=UNCERTAINTY_MEASURE_WITH_UNIT(LENGTH_MEASURE(5.E-6),#1864,
'DISTANCE_ACCURACY_VALUE','Maximum Tolerance applied to model');
#1847=UNCERTAINTY_MEASURE_WITH_UNIT(LENGTH_MEASURE(5.E-6),#1865,
'DISTANCE_ACCURACY_VALUE','Maximum Tolerance applied to model');
#1848=UNCERTAINTY_MEASURE_WITH_UNIT(LENGTH_MEASURE(5.E-6),#1866,
'DISTANCE_ACCURACY_VALUE','Maximum Tolerance applied to model');
#1849=UNCERTAINTY_MEASURE_WITH_UNIT(LENGTH_MEASURE(5.E-6),#1867,
'DISTANCE_ACCURACY_VALUE','Maximum Tolerance applied to model');
#1850=UNCERTAINTY_MEASURE_WITH_UNIT(LENGTH_MEASURE(5.E-6),#1868,
'DISTANCE_ACCURACY_VALUE','Maximum Tolerance applied to model');
#1851=UNCERTAINTY_MEASURE_WITH_UNIT(LENGTH_MEASURE(5.E-6),#1869,
'DISTANCE_ACCURACY_VALUE','Maximum Tolerance applied to model');
#1852=(
NAMED_UNIT(*)
SI_UNIT($,.STERADIAN.)
SOLID_ANGLE_UNIT()
);
#1853=(
NAMED_UNIT(*)
SI_UNIT($,.STERADIAN.)
SOLID_ANGLE_UNIT()
);
#1854=(
NAMED_UNIT(*)
SI_UNIT($,.STERADIAN.)
SOLID_ANGLE_UNIT()
);
#1855=(
NAMED_UNIT(*)
SI_UNIT($,.STERADIAN.)
SOLID_ANGLE_UNIT()
);
#1856=(
NAMED_UNIT(*)
SI_UNIT($,.STERADIAN.)
SOLID_ANGLE_UNIT()
);
#1857=(
NAMED_UNIT(*)
SI_UNIT($,.STERADIAN.)
SOLID_ANGLE_UNIT()
);
#1858=(
NAMED_UNIT(*)
PLANE_ANGLE_UNIT()
SI_UNIT($,.RADIAN.)
);
#1859=(
NAMED_UNIT(*)
PLANE_ANGLE_UNIT()
SI_UNIT($,.RADIAN.)
);
#1860=(
NAMED_UNIT(*)
PLANE_ANGLE_UNIT()
SI_UNIT($,.RADIAN.)
);
#1861=(
NAMED_UNIT(*)
PLANE_ANGLE_UNIT()
SI_UNIT($,.RADIAN.)
);
#1862=(
NAMED_UNIT(*)
PLANE_ANGLE_UNIT()
SI_UNIT($,.RADIAN.)
);
#1863=(
NAMED_UNIT(*)
PLANE_ANGLE_UNIT()
SI_UNIT($,.RADIAN.)
);
#1864=(
LENGTH_UNIT()
NAMED_UNIT(*)
SI_UNIT($,.METRE.)
);
#1865=(
LENGTH_UNIT()
NAMED_UNIT(*)
SI_UNIT($,.METRE.)
);
#1866=(
LENGTH_UNIT()
NAMED_UNIT(*)
SI_UNIT($,.METRE.)
);
#1867=(
LENGTH_UNIT()
NAMED_UNIT(*)
SI_UNIT($,.METRE.)
);
#1868=(
LENGTH_UNIT()
NAMED_UNIT(*)
SI_UNIT($,.METRE.)
);
#1869=(
LENGTH_UNIT()
NAMED_UNIT(*)
SI_UNIT($,.METRE.)
);
#1870=PRODUCT_DEFINITION_SHAPE('','',#1876);
#1871=PRODUCT_DEFINITION_SHAPE('','',#1877);
#1872=PRODUCT_DEFINITION_SHAPE('','',#1878);
#1873=PRODUCT_DEFINITION_SHAPE('','',#1879);
#1874=PRODUCT_DEFINITION_SHAPE('','',#1880);
#1875=PRODUCT_DEFINITION_SHAPE('','',#1881);
#1876=PRODUCT_DEFINITION('','',#1888,#1882);
#1877=PRODUCT_DEFINITION('','',#1889,#1883);
#1878=PRODUCT_DEFINITION('','',#1890,#1884);
#1879=PRODUCT_DEFINITION('','',#1891,#1885);
#1880=PRODUCT_DEFINITION('','',#1892,#1886);
#1881=PRODUCT_DEFINITION('','',#1893,#1887);
#1882=PRODUCT_DEFINITION_CONTEXT('',#1924,'design');
#1883=PRODUCT_DEFINITION_CONTEXT('',#1925,'design');
#1884=PRODUCT_DEFINITION_CONTEXT('',#1926,'design');
#1885=PRODUCT_DEFINITION_CONTEXT('',#1927,'design');
#1886=PRODUCT_DEFINITION_CONTEXT('',#1928,'design');
#1887=PRODUCT_DEFINITION_CONTEXT('',#1929,'design');
#1888=PRODUCT_DEFINITION_FORMATION_WITH_SPECIFIED_SOURCE('','',#1900,
 .NOT_KNOWN.);
#1889=PRODUCT_DEFINITION_FORMATION_WITH_SPECIFIED_SOURCE('','',#1901,
 .NOT_KNOWN.);
#1890=PRODUCT_DEFINITION_FORMATION_WITH_SPECIFIED_SOURCE('','',#1902,
 .NOT_KNOWN.);
#1891=PRODUCT_DEFINITION_FORMATION_WITH_SPECIFIED_SOURCE('','',#1903,
 .NOT_KNOWN.);
#1892=PRODUCT_DEFINITION_FORMATION_WITH_SPECIFIED_SOURCE('','',#1904,
 .NOT_KNOWN.);
#1893=PRODUCT_DEFINITION_FORMATION_WITH_SPECIFIED_SOURCE('','',#1905,
 .NOT_KNOWN.);
#1894=PRODUCT_RELATED_PRODUCT_CATEGORY('','',(#1900));
#1895=PRODUCT_RELATED_PRODUCT_CATEGORY('','',(#1901));
#1896=PRODUCT_RELATED_PRODUCT_CATEGORY('','',(#1902));
#1897=PRODUCT_RELATED_PRODUCT_CATEGORY('','',(#1903));
#1898=PRODUCT_RELATED_PRODUCT_CATEGORY('','',(#1904));
#1899=PRODUCT_RELATED_PRODUCT_CATEGORY('','',(#1905));
#1900=PRODUCT('Part 1','Part 1','Part 1',(#1912));
#1901=PRODUCT('Part 2','Part 2','Part 2',(#1913));
#1902=PRODUCT('Part 3','Part 3','Part 3',(#1914));
#1903=PRODUCT('Part 4','Part 4','Part 4',(#1915));
#1904=PRODUCT('Part 5','Part 5','Part 5',(#1916));
#1905=PRODUCT('Part 6','Part 6','Part 6',(#1917));
#1906=PRODUCT_CATEGORY('','');
#1907=PRODUCT_CATEGORY('','');
#1908=PRODUCT_CATEGORY('','');
#1909=PRODUCT_CATEGORY('','');
#1910=PRODUCT_CATEGORY('','');
#1911=PRODUCT_CATEGORY('','');
#1912=PRODUCT_CONTEXT('',#1924,'mechanical');
#1913=PRODUCT_CONTEXT('',#1925,'mechanical');
#1914=PRODUCT_CONTEXT('',#1926,'mechanical');
#1915=PRODUCT_CONTEXT('',#1927,'mechanical');
#1916=PRODUCT_CONTEXT('',#1928,'mechanical');
#1917=PRODUCT_CONTEXT('',#1929,'mechanical');
#1918=APPLICATION_PROTOCOL_DEFINITION('international standard',
'ap242_managed_model_based_3d_engineering',2011,#1924);
#1919=APPLICATION_PROTOCOL_DEFINITION('international standard',
'ap242_managed_model_based_3d_engineering',2011,#1925);
#1920=APPLICATION_PROTOCOL_DEFINITION('international standard',
'ap242_managed_model_based_3d_engineering',2011,#1926);
#1921=APPLICATION_PROTOCOL_DEFINITION('international standard',
'ap242_managed_model_based_3d_engineering',2011,#1927);
#1922=APPLICATION_PROTOCOL_DEFINITION('international standard',
'ap242_managed_model_based_3d_engineering',2011,#1928);
#1923=APPLICATION_PROTOCOL_DEFINITION('international standard',
'ap242_managed_model_based_3d_engineering',2011,#1929);
#1924=APPLICATION_CONTEXT('managed model based 3d engineering');
#1925=APPLICATION_CONTEXT('managed model based 3d engineering');
#1926=APPLICATION_CONTEXT('managed model based 3d engineering');
#1927=APPLICATION_CONTEXT('managed model based 3d engineering');
#1928=APPLICATION_CONTEXT('managed model based 3d engineering');
#1929=APPLICATION_CONTEXT('managed model based 3d engineering');
ENDSEC;
END-ISO-10303-21;
